<?xml version="1.0" encoding="UTF-8"?><!-- Generator: Adobe Illustrator 12.0.0, SVG Export Plug-In . SVG Version: 6.00 Build 51448)  --><!DOCTYPE svg PUBLIC "-//W3C//DTD SVG 1.1//EN" "http://www.w3.org/Graphics/SVG/1.1/DTD/svg11.dtd">
<svg xmlns="http://www.w3.org/2000/svg" xmlns:xlink="http://www.w3.org/1999/xlink" version="1.1" width="344.834" height="257.083" viewBox="0 0 344.834 257.083" overflow="visible" enable-background="new 0 0 344.834 257.083" xml:space="preserve" preserveAspectRatio="xMidYMid meet" zoomAndPan="magnify" contentScriptType="application/ecmascript" contentStyleType="text/css">
<g id="diagram">
	
		<line fill="#FFFFFF" stroke="#000000" stroke-width="0.5" stroke-linecap="round" stroke-linejoin="round" x1="132.25" y1="216.167" x2="206.916" y2="236.833"/>
	
		<line fill="#FFFFFF" stroke="#000000" stroke-width="0.5" stroke-linecap="round" stroke-linejoin="round" x1="140.917" y1="44.833" x2="236.917" y2="23.5"/>
	
		<line fill="#FFFFFF" stroke="#000000" stroke-width="0.5" stroke-linecap="round" stroke-linejoin="round" x1="132.583" y1="183.834" x2="205.916" y2="168.5"/>
	<rect x="202.584" y="155.5" fill="#8C8C8C" stroke="#000000" width="108" height="25.333"/>
	<rect x="43.084" y="184" fill="#8C8C8C" stroke="#000000" width="108" height="31.833"/>
	<rect x="202.584" y="222.833" fill="#FFFFFF" stroke="#000000" width="108" height="25.334"/>
	<ellipse fill="#D6D6D6" stroke="#000000" cx="259.917" cy="21.5" rx="54" ry="21"/>
	<ellipse fill="#D6D6D6" stroke="#000000" cx="99.417" cy="54.5" rx="54" ry="21"/>
	<path fill="none" stroke="#000000" stroke-dasharray="2" d="M220.25,128.833"/>
	<rect x="217.25" y="164.5" fill="none" width="79.333" height="10"/>
	<text transform="matrix(1 0 0 1 220.3945 170.9619)" fill="#FFFFFF" font-family="'Helvetica'" font-size="9">Secondary node 1</text>
	<rect x="217.25" y="231.833" fill="none" width="79.333" height="10"/>
	<text transform="matrix(1 0 0 1 220.3945 238.2964)" font-family="'Helvetica'" font-size="9">Secondary node 2</text>
	<rect x="120.251" y="162.5" fill="none" width="67.333" height="9"/>
	<text transform="matrix(1 0 0 1 124.1548 168.9619)" font-family="'Helvetica'" font-size="9">Connection C1</text>
	<rect x="120.251" y="235.5" fill="none" width="67.333" height="9"/>
	<text transform="matrix(1 0 0 1 124.1548 241.9624)" font-family="'Helvetica'" font-size="9">Connection C2</text>
	<rect x="24.25" y="16.167" fill="none" width="56.667" height="7.667"/>
	<text transform="matrix(1 0 0 1 24.2505 22.6289)" font-family="'Helvetica'" font-size="9">Data ONTAP</text>
	<rect x="25.084" y="120.146" fill="none" width="77.166" height="20.042"/>
	<text transform="matrix(1 0 0 1 25.084 126.6084)"><tspan x="0" y="0" font-family="'Helvetica'" font-size="9">OnCommand </tspan><tspan x="0" y="10.8" font-family="'Helvetica'" font-size="9">Unified Manager</tspan></text>
	<rect x="98.417" y="25" fill="none" width="88.333" height="9.5"/>
	<text transform="matrix(1 0 0 1 110.8232 31.4624)" font-family="'Helvetica'" font-size="9">Relationship R3    </text>
	<path fill="none" stroke="#000000" stroke-width="0.5" stroke-linecap="round" stroke-linejoin="round" stroke-dasharray="2" d="   M102,158.083"/>
	
		<rect x="24.25" y="143.833" fill="none" stroke="#000000" stroke-width="0.5" stroke-linecap="round" stroke-linejoin="round" width="292.5" height="113"/>
	
		<line fill="none" stroke="#000000" stroke-width="0.5" stroke-linecap="round" stroke-linejoin="round" x1="0.25" y1="111.5" x2="344.584" y2="111.5"/>
	
		<line stroke="#000000" stroke-width="0.5" stroke-linecap="round" stroke-linejoin="round" stroke-dasharray="2" x1="114.25" y1="75.5" x2="114.25" y2="181.5"/>
	
		<line stroke="#000000" stroke-width="0.5" stroke-linecap="round" stroke-linejoin="round" stroke-dasharray="2" x1="191.583" y1="168.167" x2="191.583" y2="34.5"/>
	
		<line stroke="#000000" stroke-width="0.5" stroke-linecap="round" stroke-linejoin="round" stroke-dasharray="2" x1="260.917" y1="152.833" x2="260.917" y2="43.833"/>
</g>
<g id="text">
	<rect x="27.25" y="149.834" fill="none" width="70.5" height="21.333"/>
	<text transform="matrix(1 0 0 1 27.251 156.2964)"><tspan x="0" y="0" font-family="'Helvetica'" font-size="9">Storage service </tspan><tspan x="0" y="10.8" font-family="'Helvetica'" font-size="9">SS1</tspan></text>
	<rect x="56.416" y="51.666" fill="none" width="88.5" height="12.667"/>
	<text transform="matrix(1 0 0 1 70.6558 58.1279)" font-family="'Helvetica'" font-size="9">Source volume </text>
	<rect x="58.5" y="195.5" fill="none" width="82" height="10.001"/>
	<text transform="matrix(1 0 0 1 58.4995 201.9614)" fill="#FFFFFF" font-family="'Helvetica'" font-size="9">Primary (root) node</text>
	<rect x="223.583" y="11.833" fill="none" width="69.333" height="19.333"/>
	<text transform="matrix(1 0 0 1 235.7402 18.2959)"><tspan x="0" y="0" font-family="'Helvetica'" font-size="9">Destination </tspan><tspan x="3.506" y="10.8" font-family="'Helvetica'" font-size="9">volume C</tspan></text>
	<polygon points="114.126,176.793 116.435,176.781 115.296,179.874 114.16,182.968 112.988,179.887 111.817,176.806  "/>
	<polygon points="191.459,164.127 193.768,164.115 192.629,167.208 191.492,170.301 190.32,167.22 189.15,164.139  "/>
	<polygon points="260.793,148.293 263.102,148.281 261.963,151.374 260.826,154.468 259.654,151.387 258.484,148.306  "/>
</g>
</svg>