<?xml version="1.0" encoding="UTF-8"?><!-- Generator: Adobe Illustrator 12.0.0, SVG Export Plug-In . SVG Version: 6.00 Build 51448)  --><!DOCTYPE svg PUBLIC "-//W3C//DTD SVG 1.1//EN" "http://www.w3.org/Graphics/SVG/1.1/DTD/svg11.dtd">
<svg xmlns="http://www.w3.org/2000/svg" xmlns:xlink="http://www.w3.org/1999/xlink" version="1.1" width="548.583" height="286.794" viewBox="0 0 548.583 286.794" overflow="visible" enable-background="new 0 0 548.583 286.794" xml:space="preserve" preserveAspectRatio="xMidYMid meet" zoomAndPan="magnify" contentScriptType="application/ecmascript" contentStyleType="text/css">
<g id="boxes_1_">
	<g>
		<g>
			<path fill="#666666" stroke="#FFFFFF" stroke-width="3" stroke-linecap="round" stroke-linejoin="round" d="M41.944,158.129     v22.588c0,3.223-7.959,5.836-17.777,5.836c-9.816,0-17.776-2.613-17.776-5.836v-22.588H41.944z"/>
			
				<ellipse fill="#666666" stroke="#FFFFFF" stroke-width="3" stroke-linecap="round" stroke-linejoin="round" cx="24.167" cy="158.129" rx="17.777" ry="5.835"/>
		</g>
		<g>
			<path fill="#666666" stroke="#231F20" stroke-linecap="round" stroke-linejoin="round" d="M41.944,158.129v22.588     c0,3.223-7.959,5.836-17.777,5.836c-9.816,0-17.776-2.613-17.776-5.836v-22.588H41.944z"/>
			
				<ellipse fill="#666666" stroke="#FFFFFF" stroke-linecap="round" stroke-linejoin="round" cx="24.167" cy="158.129" rx="17.777" ry="5.835"/>
		</g>
	</g>
	<g>
		<g>
			<path fill="#666666" stroke="#FFFFFF" stroke-width="3" stroke-linecap="round" stroke-linejoin="round" d="M41.944,205.464     v22.588c0,3.223-7.959,5.836-17.777,5.836c-9.816,0-17.776-2.613-17.776-5.836v-22.588H41.944z"/>
			
				<ellipse fill="#666666" stroke="#FFFFFF" stroke-width="3" stroke-linecap="round" stroke-linejoin="round" cx="24.167" cy="205.464" rx="17.777" ry="5.834"/>
		</g>
		<g>
			<path fill="#666666" stroke="#231F20" stroke-linecap="round" stroke-linejoin="round" d="M41.944,205.464v22.588     c0,3.223-7.959,5.836-17.777,5.836c-9.816,0-17.776-2.613-17.776-5.836v-22.588H41.944z"/>
			
				<ellipse fill="#666666" stroke="#FFFFFF" stroke-linecap="round" stroke-linejoin="round" cx="24.167" cy="205.464" rx="17.777" ry="5.834"/>
		</g>
	</g>
	<g>
		<g>
			<path fill="#666666" stroke="#FFFFFF" stroke-width="3" stroke-linecap="round" stroke-linejoin="round" d="M41.944,253.13     v22.588c0,3.223-7.959,5.836-17.777,5.836c-9.816,0-17.776-2.613-17.776-5.836V253.13H41.944z"/>
			
				<ellipse fill="#666666" stroke="#FFFFFF" stroke-width="3" stroke-linecap="round" stroke-linejoin="round" cx="24.167" cy="253.13" rx="17.777" ry="5.834"/>
		</g>
		<g>
			<path fill="#666666" stroke="#231F20" stroke-linecap="round" stroke-linejoin="round" d="M41.944,253.13v22.588     c0,3.223-7.959,5.836-17.777,5.836c-9.816,0-17.776-2.613-17.776-5.836V253.13H41.944z"/>
			
				<ellipse fill="#666666" stroke="#FFFFFF" stroke-linecap="round" stroke-linejoin="round" cx="24.167" cy="253.13" rx="17.777" ry="5.834"/>
		</g>
	</g>
	<g>
		<g>
			<path fill="#8C8C8C" stroke="#FFFFFF" stroke-width="3" stroke-linecap="round" stroke-linejoin="round" d="M206.444,158.129     v22.588c0,3.223-7.959,5.836-17.777,5.836c-9.816,0-17.776-2.613-17.776-5.836v-22.588H206.444z"/>
			
				<ellipse fill="#8C8C8C" stroke="#FFFFFF" stroke-width="3" stroke-linecap="round" stroke-linejoin="round" cx="188.667" cy="158.129" rx="17.777" ry="5.835"/>
		</g>
		<g>
			<path fill="#8C8C8C" stroke="#231F20" stroke-linecap="round" stroke-linejoin="round" d="M206.444,158.129v22.588     c0,3.223-7.959,5.836-17.777,5.836c-9.816,0-17.776-2.613-17.776-5.836v-22.588H206.444z"/>
			
				<ellipse fill="#8C8C8C" stroke="#FFFFFF" stroke-linecap="round" stroke-linejoin="round" cx="188.667" cy="158.129" rx="17.777" ry="5.835"/>
		</g>
	</g>
	<g>
		<g>
			<path fill="#8C8C8C" stroke="#FFFFFF" stroke-width="3" stroke-linecap="round" stroke-linejoin="round" d="M206.444,205.464     v22.588c0,3.223-7.959,5.836-17.777,5.836c-9.816,0-17.776-2.613-17.776-5.836v-22.588H206.444z"/>
			
				<ellipse fill="#8C8C8C" stroke="#FFFFFF" stroke-width="3" stroke-linecap="round" stroke-linejoin="round" cx="188.667" cy="205.464" rx="17.777" ry="5.834"/>
		</g>
		<g>
			<path fill="#8C8C8C" stroke="#231F20" stroke-linecap="round" stroke-linejoin="round" d="M206.444,205.464v22.588     c0,3.223-7.959,5.836-17.777,5.836c-9.816,0-17.776-2.613-17.776-5.836v-22.588H206.444z"/>
			
				<ellipse fill="#8C8C8C" stroke="#FFFFFF" stroke-linecap="round" stroke-linejoin="round" cx="188.667" cy="205.464" rx="17.777" ry="5.834"/>
		</g>
	</g>
	<g>
		<g>
			<path fill="#8C8C8C" stroke="#FFFFFF" stroke-width="3" stroke-linecap="round" stroke-linejoin="round" d="M206.444,253.13     v22.588c0,3.223-7.959,5.836-17.777,5.836c-9.816,0-17.776-2.613-17.776-5.836V253.13H206.444z"/>
			
				<ellipse fill="#8C8C8C" stroke="#FFFFFF" stroke-width="3" stroke-linecap="round" stroke-linejoin="round" cx="188.667" cy="253.13" rx="17.777" ry="5.834"/>
		</g>
		<g>
			<path fill="#8C8C8C" stroke="#231F20" stroke-linecap="round" stroke-linejoin="round" d="M206.444,253.13v22.588     c0,3.223-7.959,5.836-17.777,5.836c-9.816,0-17.776-2.613-17.776-5.836V253.13H206.444z"/>
			
				<ellipse fill="#8C8C8C" stroke="#FFFFFF" stroke-linecap="round" stroke-linejoin="round" cx="188.667" cy="253.13" rx="17.777" ry="5.834"/>
		</g>
	</g>
	<path fill="#666666" stroke="#000000" stroke-width="0.5" stroke-linejoin="round" d="M71.75,108.044c0,4.971-4.029,9-9,9H9.25   c-4.971,0-9-4.029-9-9v-29c0-4.971,4.029-9,9-9h53.5c4.971,0,9,4.029,9,9V108.044z"/>
	<path fill="#8C8C8C" stroke="#000000" stroke-width="0.5" stroke-linejoin="round" d="M225.25,108.044c0,4.971-4.029,9-9,9h-53.5   c-4.971,0-9-4.029-9-9v-29c0-4.971,4.029-9,9-9h53.5c4.971,0,9,4.029,9,9V108.044z"/>
	
		<ellipse fill="#8C8C8C" stroke="#000000" stroke-width="0.5" stroke-linejoin="round" cx="347.25" cy="89.794" rx="45" ry="29.25"/>
	<circle fill="#8C8C8C" stroke="#000000" stroke-width="0.5" stroke-linejoin="round" cx="347.5" cy="216.794" r="54.25"/>
</g>
<g id="arrows">
	<polygon fill="#8C8C8C" stroke="#000000" stroke-width="0.5" stroke-linejoin="round" points="158.5,93.044 135,69.544 135,81.544    59.5,81.544 59.5,104.044 134.75,104.044 134.75,116.544  "/>
	<polyline fill="#8C8C8C" stroke="#000000" stroke-width="0.5" stroke-linejoin="round" points="225,92.294 244.826,72.794    244.826,82.544 301.75,82.544 301.75,102.294 245.341,102.294 245.341,111.794 225.25,92.294  "/>
	<polygon fill="#8C8C8C" stroke="#000000" stroke-width="0.5" stroke-linejoin="round" points="175.75,173.794 158.5,155.044    158.5,164.544 37.25,164.544 37.25,182.794 158,182.794 158,192.044  "/>
	<polygon fill="#8C8C8C" stroke="#000000" stroke-width="0.5" stroke-linejoin="round" points="175.75,221.044 158.5,202.294    158.5,211.794 37.25,211.794 37.25,230.044 158,230.044 158,239.294  "/>
	<polygon fill="#8C8C8C" stroke="#000000" stroke-width="0.5" stroke-linejoin="round" points="175.75,268.294 158.5,249.544    158.5,259.044 37.25,259.044 37.25,277.294 158,277.294 158,286.544  "/>
	<polygon fill="#8C8C8C" stroke="#000000" stroke-width="0.5" stroke-linejoin="round" points="238.75,215.919 245.875,208.794    245.875,212.419 288.75,212.419 288.75,219.044 246,219.044 246,222.669  "/>
	<polygon fill="#8C8C8C" stroke="#000000" stroke-width="0.5" stroke-linejoin="round" points="242.53,177.473 251.008,172.026    250.236,175.568 292.131,184.687 290.722,191.16 248.949,182.068 248.179,185.61  "/>
	<polygon fill="#8C8C8C" stroke="#000000" stroke-width="0.5" stroke-linejoin="round" points="242.058,260.297 246.331,251.171    247.565,254.58 287.878,239.979 290.134,246.207 249.939,260.766 251.174,264.174  "/>
</g>
<g id="text">
	<rect x="16.5" y="169.794" fill="none" width="15.25" height="9.5"/>
	<text transform="matrix(1 0 0 1 21.1235 176.2559)" fill="#FFFFFF" font-family="'Helvetica'" font-size="9">A</text>
	<rect x="16.5" y="217.044" fill="none" width="15.25" height="9.5"/>
	<text transform="matrix(1 0 0 1 21.1235 223.5059)" fill="#FFFFFF" font-family="'Helvetica'" font-size="9">B</text>
	<rect x="16.5" y="263.294" fill="none" width="15.25" height="9.5"/>
	<text transform="matrix(1 0 0 1 20.876 269.7559)" fill="#FFFFFF" font-family="'Helvetica'" font-size="9">C</text>
	<rect x="175.5" y="170.794" fill="none" width="26.25" height="9.5"/>
	<text transform="matrix(1 0 0 1 178.374 177.2559)" fill="#FFFFFF" font-family="'Helvetica'" font-size="9">D1-A</text>
	<rect x="175.5" y="217.294" fill="none" width="26.25" height="9.5"/>
	<text transform="matrix(1 0 0 1 178.374 223.7559)" fill="#FFFFFF" font-family="'Helvetica'" font-size="9">D1-B</text>
	<rect x="175.5" y="263.794" fill="none" width="26.25" height="9.5"/>
	<text transform="matrix(1 0 0 1 178.1265 270.2559)" fill="#FFFFFF" font-family="'Helvetica'" font-size="9">D1-C</text>
	<rect x="87.5" y="88.794" fill="none" width="33.75" height="9.5"/>
	<text transform="matrix(1 0 0 1 87.5 95.2559)" fill="#FFFFFF" font-family="'Helvetica'" font-size="9">Mirror</text>
	<rect x="3.75" y="84.044" fill="none" width="53.25" height="20.5"/>
	<text transform="matrix(1 0 0 1 4.8599 90.5059)"><tspan x="0" y="0" fill="#FFFFFF" font-family="'Helvetica'" font-size="9">Source node </tspan><tspan x="13.014" y="10.8" fill="#FFFFFF" font-family="'Helvetica'" font-size="9">(Root)</tspan></text>
	<rect x="161.25" y="79.544" fill="none" width="53.25" height="30.25"/>
	<text transform="matrix(1 0 0 1 165.3662 86.0059)"><tspan x="0" y="0" fill="#FFFFFF" font-family="'Helvetica'" font-size="9">Destination </tspan><tspan x="12.501" y="10.8" fill="#FFFFFF" font-family="'Helvetica'" font-size="9">node </tspan><tspan x="-1.998" y="21.6" fill="#FFFFFF" font-family="'Helvetica'" font-size="9">(Secondary)</tspan></text>
	<rect x="322.25" y="78.294" fill="none" width="53.25" height="24"/>
	<text transform="matrix(1 0 0 1 329.6191 84.7559)"><tspan x="0" y="0" fill="#FFFFFF" font-family="'Helvetica'" font-size="9">Resource </tspan><tspan x="-1.498" y="10.8" fill="#FFFFFF" font-family="'Helvetica'" font-size="9">pool (rp-1)</tspan></text>
	<rect x="40.5" y="170.044" fill="none" width="47.75" height="10.25"/>
	<text transform="matrix(1 0 0 1 40.5 176.5059)" fill="#FFFFFF" font-family="'Helvetica'" font-size="9">Mirror</text>
	<rect x="40.25" y="216.794" fill="none" width="47.75" height="10.25"/>
	<text transform="matrix(1 0 0 1 40.25 223.2559)" fill="#FFFFFF" font-family="'Helvetica'" font-size="9">Mirror</text>
	<rect x="40.25" y="263.794" fill="none" width="47.75" height="10.25"/>
	<text transform="matrix(1 0 0 1 40.25 270.2559)" fill="#FFFFFF" font-family="'Helvetica'" font-size="9">Mirror</text>
	<rect x="19.25" y="79.794" fill="none" width="9.25" height="0"/>
	<rect x="245.75" y="87.794" fill="none" width="50.5" height="12.5"/>
	<text transform="matrix(1 0 0 1 250.75 94.2559)" fill="#FFFFFF" font-family="'Helvetica'" font-size="9">(SM Dest)</text>
	<rect x="332.25" y="212.294" fill="none" width="31.25" height="12.833"/>
	<text transform="matrix(1 0 0 1 339.874 218.7559)" fill="#FFFFFF" font-family="'Helvetica'" font-size="9">rp-1</text>
</g>
</svg>