<?xml version="1.0" encoding="UTF-8"?><!-- Generator: Adobe Illustrator 12.0.0, SVG Export Plug-In . SVG Version: 6.00 Build 51448)  --><!DOCTYPE svg PUBLIC "-//W3C//DTD SVG 1.1//EN" "http://www.w3.org/Graphics/SVG/1.1/DTD/svg11.dtd">
<svg xmlns="http://www.w3.org/2000/svg" xmlns:xlink="http://www.w3.org/1999/xlink" version="1.1" width="396.333" height="343.177" viewBox="0 0 396.333 343.177" overflow="visible" enable-background="new 0 0 396.333 343.177" xml:space="preserve" preserveAspectRatio="xMidYMid meet" zoomAndPan="magnify" contentScriptType="application/ecmascript" contentStyleType="text/css">
<g id="boxes">
	<g>
		<g>
			<path fill="#8C8C8C" stroke="#FFFFFF" stroke-width="3" stroke-linecap="round" stroke-linejoin="round" d="M145.527,209.252     v22.589c0,3.223-7.959,5.836-17.777,5.836c-9.816,0-17.776-2.613-17.776-5.836v-22.589H145.527z"/>
			
				<ellipse fill="#8C8C8C" stroke="#FFFFFF" stroke-width="3" stroke-linecap="round" stroke-linejoin="round" cx="127.75" cy="209.252" rx="17.777" ry="5.835"/>
		</g>
		<g>
			<path fill="#8C8C8C" stroke="#231F20" stroke-linecap="round" stroke-linejoin="round" d="M145.527,209.252v22.589     c0,3.223-7.959,5.836-17.777,5.836c-9.816,0-17.776-2.613-17.776-5.836v-22.589H145.527z"/>
			
				<ellipse fill="#8C8C8C" stroke="#FFFFFF" stroke-linecap="round" stroke-linejoin="round" cx="127.75" cy="209.252" rx="17.777" ry="5.835"/>
		</g>
	</g>
	<g>
		<g>
			<path fill="#666666" stroke="#FFFFFF" stroke-width="3" stroke-linecap="round" stroke-linejoin="round" d="M214.527,177.919     v22.588c0,3.223-7.959,5.836-17.777,5.836c-9.816,0-17.776-2.613-17.776-5.836v-22.588H214.527z"/>
			
				<ellipse fill="#666666" stroke="#FFFFFF" stroke-width="3" stroke-linecap="round" stroke-linejoin="round" cx="196.75" cy="177.919" rx="17.777" ry="5.835"/>
		</g>
		<g>
			<path fill="#666666" stroke="#231F20" stroke-linecap="round" stroke-linejoin="round" d="M214.527,177.919v22.588     c0,3.223-7.959,5.836-17.777,5.836c-9.816,0-17.776-2.613-17.776-5.836v-22.588H214.527z"/>
			
				<ellipse fill="#666666" stroke="#FFFFFF" stroke-linecap="round" stroke-linejoin="round" cx="196.75" cy="177.919" rx="17.777" ry="5.835"/>
		</g>
	</g>
	<g>
		<g>
			<path fill="#666666" stroke="#FFFFFF" stroke-width="3" stroke-linecap="round" stroke-linejoin="round" d="M214.527,225.253     v22.588c0,3.223-7.959,5.836-17.777,5.836c-9.816,0-17.776-2.613-17.776-5.836v-22.588H214.527z"/>
			
				<ellipse fill="#666666" stroke="#FFFFFF" stroke-width="3" stroke-linecap="round" stroke-linejoin="round" cx="196.75" cy="225.253" rx="17.777" ry="5.834"/>
		</g>
		<g>
			<path fill="#666666" stroke="#231F20" stroke-linecap="round" stroke-linejoin="round" d="M214.527,225.253v22.588     c0,3.223-7.959,5.836-17.777,5.836c-9.816,0-17.776-2.613-17.776-5.836v-22.588H214.527z"/>
			
				<ellipse fill="#666666" stroke="#FFFFFF" stroke-linecap="round" stroke-linejoin="round" cx="196.75" cy="225.253" rx="17.777" ry="5.834"/>
		</g>
	</g>
	<g>
		<g>
			<path fill="#666666" stroke="#FFFFFF" stroke-width="3" stroke-linecap="round" stroke-linejoin="round" d="M214.527,272.919     v22.588c0,3.223-7.959,5.836-17.777,5.836c-9.816,0-17.776-2.613-17.776-5.836v-22.588H214.527z"/>
			
				<ellipse fill="#666666" stroke="#FFFFFF" stroke-width="3" stroke-linecap="round" stroke-linejoin="round" cx="196.75" cy="272.919" rx="17.777" ry="5.834"/>
		</g>
		<g>
			<path fill="#666666" stroke="#231F20" stroke-linecap="round" stroke-linejoin="round" d="M214.527,272.919v22.588     c0,3.223-7.959,5.836-17.777,5.836c-9.816,0-17.776-2.613-17.776-5.836v-22.588H214.527z"/>
			
				<ellipse fill="#666666" stroke="#FFFFFF" stroke-linecap="round" stroke-linejoin="round" cx="196.75" cy="272.919" rx="17.777" ry="5.834"/>
		</g>
	</g>
	<g>
		<g>
			<path fill="#8C8C8C" stroke="#FFFFFF" stroke-width="3" stroke-linecap="round" stroke-linejoin="round" d="M145.527,261.252     v22.589c0,3.223-7.959,5.836-17.777,5.836c-9.816,0-17.776-2.613-17.776-5.836v-22.589H145.527z"/>
			
				<ellipse fill="#8C8C8C" stroke="#FFFFFF" stroke-width="3" stroke-linecap="round" stroke-linejoin="round" cx="127.75" cy="261.252" rx="17.777" ry="5.835"/>
		</g>
		<g>
			<path fill="#8C8C8C" stroke="#231F20" stroke-linecap="round" stroke-linejoin="round" d="M145.527,261.252v22.589     c0,3.223-7.959,5.836-17.777,5.836c-9.816,0-17.776-2.613-17.776-5.836v-22.589H145.527z"/>
			
				<ellipse fill="#8C8C8C" stroke="#FFFFFF" stroke-linecap="round" stroke-linejoin="round" cx="127.75" cy="261.252" rx="17.777" ry="5.835"/>
		</g>
	</g>
	<g>
		<g>
			<path fill="#8C8C8C" stroke="#FFFFFF" stroke-width="3" stroke-linecap="round" stroke-linejoin="round" d="M145.527,313.252     v22.589c0,3.223-7.959,5.836-17.777,5.836c-9.816,0-17.776-2.613-17.776-5.836v-22.589H145.527z"/>
			
				<ellipse fill="#8C8C8C" stroke="#FFFFFF" stroke-width="3" stroke-linecap="round" stroke-linejoin="round" cx="127.75" cy="313.252" rx="17.777" ry="5.835"/>
		</g>
		<g>
			<path fill="#8C8C8C" stroke="#231F20" stroke-linecap="round" stroke-linejoin="round" d="M145.527,313.252v22.589     c0,3.223-7.959,5.836-17.777,5.836c-9.816,0-17.776-2.613-17.776-5.836v-22.589H145.527z"/>
			
				<ellipse fill="#8C8C8C" stroke="#FFFFFF" stroke-linecap="round" stroke-linejoin="round" cx="127.75" cy="313.252" rx="17.777" ry="5.835"/>
		</g>
	</g>
	<g>
		<g>
			<path fill="#B2B2B2" stroke="#FFFFFF" stroke-width="3" stroke-linecap="round" stroke-linejoin="round" d="M288.195,209.252     v22.589c0,3.223-7.959,5.836-17.777,5.836c-9.816,0-17.777-2.613-17.777-5.836v-22.589H288.195z"/>
			
				<ellipse fill="#B2B2B2" stroke="#FFFFFF" stroke-width="3" stroke-linecap="round" stroke-linejoin="round" cx="270.417" cy="209.252" rx="17.777" ry="5.835"/>
		</g>
		<g>
			<path fill="#B2B2B2" stroke="#231F20" stroke-linecap="round" stroke-linejoin="round" d="M288.195,209.252v22.589     c0,3.223-7.959,5.836-17.777,5.836c-9.816,0-17.777-2.613-17.777-5.836v-22.589H288.195z"/>
			
				<ellipse fill="#B2B2B2" stroke="#FFFFFF" stroke-linecap="round" stroke-linejoin="round" cx="270.417" cy="209.252" rx="17.777" ry="5.835"/>
		</g>
	</g>
	<g>
		<g>
			<path fill="#B2B2B2" stroke="#FFFFFF" stroke-width="3" stroke-linecap="round" stroke-linejoin="round" d="M288.195,261.252     v22.589c0,3.223-7.959,5.836-17.777,5.836c-9.816,0-17.777-2.613-17.777-5.836v-22.589H288.195z"/>
			
				<ellipse fill="#B2B2B2" stroke="#FFFFFF" stroke-width="3" stroke-linecap="round" stroke-linejoin="round" cx="270.417" cy="261.252" rx="17.777" ry="5.835"/>
		</g>
		<g>
			<path fill="#B2B2B2" stroke="#231F20" stroke-linecap="round" stroke-linejoin="round" d="M288.195,261.252v22.589     c0,3.223-7.959,5.836-17.777,5.836c-9.816,0-17.777-2.613-17.777-5.836v-22.589H288.195z"/>
			
				<ellipse fill="#B2B2B2" stroke="#FFFFFF" stroke-linecap="round" stroke-linejoin="round" cx="270.417" cy="261.252" rx="17.777" ry="5.835"/>
		</g>
	</g>
	<g>
		<g>
			<path fill="#B2B2B2" stroke="#FFFFFF" stroke-width="3" stroke-linecap="round" stroke-linejoin="round" d="M288.195,313.252     v22.589c0,3.223-7.959,5.836-17.777,5.836c-9.816,0-17.777-2.613-17.777-5.836v-22.589H288.195z"/>
			
				<ellipse fill="#B2B2B2" stroke="#FFFFFF" stroke-width="3" stroke-linecap="round" stroke-linejoin="round" cx="270.417" cy="313.252" rx="17.777" ry="5.835"/>
		</g>
		<g>
			<path fill="#B2B2B2" stroke="#231F20" stroke-linecap="round" stroke-linejoin="round" d="M288.195,313.252v22.589     c0,3.223-7.959,5.836-17.777,5.836c-9.816,0-17.777-2.613-17.777-5.836v-22.589H288.195z"/>
			
				<ellipse fill="#B2B2B2" stroke="#FFFFFF" stroke-linecap="round" stroke-linejoin="round" cx="270.417" cy="313.252" rx="17.777" ry="5.835"/>
		</g>
	</g>
	<path fill="#8C8C8C" stroke="#000000" stroke-linecap="round" stroke-linejoin="round" d="M171.285,131.5c0,4.971-3.594,9-8.029,9   h-46.393c-4.435,0-8.029-4.029-8.029-9V100.5c0-4.971,3.595-9,8.029-9h46.393c4.436,0,8.029,4.029,8.029,9V131.5z"/>
	<path fill="#666666" stroke="#000000" stroke-linecap="round" stroke-linejoin="round" d="M220.952,40.5c0,4.971-3.594,9-8.029,9   H166.53c-4.435,0-8.029-4.029-8.029-9V9.5c0-4.971,3.595-9,8.029-9h46.393c4.436,0,8.029,4.029,8.029,9V40.5z"/>
	<path fill="#B2B2B2" stroke="#000000" stroke-linecap="round" stroke-linejoin="round" d="M278.618,131.5c0,4.971-3.594,9-8.029,9   h-46.393c-4.435,0-8.029-4.029-8.029-9V100.5c0-4.971,3.595-9,8.029-9h46.393c4.436,0,8.029,4.029,8.029,9V131.5z"/>
</g>
<g id="arrows">
	<polygon fill="#666666" stroke="#000000" stroke-linejoin="round" points="137.255,94.833 133.083,76.222 138.183,78.847    165.07,39 175.5,46.397 149.54,86.959 154.408,90.3  "/>
	<polygon fill="#B2B2B2" stroke="#000000" stroke-linejoin="round" points="245.083,94.583 222.083,92.333 229.333,87.083    201.833,51.333 213.583,42.083 241.583,77.333 248.333,72.083  "/>
	<polygon fill="#8C8C8C" stroke="#000000" stroke-linejoin="round" points="145.083,212.417 149.333,193.917 152.833,199.333    177.083,184.917 184.083,195.917 160.583,210.667 163.333,217.167  "/>
	<polygon fill="#8C8C8C" stroke="#000000" stroke-linejoin="round" points="145.083,261.75 149.333,243.25 153.083,248.333    177.083,234.25 184.083,245.25 160.583,260 163.333,266.5  "/>
	<polygon fill="#8C8C8C" stroke="#000000" stroke-linejoin="round" points="145.083,310.417 149.333,291.917 153.333,296.833    177.083,282.917 184.083,293.917 160.583,308.667 163.333,315.167  "/>
	<polygon fill="#B2B2B2" stroke="#000000" stroke-linejoin="round" points="254.583,261.833 249.583,245.083 246.333,251.083    217.833,235.583 211.583,247.083 240.333,261.583 237.333,267.333  "/>
	<polygon fill="#B2B2B2" stroke="#000000" stroke-linejoin="round" points="254.583,310.167 249.583,293.417 246.333,299.417    217.833,283.917 211.583,295.417 240.333,309.917 237.333,315.667  "/>
	<polygon fill="#B2B2B2" stroke="#000000" stroke-linejoin="round" points="254.917,210.5 249.917,193.75 246.667,199.75    218.167,184.25 211.917,195.75 240.667,210.25 237.667,216  "/>
	<ellipse fill="#8C8C8C" stroke="#000000" stroke-linejoin="round" cx="30.667" cy="115.667" rx="30.167" ry="40.667"/>
	<ellipse fill="#B2B2B2" stroke="#000000" stroke-linejoin="round" cx="351.333" cy="115.667" rx="30.167" ry="40.667"/>
	<ellipse fill="#8C8C8C" stroke="#000000" stroke-linejoin="round" cx="41.833" cy="275.667" rx="39.333" ry="49"/>
	<ellipse fill="#B2B2B2" stroke="#000000" stroke-linejoin="round" cx="356.5" cy="275.667" rx="39.333" ry="49"/>
	<polygon fill="#8C8C8C" stroke="#000000" stroke-linejoin="round" points="61.167,99.061 61.167,131.461 84.491,131.461    84.491,148.703 108.153,114.221 84.153,80.333 82.801,98.764  "/>
	<polygon fill="#B2B2B2" stroke="#000000" stroke-linejoin="round" points="321.818,130.976 321.818,98.575 300.646,98.575    300.646,81.333 279.167,115.815 300.953,149.703 302.18,131.273  "/>
	<path d="M53.3,307.998c5.003,6.279,32.499,14.041,45.662,12.26l-0.513-5.099l6.56,7.542l-4.779,8.306l-0.627-4.929   c-15.335-1.302-39.668-8.626-46.505-16.423L53.3,307.998z"/>
	<path d="M55.071,240.709c4.658-6.54,31.695-15.771,44.936-14.701l-0.237,5.119l6.144-7.885l-5.22-8.037l-0.359,4.956   c-15.243,2.125-39.146,10.75-45.553,18.904L55.071,240.709z"/>
	<path d="M342.711,234.547c-5.004-6.279-32.498-14.041-45.662-12.26l0.514,5.099l-6.561-7.542l4.779-8.306l0.627,4.929   c15.335,1.302,39.668,8.626,46.504,16.423L342.711,234.547z"/>
	<path d="M341.94,301.835c-4.658,6.54-31.695,15.771-44.936,14.701l0.238-5.119l-6.145,7.885l5.221,8.037l0.359-4.956   c15.242-2.125,39.146-10.75,45.553-18.904L341.94,301.835z"/>
	<polygon stroke="#000000" stroke-width="0.55" stroke-linejoin="round" points="102.561,267.722 109.684,274.511 102.561,281.299    102.561,278.991 83.084,278.991 83.084,270.031 102.561,270.031  "/>
	<polygon stroke="#000000" stroke-width="0.55" stroke-linejoin="round" points="295.993,279.964 288.668,273.175 295.993,266.387    295.993,268.696 316.017,268.696 316.017,277.656 295.993,277.656  "/>
</g>
<g id="text">
	
		<rect x="143.79" y="60.845" transform="matrix(0.5751 -0.8181 0.8181 0.5751 13.1646 156.3715)" fill="none" width="26.668" height="9.334"/>
	
		<text transform="matrix(0.5751 -0.8181 0.8181 0.5751 151.4917 77.8677)" fill="#FFFFFF" font-family="'Helvetica'" font-size="10">Mirror</text>
	
		<rect x="212.845" y="66.371" transform="matrix(0.631 0.7758 -0.7758 0.631 138.574 -149.2544)" fill="none" width="26.668" height="9.333"/>
	<text transform="matrix(0.631 0.7758 -0.7758 0.631 215.8169 62.27)" fill="#FFFFFF" font-family="'Helvetica'" font-size="10">Mirror</text>
	
		<rect x="154.109" y="195.048" transform="matrix(0.8743 -0.4854 0.4854 0.8743 -75.4691 106.2269)" fill="none" width="26.514" height="7.56"/>
	
		<text transform="matrix(0.8819 -0.4714 0.4714 0.8819 156.9341 207.2407)" fill="#FFFFFF" font-family="'Helvetica'" font-size="9">Mirror</text>
	
		<rect x="153.859" y="243.798" transform="matrix(0.8743 -0.4854 0.4854 0.8743 -99.1626 112.2332)" fill="none" width="26.514" height="7.56"/>
	
		<text transform="matrix(0.8819 -0.4714 0.4714 0.8819 156.6841 255.9907)" fill="#FFFFFF" font-family="'Helvetica'" font-size="9">Mirror</text>
	
		<rect x="152.359" y="293.048" transform="matrix(0.8743 -0.4854 0.4854 0.8743 -123.2559 117.6956)" fill="none" width="26.514" height="7.56"/>
	
		<text transform="matrix(0.8819 -0.4714 0.4714 0.8819 155.1841 305.2407)" fill="#FFFFFF" font-family="'Helvetica'" font-size="9">Mirror</text>
	
		<rect x="220.191" y="195.625" transform="matrix(0.8711 0.4912 -0.4912 0.8711 127.664 -88.5862)" fill="none" width="24.75" height="6.5"/>
	
		<text transform="matrix(0.8711 0.4911 -0.4911 0.8711 220.2622 195.6187)" fill="#FFFFFF" font-family="'Helvetica'" font-size="9">Mirror</text>
	
		<rect x="219.708" y="247.105" transform="matrix(0.8903 0.4553 -0.4553 0.8903 139.4517 -78.217)" fill="none" width="24.75" height="6.5"/>
	
		<text transform="matrix(0.8903 0.4553 -0.4553 0.8903 219.6265 247.5991)" fill="#FFFFFF" font-family="'Helvetica'" font-size="9">Mirror</text>
	
		<rect x="220.958" y="296.105" transform="matrix(0.8903 0.4553 -0.4553 0.8903 161.9004 -73.4118)" fill="none" width="24.75" height="6.5"/>
	
		<text transform="matrix(0.8903 0.4553 -0.4553 0.8903 220.8765 296.5991)" fill="#FFFFFF" font-family="'Helvetica'" font-size="9">Mirror</text>
	<rect x="160.083" y="12.583" fill="none" width="59.75" height="19.75"/>
	<text transform="matrix(1 0 0 1 164.4434 19.0454)"><tspan x="0" y="0" fill="#FFFFFF" font-family="'Helvetica'" font-size="9">Source node </tspan><tspan x="-1.998" y="10.8" fill="#FFFFFF" font-family="'Helvetica'" font-size="9">(Root node 1)</tspan></text>
	<rect x="11.083" y="97.083" fill="none" width="40.25" height="39.25"/>
	<text transform="matrix(1 0 0 1 11.9531 103.5454)"><tspan x="0" y="0" fill="#FFFFFF" font-family="'Helvetica'" font-size="9">Resource </tspan><tspan x="10.75" y="10.8" fill="#FFFFFF" font-family="'Helvetica'" font-size="9">pool </tspan><tspan x="8.257" y="21.6" fill="#FFFFFF" font-family="'Helvetica'" font-size="9">(rp-1)</tspan></text>
	<rect x="330.833" y="97.083" fill="none" width="40.25" height="39.25"/>
	<text transform="matrix(1 0 0 1 331.7026 103.5454)"><tspan x="0" y="0" fill="#FFFFFF" font-family="'Helvetica'" font-size="9">Resource </tspan><tspan x="10.751" y="10.8" fill="#FFFFFF" font-family="'Helvetica'" font-size="9">pool </tspan><tspan x="8.258" y="21.6" fill="#FFFFFF" font-family="'Helvetica'" font-size="9">(rp-2)</tspan></text>
	<rect x="66.833" y="103.833" fill="none" width="30.25" height="20.5"/>
	<text transform="matrix(1 0 0 1 73.71 110.2954)"><tspan x="0" y="0" fill="#FFFFFF" font-family="'Helvetica'" font-size="9">(SM </tspan><tspan x="-2.502" y="10.8" fill="#FFFFFF" font-family="'Helvetica'" font-size="9">Dest)</tspan></text>
	<rect x="290.083" y="103.833" fill="none" width="30.25" height="20.5"/>
	<text transform="matrix(1 0 0 1 296.9604 110.2954)"><tspan x="0" y="0" fill="#FFFFFF" font-family="'Helvetica'" font-size="9">(SM </tspan><tspan x="-2.502" y="10.8" fill="#FFFFFF" font-family="'Helvetica'" font-size="9">Dest)</tspan></text>
	<rect x="111.083" y="100.333" fill="none" width="58.25" height="36.75"/>
	<text transform="matrix(1 0 0 1 117.6997 106.7954)"><tspan x="0" y="0" fill="#FFFFFF" font-family="'Helvetica'" font-size="9">Destination </tspan><tspan x="12.501" y="10.8" fill="#FFFFFF" font-family="'Helvetica'" font-size="9">node </tspan><tspan x="-5.999" y="21.6" fill="#FFFFFF" font-family="'Helvetica'" font-size="9">(Secondary-1)</tspan></text>
	<rect x="218.083" y="100.333" fill="none" width="58.25" height="36.75"/>
	<text transform="matrix(1 0 0 1 224.6997 106.7954)"><tspan x="0" y="0" fill="#FFFFFF" font-family="'Helvetica'" font-size="9">Destination </tspan><tspan x="12.501" y="10.8" fill="#FFFFFF" font-family="'Helvetica'" font-size="9">node </tspan><tspan x="-5.999" y="21.6" fill="#FFFFFF" font-family="'Helvetica'" font-size="9">(Secondary-2)</tspan></text>
	<rect x="28.083" y="268.583" fill="none" width="22" height="14.25"/>
	<text transform="matrix(1 0 0 1 31.0825 275.0454)" fill="#FFFFFF" font-family="'Helvetica'" font-size="9">rp-1       </text>
	<rect x="346.833" y="267.833" fill="none" width="22" height="14.25"/>
	<text transform="matrix(1 0 0 1 349.8325 274.2954)" fill="#FFFFFF" font-family="'Helvetica'" font-size="9">rp-2       </text>
	<rect x="114.833" y="221.083" fill="none" width="26" height="8.75"/>
	<text transform="matrix(1 0 0 1 117.5825 227.5454)" fill="#FFFFFF" font-family="'Helvetica'" font-size="9">D1-A</text>
	<rect x="114.833" y="273.083" fill="none" width="26" height="8.75"/>
	<text transform="matrix(1 0 0 1 117.5825 279.5454)" fill="#FFFFFF" font-family="'Helvetica'" font-size="9">D1-B</text>
	<rect x="114.833" y="325.083" fill="none" width="26" height="8.75"/>
	<text transform="matrix(1 0 0 1 117.335 331.5454)" fill="#FFFFFF" font-family="'Helvetica'" font-size="9">D1-C</text>
	<rect x="258.833" y="221.083" fill="none" width="26" height="8.75"/>
	<text transform="matrix(1 0 0 1 261.5825 227.5454)" fill="#FFFFFF" font-family="'Helvetica'" font-size="9">D2-A</text>
	<rect x="258.833" y="273.083" fill="none" width="26" height="8.75"/>
	<text transform="matrix(1 0 0 1 261.5825 279.5454)" fill="#FFFFFF" font-family="'Helvetica'" font-size="9">D2-B</text>
	<rect x="258.833" y="325.083" fill="none" width="26" height="8.75"/>
	<text transform="matrix(1 0 0 1 261.3354 331.5454)" fill="#FFFFFF" font-family="'Helvetica'" font-size="9">D2-C</text>
	<rect x="189.083" y="190.083" fill="none" width="15.25" height="9.5"/>
	<text transform="matrix(1 0 0 1 193.707 196.5454)" fill="#FFFFFF" font-family="'Helvetica'" font-size="9">A</text>
	<rect x="189.083" y="237.333" fill="none" width="15.25" height="9.5"/>
	<text transform="matrix(1 0 0 1 193.707 243.7954)" fill="#FFFFFF" font-family="'Helvetica'" font-size="9">B</text>
	<rect x="189.083" y="284.583" fill="none" width="15.25" height="9.5"/>
	<text transform="matrix(1 0 0 1 193.4595 291.0454)" fill="#FFFFFF" font-family="'Helvetica'" font-size="9">C</text>
</g>
</svg>