<?xml version="1.0" encoding="UTF-8"?><!-- Generator: Adobe Illustrator 12.0.0, SVG Export Plug-In . SVG Version: 6.00 Build 51448)  --><!DOCTYPE svg PUBLIC "-//W3C//DTD SVG 1.1//EN" "http://www.w3.org/Graphics/SVG/1.1/DTD/svg11.dtd">
<svg xmlns="http://www.w3.org/2000/svg" xmlns:xlink="http://www.w3.org/1999/xlink" version="1.1" width="397" height="344" viewBox="0 0 397 344" overflow="visible" enable-background="new 0 0 397 344" xml:space="preserve" preserveAspectRatio="xMidYMid meet" zoomAndPan="magnify" contentScriptType="application/ecmascript" contentStyleType="text/css">
<g id="boxes">
	<g>
		<g>
			<path fill="#626366" stroke="#FFFFFF" stroke-width="3" stroke-linecap="round" stroke-linejoin="round" d="M52.527,148.419     v22.589c0,3.222-7.959,5.835-17.777,5.835s-17.777-2.613-17.777-5.835v-22.589H52.527z"/>
			
				<ellipse fill="#626366" stroke="#FFFFFF" stroke-width="3" stroke-linecap="round" stroke-linejoin="round" cx="34.75" cy="148.419" rx="17.777" ry="5.835"/>
		</g>
		<g>
			<path fill="#626366" stroke="#231F20" stroke-linecap="round" stroke-linejoin="round" d="M52.527,148.419v22.589     c0,3.222-7.959,5.835-17.777,5.835s-17.777-2.613-17.777-5.835v-22.589H52.527z"/>
			
				<ellipse fill="#BBBDBF" stroke="#FFFFFF" stroke-linecap="round" stroke-linejoin="round" cx="34.75" cy="148.419" rx="17.777" ry="5.835"/>
		</g>
	</g>
	<g>
		<g>
			<path fill="#626366" stroke="#FFFFFF" stroke-width="3" stroke-linecap="round" stroke-linejoin="round" d="M52.527,191.419     v22.589c0,3.223-7.959,5.836-17.777,5.836s-17.777-2.613-17.777-5.836v-22.589H52.527z"/>
			
				<ellipse fill="#626366" stroke="#FFFFFF" stroke-width="3" stroke-linecap="round" stroke-linejoin="round" cx="34.75" cy="191.419" rx="17.777" ry="5.835"/>
		</g>
		<g>
			<path fill="#626366" stroke="#231F20" stroke-linecap="round" stroke-linejoin="round" d="M52.527,191.419v22.589     c0,3.223-7.959,5.836-17.777,5.836s-17.777-2.613-17.777-5.836v-22.589H52.527z"/>
			
				<ellipse fill="#BBBDBF" stroke="#FFFFFF" stroke-linecap="round" stroke-linejoin="round" cx="34.75" cy="191.419" rx="17.777" ry="5.835"/>
		</g>
	</g>
	<g>
		<g>
			<path fill="#626366" stroke="#FFFFFF" stroke-width="3" stroke-linecap="round" stroke-linejoin="round" d="M52.527,234.419     v22.589c0,3.223-7.959,5.836-17.777,5.836s-17.777-2.613-17.777-5.836v-22.589H52.527z"/>
			
				<ellipse fill="#626366" stroke="#FFFFFF" stroke-width="3" stroke-linecap="round" stroke-linejoin="round" cx="34.75" cy="234.419" rx="17.777" ry="5.835"/>
		</g>
		<g>
			<path fill="#626366" stroke="#231F20" stroke-linecap="round" stroke-linejoin="round" d="M52.527,234.419v22.589     c0,3.223-7.959,5.836-17.777,5.836s-17.777-2.613-17.777-5.836v-22.589H52.527z"/>
			
				<ellipse fill="#BBBDBF" stroke="#FFFFFF" stroke-linecap="round" stroke-linejoin="round" cx="34.75" cy="234.419" rx="17.777" ry="5.835"/>
		</g>
	</g>
	<g>
		<g>
			<path fill="#8C8C8C" stroke="#FFFFFF" stroke-width="3" stroke-linecap="round" stroke-linejoin="round" d="M192.527,148.419     v22.589c0,3.222-7.959,5.835-17.777,5.835c-9.816,0-17.776-2.613-17.776-5.835v-22.589H192.527z"/>
			
				<ellipse fill="#8C8C8C" stroke="#FFFFFF" stroke-width="3" stroke-linecap="round" stroke-linejoin="round" cx="174.75" cy="148.419" rx="17.777" ry="5.835"/>
		</g>
		<g>
			<path fill="#8C8C8C" stroke="#231F20" stroke-linecap="round" stroke-linejoin="round" d="M192.527,148.419v22.589     c0,3.222-7.959,5.835-17.777,5.835c-9.816,0-17.776-2.613-17.776-5.835v-22.589H192.527z"/>
			
				<ellipse fill="#8C8C8C" stroke="#FFFFFF" stroke-linecap="round" stroke-linejoin="round" cx="174.75" cy="148.419" rx="17.777" ry="5.835"/>
		</g>
	</g>
	<g>
		<g>
			<path fill="#8C8C8C" stroke="#FFFFFF" stroke-width="3" stroke-linecap="round" stroke-linejoin="round" d="M192.527,191.419     v22.589c0,3.223-7.959,5.836-17.777,5.836c-9.816,0-17.776-2.613-17.776-5.836v-22.589H192.527z"/>
			
				<ellipse fill="#8C8C8C" stroke="#FFFFFF" stroke-width="3" stroke-linecap="round" stroke-linejoin="round" cx="174.75" cy="191.419" rx="17.777" ry="5.835"/>
		</g>
		<g>
			<path fill="#8C8C8C" stroke="#231F20" stroke-linecap="round" stroke-linejoin="round" d="M192.527,191.419v22.589     c0,3.223-7.959,5.836-17.777,5.836c-9.816,0-17.776-2.613-17.776-5.836v-22.589H192.527z"/>
			
				<ellipse fill="#8C8C8C" stroke="#FFFFFF" stroke-linecap="round" stroke-linejoin="round" cx="174.75" cy="191.419" rx="17.777" ry="5.835"/>
		</g>
	</g>
	<g>
		<g>
			<path fill="#8C8C8C" stroke="#FFFFFF" stroke-width="3" stroke-linecap="round" stroke-linejoin="round" d="M192.527,234.419     v22.589c0,3.223-7.959,5.836-17.777,5.836c-9.816,0-17.776-2.613-17.776-5.836v-22.589H192.527z"/>
			
				<ellipse fill="#8C8C8C" stroke="#FFFFFF" stroke-width="3" stroke-linecap="round" stroke-linejoin="round" cx="174.75" cy="234.419" rx="17.777" ry="5.835"/>
		</g>
		<g>
			<path fill="#8C8C8C" stroke="#231F20" stroke-linecap="round" stroke-linejoin="round" d="M192.527,234.419v22.589     c0,3.223-7.959,5.836-17.777,5.836c-9.816,0-17.776-2.613-17.776-5.836v-22.589H192.527z"/>
			
				<ellipse fill="#8C8C8C" stroke="#FFFFFF" stroke-linecap="round" stroke-linejoin="round" cx="174.75" cy="234.419" rx="17.777" ry="5.835"/>
		</g>
	</g>
	<g>
		<g>
			<path fill="#B2B2B2" stroke="#FFFFFF" stroke-width="3" stroke-linecap="round" stroke-linejoin="round" d="M345.527,148.419     v22.589c0,3.222-7.959,5.835-17.777,5.835c-9.816,0-17.776-2.613-17.776-5.835v-22.589H345.527z"/>
			
				<ellipse fill="#B2B2B2" stroke="#FFFFFF" stroke-width="3" stroke-linecap="round" stroke-linejoin="round" cx="327.75" cy="148.419" rx="17.777" ry="5.835"/>
		</g>
		<g>
			<path fill="#B2B2B2" stroke="#231F20" stroke-linecap="round" stroke-linejoin="round" d="M345.527,148.419v22.589     c0,3.222-7.959,5.835-17.777,5.835c-9.816,0-17.776-2.613-17.776-5.835v-22.589H345.527z"/>
			
				<ellipse fill="#B2B2B2" stroke="#FFFFFF" stroke-linecap="round" stroke-linejoin="round" cx="327.75" cy="148.419" rx="17.777" ry="5.835"/>
		</g>
	</g>
	<g>
		<g>
			<path fill="#B2B2B2" stroke="#FFFFFF" stroke-width="3" stroke-linecap="round" stroke-linejoin="round" d="M345.527,191.419     v22.589c0,3.223-7.959,5.836-17.777,5.836c-9.816,0-17.776-2.613-17.776-5.836v-22.589H345.527z"/>
			
				<ellipse fill="#B2B2B2" stroke="#FFFFFF" stroke-width="3" stroke-linecap="round" stroke-linejoin="round" cx="327.75" cy="191.419" rx="17.777" ry="5.835"/>
		</g>
		<g>
			<path fill="#B2B2B2" stroke="#231F20" stroke-linecap="round" stroke-linejoin="round" d="M345.527,191.419v22.589     c0,3.223-7.959,5.836-17.777,5.836c-9.816,0-17.776-2.613-17.776-5.836v-22.589H345.527z"/>
			
				<ellipse fill="#B2B2B2" stroke="#FFFFFF" stroke-linecap="round" stroke-linejoin="round" cx="327.75" cy="191.419" rx="17.777" ry="5.835"/>
		</g>
	</g>
	<g>
		<g>
			<path fill="#B2B2B2" stroke="#FFFFFF" stroke-width="3" stroke-linecap="round" stroke-linejoin="round" d="M345.527,234.419     v22.589c0,3.223-7.959,5.836-17.777,5.836c-9.816,0-17.776-2.613-17.776-5.836v-22.589H345.527z"/>
			
				<ellipse fill="#B2B2B2" stroke="#FFFFFF" stroke-width="3" stroke-linecap="round" stroke-linejoin="round" cx="327.75" cy="234.419" rx="17.777" ry="5.835"/>
		</g>
		<g>
			<path fill="#B2B2B2" stroke="#231F20" stroke-linecap="round" stroke-linejoin="round" d="M345.527,234.419v22.589     c0,3.223-7.959,5.836-17.777,5.836c-9.816,0-17.776-2.613-17.776-5.836v-22.589H345.527z"/>
			
				<ellipse fill="#B2B2B2" stroke="#FFFFFF" stroke-linecap="round" stroke-linejoin="round" cx="327.75" cy="234.419" rx="17.777" ry="5.835"/>
		</g>
	</g>
	<path fill="#666666" stroke="#000000" stroke-linecap="round" stroke-linejoin="round" d="M63.952,111.102   c0,4.362-3.595,7.898-8.03,7.898H9.53c-4.435,0-8.03-3.536-8.03-7.898V83.898C1.5,79.536,5.095,76,9.53,76h46.392   c4.435,0,8.03,3.536,8.03,7.898V111.102z"/>
	<path fill="#8C8C8C" stroke="#000000" stroke-linecap="round" stroke-linejoin="round" d="M204.451,111.102   c0,4.362-3.594,7.898-8.029,7.898H150.03c-4.435,0-8.03-3.536-8.03-7.898V83.898c0-4.362,3.595-7.898,8.03-7.898h46.392   c4.436,0,8.029,3.536,8.029,7.898V111.102z"/>
	<path fill="#B2B2B2" stroke="#000000" stroke-linecap="round" stroke-linejoin="round" d="M354.951,111.102   c0,4.362-3.594,7.898-8.029,7.898h-46.393c-4.435,0-8.029-3.536-8.029-7.898V83.898c0-4.362,3.595-7.898,8.029-7.898h46.393   c4.436,0,8.029,3.536,8.029,7.898V111.102z"/>
	
		<ellipse fill="#8C8C8C" stroke="#000000" stroke-linecap="round" stroke-linejoin="round" cx="171.75" cy="25.25" rx="39.25" ry="24.75"/>
	
		<ellipse fill="#8C8C8C" stroke="#000000" stroke-linecap="round" stroke-linejoin="round" cx="185.25" cy="310.5" rx="43.75" ry="33"/>
	
		<ellipse fill="#B2B2B2" stroke="#000000" stroke-linecap="round" stroke-linejoin="round" cx="319.25" cy="25.25" rx="39.25" ry="24.75"/>
	
		<ellipse fill="#B2B2B2" stroke="#000000" stroke-linecap="round" stroke-linejoin="round" cx="353.25" cy="313" rx="43.25" ry="30"/>
	<path d="M178.385,299.773c4.565-5.419,4.062-29.26-1.439-39.451l-4.731,1.545l5.324-6.951l9.326,1.998l-4.535,1.599   c3.178,12.624,3.189,33.823-2.301,41.055L178.385,299.773z"/>
	<path d="M198.671,301.779c7.563-12.399-4.875-59.15-15.193-77.325l-3.701,4.661l1.55-15.508l9.827,0.739l-3.489,4.7   c9.341,23.758,19.986,65.481,12.458,81.765L198.671,301.779z"/>
	<path d="M216.336,315.836c6.874-25.748-12.772-101.256-28.152-130.856l-5.017,7.308l1.496-24.793l13.906,1.623l-4.716,7.381   c14.249,38.507,31.142,105.875,24.488,137.849L216.336,315.836z"/>
	<path d="M351.292,295.071c5.78-4.456,3.005-23.036-5.422-30.715l-6.347,1.441l6.688-5.69l12.95,1.095l-6.073,1.475   c5.458,9.692,7.325,26.235,0.438,32.152L351.292,295.071z"/>
	<path d="M368.317,297.524c7.421-13.042-5.674-62.754-16.264-82.153l-3.65,4.891l1.349-16.415l9.865,0.914l-3.437,4.936   c9.684,25.304,20.914,69.664,13.58,86.821L368.317,297.524z"/>
	<path d="M388.092,311.52c3.238-25.877-16.268-104.5-29.508-135.85l-3.152,7.134l-6.599-24.303l16.227,1.65l-2.928,7.229   c18.034,38.453,29.968,110.491,27.319,142.755L388.092,311.52z"/>
	<g>
		<polyline fill="#8C8C8C" stroke="#000000" points="170.5,75.167 224.5,62.833 196.5,62.833 196.5,51.5 146.833,51.5 146.833,62.5     119.167,62.5 170.667,75.167   "/>
	</g>
	<g>
		<polyline fill="#B2B2B2" stroke="#000000" points="322.333,75.167 376.333,62.833 348.333,62.833 348.333,51.5 298.666,51.5     298.666,62.5 271,62.5 322.5,75.167   "/>
	</g>
</g>
<g id="arrows_1_">
	<polygon fill="#B2B2B2" stroke="#000000" stroke-linejoin="round" points="134.788,88.016 127.576,79.698 127.576,88.833    57.833,88.833 57.833,104.167 127.576,104.167 127.576,112.969 134.788,104.651 142,96.333  "/>
	<polygon fill="#B2B2B2" stroke="#000000" stroke-linejoin="round" points="284.25,90.683 276.167,82.365 276.167,91.5    197.999,91.5 197.999,106.833 276.167,106.833 276.167,115.635 284.25,107.318 292.333,99  "/>
	<polygon fill="#B2B2B2" stroke="#000000" stroke-linejoin="round" points="147.231,152.016 138.462,143.698 138.462,152.833    53.667,152.833 53.667,168.167 138.462,168.167 138.462,176.969 147.231,168.651 156,160.333  "/>
	<polygon fill="#B2B2B2" stroke="#000000" stroke-linejoin="round" points="147.231,195.349 138.462,187.031 138.462,196.167    53.667,196.167 53.667,211.5 138.462,211.5 138.462,220.302 147.231,211.984 156,203.666  "/>
	<polygon fill="#B2B2B2" stroke="#000000" stroke-linejoin="round" points="147.231,240.683 138.462,232.365 138.462,241.5    53.667,241.5 53.667,256.834 138.462,256.834 138.462,265.635 147.231,257.318 156,249  "/>
	<polygon fill="#B2B2B2" stroke="#000000" stroke-linejoin="round" points="299.146,152.016 289.291,143.698 289.291,152.833    194,152.833 194,168.167 289.291,168.167 289.291,176.969 299.146,168.651 309,160.333  "/>
	<polygon fill="#B2B2B2" stroke="#000000" stroke-linejoin="round" points="299.146,195.349 289.291,187.031 289.291,196.167    194,196.167 194,211.5 289.291,211.5 289.291,220.302 299.146,211.984 309,203.666  "/>
	<polygon fill="#B2B2B2" stroke="#000000" stroke-linejoin="round" points="299.146,240.683 289.291,232.365 289.291,241.5    194,241.5 194,256.834 289.291,256.834 289.291,265.635 299.146,257.318 309,249  "/>
</g>
<g id="text">
	<rect x="162.5" y="302.501" fill="none" width="46.667" height="24.667"/>
	<text transform="matrix(1 0 0 1 166.5781 308.9629)"><tspan x="0" y="0" fill="#FFFFFF" font-family="'Helvetica'" font-size="9">Resource </tspan><tspan x="10.75" y="10.8" fill="#FFFFFF" font-family="'Helvetica'" font-size="9">pool</tspan></text>
	<rect x="143.5" y="15.001" fill="none" width="55.167" height="24.667"/>
	<text transform="matrix(1 0 0 1 151.8281 21.4629)"><tspan x="0" y="0" fill="#FFFFFF" font-family="'Helvetica'" font-size="9">Resource </tspan><tspan x="-1.499" y="10.8" fill="#FFFFFF" font-family="'Helvetica'" font-size="9">pool (rp-1)</tspan></text>
	<rect x="292" y="15.001" fill="none" width="55.167" height="24.667"/>
	<text transform="matrix(1 0 0 1 300.3281 21.4629)"><tspan x="0" y="0" fill="#FFFFFF" font-family="'Helvetica'" font-size="9">Resource </tspan><tspan x="-1.498" y="10.8" fill="#FFFFFF" font-family="'Helvetica'" font-size="9">pool (rp-2)</tspan></text>
	<rect x="330" y="302.501" fill="none" width="46.667" height="24.667"/>
	<text transform="matrix(1 0 0 1 334.0781 308.9629)"><tspan x="0" y="0" fill="#FFFFFF" font-family="'Helvetica'" font-size="9">Resource </tspan><tspan x="10.75" y="10.8" fill="#FFFFFF" font-family="'Helvetica'" font-size="9">pool</tspan></text>
	<rect x="149" y="57" fill="none" width="45" height="11"/>
	<text transform="matrix(1 0 0 1 151.25 63.4619)" fill="#FFFFFF" font-family="'Helvetica'" font-size="9">(SM Dest)</text>
	<rect x="301" y="57" fill="none" width="45" height="11"/>
	<text transform="matrix(1 0 0 1 303.25 63.4619)" fill="#FFFFFF" font-family="'Helvetica'" font-size="9">(SM Dest)</text>
	<rect y="88" fill="none" width="60" height="24"/>
	<text transform="matrix(1 0 0 1 4.4849 94.4619)"><tspan x="0" y="0" fill="#FFFFFF" font-family="'Helvetica'" font-size="9">Source node </tspan><tspan x="13.014" y="10.8" fill="#FFFFFF" font-family="'Helvetica'" font-size="9">(Root)</tspan></text>
	<rect x="138.5" y="82.5" fill="none" width="67.5" height="33.5"/>
	<text transform="matrix(1 0 0 1 149.7412 88.9619)"><tspan x="0" y="0" fill="#FFFFFF" font-family="'Helvetica'" font-size="9">Destination </tspan><tspan x="12.501" y="10.8" fill="#FFFFFF" font-family="'Helvetica'" font-size="9">node </tspan><tspan x="-1.998" y="21.6" fill="#FFFFFF" font-family="'Helvetica'" font-size="9">(Secondary)</tspan></text>
	<rect x="290.5" y="82.5" fill="none" width="67.5" height="33.5"/>
	<text transform="matrix(1 0 0 1 301.7412 88.9619)"><tspan x="0" y="0" fill="#FFFFFF" font-family="'Helvetica'" font-size="9">Destination </tspan><tspan x="12.501" y="10.8" fill="#FFFFFF" font-family="'Helvetica'" font-size="9">node </tspan><tspan x="4.262" y="21.6" fill="#FFFFFF" font-family="'Helvetica'" font-size="9">(Tertiary)</tspan></text>
	<rect x="77.5" y="93" fill="none" width="31.5" height="11.5"/>
	<text transform="matrix(1 0 0 1 81.5049 99.4619)" fill="#FFFFFF" font-family="'Helvetica'" font-size="9">Mirror</text>
	<rect x="77.5" y="157" fill="none" width="31.5" height="11.5"/>
	<text transform="matrix(1 0 0 1 81.5049 163.4619)" fill="#FFFFFF" font-family="'Helvetica'" font-size="9">Mirror</text>
	<rect x="77.5" y="200" fill="none" width="31.5" height="11.5"/>
	<text transform="matrix(1 0 0 1 81.5049 206.4619)" fill="#FFFFFF" font-family="'Helvetica'" font-size="9">Mirror</text>
	<rect x="77.5" y="245" fill="none" width="31.5" height="11.5"/>
	<text transform="matrix(1 0 0 1 81.5049 251.4619)" fill="#FFFFFF" font-family="'Helvetica'" font-size="9">Mirror</text>
	<rect x="225" y="95" fill="none" width="31.5" height="11.5"/>
	<text transform="matrix(1 0 0 1 229.0049 101.4619)" fill="#FFFFFF" font-family="'Helvetica'" font-size="9">Mirror</text>
	<rect x="225" y="157" fill="none" width="31.5" height="11.5"/>
	<text transform="matrix(1 0 0 1 229.0049 163.4619)" fill="#FFFFFF" font-family="'Helvetica'" font-size="9">Mirror</text>
	<rect x="225" y="200" fill="none" width="31.5" height="11.5"/>
	<text transform="matrix(1 0 0 1 229.0049 206.4619)" fill="#FFFFFF" font-family="'Helvetica'" font-size="9">Mirror</text>
	<rect x="225" y="245" fill="none" width="31.5" height="11.5"/>
	<text transform="matrix(1 0 0 1 229.0049 251.4619)" fill="#FFFFFF" font-family="'Helvetica'" font-size="9">Mirror</text>
	<rect x="28.5" y="160.5" fill="none" width="10.5" height="9.5"/>
	<text transform="matrix(1 0 0 1 30.7485 166.9619)" fill="#FFFFFF" font-family="'Helvetica'" font-size="9">A</text>
	<rect x="28.5" y="204" fill="none" width="10.5" height="9.5"/>
	<text transform="matrix(1 0 0 1 30.7485 210.4619)" fill="#FFFFFF" font-family="'Helvetica'" font-size="9">B</text>
	<rect x="28.5" y="247.5" fill="none" width="10.5" height="9.5"/>
	<text transform="matrix(1 0 0 1 30.501 253.9619)" fill="#FFFFFF" font-family="'Helvetica'" font-size="9">C</text>
	<rect x="160" y="160" fill="none" width="26" height="11.5"/>
	<text transform="matrix(1 0 0 1 162.749 166.4619)" fill="#FFFFFF" font-family="'Helvetica'" font-size="9">D1-A</text>
	<rect x="160" y="204" fill="none" width="26" height="11.5"/>
	<text transform="matrix(1 0 0 1 162.749 210.4619)" fill="#FFFFFF" font-family="'Helvetica'" font-size="9">D1-B</text>
	<rect x="161" y="246" fill="none" width="26" height="11.5"/>
	<text transform="matrix(1 0 0 1 163.502 252.4619)" fill="#FFFFFF" font-family="'Helvetica'" font-size="9">D1-C</text>
	<rect x="315.5" y="160" fill="none" width="26" height="11.5"/>
	<text transform="matrix(1 0 0 1 318.249 166.4619)" fill="#FFFFFF" font-family="'Helvetica'" font-size="9">D2-A</text>
	<rect x="315.5" y="204" fill="none" width="26" height="11.5"/>
	<text transform="matrix(1 0 0 1 318.249 210.4619)" fill="#FFFFFF" font-family="'Helvetica'" font-size="9">D2-B</text>
	<rect x="316.5" y="246" fill="none" width="26" height="11.5"/>
	<text transform="matrix(1 0 0 1 319.002 252.4619)" fill="#FFFFFF" font-family="'Helvetica'" font-size="9">D2-C</text>
</g>
</svg>