<?xml version="1.0" encoding="UTF-8"?><!-- Generator: Adobe Illustrator 12.0.0, SVG Export Plug-In . SVG Version: 6.00 Build 51448)  --><!DOCTYPE svg PUBLIC "-//W3C//DTD SVG 1.1//EN" "http://www.w3.org/Graphics/SVG/1.1/DTD/svg11.dtd">
<svg xmlns="http://www.w3.org/2000/svg" xmlns:xlink="http://www.w3.org/1999/xlink" version="1.1" width="344.834" height="267.083" viewBox="0 0 344.834 267.083" overflow="visible" enable-background="new 0 0 344.834 267.083" xml:space="preserve" preserveAspectRatio="xMidYMid meet" zoomAndPan="magnify" contentScriptType="application/ecmascript" contentStyleType="text/css">
<g id="diagram">
	
		<line fill="#FFFFFF" stroke="#000000" stroke-width="0.5" stroke-linecap="round" stroke-linejoin="round" x1="140.917" y1="44.833" x2="236.917" y2="23.5"/>
	
		<line fill="#FFFFFF" stroke="#000000" stroke-width="0.5" stroke-linecap="round" stroke-linejoin="round" x1="141.583" y1="59.5" x2="237.917" y2="86.833"/>
	
		<line fill="#FFFFFF" stroke="#000000" stroke-width="0.5" stroke-linecap="round" stroke-linejoin="round" x1="86.916" y1="194.5" x2="205.916" y2="178.5"/>
	
		<line fill="#FFFFFF" stroke="#000000" stroke-width="0.5" stroke-linecap="round" stroke-linejoin="round" x1="84.583" y1="225.5" x2="206.916" y2="246.833"/>
	<rect x="202.584" y="165.5" fill="#8C8C8C" stroke="#000000" width="108" height="25.333"/>
	<rect x="43.084" y="194" fill="#8C8C8C" stroke="#000000" width="108" height="31.833"/>
	<rect x="202.584" y="232.833" fill="#8C8C8C" stroke="#000000" width="108" height="25.334"/>
	<ellipse fill="#D6D6D6" stroke="#000000" cx="259.917" cy="21.5" rx="54" ry="21"/>
	<ellipse fill="#D6D6D6" stroke="#000000" cx="99.417" cy="54.5" rx="54" ry="21"/>
	<ellipse fill="#D6D6D6" stroke="#000000" cx="259.917" cy="91.5" rx="54" ry="21"/>
	<path fill="none" stroke="#000000" stroke-dasharray="2" d="M220.25,138.833"/>
	<rect x="217.25" y="174.5" fill="none" width="79.333" height="10"/>
	<text transform="matrix(1 0 0 1 220.3945 180.9619)" fill="#FFFFFF" font-family="'Helvetica'" font-size="9">Secondary node 1</text>
	<rect x="217.25" y="241.833" fill="none" width="79.333" height="10"/>
	<text transform="matrix(1 0 0 1 220.3945 248.2964)" fill="#FFFFFF" font-family="'Helvetica'" font-size="9">Secondary node 2</text>
	<rect x="99.25" y="79.5" fill="none" width="67.333" height="9"/>
	<text transform="matrix(1 0 0 1 101.1567 85.9624)" font-family="'Helvetica'" font-size="9">Relationship R2</text>
	<rect x="99.25" y="173.834" fill="none" width="67.333" height="9"/>
	<text transform="matrix(1 0 0 1 103.1543 180.2964)" font-family="'Helvetica'" font-size="9">Connection C1</text>
	<rect x="24.25" y="16.167" fill="none" width="56.667" height="7.667"/>
	<text transform="matrix(1 0 0 1 24.2505 22.6289)" font-family="'Helvetica'" font-size="9">Data ONTAP</text>
	<rect x="25.084" y="136.146" fill="none" width="136.666" height="13.042"/>
	<text transform="matrix(1 0 0 1 25.084 142.6084)" font-family="'Helvetica'" font-size="9">OnCommand Unified Manager</text>
	<rect x="98.25" y="243.667" fill="none" width="67.333" height="9"/>
	<text transform="matrix(1 0 0 1 102.1543 250.1284)" font-family="'Helvetica'" font-size="9">Connection C2</text>
	<rect x="89.75" y="22" fill="none" width="88.333" height="9.5"/>
	<text transform="matrix(1 0 0 1 102.1567 28.4624)" font-family="'Helvetica'" font-size="9">Relationship R1    </text>
	<path fill="none" stroke="#000000" stroke-width="0.5" stroke-linecap="round" stroke-linejoin="round" stroke-dasharray="2" d="   M102,168.083"/>
	
		<rect x="24.25" y="153.833" fill="none" stroke="#000000" stroke-width="0.5" stroke-linecap="round" stroke-linejoin="round" width="292.5" height="113"/>
	
		<line fill="none" stroke="#000000" stroke-width="0.5" stroke-linecap="round" stroke-linejoin="round" x1="0.25" y1="121.5" x2="344.584" y2="121.5"/>
	<path fill="none" stroke="#000000" stroke-width="0.5" stroke-dasharray="2" d="M182.25,35.833c0,0,28.5,93-4.5,141.5"/>
	<path fill="none" stroke="#000000" stroke-width="0.5" stroke-dasharray="2" d="M175.25,69.333c0,0,38.5,100,0.5,170.5"/>
	<path fill="none" stroke="#000000" stroke-width="0.5" stroke-dasharray="2" d="M313.917,91.5c0,0,35.833,88.833-16.667,137.833"/>
	<path fill="none" stroke="#000000" stroke-width="0.5" stroke-dasharray="2" d="M313.25,25.333c0,0,35.5,87-16,135.5"/>
	<polygon points="179.349,174.192 181.881,175.387 179.017,178.176 176.151,180.964 176.483,176.98 176.815,172.996  "/>
	<polygon points="300.002,158.086 302.239,159.771 298.869,161.92 295.497,164.07 296.631,160.236 297.765,156.402  "/>
	<polygon points="300.002,226.086 302.239,227.771 298.869,229.92 295.497,232.07 296.631,228.236 297.765,224.402  "/>
	<polygon points="178.849,232.942 181.381,234.137 178.517,236.925 175.651,239.714 175.983,235.73 176.315,231.746  "/>
</g>
<g id="text">
	<rect x="27.25" y="159.834" fill="none" width="70.5" height="21.333"/>
	<text transform="matrix(1 0 0 1 27.251 166.2964)"><tspan x="0" y="0" font-family="'Helvetica'" font-size="9">Storage service </tspan><tspan x="0" y="10.8" font-family="'Helvetica'" font-size="9">SS1</tspan></text>
	<rect x="56.416" y="41.333" fill="none" width="88.5" height="29"/>
	<text transform="matrix(1 0 0 1 70.6558 47.7949)"><tspan x="0" y="0" font-family="'Helvetica'" font-size="9">Source volume </tspan><tspan x="-9.113" y="9.6" font-family="'Helvetica'" font-size="8">(already subscribed in </tspan><tspan x="11.778" y="19.2" font-family="'Helvetica'" font-size="8">root node)</tspan></text>
	<rect x="57.5" y="205.5" fill="none" width="89" height="10.001"/>
	<text transform="matrix(1 0 0 1 57.4995 211.9614)" fill="#FFFFFF" font-family="'Helvetica'" font-size="9">Primary (root) node</text>
	<rect x="223.583" y="11.833" fill="none" width="69.333" height="19.333"/>
	<text transform="matrix(1 0 0 1 235.7402 18.2959)"><tspan x="0" y="0" font-family="'Helvetica'" font-size="9">Destination </tspan><tspan x="3.754" y="10.8" font-family="'Helvetica'" font-size="9">volume A</tspan></text>
	<rect x="223.583" y="81.833" fill="none" width="69.333" height="19.333"/>
	<text transform="matrix(1 0 0 1 235.7402 88.2959)"><tspan x="0" y="0" font-family="'Helvetica'" font-size="9">Destination </tspan><tspan x="3.754" y="10.8" font-family="'Helvetica'" font-size="9">volume B</tspan></text>
</g>
</svg>