<?xml version="1.0" encoding="utf-8"?>
<!-- Generator: Adobe Illustrator 19.1.0, SVG Export Plug-In . SVG Version: 6.00 Build 0)  -->
<svg version="1.1" id="Layer_1" xmlns="http://www.w3.org/2000/svg" xmlns:xlink="http://www.w3.org/1999/xlink" x="0px" y="0px"
	 width="343px" height="225.5px" viewBox="-788 428.5 343 225.5" enable-background="new -788 428.5 343 225.5"
	 xml:space="preserve">
<g id="outlines">
	
		<rect x="-624.237" y="520.5" fill="none" stroke="#000000" stroke-width="0.5" stroke-linecap="round" stroke-linejoin="round" width="55" height="65"/>
	
		<rect x="-544.24" y="520.5" fill="none" stroke="#000000" stroke-width="0.5" stroke-linecap="round" stroke-linejoin="round" width="55" height="65"/>
	
		<rect x="-784" y="520.5" fill="none" stroke="#000000" stroke-width="0.5" stroke-linecap="round" stroke-linejoin="round" width="55" height="65"/>
	
		<rect x="-704.233" y="520.5" fill="none" stroke="#000000" stroke-width="0.5" stroke-linecap="round" stroke-linejoin="round" width="55" height="65"/>
</g>
<g id="ovals">
</g>
<g id="text">
	<rect x="-778.833" y="526.333" fill="none" width="30.5" height="10"/>
	<text transform="matrix(1 0 0 1 -778.8333 532.8041)" font-family="'Helvetica'" font-size="9px">LIF1.1</text>
	<rect x="-778.833" y="543" fill="none" width="30.5" height="10"/>
	<text transform="matrix(1 0 0 1 -778.8333 549.4707)" font-family="'Helvetica'" font-size="9px">LIF2.1</text>
	<rect x="-769.5" y="574" fill="none" width="29" height="10"/>
	<text transform="matrix(1 0 0 1 -769.5 580.4707)" font-family="'Helvetica'" font-size="9px">node1</text>
	<rect x="-691.233" y="574" fill="none" width="30" height="10"/>
	<text transform="matrix(1 0 0 1 -691.2333 580.4707)" font-family="'Helvetica'" font-size="9px">node2</text>
	<rect x="-611.737" y="574" fill="none" width="30" height="10"/>
	<text transform="matrix(1 0 0 1 -611.7365 580.4707)" font-family="'Helvetica'" font-size="9px">node3</text>
	<rect x="-530.399" y="574" fill="none" width="30" height="10"/>
	<text transform="matrix(1 0 0 1 -530.3992 580.4707)" font-family="'Helvetica'" font-size="9px">node4</text>
	<rect x="-700.733" y="542.5" fill="none" width="30" height="10"/>
	<text transform="matrix(1 0 0 1 -700.7333 548.9707)" font-family="'Helvetica'" font-size="9px">LIF2.2</text>
	<rect x="-621.403" y="542.5" fill="none" width="30" height="10"/>
	<text transform="matrix(1 0 0 1 -621.4032 548.9707)" font-family="'Helvetica'" font-size="9px">LIF2.3</text>
	<rect x="-541.072" y="542.5" fill="none" width="30" height="10"/>
	<text transform="matrix(1 0 0 1 -541.0723 548.9707)" font-family="'Helvetica'" font-size="9px">LIF2.4</text>
	<rect x="-700.733" y="526.5" fill="none" width="30" height="10"/>
	<text transform="matrix(1 0 0 1 -700.7333 532.9707)" font-family="'Helvetica'" font-size="9px">LIF1.2</text>
	<rect x="-488.74" y="543.5" fill="none" width="32.166" height="9"/>
	<text transform="matrix(1 0 0 1 -486.4097 549.9707)" font-family="'Helvetica'" font-size="9px">SVM-2</text>
	<rect x="-488.74" y="526.333" fill="none" width="32.166" height="9"/>
	<text transform="matrix(1 0 0 1 -486.4097 532.8041)" font-family="'Helvetica'" font-size="9px">SVM-1</text>
	<g>
		<g>
			<g>
				<g>
					<path fill="none" stroke="#FFFFFF" stroke-width="0.4" stroke-linecap="round" stroke-linejoin="round" d="M-692.525,607.232
						v23.187c0,3.309-6.85,5.99-15.298,5.99s-15.297-2.682-15.297-5.99v-23.187H-692.525z"/>
					
						<ellipse fill="none" stroke="#FFFFFF" stroke-width="0.4" stroke-linecap="round" stroke-linejoin="round" cx="-707.822" cy="607.232" rx="15.297" ry="5.99"/>
				</g>
				<path fill="none" stroke="#231F20" stroke-width="0.4" stroke-linecap="round" stroke-linejoin="round" d="M-692.525,607.232
					v23.187c0,3.309-6.85,5.99-15.298,5.99s-15.297-2.682-15.297-5.99v-23.187H-692.525z"/>
				
					<ellipse fill="#FFFFFF" stroke="#000000" stroke-width="0.4" stroke-linecap="round" stroke-linejoin="round" cx="-707.822" cy="607.232" rx="15.297" ry="5.99"/>
			</g>
			<rect x="-717.053" y="624.476" fill="none" width="20.4" height="8"/>
			<text transform="matrix(1 0 0 1 -717.0531 629.6533)" font-family="'Helvetica'" font-size="7.2px">LUN1</text>
		</g>
		<g>
			<g>
				<g>
					<path fill="none" stroke="#FFFFFF" stroke-width="0.4" stroke-linecap="round" stroke-linejoin="round" d="M-718.92,621.01
						v23.187c0,3.309-6.85,5.99-15.298,5.99s-15.297-2.682-15.297-5.99V621.01H-718.92z"/>
					
						<ellipse fill="none" stroke="#FFFFFF" stroke-width="0.4" stroke-linecap="round" stroke-linejoin="round" cx="-734.217" cy="621.01" rx="15.297" ry="5.99"/>
				</g>
				<path fill="#FFFFFF" stroke="#231F20" stroke-width="0.4" stroke-linecap="round" stroke-linejoin="round" d="M-718.92,621.01
					v23.187c0,3.309-6.85,5.99-15.298,5.99s-15.297-2.682-15.297-5.99V621.01H-718.92z"/>
				
					<ellipse fill="#FFFFFF" stroke="#000000" stroke-width="0.4" stroke-linecap="round" stroke-linejoin="round" cx="-734.217" cy="621.01" rx="15.297" ry="5.99"/>
			</g>
			<rect x="-743.048" y="638.254" fill="none" width="20.4" height="8"/>
			<text transform="matrix(1 0 0 1 -743.0478 643.4307)" font-family="'Helvetica'" font-size="7.2px">LUN2</text>
		</g>
	</g>
	<g>
		<g>
			<g>
				<g>
					<path fill="none" stroke="#FFFFFF" stroke-width="0.4" stroke-linecap="round" stroke-linejoin="round" d="M-546.498,607.232
						v23.187c0,3.309-6.85,5.99-15.298,5.99s-15.297-2.682-15.297-5.99v-23.187H-546.498z"/>
					
						<ellipse fill="none" stroke="#FFFFFF" stroke-width="0.4" stroke-linecap="round" stroke-linejoin="round" cx="-561.795" cy="607.232" rx="15.297" ry="5.99"/>
				</g>
				<path fill="none" stroke="#231F20" stroke-width="0.4" stroke-linecap="round" stroke-linejoin="round" d="M-546.498,607.232
					v23.187c0,3.309-6.85,5.99-15.298,5.99s-15.297-2.682-15.297-5.99v-23.187H-546.498z"/>
				
					<ellipse fill="#FFFFFF" stroke="#000000" stroke-width="0.4" stroke-linecap="round" stroke-linejoin="round" cx="-561.795" cy="607.232" rx="15.297" ry="5.99"/>
			</g>
			<rect x="-571.026" y="624.476" fill="none" width="20.4" height="8"/>
			<text transform="matrix(1 0 0 1 -571.0257 629.6533)" font-family="'Helvetica'" font-size="7.2px">LUN3</text>
		</g>
		<g>
			<g>
				<g>
					<path fill="none" stroke="#FFFFFF" stroke-width="0.4" stroke-linecap="round" stroke-linejoin="round" d="M-519.559,621.01
						v23.187c0,3.309-6.85,5.99-15.298,5.99s-15.297-2.682-15.297-5.99V621.01H-519.559z"/>
					
						<ellipse fill="none" stroke="#FFFFFF" stroke-width="0.4" stroke-linecap="round" stroke-linejoin="round" cx="-534.856" cy="621.01" rx="15.297" ry="5.99"/>
				</g>
				<path fill="#FFFFFF" stroke="#231F20" stroke-width="0.4" stroke-linecap="round" stroke-linejoin="round" d="M-519.559,621.01
					v23.187c0,3.309-6.85,5.99-15.298,5.99s-15.297-2.682-15.297-5.99V621.01H-519.559z"/>
				
					<ellipse fill="#FFFFFF" stroke="#000000" stroke-width="0.4" stroke-linecap="round" stroke-linejoin="round" cx="-534.856" cy="621.01" rx="15.297" ry="5.99"/>
			</g>
			<rect x="-543.687" y="638.254" fill="none" width="20.4" height="8"/>
			<text transform="matrix(1 0 0 1 -543.6868 643.4307)" font-family="'Helvetica'" font-size="7.2px">LUN4</text>
		</g>
	</g>
	<g>
		<rect x="-671.769" y="611.499" fill="none" width="68.5" height="10"/>
		<text transform="matrix(1 0 0 1 -669.5264 617.9706)" font-family="'Helvetica'" font-size="9px">Cluster Network</text>
		<path fill="none" stroke="#000000" stroke-width="0.4935" stroke-linecap="round" stroke-linejoin="round" d="M-606.717,623.164
			h-61.603c-3.96,0-7.2-3.24-7.2-7.2v-2.484c0-3.96,3.24-7.2,7.2-7.2h61.603c3.96,0,7.2,3.24,7.2,7.2v2.484
			C-599.517,619.924-602.757,623.164-606.717,623.164z"/>
	</g>
	
		<path fill="none" stroke="#000000" stroke-width="0.5086" stroke-linecap="round" stroke-linejoin="round" stroke-dasharray="3.0947" d="
		M-453.906,553.5h-327.195c-0.495,0-0.9-0.405-0.9-0.9v-12.688c0-0.495,0.405-0.9,0.9-0.9h327.194c0.495,0,0.9,0.405,0.9,0.9V552.6
		C-453.006,553.095-453.411,553.5-453.906,553.5z"/>
	
		<path fill="none" stroke="#000000" stroke-width="0.5086" stroke-linecap="round" stroke-linejoin="round" stroke-dasharray="3.0947" d="
		M-453.906,536.833h-327.195c-0.495,0-0.9-0.405-0.9-0.9v-12.688c0-0.495,0.405-0.9,0.9-0.9h327.194c0.495,0,0.9,0.405,0.9,0.9
		v12.688C-453.006,536.428-453.411,536.833-453.906,536.833z"/>
	<g>
		<rect x="-759.334" y="510.667" fill="none" width="12" height="9"/>
		<text transform="matrix(1 0 0 1 -759.3341 517.1374)" font-family="'Helvetica'" font-size="9px">0d</text>
		<rect x="-776.084" y="510.667" fill="none" width="12" height="9"/>
		<text transform="matrix(1 0 0 1 -776.0841 517.1374)" font-family="'Helvetica'" font-size="9px">0c</text>
		<polygon fill="none" stroke="#000000" stroke-width="0.5" stroke-linecap="round" stroke-linejoin="round" points="
			-745.667,507.5 -762.333,507.5 -779.333,507.5 -779.333,520.5 -745.667,520.5 		"/>
		
			<line fill="none" stroke="#000000" stroke-width="0.5" stroke-linecap="round" stroke-linejoin="round" x1="-762.333" y1="520.5" x2="-762.333" y2="507.583"/>
	</g>
	<g>
		<rect x="-679.567" y="510.667" fill="none" width="12" height="9"/>
		<text transform="matrix(1 0 0 1 -679.5675 517.1374)" font-family="'Helvetica'" font-size="9px">0d</text>
		<rect x="-696.317" y="510.667" fill="none" width="12" height="9"/>
		<text transform="matrix(1 0 0 1 -696.3175 517.1374)" font-family="'Helvetica'" font-size="9px">0c</text>
		<polygon fill="none" stroke="#000000" stroke-width="0.5" stroke-linecap="round" stroke-linejoin="round" points="-665.9,507.5 
			-682.566,507.5 -699.567,507.5 -699.567,520.5 -665.9,520.5 		"/>
		
			<line fill="none" stroke="#000000" stroke-width="0.5" stroke-linecap="round" stroke-linejoin="round" x1="-682.567" y1="520.5" x2="-682.567" y2="507.583"/>
	</g>
	<g>
		<rect x="-599.571" y="510.667" fill="none" width="12" height="9"/>
		<text transform="matrix(1 0 0 1 -599.5707 517.1374)" font-family="'Helvetica'" font-size="9px">0d</text>
		<rect x="-616.321" y="510.667" fill="none" width="12" height="9"/>
		<text transform="matrix(1 0 0 1 -616.3207 517.1374)" font-family="'Helvetica'" font-size="9px">0c</text>
		<polygon fill="none" stroke="#000000" stroke-width="0.5" stroke-linecap="round" stroke-linejoin="round" points="
			-585.903,507.5 -602.569,507.5 -619.57,507.5 -619.57,520.5 -585.903,520.5 		"/>
		
			<line fill="none" stroke="#000000" stroke-width="0.5" stroke-linecap="round" stroke-linejoin="round" x1="-602.57" y1="520.5" x2="-602.57" y2="507.583"/>
	</g>
	<g>
		<rect x="-519.574" y="510.667" fill="none" width="12" height="9"/>
		<text transform="matrix(1 0 0 1 -519.5737 517.1374)" font-family="'Helvetica'" font-size="9px">0d</text>
		<rect x="-536.324" y="510.667" fill="none" width="12" height="9"/>
		<text transform="matrix(1 0 0 1 -536.3239 517.1374)" font-family="'Helvetica'" font-size="9px">0c</text>
		<polygon fill="none" stroke="#000000" stroke-width="0.5" stroke-linecap="round" stroke-linejoin="round" points="
			-505.906,507.5 -522.573,507.5 -539.573,507.5 -539.573,520.5 -505.906,520.5 		"/>
		
			<line fill="none" stroke="#000000" stroke-width="0.5" stroke-linecap="round" stroke-linejoin="round" x1="-522.573" y1="520.5" x2="-522.573" y2="507.583"/>
	</g>
	<g>
		<path fill="#FFFFFF" stroke="#000000" stroke-width="0.5" stroke-linecap="round" stroke-linejoin="round" d="M-722.551,474.996
			h-21.9c-0.99,0-1.8-0.81-1.8-1.8v-20.9c0-0.99,0.81-1.8,1.8-1.8h21.9c0.99,0,1.8,0.81,1.8,1.8v20.9
			C-720.751,474.186-721.561,474.996-722.551,474.996z"/>
		<g>
			<text transform="matrix(1 0 0 1 -746.5067 445.996)" font-family="'Helvetica'" font-size="9px">Host 1</text>
		</g>
		<g>
			<text transform="matrix(1 0 0 1 -742.5053 459.996)" font-family="'Helvetica'" font-size="9px">APP</text>
		</g>
		<path fill="none" stroke="#000000" stroke-width="0.5" stroke-linecap="round" stroke-linejoin="round" d="M-718.204,482.996
			h-30.595c-3.96,0-7.2-3.24-7.2-7.2v-36.6c0-3.96,3.24-7.2,7.2-7.2h30.595c3.96,0,7.2,3.24,7.2,7.2v36.6
			C-711.004,479.756-714.244,482.996-718.204,482.996z"/>
	</g>
	<g>
		<path fill="#FFFFFF" stroke="#000000" stroke-width="0.5" stroke-linecap="round" stroke-linejoin="round" d="M-651.551,474.996
			h-21.9c-0.99,0-1.8-0.81-1.8-1.8v-20.9c0-0.99,0.81-1.8,1.8-1.8h21.9c0.99,0,1.8,0.81,1.8,1.8v20.9
			C-649.751,474.186-650.561,474.996-651.551,474.996z"/>
		<g>
			<text transform="matrix(1 0 0 1 -675.5067 445.996)" font-family="'Helvetica'" font-size="9px">Host 2</text>
		</g>
		<g>
			<text transform="matrix(1 0 0 1 -671.5053 459.996)" font-family="'Helvetica'" font-size="9px">APP</text>
		</g>
		<path fill="none" stroke="#000000" stroke-width="0.5" stroke-linecap="round" stroke-linejoin="round" d="M-647.204,482.996
			h-30.595c-3.96,0-7.2-3.24-7.2-7.2v-36.6c0-3.96,3.24-7.2,7.2-7.2h30.595c3.96,0,7.2,3.24,7.2,7.2v36.6
			C-640.004,479.756-643.244,482.996-647.204,482.996z"/>
	</g>
	<line fill="none" stroke="#000000" x1="-746.251" y1="473.196" x2="-771.5" y2="507.5"/>
	<line fill="none" stroke="#000000" stroke-dasharray="3.095" x1="-721" y1="474.5" x2="-697" y2="506.5"/>
	<line fill="none" stroke="#000000" x1="-675.251" y1="473.196" x2="-768" y2="507"/>
	<line fill="none" stroke="#000000" x1="-649.751" y1="473.196" x2="-531" y2="507"/>
	<line fill="none" stroke="#000000" stroke-dasharray="3.095" x1="-666" y1="475" x2="-691" y2="507"/>
	<line fill="none" stroke="#000000" stroke-dasharray="3.095" x1="-659.5" y1="475.501" x2="-612" y2="506.5"/>
	<line fill="none" stroke="#000000" stroke-width="1.5" x1="-751.5" y1="586" x2="-724" y2="606"/>
	<line fill="none" stroke="#000000" stroke-width="1.5" x1="-519.496" y1="586" x2="-546.996" y2="606"/>
	<line fill="none" stroke="#000000" stroke-width="0.5" x1="-614.996" y1="586" x2="-629" y2="606"/>
	<line fill="none" stroke="#000000" stroke-width="0.5" x1="-657.505" y1="586" x2="-643.501" y2="606"/>
	<line fill="none" stroke="#000000" stroke-width="0.5" x1="-729" y1="585.5" x2="-676" y2="609.5"/>
	<line fill="none" stroke="#000000" stroke-width="0.5" x1="-545.5" y1="585.5" x2="-598.5" y2="610.5"/>
	
		<line fill="none" stroke="#000000" stroke-width="1.5" stroke-dasharray="3.095" x1="-678.5" y1="586" x2="-692.525" y2="607.232"/>
	
		<line fill="none" stroke="#000000" stroke-width="1.5" stroke-dasharray="3.095" x1="-591.528" y1="586" x2="-577.503" y2="607.232"/>
</g>
<g>
	<g>
		<line fill="none" stroke="#666666" stroke-width="1.5" x1="-662.667" y1="477.167" x2="-623.895" y2="505.62"/>
		<g>
			<polygon fill="#666666" points="-621.333,507.5 -626.025,506.326 -624.086,505.48 -623.861,503.377 			"/>
		</g>
	</g>
</g>
<g>
	<g>
		<line fill="none" stroke="#000000" stroke-width="1.5" x1="-606.333" y1="505.833" x2="-646.729" y2="479.323"/>
		<g>
			<path d="M-649,477.833c1.329,0.305,3.098,0.498,4.39,0.321l-1.821,1.365l-0.527,2.214
				C-647.31,480.477-648.192,478.931-649,477.833z"/>
		</g>
	</g>
</g>
<g>
	<g>
		<line fill="none" stroke="#666666" stroke-width="1.5" x1="-613.667" y1="551.5" x2="-629.2" y2="601.905"/>
		<g>
			<path fill="#666666" d="M-630,604.5c-0.077-1.361-0.383-3.114-0.912-4.306l1.817,1.37l2.273-0.11
				C-627.931,602.141-629.171,603.418-630,604.5z"/>
		</g>
	</g>
</g>
<g>
	<g>
		<line fill="none" stroke="#000000" stroke-width="1.5" x1="-608.801" y1="554.095" x2="-624.335" y2="604.5"/>
		<g>
			<path d="M-608.002,551.5c-0.83,1.082-2.07,2.359-3.178,3.045l2.273-0.109l1.817,1.37
				C-607.619,554.614-607.925,552.861-608.002,551.5z"/>
		</g>
	</g>
</g>
<g>
	<g>
		<line fill="none" stroke="#000000" stroke-width="1.5" x1="-535" y1="583.5" x2="-596.22" y2="612.988"/>
		<g>
			<path d="M-598.667,614.167c0.946-0.982,2.023-2.399,2.537-3.597l0.231,2.264l1.626,1.592
				C-595.53,614.08-597.31,614.039-598.667,614.167z"/>
		</g>
	</g>
</g>
<g>
	<g>
		<line fill="none" stroke="#666666" stroke-width="1.5" x1="-541.804" y1="577.628" x2="-604.333" y2="606.167"/>
		<g>
			<path fill="#666666" d="M-539.333,576.5c-1.359,0.099-3.138,0.022-4.388-0.35l1.593,1.626l0.184,2.268
				C-541.406,578.856-540.299,577.462-539.333,576.5z"/>
		</g>
	</g>
</g>
<g>
	<g>
		<line fill="none" stroke="#666666" stroke-width="1.5" x1="-523" y1="583.5" x2="-548.415" y2="600.648"/>
		<g>
			<path fill="#666666" d="M-550.667,602.167c0.794-1.108,1.656-2.665,1.992-3.925l0.555,2.207l1.838,1.341
				C-547.576,601.628-549.342,601.845-550.667,602.167z"/>
		</g>
	</g>
</g>
<g>
	<g>
		<line fill="none" stroke="#000000" stroke-width="1.5" x1="-512.014" y1="584.989" x2="-545" y2="614.833"/>
		<g>
			<path d="M-510,583.167c-1.266,0.506-2.984,0.97-4.288,0.994l2.01,1.068l0.862,2.106C-511.263,586.039-510.63,584.375-510,583.167
				z"/>
		</g>
	</g>
</g>
<g>
	<g>
		<line fill="none" stroke="#666666" stroke-width="1.5" x1="-613.666" y1="518.833" x2="-613.666" y2="533.451"/>
		<g>
			<path fill="#666666" d="M-613.666,536.167c-0.474-1.278-1.283-2.863-2.14-3.846l2.14,0.774l2.14-0.774
				C-612.383,533.303-613.192,534.889-613.666,536.167z"/>
		</g>
	</g>
</g>
<g>
	<g>
		<line fill="none" stroke="#000000" stroke-width="1.5" x1="-608.999" y1="536.167" x2="-608.999" y2="521.549"/>
		<g>
			<path d="M-608.999,518.833c0.474,1.278,1.283,2.863,2.14,3.846l-2.14-0.774l-2.14,0.774
				C-610.282,521.697-609.473,520.111-608.999,518.833z"/>
		</g>
	</g>
</g>
<rect x="-605.333" y="479.833" fill="#FFFFFF" stroke="#000000" stroke-width="1.5" width="48" height="19.333"/>
<g>
	<text transform="matrix(1 0 0 1 -599.5065 488.3293)" enable-background="new    "><tspan x="0" y="0" font-family="'Helvetica'" font-size="6px">Cable break / </tspan><tspan x="0" y="6.3" font-family="'Helvetica'" font-size="6px">Cable pulled</tspan></text>
</g>
</svg>
