<?xml version="1.0" encoding="utf-8"?>
<!-- Generator: Adobe Illustrator 19.1.0, SVG Export Plug-In . SVG Version: 6.00 Build 0)  -->
<svg version="1.1" xmlns="http://www.w3.org/2000/svg" xmlns:xlink="http://www.w3.org/1999/xlink" x="0px" y="0px" width="343px"
	 height="225.5px" viewBox="0 0 343 225.5" enable-background="new 0 0 343 225.5" xml:space="preserve">
<g id="outlines">
	
		<rect x="163.763" y="92" fill="none" stroke="#000000" stroke-width="0.5" stroke-linecap="round" stroke-linejoin="round" width="55" height="65"/>
	
		<rect x="243.76" y="92" fill="none" stroke="#000000" stroke-width="0.5" stroke-linecap="round" stroke-linejoin="round" width="55" height="65"/>
	
		<rect x="4" y="92" fill="none" stroke="#000000" stroke-width="0.5" stroke-linecap="round" stroke-linejoin="round" width="55" height="65"/>
	
		<rect x="83.767" y="92" fill="none" stroke="#000000" stroke-width="0.5" stroke-linecap="round" stroke-linejoin="round" width="55" height="65"/>
</g>
<g id="ovals">
</g>
<g id="text">
	<rect x="9.167" y="97.833" fill="none" width="30.5" height="10"/>
	<text transform="matrix(1 0 0 1 9.1667 104.3041)" font-family="'Helvetica'" font-size="9px">LIF1.1</text>
	<rect x="9.167" y="114.5" fill="none" width="30.5" height="10"/>
	<text transform="matrix(1 0 0 1 9.1667 120.9707)" font-family="'Helvetica'" font-size="9px">LIF2.1</text>
	<rect x="18.5" y="145.5" fill="none" width="29" height="10"/>
	<text transform="matrix(1 0 0 1 18.5 151.9707)" font-family="'Helvetica'" font-size="9px">node1</text>
	<rect x="96.767" y="145.5" fill="none" width="30" height="10"/>
	<text transform="matrix(1 0 0 1 96.7667 151.9707)" font-family="'Helvetica'" font-size="9px">node2</text>
	<rect x="176.263" y="145.5" fill="none" width="30" height="10"/>
	<text transform="matrix(1 0 0 1 176.2635 151.9707)" font-family="'Helvetica'" font-size="9px">node3</text>
	<rect x="257.601" y="145.5" fill="none" width="30" height="10"/>
	<text transform="matrix(1 0 0 1 257.6008 151.9707)" font-family="'Helvetica'" font-size="9px">node4</text>
	<rect x="87.267" y="114" fill="none" width="30" height="10"/>
	<text transform="matrix(1 0 0 1 87.2667 120.4707)" font-family="'Helvetica'" font-size="9px">LIF2.2</text>
	<rect x="166.597" y="114" fill="none" width="30" height="10"/>
	<text transform="matrix(1 0 0 1 166.5968 120.4707)" font-family="'Helvetica'" font-size="9px">LIF2.3</text>
	<rect x="246.928" y="114" fill="none" width="30" height="10"/>
	<text transform="matrix(1 0 0 1 246.9278 120.4707)" font-family="'Helvetica'" font-size="9px">LIF2.4</text>
	<rect x="87.267" y="98" fill="none" width="30" height="10"/>
	<text transform="matrix(1 0 0 1 87.2667 104.4707)" font-family="'Helvetica'" font-size="9px">LIF1.2</text>
	<rect x="299.26" y="115" fill="none" width="32.166" height="9"/>
	<text transform="matrix(1 0 0 1 301.5904 121.4707)" font-family="'Helvetica'" font-size="9px">SVM-2</text>
	<rect x="299.26" y="97.833" fill="none" width="32.166" height="9"/>
	<text transform="matrix(1 0 0 1 301.5904 104.3041)" font-family="'Helvetica'" font-size="9px">SVM-1</text>
	<g>
		<g>
			<g>
				<g>
					<path fill="none" stroke="#FFFFFF" stroke-width="0.4" stroke-linecap="round" stroke-linejoin="round" d="M95.475,178.732
						v23.187c0,3.309-6.85,5.99-15.298,5.99c-8.448,0-15.297-2.682-15.297-5.99v-23.187H95.475z"/>
					
						<ellipse fill="none" stroke="#FFFFFF" stroke-width="0.4" stroke-linecap="round" stroke-linejoin="round" cx="80.178" cy="178.732" rx="15.297" ry="5.99"/>
				</g>
				<path fill="none" stroke="#231F20" stroke-width="0.4" stroke-linecap="round" stroke-linejoin="round" d="M95.475,178.732
					v23.187c0,3.309-6.85,5.99-15.298,5.99c-8.448,0-15.297-2.682-15.297-5.99v-23.187H95.475z"/>
				
					<ellipse fill="#FFFFFF" stroke="#000000" stroke-width="0.4" stroke-linecap="round" stroke-linejoin="round" cx="80.178" cy="178.732" rx="15.297" ry="5.99"/>
			</g>
			<rect x="70.947" y="195.976" fill="none" width="20.4" height="8"/>
			<text transform="matrix(1 0 0 1 70.9469 201.1533)" font-family="'Helvetica'" font-size="7.2px">LUN1</text>
		</g>
		<g>
			<g>
				<g>
					<path fill="none" stroke="#FFFFFF" stroke-width="0.4" stroke-linecap="round" stroke-linejoin="round" d="M69.08,192.51
						v23.187c0,3.309-6.85,5.99-15.298,5.99c-8.448,0-15.297-2.682-15.297-5.99V192.51H69.08z"/>
					
						<ellipse fill="none" stroke="#FFFFFF" stroke-width="0.4" stroke-linecap="round" stroke-linejoin="round" cx="53.783" cy="192.51" rx="15.297" ry="5.99"/>
				</g>
				<path fill="#FFFFFF" stroke="#231F20" stroke-width="0.4" stroke-linecap="round" stroke-linejoin="round" d="M69.08,192.51
					v23.187c0,3.309-6.85,5.99-15.298,5.99c-8.448,0-15.297-2.682-15.297-5.99V192.51H69.08z"/>
				
					<ellipse fill="#FFFFFF" stroke="#000000" stroke-width="0.4" stroke-linecap="round" stroke-linejoin="round" cx="53.783" cy="192.51" rx="15.297" ry="5.99"/>
			</g>
			<rect x="44.952" y="209.754" fill="none" width="20.4" height="8"/>
			<text transform="matrix(1 0 0 1 44.9522 214.9307)" font-family="'Helvetica'" font-size="7.2px">LUN2</text>
		</g>
	</g>
	<g>
		<g>
			<g>
				<g>
					<path fill="none" stroke="#FFFFFF" stroke-width="0.4" stroke-linecap="round" stroke-linejoin="round" d="M241.502,178.732
						v23.187c0,3.309-6.85,5.99-15.298,5.99c-8.448,0-15.297-2.682-15.297-5.99v-23.187H241.502z"/>
					
						<ellipse fill="none" stroke="#FFFFFF" stroke-width="0.4" stroke-linecap="round" stroke-linejoin="round" cx="226.205" cy="178.732" rx="15.297" ry="5.99"/>
				</g>
				<path fill="none" stroke="#231F20" stroke-width="0.4" stroke-linecap="round" stroke-linejoin="round" d="M241.502,178.732
					v23.187c0,3.309-6.85,5.99-15.298,5.99c-8.448,0-15.297-2.682-15.297-5.99v-23.187H241.502z"/>
				
					<ellipse fill="#FFFFFF" stroke="#000000" stroke-width="0.4" stroke-linecap="round" stroke-linejoin="round" cx="226.205" cy="178.732" rx="15.297" ry="5.99"/>
			</g>
			<rect x="216.974" y="195.976" fill="none" width="20.4" height="8"/>
			<text transform="matrix(1 0 0 1 216.9743 201.1533)" font-family="'Helvetica'" font-size="7.2px">LUN3</text>
		</g>
		<g>
			<g>
				<g>
					<path fill="none" stroke="#FFFFFF" stroke-width="0.4" stroke-linecap="round" stroke-linejoin="round" d="M268.441,192.51
						v23.187c0,3.309-6.85,5.99-15.298,5.99c-8.448,0-15.297-2.682-15.297-5.99V192.51H268.441z"/>
					
						<ellipse fill="none" stroke="#FFFFFF" stroke-width="0.4" stroke-linecap="round" stroke-linejoin="round" cx="253.144" cy="192.51" rx="15.297" ry="5.99"/>
				</g>
				<path fill="#FFFFFF" stroke="#231F20" stroke-width="0.4" stroke-linecap="round" stroke-linejoin="round" d="M268.441,192.51
					v23.187c0,3.309-6.85,5.99-15.298,5.99c-8.448,0-15.297-2.682-15.297-5.99V192.51H268.441z"/>
				
					<ellipse fill="#FFFFFF" stroke="#000000" stroke-width="0.4" stroke-linecap="round" stroke-linejoin="round" cx="253.144" cy="192.51" rx="15.297" ry="5.99"/>
			</g>
			<rect x="244.313" y="209.754" fill="none" width="20.4" height="8"/>
			<text transform="matrix(1 0 0 1 244.3133 214.9307)" font-family="'Helvetica'" font-size="7.2px">LUN4</text>
		</g>
	</g>
	<g>
		<rect x="116.231" y="182.999" fill="none" width="68.5" height="10"/>
		<text transform="matrix(1 0 0 1 118.4736 189.4706)" font-family="'Helvetica'" font-size="9px">Cluster Network</text>
		<path fill="none" stroke="#000000" stroke-width="0.4935" stroke-linecap="round" stroke-linejoin="round" d="M181.283,194.664
			H119.68c-3.96,0-7.2-3.24-7.2-7.2v-2.484c0-3.96,3.24-7.2,7.2-7.2h61.603c3.96,0,7.2,3.24,7.2,7.2v2.484
			C188.483,191.424,185.243,194.664,181.283,194.664z"/>
	</g>
	
		<path fill="none" stroke="#000000" stroke-width="0.5086" stroke-linecap="round" stroke-linejoin="round" stroke-dasharray="3.0947" d="
		M334.094,125H6.899c-0.495,0-0.9-0.405-0.9-0.9v-12.688c0-0.495,0.405-0.9,0.9-0.9h327.194c0.495,0,0.9,0.405,0.9,0.9V124.1
		C334.994,124.595,334.589,125,334.094,125z"/>
	
		<path fill="none" stroke="#000000" stroke-width="0.5086" stroke-linecap="round" stroke-linejoin="round" stroke-dasharray="3.0947" d="
		M334.094,108.333H6.899c-0.495,0-0.9-0.405-0.9-0.9V94.745c0-0.495,0.405-0.9,0.9-0.9h327.194c0.495,0,0.9,0.405,0.9,0.9v12.688
		C334.994,107.928,334.589,108.333,334.094,108.333z"/>
	<g>
		<rect x="28.666" y="82.167" fill="none" width="12" height="9"/>
		<text transform="matrix(1 0 0 1 28.6659 88.6374)" font-family="'Helvetica'" font-size="9px">0d</text>
		<rect x="11.916" y="82.167" fill="none" width="12" height="9"/>
		<text transform="matrix(1 0 0 1 11.9159 88.6374)" font-family="'Helvetica'" font-size="9px">0c</text>
		<polygon fill="none" stroke="#000000" stroke-width="0.5" stroke-linecap="round" stroke-linejoin="round" points="42.333,79 
			25.667,79 8.667,79 8.667,92 42.333,92 		"/>
		
			<line fill="none" stroke="#000000" stroke-width="0.5" stroke-linecap="round" stroke-linejoin="round" x1="25.667" y1="92" x2="25.667" y2="79.083"/>
	</g>
	<g>
		<rect x="108.433" y="82.167" fill="none" width="12" height="9"/>
		<text transform="matrix(1 0 0 1 108.4325 88.6374)" font-family="'Helvetica'" font-size="9px">0d</text>
		<rect x="91.683" y="82.167" fill="none" width="12" height="9"/>
		<text transform="matrix(1 0 0 1 91.6825 88.6374)" font-family="'Helvetica'" font-size="9px">0c</text>
		<polygon fill="none" stroke="#000000" stroke-width="0.5" stroke-linecap="round" stroke-linejoin="round" points="122.1,79 
			105.434,79 88.433,79 88.433,92 122.1,92 		"/>
		
			<line fill="none" stroke="#000000" stroke-width="0.5" stroke-linecap="round" stroke-linejoin="round" x1="105.433" y1="92" x2="105.433" y2="79.083"/>
	</g>
	<g>
		<rect x="188.429" y="82.167" fill="none" width="12" height="9"/>
		<text transform="matrix(1 0 0 1 188.4293 88.6374)" font-family="'Helvetica'" font-size="9px">0d</text>
		<rect x="171.679" y="82.167" fill="none" width="12" height="9"/>
		<text transform="matrix(1 0 0 1 171.6793 88.6374)" font-family="'Helvetica'" font-size="9px">0c</text>
		<polygon fill="none" stroke="#000000" stroke-width="0.5" stroke-linecap="round" stroke-linejoin="round" points="202.097,79 
			185.431,79 168.43,79 168.43,92 202.097,92 		"/>
		
			<line fill="none" stroke="#000000" stroke-width="0.5" stroke-linecap="round" stroke-linejoin="round" x1="185.43" y1="92" x2="185.43" y2="79.083"/>
	</g>
	<g>
		<rect x="268.426" y="82.167" fill="none" width="12" height="9"/>
		<text transform="matrix(1 0 0 1 268.4262 88.6374)" font-family="'Helvetica'" font-size="9px">0d</text>
		<rect x="251.676" y="82.167" fill="none" width="12" height="9"/>
		<text transform="matrix(1 0 0 1 251.6762 88.6374)" font-family="'Helvetica'" font-size="9px">0c</text>
		<polygon fill="none" stroke="#000000" stroke-width="0.5" stroke-linecap="round" stroke-linejoin="round" points="282.094,79 
			265.427,79 248.427,79 248.427,92 282.094,92 		"/>
		
			<line fill="none" stroke="#000000" stroke-width="0.5" stroke-linecap="round" stroke-linejoin="round" x1="265.427" y1="92" x2="265.427" y2="79.083"/>
	</g>
	<g>
		<path fill="#FFFFFF" stroke="#000000" stroke-width="0.5" stroke-linecap="round" stroke-linejoin="round" d="M65.449,46.496
			h-21.9c-0.99,0-1.8-0.81-1.8-1.8v-20.9c0-0.99,0.81-1.8,1.8-1.8h21.9c0.99,0,1.8,0.81,1.8,1.8v20.9
			C67.249,45.686,66.439,46.496,65.449,46.496z"/>
		<g>
			<text transform="matrix(1 0 0 1 41.4933 17.496)" font-family="'Helvetica'" font-size="9px">Host 1</text>
		</g>
		<g>
			<text transform="matrix(1 0 0 1 45.4947 31.496)" font-family="'Helvetica'" font-size="9px">APP</text>
		</g>
		<path fill="none" stroke="#000000" stroke-width="0.5" stroke-linecap="round" stroke-linejoin="round" d="M69.796,54.496H39.201
			c-3.96,0-7.2-3.24-7.2-7.2v-36.6c0-3.96,3.24-7.2,7.2-7.2h30.595c3.96,0,7.2,3.24,7.2,7.2v36.6
			C76.996,51.256,73.756,54.496,69.796,54.496z"/>
	</g>
	<g>
		<path fill="#FFFFFF" stroke="#000000" stroke-width="0.5" stroke-linecap="round" stroke-linejoin="round" d="M136.449,46.496
			h-21.9c-0.99,0-1.8-0.81-1.8-1.8v-20.9c0-0.99,0.81-1.8,1.8-1.8h21.9c0.99,0,1.8,0.81,1.8,1.8v20.9
			C138.249,45.686,137.439,46.496,136.449,46.496z"/>
		<g>
			<text transform="matrix(1 0 0 1 112.4933 17.496)" font-family="'Helvetica'" font-size="9px">Host 2</text>
		</g>
		<g>
			<text transform="matrix(1 0 0 1 116.4947 31.496)" font-family="'Helvetica'" font-size="9px">APP</text>
		</g>
		<path fill="none" stroke="#000000" stroke-width="0.5" stroke-linecap="round" stroke-linejoin="round" d="M140.796,54.496
			h-30.595c-3.96,0-7.2-3.24-7.2-7.2v-36.6c0-3.96,3.24-7.2,7.2-7.2h30.595c3.96,0,7.2,3.24,7.2,7.2v36.6
			C147.996,51.256,144.756,54.496,140.796,54.496z"/>
	</g>
	<line fill="none" stroke="#000000" x1="41.749" y1="44.696" x2="16.5" y2="79"/>
	<line fill="none" stroke="#000000" stroke-dasharray="3.095" x1="67" y1="46" x2="91" y2="78"/>
	<line fill="none" stroke="#000000" x1="112.749" y1="44.696" x2="20" y2="78.5"/>
	<line fill="none" stroke="#000000" x1="138.249" y1="44.696" x2="257" y2="78.5"/>
	<line fill="none" stroke="#000000" stroke-dasharray="3.095" x1="122" y1="46.5" x2="97" y2="78.5"/>
	<line fill="none" stroke="#000000" stroke-dasharray="3.095" x1="128.5" y1="47.001" x2="176" y2="78"/>
	<line fill="none" stroke="#000000" stroke-width="1.5" x1="36.5" y1="157.5" x2="64" y2="177.5"/>
	<line fill="none" stroke="#000000" stroke-width="1.5" x1="268.504" y1="157.5" x2="241.004" y2="177.5"/>
	<line fill="none" stroke="#000000" stroke-width="0.5" x1="173.004" y1="157.5" x2="159" y2="177.5"/>
	<line fill="none" stroke="#000000" stroke-width="0.5" x1="130.495" y1="157.5" x2="144.499" y2="177.5"/>
	<line fill="none" stroke="#000000" stroke-width="0.5" x1="59" y1="157" x2="112" y2="181"/>
	<line fill="none" stroke="#000000" stroke-width="0.5" x1="242.5" y1="157" x2="189.5" y2="182"/>
	<line fill="none" stroke="#000000" stroke-width="1.5" stroke-dasharray="3.095" x1="109.5" y1="157.5" x2="95.475" y2="178.732"/>
	
		<line fill="none" stroke="#000000" stroke-width="1.5" stroke-dasharray="3.095" x1="196.472" y1="157.5" x2="210.497" y2="178.732"/>
</g>
</svg>
