<?xml version="1.0" encoding="utf-8"?>
<!-- Generator: Adobe Illustrator 19.1.0, SVG Export Plug-In . SVG Version: 6.00 Build 0)  -->
<svg version="1.1" xmlns="http://www.w3.org/2000/svg" xmlns:xlink="http://www.w3.org/1999/xlink" x="0px" y="0px" width="344.9px"
	 height="274.8px" viewBox="0 0 344.9 274.8" style="enable-background:new 0 0 344.9 274.8;" xml:space="preserve">
<style type="text/css">
	.st0{fill:none;stroke:#000000;stroke-width:0.5;stroke-linecap:round;stroke-linejoin:round;}
	.st1{fill:none;}
	.st2{font-family:'Helvetica';}
	.st3{font-size:9px;}
</style>
<g id="boxes_1_">
	<rect x="0.2" y="12.1" class="st0" width="170" height="262.5"/>
	<rect x="258.8" y="30.1" class="st0" width="85.9" height="49"/>
	<rect x="260.2" y="190.6" class="st0" width="65" height="65"/>
	<rect x="17.9" y="39.6" class="st0" width="134" height="90.7"/>
	<line class="st0" x1="17.9" y1="62.3" x2="151.6" y2="62.3"/>
	<line class="st0" x1="17.9" y1="84.9" x2="151.6" y2="84.9"/>
	<line class="st0" x1="17.9" y1="107.6" x2="151.6" y2="107.6"/>
	<rect x="17.9" y="165.9" class="st0" width="134" height="90.7"/>
	<line class="st0" x1="17.9" y1="188.6" x2="151.6" y2="188.6"/>
	<line class="st0" x1="17.9" y1="211.3" x2="151.6" y2="211.3"/>
	<line class="st0" x1="17.9" y1="233.9" x2="151.6" y2="233.9"/>
</g>
<g id="text">
	<rect x="53.2" y="1.3" class="st1" width="65" height="9"/>
	<text transform="matrix(1 0 0 1 71.4961 7.7275)" class="st2 st3">Cluster</text>
	<rect x="21.2" y="47.3" class="st1" width="125.3" height="7.3"/>
	<text transform="matrix(1 0 0 1 21.25 53.7275)" class="st2 st3">VS1_mgmt_LIF</text>
	<rect x="21.2" y="70.3" class="st1" width="125.3" height="7.3"/>
	<text transform="matrix(1 0 0 1 21.25 76.7275)" class="st2 st3">LIF 1.1</text>
	<rect x="21.2" y="93.3" class="st1" width="125.3" height="7.3"/>
	<text transform="matrix(1 0 0 1 21.25 99.7275)" class="st2 st3">LIF 1.2</text>
	<rect x="21.2" y="116.3" class="st1" width="125.3" height="7.3"/>
	<text transform="matrix(1 0 0 1 21.25 122.7275)" class="st2 st3">LIF 1.3</text>
	<rect x="21.2" y="28.3" class="st1" width="125.3" height="7.3"/>
	<text transform="matrix(1 0 0 1 21.25 34.7275)" class="st2 st3">VS1</text>
	<rect x="21.2" y="173.6" class="st1" width="125.3" height="7.3"/>
	<text transform="matrix(1 0 0 1 21.25 180.0605)" class="st2 st3">VS2_mgmt_LIF</text>
	<rect x="21.2" y="196.6" class="st1" width="125.3" height="7.3"/>
	<text transform="matrix(1 0 0 1 21.25 203.0605)" class="st2 st3">LIF 2.1</text>
	<rect x="21.2" y="219.6" class="st1" width="125.3" height="7.3"/>
	<text transform="matrix(1 0 0 1 21.25 226.0605)" class="st2 st3">LIF 2.2</text>
	<rect x="21.2" y="242.6" class="st1" width="125.3" height="7.3"/>
	<text transform="matrix(1 0 0 1 21.25 249.0605)" class="st2 st3">LIF 2.3</text>
	<rect x="21.2" y="154.6" class="st1" width="125.3" height="7.3"/>
	<text transform="matrix(1 0 0 1 21.25 161.0605)" class="st2 st3">VS2</text>
	<rect x="266.6" y="49.9" class="st1" width="71.3" height="10.7"/>
	<text transform="matrix(1 0 0 1 277.4932 56.3945)" class="st2 st3">iSNS Server</text>
	<rect x="256.2" y="179.9" class="st1" width="71.3" height="10.7"/>
	<text transform="matrix(1 0 0 1 278.4121 186.3945)" class="st2 st3">Host A</text>
	<line class="st0" x1="152.1" y1="52.3" x2="252.6" y2="52.3"/>
	<polygon points="247.1,52.3 247.1,49.5 252.8,50.9 258.4,52.3 252.8,53.7 247.1,55.1 	"/>
</g>
</svg>
