<?xml version="1.0" encoding="utf-8"?>
<!-- Generator: Adobe Illustrator 19.1.0, SVG Export Plug-In . SVG Version: 6.00 Build 0)  -->
<svg version="1.1" xmlns="http://www.w3.org/2000/svg" xmlns:xlink="http://www.w3.org/1999/xlink" x="0px" y="0px" width="340.9px"
	 height="93.6px" viewBox="0 0 340.9 93.6" style="enable-background:new 0 0 340.9 93.6;" xml:space="preserve">
<style type="text/css">
	.st0{fill:#626366;stroke:#000000;stroke-width:0.5;stroke-linecap:round;stroke-linejoin:round;}
	.st1{fill:#FFFFFF;stroke:#000000;stroke-width:0.5;stroke-linecap:round;stroke-linejoin:round;}
	.st2{fill:none;}
	.st3{font-family:'Helvetica';}
	.st4{font-size:9px;}
	.st5{fill:#FFFFFF;stroke:#000100;stroke-width:0.5;stroke-linecap:round;stroke-linejoin:round;}
	.st6{fill:#000100;stroke:#000100;stroke-width:0.5;stroke-linecap:round;stroke-linejoin:round;}
</style>
<g id="objects">
	<g>
		<g>
			<path class="st0" d="M340.6,26.9v52.7c0,7.5-13.4,13.6-30,13.6c-16.6,0-30-6.1-30-13.6V26.9H340.6z"/>
			<ellipse class="st0" cx="310.6" cy="26.9" rx="30" ry="13.6"/>
		</g>
		<path class="st1" d="M340.6,26.9v52.7c0,7.5-13.4,13.6-30,13.6c-16.6,0-30-6.1-30-13.6V26.9H340.6z"/>
		<ellipse class="st1" cx="310.6" cy="26.9" rx="30" ry="13.6"/>
	</g>
	<rect x="139.9" y="13.2" class="st1" width="62.9" height="80.2"/>
	<rect x="0.2" y="13.2" class="st1" width="62.9" height="80.2"/>
</g>
<g id="text">
	<rect x="13.6" y="1.3" class="st2" width="37" height="11"/>
	<text transform="matrix(1 0 0 1 21.0693 7.7275)" class="st3 st4">host1</text>
	<rect x="154.1" y="1.3" class="st2" width="32" height="11"/>
	<text transform="matrix(1 0 0 1 154.0776 7.7275)" class="st3 st4">igroup1</text>
	<rect x="297.1" y="1.3" class="st2" width="27.5" height="11"/>
	<text transform="matrix(1 0 0 1 297.0776 7.7275)" class="st3 st4">LUN1</text>
	<rect x="257.1" y="36.3" class="st2" width="27.5" height="11"/>
	<text transform="matrix(1 0 0 1 257.0776 42.7275)" class="st3 st4">LIF1</text>
	<rect x="257.1" y="62.8" class="st2" width="27.5" height="11"/>
	<text transform="matrix(1 0 0 1 257.0776 69.2275)" class="st3 st4">LIF2</text>
	<rect x="152.1" y="34.8" class="st2" width="37" height="11"/>
	<text transform="matrix(1 0 0 1 159.5693 41.2275)" class="st3 st4">host1</text>
</g>
<g id="arrows">
	<g>
		<line class="st5" x1="63.1" y1="39.9" x2="127.3" y2="39.9"/>
		<polygon class="st6" points="139.3,39.7 133.7,41.3 128.1,43 128.1,39.7 128.1,36.4 133.7,38 		"/>
	</g>
	<line class="st5" x1="203.1" y1="39.9" x2="243" y2="39.9"/>
	<polygon class="st6" points="253.8,39.7 248.3,41.3 242.8,43 242.8,39.7 242.8,36.4 248.3,38 	"/>
</g>
</svg>
