<?xml version="1.0" encoding="utf-8"?>
<!-- Generator: Adobe Illustrator 19.1.0, SVG Export Plug-In . SVG Version: 6.00 Build 0)  -->
<svg version="1.1" xmlns="http://www.w3.org/2000/svg" xmlns:xlink="http://www.w3.org/1999/xlink" x="0px" y="0px" width="344.9px"
	 height="278.8px" viewBox="0 0 344.9 278.8" style="enable-background:new 0 0 344.9 278.8;" xml:space="preserve">
<style type="text/css">
	.st0{fill:none;stroke:#000000;stroke-width:0.5;stroke-linecap:round;stroke-linejoin:round;}
	.st1{fill:none;}
	.st2{font-family:'Helvetica';}
	.st3{font-size:9px;}
	.st4{fill:#FFFFFF;}
	.st5{font-size:10px;}
</style>
<g id="boxes_1_">
	<rect x="0.2" y="16" class="st0" width="170" height="262.5"/>
	<rect x="258.8" y="34" class="st0" width="85.9" height="49"/>
	<rect x="260.2" y="194.5" class="st0" width="65" height="65"/>
	<rect x="17.9" y="43.5" class="st0" width="134" height="90.7"/>
	<line class="st0" x1="17.9" y1="66.2" x2="151.6" y2="66.2"/>
	<line class="st0" x1="17.9" y1="88.9" x2="151.6" y2="88.9"/>
	<line class="st0" x1="17.9" y1="111.5" x2="151.6" y2="111.5"/>
	<rect x="17.9" y="169.9" class="st0" width="134" height="90.7"/>
	<line class="st0" x1="17.9" y1="192.5" x2="151.6" y2="192.5"/>
	<line class="st0" x1="17.9" y1="215.2" x2="151.6" y2="215.2"/>
	<line class="st0" x1="17.9" y1="237.9" x2="151.6" y2="237.9"/>
</g>
<g id="text">
	<rect x="53.2" y="5.2" class="st1" width="65" height="9"/>
	<text transform="matrix(1 0 0 1 71.4961 11.6816)" class="st2 st3">Cluster</text>
	<rect x="21.2" y="51.2" class="st1" width="125.3" height="7.3"/>
	<text transform="matrix(1 0 0 1 21.25 57.6816)" class="st2 st3">VS1_mgmt_LIF</text>
	<rect x="21.2" y="74.2" class="st1" width="125.3" height="7.3"/>
	<text transform="matrix(1 0 0 1 21.25 80.6816)" class="st2 st3">LIF 1.1</text>
	<rect x="21.2" y="97.2" class="st1" width="125.3" height="7.3"/>
	<text transform="matrix(1 0 0 1 21.25 103.6816)" class="st2 st3">LIF 1.2</text>
	<rect x="21.2" y="120.2" class="st1" width="125.3" height="7.3"/>
	<text transform="matrix(1 0 0 1 21.25 126.6816)" class="st2 st3">LIF 1.3</text>
	<rect x="21.2" y="32.2" class="st1" width="125.3" height="7.3"/>
	<text transform="matrix(1 0 0 1 21.25 38.6816)" class="st2 st3">VS1</text>
	<rect x="21.2" y="177.5" class="st1" width="125.3" height="7.3"/>
	<text transform="matrix(1 0 0 1 21.25 184.0146)" class="st2 st3">VS2_mgmt_LIF</text>
	<rect x="21.2" y="200.5" class="st1" width="125.3" height="7.3"/>
	<text transform="matrix(1 0 0 1 21.25 207.0146)" class="st2 st3">LIF 2.1</text>
	<rect x="21.2" y="223.5" class="st1" width="125.3" height="7.3"/>
	<text transform="matrix(1 0 0 1 21.25 230.0146)" class="st2 st3">LIF 2.2</text>
	<rect x="21.2" y="246.5" class="st1" width="125.3" height="7.3"/>
	<text transform="matrix(1 0 0 1 21.25 253.0146)" class="st2 st3">LIF 2.3</text>
	<rect x="21.2" y="158.5" class="st1" width="125.3" height="7.3"/>
	<text transform="matrix(1 0 0 1 21.25 165.0146)" class="st2 st3">VS2</text>
	<rect x="266.6" y="53.9" class="st1" width="71.3" height="10.7"/>
	<text transform="matrix(1 0 0 1 277.4932 60.3486)" class="st2 st3">iSNS Server</text>
	<rect x="256.2" y="183.9" class="st1" width="71.3" height="10.7"/>
	<text transform="matrix(1 0 0 1 278.4121 190.3486)" class="st2 st3">Host A</text>
	<g>
		<line class="st0" x1="316.8" y1="194" x2="316.8" y2="88.9"/>
		<polygon points="316.8,94.4 313.9,94.4 315.3,88.7 316.8,83 318.2,88.7 319.6,94.4 		"/>
	</g>
	<polygon points="160,96.9 157.9,98.8 155.2,93.6 152.5,88.5 157.3,91.8 162.1,95.1 	"/>
	<line class="st0" x1="156.2" y1="92.5" x2="259.8" y2="213.3"/>
	<g>
		<circle cx="306.8" cy="137.7" r="7.1"/>
		<text transform="matrix(1 0 0 1 304.0044 141)" class="st4 st2 st5">1</text>
	</g>
	<g>
		<circle cx="207.3" cy="137.7" r="7.1"/>
		<text transform="matrix(1 0 0 1 204.5044 141)" class="st4 st2 st5">2</text>
	</g>
</g>
</svg>
