<svg xmlns="http://www.w3.org/2000/svg" viewBox="0 0 344.875 274.8398"><defs><style>.b213520a-0bbf-4d57-a360-b74cb712edee{fill:none;stroke:#231f20;stroke-linecap:round;stroke-linejoin:round;stroke-width:0.5px;}.ab37c72a-9acf-40e0-8520-f3f83ea8211f{fill:#231f20;}</style></defs><g id="b8b39ea6-3c02-4d49-a04c-c3514bd7e4d0" data-name="boxes"><rect class="b213520a-0bbf-4d57-a360-b74cb712edee" x="0.25" y="12.0898" width="170" height="262.5"/><rect class="b213520a-0bbf-4d57-a360-b74cb712edee" x="258.75" y="30.0898" width="85.875" height="49"/><rect class="b213520a-0bbf-4d57-a360-b74cb712edee" x="260.25" y="190.5898" width="65" height="65"/><rect class="b213520a-0bbf-4d57-a360-b74cb712edee" x="17.917" y="39.5898" width="134" height="90.668"/><line class="b213520a-0bbf-4d57-a360-b74cb712edee" x1="17.917" y1="62.2568" x2="151.583" y2="62.2568"/><line class="b213520a-0bbf-4d57-a360-b74cb712edee" x1="17.917" y1="84.9234" x2="151.583" y2="84.9234"/><line class="b213520a-0bbf-4d57-a360-b74cb712edee" x1="17.917" y1="107.5898" x2="151.583" y2="107.5898"/><rect class="b213520a-0bbf-4d57-a360-b74cb712edee" x="17.917" y="165.9228" width="134" height="90.668"/><line class="b213520a-0bbf-4d57-a360-b74cb712edee" x1="17.917" y1="188.5898" x2="151.583" y2="188.5898"/><line class="b213520a-0bbf-4d57-a360-b74cb712edee" x1="17.917" y1="211.2558" x2="151.583" y2="211.2558"/><line class="b213520a-0bbf-4d57-a360-b74cb712edee" x1="17.917" y1="233.9228" x2="151.583" y2="233.9228"/></g><g id="f87577a4-b542-4c3a-85b0-82f90c6fe140" data-name="text"><path class="ab37c72a-9acf-40e0-8520-f3f83ea8211f" d="M76.7476,1.7422A2.2916,2.2916,0,0,1,77.49,3.21h-.8525a1.7806,1.7806,0,0,0-.5674-.9888,1.777,1.777,0,0,0-1.1933-.3648,1.8967,1.8967,0,0,0-1.5127.6709,3.0964,3.0964,0,0,0-.5762,2.0562,3.0259,3.0259,0,0,0,.52,1.84A1.8049,1.8049,0,0,0,74.86,7.13a1.63,1.63,0,0,0,1.4458-.7427,2.8523,2.8523,0,0,0,.393-1.0283h.8526a2.9287,2.9287,0,0,1-.7471,1.7095,2.6433,2.6433,0,0,1-2.05.8305,2.6859,2.6859,0,0,1-1.8682-.6816,3.5765,3.5765,0,0,1-.9946-2.7837A3.5852,3.5852,0,0,1,72.6387,2.09a2.7152,2.7152,0,0,1,2.228-.9936A2.5959,2.5959,0,0,1,76.7476,1.7422Z"/><path class="ab37c72a-9acf-40e0-8520-f3f83ea8211f" d="M78.5977,1.272h.791V7.7275h-.791Z"/><path class="ab37c72a-9acf-40e0-8520-f3f83ea8211f" d="M81.3662,3.021V6.1455a1.348,1.348,0,0,0,.1113.5889.7722.7722,0,0,0,.7662.4218,1.0835,1.0835,0,0,0,1.0957-.7382,3.0051,3.0051,0,0,0,.1582-1.0855V3.021h.791V7.7275h-.7471l.0088-.6943a1.59,1.59,0,0,1-.3755.4526,1.63,1.63,0,0,1-1.0776.3692,1.3834,1.3834,0,0,1-1.3457-.6724,2.0342,2.0342,0,0,1-.1939-.9624V3.021Z"/><path class="ab37c72a-9acf-40e0-8520-f3f83ea8211f" d="M86.0508,6.251a1.1376,1.1376,0,0,0,.2016.6064A1.2829,1.2829,0,0,0,87.311,7.24a1.5933,1.5933,0,0,0,.79-.1909.6337.6337,0,0,0,.3408-.5913.5041.5041,0,0,0-.2725-.4614,3.2662,3.2662,0,0,0-.6879-.2241l-.6382-.1582A3.1444,3.1444,0,0,1,85.94,5.28a.9956.9956,0,0,1-.518-.8877A1.3486,1.3486,0,0,1,85.91,3.311a1.9616,1.9616,0,0,1,1.3115-.4131,1.8328,1.8328,0,0,1,1.5542.6241,1.3438,1.3438,0,0,1,.29.8525h-.747a.9.9,0,0,0-.1934-.4853,1.2568,1.2568,0,0,0-.9673-.31,1.18,1.18,0,0,0-.6948.1709.53.53,0,0,0-.2363.4507.5535.5535,0,0,0,.31.4907,1.89,1.89,0,0,0,.5283.1929l.5327.1274a4.1734,4.1734,0,0,1,1.1641.4,1.0589,1.0589,0,0,1,.4614.9536,1.4454,1.4454,0,0,1-.4829,1.0855,2.0712,2.0712,0,0,1-1.47.457,1.9894,1.9894,0,0,1-1.5063-.477,1.789,1.789,0,0,1-.4737-1.18Z"/><path class="ab37c72a-9acf-40e0-8520-f3f83ea8211f" d="M90.2388,1.707h.8V3.021H91.79v.646h-.7514V6.7388a.3324.3324,0,0,0,.167.33.71.71,0,0,0,.3076.0483q.0571,0,.123-.0029t.1538-.0147v.6284a1.7726,1.7726,0,0,1-.2837.0572,2.6944,2.6944,0,0,1-.3183.0175.8576.8576,0,0,1-.7515-.2836,1.2582,1.2582,0,0,1-.1977-.7359V3.667h-.6372V3.021h.6372Z"/><path class="ab37c72a-9acf-40e0-8520-f3f83ea8211f" d="M95.4883,3.15a1.7879,1.7879,0,0,1,.7119.6089,2.1121,2.1121,0,0,1,.3144.8305,5.483,5.483,0,0,1,.07,1.0372H93.1611a2.0324,2.0324,0,0,0,.336,1.1523,1.1183,1.1183,0,0,0,.9721.4341,1.2487,1.2487,0,0,0,.981-.4107,1.398,1.398,0,0,0,.2905-.5517h.7779a1.6508,1.6508,0,0,1-.2041.5781,2.0909,2.0909,0,0,1-.3877.52,1.8227,1.8227,0,0,1-.8853.4746,2.67,2.67,0,0,1-.6411.07,1.9633,1.9633,0,0,1-1.4805-.64,2.4956,2.4956,0,0,1-.6069-1.79,2.7155,2.7155,0,0,1,.6113-1.8414,2.012,2.012,0,0,1,1.5986-.7075A2.1285,2.1285,0,0,1,95.4883,3.15Zm.2832,1.8481a2.0663,2.0663,0,0,0-.2222-.8217,1.1371,1.1371,0,0,0-1.0766-.5713,1.189,1.189,0,0,0-.9063.3935,1.4924,1.4924,0,0,0-.3877.9995Z"/><path class="ab37c72a-9acf-40e0-8520-f3f83ea8211f" d="M97.6084,3.021H98.36v.813a1.8013,1.8013,0,0,1,.4526-.5781,1.1753,1.1753,0,0,1,.8306-.34q.0219,0,.0747.0044t.18.0176v.835a1.1582,1.1582,0,0,0-.13-.0176c-.0391-.0029-.0826-.0044-.1294-.0044a1.13,1.13,0,0,0-.9185.3843,1.3434,1.3434,0,0,0-.3208.8857v2.707h-.791Z"/><path class="ab37c72a-9acf-40e0-8520-f3f83ea8211f" d="M22.4473,47.272,24.3018,52.77l1.833-5.4975h.98l-2.3555,6.4555H23.832L21.4805,47.272Z"/><path class="ab37c72a-9acf-40e0-8520-f3f83ea8211f" d="M28.51,51.6445a1.8133,1.8133,0,0,0,.25.8921,1.63,1.63,0,0,0,1.4775.6416,2.5315,2.5315,0,0,0,.8638-.1406.99.99,0,0,0,.7534-.9756.8534.8534,0,0,0-.3193-.7515,3.165,3.165,0,0,0-1.0132-.3823l-.8472-.1977A3.756,3.756,0,0,1,28.5,50.3042a1.3637,1.3637,0,0,1-.5962-1.2085,1.8855,1.8855,0,0,1,.586-1.4282,2.31,2.31,0,0,1,1.6591-.5581,2.8258,2.8258,0,0,1,1.6787.49,1.788,1.788,0,0,1,.6905,1.5664h-.8218a1.66,1.66,0,0,0-.2695-.7954,1.5342,1.5342,0,0,0-1.3018-.5054,1.4652,1.4652,0,0,0-1.0664.3252,1.0377,1.0377,0,0,0-.3242.7559.7428.7428,0,0,0,.3833.6943,5.4914,5.4914,0,0,0,1.1367.3516l.877.2065a2.6419,2.6419,0,0,1,.9795.4087,1.5492,1.5492,0,0,1,.5961,1.314,1.6518,1.6518,0,0,1-.7607,1.5337,3.3414,3.3414,0,0,1-1.7681.4614,2.6017,2.6017,0,0,1-1.8383-.6152,2.1018,2.1018,0,0,1-.6514-1.6568Z"/><path class="ab37c72a-9acf-40e0-8520-f3f83ea8211f" d="M34.1172,49.2715V48.665a3.2094,3.2094,0,0,0,1.1953-.2793,1.3732,1.3732,0,0,0,.5054-.9248h.624v6.2666h-.8438v-4.456Z"/><path class="ab37c72a-9acf-40e0-8520-f3f83ea8211f" d="M38.2612,54.8525v-.4438h5.0054v.4438Z"/><path class="ab37c72a-9acf-40e0-8520-f3f83ea8211f" d="M43.8467,49.021h.7822v.668a2.6272,2.6272,0,0,1,.51-.5054,1.533,1.533,0,0,1,.8877-.2681,1.3967,1.3967,0,0,1,.9052.2769,1.4477,1.4477,0,0,1,.3516.4658,1.7138,1.7138,0,0,1,.62-.56,1.7343,1.7343,0,0,1,.8-.1822,1.3078,1.3078,0,0,1,1.292.6856,2.24,2.24,0,0,1,.1846.9931v3.1333h-.8218v-3.27a.7616.7616,0,0,0-.2353-.646.93.93,0,0,0-.5733-.1758,1.1369,1.1369,0,0,0-.8017.312,1.3683,1.3683,0,0,0-.3365,1.0415v2.7378h-.8042V50.6558a1.596,1.596,0,0,0-.1142-.6988.6969.6969,0,0,0-.6724-.33,1.1589,1.1589,0,0,0-.8149.3472,1.6994,1.6994,0,0,0-.3672,1.2568v2.4961h-.791Z"/><path class="ab37c72a-9acf-40e0-8520-f3f83ea8211f" d="M53.96,49.21a2.1761,2.1761,0,0,1,.4551.4482v-.5933h.73v4.28a3.1644,3.1644,0,0,1-.2627,1.4151,1.8856,1.8856,0,0,1-1.8525.958,2.2714,2.2714,0,0,1-1.2749-.34,1.3313,1.3313,0,0,1-.5781-1.0659h.8042a.8976.8976,0,0,0,.227.4878,1.4339,1.4339,0,0,0,2.0239-.3779,3.6274,3.6274,0,0,0,.1529-1.3491,1.55,1.55,0,0,1-.5689.5361,2.035,2.035,0,0,1-2.2129-.3667,2.3936,2.3936,0,0,1-.5713-1.7954,2.7255,2.7255,0,0,1,.5757-1.8457,1.7775,1.7775,0,0,1,1.39-.6636A1.7047,1.7047,0,0,1,53.96,49.21Zm.0967.8481a1.1472,1.1472,0,0,0-.914-.4219,1.1288,1.1288,0,0,0-1.1368.7823,3.08,3.08,0,0,0-.1616,1.0942,1.9508,1.9508,0,0,0,.3213,1.2109,1.0368,1.0368,0,0,0,.8638.4151,1.2118,1.2118,0,0,0,1.1933-.7691,2.4871,2.4871,0,0,0,.1924-1.0151A1.9707,1.9707,0,0,0,54.0571,50.0581Z"/><path class="ab37c72a-9acf-40e0-8520-f3f83ea8211f" d="M56.3491,49.021h.7822v.668a2.63,2.63,0,0,1,.51-.5054,1.5335,1.5335,0,0,1,.8877-.2681,1.397,1.397,0,0,1,.9053.2769,1.4461,1.4461,0,0,1,.3515.4658,1.714,1.714,0,0,1,.62-.56,1.7343,1.7343,0,0,1,.8-.1822,1.3078,1.3078,0,0,1,1.292.6856,2.2414,2.2414,0,0,1,.1845.9931v3.1333H61.86v-3.27a.7617.7617,0,0,0-.2354-.646.93.93,0,0,0-.5732-.1758,1.137,1.137,0,0,0-.8018.312,1.3683,1.3683,0,0,0-.3364,1.0415v2.7378h-.8042V50.6558a1.5957,1.5957,0,0,0-.1143-.6988.6967.6967,0,0,0-.6723-.33,1.1591,1.1591,0,0,0-.815.3472,1.6994,1.6994,0,0,0-.3672,1.2568v2.4961h-.791Z"/><path class="ab37c72a-9acf-40e0-8520-f3f83ea8211f" d="M64.0044,47.707h.8v1.314h.7515v.646h-.7515v3.0718a.3325.3325,0,0,0,.167.33.71.71,0,0,0,.3076.0483q.0571,0,.1231-.0029t.1538-.0147v.6284a1.7771,1.7771,0,0,1-.2837.0572,2.6962,2.6962,0,0,1-.3184.0175.8578.8578,0,0,1-.7515-.2836,1.2582,1.2582,0,0,1-.1977-.7359V49.667h-.6372v-.646h.6372Z"/><path class="ab37c72a-9acf-40e0-8520-f3f83ea8211f" d="M65.7666,54.8525v-.4438H70.772v.4438Z"/><path class="ab37c72a-9acf-40e0-8520-f3f83ea8211f" d="M71.4575,47.272h.8745v5.6865h3.2388v.769H71.4575Z"/><path class="ab37c72a-9acf-40e0-8520-f3f83ea8211f" d="M76.6606,47.272h.8833v6.4555h-.8833Z"/><path class="ab37c72a-9acf-40e0-8520-f3f83ea8211f" d="M79.0469,47.272h4.478v.791H79.9214v1.96H83.09v.7691H79.9214v2.9355h-.8745Z"/><path class="ab37c72a-9acf-40e0-8520-f3f83ea8211f" d="M21.9355,70.272H22.81v5.6865h3.2387v.769H21.9355Z"/><path class="ab37c72a-9acf-40e0-8520-f3f83ea8211f" d="M27.1387,70.272h.8833v6.4555h-.8833Z"/><path class="ab37c72a-9acf-40e0-8520-f3f83ea8211f" d="M29.5249,70.272h4.478v.791H30.3994v1.96h3.1685v.7691H30.3994v2.9355h-.8745Z"/><path class="ab37c72a-9acf-40e0-8520-f3f83ea8211f" d="M37.6152,72.2715V71.665a3.2089,3.2089,0,0,0,1.1953-.2793,1.3728,1.3728,0,0,0,.5054-.9248h.624v6.2666h-.8437v-4.456Z"/><path class="ab37c72a-9acf-40e0-8520-f3f83ea8211f" d="M42.5283,75.77h.9185v.958h-.9185Z"/><path class="ab37c72a-9acf-40e0-8520-f3f83ea8211f" d="M45.1211,72.2715V71.665a3.2094,3.2094,0,0,0,1.1953-.2793,1.3732,1.3732,0,0,0,.5054-.9248h.624v6.2666h-.8437v-4.456Z"/><path class="ab37c72a-9acf-40e0-8520-f3f83ea8211f" d="M21.9355,93.272H22.81v5.6865h3.2387v.769H21.9355Z"/><path class="ab37c72a-9acf-40e0-8520-f3f83ea8211f" d="M27.1387,93.272h.8833v6.4555h-.8833Z"/><path class="ab37c72a-9acf-40e0-8520-f3f83ea8211f" d="M29.5249,93.272h4.478v.791H30.3994v1.96h3.1685v.7691H30.3994v2.9355h-.8745Z"/><path class="ab37c72a-9acf-40e0-8520-f3f83ea8211f" d="M37.6152,95.2715V94.665a3.2089,3.2089,0,0,0,1.1953-.2793,1.3728,1.3728,0,0,0,.5054-.9248h.624v6.2666h-.8437v-4.456Z"/><path class="ab37c72a-9acf-40e0-8520-f3f83ea8211f" d="M42.5283,98.77h.9185v.958h-.9185Z"/><path class="ab37c72a-9acf-40e0-8520-f3f83ea8211f" d="M44.877,98.3125a2.7212,2.7212,0,0,1,1.1406-1.0942l.8437-.4878a3.9523,3.9523,0,0,0,.7954-.563,1.232,1.232,0,0,0,.0308-1.7105,1.2,1.2,0,0,0-.8789-.3237,1.1475,1.1475,0,0,0-1.125.6172,2.2135,2.2135,0,0,0-.1846.9165h-.8042a2.8252,2.8252,0,0,1,.3032-1.34,1.9031,1.9031,0,0,1,1.815-.9141,1.8675,1.8675,0,0,1,2.0786,1.8853A1.768,1.768,0,0,1,48.36,96.59a5.203,5.203,0,0,1-1.1031.7559l-.602.334a3.905,3.905,0,0,0-.6768.4526,1.6494,1.6494,0,0,0-.5537.8482h3.4365v.747h-4.32A3.6688,3.6688,0,0,1,44.877,98.3125Z"/><path class="ab37c72a-9acf-40e0-8520-f3f83ea8211f" d="M21.9355,116.2715H22.81v5.6875h3.2387v.7685H21.9355Z"/><path class="ab37c72a-9acf-40e0-8520-f3f83ea8211f" d="M27.1387,116.2715h.8833v6.456h-.8833Z"/><path class="ab37c72a-9acf-40e0-8520-f3f83ea8211f" d="M29.5249,116.2715h4.478v.791H30.3994v1.9609h3.1685v.7686H30.3994v2.9355h-.8745Z"/><path class="ab37c72a-9acf-40e0-8520-f3f83ea8211f" d="M37.6152,118.2715v-.6065a3.2089,3.2089,0,0,0,1.1953-.2793,1.3728,1.3728,0,0,0,.5054-.9248h.624v6.2666h-.8437v-4.456Z"/><path class="ab37c72a-9acf-40e0-8520-f3f83ea8211f" d="M42.5283,121.77h.9185v.958h-.9185Z"/><path class="ab37c72a-9acf-40e0-8520-f3f83ea8211f" d="M44.9785,122.2861a2.2741,2.2741,0,0,1-.5034-1.4922h.8262a2.0476,2.0476,0,0,0,.2285.8877,1.2016,1.2016,0,0,0,1.1118.4961,1.4581,1.4581,0,0,0,1.002-.3339,1.097,1.097,0,0,0,.3779-.8614,1.0027,1.0027,0,0,0-.3975-.9092,2.015,2.015,0,0,0-1.1054-.2587c-.0528,0-.1065,0-.16.0019l-.165.0059v-.6983q.123.0132.2065.0176c.0557.0029.1157.0049.18.0049a1.6523,1.6523,0,0,0,.73-.1406.8936.8936,0,0,0,.5009-.8789.858.858,0,0,0-.3339-.7256,1.246,1.246,0,0,0-.7779-.2549,1.1531,1.1531,0,0,0-1.0942.5273,1.8293,1.8293,0,0,0-.189.8262h-.7822a2.3734,2.3734,0,0,1,.2813-1.1953,1.7732,1.7732,0,0,1,1.7006-.8789,2.3025,2.3025,0,0,1,1.49.4287,1.5055,1.5055,0,0,1,.5273,1.2412,1.3854,1.3854,0,0,1-.312.94,1.3111,1.3111,0,0,1-.501.3516,1.3624,1.3624,0,0,1,.7754.5254,1.5871,1.5871,0,0,1,.2793.9512,1.939,1.939,0,0,1-.5932,1.4677,2.3394,2.3394,0,0,1-1.6831.5664A1.9776,1.9776,0,0,1,44.9785,122.2861Z"/><path class="ab37c72a-9acf-40e0-8520-f3f83ea8211f" d="M22.4473,28.272,24.3018,33.77l1.833-5.4975h.98l-2.3555,6.4555H23.832L21.4805,28.272Z"/><path class="ab37c72a-9acf-40e0-8520-f3f83ea8211f" d="M28.51,32.6445a1.8133,1.8133,0,0,0,.25.8921,1.63,1.63,0,0,0,1.4775.6416,2.5315,2.5315,0,0,0,.8638-.1406.99.99,0,0,0,.7534-.9756.8534.8534,0,0,0-.3193-.7515,3.165,3.165,0,0,0-1.0132-.3823l-.8472-.1977A3.756,3.756,0,0,1,28.5,31.3042a1.3637,1.3637,0,0,1-.5962-1.2085,1.8855,1.8855,0,0,1,.586-1.4282,2.31,2.31,0,0,1,1.6591-.5581,2.8258,2.8258,0,0,1,1.6787.49,1.788,1.788,0,0,1,.6905,1.5664h-.8218a1.66,1.66,0,0,0-.2695-.7954,1.5342,1.5342,0,0,0-1.3018-.5054,1.4652,1.4652,0,0,0-1.0664.3252,1.0377,1.0377,0,0,0-.3242.7559.7428.7428,0,0,0,.3833.6943,5.4914,5.4914,0,0,0,1.1367.3516l.877.2065a2.6419,2.6419,0,0,1,.9795.4087,1.5492,1.5492,0,0,1,.5961,1.314,1.6518,1.6518,0,0,1-.7607,1.5337,3.3414,3.3414,0,0,1-1.7681.4614,2.6017,2.6017,0,0,1-1.8383-.6152,2.1018,2.1018,0,0,1-.6514-1.6568Z"/><path class="ab37c72a-9acf-40e0-8520-f3f83ea8211f" d="M34.1172,30.2715V29.665a3.2094,3.2094,0,0,0,1.1953-.2793,1.3732,1.3732,0,0,0,.5054-.9248h.624v6.2666h-.8438v-4.456Z"/><path class="ab37c72a-9acf-40e0-8520-f3f83ea8211f" d="M22.4473,173.6055l1.8545,5.497,1.833-5.497h.98l-2.3555,6.455H23.832l-2.3515-6.455Z"/><path class="ab37c72a-9acf-40e0-8520-f3f83ea8211f" d="M28.51,177.9775a1.811,1.811,0,0,0,.25.8916,1.6307,1.6307,0,0,0,1.4775.6426,2.5315,2.5315,0,0,0,.8638-.1406.9906.9906,0,0,0,.7534-.9766.8523.8523,0,0,0-.3193-.7509,3.14,3.14,0,0,0-1.0132-.3819l-.8472-.1982a3.7288,3.7288,0,0,1-1.1748-.4268,1.3628,1.3628,0,0,1-.5962-1.208A1.888,1.888,0,0,1,28.4893,174a2.3142,2.3142,0,0,1,1.6591-.5576,2.823,2.823,0,0,1,1.6787.49,1.7886,1.7886,0,0,1,.6905,1.5664h-.8218a1.6655,1.6655,0,0,0-.2695-.7959,1.5368,1.5368,0,0,0-1.3018-.5049,1.4652,1.4652,0,0,0-1.0664.3252,1.0377,1.0377,0,0,0-.3242.7559.7428.7428,0,0,0,.3833.6943,5.4914,5.4914,0,0,0,1.1367.3516l.877.206a2.6433,2.6433,0,0,1,.9795.4092,1.5483,1.5483,0,0,1,.5961,1.3135,1.6525,1.6525,0,0,1-.7607,1.5342,3.3417,3.3417,0,0,1-1.7681.4619,2.6017,2.6017,0,0,1-1.8383-.6152,2.1041,2.1041,0,0,1-.6514-1.6573Z"/><path class="ab37c72a-9acf-40e0-8520-f3f83ea8211f" d="M33.873,178.6455a2.7229,2.7229,0,0,1,1.1407-1.0947l.8437-.4873a3.926,3.926,0,0,0,.7954-.5635,1.156,1.156,0,0,0,.36-.8359,1.1692,1.1692,0,0,0-.33-.8741,1.2,1.2,0,0,0-.8789-.3232,1.1467,1.1467,0,0,0-1.125.6172,2.2091,2.2091,0,0,0-.1846.916h-.8042a2.8231,2.8231,0,0,1,.3032-1.34,1.9031,1.9031,0,0,1,1.815-.9141,1.8668,1.8668,0,0,1,2.0786,1.8848,1.7688,1.7688,0,0,1-.5317,1.292,5.2072,5.2072,0,0,1-1.1031.7558l-.602.334a3.9642,3.9642,0,0,0-.6768.4521,1.6545,1.6545,0,0,0-.5537.8487h3.4365v.747h-4.32A3.671,3.671,0,0,1,33.873,178.6455Z"/><path class="ab37c72a-9acf-40e0-8520-f3f83ea8211f" d="M38.2612,181.1855v-.4433h5.0054v.4433Z"/><path class="ab37c72a-9acf-40e0-8520-f3f83ea8211f" d="M43.8467,175.3535h.7822v.668a2.6516,2.6516,0,0,1,.51-.5049,1.5334,1.5334,0,0,1,.8877-.2686,1.3969,1.3969,0,0,1,.9052.2774,1.4477,1.4477,0,0,1,.3516.4658,1.7147,1.7147,0,0,1,.62-.56,1.7345,1.7345,0,0,1,.8-.1827,1.308,1.308,0,0,1,1.292.6856,2.2446,2.2446,0,0,1,.1846.9941v3.1328h-.8218V176.791a.7627.7627,0,0,0-.2353-.6465.93.93,0,0,0-.5733-.1757,1.1373,1.1373,0,0,0-.8017.3124,1.3673,1.3673,0,0,0-.3365,1.0411v2.7382h-.8042v-3.0722a1.5964,1.5964,0,0,0-.1142-.6983.6966.6966,0,0,0-.6724-.3291,1.1583,1.1583,0,0,0-.8149.3467,1.7,1.7,0,0,0-.3672,1.2569v2.496h-.791Z"/><path class="ab37c72a-9acf-40e0-8520-f3f83ea8211f" d="M53.96,175.543a2.1761,2.1761,0,0,1,.4551.4482v-.5928h.73v4.2793a3.1694,3.1694,0,0,1-.2627,1.4161,1.885,1.885,0,0,1-1.8525.957,2.2713,2.2713,0,0,1-1.2749-.34,1.3307,1.3307,0,0,1-.5781-1.0664h.8042a.8985.8985,0,0,0,.227.4883,1.4339,1.4339,0,0,0,2.0239-.3779,3.6279,3.6279,0,0,0,.1529-1.3487,1.5463,1.5463,0,0,1-.5689.5352,2.0359,2.0359,0,0,1-2.2129-.3662,2.3941,2.3941,0,0,1-.5713-1.7959,2.729,2.729,0,0,1,.5757-1.8457,1.78,1.78,0,0,1,1.39-.6631A1.7047,1.7047,0,0,1,53.96,175.543Zm.0967.8476a1.1471,1.1471,0,0,0-.914-.4218,1.13,1.13,0,0,0-1.1368.7832,3.0736,3.0736,0,0,0-.1616,1.0937,1.9508,1.9508,0,0,0,.3213,1.2109,1.0368,1.0368,0,0,0,.8638.4151,1.2127,1.2127,0,0,0,1.1933-.7686,2.4929,2.4929,0,0,0,.1924-1.0156A1.9722,1.9722,0,0,0,54.0571,176.3906Z"/><path class="ab37c72a-9acf-40e0-8520-f3f83ea8211f" d="M56.3491,175.3535h.7822v.668a2.6545,2.6545,0,0,1,.51-.5049,1.5339,1.5339,0,0,1,.8877-.2686,1.3971,1.3971,0,0,1,.9053.2774,1.4461,1.4461,0,0,1,.3515.4658,1.7149,1.7149,0,0,1,.62-.56,1.7345,1.7345,0,0,1,.8-.1827,1.308,1.308,0,0,1,1.292.6856,2.2461,2.2461,0,0,1,.1845.9941v3.1328H61.86V176.791a.7628.7628,0,0,0-.2354-.6465.9294.9294,0,0,0-.5732-.1757,1.1373,1.1373,0,0,0-.8018.3124,1.3673,1.3673,0,0,0-.3364,1.0411v2.7382h-.8042v-3.0722a1.5962,1.5962,0,0,0-.1143-.6983.6964.6964,0,0,0-.6723-.3291,1.1585,1.1585,0,0,0-.815.3467,1.7,1.7,0,0,0-.3672,1.2569v2.496h-.791Z"/><path class="ab37c72a-9acf-40e0-8520-f3f83ea8211f" d="M64.0044,174.04h.8v1.3135h.7515V176h-.7515v3.0723a.3318.3318,0,0,0,.167.3291.7118.7118,0,0,0,.3076.0478c.0381,0,.0791,0,.1231-.0019s.0952-.0078.1538-.0157v.6289a1.7657,1.7657,0,0,1-.2837.0567,2.6952,2.6952,0,0,1-.3184.0176.8577.8577,0,0,1-.7515-.2832,1.2577,1.2577,0,0,1-.1977-.7364V176h-.6372v-.6465h.6372Z"/><path class="ab37c72a-9acf-40e0-8520-f3f83ea8211f" d="M65.7666,181.1855v-.4433H70.772v.4433Z"/><path class="ab37c72a-9acf-40e0-8520-f3f83ea8211f" d="M71.4575,173.6055h.8745v5.6855h3.2388v.7695H71.4575Z"/><path class="ab37c72a-9acf-40e0-8520-f3f83ea8211f" d="M76.6606,173.6055h.8833v6.455h-.8833Z"/><path class="ab37c72a-9acf-40e0-8520-f3f83ea8211f" d="M79.0469,173.6055h4.478v.791H79.9214v1.959H83.09v.7695H79.9214v2.9355h-.8745Z"/><path class="ab37c72a-9acf-40e0-8520-f3f83ea8211f" d="M21.9355,196.6055H22.81v5.6855h3.2387v.7695H21.9355Z"/><path class="ab37c72a-9acf-40e0-8520-f3f83ea8211f" d="M27.1387,196.6055h.8833v6.455h-.8833Z"/><path class="ab37c72a-9acf-40e0-8520-f3f83ea8211f" d="M29.5249,196.6055h4.478v.791H30.3994v1.959h3.1685v.7695H30.3994v2.9355h-.8745Z"/><path class="ab37c72a-9acf-40e0-8520-f3f83ea8211f" d="M37.3711,201.6455a2.7226,2.7226,0,0,1,1.1406-1.0947l.8438-.4873a3.9319,3.9319,0,0,0,.7954-.5635,1.1562,1.1562,0,0,0,.36-.8359,1.1688,1.1688,0,0,0-.33-.8741,1.2,1.2,0,0,0-.8789-.3232,1.1467,1.1467,0,0,0-1.125.6172,2.2093,2.2093,0,0,0-.1845.916H37.189a2.8219,2.8219,0,0,1,.3032-1.34,1.903,1.903,0,0,1,1.8149-.9141,1.8668,1.8668,0,0,1,2.0786,1.8848,1.7684,1.7684,0,0,1-.5317,1.292,5.2086,5.2086,0,0,1-1.103.7558l-.6021.334a3.9589,3.9589,0,0,0-.6767.4521,1.6532,1.6532,0,0,0-.5537.8487H41.355v.747h-4.32A3.671,3.671,0,0,1,37.3711,201.6455Z"/><path class="ab37c72a-9acf-40e0-8520-f3f83ea8211f" d="M42.5283,202.1025h.9185v.958h-.9185Z"/><path class="ab37c72a-9acf-40e0-8520-f3f83ea8211f" d="M45.1211,198.6045v-.6065a3.2118,3.2118,0,0,0,1.1953-.2792,1.3738,1.3738,0,0,0,.5054-.9249h.624v6.2666h-.8437v-4.456Z"/><path class="ab37c72a-9acf-40e0-8520-f3f83ea8211f" d="M21.9355,219.6055H22.81v5.6855h3.2387v.7695H21.9355Z"/><path class="ab37c72a-9acf-40e0-8520-f3f83ea8211f" d="M27.1387,219.6055h.8833v6.455h-.8833Z"/><path class="ab37c72a-9acf-40e0-8520-f3f83ea8211f" d="M29.5249,219.6055h4.478v.791H30.3994v1.959h3.1685v.7695H30.3994v2.9355h-.8745Z"/><path class="ab37c72a-9acf-40e0-8520-f3f83ea8211f" d="M37.3711,224.6455a2.7226,2.7226,0,0,1,1.1406-1.0947l.8438-.4873a3.9319,3.9319,0,0,0,.7954-.5635,1.1562,1.1562,0,0,0,.36-.8359,1.1688,1.1688,0,0,0-.33-.8741,1.2,1.2,0,0,0-.8789-.3232,1.1467,1.1467,0,0,0-1.125.6172,2.2093,2.2093,0,0,0-.1845.916H37.189a2.8219,2.8219,0,0,1,.3032-1.34,1.903,1.903,0,0,1,1.8149-.9141,1.8668,1.8668,0,0,1,2.0786,1.8848,1.7684,1.7684,0,0,1-.5317,1.292,5.2086,5.2086,0,0,1-1.103.7558l-.6021.334a3.9589,3.9589,0,0,0-.6767.4521,1.6532,1.6532,0,0,0-.5537.8487H41.355v.747h-4.32A3.671,3.671,0,0,1,37.3711,224.6455Z"/><path class="ab37c72a-9acf-40e0-8520-f3f83ea8211f" d="M42.5283,225.1025h.9185v.958h-.9185Z"/><path class="ab37c72a-9acf-40e0-8520-f3f83ea8211f" d="M44.877,224.6455a2.722,2.722,0,0,1,1.1406-1.0947l.8437-.4873a3.926,3.926,0,0,0,.7954-.5635,1.156,1.156,0,0,0,.36-.8359,1.1692,1.1692,0,0,0-.33-.8741,1.2,1.2,0,0,0-.8789-.3232,1.1467,1.1467,0,0,0-1.125.6172,2.2091,2.2091,0,0,0-.1846.916h-.8042a2.8231,2.8231,0,0,1,.3032-1.34,1.9031,1.9031,0,0,1,1.815-.9141,1.8668,1.8668,0,0,1,2.0786,1.8848,1.7684,1.7684,0,0,1-.5317,1.292,5.2072,5.2072,0,0,1-1.1031.7558l-.602.334a3.9642,3.9642,0,0,0-.6768.4521,1.6545,1.6545,0,0,0-.5537.8487h3.4365v.747h-4.32A3.6692,3.6692,0,0,1,44.877,224.6455Z"/><path class="ab37c72a-9acf-40e0-8520-f3f83ea8211f" d="M21.9355,242.6055H22.81v5.6855h3.2387v.7695H21.9355Z"/><path class="ab37c72a-9acf-40e0-8520-f3f83ea8211f" d="M27.1387,242.6055h.8833v6.455h-.8833Z"/><path class="ab37c72a-9acf-40e0-8520-f3f83ea8211f" d="M29.5249,242.6055h4.478v.791H30.3994v1.959h3.1685v.7695H30.3994v2.9355h-.8745Z"/><path class="ab37c72a-9acf-40e0-8520-f3f83ea8211f" d="M37.3711,247.6455a2.7226,2.7226,0,0,1,1.1406-1.0947l.8438-.4873a3.9319,3.9319,0,0,0,.7954-.5635,1.1562,1.1562,0,0,0,.36-.8359,1.1688,1.1688,0,0,0-.33-.8741,1.2,1.2,0,0,0-.8789-.3232,1.1467,1.1467,0,0,0-1.125.6172,2.2093,2.2093,0,0,0-.1845.916H37.189a2.8219,2.8219,0,0,1,.3032-1.34,1.903,1.903,0,0,1,1.8149-.9141,1.8668,1.8668,0,0,1,2.0786,1.8848,1.7684,1.7684,0,0,1-.5317,1.292,5.2086,5.2086,0,0,1-1.103.7558l-.6021.334a3.9589,3.9589,0,0,0-.6767.4521,1.6532,1.6532,0,0,0-.5537.8487H41.355v.747h-4.32A3.671,3.671,0,0,1,37.3711,247.6455Z"/><path class="ab37c72a-9acf-40e0-8520-f3f83ea8211f" d="M42.5283,248.1025h.9185v.958h-.9185Z"/><path class="ab37c72a-9acf-40e0-8520-f3f83ea8211f" d="M44.9785,248.6191a2.274,2.274,0,0,1-.5034-1.4921h.8262a2.0475,2.0475,0,0,0,.2285.8876,1.2021,1.2021,0,0,0,1.1118.4971,1.4577,1.4577,0,0,0,1.002-.334,1.0966,1.0966,0,0,0,.3779-.8613,1.0046,1.0046,0,0,0-.3975-.91,2.0146,2.0146,0,0,0-1.1054-.26c-.0528,0-.1065.0019-.16.0029s-.1094.0029-.165.0068v-.6992q.123.0132.2065.0176c.0557.0029.1157.0039.18.0039a1.6523,1.6523,0,0,0,.73-.1406.8935.8935,0,0,0,.5009-.8789.8586.8586,0,0,0-.3339-.7246,1.2466,1.2466,0,0,0-.7779-.2549,1.1531,1.1531,0,0,0-1.0942.5273,1.8293,1.8293,0,0,0-.189.8262h-.7822a2.3736,2.3736,0,0,1,.2813-1.1953,1.7732,1.7732,0,0,1,1.7006-.8789,2.3025,2.3025,0,0,1,1.49.4287,1.5056,1.5056,0,0,1,.5273,1.2412,1.3854,1.3854,0,0,1-.312.94,1.31,1.31,0,0,1-.501.3516,1.3624,1.3624,0,0,1,.7754.5254,1.5871,1.5871,0,0,1,.2793.9512,1.9389,1.9389,0,0,1-.5932,1.4677,2.34,2.34,0,0,1-1.6831.5674A1.978,1.978,0,0,1,44.9785,248.6191Z"/><path class="ab37c72a-9acf-40e0-8520-f3f83ea8211f" d="M22.4473,154.6055l1.8545,5.497,1.833-5.497h.98l-2.3555,6.455H23.832l-2.3515-6.455Z"/><path class="ab37c72a-9acf-40e0-8520-f3f83ea8211f" d="M28.51,158.9775a1.811,1.811,0,0,0,.25.8916,1.6307,1.6307,0,0,0,1.4775.6426,2.5315,2.5315,0,0,0,.8638-.1406.9906.9906,0,0,0,.7534-.9766.8523.8523,0,0,0-.3193-.7509,3.14,3.14,0,0,0-1.0132-.3819l-.8472-.1982a3.7288,3.7288,0,0,1-1.1748-.4268,1.3628,1.3628,0,0,1-.5962-1.208A1.888,1.888,0,0,1,28.4893,155a2.3142,2.3142,0,0,1,1.6591-.5576,2.823,2.823,0,0,1,1.6787.49,1.7886,1.7886,0,0,1,.6905,1.5664h-.8218a1.6655,1.6655,0,0,0-.2695-.7959,1.5368,1.5368,0,0,0-1.3018-.5049,1.4652,1.4652,0,0,0-1.0664.3252,1.0377,1.0377,0,0,0-.3242.7559.7428.7428,0,0,0,.3833.6943,5.4914,5.4914,0,0,0,1.1367.3516l.877.206a2.6433,2.6433,0,0,1,.9795.4092,1.5483,1.5483,0,0,1,.5961,1.3135,1.6525,1.6525,0,0,1-.7607,1.5342,3.3417,3.3417,0,0,1-1.7681.4619,2.6017,2.6017,0,0,1-1.8383-.6152,2.1041,2.1041,0,0,1-.6514-1.6573Z"/><path class="ab37c72a-9acf-40e0-8520-f3f83ea8211f" d="M33.873,159.6455a2.7229,2.7229,0,0,1,1.1407-1.0947l.8437-.4873a3.926,3.926,0,0,0,.7954-.5635,1.156,1.156,0,0,0,.36-.8359,1.1692,1.1692,0,0,0-.33-.8741,1.2,1.2,0,0,0-.8789-.3232,1.1467,1.1467,0,0,0-1.125.6172,2.2091,2.2091,0,0,0-.1846.916h-.8042a2.8231,2.8231,0,0,1,.3032-1.34,1.9031,1.9031,0,0,1,1.815-.9141,1.8668,1.8668,0,0,1,2.0786,1.8848,1.7688,1.7688,0,0,1-.5317,1.292,5.2072,5.2072,0,0,1-1.1031.7558l-.602.334a3.9642,3.9642,0,0,0-.6768.4521,1.6545,1.6545,0,0,0-.5537.8487h3.4365v.747h-4.32A3.671,3.671,0,0,1,33.873,159.6455Z"/><path class="ab37c72a-9acf-40e0-8520-f3f83ea8211f" d="M278.0732,49.939h.8047v.8964h-.8047Zm0,1.771h.8047v4.6845h-.8047Z"/><path class="ab37c72a-9acf-40e0-8520-f3f83ea8211f" d="M280.749,54.3115a1.8049,1.8049,0,0,0,.25.8921,1.63,1.63,0,0,0,1.4776.6416,2.53,2.53,0,0,0,.8632-.1406.9905.9905,0,0,0,.754-.9756.8535.8535,0,0,0-.3194-.7515,3.1667,3.1667,0,0,0-1.0137-.3823l-.8466-.1977a3.769,3.769,0,0,1-1.1758-.4263,1.3631,1.3631,0,0,1-.5957-1.2085,1.8857,1.8857,0,0,1,.5859-1.4282,2.31,2.31,0,0,1,1.6592-.5581,2.828,2.828,0,0,1,1.6787.49,1.788,1.788,0,0,1,.69,1.5664h-.8213a1.6688,1.6688,0,0,0-.27-.7954,1.532,1.532,0,0,0-1.3017-.5054,1.4623,1.4623,0,0,0-1.0654.3252,1.0368,1.0368,0,0,0-.3252.7559.7424.7424,0,0,0,.3837.6943,5.469,5.469,0,0,0,1.1368.3516l.8769.2065a2.6411,2.6411,0,0,1,.98.4087,1.5487,1.5487,0,0,1,.5957,1.314,1.652,1.652,0,0,1-.76,1.5337,3.3441,3.3441,0,0,1-1.7685.4614,2.6008,2.6008,0,0,1-1.8379-.6152,2.0971,2.0971,0,0,1-.6514-1.6568Z"/><path class="ab37c72a-9acf-40e0-8520-f3f83ea8211f" d="M286.1807,49.939h1.03l3.22,5.2158V49.939h.8339v6.4555h-.9824l-3.2666-5.2094v5.2094h-.8349Z"/><path class="ab37c72a-9acf-40e0-8520-f3f83ea8211f" d="M293.251,54.3115a1.8029,1.8029,0,0,0,.25.8921,1.63,1.63,0,0,0,1.4775.6416,2.5306,2.5306,0,0,0,.8633-.1406.99.99,0,0,0,.7539-.9756.8534.8534,0,0,0-.3193-.7515,3.1677,3.1677,0,0,0-1.0137-.3823l-.8467-.1977a3.769,3.769,0,0,1-1.1758-.4263,1.3633,1.3633,0,0,1-.5957-1.2085,1.8854,1.8854,0,0,1,.586-1.4282,2.31,2.31,0,0,1,1.6591-.5581,2.8283,2.8283,0,0,1,1.6788.49,1.7882,1.7882,0,0,1,.69,1.5664h-.8213a1.67,1.67,0,0,0-.2705-.7954,1.5323,1.5323,0,0,0-1.3018-.5054,1.4625,1.4625,0,0,0-1.0654.3252,1.0368,1.0368,0,0,0-.3252.7559.7423.7423,0,0,0,.3838.6943,5.47,5.47,0,0,0,1.1367.3516l.877.2065a2.6419,2.6419,0,0,1,.98.4087,1.549,1.549,0,0,1,.5957,1.314,1.6522,1.6522,0,0,1-.76,1.5337,3.3445,3.3445,0,0,1-1.7686.4614,2.6,2.6,0,0,1-1.8378-.6152,2.0968,2.0968,0,0,1-.6514-1.6568Z"/><path class="ab37c72a-9acf-40e0-8520-f3f83ea8211f" d="M301.7549,54.3115a1.8029,1.8029,0,0,0,.25.8921,1.63,1.63,0,0,0,1.4775.6416,2.53,2.53,0,0,0,.8633-.1406.99.99,0,0,0,.7539-.9756.8534.8534,0,0,0-.3193-.7515,3.1667,3.1667,0,0,0-1.0137-.3823l-.8467-.1977a3.769,3.769,0,0,1-1.1758-.4263,1.3633,1.3633,0,0,1-.5957-1.2085,1.8858,1.8858,0,0,1,.586-1.4282,2.31,2.31,0,0,1,1.6592-.5581,2.8282,2.8282,0,0,1,1.6787.49,1.7882,1.7882,0,0,1,.69,1.5664h-.8213a1.67,1.67,0,0,0-.27-.7954,1.5323,1.5323,0,0,0-1.3018-.5054,1.4625,1.4625,0,0,0-1.0654.3252,1.0368,1.0368,0,0,0-.3252.7559.7423.7423,0,0,0,.3838.6943,5.47,5.47,0,0,0,1.1367.3516l.877.2065a2.6419,2.6419,0,0,1,.98.4087,1.549,1.549,0,0,1,.5957,1.314,1.6522,1.6522,0,0,1-.76,1.5337,3.3443,3.3443,0,0,1-1.7685.4614,2.6,2.6,0,0,1-1.8379-.6152,2.0968,2.0968,0,0,1-.6514-1.6568Z"/><path class="ab37c72a-9acf-40e0-8520-f3f83ea8211f" d="M309.9883,51.8174a1.7871,1.7871,0,0,1,.7119.6089,2.1121,2.1121,0,0,1,.3144.8305,5.43,5.43,0,0,1,.07,1.0371h-3.4239a2.0366,2.0366,0,0,0,.336,1.1524,1.1181,1.1181,0,0,0,.9717.4341,1.2489,1.2489,0,0,0,.9814-.4107,1.4054,1.4054,0,0,0,.291-.5517h.7774a1.6508,1.6508,0,0,1-.2041.5781,2.0909,2.0909,0,0,1-.3877.52,1.8233,1.8233,0,0,1-.8848.4746,2.6767,2.6767,0,0,1-.6416.07,1.9625,1.9625,0,0,1-1.4805-.64,2.4977,2.4977,0,0,1-.6064-1.7906,2.7129,2.7129,0,0,1,.6113-1.8413,2.0113,2.0113,0,0,1,1.5986-.7075A2.13,2.13,0,0,1,309.9883,51.8174Zm.2832,1.8481a2.0659,2.0659,0,0,0-.2227-.8217,1.1358,1.1358,0,0,0-1.0761-.5713,1.1883,1.1883,0,0,0-.9063.3935,1.4924,1.4924,0,0,0-.3877,1Z"/><path class="ab37c72a-9acf-40e0-8520-f3f83ea8211f" d="M312.1074,51.688h.752v.813a1.79,1.79,0,0,1,.4531-.5781,1.1726,1.1726,0,0,1,.83-.34c.0146,0,.039.0015.0742.0044s.0957.0088.1807.0176v.835a1.1629,1.1629,0,0,0-.13-.0176c-.0391-.003-.083-.0044-.1289-.0044a1.13,1.13,0,0,0-.919.3843,1.3444,1.3444,0,0,0-.3213.8857v2.707h-.791Z"/><path class="ab37c72a-9acf-40e0-8520-f3f83ea8211f" d="M315.4717,51.688l1.2568,3.832,1.31-3.832h.8662l-1.7725,4.7065h-.8427l-1.7354-4.7065Z"/><path class="ab37c72a-9acf-40e0-8520-f3f83ea8211f" d="M322.49,51.8174a1.7858,1.7858,0,0,1,.7119.6089,2.1107,2.1107,0,0,1,.3145.8305,5.4322,5.4322,0,0,1,.07,1.0371h-3.4238a2.0358,2.0358,0,0,0,.3359,1.1524,1.1181,1.1181,0,0,0,.9717.4341,1.2488,1.2488,0,0,0,.9814-.4107,1.4056,1.4056,0,0,0,.2911-.5517h.7773a1.6488,1.6488,0,0,1-.2041.5781,2.0861,2.0861,0,0,1-.3877.52,1.8233,1.8233,0,0,1-.8848.4746,2.6761,2.6761,0,0,1-.6416.07,1.9623,1.9623,0,0,1-1.48-.64,2.4977,2.4977,0,0,1-.6065-1.7906,2.713,2.713,0,0,1,.6114-1.8413,2.0113,2.0113,0,0,1,1.5986-.7075A2.1294,2.1294,0,0,1,322.49,51.8174Zm.2832,1.8481a2.066,2.066,0,0,0-.2226-.8217,1.1361,1.1361,0,0,0-1.0762-.5713,1.1882,1.1882,0,0,0-.9062.3935,1.4914,1.4914,0,0,0-.3877,1Z"/><path class="ab37c72a-9acf-40e0-8520-f3f83ea8211f" d="M324.6094,51.688h.7519v.813a1.7905,1.7905,0,0,1,.4532-.5781,1.1724,1.1724,0,0,1,.83-.34c.0147,0,.0391.0015.0743.0044s.0957.0088.1806.0176v.835a1.16,1.16,0,0,0-.13-.0176c-.039-.003-.083-.0044-.1289-.0044a1.13,1.13,0,0,0-.9189.3843,1.3438,1.3438,0,0,0-.3213.8857v2.707h-.791Z"/><path class="ab37c72a-9acf-40e0-8520-f3f83ea8211f" d="M279.6113,179.94h.8838v2.6669h3.3174V179.94h.8838v6.455h-.8838V183.375h-3.3174v3.0195h-.8838Z"/><path class="ab37c72a-9acf-40e0-8520-f3f83ea8211f" d="M289.3945,182.1582a2.3731,2.3731,0,0,1,.6241,1.7822,3.0746,3.0746,0,0,1-.55,1.8789,1.9825,1.9825,0,0,1-1.7061.7422,1.9221,1.9221,0,0,1-1.5322-.6562,2.6037,2.6037,0,0,1-.5664-1.7627,2.8187,2.8187,0,0,1,.5976-1.8887,2.0016,2.0016,0,0,1,1.6055-.7021A2.1078,2.1078,0,0,1,289.3945,182.1582Zm-.4912,3.127a2.9882,2.9882,0,0,0,.2891-1.3223,2.3742,2.3742,0,0,0-.209-1.0723,1.1719,1.1719,0,0,0-1.1377-.6484,1.1181,1.1181,0,0,0-1.043.5527,2.5807,2.5807,0,0,0-.3261,1.334,2.2432,2.2432,0,0,0,.3261,1.251,1.1447,1.1447,0,0,0,1.0342.501A1.0767,1.0767,0,0,0,288.9033,185.2852Z"/><path class="ab37c72a-9acf-40e0-8520-f3f83ea8211f" d="M291.4609,184.918a1.1343,1.1343,0,0,0,.2012.6064,1.2826,1.2826,0,0,0,1.0586.3818,1.5887,1.5887,0,0,0,.7891-.19.6339.6339,0,0,0,.3418-.5908.5047.5047,0,0,0-.2735-.4619,3.1861,3.1861,0,0,0-.6875-.2236l-.6386-.1583a3.1458,3.1458,0,0,1-.9014-.3339.9967.9967,0,0,1-.5186-.8887,1.3462,1.3462,0,0,1,.4873-1.08,1.9638,1.9638,0,0,1,1.3116-.414,1.8323,1.8323,0,0,1,1.5546.625,1.3372,1.3372,0,0,1,.2891.8515h-.7461a.8966.8966,0,0,0-.1943-.4844,1.2534,1.2534,0,0,0-.9668-.31,1.18,1.18,0,0,0-.6953.1709.531.531,0,0,0-.2354.45.5522.5522,0,0,0,.31.4912,1.8658,1.8658,0,0,0,.5283.1924l.5332.1279a4.1772,4.1772,0,0,1,1.1641.3994,1.06,1.06,0,0,1,.4609.9541,1.4421,1.4421,0,0,1-.4824,1.085,2.07,2.07,0,0,1-1.4707.457,1.9858,1.9858,0,0,1-1.5059-.4765,1.79,1.79,0,0,1-.4736-1.18Z"/><path class="ab37c72a-9acf-40e0-8520-f3f83ea8211f" d="M295.6484,180.374h.8v1.3135h.751v.6465h-.751v3.0722a.3318.3318,0,0,0,.167.3292.7123.7123,0,0,0,.3077.0478c.038,0,.0791,0,.123-.002s.0947-.0078.1533-.0156v.6289a1.7466,1.7466,0,0,1-.2832.0567,2.6874,2.6874,0,0,1-.3183.0176.8594.8594,0,0,1-.752-.2833,1.2637,1.2637,0,0,1-.1973-.7363V182.334h-.6367v-.6465h.6367Z"/><path class="ab37c72a-9acf-40e0-8520-f3f83ea8211f" d="M301.9873,179.94h.9873l2.3428,6.455h-.958l-.6739-1.9336h-2.5322l-.7,1.9336h-.8965Zm1.45,3.8095-.9941-2.8525-1.0323,2.8525Z"/><line class="b213520a-0bbf-4d57-a360-b74cb712edee" x1="152.0835" y1="52.2564" x2="252.583" y2="52.2564"/><polygon class="ab37c72a-9acf-40e0-8520-f3f83ea8211f" points="247.083 52.255 247.083 49.453 252.75 50.854 258.416 52.255 252.75 53.656 247.083 55.057 247.083 52.255"/></g></svg>