<?xml version="1.0" encoding="utf-8"?>
<!-- Generator: Adobe Illustrator 19.1.0, SVG Export Plug-In . SVG Version: 6.00 Build 0)  -->
<svg version="1.1" xmlns="http://www.w3.org/2000/svg" xmlns:xlink="http://www.w3.org/1999/xlink" x="0px" y="0px" width="354px"
	 height="85px" viewBox="0 0 354 85" style="enable-background:new 0 0 354 85;" xml:space="preserve">
<style type="text/css">
	.st0{fill:#626366;stroke:#000000;stroke-width:0.5;stroke-linecap:round;stroke-linejoin:round;}
	.st1{fill:#FFFFFF;stroke:#000000;stroke-width:0.5;stroke-linecap:round;stroke-linejoin:round;}
	.st2{fill:none;}
	.st3{font-family:'Helvetica';}
	.st4{font-size:9px;}
	.st5{fill:#FFFFFF;stroke:#000100;stroke-width:0.5;stroke-linecap:round;stroke-linejoin:round;}
	.st6{fill:#000100;stroke:#000100;stroke-width:0.5;stroke-linecap:round;stroke-linejoin:round;}
</style>
<g id="objects">
	<g>
		<g>
			<path class="st0" d="M346.5,28v41.1c0,5.9-10.5,10.6-23.4,10.6c-12.9,0-23.4-4.8-23.4-10.6V28H346.5z"/>
			<ellipse class="st0" cx="323.1" cy="28" rx="23.4" ry="10.6"/>
		</g>
		<path class="st1" d="M346.5,28v41.1c0,5.9-10.5,10.6-23.4,10.6c-12.9,0-23.4-4.8-23.4-10.6V28H346.5z"/>
		<ellipse class="st1" cx="323.1" cy="28" rx="23.4" ry="10.6"/>
	</g>
	<rect x="193.8" y="17.2" class="st1" width="49.2" height="62.6"/>
	<rect x="97.7" y="17.2" class="st1" width="49.2" height="62.6"/>
	<rect x="5.7" y="17.2" class="st1" width="49.2" height="62.6"/>
</g>
<g id="text">
	<rect x="12" y="6" class="st2" width="37" height="11"/>
	<text transform="matrix(1 0 0 1 19.4917 12.4707)" class="st3 st4">host1</text>
	<rect x="103.5" y="6" class="st2" width="37" height="11"/>
	<text transform="matrix(1 0 0 1 105.7402 12.4707)" class="st3 st4">portset1</text>
	<rect x="203" y="6" class="st2" width="32" height="11"/>
	<text transform="matrix(1 0 0 1 203.9883 12.4707)" class="st3 st4">igroup1</text>
	<rect x="309" y="6.5" class="st2" width="27.5" height="11"/>
	<text transform="matrix(1 0 0 1 311.2451 12.9707)" class="st3 st4">LUN1</text>
	<rect x="281" y="32.5" class="st2" width="27.5" height="11"/>
	<text transform="matrix(1 0 0 1 281 38.9707)" class="st3 st4">LIF1</text>
	<rect x="108" y="32.5" class="st2" width="27.5" height="11"/>
	<text transform="matrix(1 0 0 1 112.7456 38.9707)" class="st3 st4">LIF1</text>
	<rect x="280" y="58" class="st2" width="27.5" height="11"/>
	<text transform="matrix(1 0 0 1 280 64.4707)" class="st3 st4">LIF2</text>
	<rect x="200" y="32.5" class="st2" width="37" height="11"/>
	<text transform="matrix(1 0 0 1 207.4917 38.9707)" class="st3 st4">host1</text>
</g>
<g id="arrows">
	<line class="st5" x1="55.2" y1="36.6" x2="91.7" y2="36.6"/>
	<polygon class="st6" points="97.3,36.4 92.9,37.7 88.5,39 88.5,36.4 88.5,33.8 92.9,35.1 	"/>
	<line class="st5" x1="147" y1="36.6" x2="185.9" y2="36.6"/>
	<polygon class="st6" points="193.8,36.4 189.4,37.7 185,39 185,36.4 185,33.8 189.4,35.1 	"/>
	<line class="st5" x1="243" y1="36.6" x2="270.4" y2="36.6"/>
	<polygon class="st6" points="279.6,36.4 275.2,37.7 270.8,39 270.8,36.4 270.8,33.8 275.2,35.1 	"/>
</g>
</svg>
