<?xml version="1.0" encoding="UTF-8"?><!-- Generator: Adobe Illustrator 12.0.0, SVG Export Plug-In . SVG Version: 6.00 Build 51448)  --><!DOCTYPE svg PUBLIC "-//W3C//DTD SVG 1.1//EN" "http://www.w3.org/Graphics/SVG/1.1/DTD/svg11.dtd">
<svg xmlns="http://www.w3.org/2000/svg" xmlns:xlink="http://www.w3.org/1999/xlink" version="1.1" width="221.153" height="281.957" viewBox="0 0 221.153 281.957" overflow="visible" enable-background="new 0 0 221.153 281.957" xml:space="preserve" preserveAspectRatio="xMidYMid meet" zoomAndPan="magnify" contentScriptType="application/ecmascript" contentStyleType="text/css">
<g id="lines_3_">
	<polyline fill="none" stroke="#000000" stroke-width="0.5" stroke-linecap="round" stroke-linejoin="round" points="63.653,38.42    98.653,137.92 162.153,189.42 197.153,209.92  "/>
	<polyline fill="none" stroke="#000000" stroke-width="0.5" stroke-linecap="round" stroke-linejoin="round" points="   155.153,234.42 162.153,189.42 171.653,216.92  "/>
	<polyline fill="#FFFFFF" stroke="#000100" stroke-width="0.5" stroke-linecap="round" stroke-linejoin="round" points="   62.903,162.42 98.653,137.92 98.653,166.67  "/>
</g>
<g id="shapes">
	<g>
		<g>
			<path fill="#636467" stroke="#000100" stroke-width="0.5" stroke-linecap="round" stroke-linejoin="round" d="M86.538,7.72     v28.914c0,4.125-10.944,7.468-24.444,7.468c-13.5,0-24.443-3.344-24.443-7.468V7.72H86.538z"/>
			
				<ellipse fill="#636467" stroke="#000100" stroke-width="0.5" stroke-linecap="round" stroke-linejoin="round" cx="62.094" cy="7.72" rx="24.444" ry="7.469"/>
		</g>
		<path fill="#FFFFFF" stroke="#000100" stroke-width="0.5" stroke-linecap="round" stroke-linejoin="round" d="M86.538,7.72v28.914    c0,4.125-10.944,7.468-24.444,7.468c-13.5,0-24.443-3.344-24.443-7.468V7.72H86.538z"/>
		
			<ellipse fill="#FFFFFF" stroke="#000100" stroke-width="0.5" stroke-linecap="round" stroke-linejoin="round" cx="62.094" cy="7.72" rx="24.444" ry="7.469"/>
	</g>
	<g>
		<g>
			<path fill="#636467" stroke="#000100" stroke-width="0.5" stroke-linecap="round" stroke-linejoin="round" d="M109.797,65.978     v28.914c0,4.125-10.944,7.469-24.444,7.469c-13.5,0-24.444-3.344-24.444-7.469V65.978H109.797z"/>
			
				<ellipse fill="#636467" stroke="#000100" stroke-width="0.5" stroke-linecap="round" stroke-linejoin="round" cx="85.353" cy="65.978" rx="24.444" ry="7.47"/>
		</g>
		<path fill="#FFFFFF" stroke="#000100" stroke-width="0.5" stroke-linecap="round" stroke-linejoin="round" d="M109.797,65.978    v28.914c0,4.125-10.944,7.469-24.444,7.469c-13.5,0-24.444-3.344-24.444-7.469V65.978H109.797z"/>
		
			<ellipse fill="#FFFFFF" stroke="#000100" stroke-width="0.5" stroke-linecap="round" stroke-linejoin="round" cx="85.353" cy="65.978" rx="24.444" ry="7.47"/>
	</g>
	<g>
		<polyline fill="#FFFFFF" stroke="#000100" stroke-width="0.5" stroke-linecap="round" stroke-linejoin="round" points="    89.163,200.372 81.838,210.981 50.796,210.981 50.796,159.393 89.163,159.393 89.037,200.303 82.073,200.442 81.838,210.981   "/>
	</g>
	<g>
		<polyline fill="#FFFFFF" stroke="#000100" stroke-width="0.5" stroke-linecap="round" stroke-linejoin="round" points="    134.469,200.372 127.144,210.981 96.102,210.981 96.102,159.393 134.469,159.393 134.343,200.303 127.379,200.442     127.144,210.981   "/>
	</g>
	<g>
		<polyline fill="#FFFFFF" stroke="#000100" stroke-width="0.5" stroke-linecap="round" stroke-linejoin="round" points="    186.653,271.098 179.328,281.707 148.286,281.707 148.286,230.119 186.653,230.119 186.527,271.028 179.563,271.168     179.328,281.707   "/>
	</g>
	<rect x="92.153" y="15.92" fill="none" width="71.5" height="12.5"/>
	<text transform="matrix(1 0 0 1 92.1528 22.3818)" font-family="'Helvetica'" font-size="9">/   (vs1_rootvol)</text>
	<rect x="115.653" y="78.42" fill="none" width="105.5" height="12.5"/>
	<text transform="matrix(1 0 0 1 115.6528 84.8818)" font-family="'Helvetica'" font-size="9">/hyperv/vm1 (vm_vol1)</text>
	<rect x="111.153" y="129.42" fill="none" width="49" height="12.5"/>
	<text transform="matrix(1 0 0 1 111.1528 135.8818)" font-family="'Helvetica'" font-size="9">dir1/vmdir</text>
	<rect x="0.153" y="131.42" fill="none" width="52.5" height="12.5"/>
	<text transform="matrix(1 0 0 1 0.1528 137.8818)" font-family="'Helvetica'" font-size="9">\\vs1\share1</text>
	<rect x="57.653" y="177.42" fill="none" width="24.5" height="18.5"/>
	<text transform="matrix(1 0 0 1 57.6528 183.8818)" font-family="'Helvetica'" font-size="9">vhd 1</text>
	<rect x="104.653" y="176.92" fill="none" width="24.5" height="18.5"/>
	<text transform="matrix(1 0 0 1 104.6528 183.3818)" font-family="'Helvetica'" font-size="9">vhd 2</text>
	<rect x="160.153" y="251.92" fill="none" width="24.5" height="18.5"/>
	<text transform="matrix(1 0 0 1 160.1528 258.3818)" font-family="'Helvetica'" font-size="9">xml</text>
	<rect x="137.653" y="177.42" fill="none" width="24.5" height="18.5"/>
	<text transform="matrix(1 0 0 1 137.6528 183.8818)" font-family="'Helvetica'" font-size="9">...</text>
	<rect x="190.653" y="248.42" fill="none" width="24.5" height="18.5"/>
	<text transform="matrix(1 0 0 1 190.6528 254.8818)" font-family="'Helvetica'" font-size="9">...</text>
	<circle cx="96.403" cy="132.67" r="5.25"/>
	<circle cx="158.903" cy="184.67" r="5.25"/>
</g>
<g id="Layer_1">
	<polygon fill="#FFFFFF" stroke="#000000" stroke-width="0.5" stroke-linecap="round" stroke-linejoin="round" points="   77.047,129.976 83.836,134.765 77.047,139.553 77.047,137.924 58.487,137.924 58.487,131.604 77.047,131.604  "/>
</g>
</svg>