<?xml version="1.0" encoding="UTF-8"?><!-- Generator: Adobe Illustrator 16.0.3, SVG Export Plug-In . SVG Version: 6.00 Build 0)  --><!DOCTYPE svg PUBLIC "-//W3C//DTD SVG 1.1//EN" "http://www.w3.org/Graphics/SVG/1.1/DTD/svg11.dtd">
<svg xmlns="http://www.w3.org/2000/svg" xmlns:xlink="http://www.w3.org/1999/xlink" version="1.1" id="Layer_1" x="0px" y="0px" width="269px" height="252px" viewBox="0 0 269 252" enable-background="new 0 0 269 252" xml:space="preserve" preserveAspectRatio="xMidYMid meet" zoomAndPan="magnify" contentScriptType="application/ecmascript" contentStyleType="text/css">
<circle fill="#999999" stroke="#000000" stroke-width="0.5" cx="80.894" cy="202.01" r="3.774"/>
<circle fill="#999999" stroke="#000000" stroke-width="0.5" cx="63.055" cy="237.273" r="3.774"/>
<circle fill="none" stroke="#000000" stroke-width="0.5" cx="81.125" cy="237.273" r="3.774"/>
<circle fill="none" stroke="#000000" stroke-width="0.5" cx="81.125" cy="237.273" r="2.265"/>
<circle stroke="#000000" stroke-width="0.5" cx="81.125" cy="237.272" r="0.944"/>
<circle fill="#999999" stroke="#000000" stroke-width="0.5" cx="53.555" cy="237.273" r="3.774"/>
<circle fill="#999999" stroke="#000000" stroke-width="0.5" cx="43.905" cy="237.273" r="3.774"/>
<circle fill="#999999" stroke="#000000" stroke-width="0.5" cx="34.405" cy="237.273" r="3.774"/>
<circle fill="#999999" stroke="#000000" stroke-width="0.5" cx="24.754" cy="237.273" r="3.774"/>
<circle fill="#999999" stroke="#000000" stroke-width="0.5" cx="15.254" cy="237.273" r="3.774"/>
<circle stroke="#000000" stroke-width="0.5" cx="71.794" cy="237.273" r="3.775"/>
<circle stroke="#000000" stroke-width="0.5" cx="80.865" cy="213.908" r="3.775"/>
<circle fill="none" stroke="#000000" stroke-width="0.5" cx="80.865" cy="225.658" r="3.775"/>
<circle fill="none" stroke="#000000" stroke-width="0.5" cx="80.865" cy="225.657" r="2.266"/>
<circle stroke="#000000" stroke-width="0.5" cx="80.865" cy="225.657" r="0.943"/>
<text transform="matrix(1 0 0 1 90.1714 192.8135)"><tspan x="0" y="0" font-family="'Helvetica'" font-size="9">Spare disk </tspan><tspan x="0" y="12" font-family="'Helvetica'" font-size="9">Data disk </tspan><tspan x="0" y="24" font-family="'Helvetica'" font-size="9">Parity disk</tspan><tspan x="0" y="36" font-family="'Helvetica'" font-size="9">dParity disk</tspan><tspan x="0" y="48" font-family="'Helvetica'" font-size="9">RAID group</tspan></text>
<rect x="6.449" y="181.677" fill="none" stroke="#000000" stroke-width="0.5499" width="145.134" height="63.957"/>
<circle fill="none" stroke="#000000" stroke-width="0.5" cx="80.67" cy="190.272" r="3.774"/>
<polygon fill="#D1D3D4" stroke="#000000" points="262.285,174.685 6.222,174.709 6.222,5.484 262.285,5.46 "/>
<path fill="#FFFFFF" stroke="#000000" d="M254.597,103.397c0,5.965-4.836,10.801-10.8,10.801H25.035  c-5.964,0-10.799-4.836-10.799-10.801V36.093c0-5.964,4.835-10.799,10.799-10.799h218.763c5.964,0,10.8,4.835,10.8,10.799V103.397z"/>
<path fill="none" stroke="#A7A9AC" stroke-width="2" stroke-dasharray="6" d="M204.689,92.077c0,5.965-4.834,10.801-10.799,10.801  h-71.491c-5.964,0-10.8-4.836-10.8-10.801V59.106c0-5.964,4.836-10.799,10.8-10.799h71.491c5.965,0,10.799,4.835,10.799,10.799  V92.077z"/>
<text transform="matrix(1 0 0 1 115.9565 18.2686)" font-family="'Helvetica'" font-size="9">Aggregate</text>
<text transform="matrix(1 0 0 1 130.9492 42.6777)" font-family="'Helvetica'" font-size="9">Plex0 (pool0)</text>
<text transform="matrix(1 0 0 1 102.3813 127.6855)" font-family="'Helvetica'" font-size="9">pool0</text>
<g>
	<g>
		<circle fill="#FFFFFF" cx="106.339" cy="134.899" r="3.775"/>
		<circle fill="#FFFFFF" cx="115.149" cy="134.899" r="3.775"/>
		<circle fill="#FFFFFF" cx="123.958" cy="134.899" r="3.774"/>
		<circle fill="#FFFFFF" cx="132.768" cy="134.899" r="3.775"/>
		<circle fill="#FFFFFF" cx="141.578" cy="134.899" r="3.774"/>
		<circle fill="#FFFFFF" cx="150.387" cy="134.899" r="3.775"/>
		<circle fill="#FFFFFF" cx="159.197" cy="134.899" r="3.774"/>
		<circle fill="#FFFFFF" cx="168.006" cy="134.899" r="3.775"/>
	</g>
	<g>
		<circle fill="#FFFFFF" cx="106.339" cy="134.899" r="3.775"/>
		<circle fill="#FFFFFF" cx="115.149" cy="134.899" r="3.775"/>
		<circle fill="#FFFFFF" cx="123.958" cy="134.899" r="3.774"/>
		<circle fill="#FFFFFF" cx="132.768" cy="134.899" r="3.775"/>
		<circle fill="#FFFFFF" cx="141.578" cy="134.899" r="3.774"/>
		<circle fill="#FFFFFF" cx="150.387" cy="134.899" r="3.775"/>
		<circle fill="#FFFFFF" cx="159.197" cy="134.899" r="3.774"/>
		<circle fill="#FFFFFF" cx="168.006" cy="134.899" r="3.775"/>
	</g>
	<g>
		<circle fill="none" stroke="#000000" stroke-width="0.5" cx="106.339" cy="134.899" r="3.775"/>
		<circle fill="none" stroke="#000000" stroke-width="0.5" cx="115.149" cy="134.899" r="3.775"/>
		<circle fill="none" stroke="#000000" stroke-width="0.5" cx="123.958" cy="134.899" r="3.774"/>
		<circle fill="none" stroke="#000000" stroke-width="0.5" cx="132.768" cy="134.899" r="3.775"/>
		<circle fill="none" stroke="#000000" stroke-width="0.5" cx="141.578" cy="134.899" r="3.774"/>
		<circle fill="none" stroke="#000000" stroke-width="0.5" cx="150.387" cy="134.899" r="3.775"/>
		<circle fill="none" stroke="#000000" stroke-width="0.5" cx="159.197" cy="134.899" r="3.774"/>
		<circle fill="none" stroke="#000000" stroke-width="0.5" cx="168.006" cy="134.899" r="3.775"/>
	</g>
</g>
<g>
	<g>
		<circle fill="#FFFFFF" cx="106.339" cy="143.97" r="3.775"/>
		<circle fill="#FFFFFF" cx="115.149" cy="143.97" r="3.775"/>
		<circle fill="#FFFFFF" cx="123.958" cy="143.97" r="3.774"/>
		<circle fill="#FFFFFF" cx="132.768" cy="143.97" r="3.775"/>
		<circle fill="#FFFFFF" cx="141.578" cy="143.97" r="3.774"/>
		<circle fill="#FFFFFF" cx="150.387" cy="143.97" r="3.775"/>
		<circle fill="#FFFFFF" cx="159.197" cy="143.97" r="3.774"/>
		<circle fill="#FFFFFF" cx="168.006" cy="143.97" r="3.775"/>
	</g>
	<g>
		<circle fill="#FFFFFF" cx="106.339" cy="143.97" r="3.775"/>
		<circle fill="#FFFFFF" cx="115.149" cy="143.97" r="3.775"/>
		<circle fill="#FFFFFF" cx="123.958" cy="143.97" r="3.774"/>
		<circle fill="#FFFFFF" cx="132.768" cy="143.97" r="3.775"/>
		<circle fill="#FFFFFF" cx="141.578" cy="143.97" r="3.774"/>
		<circle fill="#FFFFFF" cx="150.387" cy="143.97" r="3.775"/>
		<circle fill="#FFFFFF" cx="159.197" cy="143.97" r="3.774"/>
		<circle fill="#FFFFFF" cx="168.006" cy="143.97" r="3.775"/>
	</g>
	<g>
		<circle fill="none" stroke="#000000" stroke-width="0.5" cx="106.339" cy="143.97" r="3.775"/>
		<circle fill="none" stroke="#000000" stroke-width="0.5" cx="115.149" cy="143.97" r="3.775"/>
		<circle fill="none" stroke="#000000" stroke-width="0.5" cx="123.958" cy="143.97" r="3.774"/>
		<circle fill="none" stroke="#000000" stroke-width="0.5" cx="132.768" cy="143.97" r="3.775"/>
		<circle fill="none" stroke="#000000" stroke-width="0.5" cx="141.578" cy="143.97" r="3.774"/>
		<circle fill="none" stroke="#000000" stroke-width="0.5" cx="150.387" cy="143.97" r="3.775"/>
		<circle fill="none" stroke="#000000" stroke-width="0.5" cx="159.197" cy="143.97" r="3.774"/>
		<circle fill="none" stroke="#000000" stroke-width="0.5" cx="168.006" cy="143.97" r="3.775"/>
	</g>
</g>
<circle fill="#999999" stroke="#000000" stroke-width="0.5" cx="127.361" cy="60.52" r="3.775"/>
<circle fill="#999999" stroke="#000000" stroke-width="0.5" cx="136.171" cy="60.52" r="3.775"/>
<circle fill="#999999" stroke="#000000" stroke-width="0.5" cx="144.981" cy="60.52" r="3.774"/>
<circle fill="#999999" stroke="#000000" stroke-width="0.5" cx="153.791" cy="60.52" r="3.775"/>
<circle fill="#999999" stroke="#000000" stroke-width="0.5" cx="162.6" cy="60.52" r="3.774"/>
<circle fill="#999999" stroke="#000000" stroke-width="0.5" cx="171.41" cy="60.52" r="3.775"/>
<circle fill="none" stroke="#000000" stroke-width="0.5" cx="190.295" cy="60.52" r="3.774"/>
<circle fill="none" stroke="#000000" stroke-width="0.5" cx="190.295" cy="60.519" r="2.265"/>
<circle stroke="#000000" stroke-width="0.5" cx="190.294" cy="60.519" r="0.943"/>
<circle stroke="#000000" stroke-width="0.5" cx="180.966" cy="60.52" r="3.775"/>
<circle fill="#999999" stroke="#000000" stroke-width="0.5" cx="127.361" cy="71.008" r="3.775"/>
<circle fill="#999999" stroke="#000000" stroke-width="0.5" cx="136.171" cy="71.008" r="3.775"/>
<circle fill="#999999" stroke="#000000" stroke-width="0.5" cx="144.981" cy="71.008" r="3.774"/>
<circle fill="#999999" stroke="#000000" stroke-width="0.5" cx="153.791" cy="71.008" r="3.775"/>
<circle fill="#999999" stroke="#000000" stroke-width="0.5" cx="162.6" cy="71.008" r="3.774"/>
<circle fill="#999999" stroke="#000000" stroke-width="0.5" cx="171.41" cy="71.008" r="3.775"/>
<circle fill="none" stroke="#000000" stroke-width="0.5" cx="190.295" cy="71.008" r="3.774"/>
<circle stroke="#000000" stroke-width="0.5" cx="190.294" cy="71.007" r="0.943"/>
<circle fill="none" stroke="#000000" stroke-width="0.5" cx="190.295" cy="71.007" r="2.265"/>
<circle stroke="#000000" stroke-width="0.5" cx="180.966" cy="71.008" r="3.775"/>
<circle fill="#999999" stroke="#000000" stroke-width="0.5" cx="127.361" cy="81.496" r="3.775"/>
<circle fill="#999999" stroke="#000000" stroke-width="0.5" cx="136.171" cy="81.496" r="3.775"/>
<circle fill="#999999" stroke="#000000" stroke-width="0.5" cx="144.981" cy="81.496" r="3.774"/>
<circle fill="#999999" stroke="#000000" stroke-width="0.5" cx="153.791" cy="81.496" r="3.775"/>
<circle fill="#999999" stroke="#000000" stroke-width="0.5" cx="162.6" cy="81.496" r="3.774"/>
<circle fill="#999999" stroke="#000000" stroke-width="0.5" cx="171.41" cy="81.496" r="3.775"/>
<circle fill="none" stroke="#000000" stroke-width="0.5" cx="190.295" cy="81.496" r="3.774"/>
<circle stroke="#000000" stroke-width="0.5" cx="190.294" cy="81.495" r="0.943"/>
<circle fill="none" stroke="#000000" stroke-width="0.5" cx="190.295" cy="81.495" r="2.265"/>
<circle stroke="#000000" stroke-width="0.5" cx="180.966" cy="81.496" r="3.775"/>
<circle fill="#999999" stroke="#000000" stroke-width="0.5" cx="127.361" cy="91.574" r="3.775"/>
<circle fill="#999999" stroke="#000000" stroke-width="0.5" cx="136.171" cy="91.574" r="3.775"/>
<circle fill="#999999" stroke="#000000" stroke-width="0.5" cx="144.981" cy="91.574" r="3.774"/>
<circle fill="#999999" stroke="#000000" stroke-width="0.5" cx="153.791" cy="91.574" r="3.775"/>
<circle fill="#999999" stroke="#000000" stroke-width="0.5" cx="162.6" cy="91.574" r="3.774"/>
<circle fill="#999999" stroke="#000000" stroke-width="0.5" cx="171.41" cy="91.574" r="3.775"/>
<circle fill="none" stroke="#000000" stroke-width="0.5" cx="190.295" cy="91.574" r="3.774"/>
<circle stroke="#000000" stroke-width="0.5" cx="190.294" cy="91.573" r="0.943"/>
<circle fill="none" stroke="#000000" stroke-width="0.5" cx="190.295" cy="91.573" r="2.265"/>
<circle stroke="#000000" stroke-width="0.5" cx="180.966" cy="91.574" r="3.775"/>
<text transform="matrix(1 0 0 1 69.4419 62.9336)"><tspan x="0" y="0" font-family="'Helvetica'" font-size="9">rg0 </tspan><tspan x="0" y="11" font-family="'Helvetica'" font-size="9">rg1 </tspan><tspan x="0" y="22" font-family="'Helvetica'" font-size="9">rg2 </tspan><tspan x="0" y="33" font-family="'Helvetica'" font-size="9">rg3</tspan></text>
<g>
	
		<line fill="none" stroke="#FFFFFF" stroke-width="3" stroke-linecap="round" stroke-linejoin="round" x1="84.318" y1="60.446" x2="120.164" y2="60.446"/>
	
		<line fill="none" stroke="#000000" stroke-width="0.5" stroke-linecap="round" stroke-linejoin="round" x1="84.318" y1="60.446" x2="120.164" y2="60.446"/>
</g>
<g>
	
		<line fill="none" stroke="#FFFFFF" stroke-width="3" stroke-linecap="round" stroke-linejoin="round" x1="84.318" y1="71.446" x2="120.164" y2="71.446"/>
	
		<line fill="none" stroke="#000000" stroke-width="0.5" stroke-linecap="round" stroke-linejoin="round" x1="84.318" y1="71.446" x2="120.164" y2="71.446"/>
</g>
<g>
	
		<line fill="none" stroke="#FFFFFF" stroke-width="3" stroke-linecap="round" stroke-linejoin="round" x1="84.318" y1="82.446" x2="120.164" y2="82.446"/>
	
		<line fill="none" stroke="#000000" stroke-width="0.5" stroke-linecap="round" stroke-linejoin="round" x1="84.318" y1="82.446" x2="120.164" y2="82.446"/>
</g>
<g>
	
		<line fill="none" stroke="#FFFFFF" stroke-width="3" stroke-linecap="round" stroke-linejoin="round" x1="84.318" y1="92.438" x2="120.164" y2="92.438"/>
	
		<line fill="none" stroke="#000000" stroke-width="0.5" stroke-linecap="round" stroke-linejoin="round" x1="84.318" y1="92.438" x2="120.164" y2="92.438"/>
</g>
<text transform="matrix(1 0 0 1 9.75 192.5381)" font-family="'Helvetica'" font-size="9">Legend</text>
<polyline fill="none" stroke="#000000" stroke-width="0.5499" points="6.054,198.273 45.054,198.273 45.054,181.273 "/>
</svg>