<?xml version="1.0" encoding="UTF-8" standalone="no"?>
<!-- Generator: Adobe Illustrator 16.0.3, SVG Export Plug-In . SVG Version: 6.00 Build 0)  -->

<svg
   version="1.1"
   id="Layer_1"
   x="0px"
   y="0px"
   width="269px"
   height="252px"
   viewBox="0 0 269 252"
   enable-background="new 0 0 269 252"
   xml:space="preserve"
   preserveAspectRatio="xMidYMid meet"
   zoomAndPan="magnify"
   contentScriptType="application/ecmascript"
   contentStyleType="text/css"
   sodipodi:docname="drw-plexum-scrn-en-noscale.svg"
   inkscape:version="1.1.2 (b8e25be833, 2022-02-05)"
   xmlns:inkscape="http://www.inkscape.org/namespaces/inkscape"
   xmlns:sodipodi="http://sodipodi.sourceforge.net/DTD/sodipodi-0.dtd"
   xmlns="http://www.w3.org/2000/svg"
   xmlns:svg="http://www.w3.org/2000/svg"><defs
   id="defs293" /><sodipodi:namedview
   id="namedview291"
   pagecolor="#ffffff"
   bordercolor="#666666"
   borderopacity="1.0"
   inkscape:pageshadow="2"
   inkscape:pageopacity="0.0"
   inkscape:pagecheckerboard="0"
   showgrid="false"
   inkscape:zoom="3.1031746"
   inkscape:cx="134.53964"
   inkscape:cy="126"
   inkscape:window-width="1920"
   inkscape:window-height="986"
   inkscape:window-x="-11"
   inkscape:window-y="-11"
   inkscape:window-maximized="1"
   inkscape:current-layer="Layer_1" />
<circle
   fill="#999999"
   stroke="#000000"
   stroke-width="0.5"
   cx="80.894"
   cy="202.01"
   r="3.774"
   id="circle2" />
<circle
   fill="#999999"
   stroke="#000000"
   stroke-width="0.5"
   cx="63.055"
   cy="237.273"
   r="3.774"
   id="circle4" />
<circle
   fill="none"
   stroke="#000000"
   stroke-width="0.5"
   cx="81.125"
   cy="237.273"
   r="3.774"
   id="circle6" />
<circle
   fill="none"
   stroke="#000000"
   stroke-width="0.5"
   cx="81.125"
   cy="237.273"
   r="2.265"
   id="circle8" />
<circle
   stroke="#000000"
   stroke-width="0.5"
   cx="81.125"
   cy="237.272"
   r="0.944"
   id="circle10" />
<circle
   fill="#999999"
   stroke="#000000"
   stroke-width="0.5"
   cx="53.555"
   cy="237.273"
   r="3.774"
   id="circle12" />
<circle
   fill="#999999"
   stroke="#000000"
   stroke-width="0.5"
   cx="43.905"
   cy="237.273"
   r="3.774"
   id="circle14" />
<circle
   fill="#999999"
   stroke="#000000"
   stroke-width="0.5"
   cx="34.405"
   cy="237.273"
   r="3.774"
   id="circle16" />
<circle
   fill="#999999"
   stroke="#000000"
   stroke-width="0.5"
   cx="24.754"
   cy="237.273"
   r="3.774"
   id="circle18" />
<circle
   fill="#999999"
   stroke="#000000"
   stroke-width="0.5"
   cx="15.254"
   cy="237.273"
   r="3.774"
   id="circle20" />
<circle
   stroke="#000000"
   stroke-width="0.5"
   cx="71.794"
   cy="237.273"
   r="3.775"
   id="circle22" />
<circle
   stroke="#000000"
   stroke-width="0.5"
   cx="80.865"
   cy="213.908"
   r="3.775"
   id="circle24" />
<circle
   fill="none"
   stroke="#000000"
   stroke-width="0.5"
   cx="80.865"
   cy="225.658"
   r="3.775"
   id="circle26" />
<circle
   fill="none"
   stroke="#000000"
   stroke-width="0.5"
   cx="80.865"
   cy="225.657"
   r="2.266"
   id="circle28" />
<circle
   stroke="#000000"
   stroke-width="0.5"
   cx="80.865"
   cy="225.657"
   r="0.943"
   id="circle30" />
<text
   transform="matrix(1 0 0 1 90.1714 192.8135)"
   id="text42"><tspan
     x="0"
     y="0"
     font-family="'Helvetica'"
     font-size="9"
     id="tspan32">Spare disk </tspan><tspan
     x="0"
     y="12"
     font-family="'Helvetica'"
     font-size="9"
     id="tspan34">Data disk </tspan><tspan
     x="0"
     y="24"
     font-family="'Helvetica'"
     font-size="9"
     id="tspan36">Parity disk</tspan><tspan
     x="0"
     y="36"
     font-family="'Helvetica'"
     font-size="9"
     id="tspan38">dParity disk</tspan><tspan
     x="0"
     y="48"
     font-family="'Helvetica'"
     font-size="9"
     id="tspan40">RAID group</tspan></text>
<rect
   x="6.449"
   y="181.677"
   fill="none"
   stroke="#000000"
   stroke-width="0.5499"
   width="145.134"
   height="63.957"
   id="rect44" />
<circle
   fill="none"
   stroke="#000000"
   stroke-width="0.5"
   cx="80.67"
   cy="190.272"
   r="3.774"
   id="circle46" />
<polygon
   fill="#D1D3D4"
   stroke="#000000"
   points="262.285,174.685 6.222,174.709 6.222,5.484 262.285,5.46 "
   id="polygon48" />
<path
   fill="#FFFFFF"
   stroke="#000000"
   d="M254.597,103.397c0,5.965-4.836,10.801-10.8,10.801H25.035  c-5.964,0-10.799-4.836-10.799-10.801V36.093c0-5.964,4.835-10.799,10.799-10.799h218.763c5.964,0,10.8,4.835,10.8,10.799V103.397z"
   id="path50" />
<path
   fill="none"
   stroke="#A7A9AC"
   stroke-width="2"
   stroke-dasharray="6"
   d="M204.689,92.077c0,5.965-4.834,10.801-10.799,10.801  h-71.491c-5.964,0-10.8-4.836-10.8-10.801V59.106c0-5.964,4.836-10.799,10.8-10.799h71.491c5.965,0,10.799,4.835,10.799,10.799  V92.077z"
   id="path52" />
<text
   font-family="Helvetica"
   font-size="9px"
   id="text54"
   x="96.29921"
   y="18.2686">Local tier (aggregate)</text>
<text
   transform="matrix(1 0 0 1 130.9492 42.6777)"
   font-family="'Helvetica'"
   font-size="9"
   id="text56">Plex0 (pool0)</text>
<text
   transform="matrix(1 0 0 1 102.3813 127.6855)"
   font-family="'Helvetica'"
   font-size="9"
   id="text58">pool0</text>
<g
   id="g114">
	<g
   id="g76">
		<circle
   fill="#FFFFFF"
   cx="106.339"
   cy="134.899"
   r="3.775"
   id="circle60" />
		<circle
   fill="#FFFFFF"
   cx="115.149"
   cy="134.899"
   r="3.775"
   id="circle62" />
		<circle
   fill="#FFFFFF"
   cx="123.958"
   cy="134.899"
   r="3.774"
   id="circle64" />
		<circle
   fill="#FFFFFF"
   cx="132.768"
   cy="134.899"
   r="3.775"
   id="circle66" />
		<circle
   fill="#FFFFFF"
   cx="141.578"
   cy="134.899"
   r="3.774"
   id="circle68" />
		<circle
   fill="#FFFFFF"
   cx="150.387"
   cy="134.899"
   r="3.775"
   id="circle70" />
		<circle
   fill="#FFFFFF"
   cx="159.197"
   cy="134.899"
   r="3.774"
   id="circle72" />
		<circle
   fill="#FFFFFF"
   cx="168.006"
   cy="134.899"
   r="3.775"
   id="circle74" />
	</g>
	<g
   id="g94">
		<circle
   fill="#FFFFFF"
   cx="106.339"
   cy="134.899"
   r="3.775"
   id="circle78" />
		<circle
   fill="#FFFFFF"
   cx="115.149"
   cy="134.899"
   r="3.775"
   id="circle80" />
		<circle
   fill="#FFFFFF"
   cx="123.958"
   cy="134.899"
   r="3.774"
   id="circle82" />
		<circle
   fill="#FFFFFF"
   cx="132.768"
   cy="134.899"
   r="3.775"
   id="circle84" />
		<circle
   fill="#FFFFFF"
   cx="141.578"
   cy="134.899"
   r="3.774"
   id="circle86" />
		<circle
   fill="#FFFFFF"
   cx="150.387"
   cy="134.899"
   r="3.775"
   id="circle88" />
		<circle
   fill="#FFFFFF"
   cx="159.197"
   cy="134.899"
   r="3.774"
   id="circle90" />
		<circle
   fill="#FFFFFF"
   cx="168.006"
   cy="134.899"
   r="3.775"
   id="circle92" />
	</g>
	<g
   id="g112">
		<circle
   fill="none"
   stroke="#000000"
   stroke-width="0.5"
   cx="106.339"
   cy="134.899"
   r="3.775"
   id="circle96" />
		<circle
   fill="none"
   stroke="#000000"
   stroke-width="0.5"
   cx="115.149"
   cy="134.899"
   r="3.775"
   id="circle98" />
		<circle
   fill="none"
   stroke="#000000"
   stroke-width="0.5"
   cx="123.958"
   cy="134.899"
   r="3.774"
   id="circle100" />
		<circle
   fill="none"
   stroke="#000000"
   stroke-width="0.5"
   cx="132.768"
   cy="134.899"
   r="3.775"
   id="circle102" />
		<circle
   fill="none"
   stroke="#000000"
   stroke-width="0.5"
   cx="141.578"
   cy="134.899"
   r="3.774"
   id="circle104" />
		<circle
   fill="none"
   stroke="#000000"
   stroke-width="0.5"
   cx="150.387"
   cy="134.899"
   r="3.775"
   id="circle106" />
		<circle
   fill="none"
   stroke="#000000"
   stroke-width="0.5"
   cx="159.197"
   cy="134.899"
   r="3.774"
   id="circle108" />
		<circle
   fill="none"
   stroke="#000000"
   stroke-width="0.5"
   cx="168.006"
   cy="134.899"
   r="3.775"
   id="circle110" />
	</g>
</g>
<g
   id="g170">
	<g
   id="g132">
		<circle
   fill="#FFFFFF"
   cx="106.339"
   cy="143.97"
   r="3.775"
   id="circle116" />
		<circle
   fill="#FFFFFF"
   cx="115.149"
   cy="143.97"
   r="3.775"
   id="circle118" />
		<circle
   fill="#FFFFFF"
   cx="123.958"
   cy="143.97"
   r="3.774"
   id="circle120" />
		<circle
   fill="#FFFFFF"
   cx="132.768"
   cy="143.97"
   r="3.775"
   id="circle122" />
		<circle
   fill="#FFFFFF"
   cx="141.578"
   cy="143.97"
   r="3.774"
   id="circle124" />
		<circle
   fill="#FFFFFF"
   cx="150.387"
   cy="143.97"
   r="3.775"
   id="circle126" />
		<circle
   fill="#FFFFFF"
   cx="159.197"
   cy="143.97"
   r="3.774"
   id="circle128" />
		<circle
   fill="#FFFFFF"
   cx="168.006"
   cy="143.97"
   r="3.775"
   id="circle130" />
	</g>
	<g
   id="g150">
		<circle
   fill="#FFFFFF"
   cx="106.339"
   cy="143.97"
   r="3.775"
   id="circle134" />
		<circle
   fill="#FFFFFF"
   cx="115.149"
   cy="143.97"
   r="3.775"
   id="circle136" />
		<circle
   fill="#FFFFFF"
   cx="123.958"
   cy="143.97"
   r="3.774"
   id="circle138" />
		<circle
   fill="#FFFFFF"
   cx="132.768"
   cy="143.97"
   r="3.775"
   id="circle140" />
		<circle
   fill="#FFFFFF"
   cx="141.578"
   cy="143.97"
   r="3.774"
   id="circle142" />
		<circle
   fill="#FFFFFF"
   cx="150.387"
   cy="143.97"
   r="3.775"
   id="circle144" />
		<circle
   fill="#FFFFFF"
   cx="159.197"
   cy="143.97"
   r="3.774"
   id="circle146" />
		<circle
   fill="#FFFFFF"
   cx="168.006"
   cy="143.97"
   r="3.775"
   id="circle148" />
	</g>
	<g
   id="g168">
		<circle
   fill="none"
   stroke="#000000"
   stroke-width="0.5"
   cx="106.339"
   cy="143.97"
   r="3.775"
   id="circle152" />
		<circle
   fill="none"
   stroke="#000000"
   stroke-width="0.5"
   cx="115.149"
   cy="143.97"
   r="3.775"
   id="circle154" />
		<circle
   fill="none"
   stroke="#000000"
   stroke-width="0.5"
   cx="123.958"
   cy="143.97"
   r="3.774"
   id="circle156" />
		<circle
   fill="none"
   stroke="#000000"
   stroke-width="0.5"
   cx="132.768"
   cy="143.97"
   r="3.775"
   id="circle158" />
		<circle
   fill="none"
   stroke="#000000"
   stroke-width="0.5"
   cx="141.578"
   cy="143.97"
   r="3.774"
   id="circle160" />
		<circle
   fill="none"
   stroke="#000000"
   stroke-width="0.5"
   cx="150.387"
   cy="143.97"
   r="3.775"
   id="circle162" />
		<circle
   fill="none"
   stroke="#000000"
   stroke-width="0.5"
   cx="159.197"
   cy="143.97"
   r="3.774"
   id="circle164" />
		<circle
   fill="none"
   stroke="#000000"
   stroke-width="0.5"
   cx="168.006"
   cy="143.97"
   r="3.775"
   id="circle166" />
	</g>
</g>
<circle
   fill="#999999"
   stroke="#000000"
   stroke-width="0.5"
   cx="127.361"
   cy="60.52"
   r="3.775"
   id="circle172" />
<circle
   fill="#999999"
   stroke="#000000"
   stroke-width="0.5"
   cx="136.171"
   cy="60.52"
   r="3.775"
   id="circle174" />
<circle
   fill="#999999"
   stroke="#000000"
   stroke-width="0.5"
   cx="144.981"
   cy="60.52"
   r="3.774"
   id="circle176" />
<circle
   fill="#999999"
   stroke="#000000"
   stroke-width="0.5"
   cx="153.791"
   cy="60.52"
   r="3.775"
   id="circle178" />
<circle
   fill="#999999"
   stroke="#000000"
   stroke-width="0.5"
   cx="162.6"
   cy="60.52"
   r="3.774"
   id="circle180" />
<circle
   fill="#999999"
   stroke="#000000"
   stroke-width="0.5"
   cx="171.41"
   cy="60.52"
   r="3.775"
   id="circle182" />
<circle
   fill="none"
   stroke="#000000"
   stroke-width="0.5"
   cx="190.295"
   cy="60.52"
   r="3.774"
   id="circle184" />
<circle
   fill="none"
   stroke="#000000"
   stroke-width="0.5"
   cx="190.295"
   cy="60.519"
   r="2.265"
   id="circle186" />
<circle
   stroke="#000000"
   stroke-width="0.5"
   cx="190.294"
   cy="60.519"
   r="0.943"
   id="circle188" />
<circle
   stroke="#000000"
   stroke-width="0.5"
   cx="180.966"
   cy="60.52"
   r="3.775"
   id="circle190" />
<circle
   fill="#999999"
   stroke="#000000"
   stroke-width="0.5"
   cx="127.361"
   cy="71.008"
   r="3.775"
   id="circle192" />
<circle
   fill="#999999"
   stroke="#000000"
   stroke-width="0.5"
   cx="136.171"
   cy="71.008"
   r="3.775"
   id="circle194" />
<circle
   fill="#999999"
   stroke="#000000"
   stroke-width="0.5"
   cx="144.981"
   cy="71.008"
   r="3.774"
   id="circle196" />
<circle
   fill="#999999"
   stroke="#000000"
   stroke-width="0.5"
   cx="153.791"
   cy="71.008"
   r="3.775"
   id="circle198" />
<circle
   fill="#999999"
   stroke="#000000"
   stroke-width="0.5"
   cx="162.6"
   cy="71.008"
   r="3.774"
   id="circle200" />
<circle
   fill="#999999"
   stroke="#000000"
   stroke-width="0.5"
   cx="171.41"
   cy="71.008"
   r="3.775"
   id="circle202" />
<circle
   fill="none"
   stroke="#000000"
   stroke-width="0.5"
   cx="190.295"
   cy="71.008"
   r="3.774"
   id="circle204" />
<circle
   stroke="#000000"
   stroke-width="0.5"
   cx="190.294"
   cy="71.007"
   r="0.943"
   id="circle206" />
<circle
   fill="none"
   stroke="#000000"
   stroke-width="0.5"
   cx="190.295"
   cy="71.007"
   r="2.265"
   id="circle208" />
<circle
   stroke="#000000"
   stroke-width="0.5"
   cx="180.966"
   cy="71.008"
   r="3.775"
   id="circle210" />
<circle
   fill="#999999"
   stroke="#000000"
   stroke-width="0.5"
   cx="127.361"
   cy="81.496"
   r="3.775"
   id="circle212" />
<circle
   fill="#999999"
   stroke="#000000"
   stroke-width="0.5"
   cx="136.171"
   cy="81.496"
   r="3.775"
   id="circle214" />
<circle
   fill="#999999"
   stroke="#000000"
   stroke-width="0.5"
   cx="144.981"
   cy="81.496"
   r="3.774"
   id="circle216" />
<circle
   fill="#999999"
   stroke="#000000"
   stroke-width="0.5"
   cx="153.791"
   cy="81.496"
   r="3.775"
   id="circle218" />
<circle
   fill="#999999"
   stroke="#000000"
   stroke-width="0.5"
   cx="162.6"
   cy="81.496"
   r="3.774"
   id="circle220" />
<circle
   fill="#999999"
   stroke="#000000"
   stroke-width="0.5"
   cx="171.41"
   cy="81.496"
   r="3.775"
   id="circle222" />
<circle
   fill="none"
   stroke="#000000"
   stroke-width="0.5"
   cx="190.295"
   cy="81.496"
   r="3.774"
   id="circle224" />
<circle
   stroke="#000000"
   stroke-width="0.5"
   cx="190.294"
   cy="81.495"
   r="0.943"
   id="circle226" />
<circle
   fill="none"
   stroke="#000000"
   stroke-width="0.5"
   cx="190.295"
   cy="81.495"
   r="2.265"
   id="circle228" />
<circle
   stroke="#000000"
   stroke-width="0.5"
   cx="180.966"
   cy="81.496"
   r="3.775"
   id="circle230" />
<circle
   fill="#999999"
   stroke="#000000"
   stroke-width="0.5"
   cx="127.361"
   cy="91.574"
   r="3.775"
   id="circle232" />
<circle
   fill="#999999"
   stroke="#000000"
   stroke-width="0.5"
   cx="136.171"
   cy="91.574"
   r="3.775"
   id="circle234" />
<circle
   fill="#999999"
   stroke="#000000"
   stroke-width="0.5"
   cx="144.981"
   cy="91.574"
   r="3.774"
   id="circle236" />
<circle
   fill="#999999"
   stroke="#000000"
   stroke-width="0.5"
   cx="153.791"
   cy="91.574"
   r="3.775"
   id="circle238" />
<circle
   fill="#999999"
   stroke="#000000"
   stroke-width="0.5"
   cx="162.6"
   cy="91.574"
   r="3.774"
   id="circle240" />
<circle
   fill="#999999"
   stroke="#000000"
   stroke-width="0.5"
   cx="171.41"
   cy="91.574"
   r="3.775"
   id="circle242" />
<circle
   fill="none"
   stroke="#000000"
   stroke-width="0.5"
   cx="190.295"
   cy="91.574"
   r="3.774"
   id="circle244" />
<circle
   stroke="#000000"
   stroke-width="0.5"
   cx="190.294"
   cy="91.573"
   r="0.943"
   id="circle246" />
<circle
   fill="none"
   stroke="#000000"
   stroke-width="0.5"
   cx="190.295"
   cy="91.573"
   r="2.265"
   id="circle248" />
<circle
   stroke="#000000"
   stroke-width="0.5"
   cx="180.966"
   cy="91.574"
   r="3.775"
   id="circle250" />
<text
   transform="matrix(1 0 0 1 69.4419 62.9336)"
   id="text260"><tspan
     x="0"
     y="0"
     font-family="'Helvetica'"
     font-size="9"
     id="tspan252">rg0 </tspan><tspan
     x="0"
     y="11"
     font-family="'Helvetica'"
     font-size="9"
     id="tspan254">rg1 </tspan><tspan
     x="0"
     y="22"
     font-family="'Helvetica'"
     font-size="9"
     id="tspan256">rg2 </tspan><tspan
     x="0"
     y="33"
     font-family="'Helvetica'"
     font-size="9"
     id="tspan258">rg3</tspan></text>
<g
   id="g266">
	
		<line
   fill="none"
   stroke="#FFFFFF"
   stroke-width="3"
   stroke-linecap="round"
   stroke-linejoin="round"
   x1="84.318"
   y1="60.446"
   x2="120.164"
   y2="60.446"
   id="line262" />
	
		<line
   fill="none"
   stroke="#000000"
   stroke-width="0.5"
   stroke-linecap="round"
   stroke-linejoin="round"
   x1="84.318"
   y1="60.446"
   x2="120.164"
   y2="60.446"
   id="line264" />
</g>
<g
   id="g272">
	
		<line
   fill="none"
   stroke="#FFFFFF"
   stroke-width="3"
   stroke-linecap="round"
   stroke-linejoin="round"
   x1="84.318"
   y1="71.446"
   x2="120.164"
   y2="71.446"
   id="line268" />
	
		<line
   fill="none"
   stroke="#000000"
   stroke-width="0.5"
   stroke-linecap="round"
   stroke-linejoin="round"
   x1="84.318"
   y1="71.446"
   x2="120.164"
   y2="71.446"
   id="line270" />
</g>
<g
   id="g278">
	
		<line
   fill="none"
   stroke="#FFFFFF"
   stroke-width="3"
   stroke-linecap="round"
   stroke-linejoin="round"
   x1="84.318"
   y1="82.446"
   x2="120.164"
   y2="82.446"
   id="line274" />
	
		<line
   fill="none"
   stroke="#000000"
   stroke-width="0.5"
   stroke-linecap="round"
   stroke-linejoin="round"
   x1="84.318"
   y1="82.446"
   x2="120.164"
   y2="82.446"
   id="line276" />
</g>
<g
   id="g284">
	
		<line
   fill="none"
   stroke="#FFFFFF"
   stroke-width="3"
   stroke-linecap="round"
   stroke-linejoin="round"
   x1="84.318"
   y1="92.438"
   x2="120.164"
   y2="92.438"
   id="line280" />
	
		<line
   fill="none"
   stroke="#000000"
   stroke-width="0.5"
   stroke-linecap="round"
   stroke-linejoin="round"
   x1="84.318"
   y1="92.438"
   x2="120.164"
   y2="92.438"
   id="line282" />
</g>
<text
   transform="matrix(1 0 0 1 9.75 192.5381)"
   font-family="'Helvetica'"
   font-size="9"
   id="text286">Legend</text>
<polyline
   fill="none"
   stroke="#000000"
   stroke-width="0.5499"
   points="6.054,198.273 45.054,198.273 45.054,181.273 "
   id="polyline288" />
</svg>
