<?xml version="1.0" encoding="UTF-8"?><!-- Generator: Adobe Illustrator 16.0.3, SVG Export Plug-In . SVG Version: 6.00 Build 0)  --><!DOCTYPE svg PUBLIC "-//W3C//DTD SVG 1.1//EN" "http://www.w3.org/Graphics/SVG/1.1/DTD/svg11.dtd">
<svg xmlns="http://www.w3.org/2000/svg" xmlns:xlink="http://www.w3.org/1999/xlink" version="1.1" id="Layer_1" x="0px" y="0px" width="284.5px" height="234px" viewBox="0 0 284.5 234" enable-background="new 0 0 284.5 234" xml:space="preserve" preserveAspectRatio="xMidYMid meet" zoomAndPan="magnify" contentScriptType="application/ecmascript" contentStyleType="text/css">
<polygon fill="#D1D3D4" stroke="#000000" points="280.904,159.488 2.591,159.515 2.591,2.906 280.904,2.878 "/>
<path fill="#FFFFFF" stroke="#000000" d="M262.216,100.816c0,5.965-4.836,10.801-10.8,10.801H32.654  c-5.964,0-10.799-4.836-10.799-10.801V33.511c0-5.964,4.835-10.799,10.799-10.799h218.763c5.964,0,10.8,4.835,10.8,10.799V100.816z"/>
<path fill="none" stroke="#A7A9AC" stroke-width="2" stroke-dasharray="6" d="M126.572,89.263c0,5.965-4.834,10.801-10.799,10.801  H44.282c-5.964,0-10.8-4.836-10.8-10.801V56.292c0-5.964,4.836-10.799,10.8-10.799h71.491c5.965,0,10.799,4.835,10.799,10.799  V89.263z"/>
<text transform="matrix(1 0 0 1 123.5757 15.687)" font-family="'Helvetica'" font-size="9">Aggregate</text>
<text transform="matrix(1 0 0 1 52.832 39.8638)" font-family="'Helvetica'" font-size="9">Plex0 (pool0)</text>
<text transform="matrix(1 0 0 1 179.9707 39.8638)" font-family="'Helvetica'" font-size="9">Plex1 (pool1)</text>
<text transform="matrix(1 0 0 1 49.3965 126.8481)" font-family="'Helvetica'" font-size="9">pool0</text>
<g>
	<g>
		<circle fill="#FFFFFF" cx="51.421" cy="133.617" r="3.775"/>
		<circle fill="#FFFFFF" cx="60.231" cy="133.617" r="3.775"/>
		<circle fill="#FFFFFF" cx="69.041" cy="133.617" r="3.774"/>
		<circle fill="#FFFFFF" cx="77.85" cy="133.617" r="3.775"/>
		<circle fill="#FFFFFF" cx="86.66" cy="133.617" r="3.774"/>
		<circle fill="#FFFFFF" cx="95.469" cy="133.617" r="3.775"/>
		<circle fill="#FFFFFF" cx="104.279" cy="133.617" r="3.774"/>
		<circle fill="#FFFFFF" cx="113.088" cy="133.617" r="3.775"/>
	</g>
	<g>
		<circle fill="#FFFFFF" cx="51.421" cy="133.617" r="3.775"/>
		<circle fill="#FFFFFF" cx="60.231" cy="133.617" r="3.775"/>
		<circle fill="#FFFFFF" cx="69.041" cy="133.617" r="3.774"/>
		<circle fill="#FFFFFF" cx="77.85" cy="133.617" r="3.775"/>
		<circle fill="#FFFFFF" cx="86.66" cy="133.617" r="3.774"/>
		<circle fill="#FFFFFF" cx="95.469" cy="133.617" r="3.775"/>
		<circle fill="#FFFFFF" cx="104.279" cy="133.617" r="3.774"/>
		<circle fill="#FFFFFF" cx="113.088" cy="133.617" r="3.775"/>
	</g>
	<g>
		<circle fill="none" stroke="#000000" stroke-width="0.5" cx="51.421" cy="133.617" r="3.775"/>
		<circle fill="none" stroke="#000000" stroke-width="0.5" cx="60.231" cy="133.617" r="3.775"/>
		<circle fill="none" stroke="#000000" stroke-width="0.5" cx="69.041" cy="133.617" r="3.774"/>
		<circle fill="none" stroke="#000000" stroke-width="0.5" cx="77.85" cy="133.617" r="3.775"/>
		<circle fill="none" stroke="#000000" stroke-width="0.5" cx="86.66" cy="133.617" r="3.774"/>
		<circle fill="none" stroke="#000000" stroke-width="0.5" cx="95.469" cy="133.617" r="3.775"/>
		<circle fill="none" stroke="#000000" stroke-width="0.5" cx="104.279" cy="133.617" r="3.774"/>
		<circle fill="none" stroke="#000000" stroke-width="0.5" cx="113.088" cy="133.617" r="3.775"/>
	</g>
</g>
<g>
	<g>
		<circle fill="#FFFFFF" cx="51.421" cy="142.687" r="3.775"/>
		<circle fill="#FFFFFF" cx="60.231" cy="142.687" r="3.775"/>
		<circle fill="#FFFFFF" cx="69.041" cy="142.687" r="3.774"/>
		<circle fill="#FFFFFF" cx="77.85" cy="142.687" r="3.775"/>
		<circle fill="#FFFFFF" cx="86.66" cy="142.687" r="3.774"/>
		<circle fill="#FFFFFF" cx="95.469" cy="142.687" r="3.775"/>
		<circle fill="#FFFFFF" cx="104.279" cy="142.687" r="3.774"/>
		<circle fill="#FFFFFF" cx="113.088" cy="142.687" r="3.775"/>
	</g>
	<g>
		<circle fill="#FFFFFF" cx="51.421" cy="142.687" r="3.775"/>
		<circle fill="#FFFFFF" cx="60.231" cy="142.687" r="3.775"/>
		<circle fill="#FFFFFF" cx="69.041" cy="142.687" r="3.774"/>
		<circle fill="#FFFFFF" cx="77.85" cy="142.687" r="3.775"/>
		<circle fill="#FFFFFF" cx="86.66" cy="142.687" r="3.774"/>
		<circle fill="#FFFFFF" cx="95.469" cy="142.687" r="3.775"/>
		<circle fill="#FFFFFF" cx="104.279" cy="142.687" r="3.774"/>
		<circle fill="#FFFFFF" cx="113.088" cy="142.687" r="3.775"/>
	</g>
	<g>
		<circle fill="none" stroke="#000000" stroke-width="0.5" cx="51.421" cy="142.687" r="3.775"/>
		<circle fill="none" stroke="#000000" stroke-width="0.5" cx="60.231" cy="142.687" r="3.775"/>
		<circle fill="none" stroke="#000000" stroke-width="0.5" cx="69.041" cy="142.687" r="3.774"/>
		<circle fill="none" stroke="#000000" stroke-width="0.5" cx="77.85" cy="142.687" r="3.775"/>
		<circle fill="none" stroke="#000000" stroke-width="0.5" cx="86.66" cy="142.687" r="3.774"/>
		<circle fill="none" stroke="#000000" stroke-width="0.5" cx="95.469" cy="142.687" r="3.775"/>
		<circle fill="none" stroke="#000000" stroke-width="0.5" cx="104.279" cy="142.687" r="3.774"/>
		<circle fill="none" stroke="#000000" stroke-width="0.5" cx="113.088" cy="142.687" r="3.775"/>
	</g>
</g>
<text transform="matrix(1 0 0 1 172.0601 126.8481)" font-family="'Helvetica'" font-size="9">pool1</text>
<g>
	<g>
		<circle fill="#FFFFFF" cx="174.084" cy="133.617" r="3.775"/>
		<circle fill="#FFFFFF" cx="182.894" cy="133.617" r="3.775"/>
		<circle fill="#FFFFFF" cx="191.704" cy="133.617" r="3.774"/>
		<circle fill="#FFFFFF" cx="200.513" cy="133.617" r="3.775"/>
		<circle fill="#FFFFFF" cx="209.323" cy="133.617" r="3.774"/>
		<circle fill="#FFFFFF" cx="218.132" cy="133.617" r="3.775"/>
		<circle fill="#FFFFFF" cx="226.942" cy="133.617" r="3.774"/>
		<circle fill="#FFFFFF" cx="235.751" cy="133.617" r="3.775"/>
	</g>
	<g>
		<circle fill="#FFFFFF" cx="174.084" cy="133.617" r="3.775"/>
		<circle fill="#FFFFFF" cx="182.894" cy="133.617" r="3.775"/>
		<circle fill="#FFFFFF" cx="191.704" cy="133.617" r="3.774"/>
		<circle fill="#FFFFFF" cx="200.513" cy="133.617" r="3.775"/>
		<circle fill="#FFFFFF" cx="209.323" cy="133.617" r="3.774"/>
		<circle fill="#FFFFFF" cx="218.132" cy="133.617" r="3.775"/>
		<circle fill="#FFFFFF" cx="226.942" cy="133.617" r="3.774"/>
		<circle fill="#FFFFFF" cx="235.751" cy="133.617" r="3.775"/>
	</g>
	<g>
		<circle fill="none" stroke="#000000" stroke-width="0.5" cx="174.084" cy="133.617" r="3.775"/>
		<circle fill="none" stroke="#000000" stroke-width="0.5" cx="182.894" cy="133.617" r="3.775"/>
		<circle fill="none" stroke="#000000" stroke-width="0.5" cx="191.704" cy="133.617" r="3.774"/>
		<circle fill="none" stroke="#000000" stroke-width="0.5" cx="200.513" cy="133.617" r="3.775"/>
		<circle fill="none" stroke="#000000" stroke-width="0.5" cx="209.323" cy="133.617" r="3.774"/>
		<circle fill="none" stroke="#000000" stroke-width="0.5" cx="218.132" cy="133.617" r="3.775"/>
		<circle fill="none" stroke="#000000" stroke-width="0.5" cx="226.942" cy="133.617" r="3.774"/>
		<circle fill="none" stroke="#000000" stroke-width="0.5" cx="235.751" cy="133.617" r="3.775"/>
	</g>
</g>
<g>
	<g>
		<circle fill="#FFFFFF" cx="174.084" cy="142.687" r="3.775"/>
		<circle fill="#FFFFFF" cx="182.894" cy="142.687" r="3.775"/>
		<circle fill="#FFFFFF" cx="191.704" cy="142.687" r="3.774"/>
		<circle fill="#FFFFFF" cx="200.513" cy="142.687" r="3.775"/>
		<circle fill="#FFFFFF" cx="209.323" cy="142.687" r="3.774"/>
		<circle fill="#FFFFFF" cx="218.132" cy="142.687" r="3.775"/>
		<circle fill="#FFFFFF" cx="226.942" cy="142.687" r="3.774"/>
		<circle fill="#FFFFFF" cx="235.751" cy="142.687" r="3.775"/>
	</g>
	<g>
		<circle fill="#FFFFFF" cx="174.084" cy="142.687" r="3.775"/>
		<circle fill="#FFFFFF" cx="182.894" cy="142.687" r="3.775"/>
		<circle fill="#FFFFFF" cx="191.704" cy="142.687" r="3.774"/>
		<circle fill="#FFFFFF" cx="200.513" cy="142.687" r="3.775"/>
		<circle fill="#FFFFFF" cx="209.323" cy="142.687" r="3.774"/>
		<circle fill="#FFFFFF" cx="218.132" cy="142.687" r="3.775"/>
		<circle fill="#FFFFFF" cx="226.942" cy="142.687" r="3.774"/>
		<circle fill="#FFFFFF" cx="235.751" cy="142.687" r="3.775"/>
	</g>
	<g>
		<circle fill="none" stroke="#000000" stroke-width="0.5" cx="174.084" cy="142.687" r="3.775"/>
		<circle fill="none" stroke="#000000" stroke-width="0.5" cx="182.894" cy="142.687" r="3.775"/>
		<circle fill="none" stroke="#000000" stroke-width="0.5" cx="191.704" cy="142.687" r="3.774"/>
		<circle fill="none" stroke="#000000" stroke-width="0.5" cx="200.513" cy="142.687" r="3.775"/>
		<circle fill="none" stroke="#000000" stroke-width="0.5" cx="209.323" cy="142.687" r="3.774"/>
		<circle fill="none" stroke="#000000" stroke-width="0.5" cx="218.132" cy="142.687" r="3.775"/>
		<circle fill="none" stroke="#000000" stroke-width="0.5" cx="226.942" cy="142.687" r="3.774"/>
		<circle fill="none" stroke="#000000" stroke-width="0.5" cx="235.751" cy="142.687" r="3.775"/>
	</g>
</g>
<circle fill="#999999" stroke="#000000" stroke-width="0.5" cx="49.244" cy="57.706" r="3.775"/>
<circle fill="#999999" stroke="#000000" stroke-width="0.5" cx="58.054" cy="57.706" r="3.775"/>
<circle fill="#999999" stroke="#000000" stroke-width="0.5" cx="66.864" cy="57.706" r="3.774"/>
<circle fill="#999999" stroke="#000000" stroke-width="0.5" cx="75.673" cy="57.706" r="3.775"/>
<circle fill="#999999" stroke="#000000" stroke-width="0.5" cx="84.483" cy="57.706" r="3.774"/>
<circle fill="#999999" stroke="#000000" stroke-width="0.5" cx="93.292" cy="57.706" r="3.775"/>
<circle fill="none" stroke="#000000" stroke-width="0.5" cx="112.178" cy="57.706" r="3.774"/>
<circle fill="none" stroke="#000000" stroke-width="0.5" cx="112.178" cy="57.705" r="2.265"/>
<circle stroke="#000000" stroke-width="0.5" cx="112.177" cy="57.705" r="0.943"/>
<circle stroke="#000000" stroke-width="0.5" cx="102.849" cy="57.706" r="3.775"/>
<circle fill="#999999" stroke="#000000" stroke-width="0.5" cx="49.244" cy="68.194" r="3.775"/>
<circle fill="#999999" stroke="#000000" stroke-width="0.5" cx="58.054" cy="68.194" r="3.775"/>
<circle fill="#999999" stroke="#000000" stroke-width="0.5" cx="66.864" cy="68.194" r="3.774"/>
<circle fill="#999999" stroke="#000000" stroke-width="0.5" cx="75.673" cy="68.194" r="3.775"/>
<circle fill="#999999" stroke="#000000" stroke-width="0.5" cx="84.483" cy="68.194" r="3.774"/>
<circle fill="#999999" stroke="#000000" stroke-width="0.5" cx="93.292" cy="68.194" r="3.775"/>
<circle fill="none" stroke="#000000" stroke-width="0.5" cx="112.178" cy="68.194" r="3.774"/>
<circle stroke="#000000" stroke-width="0.5" cx="112.177" cy="68.193" r="0.943"/>
<circle fill="none" stroke="#000000" stroke-width="0.5" cx="112.178" cy="68.193" r="2.265"/>
<circle stroke="#000000" stroke-width="0.5" cx="102.849" cy="68.194" r="3.775"/>
<circle fill="#999999" stroke="#000000" stroke-width="0.5" cx="49.244" cy="78.682" r="3.775"/>
<circle fill="#999999" stroke="#000000" stroke-width="0.5" cx="58.054" cy="78.682" r="3.775"/>
<circle fill="#999999" stroke="#000000" stroke-width="0.5" cx="66.864" cy="78.682" r="3.774"/>
<circle fill="#999999" stroke="#000000" stroke-width="0.5" cx="75.673" cy="78.682" r="3.775"/>
<circle fill="#999999" stroke="#000000" stroke-width="0.5" cx="84.483" cy="78.682" r="3.774"/>
<circle fill="#999999" stroke="#000000" stroke-width="0.5" cx="93.292" cy="78.682" r="3.775"/>
<circle fill="none" stroke="#000000" stroke-width="0.5" cx="112.178" cy="78.682" r="3.774"/>
<circle stroke="#000000" stroke-width="0.5" cx="112.177" cy="78.681" r="0.943"/>
<circle fill="none" stroke="#000000" stroke-width="0.5" cx="112.178" cy="78.681" r="2.265"/>
<circle stroke="#000000" stroke-width="0.5" cx="102.849" cy="78.682" r="3.775"/>
<circle fill="#999999" stroke="#000000" stroke-width="0.5" cx="49.244" cy="88.76" r="3.775"/>
<circle fill="#999999" stroke="#000000" stroke-width="0.5" cx="58.054" cy="88.76" r="3.775"/>
<circle fill="#999999" stroke="#000000" stroke-width="0.5" cx="66.864" cy="88.76" r="3.774"/>
<circle fill="#999999" stroke="#000000" stroke-width="0.5" cx="75.673" cy="88.76" r="3.775"/>
<circle fill="#999999" stroke="#000000" stroke-width="0.5" cx="84.483" cy="88.76" r="3.774"/>
<circle fill="#999999" stroke="#000000" stroke-width="0.5" cx="93.292" cy="88.76" r="3.775"/>
<circle fill="none" stroke="#000000" stroke-width="0.5" cx="112.178" cy="88.76" r="3.774"/>
<circle stroke="#000000" stroke-width="0.5" cx="112.177" cy="88.759" r="0.943"/>
<circle fill="none" stroke="#000000" stroke-width="0.5" cx="112.178" cy="88.759" r="2.265"/>
<circle stroke="#000000" stroke-width="0.5" cx="102.849" cy="88.76" r="3.775"/>
<text transform="matrix(1 0 0 1 7.4082 59.9946)"><tspan x="0" y="0" font-family="'Helvetica'" font-size="9">rg0 </tspan><tspan x="0" y="11" font-family="'Helvetica'" font-size="9">rg1 </tspan><tspan x="0" y="22" font-family="'Helvetica'" font-size="9">rg2 </tspan><tspan x="0" y="33" font-family="'Helvetica'" font-size="9">rg3</tspan></text>
<g>
	
		<line fill="none" stroke="#FFFFFF" stroke-width="3" stroke-linecap="round" stroke-linejoin="round" x1="24.357" y1="57.632" x2="42.046" y2="57.632"/>
	
		<line fill="none" stroke="#000000" stroke-width="0.5" stroke-linecap="round" stroke-linejoin="round" x1="24.357" y1="57.632" x2="42.046" y2="57.632"/>
</g>
<g>
	
		<line fill="none" stroke="#FFFFFF" stroke-width="3" stroke-linecap="round" stroke-linejoin="round" x1="24.201" y1="68.632" x2="42.046" y2="68.632"/>
	
		<line fill="none" stroke="#000000" stroke-width="0.5" stroke-linecap="round" stroke-linejoin="round" x1="24.201" y1="68.632" x2="42.046" y2="68.632"/>
</g>
<g>
	
		<line fill="none" stroke="#FFFFFF" stroke-width="3" stroke-linecap="round" stroke-linejoin="round" x1="24.451" y1="79.632" x2="42.046" y2="79.632"/>
	
		<line fill="none" stroke="#000000" stroke-width="0.5" stroke-linecap="round" stroke-linejoin="round" x1="24.451" y1="79.632" x2="42.046" y2="79.632"/>
</g>
<g>
	
		<line fill="none" stroke="#FFFFFF" stroke-width="3" stroke-linecap="round" stroke-linejoin="round" x1="24.201" y1="89.625" x2="42.046" y2="89.625"/>
	
		<line fill="none" stroke="#000000" stroke-width="0.5" stroke-linecap="round" stroke-linejoin="round" x1="24.201" y1="89.625" x2="42.046" y2="89.625"/>
</g>
<path fill="none" stroke="#A7A9AC" stroke-width="2" stroke-dasharray="6" d="M251.412,89.263c0,5.965-4.834,10.801-10.799,10.801  h-71.491c-5.964,0-10.8-4.836-10.8-10.801V56.292c0-5.964,4.836-10.799,10.8-10.799h71.491c5.965,0,10.799,4.835,10.799,10.799  V89.263z"/>
<circle fill="#999999" stroke="#000000" stroke-width="0.5" cx="174.084" cy="57.706" r="3.775"/>
<circle fill="#999999" stroke="#000000" stroke-width="0.5" cx="182.894" cy="57.706" r="3.775"/>
<circle fill="#999999" stroke="#000000" stroke-width="0.5" cx="191.704" cy="57.706" r="3.774"/>
<circle fill="#999999" stroke="#000000" stroke-width="0.5" cx="200.513" cy="57.706" r="3.775"/>
<circle fill="#999999" stroke="#000000" stroke-width="0.5" cx="209.323" cy="57.706" r="3.774"/>
<circle fill="#999999" stroke="#000000" stroke-width="0.5" cx="218.132" cy="57.706" r="3.775"/>
<circle fill="none" stroke="#000000" stroke-width="0.5" cx="237.018" cy="57.706" r="3.774"/>
<circle fill="none" stroke="#000000" stroke-width="0.5" cx="237.018" cy="57.705" r="2.265"/>
<circle stroke="#000000" stroke-width="0.5" cx="237.017" cy="57.705" r="0.943"/>
<circle stroke="#000000" stroke-width="0.5" cx="227.689" cy="57.706" r="3.775"/>
<circle fill="#999999" stroke="#000000" stroke-width="0.5" cx="174.084" cy="68.194" r="3.775"/>
<circle fill="#999999" stroke="#000000" stroke-width="0.5" cx="182.894" cy="68.194" r="3.775"/>
<circle fill="#999999" stroke="#000000" stroke-width="0.5" cx="191.704" cy="68.194" r="3.774"/>
<circle fill="#999999" stroke="#000000" stroke-width="0.5" cx="200.513" cy="68.194" r="3.775"/>
<circle fill="#999999" stroke="#000000" stroke-width="0.5" cx="209.323" cy="68.194" r="3.774"/>
<circle fill="#999999" stroke="#000000" stroke-width="0.5" cx="218.132" cy="68.194" r="3.775"/>
<circle fill="none" stroke="#000000" stroke-width="0.5" cx="237.018" cy="68.194" r="3.774"/>
<circle stroke="#000000" stroke-width="0.5" cx="237.017" cy="68.193" r="0.943"/>
<circle fill="none" stroke="#000000" stroke-width="0.5" cx="237.018" cy="68.193" r="2.265"/>
<circle stroke="#000000" stroke-width="0.5" cx="227.689" cy="68.194" r="3.775"/>
<circle fill="#999999" stroke="#000000" stroke-width="0.5" cx="174.084" cy="78.682" r="3.775"/>
<circle fill="#999999" stroke="#000000" stroke-width="0.5" cx="182.894" cy="78.682" r="3.775"/>
<circle fill="#999999" stroke="#000000" stroke-width="0.5" cx="191.704" cy="78.682" r="3.774"/>
<circle fill="#999999" stroke="#000000" stroke-width="0.5" cx="200.513" cy="78.682" r="3.775"/>
<circle fill="#999999" stroke="#000000" stroke-width="0.5" cx="209.323" cy="78.682" r="3.774"/>
<circle fill="#999999" stroke="#000000" stroke-width="0.5" cx="218.132" cy="78.682" r="3.775"/>
<circle fill="none" stroke="#000000" stroke-width="0.5" cx="237.018" cy="78.682" r="3.774"/>
<circle stroke="#000000" stroke-width="0.5" cx="237.017" cy="78.681" r="0.943"/>
<circle fill="none" stroke="#000000" stroke-width="0.5" cx="237.018" cy="78.681" r="2.265"/>
<circle stroke="#000000" stroke-width="0.5" cx="227.689" cy="78.682" r="3.775"/>
<circle fill="#999999" stroke="#000000" stroke-width="0.5" cx="174.084" cy="88.76" r="3.775"/>
<circle fill="#999999" stroke="#000000" stroke-width="0.5" cx="182.894" cy="88.76" r="3.775"/>
<circle fill="#999999" stroke="#000000" stroke-width="0.5" cx="191.704" cy="88.76" r="3.774"/>
<circle fill="#999999" stroke="#000000" stroke-width="0.5" cx="200.513" cy="88.76" r="3.775"/>
<circle fill="#999999" stroke="#000000" stroke-width="0.5" cx="209.323" cy="88.76" r="3.774"/>
<circle fill="#999999" stroke="#000000" stroke-width="0.5" cx="218.132" cy="88.76" r="3.775"/>
<circle fill="none" stroke="#000000" stroke-width="0.5" cx="237.018" cy="88.76" r="3.774"/>
<circle stroke="#000000" stroke-width="0.5" cx="237.017" cy="88.759" r="0.943"/>
<circle fill="none" stroke="#000000" stroke-width="0.5" cx="237.018" cy="88.759" r="2.265"/>
<circle stroke="#000000" stroke-width="0.5" cx="227.689" cy="88.76" r="3.775"/>
<text transform="matrix(1 0 0 1 137.3286 60.1196)"><tspan x="0" y="0" font-family="'Helvetica'" font-size="9">rg0 </tspan><tspan x="0" y="11" font-family="'Helvetica'" font-size="9">rg1 </tspan><tspan x="0" y="22" font-family="'Helvetica'" font-size="9">rg2 </tspan><tspan x="0" y="33" font-family="'Helvetica'" font-size="9">rg3</tspan></text>
<g>
	
		<line fill="none" stroke="#FFFFFF" stroke-width="3" stroke-linecap="round" stroke-linejoin="round" x1="152.205" y1="57.632" x2="166.886" y2="57.632"/>
	
		<line fill="none" stroke="#000000" stroke-width="0.5" stroke-linecap="round" stroke-linejoin="round" x1="152.205" y1="57.632" x2="166.886" y2="57.632"/>
</g>
<g>
	
		<line fill="none" stroke="#FFFFFF" stroke-width="3" stroke-linecap="round" stroke-linejoin="round" x1="152.205" y1="68.632" x2="166.886" y2="68.632"/>
	
		<line fill="none" stroke="#000000" stroke-width="0.5" stroke-linecap="round" stroke-linejoin="round" x1="152.205" y1="68.632" x2="166.886" y2="68.632"/>
</g>
<g>
	
		<line fill="none" stroke="#FFFFFF" stroke-width="3" stroke-linecap="round" stroke-linejoin="round" x1="152.205" y1="79.632" x2="166.886" y2="79.632"/>
	
		<line fill="none" stroke="#000000" stroke-width="0.5" stroke-linecap="round" stroke-linejoin="round" x1="152.205" y1="79.632" x2="166.886" y2="79.632"/>
</g>
<g>
	
		<line fill="none" stroke="#FFFFFF" stroke-width="3" stroke-linecap="round" stroke-linejoin="round" x1="152.205" y1="89.625" x2="166.886" y2="89.625"/>
	
		<line fill="none" stroke="#000000" stroke-width="0.5" stroke-linecap="round" stroke-linejoin="round" x1="152.205" y1="89.625" x2="166.886" y2="89.625"/>
</g>
<circle fill="#999999" stroke="#000000" stroke-width="0.5" cx="77.75" cy="185.769" r="3.774"/>
<circle fill="#999999" stroke="#000000" stroke-width="0.5" cx="59.911" cy="221.032" r="3.774"/>
<circle fill="none" stroke="#000000" stroke-width="0.5" cx="77.981" cy="221.032" r="3.774"/>
<circle fill="none" stroke="#000000" stroke-width="0.5" cx="77.981" cy="221.032" r="2.265"/>
<circle stroke="#000000" stroke-width="0.5" cx="77.98" cy="221.031" r="0.944"/>
<circle fill="#999999" stroke="#000000" stroke-width="0.5" cx="50.411" cy="221.032" r="3.774"/>
<circle fill="#999999" stroke="#000000" stroke-width="0.5" cx="40.76" cy="221.032" r="3.774"/>
<circle fill="#999999" stroke="#000000" stroke-width="0.5" cx="31.26" cy="221.032" r="3.774"/>
<circle fill="#999999" stroke="#000000" stroke-width="0.5" cx="21.61" cy="221.032" r="3.774"/>
<circle fill="#999999" stroke="#000000" stroke-width="0.5" cx="12.11" cy="221.032" r="3.774"/>
<circle stroke="#000000" stroke-width="0.5" cx="68.65" cy="221.032" r="3.775"/>
<circle stroke="#000000" stroke-width="0.5" cx="77.72" cy="197.667" r="3.775"/>
<circle fill="none" stroke="#000000" stroke-width="0.5" cx="77.72" cy="209.417" r="3.775"/>
<circle fill="none" stroke="#000000" stroke-width="0.5" cx="77.72" cy="209.416" r="2.266"/>
<circle stroke="#000000" stroke-width="0.5" cx="77.72" cy="209.416" r="0.943"/>
<text transform="matrix(1 0 0 1 87.0269 176.5723)"><tspan x="0" y="0" font-family="'Helvetica'" font-size="9">Spare disk </tspan><tspan x="0" y="12" font-family="'Helvetica'" font-size="9">Data disk </tspan><tspan x="0" y="24" font-family="'Helvetica'" font-size="9">Parity disk</tspan><tspan x="0" y="36" font-family="'Helvetica'" font-size="9">dParity disk</tspan><tspan x="0" y="48" font-family="'Helvetica'" font-size="9">RAID group</tspan></text>
<rect x="3.304" y="165.436" fill="none" stroke="#000000" stroke-width="0.5499" width="145.133" height="63.957"/>
<circle fill="none" stroke="#000000" stroke-width="0.5" cx="77.526" cy="174.031" r="3.774"/>
<text transform="matrix(1 0 0 1 6.6055 176.2969)" font-family="'Helvetica'" font-size="9">Legend</text>
<polyline fill="none" stroke="#000000" stroke-width="0.5499" points="2.91,182.032 41.91,182.032 41.91,165.032 "/>
</svg>