<?xml version="1.0" encoding="UTF-8" standalone="no"?>
<!-- Generator: Adobe Illustrator 16.0.3, SVG Export Plug-In . SVG Version: 6.00 Build 0)  -->

<svg
   version="1.1"
   id="Layer_1"
   x="0px"
   y="0px"
   width="284.5px"
   height="234px"
   viewBox="0 0 284.5 234"
   enable-background="new 0 0 284.5 234"
   xml:space="preserve"
   preserveAspectRatio="xMidYMid meet"
   zoomAndPan="magnify"
   contentScriptType="application/ecmascript"
   contentStyleType="text/css"
   sodipodi:docname="drw-plexm-scrn-en-noscale.svg"
   inkscape:version="1.1.2 (b8e25be833, 2022-02-05)"
   inkscape:export-filename="C:\Users\thom\git_workspace\ontap-internal\media\drw-plexm-scrn-en-noscale.png"
   inkscape:export-xdpi="96"
   inkscape:export-ydpi="96"
   xmlns:inkscape="http://www.inkscape.org/namespaces/inkscape"
   xmlns:sodipodi="http://sodipodi.sourceforge.net/DTD/sodipodi-0.dtd"
   xmlns="http://www.w3.org/2000/svg"
   xmlns:svg="http://www.w3.org/2000/svg"><defs
   id="defs525" /><sodipodi:namedview
   id="namedview523"
   pagecolor="#ffffff"
   bordercolor="#666666"
   borderopacity="1.0"
   inkscape:pageshadow="2"
   inkscape:pageopacity="0.0"
   inkscape:pagecheckerboard="0"
   showgrid="false"
   inkscape:zoom="3.3418803"
   inkscape:cx="142.28517"
   inkscape:cy="33.8133"
   inkscape:window-width="1920"
   inkscape:window-height="986"
   inkscape:window-x="-11"
   inkscape:window-y="-11"
   inkscape:window-maximized="1"
   inkscape:current-layer="Layer_1" />
<polygon
   fill="#D1D3D4"
   stroke="#000000"
   points="280.904,159.488 2.591,159.515 2.591,2.906 280.904,2.878 "
   id="polygon2" />
<path
   fill="#FFFFFF"
   stroke="#000000"
   d="M262.216,100.816c0,5.965-4.836,10.801-10.8,10.801H32.654  c-5.964,0-10.799-4.836-10.799-10.801V33.511c0-5.964,4.835-10.799,10.799-10.799h218.763c5.964,0,10.8,4.835,10.8,10.799V100.816z"
   id="path4" />
<path
   fill="none"
   stroke="#A7A9AC"
   stroke-width="2"
   stroke-dasharray="6"
   d="M126.572,89.263c0,5.965-4.834,10.801-10.799,10.801  H44.282c-5.964,0-10.8-4.836-10.8-10.801V56.292c0-5.964,4.836-10.799,10.8-10.799h71.491c5.965,0,10.799,4.835,10.799,10.799  V89.263z"
   id="path6" />
<text
   font-family="Helvetica"
   font-size="9px"
   id="text8"
   x="100.53478"
   y="16.285465">Local tier (aggregate)</text>
<text
   transform="matrix(1 0 0 1 52.832 39.8638)"
   font-family="'Helvetica'"
   font-size="9"
   id="text10">Plex0 (pool0)</text>
<text
   transform="matrix(1 0 0 1 179.9707 39.8638)"
   font-family="'Helvetica'"
   font-size="9"
   id="text12">Plex1 (pool1)</text>
<text
   transform="matrix(1 0 0 1 49.3965 126.8481)"
   font-family="'Helvetica'"
   font-size="9"
   id="text14">pool0</text>
<g
   id="g70">
	<g
   id="g32">
		<circle
   fill="#FFFFFF"
   cx="51.421"
   cy="133.617"
   r="3.775"
   id="circle16" />
		<circle
   fill="#FFFFFF"
   cx="60.231"
   cy="133.617"
   r="3.775"
   id="circle18" />
		<circle
   fill="#FFFFFF"
   cx="69.041"
   cy="133.617"
   r="3.774"
   id="circle20" />
		<circle
   fill="#FFFFFF"
   cx="77.85"
   cy="133.617"
   r="3.775"
   id="circle22" />
		<circle
   fill="#FFFFFF"
   cx="86.66"
   cy="133.617"
   r="3.774"
   id="circle24" />
		<circle
   fill="#FFFFFF"
   cx="95.469"
   cy="133.617"
   r="3.775"
   id="circle26" />
		<circle
   fill="#FFFFFF"
   cx="104.279"
   cy="133.617"
   r="3.774"
   id="circle28" />
		<circle
   fill="#FFFFFF"
   cx="113.088"
   cy="133.617"
   r="3.775"
   id="circle30" />
	</g>
	<g
   id="g50">
		<circle
   fill="#FFFFFF"
   cx="51.421"
   cy="133.617"
   r="3.775"
   id="circle34" />
		<circle
   fill="#FFFFFF"
   cx="60.231"
   cy="133.617"
   r="3.775"
   id="circle36" />
		<circle
   fill="#FFFFFF"
   cx="69.041"
   cy="133.617"
   r="3.774"
   id="circle38" />
		<circle
   fill="#FFFFFF"
   cx="77.85"
   cy="133.617"
   r="3.775"
   id="circle40" />
		<circle
   fill="#FFFFFF"
   cx="86.66"
   cy="133.617"
   r="3.774"
   id="circle42" />
		<circle
   fill="#FFFFFF"
   cx="95.469"
   cy="133.617"
   r="3.775"
   id="circle44" />
		<circle
   fill="#FFFFFF"
   cx="104.279"
   cy="133.617"
   r="3.774"
   id="circle46" />
		<circle
   fill="#FFFFFF"
   cx="113.088"
   cy="133.617"
   r="3.775"
   id="circle48" />
	</g>
	<g
   id="g68">
		<circle
   fill="none"
   stroke="#000000"
   stroke-width="0.5"
   cx="51.421"
   cy="133.617"
   r="3.775"
   id="circle52" />
		<circle
   fill="none"
   stroke="#000000"
   stroke-width="0.5"
   cx="60.231"
   cy="133.617"
   r="3.775"
   id="circle54" />
		<circle
   fill="none"
   stroke="#000000"
   stroke-width="0.5"
   cx="69.041"
   cy="133.617"
   r="3.774"
   id="circle56" />
		<circle
   fill="none"
   stroke="#000000"
   stroke-width="0.5"
   cx="77.85"
   cy="133.617"
   r="3.775"
   id="circle58" />
		<circle
   fill="none"
   stroke="#000000"
   stroke-width="0.5"
   cx="86.66"
   cy="133.617"
   r="3.774"
   id="circle60" />
		<circle
   fill="none"
   stroke="#000000"
   stroke-width="0.5"
   cx="95.469"
   cy="133.617"
   r="3.775"
   id="circle62" />
		<circle
   fill="none"
   stroke="#000000"
   stroke-width="0.5"
   cx="104.279"
   cy="133.617"
   r="3.774"
   id="circle64" />
		<circle
   fill="none"
   stroke="#000000"
   stroke-width="0.5"
   cx="113.088"
   cy="133.617"
   r="3.775"
   id="circle66" />
	</g>
</g>
<g
   id="g126">
	<g
   id="g88">
		<circle
   fill="#FFFFFF"
   cx="51.421"
   cy="142.687"
   r="3.775"
   id="circle72" />
		<circle
   fill="#FFFFFF"
   cx="60.231"
   cy="142.687"
   r="3.775"
   id="circle74" />
		<circle
   fill="#FFFFFF"
   cx="69.041"
   cy="142.687"
   r="3.774"
   id="circle76" />
		<circle
   fill="#FFFFFF"
   cx="77.85"
   cy="142.687"
   r="3.775"
   id="circle78" />
		<circle
   fill="#FFFFFF"
   cx="86.66"
   cy="142.687"
   r="3.774"
   id="circle80" />
		<circle
   fill="#FFFFFF"
   cx="95.469"
   cy="142.687"
   r="3.775"
   id="circle82" />
		<circle
   fill="#FFFFFF"
   cx="104.279"
   cy="142.687"
   r="3.774"
   id="circle84" />
		<circle
   fill="#FFFFFF"
   cx="113.088"
   cy="142.687"
   r="3.775"
   id="circle86" />
	</g>
	<g
   id="g106">
		<circle
   fill="#FFFFFF"
   cx="51.421"
   cy="142.687"
   r="3.775"
   id="circle90" />
		<circle
   fill="#FFFFFF"
   cx="60.231"
   cy="142.687"
   r="3.775"
   id="circle92" />
		<circle
   fill="#FFFFFF"
   cx="69.041"
   cy="142.687"
   r="3.774"
   id="circle94" />
		<circle
   fill="#FFFFFF"
   cx="77.85"
   cy="142.687"
   r="3.775"
   id="circle96" />
		<circle
   fill="#FFFFFF"
   cx="86.66"
   cy="142.687"
   r="3.774"
   id="circle98" />
		<circle
   fill="#FFFFFF"
   cx="95.469"
   cy="142.687"
   r="3.775"
   id="circle100" />
		<circle
   fill="#FFFFFF"
   cx="104.279"
   cy="142.687"
   r="3.774"
   id="circle102" />
		<circle
   fill="#FFFFFF"
   cx="113.088"
   cy="142.687"
   r="3.775"
   id="circle104" />
	</g>
	<g
   id="g124">
		<circle
   fill="none"
   stroke="#000000"
   stroke-width="0.5"
   cx="51.421"
   cy="142.687"
   r="3.775"
   id="circle108" />
		<circle
   fill="none"
   stroke="#000000"
   stroke-width="0.5"
   cx="60.231"
   cy="142.687"
   r="3.775"
   id="circle110" />
		<circle
   fill="none"
   stroke="#000000"
   stroke-width="0.5"
   cx="69.041"
   cy="142.687"
   r="3.774"
   id="circle112" />
		<circle
   fill="none"
   stroke="#000000"
   stroke-width="0.5"
   cx="77.85"
   cy="142.687"
   r="3.775"
   id="circle114" />
		<circle
   fill="none"
   stroke="#000000"
   stroke-width="0.5"
   cx="86.66"
   cy="142.687"
   r="3.774"
   id="circle116" />
		<circle
   fill="none"
   stroke="#000000"
   stroke-width="0.5"
   cx="95.469"
   cy="142.687"
   r="3.775"
   id="circle118" />
		<circle
   fill="none"
   stroke="#000000"
   stroke-width="0.5"
   cx="104.279"
   cy="142.687"
   r="3.774"
   id="circle120" />
		<circle
   fill="none"
   stroke="#000000"
   stroke-width="0.5"
   cx="113.088"
   cy="142.687"
   r="3.775"
   id="circle122" />
	</g>
</g>
<text
   transform="matrix(1 0 0 1 172.0601 126.8481)"
   font-family="'Helvetica'"
   font-size="9"
   id="text128">pool1</text>
<g
   id="g184">
	<g
   id="g146">
		<circle
   fill="#FFFFFF"
   cx="174.084"
   cy="133.617"
   r="3.775"
   id="circle130" />
		<circle
   fill="#FFFFFF"
   cx="182.894"
   cy="133.617"
   r="3.775"
   id="circle132" />
		<circle
   fill="#FFFFFF"
   cx="191.704"
   cy="133.617"
   r="3.774"
   id="circle134" />
		<circle
   fill="#FFFFFF"
   cx="200.513"
   cy="133.617"
   r="3.775"
   id="circle136" />
		<circle
   fill="#FFFFFF"
   cx="209.323"
   cy="133.617"
   r="3.774"
   id="circle138" />
		<circle
   fill="#FFFFFF"
   cx="218.132"
   cy="133.617"
   r="3.775"
   id="circle140" />
		<circle
   fill="#FFFFFF"
   cx="226.942"
   cy="133.617"
   r="3.774"
   id="circle142" />
		<circle
   fill="#FFFFFF"
   cx="235.751"
   cy="133.617"
   r="3.775"
   id="circle144" />
	</g>
	<g
   id="g164">
		<circle
   fill="#FFFFFF"
   cx="174.084"
   cy="133.617"
   r="3.775"
   id="circle148" />
		<circle
   fill="#FFFFFF"
   cx="182.894"
   cy="133.617"
   r="3.775"
   id="circle150" />
		<circle
   fill="#FFFFFF"
   cx="191.704"
   cy="133.617"
   r="3.774"
   id="circle152" />
		<circle
   fill="#FFFFFF"
   cx="200.513"
   cy="133.617"
   r="3.775"
   id="circle154" />
		<circle
   fill="#FFFFFF"
   cx="209.323"
   cy="133.617"
   r="3.774"
   id="circle156" />
		<circle
   fill="#FFFFFF"
   cx="218.132"
   cy="133.617"
   r="3.775"
   id="circle158" />
		<circle
   fill="#FFFFFF"
   cx="226.942"
   cy="133.617"
   r="3.774"
   id="circle160" />
		<circle
   fill="#FFFFFF"
   cx="235.751"
   cy="133.617"
   r="3.775"
   id="circle162" />
	</g>
	<g
   id="g182">
		<circle
   fill="none"
   stroke="#000000"
   stroke-width="0.5"
   cx="174.084"
   cy="133.617"
   r="3.775"
   id="circle166" />
		<circle
   fill="none"
   stroke="#000000"
   stroke-width="0.5"
   cx="182.894"
   cy="133.617"
   r="3.775"
   id="circle168" />
		<circle
   fill="none"
   stroke="#000000"
   stroke-width="0.5"
   cx="191.704"
   cy="133.617"
   r="3.774"
   id="circle170" />
		<circle
   fill="none"
   stroke="#000000"
   stroke-width="0.5"
   cx="200.513"
   cy="133.617"
   r="3.775"
   id="circle172" />
		<circle
   fill="none"
   stroke="#000000"
   stroke-width="0.5"
   cx="209.323"
   cy="133.617"
   r="3.774"
   id="circle174" />
		<circle
   fill="none"
   stroke="#000000"
   stroke-width="0.5"
   cx="218.132"
   cy="133.617"
   r="3.775"
   id="circle176" />
		<circle
   fill="none"
   stroke="#000000"
   stroke-width="0.5"
   cx="226.942"
   cy="133.617"
   r="3.774"
   id="circle178" />
		<circle
   fill="none"
   stroke="#000000"
   stroke-width="0.5"
   cx="235.751"
   cy="133.617"
   r="3.775"
   id="circle180" />
	</g>
</g>
<g
   id="g240">
	<g
   id="g202">
		<circle
   fill="#FFFFFF"
   cx="174.084"
   cy="142.687"
   r="3.775"
   id="circle186" />
		<circle
   fill="#FFFFFF"
   cx="182.894"
   cy="142.687"
   r="3.775"
   id="circle188" />
		<circle
   fill="#FFFFFF"
   cx="191.704"
   cy="142.687"
   r="3.774"
   id="circle190" />
		<circle
   fill="#FFFFFF"
   cx="200.513"
   cy="142.687"
   r="3.775"
   id="circle192" />
		<circle
   fill="#FFFFFF"
   cx="209.323"
   cy="142.687"
   r="3.774"
   id="circle194" />
		<circle
   fill="#FFFFFF"
   cx="218.132"
   cy="142.687"
   r="3.775"
   id="circle196" />
		<circle
   fill="#FFFFFF"
   cx="226.942"
   cy="142.687"
   r="3.774"
   id="circle198" />
		<circle
   fill="#FFFFFF"
   cx="235.751"
   cy="142.687"
   r="3.775"
   id="circle200" />
	</g>
	<g
   id="g220">
		<circle
   fill="#FFFFFF"
   cx="174.084"
   cy="142.687"
   r="3.775"
   id="circle204" />
		<circle
   fill="#FFFFFF"
   cx="182.894"
   cy="142.687"
   r="3.775"
   id="circle206" />
		<circle
   fill="#FFFFFF"
   cx="191.704"
   cy="142.687"
   r="3.774"
   id="circle208" />
		<circle
   fill="#FFFFFF"
   cx="200.513"
   cy="142.687"
   r="3.775"
   id="circle210" />
		<circle
   fill="#FFFFFF"
   cx="209.323"
   cy="142.687"
   r="3.774"
   id="circle212" />
		<circle
   fill="#FFFFFF"
   cx="218.132"
   cy="142.687"
   r="3.775"
   id="circle214" />
		<circle
   fill="#FFFFFF"
   cx="226.942"
   cy="142.687"
   r="3.774"
   id="circle216" />
		<circle
   fill="#FFFFFF"
   cx="235.751"
   cy="142.687"
   r="3.775"
   id="circle218" />
	</g>
	<g
   id="g238">
		<circle
   fill="none"
   stroke="#000000"
   stroke-width="0.5"
   cx="174.084"
   cy="142.687"
   r="3.775"
   id="circle222" />
		<circle
   fill="none"
   stroke="#000000"
   stroke-width="0.5"
   cx="182.894"
   cy="142.687"
   r="3.775"
   id="circle224" />
		<circle
   fill="none"
   stroke="#000000"
   stroke-width="0.5"
   cx="191.704"
   cy="142.687"
   r="3.774"
   id="circle226" />
		<circle
   fill="none"
   stroke="#000000"
   stroke-width="0.5"
   cx="200.513"
   cy="142.687"
   r="3.775"
   id="circle228" />
		<circle
   fill="none"
   stroke="#000000"
   stroke-width="0.5"
   cx="209.323"
   cy="142.687"
   r="3.774"
   id="circle230" />
		<circle
   fill="none"
   stroke="#000000"
   stroke-width="0.5"
   cx="218.132"
   cy="142.687"
   r="3.775"
   id="circle232" />
		<circle
   fill="none"
   stroke="#000000"
   stroke-width="0.5"
   cx="226.942"
   cy="142.687"
   r="3.774"
   id="circle234" />
		<circle
   fill="none"
   stroke="#000000"
   stroke-width="0.5"
   cx="235.751"
   cy="142.687"
   r="3.775"
   id="circle236" />
	</g>
</g>
<circle
   fill="#999999"
   stroke="#000000"
   stroke-width="0.5"
   cx="49.244"
   cy="57.706"
   r="3.775"
   id="circle242" />
<circle
   fill="#999999"
   stroke="#000000"
   stroke-width="0.5"
   cx="58.054"
   cy="57.706"
   r="3.775"
   id="circle244" />
<circle
   fill="#999999"
   stroke="#000000"
   stroke-width="0.5"
   cx="66.864"
   cy="57.706"
   r="3.774"
   id="circle246" />
<circle
   fill="#999999"
   stroke="#000000"
   stroke-width="0.5"
   cx="75.673"
   cy="57.706"
   r="3.775"
   id="circle248" />
<circle
   fill="#999999"
   stroke="#000000"
   stroke-width="0.5"
   cx="84.483"
   cy="57.706"
   r="3.774"
   id="circle250" />
<circle
   fill="#999999"
   stroke="#000000"
   stroke-width="0.5"
   cx="93.292"
   cy="57.706"
   r="3.775"
   id="circle252" />
<circle
   fill="none"
   stroke="#000000"
   stroke-width="0.5"
   cx="112.178"
   cy="57.706"
   r="3.774"
   id="circle254" />
<circle
   fill="none"
   stroke="#000000"
   stroke-width="0.5"
   cx="112.178"
   cy="57.705"
   r="2.265"
   id="circle256" />
<circle
   stroke="#000000"
   stroke-width="0.5"
   cx="112.177"
   cy="57.705"
   r="0.943"
   id="circle258" />
<circle
   stroke="#000000"
   stroke-width="0.5"
   cx="102.849"
   cy="57.706"
   r="3.775"
   id="circle260" />
<circle
   fill="#999999"
   stroke="#000000"
   stroke-width="0.5"
   cx="49.244"
   cy="68.194"
   r="3.775"
   id="circle262" />
<circle
   fill="#999999"
   stroke="#000000"
   stroke-width="0.5"
   cx="58.054"
   cy="68.194"
   r="3.775"
   id="circle264" />
<circle
   fill="#999999"
   stroke="#000000"
   stroke-width="0.5"
   cx="66.864"
   cy="68.194"
   r="3.774"
   id="circle266" />
<circle
   fill="#999999"
   stroke="#000000"
   stroke-width="0.5"
   cx="75.673"
   cy="68.194"
   r="3.775"
   id="circle268" />
<circle
   fill="#999999"
   stroke="#000000"
   stroke-width="0.5"
   cx="84.483"
   cy="68.194"
   r="3.774"
   id="circle270" />
<circle
   fill="#999999"
   stroke="#000000"
   stroke-width="0.5"
   cx="93.292"
   cy="68.194"
   r="3.775"
   id="circle272" />
<circle
   fill="none"
   stroke="#000000"
   stroke-width="0.5"
   cx="112.178"
   cy="68.194"
   r="3.774"
   id="circle274" />
<circle
   stroke="#000000"
   stroke-width="0.5"
   cx="112.177"
   cy="68.193"
   r="0.943"
   id="circle276" />
<circle
   fill="none"
   stroke="#000000"
   stroke-width="0.5"
   cx="112.178"
   cy="68.193"
   r="2.265"
   id="circle278" />
<circle
   stroke="#000000"
   stroke-width="0.5"
   cx="102.849"
   cy="68.194"
   r="3.775"
   id="circle280" />
<circle
   fill="#999999"
   stroke="#000000"
   stroke-width="0.5"
   cx="49.244"
   cy="78.682"
   r="3.775"
   id="circle282" />
<circle
   fill="#999999"
   stroke="#000000"
   stroke-width="0.5"
   cx="58.054"
   cy="78.682"
   r="3.775"
   id="circle284" />
<circle
   fill="#999999"
   stroke="#000000"
   stroke-width="0.5"
   cx="66.864"
   cy="78.682"
   r="3.774"
   id="circle286" />
<circle
   fill="#999999"
   stroke="#000000"
   stroke-width="0.5"
   cx="75.673"
   cy="78.682"
   r="3.775"
   id="circle288" />
<circle
   fill="#999999"
   stroke="#000000"
   stroke-width="0.5"
   cx="84.483"
   cy="78.682"
   r="3.774"
   id="circle290" />
<circle
   fill="#999999"
   stroke="#000000"
   stroke-width="0.5"
   cx="93.292"
   cy="78.682"
   r="3.775"
   id="circle292" />
<circle
   fill="none"
   stroke="#000000"
   stroke-width="0.5"
   cx="112.178"
   cy="78.682"
   r="3.774"
   id="circle294" />
<circle
   stroke="#000000"
   stroke-width="0.5"
   cx="112.177"
   cy="78.681"
   r="0.943"
   id="circle296" />
<circle
   fill="none"
   stroke="#000000"
   stroke-width="0.5"
   cx="112.178"
   cy="78.681"
   r="2.265"
   id="circle298" />
<circle
   stroke="#000000"
   stroke-width="0.5"
   cx="102.849"
   cy="78.682"
   r="3.775"
   id="circle300" />
<circle
   fill="#999999"
   stroke="#000000"
   stroke-width="0.5"
   cx="49.244"
   cy="88.76"
   r="3.775"
   id="circle302" />
<circle
   fill="#999999"
   stroke="#000000"
   stroke-width="0.5"
   cx="58.054"
   cy="88.76"
   r="3.775"
   id="circle304" />
<circle
   fill="#999999"
   stroke="#000000"
   stroke-width="0.5"
   cx="66.864"
   cy="88.76"
   r="3.774"
   id="circle306" />
<circle
   fill="#999999"
   stroke="#000000"
   stroke-width="0.5"
   cx="75.673"
   cy="88.76"
   r="3.775"
   id="circle308" />
<circle
   fill="#999999"
   stroke="#000000"
   stroke-width="0.5"
   cx="84.483"
   cy="88.76"
   r="3.774"
   id="circle310" />
<circle
   fill="#999999"
   stroke="#000000"
   stroke-width="0.5"
   cx="93.292"
   cy="88.76"
   r="3.775"
   id="circle312" />
<circle
   fill="none"
   stroke="#000000"
   stroke-width="0.5"
   cx="112.178"
   cy="88.76"
   r="3.774"
   id="circle314" />
<circle
   stroke="#000000"
   stroke-width="0.5"
   cx="112.177"
   cy="88.759"
   r="0.943"
   id="circle316" />
<circle
   fill="none"
   stroke="#000000"
   stroke-width="0.5"
   cx="112.178"
   cy="88.759"
   r="2.265"
   id="circle318" />
<circle
   stroke="#000000"
   stroke-width="0.5"
   cx="102.849"
   cy="88.76"
   r="3.775"
   id="circle320" />
<text
   transform="matrix(1 0 0 1 7.4082 59.9946)"
   id="text330"><tspan
     x="0"
     y="0"
     font-family="'Helvetica'"
     font-size="9"
     id="tspan322">rg0 </tspan><tspan
     x="0"
     y="11"
     font-family="'Helvetica'"
     font-size="9"
     id="tspan324">rg1 </tspan><tspan
     x="0"
     y="22"
     font-family="'Helvetica'"
     font-size="9"
     id="tspan326">rg2 </tspan><tspan
     x="0"
     y="33"
     font-family="'Helvetica'"
     font-size="9"
     id="tspan328">rg3</tspan></text>
<g
   id="g336">
	
		<line
   fill="none"
   stroke="#FFFFFF"
   stroke-width="3"
   stroke-linecap="round"
   stroke-linejoin="round"
   x1="24.357"
   y1="57.632"
   x2="42.046"
   y2="57.632"
   id="line332" />
	
		<line
   fill="none"
   stroke="#000000"
   stroke-width="0.5"
   stroke-linecap="round"
   stroke-linejoin="round"
   x1="24.357"
   y1="57.632"
   x2="42.046"
   y2="57.632"
   id="line334" />
</g>
<g
   id="g342">
	
		<line
   fill="none"
   stroke="#FFFFFF"
   stroke-width="3"
   stroke-linecap="round"
   stroke-linejoin="round"
   x1="24.201"
   y1="68.632"
   x2="42.046"
   y2="68.632"
   id="line338" />
	
		<line
   fill="none"
   stroke="#000000"
   stroke-width="0.5"
   stroke-linecap="round"
   stroke-linejoin="round"
   x1="24.201"
   y1="68.632"
   x2="42.046"
   y2="68.632"
   id="line340" />
</g>
<g
   id="g348">
	
		<line
   fill="none"
   stroke="#FFFFFF"
   stroke-width="3"
   stroke-linecap="round"
   stroke-linejoin="round"
   x1="24.451"
   y1="79.632"
   x2="42.046"
   y2="79.632"
   id="line344" />
	
		<line
   fill="none"
   stroke="#000000"
   stroke-width="0.5"
   stroke-linecap="round"
   stroke-linejoin="round"
   x1="24.451"
   y1="79.632"
   x2="42.046"
   y2="79.632"
   id="line346" />
</g>
<g
   id="g354">
	
		<line
   fill="none"
   stroke="#FFFFFF"
   stroke-width="3"
   stroke-linecap="round"
   stroke-linejoin="round"
   x1="24.201"
   y1="89.625"
   x2="42.046"
   y2="89.625"
   id="line350" />
	
		<line
   fill="none"
   stroke="#000000"
   stroke-width="0.5"
   stroke-linecap="round"
   stroke-linejoin="round"
   x1="24.201"
   y1="89.625"
   x2="42.046"
   y2="89.625"
   id="line352" />
</g>
<path
   fill="none"
   stroke="#A7A9AC"
   stroke-width="2"
   stroke-dasharray="6"
   d="M251.412,89.263c0,5.965-4.834,10.801-10.799,10.801  h-71.491c-5.964,0-10.8-4.836-10.8-10.801V56.292c0-5.964,4.836-10.799,10.8-10.799h71.491c5.965,0,10.799,4.835,10.799,10.799  V89.263z"
   id="path356" />
<circle
   fill="#999999"
   stroke="#000000"
   stroke-width="0.5"
   cx="174.084"
   cy="57.706"
   r="3.775"
   id="circle358" />
<circle
   fill="#999999"
   stroke="#000000"
   stroke-width="0.5"
   cx="182.894"
   cy="57.706"
   r="3.775"
   id="circle360" />
<circle
   fill="#999999"
   stroke="#000000"
   stroke-width="0.5"
   cx="191.704"
   cy="57.706"
   r="3.774"
   id="circle362" />
<circle
   fill="#999999"
   stroke="#000000"
   stroke-width="0.5"
   cx="200.513"
   cy="57.706"
   r="3.775"
   id="circle364" />
<circle
   fill="#999999"
   stroke="#000000"
   stroke-width="0.5"
   cx="209.323"
   cy="57.706"
   r="3.774"
   id="circle366" />
<circle
   fill="#999999"
   stroke="#000000"
   stroke-width="0.5"
   cx="218.132"
   cy="57.706"
   r="3.775"
   id="circle368" />
<circle
   fill="none"
   stroke="#000000"
   stroke-width="0.5"
   cx="237.018"
   cy="57.706"
   r="3.774"
   id="circle370" />
<circle
   fill="none"
   stroke="#000000"
   stroke-width="0.5"
   cx="237.018"
   cy="57.705"
   r="2.265"
   id="circle372" />
<circle
   stroke="#000000"
   stroke-width="0.5"
   cx="237.017"
   cy="57.705"
   r="0.943"
   id="circle374" />
<circle
   stroke="#000000"
   stroke-width="0.5"
   cx="227.689"
   cy="57.706"
   r="3.775"
   id="circle376" />
<circle
   fill="#999999"
   stroke="#000000"
   stroke-width="0.5"
   cx="174.084"
   cy="68.194"
   r="3.775"
   id="circle378" />
<circle
   fill="#999999"
   stroke="#000000"
   stroke-width="0.5"
   cx="182.894"
   cy="68.194"
   r="3.775"
   id="circle380" />
<circle
   fill="#999999"
   stroke="#000000"
   stroke-width="0.5"
   cx="191.704"
   cy="68.194"
   r="3.774"
   id="circle382" />
<circle
   fill="#999999"
   stroke="#000000"
   stroke-width="0.5"
   cx="200.513"
   cy="68.194"
   r="3.775"
   id="circle384" />
<circle
   fill="#999999"
   stroke="#000000"
   stroke-width="0.5"
   cx="209.323"
   cy="68.194"
   r="3.774"
   id="circle386" />
<circle
   fill="#999999"
   stroke="#000000"
   stroke-width="0.5"
   cx="218.132"
   cy="68.194"
   r="3.775"
   id="circle388" />
<circle
   fill="none"
   stroke="#000000"
   stroke-width="0.5"
   cx="237.018"
   cy="68.194"
   r="3.774"
   id="circle390" />
<circle
   stroke="#000000"
   stroke-width="0.5"
   cx="237.017"
   cy="68.193"
   r="0.943"
   id="circle392" />
<circle
   fill="none"
   stroke="#000000"
   stroke-width="0.5"
   cx="237.018"
   cy="68.193"
   r="2.265"
   id="circle394" />
<circle
   stroke="#000000"
   stroke-width="0.5"
   cx="227.689"
   cy="68.194"
   r="3.775"
   id="circle396" />
<circle
   fill="#999999"
   stroke="#000000"
   stroke-width="0.5"
   cx="174.084"
   cy="78.682"
   r="3.775"
   id="circle398" />
<circle
   fill="#999999"
   stroke="#000000"
   stroke-width="0.5"
   cx="182.894"
   cy="78.682"
   r="3.775"
   id="circle400" />
<circle
   fill="#999999"
   stroke="#000000"
   stroke-width="0.5"
   cx="191.704"
   cy="78.682"
   r="3.774"
   id="circle402" />
<circle
   fill="#999999"
   stroke="#000000"
   stroke-width="0.5"
   cx="200.513"
   cy="78.682"
   r="3.775"
   id="circle404" />
<circle
   fill="#999999"
   stroke="#000000"
   stroke-width="0.5"
   cx="209.323"
   cy="78.682"
   r="3.774"
   id="circle406" />
<circle
   fill="#999999"
   stroke="#000000"
   stroke-width="0.5"
   cx="218.132"
   cy="78.682"
   r="3.775"
   id="circle408" />
<circle
   fill="none"
   stroke="#000000"
   stroke-width="0.5"
   cx="237.018"
   cy="78.682"
   r="3.774"
   id="circle410" />
<circle
   stroke="#000000"
   stroke-width="0.5"
   cx="237.017"
   cy="78.681"
   r="0.943"
   id="circle412" />
<circle
   fill="none"
   stroke="#000000"
   stroke-width="0.5"
   cx="237.018"
   cy="78.681"
   r="2.265"
   id="circle414" />
<circle
   stroke="#000000"
   stroke-width="0.5"
   cx="227.689"
   cy="78.682"
   r="3.775"
   id="circle416" />
<circle
   fill="#999999"
   stroke="#000000"
   stroke-width="0.5"
   cx="174.084"
   cy="88.76"
   r="3.775"
   id="circle418" />
<circle
   fill="#999999"
   stroke="#000000"
   stroke-width="0.5"
   cx="182.894"
   cy="88.76"
   r="3.775"
   id="circle420" />
<circle
   fill="#999999"
   stroke="#000000"
   stroke-width="0.5"
   cx="191.704"
   cy="88.76"
   r="3.774"
   id="circle422" />
<circle
   fill="#999999"
   stroke="#000000"
   stroke-width="0.5"
   cx="200.513"
   cy="88.76"
   r="3.775"
   id="circle424" />
<circle
   fill="#999999"
   stroke="#000000"
   stroke-width="0.5"
   cx="209.323"
   cy="88.76"
   r="3.774"
   id="circle426" />
<circle
   fill="#999999"
   stroke="#000000"
   stroke-width="0.5"
   cx="218.132"
   cy="88.76"
   r="3.775"
   id="circle428" />
<circle
   fill="none"
   stroke="#000000"
   stroke-width="0.5"
   cx="237.018"
   cy="88.76"
   r="3.774"
   id="circle430" />
<circle
   stroke="#000000"
   stroke-width="0.5"
   cx="237.017"
   cy="88.759"
   r="0.943"
   id="circle432" />
<circle
   fill="none"
   stroke="#000000"
   stroke-width="0.5"
   cx="237.018"
   cy="88.759"
   r="2.265"
   id="circle434" />
<circle
   stroke="#000000"
   stroke-width="0.5"
   cx="227.689"
   cy="88.76"
   r="3.775"
   id="circle436" />
<text
   transform="matrix(1 0 0 1 137.3286 60.1196)"
   id="text446"><tspan
     x="0"
     y="0"
     font-family="'Helvetica'"
     font-size="9"
     id="tspan438">rg0 </tspan><tspan
     x="0"
     y="11"
     font-family="'Helvetica'"
     font-size="9"
     id="tspan440">rg1 </tspan><tspan
     x="0"
     y="22"
     font-family="'Helvetica'"
     font-size="9"
     id="tspan442">rg2 </tspan><tspan
     x="0"
     y="33"
     font-family="'Helvetica'"
     font-size="9"
     id="tspan444">rg3</tspan></text>
<g
   id="g452">
	
		<line
   fill="none"
   stroke="#FFFFFF"
   stroke-width="3"
   stroke-linecap="round"
   stroke-linejoin="round"
   x1="152.205"
   y1="57.632"
   x2="166.886"
   y2="57.632"
   id="line448" />
	
		<line
   fill="none"
   stroke="#000000"
   stroke-width="0.5"
   stroke-linecap="round"
   stroke-linejoin="round"
   x1="152.205"
   y1="57.632"
   x2="166.886"
   y2="57.632"
   id="line450" />
</g>
<g
   id="g458">
	
		<line
   fill="none"
   stroke="#FFFFFF"
   stroke-width="3"
   stroke-linecap="round"
   stroke-linejoin="round"
   x1="152.205"
   y1="68.632"
   x2="166.886"
   y2="68.632"
   id="line454" />
	
		<line
   fill="none"
   stroke="#000000"
   stroke-width="0.5"
   stroke-linecap="round"
   stroke-linejoin="round"
   x1="152.205"
   y1="68.632"
   x2="166.886"
   y2="68.632"
   id="line456" />
</g>
<g
   id="g464">
	
		<line
   fill="none"
   stroke="#FFFFFF"
   stroke-width="3"
   stroke-linecap="round"
   stroke-linejoin="round"
   x1="152.205"
   y1="79.632"
   x2="166.886"
   y2="79.632"
   id="line460" />
	
		<line
   fill="none"
   stroke="#000000"
   stroke-width="0.5"
   stroke-linecap="round"
   stroke-linejoin="round"
   x1="152.205"
   y1="79.632"
   x2="166.886"
   y2="79.632"
   id="line462" />
</g>
<g
   id="g470">
	
		<line
   fill="none"
   stroke="#FFFFFF"
   stroke-width="3"
   stroke-linecap="round"
   stroke-linejoin="round"
   x1="152.205"
   y1="89.625"
   x2="166.886"
   y2="89.625"
   id="line466" />
	
		<line
   fill="none"
   stroke="#000000"
   stroke-width="0.5"
   stroke-linecap="round"
   stroke-linejoin="round"
   x1="152.205"
   y1="89.625"
   x2="166.886"
   y2="89.625"
   id="line468" />
</g>
<circle
   fill="#999999"
   stroke="#000000"
   stroke-width="0.5"
   cx="77.75"
   cy="185.769"
   r="3.774"
   id="circle472" />
<circle
   fill="#999999"
   stroke="#000000"
   stroke-width="0.5"
   cx="59.911"
   cy="221.032"
   r="3.774"
   id="circle474" />
<circle
   fill="none"
   stroke="#000000"
   stroke-width="0.5"
   cx="77.981"
   cy="221.032"
   r="3.774"
   id="circle476" />
<circle
   fill="none"
   stroke="#000000"
   stroke-width="0.5"
   cx="77.981"
   cy="221.032"
   r="2.265"
   id="circle478" />
<circle
   stroke="#000000"
   stroke-width="0.5"
   cx="77.98"
   cy="221.031"
   r="0.944"
   id="circle480" />
<circle
   fill="#999999"
   stroke="#000000"
   stroke-width="0.5"
   cx="50.411"
   cy="221.032"
   r="3.774"
   id="circle482" />
<circle
   fill="#999999"
   stroke="#000000"
   stroke-width="0.5"
   cx="40.76"
   cy="221.032"
   r="3.774"
   id="circle484" />
<circle
   fill="#999999"
   stroke="#000000"
   stroke-width="0.5"
   cx="31.26"
   cy="221.032"
   r="3.774"
   id="circle486" />
<circle
   fill="#999999"
   stroke="#000000"
   stroke-width="0.5"
   cx="21.61"
   cy="221.032"
   r="3.774"
   id="circle488" />
<circle
   fill="#999999"
   stroke="#000000"
   stroke-width="0.5"
   cx="12.11"
   cy="221.032"
   r="3.774"
   id="circle490" />
<circle
   stroke="#000000"
   stroke-width="0.5"
   cx="68.65"
   cy="221.032"
   r="3.775"
   id="circle492" />
<circle
   stroke="#000000"
   stroke-width="0.5"
   cx="77.72"
   cy="197.667"
   r="3.775"
   id="circle494" />
<circle
   fill="none"
   stroke="#000000"
   stroke-width="0.5"
   cx="77.72"
   cy="209.417"
   r="3.775"
   id="circle496" />
<circle
   fill="none"
   stroke="#000000"
   stroke-width="0.5"
   cx="77.72"
   cy="209.416"
   r="2.266"
   id="circle498" />
<circle
   stroke="#000000"
   stroke-width="0.5"
   cx="77.72"
   cy="209.416"
   r="0.943"
   id="circle500" />
<text
   transform="matrix(1 0 0 1 87.0269 176.5723)"
   id="text512"><tspan
     x="0"
     y="0"
     font-family="'Helvetica'"
     font-size="9"
     id="tspan502">Spare disk </tspan><tspan
     x="0"
     y="12"
     font-family="'Helvetica'"
     font-size="9"
     id="tspan504">Data disk </tspan><tspan
     x="0"
     y="24"
     font-family="'Helvetica'"
     font-size="9"
     id="tspan506">Parity disk</tspan><tspan
     x="0"
     y="36"
     font-family="'Helvetica'"
     font-size="9"
     id="tspan508">dParity disk</tspan><tspan
     x="0"
     y="48"
     font-family="'Helvetica'"
     font-size="9"
     id="tspan510">RAID group</tspan></text>
<rect
   x="3.304"
   y="165.436"
   fill="none"
   stroke="#000000"
   stroke-width="0.5499"
   width="145.133"
   height="63.957"
   id="rect514" />
<circle
   fill="none"
   stroke="#000000"
   stroke-width="0.5"
   cx="77.526"
   cy="174.031"
   r="3.774"
   id="circle516" />
<text
   transform="matrix(1 0 0 1 6.6055 176.2969)"
   font-family="'Helvetica'"
   font-size="9"
   id="text518">Legend</text>
<polyline
   fill="none"
   stroke="#000000"
   stroke-width="0.5499"
   points="2.91,182.032 41.91,182.032 41.91,165.032 "
   id="polyline520" />
</svg>
