<?xml version="1.0" encoding="UTF-8"?><!-- Generator: Adobe Illustrator 16.0.3, SVG Export Plug-In . SVG Version: 6.00 Build 0)  --><!DOCTYPE svg PUBLIC "-//W3C//DTD SVG 1.1//EN" "http://www.w3.org/Graphics/SVG/1.1/DTD/svg11.dtd">
<svg xmlns="http://www.w3.org/2000/svg" xmlns:xlink="http://www.w3.org/1999/xlink" version="1.1" x="0px" y="0px" width="298px" height="142px" viewBox="0 0 298 142" enable-background="new 0 0 298 142" xml:space="preserve" preserveAspectRatio="xMidYMid meet" zoomAndPan="magnify" contentScriptType="application/ecmascript" contentStyleType="text/css">
<g id="Illustration">
	<polyline fill="none" stroke="#A7A9AC" stroke-width="2" points="140.646,50.942 140.646,76.942 154,110.106  "/>
	<line fill="none" stroke="#A7A9AC" stroke-width="2" x1="170.668" y1="50.942" x2="170.668" y2="98.106"/>
	<g>
		<line fill="none" stroke="#000000" stroke-width="0.75" x1="36.565" y1="36.024" x2="129.334" y2="36.024"/>
	</g>
	<g>
		<line fill="none" stroke="#000000" stroke-width="0.75" x1="182.625" y1="29.94" x2="194.878" y2="29.94"/>
	</g>
	<g>
		<line fill="none" stroke="#000000" stroke-width="0.75" x1="182.625" y1="46.426" x2="194.878" y2="46.426"/>
	</g>
	<g>
		<line fill="none" stroke="#A7A9AC" stroke-width="2" x1="171.186" y1="109.188" x2="263.953" y2="109.188"/>
	</g>
	<g>
		<rect x="23.667" y="38.191" fill="#FFFFFF" stroke="#000000" stroke-width="0.5" width="11.172" height="3.192"/>
		<path fill="#FFFFFF" stroke="#000000" stroke-width="0.5" d="M36.629,38.477c0.677,0,1.231-0.554,1.231-1.23V25.344    c0-0.677-0.554-1.23-1.231-1.23H21.991c-0.677,0-1.231,0.554-1.231,1.23v11.902c0,0.677,0.554,1.23,1.231,1.23H36.629z"/>
		<path fill="#DDDDDD" stroke="#000000" stroke-width="0.5" d="M35.297,36.652c0.406,0,0.739-0.332,0.739-0.738v-9.01    c0-0.406-0.333-0.739-0.739-0.739H23.323c-0.406,0-0.739,0.333-0.739,0.739v9.01c0,0.406,0.333,0.738,0.739,0.738H35.297z"/>
		<path fill="#FFFFFF" stroke="#000000" stroke-width="0.5" d="M41.111,46.115c0.406,0,0.739-0.333,0.739-0.738v-3.312    c0-0.406-0.333-0.738-0.739-0.738H17.509c-0.406,0-0.738,0.332-0.738,0.738v3.312c0,0.405,0.332,0.738,0.738,0.738H41.111z"/>
		<rect x="35.922" y="42.581" fill="#DDDDDD" stroke="#000000" stroke-width="0.5" width="5.016" height="0.912"/>
	</g>
	<g>
		<rect x="255.016" y="113.557" fill="#FFFFFF" stroke="#000000" stroke-width="0.5" width="11.172" height="3.192"/>
		<path fill="#FFFFFF" stroke="#000000" stroke-width="0.5" d="M267.977,113.842c0.678,0,1.231-0.554,1.231-1.23v-11.902    c0-0.677-0.554-1.23-1.231-1.23h-14.638c-0.677,0-1.231,0.554-1.231,1.23v11.902c0,0.677,0.555,1.23,1.231,1.23H267.977z"/>
		<path fill="#DDDDDD" stroke="#000000" stroke-width="0.5" d="M266.645,112.018c0.406,0,0.739-0.332,0.739-0.738v-9.01    c0-0.406-0.333-0.739-0.739-0.739H254.67c-0.406,0-0.738,0.333-0.738,0.739v9.01c0,0.406,0.332,0.738,0.738,0.738H266.645z"/>
		<path fill="#FFFFFF" stroke="#000000" stroke-width="0.5" d="M272.459,121.48c0.406,0,0.738-0.333,0.738-0.738v-3.312    c0-0.406-0.332-0.738-0.738-0.738h-23.603c-0.406,0-0.738,0.332-0.738,0.738v3.312c0,0.405,0.332,0.738,0.738,0.738H272.459z"/>
		<rect x="267.27" y="117.946" fill="#DDDDDD" stroke="#000000" stroke-width="0.5" width="5.016" height="0.912"/>
	</g>
	<rect x="126.667" y="20.276" fill="#FFFFFF" stroke="#000000" width="55.333" height="32.666"/>
	<rect x="160.577" y="38.927" fill="#FFFFFF" stroke="#000000" width="21.333" height="14"/>
	<path fill="#FFFFFF" stroke="#000000" stroke-width="0.75" d="M185.004,127.519c7.211,6.154,15.117-5.541,8.264-9.739   c5.826,2.508,10.318-11.059,0.717-11.574c0.072,0.006,0.26-0.074,0.26-0.074c1.564-8.684-7.83-7.533-7.83-7.533   c-1.771-9.545-11.283-2.672-11.283-2.672c-0.785-9.043-17.258-1.879-12.766,2.004c-9.987-8.631-18.252,10.492-10.284,9.926   c-11.297,0.803-3.646,20.515,3.752,13.64c-7.504,6.973,12.424,14.875,14.918,5.826c-0.723,2.623,8.848,10.18,14.238,0.211   L185.004,127.519z"/>
	<polyline fill="none" stroke="#000000" stroke-width="0.5" points="114,75.778 138.667,70.276 138.667,70.276  "/>
</g>
<g id="Text">
	<text transform="matrix(1 0 0 1 6.5088 58.3643)" font-family="'Helvetica'" font-size="9">local admin</text>
	<text transform="matrix(1 0 0 1 174.5986 73.0273)"><tspan x="0" y="0" font-family="'Helvetica'" font-size="9">SP CLI (SSH) </tspan><tspan x="0" y="10.8" font-family="'Helvetica'" font-size="9">Ethernet</tspan></text>
	<text transform="matrix(1 0 0 1 207.5879 106.1953)" font-family="'Helvetica'" font-size="9">Ethernet</text>
	<text transform="matrix(1 0 0 1 40.9312 32.1006)" font-family="'Helvetica'" font-size="9">COM1</text>
	<text transform="matrix(1 0 0 1 95.5068 22.085)"><tspan x="0" y="0" font-family="'Helvetica'" font-size="9">serial </tspan><tspan x="-4.756" y="10" font-family="'Helvetica'" font-size="9">console</tspan></text>
	<text transform="matrix(1 0 0 1 165.2998 49.583)" font-family="'Helvetica'" font-size="9">SP</text>
	<text transform="matrix(1 0 0 1 156.3755 114.3311)" font-family="'Helvetica'" font-size="9">Network</text>
	<text transform="matrix(1 0 0 1 129.3569 29.9404)"><tspan x="0" y="0" font-family="'Helvetica'" font-size="9">Data</tspan><tspan x="0" y="10" font-family="'Helvetica'" font-size="9">ONTAP</tspan></text>
	<text transform="matrix(1 0 0 1 54.582 46.4258)" font-family="'Helvetica'" font-size="9">Data ONTAP CLI</text>
	<rect x="232.334" y="126.275" fill="none" width="59" height="9"/>
	<text transform="matrix(1 0 0 1 234.3252 132.7373)" font-family="'Helvetica'" font-size="9">remote admin</text>
	<rect x="124.001" y="7.276" fill="none" width="64" height="8.333"/>
	<text transform="matrix(1 0 0 1 137.4971 13.7383)" font-family="'Helvetica'" font-size="9">controller</text>
	<rect x="56.001" y="76.943" fill="none" width="74.667" height="38.667"/>
	<text transform="matrix(1 0 0 1 56.001 83.4053)"><tspan x="0" y="0" font-family="'Helvetica'" font-size="9">Network interfaces </tspan><tspan x="0" y="10" font-family="'Helvetica'" font-size="9">supported by the </tspan><tspan x="0" y="20" font-family="'Helvetica'" font-size="9">controller</tspan><tspan x="0" y="30" font-family="'Helvetica'" font-size="9">(Ethernet)</tspan></text>
	<rect x="197.655" y="17.455" fill="none" width="74.122" height="14.646"/>
	<text transform="matrix(1 0 0 1 197.6553 22.4814)"><tspan x="0" y="0" font-family="'Helvetica'" font-size="7">Ctrl-G to access SP</tspan><tspan x="0" y="8" font-family="'Helvetica'" font-size="7">from serial console</tspan></text>
	<rect x="198.322" y="39.787" fill="none" width="89.622" height="16.612"/>
	<text transform="matrix(1 0 0 1 198.3223 44.813)"><tspan x="0" y="0" font-family="'Helvetica'" font-size="7">Ctrl-D and Enter to exit SP</tspan><tspan x="0" y="8" font-family="'Helvetica'" font-size="7">and return to serial console</tspan></text>
</g>
</svg>