<?xml version="1.0" encoding="UTF-8"?><!-- Generator: Adobe Illustrator 12.0.0, SVG Export Plug-In . SVG Version: 6.00 Build 51448)  --><!DOCTYPE svg PUBLIC "-//W3C//DTD SVG 1.1//EN" "http://www.w3.org/Graphics/SVG/1.1/DTD/svg11.dtd">
<svg xmlns="http://www.w3.org/2000/svg" xmlns:xlink="http://www.w3.org/1999/xlink" version="1.1" width="326.5" height="234.629" viewBox="0 0 326.5 234.629" overflow="visible" enable-background="new 0 0 326.5 234.629" xml:space="preserve" preserveAspectRatio="xMidYMid meet" zoomAndPan="magnify" contentScriptType="application/ecmascript" contentStyleType="text/css">
<g id="outlines">
	
		<rect x="27.5" y="68.129" fill="#BCBEC0" stroke="#010101" stroke-linecap="round" stroke-linejoin="round" width="124.5" height="31.5"/>
	
		<rect x="177.5" y="68.129" fill="#BCBEC0" stroke="#010101" stroke-linecap="round" stroke-linejoin="round" width="124.5" height="31.5"/>
	
		<rect x="27.5" y="193.629" fill="#BCBEC0" stroke="#010101" stroke-linecap="round" stroke-linejoin="round" width="124.5" height="31.5"/>
	
		<rect x="177.5" y="193.629" fill="#BCBEC0" stroke="#010101" stroke-linecap="round" stroke-linejoin="round" width="124.5" height="31.5"/>
	<path fill="#BCBEC0" stroke="#010101" stroke-linecap="round" stroke-linejoin="round" d="M28,61.379"/>
	<polyline fill="#FFFFFF" stroke="#010101" stroke-width="0.5" stroke-linecap="round" stroke-linejoin="round" points="   27.875,61.504 69,61.504 59,21.879 37.5,21.879 28,61.379  "/>
	<polygon fill="#9D9FA1" stroke="#010101" stroke-width="0.5" stroke-linecap="round" stroke-linejoin="round" points="   30.625,59.629 66.25,59.629 57.125,23.379 39.625,23.379  "/>
	<polyline fill="#FFFFFF" stroke="#010101" stroke-width="0.5" stroke-linecap="round" stroke-linejoin="round" points="   258.875,61.504 300,61.504 290,21.879 268.5,21.879 259,61.379  "/>
	<polygon fill="#9D9FA1" stroke="#010101" stroke-width="0.5" stroke-linecap="round" stroke-linejoin="round" points="   261.625,59.629 297.25,59.629 288.125,23.379 270.625,23.379  "/>
	<polyline fill="#FFFFFF" stroke="#010101" stroke-width="0.5" stroke-linecap="round" stroke-linejoin="round" points="   258.875,187.504 300,187.504 290,147.879 268.5,147.879 259,187.379  "/>
	<polygon fill="#9D9FA1" stroke="#010101" stroke-width="0.5" stroke-linecap="round" stroke-linejoin="round" points="   261.625,185.629 297.25,185.629 288.125,149.379 270.625,149.379  "/>
	<polyline fill="#FFFFFF" stroke="#010101" stroke-width="0.5" stroke-linecap="round" stroke-linejoin="round" points="   27.875,187.504 69,187.504 59,147.879 37.5,147.879 28,187.379  "/>
	<polygon fill="#9D9FA1" stroke="#010101" stroke-width="0.5" stroke-linecap="round" stroke-linejoin="round" points="   30.625,185.629 66.25,185.629 57.125,149.379 39.625,149.379  "/>
</g>
<g id="icons">
	<g>
		<g>
			
				<rect x="156.762" y="0.25" fill="#B3B2B2" stroke="#010101" stroke-width="0.5" stroke-linecap="round" stroke-linejoin="round" width="23.238" height="33.509"/>
			<polyline fill="#B3B2B2" stroke="#010101" stroke-width="0.5" stroke-linecap="round" stroke-linejoin="round" points="     156.762,0.25 154.438,3.126 154.438,29.782 156.762,33.759    "/>
		</g>
		
			<rect x="158.587" y="1.653" fill="#FFFFFF" stroke="#010101" stroke-width="0.5" stroke-linecap="round" stroke-linejoin="round" width="19.627" height="13.418"/>
		
			<rect x="158.587" y="18.408" fill="#FFFFFF" stroke="#010101" stroke-width="0.5" stroke-linecap="round" stroke-linejoin="round" width="19.627" height="13.418"/>
		<g>
			<path fill="none" stroke="#010101" stroke-width="0.3" stroke-linecap="round" stroke-linejoin="round" d="M163.196,6.943     l1.073-3.759c0,0,3.008-0.107,3.545,0.752L166.74,7.48C166.74,7.48,166.096,6.729,163.196,6.943z"/>
			<path fill="none" stroke="#010101" stroke-width="0.3" stroke-linecap="round" stroke-linejoin="round" d="M161.801,11.562     l1.073-3.759c0,0,3.007-0.107,3.544,0.751l-1.074,3.544C165.344,12.099,164.699,11.347,161.801,11.562z"/>
			<path fill="none" stroke="#010101" stroke-width="0.3" stroke-linecap="round" stroke-linejoin="round" d="M171.136,9.215     l-1.122,3.746c0,0-3.008,0.071-3.534-0.797l1.118-3.533C167.598,8.631,168.232,9.394,171.136,9.215z"/>
			<path fill="none" stroke="#010101" stroke-width="0.3" stroke-linecap="round" stroke-linejoin="round" d="M172.588,4.616     l-1.121,3.744c0,0-3.008,0.068-3.533-0.795l1.117-3.534C169.051,4.03,169.686,4.792,172.588,4.616z"/>
		</g>
		<g>
			<path fill="none" stroke="#010101" stroke-width="0.3" stroke-linecap="round" stroke-linejoin="round" d="M161.276,23.815     l0.925-3.236c0,0,2.589-0.093,3.052,0.647l-0.925,3.051C164.328,24.277,163.772,23.63,161.276,23.815z"/>
			<path fill="none" stroke="#010101" stroke-width="0.3" stroke-linecap="round" stroke-linejoin="round" d="M160.074,27.791     l0.925-3.236c0,0,2.59-0.093,3.052,0.647l-0.925,3.051C163.126,28.253,162.571,27.606,160.074,27.791z"/>
			<path fill="none" stroke="#010101" stroke-width="0.3" stroke-linecap="round" stroke-linejoin="round" d="M168.112,25.771     l-0.966,3.225c0,0-2.59,0.061-3.043-0.686l0.963-3.042C165.066,25.269,165.613,25.924,168.112,25.771z"/>
			<path fill="none" stroke="#010101" stroke-width="0.3" stroke-linecap="round" stroke-linejoin="round" d="M169.363,21.812     l-0.965,3.223c0,0-2.591,0.059-3.043-0.685l0.963-3.042C166.318,21.307,166.863,21.963,169.363,21.812z"/>
		</g>
		<rect x="169" y="24.129" fill="none" width="13" height="7.5"/>
		<text transform="matrix(1 0 0 1 169 28.437)" font-family="'Helvetica'" font-size="6">OS</text>
	</g>
	<g>
		<g>
			
				<rect x="156.762" y="115.75" fill="#B3B2B2" stroke="#010101" stroke-width="0.5" stroke-linecap="round" stroke-linejoin="round" width="23.238" height="33.509"/>
			<polyline fill="#B3B2B2" stroke="#010101" stroke-width="0.5" stroke-linecap="round" stroke-linejoin="round" points="     156.762,115.75 154.438,118.626 154.438,145.281 156.762,149.259    "/>
		</g>
		
			<rect x="158.587" y="117.153" fill="#FFFFFF" stroke="#010101" stroke-width="0.5" stroke-linecap="round" stroke-linejoin="round" width="19.627" height="13.418"/>
		
			<rect x="158.587" y="133.908" fill="#FFFFFF" stroke="#010101" stroke-width="0.5" stroke-linecap="round" stroke-linejoin="round" width="19.627" height="13.418"/>
		<g>
			<path fill="none" stroke="#010101" stroke-width="0.3" stroke-linecap="round" stroke-linejoin="round" d="M163.196,122.443     l1.073-3.759c0,0,3.008-0.107,3.545,0.751l-1.074,3.545C166.74,122.98,166.096,122.229,163.196,122.443z"/>
			<path fill="none" stroke="#010101" stroke-width="0.3" stroke-linecap="round" stroke-linejoin="round" d="M161.801,127.062     l1.073-3.759c0,0,3.007-0.107,3.544,0.752l-1.074,3.544C165.344,127.599,164.699,126.847,161.801,127.062z"/>
			<path fill="none" stroke="#010101" stroke-width="0.3" stroke-linecap="round" stroke-linejoin="round" d="M171.136,124.715     l-1.122,3.746c0,0-3.008,0.07-3.534-0.797l1.118-3.533C167.598,124.131,168.232,124.894,171.136,124.715z"/>
			<path fill="none" stroke="#010101" stroke-width="0.3" stroke-linecap="round" stroke-linejoin="round" d="M172.588,120.116     l-1.121,3.743c0,0-3.008,0.068-3.533-0.795l1.117-3.534C169.051,119.53,169.686,120.292,172.588,120.116z"/>
		</g>
		<g>
			<path fill="none" stroke="#010101" stroke-width="0.3" stroke-linecap="round" stroke-linejoin="round" d="M161.276,139.314     l0.925-3.236c0,0,2.589-0.092,3.052,0.648l-0.925,3.051C164.328,139.777,163.772,139.131,161.276,139.314z"/>
			<path fill="none" stroke="#010101" stroke-width="0.3" stroke-linecap="round" stroke-linejoin="round" d="M160.074,143.291     l0.925-3.236c0,0,2.59-0.092,3.052,0.647l-0.925,3.051C163.126,143.753,162.571,143.106,160.074,143.291z"/>
			<path fill="none" stroke="#010101" stroke-width="0.3" stroke-linecap="round" stroke-linejoin="round" d="M168.112,141.271     l-0.966,3.225c0,0-2.59,0.061-3.043-0.686l0.963-3.042C165.066,140.769,165.613,141.424,168.112,141.271z"/>
			<path fill="none" stroke="#010101" stroke-width="0.3" stroke-linecap="round" stroke-linejoin="round" d="M169.363,137.312     l-0.965,3.224c0,0-2.591,0.059-3.043-0.686l0.963-3.043C166.318,136.807,166.863,137.463,169.363,137.312z"/>
		</g>
		<rect x="169" y="139.629" fill="none" width="13" height="7.5"/>
		<text transform="matrix(1 0 0 1 169 143.9375)" font-family="'Helvetica'" font-size="6">OS</text>
	</g>
</g>
<g id="text">
	
		<line fill="#9D9FA1" stroke="#010101" stroke-linecap="round" stroke-linejoin="round" x1="0.5" y1="107.629" x2="326" y2="107.629"/>
	<rect x="30" y="196.129" fill="none" width="35" height="13"/>
	<text transform="matrix(1 0 0 1 30 202.5908)" font-family="'Helvetica'" font-size="9">Node 1</text>
	<rect x="183" y="196.129" fill="none" width="35" height="13"/>
	<text transform="matrix(1 0 0 1 183 202.5908)" font-family="'Helvetica'" font-size="9">Node 2</text>
	<rect x="30" y="71.129" fill="none" width="35" height="13"/>
	<text transform="matrix(1 0 0 1 30 77.5908)" font-family="'Helvetica'" font-size="9">Node 1</text>
	<rect x="183" y="71.129" fill="none" width="35" height="13"/>
	<text transform="matrix(1 0 0 1 183 77.5908)" font-family="'Helvetica'" font-size="9">Node 2</text>
	<rect x="40" y="40.129" fill="none" width="22" height="9.5"/>
	<text transform="matrix(1 0 0 1 40 46.5908)" font-family="'Helvetica'" font-size="9">LIF1</text>
	<rect x="269" y="40.129" fill="none" width="22" height="9.5"/>
	<text transform="matrix(1 0 0 1 269 46.5908)" font-family="'Helvetica'" font-size="9">LIF2</text>
	<rect x="40" y="164.629" fill="none" width="22" height="9.5"/>
	<text transform="matrix(1 0 0 1 40 171.0908)" font-family="'Helvetica'" font-size="9">LIF1</text>
	<rect x="269" y="164.629" fill="none" width="22" height="9.5"/>
	<text transform="matrix(1 0 0 1 269 171.0908)" font-family="'Helvetica'" font-size="9">LIF2</text>
	<rect x="77.5" y="6.629" fill="none" width="34" height="9"/>
	<text transform="matrix(1 0 0 1 77.5 13.0908)" font-family="'Helvetica'" font-size="9">1. SMB</text>
	<rect x="82" y="39.129" fill="none" width="87" height="9"/>
	<text transform="matrix(1 0 0 1 82 45.5908)" font-family="'Helvetica'" font-size="9">2. Witness (discover)</text>
	<rect x="37.5" y="118.129" fill="none" width="87" height="9"/>
	<text transform="matrix(1 0 0 1 37.5 124.5908)" font-family="'Helvetica'" font-size="9">4. Failover </text>
	<rect x="203.5" y="128.129" fill="none" width="87" height="9"/>
	<text transform="matrix(1 0 0 1 203.5 134.5908)" font-family="'Helvetica'" font-size="9">5. Witness (report)</text>
	<rect x="178.5" y="162.129" fill="none" width="71.5" height="21"/>
	<text transform="matrix(1 0 0 1 178.5 168.5908)"><tspan x="0" y="0" font-family="'Helvetica'" font-size="9">6. SMB 3 </tspan><tspan x="0" y="10.8" font-family="'Helvetica'" font-size="9">    (reconnect)</tspan></text>
	<rect x="195.5" y="8.629" fill="none" width="87" height="9"/>
	<text transform="matrix(1 0 0 1 195.5 15.0908)" font-family="'Helvetica'" font-size="9">3. Witness (monitor)</text>
</g>
<g id="Layer_1">
	<polygon fill="#010101" stroke="#010101" points="152.763,8.82 150.684,10.664 148.605,12.507 147.936,11.067 147.266,9.628    150.014,9.224  "/>
	<polygon fill="#010101" stroke="#010101" points="153.162,24.973 150.814,26.458 148.467,27.943 148.037,26.415 147.607,24.887    150.384,24.929  "/>
	<polygon fill="#010101" stroke="#010101" points="65.317,39.516 67.605,37.939 69.892,36.363 70.382,37.873 70.872,39.383    68.094,39.449  "/>
	<polygon fill="#010101" stroke="#010101" points="181.851,15.524 184.625,15.7 187.397,15.875 186.849,17.364 186.3,18.854    184.075,17.189  "/>
	<polygon fill="#010101" stroke="#010101" points="260.79,42.315 258.276,42.116 255.766,41.918 256.383,40.456 257,38.994    258.895,40.654  "/>
	<polygon fill="#010101" stroke="#010101" points="263.79,162.064 261.276,161.866 258.766,161.668 259.383,160.206 260,158.744    261.895,160.404  "/>
	<polygon fill="#010101" stroke="#010101" points="259.727,177.953 257.23,177.595 254.737,177.236 255.447,175.817    256.156,174.397 257.94,176.176  "/>
	<polygon fill="#010101" stroke="#010101" points="181.138,131.679 183.903,131.96 186.667,132.242 186.062,133.71 185.456,135.177    183.297,133.429  "/>
	
		<line fill="#010101" stroke="#010101" stroke-width="0.5" stroke-linecap="round" stroke-linejoin="round" x1="69.5" y1="38.129" x2="148.5" y2="10.879"/>
	
		<line fill="#010101" stroke="#010101" stroke-width="0.5" stroke-linecap="round" stroke-linejoin="round" x1="70.75" y1="37.629" x2="151.25" y2="25.879"/>
	
		<line fill="none" stroke="#010101" stroke-width="0.5" stroke-linecap="round" stroke-linejoin="round" x1="182.5" y1="16.629" x2="259.75" y2="41.629"/>
	<polyline fill="none" stroke="#010101" stroke-width="0.5" stroke-linecap="round" stroke-linejoin="round" points="   262.25,161.629 183,132.629 258,177.379  "/>
	<g>
		
			<circle fill="none" stroke="#636466" stroke-width="10" stroke-linecap="round" stroke-linejoin="round" cx="107" cy="185.629" r="44"/>
		
			<rect x="68.026" y="179.901" transform="matrix(0.7937 0.6083 -0.6083 0.7937 134.3694 -28.1988)" fill="#636466" stroke="#636466" width="81.474" height="8.246"/>
	</g>
</g>
</svg>