<?xml version="1.0" encoding="UTF-8"?><!-- Generator: Adobe Illustrator 12.0.1, SVG Export Plug-In . SVG Version: 6.00 Build 51448)  --><!DOCTYPE svg PUBLIC "-//W3C//DTD SVG 1.1//EN" "http://www.w3.org/Graphics/SVG/1.1/DTD/svg11.dtd">
<svg xmlns="http://www.w3.org/2000/svg" xmlns:xlink="http://www.w3.org/1999/xlink" version="1.1" width="333.25" height="231.269" viewBox="0 0 333.25 231.269" overflow="visible" enable-background="new 0 0 333.25 231.269" xml:space="preserve" preserveAspectRatio="xMidYMid meet" zoomAndPan="magnify" contentScriptType="text/ecmascript" contentStyleType="text/css">
<g id="boxes">
	
		<rect x="112.917" y="16.269" fill="#CCCCCC" stroke="#000000" stroke-width="0.5" stroke-linecap="round" stroke-linejoin="round" width="46.334" height="24.667"/>
	
		<rect x="113.583" y="103.936" fill="#CCCCCC" stroke="#000000" stroke-width="0.5" stroke-linecap="round" stroke-linejoin="round" width="46.333" height="24.667"/>
	
		<rect x="41.083" y="103.936" fill="#CCCCCC" stroke="#000000" stroke-width="0.5" stroke-linecap="round" stroke-linejoin="round" width="46.333" height="24.667"/>
	
		<rect x="0.25" y="60.269" fill="#CCCCCC" stroke="#000000" stroke-width="0.5" stroke-linecap="round" stroke-linejoin="round" width="46.334" height="24.667"/>
	
		<rect x="57.25" y="60.269" fill="#CCCCCC" stroke="#000000" stroke-width="0.5" stroke-linecap="round" stroke-linejoin="round" width="46.334" height="24.667"/>
	
		<rect x="114.25" y="60.269" fill="#CCCCCC" stroke="#000000" stroke-width="0.5" stroke-linecap="round" stroke-linejoin="round" width="46.334" height="24.667"/>
	
		<rect x="171.25" y="60.269" fill="#CCCCCC" stroke="#000000" stroke-width="0.5" stroke-linecap="round" stroke-linejoin="round" width="46.334" height="24.667"/>
	
		<rect x="228.25" y="60.269" fill="#CCCCCC" stroke="#000000" stroke-width="0.5" stroke-linecap="round" stroke-linejoin="round" width="46.334" height="24.667"/>
	
		<rect x="54.917" y="141.936" fill="none" stroke="#000000" stroke-width="0.5" stroke-linecap="round" stroke-linejoin="round" width="46.667" height="24"/>
	
		<rect x="54.583" y="178.936" fill="none" stroke="#000000" stroke-width="0.5" stroke-linecap="round" stroke-linejoin="round" width="46.667" height="24"/>
	
		<rect x="172.25" y="177.936" fill="none" stroke="#000000" stroke-width="0.5" stroke-linecap="round" stroke-linejoin="round" width="46.667" height="24"/>
	
		<rect x="201.584" y="211.009" fill="#CCCCCC" stroke="#000000" stroke-width="0.5" stroke-linecap="round" stroke-linejoin="round" width="8.146" height="7.188"/>
	
		<rect x="201.584" y="221.009" fill="none" stroke="#000000" stroke-width="0.5" stroke-linecap="round" stroke-linejoin="round" width="8.146" height="7.188"/>
</g>
<g id="lines">
	<path fill="none" stroke="#000000" stroke-width="0.5" stroke-linecap="round" stroke-linejoin="round" d="M251.25,91.436"/>
	
		<line fill="none" stroke="#000000" stroke-width="0.5" stroke-linecap="round" stroke-linejoin="round" x1="194.584" y1="91.436" x2="194.584" y2="84.936"/>
	
		<line fill="none" stroke="#000000" stroke-width="0.5" stroke-linecap="round" stroke-linejoin="round" x1="136.583" y1="91.436" x2="136.583" y2="84.936"/>
	<path fill="none" stroke="#000000" stroke-width="0.5" stroke-linecap="round" stroke-linejoin="round" d="M79.583,84.936"/>
	<path fill="none" stroke="#000000" stroke-width="0.5" stroke-linecap="round" stroke-linejoin="round" d="M79.583,91.436"/>
	<polyline fill="none" stroke="#000000" stroke-width="0.5" stroke-linecap="round" stroke-linejoin="round" points="   250.584,84.936 250.584,91.603 81,91.603 81,84.936  "/>
	<polygon stroke="#000000" stroke-width="0.5" stroke-linecap="round" stroke-linejoin="round" points="195.341,172.311    196.821,172.311 196.081,174.811 195.341,177.311 194.601,174.811 193.859,172.311  "/>
	<polygon stroke="#000000" stroke-width="0.5" stroke-linecap="round" stroke-linejoin="round" points="135.841,55.186    137.321,55.186 136.581,57.686 135.841,60.186 135.101,57.686 134.359,55.186  "/>
	<polygon stroke="#000000" stroke-width="0.5" stroke-linecap="round" stroke-linejoin="round" points="136.841,98.561    138.321,98.561 137.581,101.061 136.841,103.561 136.101,101.061 135.359,98.561  "/>
	<polygon stroke="#000000" stroke-width="0.5" stroke-linecap="round" stroke-linejoin="round" points="77.216,173.602    78.697,173.602 77.957,176.102 77.216,178.602 76.476,176.102 75.735,173.602  "/>
	<polygon stroke="#000000" stroke-width="0.5" stroke-linecap="round" stroke-linejoin="round" points="77.966,137.019    79.447,137.019 78.707,139.519 77.966,142.019 77.226,139.519 76.485,137.019  "/>
	
		<line fill="none" stroke="#000000" stroke-width="0.5" stroke-linecap="round" stroke-linejoin="round" x1="135.752" y1="41.435" x2="135.752" y2="55.519"/>
	
		<line fill="none" stroke="#000000" stroke-width="0.5" stroke-linecap="round" stroke-linejoin="round" x1="136.752" y1="92.185" x2="136.752" y2="103.019"/>
	<polyline fill="none" stroke="#000000" stroke-width="0.5" stroke-linecap="round" stroke-linejoin="round" points="   77.917,137.436 77.917,133.186 195.417,133.186 195.417,171.936  "/>
	
		<line fill="none" stroke="#000000" stroke-width="0.5" stroke-linecap="round" stroke-linejoin="round" x1="136.417" y1="128.686" x2="136.417" y2="133.186"/>
	
		<line fill="none" stroke="#000000" stroke-width="0.5" stroke-linecap="round" stroke-linejoin="round" x1="77.292" y1="174.686" x2="77.292" y2="165.936"/>
	<polyline fill="none" stroke="#000000" stroke-width="0.5" stroke-linecap="round" stroke-linejoin="round" points="22.167,84.936    22.167,92.436 63.417,92.436 63.417,103.686  "/>
	
		<line fill="none" stroke="#000000" stroke-width="0.5" stroke-linecap="round" stroke-linejoin="round" x1="87.667" y1="115.686" x2="113.417" y2="115.686"/>
</g>
<g id="text">
	<rect x="68.584" y="1.269" fill="none" width="134.333" height="10.667"/>
	<text transform="matrix(1 0 0 1 68.584 7.731)" font-family="'Helvetica'" font-size="9">Cluster Resource Dependencies</text>
	<rect x="214.25" y="211.269" fill="none" width="111.334" height="8"/>
	<text transform="matrix(1 0 0 1 214.25 217.7305)" font-family="'Helvetica'" font-size="9">DFM Cluster Resources</text>
	<rect x="214.917" y="221.269" fill="none" width="118.333" height="10"/>
	<text transform="matrix(1 0 0 1 214.917 227.7305)" font-family="'Helvetica'" font-size="9">Non-DFM Cluster Resources</text>
	<rect x="115.251" y="19.602" fill="none" width="40.667" height="19.667"/>
	<text transform="matrix(1 0 0 1 126.9204 25.3457)"><tspan x="0" y="0" font-family="'Helvetica'" font-size="8">DFM </tspan><tspan x="-4.672" y="9.6" font-family="'Helvetica'" font-size="8">Monitor</tspan></text>
	<rect x="1.917" y="64.602" fill="none" width="40.667" height="16.333"/>
	<text transform="matrix(1 0 0 1 13.5869 70.3457)"><tspan x="0" y="0" font-family="'Helvetica'" font-size="8">DFM </tspan><tspan x="-4.9" y="9.6" font-family="'Helvetica'" font-size="8">Apache</tspan></text>
	<rect x="60.584" y="64.602" fill="none" width="40.667" height="16.333"/>
	<text transform="matrix(1 0 0 1 72.2539 70.3457)"><tspan x="0" y="0" font-family="'Helvetica'" font-size="8">DFM </tspan><tspan x="-9.344" y="9.6" font-family="'Helvetica'" font-size="8">Watchdog</tspan></text>
	<rect x="116.251" y="64.602" fill="none" width="40.667" height="16.333"/>
	<text transform="matrix(1 0 0 1 127.9209 70.3457)"><tspan x="0" y="0" font-family="'Helvetica'" font-size="8">DFM </tspan><tspan x="-2.676" y="9.6" font-family="'Helvetica'" font-size="8"> Event</tspan></text>
	<rect x="115.918" y="107.936" fill="none" width="40.667" height="16.333"/>
	<text transform="matrix(1 0 0 1 127.5879 113.6797)"><tspan x="0" y="0" font-family="'Helvetica'" font-size="8">DFM </tspan><tspan x="-4.676" y="9.6" font-family="'Helvetica'" font-size="8">Sybase</tspan></text>
	<rect x="43.418" y="107.936" fill="none" width="40.667" height="16.333"/>
	<text transform="matrix(1 0 0 1 55.0879 113.6797)"><tspan x="0" y="0" font-family="'Helvetica'" font-size="8">DFM </tspan><tspan x="-3.56" y="9.6" font-family="'Helvetica'" font-size="8">WebUI</tspan></text>
	<rect x="57.918" y="146.269" fill="none" width="40.667" height="16.333"/>
	<text transform="matrix(1 0 0 1 65.584 152.0137)"><tspan x="0" y="0" font-family="'Helvetica'" font-size="8">Cluster </tspan><tspan x="2" y="9.6" font-family="'Helvetica'" font-size="8">Name</tspan></text>
	<rect x="57.918" y="186.936" fill="none" width="40.667" height="16.333"/>
	<text transform="matrix(1 0 0 1 60.6919 192.6797)" font-family="'Helvetica'" font-size="8">Cluster IP</text>
	<rect x="175.919" y="186.936" fill="none" width="40.666" height="16.333"/>
	<text transform="matrix(1 0 0 1 183.585 192.6797)" font-family="'Helvetica'" font-size="8">Disk S:</text>
	<rect x="173.919" y="64.602" fill="none" width="40.666" height="16.333"/>
	<text transform="matrix(1 0 0 1 185.5879 70.3457)"><tspan x="0" y="0" font-family="'Helvetica'" font-size="8">DFM </tspan><tspan x="-3.116" y="9.6" font-family="'Helvetica'" font-size="8">Server</tspan></text>
	<rect x="231.586" y="64.602" fill="none" width="40.666" height="16.333"/>
	<text transform="matrix(1 0 0 1 243.2549 70.3457)"><tspan x="0" y="0" font-family="'Helvetica'" font-size="8">DFM </tspan><tspan x="-9.344" y="9.6" font-family="'Helvetica'" font-size="8">Scheduler</tspan></text>
</g>
</svg>