<?xml version="1.0" encoding="UTF-8" standalone="no"?>
<!-- Generator: Adobe Illustrator 16.0.3, SVG Export Plug-In . SVG Version: 6.00 Build 0)  -->

<svg
   version="1.1"
   id="Layer_1"
   x="0px"
   y="0px"
   width="266.334px"
   height="176.334px"
   viewBox="0 0 266.334 176.334"
   enable-background="new 0 0 266.334 176.334"
   xml:space="preserve"
   preserveAspectRatio="xMidYMid meet"
   zoomAndPan="magnify"
   contentScriptType="application/ecmascript"
   contentStyleType="text/css"
   sodipodi:docname="mirrored-aggregate-with-array-luns.svg"
   inkscape:version="1.1.2 (b8e25be833, 2022-02-05)"
   inkscape:export-filename="C:\Users\thom\git_workspace\ontap-internal\media\mirrored-aggregate-with-array-luns.png"
   inkscape:export-xdpi="96"
   inkscape:export-ydpi="96"
   xmlns:inkscape="http://www.inkscape.org/namespaces/inkscape"
   xmlns:sodipodi="http://sodipodi.sourceforge.net/DTD/sodipodi-0.dtd"
   xmlns="http://www.w3.org/2000/svg"
   xmlns:svg="http://www.w3.org/2000/svg"><defs
   id="defs29119" /><sodipodi:namedview
   id="namedview29117"
   pagecolor="#ffffff"
   bordercolor="#666666"
   borderopacity="1.0"
   inkscape:pageshadow="2"
   inkscape:pageopacity="0.0"
   inkscape:pagecheckerboard="0"
   showgrid="false"
   inkscape:zoom="4.4347659"
   inkscape:cx="86.701307"
   inkscape:cy="88.166999"
   inkscape:window-width="2880"
   inkscape:window-height="1526"
   inkscape:window-x="2869"
   inkscape:window-y="-11"
   inkscape:window-maximized="1"
   inkscape:current-layer="Layer_1" />
<polygon
   fill="#D1D3D4"
   stroke="#000000"
   points="261.312,169.971 5.249,169.999 5.249,6.028 261.312,6 "
   id="polygon29012" />
<path
   fill="#FFFFFF"
   stroke="#000000"
   d="M253.624,103.938c0,5.965-4.835,10.801-10.8,10.801H24.062  c-5.964,0-10.799-4.836-10.799-10.801V36.633c0-5.964,4.835-10.799,10.799-10.799h218.762c5.965,0,10.8,4.835,10.8,10.799V103.938z"
   id="path29014" />
<path
   fill="none"
   stroke="#A7A9AC"
   stroke-width="2"
   stroke-dasharray="6"
   d="M117.98,89.375c0,4.682-3.017,8.478-6.739,8.478  H66.629c-3.722,0-6.739-3.796-6.739-8.478V63.494c0-4.681,3.018-8.476,6.739-8.476h44.612c3.722,0,6.739,3.795,6.739,8.476V89.375z"
   id="path29016" />
<text
   font-family="Helvetica"
   font-size="9px"
   id="text29018"
   x="96.718628"
   y="19.485073">Local tier (aggregate)</text>
<text
   transform="matrix(1 0 0 1 62.2402 42.9854)"
   font-family="'Helvetica'"
   font-size="9"
   id="text29020">Plex0 (pool0)</text>
<text
   transform="matrix(1 0 0 1 182.3799 42.9854)"
   font-family="'Helvetica'"
   font-size="9"
   id="text29022">Plex1 (pool1)</text>
<circle
   fill="#999999"
   stroke="#000000"
   stroke-width="0.5"
   cx="75.652"
   cy="71.315"
   r="3.775"
   id="circle29024" />
<circle
   fill="#999999"
   stroke="#000000"
   stroke-width="0.5"
   cx="84.462"
   cy="71.315"
   r="3.775"
   id="circle29026" />
<circle
   fill="#999999"
   stroke="#000000"
   stroke-width="0.5"
   cx="93.272"
   cy="71.315"
   r="3.774"
   id="circle29028" />
<circle
   fill="#999999"
   stroke="#000000"
   stroke-width="0.5"
   cx="102.082"
   cy="71.315"
   r="3.775"
   id="circle29030" />
<circle
   fill="#999999"
   stroke="#000000"
   stroke-width="0.5"
   cx="81.082"
   cy="132.315"
   r="3.775"
   id="circle29032" />
<circle
   fill="#999999"
   stroke="#000000"
   stroke-width="0.5"
   cx="75.652"
   cy="81.804"
   r="3.775"
   id="circle29034" />
<circle
   fill="#999999"
   stroke="#000000"
   stroke-width="0.5"
   cx="84.462"
   cy="81.804"
   r="3.775"
   id="circle29036" />
<circle
   fill="#999999"
   stroke="#000000"
   stroke-width="0.5"
   cx="93.272"
   cy="81.804"
   r="3.774"
   id="circle29038" />
<circle
   fill="#999999"
   stroke="#000000"
   stroke-width="0.5"
   cx="102.082"
   cy="81.804"
   r="3.775"
   id="circle29040" />
<circle
   fill="#999999"
   stroke="#000000"
   stroke-width="0.5"
   cx="54.652"
   cy="147.47"
   r="3.775"
   id="circle29042" />
<circle
   fill="#999999"
   stroke="#000000"
   stroke-width="0.5"
   cx="63.462"
   cy="147.47"
   r="3.775"
   id="circle29044" />
<circle
   fill="#999999"
   stroke="#000000"
   stroke-width="0.5"
   cx="72.272"
   cy="147.47"
   r="3.774"
   id="circle29046" />
<circle
   fill="#999999"
   stroke="#000000"
   stroke-width="0.5"
   cx="81.082"
   cy="147.47"
   r="3.775"
   id="circle29048" />
<g
   id="g29054">
	
		<line
   fill="none"
   stroke="#FFFFFF"
   stroke-width="3"
   stroke-linecap="round"
   stroke-linejoin="round"
   x1="42.453"
   y1="71.754"
   x2="68.455"
   y2="71.754"
   id="line29050" />
	
		<line
   fill="none"
   stroke="#000000"
   stroke-width="0.5"
   stroke-linecap="round"
   stroke-linejoin="round"
   x1="42.453"
   y1="71.754"
   x2="68.455"
   y2="71.754"
   id="line29052" />
</g>
<g
   id="g29060">
	
		<line
   fill="none"
   stroke="#FFFFFF"
   stroke-width="3"
   stroke-linecap="round"
   stroke-linejoin="round"
   x1="42.432"
   y1="82.754"
   x2="68.455"
   y2="82.754"
   id="line29056" />
	
		<line
   fill="none"
   stroke="#000000"
   stroke-width="0.5"
   stroke-linecap="round"
   stroke-linejoin="round"
   x1="42.432"
   y1="82.754"
   x2="68.455"
   y2="82.754"
   id="line29058" />
</g>
<path
   fill="none"
   stroke="#A7A9AC"
   stroke-width="2"
   stroke-dasharray="6"
   d="M236.819,89.37c0,4.685-2.999,8.482-6.7,8.482h-44.355  c-3.699,0-6.7-3.798-6.7-8.482V63.476c0-4.684,3.001-8.481,6.7-8.481h44.355c3.701,0,6.7,3.797,6.7,8.481V89.37z"
   id="path29062" />
<circle
   fill="#999999"
   stroke="#000000"
   stroke-width="0.5"
   cx="194.493"
   cy="71.315"
   r="3.775"
   id="circle29064" />
<circle
   fill="#999999"
   stroke="#000000"
   stroke-width="0.5"
   cx="203.302"
   cy="71.315"
   r="3.775"
   id="circle29066" />
<circle
   fill="#999999"
   stroke="#000000"
   stroke-width="0.5"
   cx="212.111"
   cy="71.315"
   r="3.774"
   id="circle29068" />
<circle
   fill="#999999"
   stroke="#000000"
   stroke-width="0.5"
   cx="220.922"
   cy="71.315"
   r="3.775"
   id="circle29070" />
<circle
   fill="#999999"
   stroke="#000000"
   stroke-width="0.5"
   cx="194.493"
   cy="81.804"
   r="3.775"
   id="circle29072" />
<circle
   fill="#999999"
   stroke="#000000"
   stroke-width="0.5"
   cx="203.302"
   cy="81.804"
   r="3.775"
   id="circle29074" />
<circle
   fill="#999999"
   stroke="#000000"
   stroke-width="0.5"
   cx="212.111"
   cy="81.804"
   r="3.774"
   id="circle29076" />
<circle
   fill="#999999"
   stroke="#000000"
   stroke-width="0.5"
   cx="220.922"
   cy="81.804"
   r="3.775"
   id="circle29078" />
<g
   id="g29084">
	
		<line
   fill="none"
   stroke="#FFFFFF"
   stroke-width="3"
   stroke-linecap="round"
   stroke-linejoin="round"
   x1="159.453"
   y1="71.421"
   x2="185.455"
   y2="71.421"
   id="line29080" />
	
		<line
   fill="none"
   stroke="#000000"
   stroke-width="0.5"
   stroke-linecap="round"
   stroke-linejoin="round"
   x1="159.453"
   y1="71.421"
   x2="185.455"
   y2="71.421"
   id="line29082" />
</g>
<g
   id="g29090">
	
		<line
   fill="none"
   stroke="#FFFFFF"
   stroke-width="3"
   stroke-linecap="round"
   stroke-linejoin="round"
   x1="159.786"
   y1="81.754"
   x2="185.789"
   y2="81.754"
   id="line29086" />
	
		<line
   fill="none"
   stroke="#000000"
   stroke-width="0.5"
   stroke-linecap="round"
   stroke-linejoin="round"
   x1="159.786"
   y1="81.754"
   x2="185.789"
   y2="81.754"
   id="line29088" />
</g>
<rect
   x="142.432"
   y="67.738"
   fill="none"
   width="20.001"
   height="10"
   id="rect29092" />
<text
   transform="matrix(1 0 0 1 142.4316 74.1997)"
   font-family="'Helvetica'"
   font-size="9"
   id="text29094">rg0</text>
<rect
   x="24.765"
   y="67.738"
   fill="none"
   width="20"
   height="10"
   id="rect29096" />
<text
   transform="matrix(1 0 0 1 24.7651 74.1997)"
   font-family="'Helvetica'"
   font-size="9"
   id="text29098">rg0</text>
<rect
   x="142.765"
   y="78.405"
   fill="none"
   width="20.001"
   height="10"
   id="rect29100" />
<text
   transform="matrix(1 0 0 1 142.7656 84.8677)"
   font-family="'Helvetica'"
   font-size="9"
   id="text29102">rg1</text>
<rect
   x="25.098"
   y="78.405"
   fill="none"
   width="20"
   height="10"
   id="rect29104" />
<text
   transform="matrix(1 0 0 1 25.0981 84.8677)"
   font-family="'Helvetica'"
   font-size="9"
   id="text29106">rg1</text>
<rect
   x="97.098"
   y="129.738"
   fill="none"
   width="110.333"
   height="12.333"
   id="rect29108" />
<text
   transform="translate(97.0981,136.2002)"
   font-family="Helvetica"
   font-size="9px"
   id="text29110">Array LUN in the local tier</text>
<rect
   x="96.765"
   y="144.738"
   fill="none"
   width="110.333"
   height="12.333"
   id="rect29112" />
<text
   transform="translate(96.7646,151.2002)"
   font-family="Helvetica"
   font-size="9px"
   id="text29114">ONTAP RAID group</text>
</svg>
