<?xml version="1.0" encoding="UTF-8"?><!-- Generator: Adobe Illustrator 12.0.0, SVG Export Plug-In . SVG Version: 6.00 Build 51448)  --><!DOCTYPE svg PUBLIC "-//W3C//DTD SVG 1.1//EN" "http://www.w3.org/Graphics/SVG/1.1/DTD/svg11.dtd">
<svg xmlns="http://www.w3.org/2000/svg" xmlns:xlink="http://www.w3.org/1999/xlink" version="1.1" width="344.664" height="542.361" viewBox="0 0 344.664 542.361" overflow="visible" enable-background="new 0 0 344.664 542.361" xml:space="preserve" preserveAspectRatio="xMidYMid meet" zoomAndPan="magnify" contentScriptType="application/ecmascript" contentStyleType="text/css">
<g id="Layer_1">
	<path fill="#EDEEF3" stroke="#2E3192" stroke-width="0.25" stroke-miterlimit="10" d="M344.539,533.43   c0,4.864-3.424,8.806-7.645,8.806H8.412c-4.223,0-7.646-3.941-7.646-8.806V8.932c0-4.865,3.423-8.807,7.646-8.807h328.482   c4.221,0,7.645,3.942,7.645,8.807V533.43z"/>
	<text transform="matrix(1 0 0 1 27.8916 46.1333)" font-family="'Helvetica'" font-size="6.5198">Primary information resource</text>
	<text transform="matrix(1 0 0 1 27.8916 69.729)"><tspan x="0" y="0" font-family="'Helvetica'" font-size="6.5198">Secondary information resource when </tspan><tspan x="0" y="7.824" font-family="'Helvetica'" font-size="6.5198">more than one resource is identified</tspan></text>
	
		<rect x="7.413" y="67.034" fill="#B1D0ED" stroke="#000000" stroke-width="0.25" stroke-miterlimit="10" width="15.481" height="10.719"/>
	
		<rect x="7.413" y="40.547" fill="#364EA1" stroke="#000000" stroke-width="0.25" stroke-miterlimit="10" width="15.481" height="10.719"/>
</g>
<g id="Layer_5">
	<rect x="186.021" y="168.301" fill="#364EA1" width="15.39" height="10.655"/>
	<rect x="201.617" y="168.301" fill="#B1D0ED" width="17.379" height="10.655"/>
	<rect x="218.968" y="168.343" fill="#B1D0ED" width="17.711" height="10.697"/>
	<rect x="297.514" y="319.671" fill="#B1D0ED" width="21.982" height="10.847"/>
	
		<rect x="186.021" y="178.957" fill="#364EA1" stroke="#000000" stroke-width="0.25" stroke-miterlimit="10" width="15.452" height="10.718"/>
	<rect x="201.617" y="178.957" fill="#B1D0ED" width="17.296" height="10.842"/>
	<rect x="218.967" y="179.082" fill="#B1D0ED" width="17.67" height="10.655"/>
	<rect x="185.982" y="189.644" fill="#364EA1" width="15.577" height="10.843"/>
	<rect x="201.437" y="189.805" fill="#B1D0ED" width="17.483" height="10.733"/>
	<rect x="185.982" y="200.628" fill="#364EA1" width="15.515" height="10.655"/>
	<rect x="236.552" y="200.539" fill="#B1D0ED" width="14.852" height="10.64"/>
	<rect x="251.154" y="200.523" fill="#B1D0ED" width="15.446" height="10.656"/>
	<rect x="266.543" y="200.585" fill="#B1D0ED" width="15.477" height="10.572"/>
	<rect x="167.083" y="211.031" fill="#364EA1" width="19.056" height="11.155"/>
	<rect x="201.617" y="232.794" fill="#B1D0ED" width="17.546" height="10.801"/>
	<rect x="297.347" y="222.002" fill="#B1D0ED" width="21.979" height="10.757"/>
	<rect x="266.492" y="222.104" fill="#364EA1" width="15.39" height="10.656"/>
	<rect x="167.052" y="243.742" fill="#364EA1" width="19.024" height="10.655"/>
	<rect x="186.177" y="232.867" fill="#364EA1" width="15.399" height="10.717"/>
	<rect x="186.081" y="243.7" fill="#B1D0ED" width="15.579" height="10.884"/>
	<rect x="166.761" y="276.22" fill="#364EA1" width="19.19" height="11.03"/>
	<rect x="186.019" y="265.329" fill="#B1D0ED" width="15.391" height="11.03"/>
	<rect x="236.728" y="265.345" fill="#364EA1" width="14.382" height="10.926"/>
	<rect x="251.148" y="265.345" fill="#B1D0ED" width="15.511" height="10.801"/>
	<rect x="219.01" y="243.575" fill="#B1D0ED" width="17.503" height="10.822"/>
	<rect x="186.152" y="287.25" fill="#B1D0ED" width="15.141" height="10.405"/>
	<rect x="186.318" y="297.942" fill="#364EA1" width="15.375" height="10.656"/>
	<rect x="266.501" y="287.125" fill="#364EA1" width="15.665" height="10.78"/>
	<rect x="282.175" y="297.858" fill="#B1D0ED" width="15.495" height="10.989"/>
	<rect x="266.389" y="298.004" fill="#B1D0ED" width="15.703" height="10.843"/>
	<rect x="250.732" y="308.782" fill="#B1D0ED" width="15.762" height="10.654"/>
	<rect x="236.61" y="308.781" fill="#364EA1" width="14.28" height="10.655"/>
	<rect x="266.376" y="319.521" fill="#364EA1" width="15.665" height="10.781"/>
	<rect x="297.514" y="341.302" fill="#B1D0ED" width="21.982" height="10.847"/>
	<rect x="319.453" y="373.978" fill="#B1D0ED" width="24.648" height="10.679"/>
	<rect x="319.453" y="395.436" fill="#B1D0ED" width="24.982" height="10.679"/>
	<rect x="266.722" y="341.563" fill="#B1D0ED" width="15.724" height="10.655"/>
	<rect x="236.645" y="352.42" fill="#B1D0ED" width="14.57" height="10.656"/>
	<rect x="251.065" y="352.42" fill="#B1D0ED" width="15.762" height="10.656"/>
	<rect x="266.387" y="352.42" fill="#B1D0ED" width="16.058" height="10.656"/>
	<rect x="185.951" y="330.576" fill="#364EA1" width="15.542" height="10.655"/>
	<rect x="185.947" y="352.086" fill="#364EA1" width="15.663" height="10.656"/>
	<rect x="186.201" y="362.872" fill="#364EA1" width="15.288" height="10.655"/>
	<rect x="251.229" y="373.915" fill="#364EA1" width="15.428" height="10.779"/>
	
		<rect x="251.187" y="384.776" transform="matrix(1 0.0072 -0.0072 1 2.8021 -1.8447)" fill="#B1D0ED" width="15.263" height="10.653"/>
	<rect x="266.808" y="384.607" fill="#B1D0ED" width="15.391" height="10.988"/>
	<rect x="251.111" y="395.567" fill="#364EA1" width="15.585" height="10.904"/>
	<rect x="236.681" y="384.773" fill="#364EA1" width="14.301" height="10.655"/>
	<rect x="186.019" y="384.691" fill="#B1D0ED" width="15.391" height="10.654"/>
	<rect x="186.063" y="417.247" fill="#364EA1" width="15.542" height="10.655"/>
	<rect x="167.063" y="406.267" fill="#364EA1" width="19.233" height="10.85"/>
	<rect x="166.813" y="428.017" fill="#364EA1" width="19.232" height="10.934"/>
	<rect x="166.813" y="439.1" fill="#364EA1" width="19.316" height="10.934"/>
	<rect x="166.813" y="449.85" fill="#364EA1" width="19.316" height="10.851"/>
	<rect x="186.275" y="460.446" fill="#364EA1" width="15.292" height="11.933"/>
	<rect x="185.978" y="472.28" fill="#364EA1" width="15.542" height="10.906"/>
	<rect x="186.14" y="428.237" fill="#B1D0ED" width="15.349" height="10.53"/>
	<rect x="219.049" y="417.247" fill="#B1D0ED" width="17.463" height="10.655"/>
	<rect x="266.582" y="472.276" fill="#B1D0ED" width="15.612" height="10.827"/>
	<rect x="167.066" y="483.281" fill="#364EA1" width="18.984" height="10.655"/>
	<rect x="167.066" y="505.04" fill="#364EA1" width="18.984" height="10.655"/>
	<rect x="236.735" y="494.186" fill="#364EA1" width="14.299" height="10.988"/>
	<rect x="251.135" y="494.02" fill="#B1D0ED" width="15.594" height="11.154"/>
	<rect x="266.708" y="483.282" fill="#B1D0ED" width="15.308" height="10.737"/>
	<rect x="266.592" y="526.821" fill="#364EA1" width="15.459" height="10.655"/>
	<rect x="266.342" y="515.855" fill="#364EA1" width="15.625" height="10.656"/>
	<rect x="297.512" y="526.905" fill="#B1D0ED" width="21.65" height="10.654"/>
	<rect x="297.515" y="515.856" fill="#B1D0ED" width="21.981" height="10.988"/>
</g>
<g id="Layer_3">
	<text transform="matrix(-0.0045 -1 1 -0.0045 175.084 161.918)"><tspan x="0" y="0" font-family="'Helvetica'" font-size="6">OnCommand Unified Manager Installation  </tspan><tspan x="0" y="7.2" font-family="'Helvetica'" font-size="6">and Setup Guide</tspan></text>
	<text transform="matrix(-0.0045 -1 1 -0.0045 195.6074 161.918)" font-family="'Helvetica'" font-size="6">OnCommand Console Help (in product and online)</text>
	<text transform="matrix(-0.0045 -1 1 -0.0045 208.5098 161.9185)"><tspan x="0" y="0" font-family="'Helvetica'" font-size="6">OnCommand  Unified Manager Guide  </tspan><tspan x="0" y="7.2" font-family="'Helvetica'" font-size="6">to Common Workflows</tspan></text>
	<text transform="matrix(-0.0045 -1 1 -0.0045 260.8379 161.918)" font-family="'Helvetica'" font-size="6">Operations Manager Administration Guide</text>
	<text transform="matrix(-0.0045 -1 1 -0.0045 245.8779 161.9175)" font-family="'Helvetica'" font-size="6">Operations Manager Help</text>
	<text transform="matrix(-0.0045 -1 1 -0.0045 291.8838 161.918)" font-family="'Helvetica'" font-size="6">Performance Advisor Administration Guide</text>
	<text transform="matrix(-0.0045 -1 1 -0.0045 276.3613 161.9185)" font-family="'Helvetica'" font-size="6">Management Console Help</text>
	<text transform="matrix(-0.0045 -1 1 -0.0045 306.4063 161.918)"><tspan x="0" y="0" font-family="'Helvetica'" font-size="6">Guide to Common Provisioning and  </tspan><tspan x="0" y="7.2" font-family="'Helvetica'" font-size="6">Data Protection Worlflow </tspan></text>
	<text transform="matrix(-0.0045 -1 1 -0.0045 328.9502 161.918)"><tspan x="0" y="0" font-family="'Helvetica'" font-size="6">Host Agent Installation and Administration </tspan><tspan x="0" y="7.2" font-family="'Helvetica'" font-size="6">Guide</tspan></text>
	<text transform="matrix(-0.0045 -1 1 -0.0045 226.3833 161.6743)"><tspan x="0" y="0" font-family="'Helvetica'" font-size="6">OnCommand Unified Manager  </tspan><tspan x="0" y="7" font-family="'Helvetica'" font-size="6">Windows PowerShell Cmdlets Guide</tspan></text>
</g>
<g id="Layer_2">
	<line fill="none" stroke="#000000" stroke-width="0.25" stroke-miterlimit="10" x1="0" y1="515.785" x2="344.4" y2="515.785"/>
	<line fill="none" stroke="#000000" stroke-width="0.25" stroke-miterlimit="10" x1="0" y1="406.365" x2="344.654" y2="406.365"/>
	<line fill="none" stroke="#000000" stroke-width="0.25" stroke-miterlimit="10" x1="0" y1="472.39" x2="344.574" y2="472.39"/>
	<line fill="none" stroke="#000000" stroke-width="0.25" stroke-miterlimit="10" x1="0" y1="494.087" x2="344.38" y2="494.087"/>
	<line fill="none" stroke="#000000" stroke-width="0.25" stroke-miterlimit="10" x1="0" y1="526.634" x2="344.4" y2="526.634"/>
	<line fill="none" stroke="#000000" stroke-width="0.25" stroke-miterlimit="10" x1="1" y1="537.634" x2="344.4" y2="537.634"/>
	<line fill="none" stroke="#000000" stroke-width="0.25" stroke-miterlimit="10" x1="0" y1="504.937" x2="344.4" y2="504.937"/>
	<line fill="none" stroke="#000000" stroke-width="0.25" stroke-miterlimit="10" x1="0" y1="483.239" x2="344.574" y2="483.239"/>
	<line fill="none" stroke="#000000" stroke-width="0.25" stroke-miterlimit="10" x1="0" y1="449.76" x2="344.654" y2="449.76"/>
	<line fill="none" stroke="#000000" stroke-width="0.25" stroke-miterlimit="10" x1="0" y1="428.063" x2="344.654" y2="428.063"/>
	
		<line fill="none" stroke="#000000" stroke-width="0.25" stroke-miterlimit="10" x1="0.265" y1="352.121" x2="344.394" y2="352.121"/>
	
		<line fill="none" stroke="#000000" stroke-width="0.25" stroke-miterlimit="10" x1="0.265" y1="341.272" x2="344.394" y2="341.272"/>
	
		<line fill="none" stroke="#000000" stroke-width="0.25" stroke-miterlimit="10" x1="0.265" y1="330.423" x2="344.394" y2="330.423"/>
	<line fill="none" stroke="#000000" stroke-width="0.25" stroke-miterlimit="10" x1="0" y1="417.214" x2="344.654" y2="417.214"/>
	<line fill="none" stroke="#000000" stroke-width="0.25" stroke-miterlimit="10" x1="0" y1="395.517" x2="344.654" y2="395.517"/>
	<line fill="none" stroke="#000000" stroke-width="0.25" stroke-miterlimit="10" x1="0" y1="384.667" x2="344.654" y2="384.667"/>
	
		<line fill="none" stroke="#000000" stroke-width="0.25" stroke-miterlimit="10" x1="0.265" y1="373.819" x2="344.412" y2="373.819"/>
	
		<line fill="none" stroke="#000000" stroke-width="0.25" stroke-miterlimit="10" x1="0.265" y1="362.969" x2="344.412" y2="362.969"/>
	<line fill="none" stroke="#000000" stroke-width="0.25" stroke-miterlimit="10" x1="0" y1="438.912" x2="344.574" y2="438.912"/>
	<line fill="none" stroke="#000000" stroke-width="0.25" stroke-miterlimit="10" x1="0" y1="460.61" x2="344.655" y2="460.61"/>
	
		<line fill="none" stroke="#000000" stroke-width="0.25" stroke-miterlimit="10" x1="0.265" y1="308.726" x2="344.394" y2="308.726"/>
	
		<line fill="none" stroke="#000000" stroke-width="0.25" stroke-miterlimit="10" x1="0.265" y1="319.574" x2="344.394" y2="319.574"/>
	
		<line fill="none" stroke="#000000" stroke-width="0.25" stroke-miterlimit="10" x1="0.265" y1="297.876" x2="344.394" y2="297.876"/>
	
		<line fill="none" stroke="#000000" stroke-width="0.25" stroke-miterlimit="10" x1="0.265" y1="287.028" x2="344.394" y2="287.028"/>
	
		<line fill="none" stroke="#000000" stroke-width="0.25" stroke-miterlimit="10" x1="0.265" y1="276.179" x2="344.394" y2="276.179"/>
	<line fill="none" stroke="#000000" stroke-width="0.25" stroke-miterlimit="10" x1="0.265" y1="265.33" x2="344.394" y2="265.33"/>
	
		<line fill="none" stroke="#000000" stroke-width="0.25" stroke-miterlimit="10" x1="0.265" y1="254.481" x2="344.394" y2="254.481"/>
	
		<line fill="none" stroke="#000000" stroke-width="0.25" stroke-miterlimit="10" x1="186.112" y1="13.094" x2="186.112" y2="537.92"/>
	
		<line fill="#384EA1" stroke="#000000" stroke-width="0.25" stroke-miterlimit="10" x1="319.372" y1="13.115" x2="319.372" y2="537.941"/>
	
		<line fill="none" stroke="#000000" stroke-width="0.25" stroke-miterlimit="10" x1="251.107" y1="13.094" x2="251.107" y2="537.92"/>
	
		<line fill="none" stroke="#000000" stroke-width="0.25" stroke-miterlimit="10" x1="219.075" y1="13.094" x2="219.075" y2="537.92"/>
	
		<line fill="none" stroke="#000000" stroke-width="0.25" stroke-miterlimit="10" x1="282.095" y1="13.115" x2="282.095" y2="537.941"/>
	
		<line fill="none" stroke="#000000" stroke-width="0.25" stroke-miterlimit="10" x1="166.997" y1="13.094" x2="166.997" y2="537.92"/>
	
		<line fill="none" stroke="#000000" stroke-width="0.25" stroke-miterlimit="10" x1="201.594" y1="13.094" x2="201.594" y2="537.92"/>
	
		<line fill="none" stroke="#000000" stroke-width="0.25" stroke-miterlimit="10" x1="236.626" y1="13.094" x2="236.626" y2="537.92"/>
	
		<line fill="none" stroke="#000000" stroke-width="0.25" stroke-miterlimit="10" x1="266.588" y1="13.094" x2="266.588" y2="537.92"/>
	
		<line fill="none" stroke="#000000" stroke-width="0.25" stroke-miterlimit="10" x1="297.577" y1="13.116" x2="297.577" y2="537.94"/>
	
		<line fill="none" stroke="#000000" stroke-width="0.25" stroke-miterlimit="10" x1="0.265" y1="243.632" x2="344.585" y2="243.632"/>
	
		<line fill="none" stroke="#000000" stroke-width="0.25" stroke-miterlimit="10" x1="0.265" y1="232.783" x2="344.585" y2="232.783"/>
	
		<line fill="none" stroke="#000000" stroke-width="0.25" stroke-miterlimit="10" x1="0.265" y1="221.935" x2="344.585" y2="221.935"/>
	
		<line fill="none" stroke="#000000" stroke-width="0.25" stroke-miterlimit="10" x1="0.265" y1="211.231" x2="344.585" y2="211.231"/>
	
		<line fill="none" stroke="#000000" stroke-width="0.25" stroke-miterlimit="10" x1="0.265" y1="168.417" x2="344.585" y2="168.417"/>
	
		<line fill="none" stroke="#000000" stroke-width="0.25" stroke-miterlimit="10" x1="0.265" y1="179.121" x2="344.585" y2="179.121"/>
	
		<line fill="none" stroke="#000000" stroke-width="0.25" stroke-miterlimit="10" x1="0.265" y1="189.825" x2="344.585" y2="189.825"/>
	
		<line fill="none" stroke="#000000" stroke-width="0.25" stroke-miterlimit="10" x1="0.265" y1="200.527" x2="344.585" y2="200.527"/>
</g>
<g id="Layer_4">
	<text transform="matrix(1.0072 0 0 1 9.085 176.5498)" font-family="'Helvetica'" font-size="6.4811">Administration, host service</text>
	<text transform="matrix(1.0072 0 0 1 9.085 187.2964)" font-family="'Helvetica'" font-size="6.4811">Administration, OnCommand Unified Manager</text>
	<text transform="matrix(1.0072 0 0 1 9.085 197.4575)" font-family="'Helvetica'" font-size="6.4811">Administration, VMware objects</text>
	<text transform="matrix(1.0072 0 0 1 9.085 230.0249)" font-family="'Helvetica'" font-size="6.4811">Backup, physical</text>
	<text transform="matrix(1.0072 0 0 1 9.085 219.0342)" font-family="'Helvetica'" font-size="6.4811">Architecture</text>
	<text transform="matrix(1.0072 0 0 1 9.085 208.2871)" font-family="'Helvetica'" font-size="6.4811">Alarms</text>
	<text transform="matrix(1.0072 0 0 1 9.085 240.5215)" font-family="'Helvetica'" font-size="6.4811">Backup, VMware in OnCommand Unified Manager</text>
	<text transform="matrix(1.0072 0 0 1 9.085 251.2622)" font-family="'Helvetica'" font-size="6.4811">Certificates</text>
	<text transform="matrix(1.0072 0 0 1 9.085 272.7559)" font-family="'Helvetica'" font-size="6.4811">Clusters</text>
	<text transform="matrix(1.0072 0 0 1 9.085 262.0093)" font-family="'Helvetica'" font-size="6.4811">Cloning</text>
	<text transform="matrix(1.0072 0 0 1 9.085 294.0005)" font-family="'Helvetica'" font-size="6.4811">Custom naming of objects</text>
	<text transform="matrix(1.0072 0 0 1 9.085 283.7524)" font-family="'Helvetica'" font-size="6.4811">Core Package components</text>
	<text transform="matrix(1.0072 0 0 1 9.085 305.2476)" font-family="'Helvetica'" font-size="6.4811">Dashboards</text>
	<text transform="matrix(1.0072 0 0 1 9.085 326.4907)" font-family="'Helvetica'" font-size="6.4811">Dataset, physical objects</text>
	<text transform="matrix(1.0072 0 0 1 9.085 315.9937)" font-family="'Helvetica'" font-size="6.4811">DataFabric Manager server</text>
	<text transform="matrix(1.0072 0 0 1 9.085 337.4878)" font-family="'Helvetica'" font-size="6.4811">Dataset, virtual objects</text>
	<text transform="matrix(1.0072 0 0 1 9.085 359.2319)" font-family="'Helvetica'" font-size="6.4811">Events</text>
	<text transform="matrix(1.0072 0 0 1 9.085 380.9741)" font-family="'Helvetica'" font-size="6.4811">File SRM</text>
	<text transform="matrix(1.0072 0 0 1 9.085 370.229)" font-family="'Helvetica'" font-size="6.4811">ESX servers</text>
	<text transform="matrix(1.0072 0 0 1 9.085 402.4692)" font-family="'Helvetica'" font-size="6.4811">Host Agent</text>
	<text transform="matrix(1.0072 0 0 1 9.085 391.4712)" font-family="'Helvetica'" font-size="6.4811">Groups</text>
	<text transform="matrix(1.0072 0 0 1 9.085 413.1421)" font-family="'Helvetica'" font-size="6.4811">Host Package components</text>
	<text transform="matrix(1.0072 0 0 1 9.085 434.8853)" font-family="'Helvetica'" font-size="6.4811">Host service configuration</text>
	<text transform="matrix(1.0072 0 0 1 9.085 424.1392)" font-family="'Helvetica'" font-size="6.4811">Host service</text>
	<text transform="matrix(1.0072 0 0 1 9.085 348.2349)" font-family="'Helvetica'" font-size="6.4811">Disaster recovery</text>
	<text transform="matrix(1.0072 0 0 1 9.085 456.3755)" font-family="'Helvetica'" font-size="6.4811">Installation, Host Package</text>
	<text transform="matrix(1.0072 0 0 1 9.085 445.3784)" font-family="'Helvetica'" font-size="6.4811">Installation, Core Package</text>
	<text transform="matrix(1.0072 0 0 1 9.085 467.8726)" font-family="'Helvetica'" font-size="6.4811">Inventory objects</text>
	<text transform="matrix(1.0072 0 0 1 9.085 478.6011)" font-family="'Helvetica'" font-size="6.4811">Jobs, in OnCommand Unified Manager</text>
	<text transform="matrix(1.0072 0 0 1 9.085 532.9048)" font-family="'Helvetica'" font-size="6.4811">Migration, nondisruptive</text>
	<text transform="matrix(1.0072 0 0 1 9.085 521.9106)" font-family="'Helvetica'" font-size="6.4811">Migration, vFiler units and datasets</text>
	<text transform="matrix(1.0072 0 0 1 9.085 510.9917)" font-family="'Helvetica'" font-size="6.4811">Microsoft Cluster Server</text>
	<text transform="matrix(1.0072 0 0 1 9.085 500.6899)" font-family="'Helvetica'" font-size="6.4811">LUN management</text>
	<text transform="matrix(1.0072 0 0 1 9.085 489.1968)" font-family="'Helvetica'" font-size="6.4811">Licensing</text>
</g>
</svg>