<?xml version="1.0" encoding="UTF-8"?><!-- Generator: Adobe Illustrator 12.0.0, SVG Export Plug-In . SVG Version: 6.00 Build 51448)  --><!DOCTYPE svg PUBLIC "-//W3C//DTD SVG 1.1//EN" "http://www.w3.org/Graphics/SVG/1.1/DTD/svg11.dtd">
<svg xmlns="http://www.w3.org/2000/svg" xmlns:xlink="http://www.w3.org/1999/xlink" version="1.1" width="344.664" height="535.861" viewBox="0 0 344.664 535.861" overflow="visible" enable-background="new 0 0 344.664 535.861" xml:space="preserve" preserveAspectRatio="xMidYMid meet" zoomAndPan="magnify" contentScriptType="application/ecmascript" contentStyleType="text/css">
<g id="Layer_1">
	<path fill="#EDEEF3" stroke="#2E3192" stroke-width="0.25" stroke-miterlimit="10" d="M344.539,527.036   c0,4.806-3.424,8.7-7.645,8.7H8.412c-4.223,0-7.646-3.895-7.646-8.7V8.827c0-4.806,3.423-8.702,7.646-8.702h328.482   c4.221,0,7.645,3.896,7.645,8.702V527.036z"/>
	<text transform="matrix(1 0 0 1 27.8916 45.9458)" font-family="'Helvetica'" font-size="6.5198">Primary information resource</text>
	<text transform="matrix(1 0 0 1 27.8916 69.5415)"><tspan x="0" y="0" font-family="'Helvetica'" font-size="6.5198">Secondary information resource when </tspan><tspan x="0" y="7.824" font-family="'Helvetica'" font-size="6.5198">more than one resource is identified</tspan></text>
</g>
<g id="Layer_5">
	<rect x="251.107" y="168.215" fill="#364EA1" width="15.481" height="10.719"/>
	<rect x="251.107" y="179.068" fill="#364EA1" width="15.481" height="10.719"/>
	
		<rect x="8.413" y="65.346" fill="#B1D0ED" stroke="#000000" stroke-width="0.25" stroke-miterlimit="10" width="15.481" height="10.719"/>
	
		<rect x="8.413" y="38.86" fill="#364EA1" stroke="#000000" stroke-width="0.25" stroke-miterlimit="10" width="15.481" height="10.719"/>
	<rect x="186.112" y="189.63" fill="#364EA1" width="15.482" height="10.719"/>
	<rect x="319.372" y="179.006" fill="#B1D0ED" width="24.75" height="10.42"/>
	<rect x="166.664" y="200.293" fill="#B1D0ED" width="19.565" height="10.719"/>
	<rect x="266.588" y="200.293" fill="#364EA1" width="15.481" height="10.719"/>
	<rect x="282.203" y="211.062" fill="#364EA1" width="15.482" height="10.719"/>
	<rect x="266.588" y="211.312" fill="#B1D0ED" width="15.481" height="10.469"/>
	<rect x="251.107" y="221.845" fill="#B1D0ED" width="15.481" height="10.719"/>
	<rect x="186.112" y="221.845" fill="#B1D0ED" width="15.482" height="10.719"/>
	<rect x="236.61" y="221.845" fill="#364EA1" width="14.513" height="10.719"/>
	<rect x="186.112" y="243.578" fill="#364EA1" width="15.482" height="10.719"/>
	<rect x="266.588" y="232.562" fill="#364EA1" width="15.481" height="10.719"/>
	<rect x="266.588" y="243.533" fill="#B1D0ED" width="15.481" height="10.719"/>
	<rect x="297.96" y="232.712" fill="#B1D0ED" width="21.427" height="10.569"/>
	<rect x="297.96" y="254.461" fill="#B1D0ED" width="21.427" height="10.879"/>
	<rect x="297.96" y="265.09" fill="#B1D0ED" width="21.427" height="11.069"/>
	<rect x="266.588" y="254.312" fill="#364EA1" width="15.481" height="10.719"/>
	<rect x="266.588" y="265.09" fill="#364EA1" width="15.481" height="10.969"/>
	<rect x="186.112" y="276.062" fill="#364EA1" width="15.482" height="10.719"/>
	<rect x="236.61" y="276.062" fill="#B1D0ED" width="14.513" height="10.719"/>
	<rect x="266.588" y="286.888" fill="#364EA1" width="15.481" height="10.719"/>
	<rect x="266.588" y="297.812" fill="#364EA1" width="15.481" height="10.719"/>
	<rect x="236.61" y="308.556" fill="#364EA1" width="14.513" height="10.719"/>
	<rect x="251.302" y="308.556" fill="#B1D0ED" width="15.482" height="10.718"/>
	<rect x="266.588" y="308.556" fill="#B1D0ED" width="15.482" height="10.718"/>
	<rect x="186.112" y="352.069" fill="#364EA1" width="15.483" height="10.719"/>
	<rect x="319.461" y="341.251" fill="#364EA1" width="25.074" height="10.918"/>
	<rect x="297.567" y="330.251" fill="#364EA1" width="21.863" height="10.918"/>
	<rect x="167.163" y="362.95" fill="#364EA1" width="19.316" height="10.72"/>
	<rect x="185.997" y="319.311" fill="#364EA1" width="15.565" height="10.97"/>
	<rect x="186.112" y="362.95" fill="#B1D0ED" width="15.483" height="10.719"/>
	<rect x="219.075" y="352.07" fill="#B1D0ED" width="17.343" height="10.63"/>
	<rect x="185.921" y="373.625" fill="#364EA1" width="15.858" height="10.72"/>
	<rect x="236.611" y="373.626" fill="#B1D0ED" width="14.514" height="10.719"/>
	<rect x="266.588" y="373.626" fill="#B1D0ED" width="15.482" height="10.719"/>
	<rect x="236.611" y="384.595" fill="#364EA1" width="14.514" height="10.719"/>
	<rect x="236.61" y="395.323" fill="#364EA1" width="14.748" height="10.719"/>
	<rect x="251.297" y="395.323" fill="#B1D0ED" width="15.291" height="10.718"/>
	<rect x="186.296" y="406.041" fill="#B1D0ED" width="15.483" height="10.917"/>
	<rect x="166.664" y="395.323" fill="#B1D0ED" width="19.232" height="10.718"/>
	<rect x="186.296" y="384.595" fill="#B1D0ED" width="15.108" height="10.718"/>
	<rect x="236.611" y="406.041" fill="#B1D0ED" width="14.514" height="10.917"/>
	<rect x="250.978" y="406.041" fill="#B1D0ED" width="15.483" height="10.917"/>
	<rect x="266.588" y="406.102" fill="#364EA1" width="15.482" height="11.101"/>
	<rect x="185.953" y="417.062" fill="#364EA1" width="15.483" height="10.72"/>
	<rect x="186.078" y="428.062" fill="#B1D0ED" width="15.483" height="10.718"/>
	<rect x="166.997" y="438.75" fill="#364EA1" width="19.232" height="10.719"/>
	<rect x="166.997" y="449.597" fill="#364EA1" width="19.232" height="10.72"/>
	<rect x="266.461" y="427.815" fill="#364EA1" width="15.483" height="10.97"/>
	<rect x="297.447" y="427.965" fill="#B1D0ED" width="22.031" height="10.669"/>
	<rect x="186.047" y="460.567" fill="#B1D0ED" width="15.483" height="11.718"/>
	<rect x="251.012" y="460.567" fill="#B1D0ED" width="15.482" height="11.718"/>
	<rect x="236.376" y="460.567" fill="#364EA1" width="14.889" height="11.719"/>
	<rect x="166.999" y="472.285" fill="#364EA1" width="19.232" height="10.72"/>
	<rect x="266.401" y="483.144" fill="#364EA1" width="15.982" height="10.72"/>
	<rect x="186.048" y="493.743" fill="#364EA1" width="15.483" height="10.969"/>
	<rect x="251.201" y="483.144" fill="#B1D0ED" width="15.233" height="10.719"/>
	<rect x="236.553" y="483.144" fill="#B1D0ED" width="14.514" height="10.719"/>
	<rect x="186.047" y="505.045" fill="#B1D0ED" width="15.397" height="10.376"/>
	<rect x="186.05" y="515.895" fill="#B1D0ED" width="15.482" height="10.719"/>
	<rect x="236.379" y="515.645" fill="#364EA1" width="14.514" height="10.97"/>
</g>
<g id="Layer_3">
	<text transform="matrix(-0.0045 -1 1 -0.0045 175.084 161.7305)"><tspan x="0" y="0" font-family="'Helvetica'" font-size="6">OnCommand Unified Manager Installation  </tspan><tspan x="0" y="7.2" font-family="'Helvetica'" font-size="6">and Setup Guide</tspan></text>
	<text transform="matrix(-0.0045 -1 1 -0.0045 195.6074 161.7305)" font-family="'Helvetica'" font-size="6">OnCommand Console Help (in product and online)</text>
	<text transform="matrix(-0.0045 -1 1 -0.0045 208.5098 161.731)"><tspan x="0" y="0" font-family="'Helvetica'" font-size="6">OnCommand  Unified Manager Guide  </tspan><tspan x="0" y="7.2" font-family="'Helvetica'" font-size="6">to Common Workflows</tspan></text>
	<text transform="matrix(-0.0045 -1 1 -0.0045 260.8379 161.7305)" font-family="'Helvetica'" font-size="6">Operations Manager Administration Guide</text>
	<text transform="matrix(-0.0045 -1 1 -0.0045 245.8779 161.73)" font-family="'Helvetica'" font-size="6">Operations Manager Help</text>
	<text transform="matrix(-0.0045 -1 1 -0.0045 291.8838 161.7305)" font-family="'Helvetica'" font-size="6">Performance Advisor Administration Guide</text>
	<text transform="matrix(-0.0045 -1 1 -0.0045 276.3613 161.731)" font-family="'Helvetica'" font-size="6">Management Console Help</text>
	<text transform="matrix(-0.0045 -1 1 -0.0045 306.4063 161.7305)"><tspan x="0" y="0" font-family="'Helvetica'" font-size="6">Guide to Common Provisioning and  </tspan><tspan x="0" y="7.2" font-family="'Helvetica'" font-size="6">Data Protection Worlflow </tspan></text>
	<text transform="matrix(-0.0045 -1 1 -0.0045 328.9502 161.7305)"><tspan x="0" y="0" font-family="'Helvetica'" font-size="6">Host Agent Installation and Administration </tspan><tspan x="0" y="7.2" font-family="'Helvetica'" font-size="6">Guide</tspan></text>
	<text transform="matrix(-0.0045 -1 1 -0.0045 226.3833 161.4868)"><tspan x="0" y="0" font-family="'Helvetica'" font-size="6">OnCommand Unified Manager  </tspan><tspan x="0" y="7" font-family="'Helvetica'" font-size="6">Windows PowerShell Cmdlets Guide</tspan></text>
</g>
<g id="Layer_2">
	<line fill="none" stroke="#000000" stroke-width="0.25" stroke-miterlimit="10" x1="0" y1="515.597" x2="344.4" y2="515.597"/>
	<line fill="none" stroke="#000000" stroke-width="0.25" stroke-miterlimit="10" x1="0" y1="406.177" x2="344.654" y2="406.177"/>
	<line fill="none" stroke="#000000" stroke-width="0.25" stroke-miterlimit="10" x1="0" y1="472.203" x2="344.574" y2="472.203"/>
	<line fill="none" stroke="#000000" stroke-width="0.25" stroke-miterlimit="10" x1="0" y1="493.9" x2="344.38" y2="493.9"/>
	<line fill="none" stroke="#000000" stroke-width="0.25" stroke-miterlimit="10" x1="0" y1="526.447" x2="344.4" y2="526.447"/>
	<line fill="none" stroke="#000000" stroke-width="0.25" stroke-miterlimit="10" x1="0" y1="504.75" x2="344.4" y2="504.75"/>
	<line fill="none" stroke="#000000" stroke-width="0.25" stroke-miterlimit="10" x1="0" y1="483.051" x2="344.574" y2="483.051"/>
	<line fill="none" stroke="#000000" stroke-width="0.25" stroke-miterlimit="10" x1="0" y1="449.573" x2="344.654" y2="449.573"/>
	<line fill="none" stroke="#000000" stroke-width="0.25" stroke-miterlimit="10" x1="0" y1="427.875" x2="344.654" y2="427.875"/>
	
		<line fill="none" stroke="#000000" stroke-width="0.25" stroke-miterlimit="10" x1="0.265" y1="351.934" x2="344.394" y2="351.934"/>
	
		<line fill="none" stroke="#000000" stroke-width="0.25" stroke-miterlimit="10" x1="0.265" y1="341.084" x2="344.394" y2="341.084"/>
	
		<line fill="none" stroke="#000000" stroke-width="0.25" stroke-miterlimit="10" x1="0.265" y1="330.236" x2="344.394" y2="330.236"/>
	<line fill="none" stroke="#000000" stroke-width="0.25" stroke-miterlimit="10" x1="0" y1="417.027" x2="344.654" y2="417.027"/>
	<line fill="none" stroke="#000000" stroke-width="0.25" stroke-miterlimit="10" x1="0" y1="395.33" x2="344.654" y2="395.33"/>
	<line fill="none" stroke="#000000" stroke-width="0.25" stroke-miterlimit="10" x1="0" y1="384.479" x2="344.654" y2="384.479"/>
	
		<line fill="none" stroke="#000000" stroke-width="0.25" stroke-miterlimit="10" x1="0.265" y1="373.631" x2="344.412" y2="373.631"/>
	
		<line fill="none" stroke="#000000" stroke-width="0.25" stroke-miterlimit="10" x1="0.265" y1="362.782" x2="344.412" y2="362.782"/>
	<line fill="none" stroke="#000000" stroke-width="0.25" stroke-miterlimit="10" x1="0" y1="438.724" x2="344.574" y2="438.724"/>
	<line fill="none" stroke="#000000" stroke-width="0.25" stroke-miterlimit="10" x1="0" y1="460.422" x2="344.655" y2="460.422"/>
	
		<line fill="none" stroke="#000000" stroke-width="0.25" stroke-miterlimit="10" x1="0.265" y1="308.538" x2="344.394" y2="308.538"/>
	
		<line fill="none" stroke="#000000" stroke-width="0.25" stroke-miterlimit="10" x1="0.265" y1="319.386" x2="344.394" y2="319.386"/>
	
		<line fill="none" stroke="#000000" stroke-width="0.25" stroke-miterlimit="10" x1="0.265" y1="297.689" x2="344.394" y2="297.689"/>
	<line fill="none" stroke="#000000" stroke-width="0.25" stroke-miterlimit="10" x1="0.265" y1="286.84" x2="344.394" y2="286.84"/>
	
		<line fill="none" stroke="#000000" stroke-width="0.25" stroke-miterlimit="10" x1="0.265" y1="275.991" x2="344.394" y2="275.991"/>
	
		<line fill="none" stroke="#000000" stroke-width="0.25" stroke-miterlimit="10" x1="0.265" y1="265.142" x2="344.394" y2="265.142"/>
	
		<line fill="none" stroke="#000000" stroke-width="0.25" stroke-miterlimit="10" x1="0.265" y1="254.293" x2="344.394" y2="254.293"/>
	
		<line fill="none" stroke="#000000" stroke-width="0.25" stroke-miterlimit="10" x1="186.112" y1="12.907" x2="186.112" y2="526.233"/>
	
		<line fill="#384EA1" stroke="#000000" stroke-width="0.25" stroke-miterlimit="10" x1="319.372" y1="12.927" x2="319.372" y2="526.253"/>
	
		<line fill="none" stroke="#000000" stroke-width="0.25" stroke-miterlimit="10" x1="251.107" y1="12.907" x2="251.107" y2="526.233"/>
	
		<line fill="none" stroke="#000000" stroke-width="0.25" stroke-miterlimit="10" x1="219.075" y1="12.907" x2="219.075" y2="526.233"/>
	
		<line fill="none" stroke="#000000" stroke-width="0.25" stroke-miterlimit="10" x1="282.095" y1="12.927" x2="282.095" y2="526.253"/>
	
		<line fill="none" stroke="#000000" stroke-width="0.25" stroke-miterlimit="10" x1="166.997" y1="12.906" x2="166.997" y2="526.233"/>
	
		<line fill="none" stroke="#000000" stroke-width="0.25" stroke-miterlimit="10" x1="201.594" y1="12.907" x2="201.594" y2="526.233"/>
	
		<line fill="none" stroke="#000000" stroke-width="0.25" stroke-miterlimit="10" x1="236.626" y1="12.907" x2="236.626" y2="526.233"/>
	
		<line fill="none" stroke="#000000" stroke-width="0.25" stroke-miterlimit="10" x1="266.588" y1="12.907" x2="266.588" y2="526.233"/>
	
		<line fill="none" stroke="#000000" stroke-width="0.25" stroke-miterlimit="10" x1="297.577" y1="12.928" x2="297.577" y2="526.252"/>
	
		<line fill="none" stroke="#000000" stroke-width="0.25" stroke-miterlimit="10" x1="0.265" y1="243.444" x2="344.585" y2="243.444"/>
	
		<line fill="none" stroke="#000000" stroke-width="0.25" stroke-miterlimit="10" x1="0.265" y1="232.595" x2="344.585" y2="232.595"/>
	
		<line fill="none" stroke="#000000" stroke-width="0.25" stroke-miterlimit="10" x1="0.265" y1="221.747" x2="344.585" y2="221.747"/>
	
		<line fill="none" stroke="#000000" stroke-width="0.25" stroke-miterlimit="10" x1="0.265" y1="211.043" x2="344.585" y2="211.043"/>
	<line fill="none" stroke="#000000" stroke-width="0.25" stroke-miterlimit="10" x1="0.265" y1="168.23" x2="344.585" y2="168.23"/>
	
		<line fill="none" stroke="#000000" stroke-width="0.25" stroke-miterlimit="10" x1="0.265" y1="178.934" x2="344.585" y2="178.934"/>
	
		<line fill="none" stroke="#000000" stroke-width="0.25" stroke-miterlimit="10" x1="0.265" y1="189.637" x2="344.585" y2="189.637"/>
	<line fill="none" stroke="#000000" stroke-width="0.25" stroke-miterlimit="10" x1="0.265" y1="200.34" x2="344.585" y2="200.34"/>
</g>
<g id="Layer_4">
	<text transform="matrix(1.0072 0 0 1 8.1328 176.0249)" font-family="'Helvetica'" font-size="6.5198">Monitoring, physical environment</text>
	<text transform="matrix(1.0072 0 0 1 8.1328 197.6475)" font-family="'Helvetica'" font-size="6.5198">Monitoring, VMware objects in OnCommand console</text>
	<text transform="matrix(1.0072 0 0 1 8.1328 186.8359)" font-family="'Helvetica'" font-size="6.5198">Monitoring, SAN hosts</text>
	<text transform="matrix(1.0072 0 0 1 8.1328 229.5576)" font-family="'Helvetica'" font-size="6.5198">Permissions, roles, and users (RBAC)</text>
	<text transform="matrix(1.0072 0 0 1 8.1328 251.1797)" font-family="'Helvetica'" font-size="6.5198">Protection policies, virtual environment</text>
	<text transform="matrix(1.0072 0 0 1 8.1328 241.0361)" font-family="'Helvetica'" font-size="6.5198">Protection policies, physical environment</text>
	<text transform="matrix(1.0072 0 0 1 8.1328 219.7466)" font-family="'Helvetica'" font-size="6.5198">Performance</text>
	<text transform="matrix(1.0072 0 0 1 8.1328 207.936)" font-family="'Helvetica'" font-size="6.5198">Open Systems SnapVault (OSSV)</text>
	<text transform="matrix(1.0072 0 0 1 8.1328 273.4688)" font-family="'Helvetica'" font-size="6.5198">Provisioning tasks</text>
	<text transform="matrix(1.0072 0 0 1 8.1328 261.9912)" font-family="'Helvetica'" font-size="6.5198">Provisioning policies</text>
	<text transform="matrix(1.0072 0 0 1 8.1328 284.0908)" font-family="'Helvetica'" font-size="6.5198">Reports</text>
	<text transform="matrix(1.0072 0 0 1 8.1328 305.7124)" font-family="'Helvetica'" font-size="6.5198">Resource pools</text>
	<text transform="matrix(1.0072 0 0 1 8.1328 294.9023)" font-family="'Helvetica'" font-size="6.5198">Resource management</text>
	<text transform="matrix(1.0072 0 0 1 8.1328 316.335)" font-family="'Helvetica'" font-size="6.5198">Restore process, physical</text>
	<text transform="matrix(1.0072 0 0 1 8.1328 338.1006)" font-family="'Helvetica'" font-size="6.5198">SAN</text>
	<text transform="matrix(1.0072 0 0 1 8.1328 327.2905)" font-family="'Helvetica'" font-size="6.5198">Restore process, virtual </text>
	<text transform="matrix(1.0072 0 0 1 8.1328 349.2461)" font-family="'Helvetica'" font-size="6.5198">SAN host monitoring</text>
	<text transform="matrix(1.0072 0 0 1 8.1328 370.5356)" font-family="'Helvetica'" font-size="6.5198">Security</text>
	<text transform="matrix(1.0072 0 0 1 8.1328 381.8228)" font-family="'Helvetica'" font-size="6.5198">Snapshot copies</text>
	<text transform="matrix(1.0072 0 0 1 8.1328 403.4458)" font-family="'Helvetica'" font-size="6.5198">Services, starting and stopping </text>
	<text transform="matrix(1.0072 0 0 1 8.1328 392.9673)" font-family="'Helvetica'" font-size="6.5198">SNMP management</text>
	<text transform="matrix(1.0072 0 0 1 8.1328 414.188)" font-family="'Helvetica'" font-size="6.5198">Storage objects, physical</text>
	<text transform="matrix(1.0072 0 0 1 8.1328 424.4761)" font-family="'Helvetica'" font-size="6.5198">Storage objects, virtual</text>
	<text transform="matrix(1.0072 0 0 1 8.1328 435.6206)" font-family="'Helvetica'" font-size="6.5198">Storage services</text>
	<text transform="matrix(1.0072 0 0 1 8.1328 360.0571)" font-family="'Helvetica'" font-size="6.5198">Scripts</text>
	<text transform="matrix(1.0072 0 0 1 8.1328 457.2417)" font-family="'Helvetica'" font-size="6.5198">Upgrades and updates</text>
	<text transform="matrix(1.0072 0 0 1 8.1328 446.4321)" font-family="'Helvetica'" font-size="6.5198">System requirements</text>
	<text transform="matrix(1.0072 0 0 1 8.1328 469.0542)" font-family="'Helvetica'" font-size="6.5198">Users, roles, and permissions</text>
	<text transform="matrix(1.0072 0 0 1 8.1328 501.6294)" font-family="'Helvetica'" font-size="6.5198">Virtual machines</text>
	<text transform="matrix(1.0072 0 0 1 8.1328 491.1196)" font-family="'Helvetica'" font-size="6.5198">vFiler units, protecting</text>
	<text transform="matrix(1.0072 0 0 1 8.1328 479.8511)" font-family="'Helvetica'" font-size="6.5198">Veritas Cluster Server, installing with</text>
	<text transform="matrix(1.0072 0 0 1 8.1328 523.229)" font-family="'Helvetica'" font-size="6.5198">Vservers</text>
	<text transform="matrix(1.0072 0 0 1 8.1328 513.0288)" font-family="'Helvetica'" font-size="6.5198">VMware virtual object management</text>
</g>
</svg>