<svg xmlns="http://www.w3.org/2000/svg" viewBox="0 0 220.5 193.9434"><defs><style>.bdc899ba-2b54-4c37-96f9-7ff2764244d9{fill:#b2b2b2;}.a5ee6181-76ec-4929-9732-9d3374dd3484,.aa4c42fb-7558-4a0e-9b55-c5ca2b977028,.fc53cd16-7da0-49da-a6a2-af6878b23fb7,.feeeced1-d06c-4b65-b179-92bf233d1418{fill:none;}.a5ee6181-76ec-4929-9732-9d3374dd3484,.b3451d6d-6c67-424b-9e2f-1597bb7d7ba4,.feeeced1-d06c-4b65-b179-92bf233d1418{stroke:#000;stroke-width:0.5px;}.aa4c42fb-7558-4a0e-9b55-c5ca2b977028{stroke:#fff;stroke-width:2px;}.aa4c42fb-7558-4a0e-9b55-c5ca2b977028,.b3451d6d-6c67-424b-9e2f-1597bb7d7ba4,.feeeced1-d06c-4b65-b179-92bf233d1418{stroke-linecap:round;stroke-linejoin:round;}.b3451d6d-6c67-424b-9e2f-1597bb7d7ba4,.ef591cf0-b570-464f-922a-f5c8fa832239{fill:#fff;}.fc53cd16-7da0-49da-a6a2-af6878b23fb7{stroke:#231f20;stroke-width:0.3869px;}</style></defs><g id="e5ea06fe-e67d-4da7-894d-b7d9a3a939dc" data-name="gray box"><rect class="bdc899ba-2b54-4c37-96f9-7ff2764244d9" x="72.25" y="65.6934" width="125" height="106.25" rx="1.7998"/><line class="a5ee6181-76ec-4929-9732-9d3374dd3484" x1="0.5" y1="21.4434" x2="23.25" y2="21.4434"/><line class="a5ee6181-76ec-4929-9732-9d3374dd3484" y1="29.4434" x2="23.25" y2="29.4434"/><line class="a5ee6181-76ec-4929-9732-9d3374dd3484" x1="220.5" y1="21.4434" x2="203.75" y2="21.4434"/><line class="a5ee6181-76ec-4929-9732-9d3374dd3484" x1="220.5" y1="29.4434" x2="203" y2="29.4434"/><line class="a5ee6181-76ec-4929-9732-9d3374dd3484" x1="220.5" y1="37.6934" x2="193" y2="37.6934"/></g><g id="f17cf92e-9aaf-46c0-a6ae-643f21b2856a" data-name="outline"><line class="aa4c42fb-7558-4a0e-9b55-c5ca2b977028" x1="59.5498" y1="35.0435" x2="59.5498" y2="64.6217"/><line class="feeeced1-d06c-4b65-b179-92bf233d1418" x1="59.5498" y1="35.0435" x2="59.5498" y2="64.6217"/><line class="aa4c42fb-7558-4a0e-9b55-c5ca2b977028" x1="154.5498" y1="35.0435" x2="154.5498" y2="64.6217"/><line class="feeeced1-d06c-4b65-b179-92bf233d1418" x1="154.5498" y1="35.0435" x2="154.5498" y2="64.6217"/><line class="aa4c42fb-7558-4a0e-9b55-c5ca2b977028" x1="182.7998" y1="35.0435" x2="182.7998" y2="64.6217"/><line class="feeeced1-d06c-4b65-b179-92bf233d1418" x1="182.7998" y1="35.0435" x2="182.7998" y2="64.6217"/><rect class="feeeced1-d06c-4b65-b179-92bf233d1418" x="12.25" y="62.4434" width="191.75" height="131.25"/><rect class="b3451d6d-6c67-424b-9e2f-1597bb7d7ba4" x="48.25" y="62.4434" width="21.25" height="17.5"/><rect class="b3451d6d-6c67-424b-9e2f-1597bb7d7ba4" x="143.75" y="62.4434" width="21.25" height="17.5"/><rect class="b3451d6d-6c67-424b-9e2f-1597bb7d7ba4" x="172" y="62.4434" width="21.25" height="17.5"/><rect class="b3451d6d-6c67-424b-9e2f-1597bb7d7ba4" x="27.75" y="94.9434" width="62" height="33"/><rect class="b3451d6d-6c67-424b-9e2f-1597bb7d7ba4" x="142.25" y="95.1934" width="52.25" height="26"/><rect class="feeeced1-d06c-4b65-b179-92bf233d1418" x="18.25" y="143.1934" width="43.75" height="34.5"/><rect class="b3451d6d-6c67-424b-9e2f-1597bb7d7ba4" x="73.25" y="143.1934" width="43.75" height="34.5"/><path class="ef591cf0-b570-464f-922a-f5c8fa832239" d="M98.9766,20.586c0-6.37-6.8809-11.5263-15.3672-11.5225-.5332,0-1.0684.0137-1.5879.0547C80.4473,4.0069,74.354.1934,67.062.1934c-5.85,0-10.9336,2.4513-13.53,6.0566a20.078,20.078,0,0,0-5.3838-.742c-7.0156,0-12.9238,3.5379-14.7607,8.3553-7.6533.6564-13.6025,5.5283-13.6025,11.4492-.0039,6.36,6.8808,11.5264,15.3623,11.5264a19.613,19.613,0,0,0,6.7-1.167c2.6279,3.5108,7.6406,5.8945,13.3945,5.8945a17.4523,17.4523,0,0,0,12.2412-4.582A18.89,18.89,0,0,0,76.5161,39.2c7.1831,0,13.2007-3.7,14.8823-8.6943,4.5293-2.0038,7.5782-5.6953,7.5782-9.92"/><path class="fc53cd16-7da0-49da-a6a2-af6878b23fb7" d="M98.9766,20.586c0-6.37-6.8809-11.5263-15.3672-11.5225-.5332,0-1.0684.0137-1.5879.0547C80.4473,4.0069,74.354.1934,67.062.1934c-5.85,0-10.9336,2.4513-13.53,6.0566a20.078,20.078,0,0,0-5.3838-.742c-7.0156,0-12.9238,3.5379-14.7607,8.3553-7.6533.6564-13.6025,5.5283-13.6025,11.4492-.0039,6.36,6.8808,11.5264,15.3623,11.5264a19.613,19.613,0,0,0,6.7-1.167c2.6279,3.5108,7.6406,5.8945,13.3945,5.8945a17.4523,17.4523,0,0,0,12.2412-4.582A18.89,18.89,0,0,0,76.5161,39.2c7.1831,0,13.2007-3.7,14.8823-8.6943,4.5293-2.0038,7.5782-5.6953,7.5782-9.92Z"/><path class="ef591cf0-b570-464f-922a-f5c8fa832239" d="M207.2266,23.586c0-6.37-6.8809-11.5263-15.3672-11.5225-.5332,0-1.0684.0137-1.5879.0547-1.5742-5.1113-7.668-8.9248-14.959-8.9248-5.85,0-10.9336,2.4513-13.5312,6.0566a20.0719,20.0719,0,0,0-5.3829-.742c-7.0156,0-12.9238,3.5379-14.7617,8.3553-7.6523.6564-13.6015,5.5283-13.6015,11.4492-.0039,6.3605,6.8808,11.5264,15.3613,11.5264a19.6145,19.6145,0,0,0,6.7012-1.167c2.6269,3.5108,7.6406,5.8945,13.3945,5.8945a17.45,17.45,0,0,0,12.24-4.582A18.8928,18.8928,0,0,0,184.7656,42.2c7.1836,0,13.2012-3.7,14.8828-8.6943,4.5293-2.0038,7.5782-5.6953,7.5782-9.92"/><path class="fc53cd16-7da0-49da-a6a2-af6878b23fb7" d="M207.2266,23.586c0-6.37-6.8809-11.5263-15.3672-11.5225-.5332,0-1.0684.0137-1.5879.0547-1.5742-5.1113-7.668-8.9248-14.959-8.9248-5.85,0-10.9336,2.4513-13.5312,6.0566a20.0719,20.0719,0,0,0-5.3829-.742c-7.0156,0-12.9238,3.5379-14.7617,8.3553-7.6523.6564-13.6015,5.5283-13.6015,11.4492-.0039,6.3605,6.8808,11.5264,15.3613,11.5264a19.6145,19.6145,0,0,0,6.7012-1.167c2.6269,3.5108,7.6406,5.8945,13.3945,5.8945a17.45,17.45,0,0,0,12.24-4.582A18.8928,18.8928,0,0,0,184.7656,42.2c7.1836,0,13.2012-3.7,14.8828-8.6943,4.5293-2.0038,7.5782-5.6953,7.5782-9.92Z"/><rect x="50.4727" y="70.8272" width="16.2031" height="8.7744"/><rect x="53.6172" y="66.4684" width="9.916" height="4.5425"/><rect x="146.7227" y="70.8272" width="16.2031" height="8.7744"/><rect x="149.8672" y="66.4684" width="9.916" height="4.5425"/><rect x="174.7227" y="70.8272" width="16.2031" height="8.7744"/><rect x="177.8672" y="66.4684" width="9.916" height="4.5425"/><line class="feeeced1-d06c-4b65-b179-92bf233d1418" x1="58.25" y1="79.9434" x2="58.25" y2="94.9434"/><line class="feeeced1-d06c-4b65-b179-92bf233d1418" x1="154.5" y1="79.9434" x2="154.5" y2="94.9434"/><line class="feeeced1-d06c-4b65-b179-92bf233d1418" x1="182.75" y1="79.9434" x2="182.75" y2="94.9434"/><line class="feeeced1-d06c-4b65-b179-92bf233d1418" x1="32.167" y1="128.1934" x2="32.167" y2="143.1934"/><line class="feeeced1-d06c-4b65-b179-92bf233d1418" x1="84.667" y1="128.1934" x2="84.667" y2="143.1934"/></g><g id="a14e0c59-096e-4a4e-b817-b1573436eaf5" data-name="Text"><path d="M42.6328,102.525h4.6836v.791h-3.832v1.959h3.5429v.748H43.4844v2.1875h3.8984v.77h-4.75Z"/><path d="M48.6045,102.96h.8v1.3134h.751v.6465h-.751v3.0723a.3317.3317,0,0,0,.167.3291.7118.7118,0,0,0,.3076.0478c.0381,0,.0791,0,.1231-.0019a1.4926,1.4926,0,0,0,.1533-.0156v.6289a1.7573,1.7573,0,0,1-.2832.0566,2.6891,2.6891,0,0,1-.3184.0176.86.86,0,0,1-.7519-.2832,1.2642,1.2642,0,0,1-.1973-.7363V104.92h-.6367v-.6465h.6367Z"/><path d="M50.9473,102.5025h.791v2.4082a2.2632,2.2632,0,0,1,.5058-.5009,1.701,1.701,0,0,1,.9532-.25,1.41,1.41,0,0,1,1.3886.7158,2.4426,2.4426,0,0,1,.1973,1.0849v3.02h-.8125v-2.9668a1.6593,1.6593,0,0,0-.1318-.76.8424.8424,0,0,0-.8086-.3867,1.3483,1.3483,0,0,0-.8916.3379,1.6258,1.6258,0,0,0-.4,1.2793V108.98h-.791Z"/><path d="M58.8594,104.4029a1.7948,1.7948,0,0,1,.7119.6084,2.1209,2.1209,0,0,1,.3144.8311,5.43,5.43,0,0,1,.07,1.0371H56.5322a2.0372,2.0372,0,0,0,.336,1.1523,1.1192,1.1192,0,0,0,.9716.4346,1.2514,1.2514,0,0,0,.9815-.4111,1.4093,1.4093,0,0,0,.291-.5518H59.89a1.65,1.65,0,0,1-.2041.5781,2.0957,2.0957,0,0,1-.3876.52,1.8247,1.8247,0,0,1-.8848.4747,2.6818,2.6818,0,0,1-.6416.07,1.9622,1.9622,0,0,1-1.4805-.64,2.497,2.497,0,0,1-.6064-1.791,2.7114,2.7114,0,0,1,.6113-1.8408,2.0114,2.0114,0,0,1,1.5986-.708A2.1313,2.1313,0,0,1,58.8594,104.4029Zm.2832,1.8487a2.0642,2.0642,0,0,0-.2227-.8223,1.1358,1.1358,0,0,0-1.0761-.5713,1.1867,1.1867,0,0,0-.9063.3936,1.4927,1.4927,0,0,0-.3877,1Z"/><path d="M60.9785,104.273h.752v.8135a1.79,1.79,0,0,1,.4531-.5781,1.1731,1.1731,0,0,1,.83-.3408c.0146,0,.039.0019.0742.0049s.0957.0087.1807.0175v.835a1.1629,1.1629,0,0,0-.13-.0176c-.0391-.0029-.083-.0039-.1289-.0039a1.13,1.13,0,0,0-.919.3838,1.3445,1.3445,0,0,0-.3213.8857V108.98h-.791Z"/><path d="M63.9551,104.273h.7519v.668a2.1075,2.1075,0,0,1,.7071-.5928,1.8849,1.8849,0,0,1,.83-.1806,1.37,1.37,0,0,1,1.3536.6992,2.4788,2.4788,0,0,1,.1933,1.0937v3.02h-.8037v-2.9668a1.605,1.605,0,0,0-.1279-.6934.7712.7712,0,0,0-.7637-.4394,1.5572,1.5572,0,0,0-.4619.0566,1.1892,1.1892,0,0,0-.5713.3867,1.1559,1.1559,0,0,0-.2568.4815,3.1947,3.1947,0,0,0-.06.71V108.98h-.791Z"/><path d="M71.8672,104.4029a1.7948,1.7948,0,0,1,.7119.6084,2.1225,2.1225,0,0,1,.3145.8311,5.4406,5.4406,0,0,1,.07,1.0371H69.54a2.0372,2.0372,0,0,0,.336,1.1523,1.1194,1.1194,0,0,0,.9717.4346,1.2512,1.2512,0,0,0,.9814-.4111,1.4093,1.4093,0,0,0,.291-.5518h.7774a1.6515,1.6515,0,0,1-.2041.5781,2.0984,2.0984,0,0,1-.3877.52,1.8243,1.8243,0,0,1-.8848.4747,2.6818,2.6818,0,0,1-.6416.07,1.9622,1.9622,0,0,1-1.4805-.64,2.497,2.497,0,0,1-.6064-1.791,2.7114,2.7114,0,0,1,.6113-1.8408,2.0114,2.0114,0,0,1,1.5986-.708A2.1313,2.1313,0,0,1,71.8672,104.4029Zm.2832,1.8487a2.0642,2.0642,0,0,0-.2227-.8223,1.1358,1.1358,0,0,0-1.0761-.5713,1.1868,1.1868,0,0,0-.9063.3936,1.4927,1.4927,0,0,0-.3877,1Z"/><path d="M74.123,102.96h.8v1.3134h.7509v.6465h-.7509v3.0723a.3316.3316,0,0,0,.1669.3291.7123.7123,0,0,0,.3077.0478c.038,0,.0791,0,.123-.0019a1.49,1.49,0,0,0,.1533-.0156v.6289a1.7551,1.7551,0,0,1-.2832.0566,2.6874,2.6874,0,0,1-.3183.0176.86.86,0,0,1-.752-.2832,1.2649,1.2649,0,0,1-.1973-.7363V104.92h-.6367v-.6465h.6367Z"/><path d="M47.4219,118.3033a1.1338,1.1338,0,0,0,.2011.6065,1.283,1.283,0,0,0,1.0586.3818,1.59,1.59,0,0,0,.7891-.19.6331.6331,0,0,0,.3418-.5909.5048.5048,0,0,0-.2734-.4619,3.2608,3.2608,0,0,0-.6875-.2236l-.6387-.1582a3.1448,3.1448,0,0,1-.9014-.334.9955.9955,0,0,1-.5185-.8887,1.3474,1.3474,0,0,1,.4873-1.08,1.9638,1.9638,0,0,1,1.3115-.4141,1.8329,1.8329,0,0,1,1.5547.625,1.34,1.34,0,0,1,.289.8516H49.69a.9.9,0,0,0-.1944-.4844,1.2533,1.2533,0,0,0-.9668-.3106,1.1807,1.1807,0,0,0-.6953.1709.53.53,0,0,0-.2353.4512.5528.5528,0,0,0,.3095.49,1.8627,1.8627,0,0,0,.5283.1924l.5333.128a4.2065,4.2065,0,0,1,1.164.3994,1.0605,1.0605,0,0,1,.461.9541,1.4406,1.4406,0,0,1-.4825,1.0849,2.07,2.07,0,0,1-1.4707.4571,1.985,1.985,0,0,1-1.5058-.4766,1.7888,1.7888,0,0,1-.4737-1.18Z"/><path d="M51.8184,115.0728l.9052,3.709.918-3.709h.8877l.9228,3.6875.9629-3.6875h.7911L55.8389,119.78h-.8213l-.958-3.6426-.9278,3.6426h-.8213l-1.3584-4.7071Z"/><path d="M57.9512,113.3248h.8047v.8965h-.8047Zm0,1.77h.8047V119.78h-.8047Z"/><path d="M60.1084,113.7594h.8v1.3134h.751v.6465h-.751v3.0723a.3317.3317,0,0,0,.167.3291.7118.7118,0,0,0,.3076.0478c.0381,0,.0791,0,.1231-.0019a1.4926,1.4926,0,0,0,.1533-.0156v.6289a1.7573,1.7573,0,0,1-.2832.0566,2.6891,2.6891,0,0,1-.3184.0176.86.86,0,0,1-.7519-.2832,1.2642,1.2642,0,0,1-.1973-.7363v-3.1153h-.6367v-.6465h.6367Z"/><path d="M65.5605,115.3238a1.855,1.855,0,0,1,.6,1.3311h-.77a1.4233,1.4233,0,0,0-.32-.7227,1.0159,1.0159,0,0,0-.8047-.2871,1.1083,1.1083,0,0,0-1.08.7373,2.9226,2.9226,0,0,0-.2109,1.1807,2.2124,2.2124,0,0,0,.2988,1.1894,1.16,1.16,0,0,0,1.72.1826,1.6434,1.6434,0,0,0,.3974-.8212h.77a1.861,1.861,0,0,1-2.0079,1.8027,1.8035,1.8035,0,0,1-1.4726-.6748,2.5833,2.5833,0,0,1-.5488-1.6856,2.8382,2.8382,0,0,1,.6015-1.9287,1.9451,1.9451,0,0,1,1.5332-.69A2.0551,2.0551,0,0,1,65.5605,115.3238Z"/><path d="M66.9512,113.3023h.791v2.4082a2.2632,2.2632,0,0,1,.5058-.5009,1.7012,1.7012,0,0,1,.9532-.25,1.41,1.41,0,0,1,1.3886.7158,2.4426,2.4426,0,0,1,.1973,1.0849v3.02h-.8125v-2.9668a1.66,1.66,0,0,0-.1318-.76.8424.8424,0,0,0-.8086-.3867,1.3484,1.3484,0,0,0-.8916.3379,1.6258,1.6258,0,0,0-.4,1.2793V119.78h-.791Z"/><path d="M150.5957,106.5948a1.7948,1.7948,0,0,1,.7119.6084,2.1225,2.1225,0,0,1,.3145.8311,5.4406,5.4406,0,0,1,.07,1.0371h-3.4238a2.0364,2.0364,0,0,0,.3359,1.1523,1.1194,1.1194,0,0,0,.9717.4346,1.2512,1.2512,0,0,0,.9814-.4111,1.4093,1.4093,0,0,0,.291-.5518h.7774a1.6515,1.6515,0,0,1-.2041.5781,2.0935,2.0935,0,0,1-.3877.52,1.8233,1.8233,0,0,1-.8848.4746,2.6759,2.6759,0,0,1-.6416.07,1.9622,1.9622,0,0,1-1.4805-.64,2.4972,2.4972,0,0,1-.6064-1.791,2.7114,2.7114,0,0,1,.6113-1.8408,2.0117,2.0117,0,0,1,1.5987-.708A2.1312,2.1312,0,0,1,150.5957,106.5948Zm.2832,1.8486a2.0625,2.0625,0,0,0-.2227-.8222,1.1358,1.1358,0,0,0-1.0761-.5713,1.1871,1.1871,0,0,0-.9063.3935,1.4931,1.4931,0,0,0-.3877,1Z"/><path d="M156.3145,105.8849a4.5075,4.5075,0,0,1,.4218,2.1318,5.11,5.11,0,0,1-.3828,2.1221,1.8712,1.8712,0,0,1-1.81,1.205,1.813,1.813,0,0,1-1.6875-.9843,4.52,4.52,0,0,1-.461-2.2071,5.4254,5.4254,0,0,1,.2774-1.8408,1.8932,1.8932,0,0,1,1.876-1.4326A1.8606,1.8606,0,0,1,156.3145,105.8849Zm-.7959,4.1933a3.9467,3.9467,0,0,0,.3652-2.0312,5.013,5.013,0,0,0-.2637-1.7637,1.0058,1.0058,0,0,0-1.0263-.6924,1.0719,1.0719,0,0,0-1.0235.6572,4.5264,4.5264,0,0,0-.3232,1.9356,4.7525,4.7525,0,0,0,.207,1.5469,1.1248,1.1248,0,0,0,2.0645.3476Z"/><path d="M160.2217,108.3233a.4317.4317,0,0,0,.3652-.2275.719.719,0,0,0,.0518-.3047.6463.6463,0,0,0-.2871-.5889,1.5327,1.5327,0,0,0-.8223-.1826,1.0416,1.0416,0,0,0-.877.335,1.11,1.11,0,0,0-.1884.5517h-.7383a1.3627,1.3627,0,0,1,.5644-1.2138,2.3078,2.3078,0,0,1,1.2569-.3408,2.553,2.553,0,0,1,1.3476.3164,1.0729,1.0729,0,0,1,.5137.9843v2.711a.3448.3448,0,0,0,.0508.1982c.0332.05.1045.0742.2129.0742a1.0911,1.0911,0,0,0,.1191-.0068c.043-.0039.09-.0107.1406-.02v.5839a2.2581,2.2581,0,0,1-.2812.0665,2.08,2.08,0,0,1-.2637.0136.6522.6522,0,0,1-.5937-.29,1.1389,1.1389,0,0,1-.1368-.4356,2.0161,2.0161,0,0,1-.6933.55,2.1645,2.1645,0,0,1-.9981.2325,1.4866,1.4866,0,0,1-1.07-.3975,1.3193,1.3193,0,0,1-.415-.9941,1.2771,1.2771,0,0,1,.4092-1.0137,1.9386,1.9386,0,0,1,1.0722-.4434Zm-1.6651,2.1368a.9263.9263,0,0,0,.5928.1982,1.8039,1.8039,0,0,0,.8086-.1934,1.0869,1.0869,0,0,0,.6592-1.0488V108.78a1.3806,1.3806,0,0,1-.3731.1543,3.1456,3.1456,0,0,1-.4472.0879l-.4776.0615a1.8409,1.8409,0,0,0-.6464.18.6972.6972,0,0,0-.3672.6572A.6454.6454,0,0,0,158.5566,110.46Z"/><path d="M178.01,106.5948a1.7948,1.7948,0,0,1,.7119.6084,2.1209,2.1209,0,0,1,.3144.8311,5.4322,5.4322,0,0,1,.07,1.0371h-3.4238a2.0372,2.0372,0,0,0,.336,1.1523,1.1192,1.1192,0,0,0,.9716.4346,1.2514,1.2514,0,0,0,.9815-.4111,1.4093,1.4093,0,0,0,.291-.5518h.7773a1.65,1.65,0,0,1-.2041.5781,2.0935,2.0935,0,0,1-.3877.52,1.823,1.823,0,0,1-.8847.4746,2.6765,2.6765,0,0,1-.6416.07,1.9621,1.9621,0,0,1-1.4805-.64,2.4972,2.4972,0,0,1-.6064-1.791,2.7114,2.7114,0,0,1,.6113-1.8408,2.0114,2.0114,0,0,1,1.5986-.708A2.1316,2.1316,0,0,1,178.01,106.5948Zm.2832,1.8486a2.0658,2.0658,0,0,0-.2227-.8222,1.1359,1.1359,0,0,0-1.0762-.5713,1.1868,1.1868,0,0,0-.9062.3935,1.4926,1.4926,0,0,0-.3877,1Z"/><path d="M183.7285,105.8849a4.5062,4.5062,0,0,1,.4219,2.1318,5.1115,5.1115,0,0,1-.3828,2.1221,1.8714,1.8714,0,0,1-1.8106,1.205,1.8132,1.8132,0,0,1-1.6875-.9843,4.5208,4.5208,0,0,1-.4609-2.2071,5.428,5.428,0,0,1,.2773-1.8408,1.8932,1.8932,0,0,1,1.876-1.4326A1.8605,1.8605,0,0,1,183.7285,105.8849Zm-.7959,4.1933a3.9454,3.9454,0,0,0,.3653-2.0312,5.013,5.013,0,0,0-.2637-1.7637,1.006,1.006,0,0,0-1.0264-.6924,1.0717,1.0717,0,0,0-1.0234.6572,4.5261,4.5261,0,0,0-.3233,1.9356,4.7522,4.7522,0,0,0,.2071,1.5469,1.1248,1.1248,0,0,0,2.0644.3476Z"/><path d="M185.0469,104.6944h.7695v2.3428a1.7356,1.7356,0,0,1,1.4072-.6953,1.8467,1.8467,0,0,1,1.4317.6045,2.5688,2.5688,0,0,1,.55,1.7822,3.051,3.051,0,0,1-.543,1.8545,1.7636,1.7636,0,0,1-1.5049.7383,1.5515,1.5515,0,0,1-.9082-.2588,2.1672,2.1672,0,0,1-.4717-.4922v.6016h-.73Zm3.0254,5.419a2.5068,2.5068,0,0,0,.3193-1.3457,2.2077,2.2077,0,0,0-.3193-1.2305,1.0568,1.0568,0,0,0-.9414-.4873,1.3167,1.3167,0,0,0-.95.3994,1.7925,1.7925,0,0,0-.4082,1.3184,2.8911,2.8911,0,0,0,.1679,1.0771,1.1568,1.1568,0,0,0,1.168.7783A1.0625,1.0625,0,0,0,188.0723,110.1134Z"/><path d="M87.561,158.357a1.7942,1.7942,0,0,1,.7119.6084,2.1194,2.1194,0,0,1,.3145.8311,5.4322,5.4322,0,0,1,.07,1.0371H85.2339a2.0364,2.0364,0,0,0,.3359,1.1523,1.1194,1.1194,0,0,0,.9717.4346,1.2511,1.2511,0,0,0,.9814-.4111,1.41,1.41,0,0,0,.2911-.5518h.7773a1.6515,1.6515,0,0,1-.2041.5781,2.0935,2.0935,0,0,1-.3877.52,1.8243,1.8243,0,0,1-.8848.4747,2.6812,2.6812,0,0,1-.6416.07,1.962,1.962,0,0,1-1.48-.64,2.4971,2.4971,0,0,1-.6065-1.791,2.7115,2.7115,0,0,1,.6114-1.8408,2.0114,2.0114,0,0,1,1.5986-.708A2.1312,2.1312,0,0,1,87.561,158.357Zm.2832,1.8487a2.0643,2.0643,0,0,0-.2226-.8223,1.1361,1.1361,0,0,0-1.0762-.5713,1.1866,1.1866,0,0,0-.9062.3936,1.4917,1.4917,0,0,0-.3877,1Z"/><path d="M93.28,157.6471a4.5077,4.5077,0,0,1,.4219,2.1318,5.11,5.11,0,0,1-.3829,2.1221,1.8712,1.8712,0,0,1-1.81,1.205,1.813,1.813,0,0,1-1.6875-.9843,4.5208,4.5208,0,0,1-.4609-2.2071,5.428,5.428,0,0,1,.2773-1.8408,1.8932,1.8932,0,0,1,1.876-1.4326A1.8606,1.8606,0,0,1,93.28,157.6471Zm-.7959,4.1933a3.9456,3.9456,0,0,0,.3652-2.0312,5.013,5.013,0,0,0-.2637-1.7637,1.0058,1.0058,0,0,0-1.0263-.6924,1.072,1.072,0,0,0-1.0235.6572,4.5267,4.5267,0,0,0-.3232,1.9356,4.7525,4.7525,0,0,0,.207,1.5469,1.1248,1.1248,0,0,0,2.0645.3476Z"/><path d="M94.7485,156.4791h1.252l1.8564,5.457,1.8438-5.457h1.2431v6.4551H100.11v-3.8106c0-.1308.0019-.35.0078-.6543s.01-.6308.01-.98l-1.8437,5.4453h-.8662l-1.86-5.4453v.1982q0,.2373.0127.7227t.0127.7138v3.8106h-.834Z"/><path d="M74.2979,187.2325a1.8017,1.8017,0,0,0,.25.8926,1.63,1.63,0,0,0,1.4775.6426,2.5282,2.5282,0,0,0,.8633-.1407.9915.9915,0,0,0,.7539-.9765.8555.8555,0,0,0-.3194-.752,3.1449,3.1449,0,0,0-1.0136-.3808l-.8467-.1993a3.7484,3.7484,0,0,1-1.1758-.4257,1.3629,1.3629,0,0,1-.5957-1.209,1.8865,1.8865,0,0,1,.5859-1.4278,2.3153,2.3153,0,0,1,1.6592-.5585,2.8314,2.8314,0,0,1,1.6787.49,1.7886,1.7886,0,0,1,.6905,1.5664h-.8213a1.6713,1.6713,0,0,0-.27-.7949,1.535,1.535,0,0,0-1.3018-.5059,1.4625,1.4625,0,0,0-1.0654.3262,1.0366,1.0366,0,0,0-.3252.7558.7408.7408,0,0,0,.3838.6934,5.4759,5.4759,0,0,0,1.1367.3516l.8769.207a2.6564,2.6564,0,0,1,.98.4082,1.5506,1.5506,0,0,1,.5957,1.3145,1.65,1.65,0,0,1-.76,1.5332,3.336,3.336,0,0,1-1.7686.4628,2.6,2.6,0,0,1-1.8379-.6152,2.1013,2.1013,0,0,1-.6513-1.6582Z"/><path d="M79.7822,183.295h.8V184.61h.751v.6464h-.751v3.0723a.3291.3291,0,0,0,.167.3281.6937.6937,0,0,0,.3076.0489c.0381,0,.0791,0,.1231-.002s.0947-.0078.1533-.0156v.6289a1.8605,1.8605,0,0,1-.2832.0566,2.668,2.668,0,0,1-.3184.0176.8593.8593,0,0,1-.7519-.2832,1.2661,1.2661,0,0,1-.1973-.7363v-3.1153h-.6367V184.61h.6367Z"/><path d="M85.5352,185.08a2.3707,2.3707,0,0,1,.624,1.7812,3.0726,3.0726,0,0,1-.55,1.8789,1.98,1.98,0,0,1-1.7061.7422,1.9222,1.9222,0,0,1-1.5322-.6562,2.6034,2.6034,0,0,1-.5664-1.7618,2.8183,2.8183,0,0,1,.5976-1.8886,1.9994,1.9994,0,0,1,1.6055-.7032A2.1089,2.1089,0,0,1,85.5352,185.08Zm-.4913,3.1269a2.9934,2.9934,0,0,0,.2891-1.3242,2.37,2.37,0,0,0-.209-1.07,1.1687,1.1687,0,0,0-1.1377-.6484,1.1177,1.1177,0,0,0-1.0429.5527,2.5722,2.5722,0,0,0-.3262,1.334,2.2369,2.2369,0,0,0,.3262,1.25,1.143,1.143,0,0,0,1.0341.5019A1.0765,1.0765,0,0,0,85.0439,188.2071Z"/><path d="M87.1514,184.61h.7519v.8125a1.8016,1.8016,0,0,1,.4531-.5782,1.1724,1.1724,0,0,1,.83-.34c.0147,0,.0391.0019.0742.0039.0352.0039.0957.01.1807.0176v.8359a.8523.8523,0,0,0-.13-.0176c-.039-.0039-.083-.0039-.1289-.0039a1.1289,1.1289,0,0,0-.9189.3828,1.3488,1.3488,0,0,0-.3213.8868v2.707h-.791Z"/><path d="M92.6494,186.4669a.4328.4328,0,0,0,.3652-.2266.7218.7218,0,0,0,.0518-.3047.6478.6478,0,0,0-.2871-.59,1.5415,1.5415,0,0,0-.8223-.1816,1.0441,1.0441,0,0,0-.8769.3339,1.1164,1.1164,0,0,0-.1885.5528h-.7383a1.365,1.365,0,0,1,.5645-1.2149,2.3161,2.3161,0,0,1,1.2568-.34,2.5546,2.5546,0,0,1,1.3477.3164,1.0732,1.0732,0,0,1,.5136.9844v2.7109a.34.34,0,0,0,.0508.1973c.0332.0507.1045.0742.2129.0742.0352,0,.0742-.002.1192-.0059.0429-.0039.09-.0117.1406-.02v.584a2.48,2.48,0,0,1-.2813.0664,2.26,2.26,0,0,1-.2636.0137.6511.6511,0,0,1-.5938-.2911,1.13,1.13,0,0,1-.1367-.4355,2.0325,2.0325,0,0,1-.6934.5508,2.164,2.164,0,0,1-.998.2324,1.4833,1.4833,0,0,1-1.07-.3984,1.3177,1.3177,0,0,1-.4151-.9942,1.2777,1.2777,0,0,1,.4092-1.0137,1.945,1.945,0,0,1,1.0723-.4433Zm-1.665,2.1367a.9209.9209,0,0,0,.5927.1992,1.8034,1.8034,0,0,0,.8086-.1933,1.089,1.089,0,0,0,.6592-1.0489v-.6367a1.32,1.32,0,0,1-.373.1543,3.15,3.15,0,0,1-.4473.0879l-.4775.0625a1.8224,1.8224,0,0,0-.6465.18.696.696,0,0,0-.3672.6562A.6451.6451,0,0,0,90.9844,188.6036Z"/><path d="M97.749,184.7989a2.1647,2.1647,0,0,1,.4561.4473v-.5918h.7285v4.2793a3.1678,3.1678,0,0,1-.2627,1.416,1.8868,1.8868,0,0,1-1.8525.957,2.272,2.272,0,0,1-1.2745-.34,1.3312,1.3312,0,0,1-.5781-1.0664H95.77a.9067.9067,0,0,0,.2276.4883,1.4328,1.4328,0,0,0,2.0234-.3789,3.6111,3.6111,0,0,0,.1533-1.3477,1.5443,1.5443,0,0,1-.5693.5352,2.0346,2.0346,0,0,1-2.2129-.3672,2.39,2.39,0,0,1-.5713-1.795,2.7292,2.7292,0,0,1,.5762-1.8457,1.78,1.78,0,0,1,1.39-.664A1.7033,1.7033,0,0,1,97.749,184.7989Zm.0967.8477a1.1439,1.1439,0,0,0-.9131-.4219,1.1294,1.1294,0,0,0-1.1367.7832,3.0618,3.0618,0,0,0-.1621,1.0938,1.9558,1.9558,0,0,0,.3213,1.2109,1.0374,1.0374,0,0,0,.8633.4141,1.2111,1.2111,0,0,0,1.1933-.7676,2.4862,2.4862,0,0,0,.1934-1.0157A1.9671,1.9671,0,0,0,97.8457,185.6466Z"/><path d="M103.0449,184.7384a1.8038,1.8038,0,0,1,.7119.6093,2.1148,2.1148,0,0,1,.3145.83,5.4322,5.4322,0,0,1,.07,1.0371h-3.4238a2.037,2.037,0,0,0,.3359,1.1524,1.12,1.12,0,0,0,.9717.4355,1.2516,1.2516,0,0,0,.9814-.4121,1.3986,1.3986,0,0,0,.2911-.5508h.7773a1.6588,1.6588,0,0,1-.2041.5782,2.1076,2.1076,0,0,1-.3877.5195,1.8233,1.8233,0,0,1-.8848.4746,2.6761,2.6761,0,0,1-.6416.07,1.9647,1.9647,0,0,1-1.48-.6387,2.4986,2.4986,0,0,1-.6065-1.791,2.716,2.716,0,0,1,.6113-1.8418,2.014,2.014,0,0,1,1.5987-.707A2.1288,2.1288,0,0,1,103.0449,184.7384Zm.2832,1.85a2.0643,2.0643,0,0,0-.2226-.8223,1.137,1.137,0,0,0-1.0762-.5723,1.1843,1.1843,0,0,0-.9063.3946,1.4921,1.4921,0,0,0-.3876,1Z"/><path d="M110.7529,184.86a1.8569,1.8569,0,0,1,.6,1.332h-.77a1.42,1.42,0,0,0-.32-.7227,1.0161,1.0161,0,0,0-.8047-.2871,1.1075,1.1075,0,0,0-1.08.7364,2.9269,2.9269,0,0,0-.2109,1.1816,2.213,2.213,0,0,0,.2988,1.1895,1.1587,1.1587,0,0,0,1.72.1816,1.6357,1.6357,0,0,0,.3975-.82h.77a1.8609,1.8609,0,0,1-2.0078,1.8027,1.804,1.804,0,0,1-1.4726-.6758,2.5813,2.5813,0,0,1-.5489-1.6855,2.8329,2.8329,0,0,1,.6016-1.9277,1.9426,1.9426,0,0,1,1.5332-.6915A2.0552,2.0552,0,0,1,110.7529,184.86Z"/><path d="M115.5537,185.08a2.3707,2.3707,0,0,1,.624,1.7812,3.0726,3.0726,0,0,1-.55,1.8789,1.98,1.98,0,0,1-1.706.7422,1.9224,1.9224,0,0,1-1.5323-.6562,2.6034,2.6034,0,0,1-.5664-1.7618,2.8183,2.8183,0,0,1,.5977-1.8886,1.9993,1.9993,0,0,1,1.6055-.7032A2.1087,2.1087,0,0,1,115.5537,185.08Zm-.4912,3.1269a2.9934,2.9934,0,0,0,.2891-1.3242,2.371,2.371,0,0,0-.209-1.07,1.1687,1.1687,0,0,0-1.1377-.6484,1.1179,1.1179,0,0,0-1.043.5527,2.5722,2.5722,0,0,0-.3262,1.334,2.2369,2.2369,0,0,0,.3262,1.25,1.1431,1.1431,0,0,0,1.0342.5019A1.0767,1.0767,0,0,0,115.0625,188.2071Z"/><path d="M117.1484,184.61h.752v.6679a2.1105,2.1105,0,0,1,.707-.5937,1.8972,1.8972,0,0,1,.83-.18,1.3681,1.3681,0,0,1,1.3535.6992,2.4761,2.4761,0,0,1,.1934,1.0938v3.0195h-.8037V186.35a1.6006,1.6006,0,0,0-.128-.6934.7712.7712,0,0,0-.7636-.4394,1.5291,1.5291,0,0,0-.462.0566,1.1889,1.1889,0,0,0-.5712.3867,1.1469,1.1469,0,0,0-.2569.4805,3.2192,3.2192,0,0,0-.0595.711v2.4648h-.7911Z"/><path d="M122.3125,183.295h.8V184.61h.751v.6464h-.751v3.0723a.3291.3291,0,0,0,.167.3281.6937.6937,0,0,0,.3076.0489c.0381,0,.0791,0,.1231-.002s.0947-.0078.1533-.0156v.6289a1.8605,1.8605,0,0,1-.2832.0566,2.668,2.668,0,0,1-.3184.0176.8593.8593,0,0,1-.7519-.2832,1.2661,1.2661,0,0,1-.1973-.7363v-3.1153h-.6367V184.61h.6367Z"/><path d="M124.6758,184.61h.7519v.8125a1.8023,1.8023,0,0,1,.4532-.5782,1.1722,1.1722,0,0,1,.83-.34c.0147,0,.0391.0019.0743.0039.0351.0039.0957.01.1806.0176v.8359a.8523.8523,0,0,0-.13-.0176c-.039-.0039-.083-.0039-.1289-.0039a1.129,1.129,0,0,0-.9189.3828,1.3488,1.3488,0,0,0-.3213.8868v2.707h-.791Z"/><path d="M131.0625,185.08a2.3707,2.3707,0,0,1,.624,1.7812,3.0726,3.0726,0,0,1-.55,1.8789,1.98,1.98,0,0,1-1.706.7422,1.9223,1.9223,0,0,1-1.5323-.6562,2.6034,2.6034,0,0,1-.5664-1.7618,2.8178,2.8178,0,0,1,.5977-1.8886,1.9993,1.9993,0,0,1,1.6055-.7032A2.1087,2.1087,0,0,1,131.0625,185.08Zm-.4912,3.1269a2.9934,2.9934,0,0,0,.2891-1.3242,2.371,2.371,0,0,0-.209-1.07,1.1688,1.1688,0,0,0-1.1377-.6484,1.1179,1.1179,0,0,0-1.043.5527,2.5722,2.5722,0,0,0-.3262,1.334,2.2369,2.2369,0,0,0,.3262,1.25,1.1431,1.1431,0,0,0,1.0342.5019A1.0767,1.0767,0,0,0,130.5713,188.2071Z"/><path d="M132.6787,182.8614h.791v6.4551h-.791Z"/><path d="M134.6777,182.8614h.7911v6.4551h-.7911Z"/><path d="M139.5635,184.7384a1.8045,1.8045,0,0,1,.7119.6093,2.1162,2.1162,0,0,1,.3144.83,5.43,5.43,0,0,1,.07,1.0371h-3.4239a2.0378,2.0378,0,0,0,.336,1.1524,1.12,1.12,0,0,0,.9716.4355,1.2518,1.2518,0,0,0,.9815-.4121,1.3984,1.3984,0,0,0,.291-.5508h.7774a1.6592,1.6592,0,0,1-.2042.5782,2.11,2.11,0,0,1-.3876.5195,1.8233,1.8233,0,0,1-.8848.4746,2.6767,2.6767,0,0,1-.6416.07,1.9649,1.9649,0,0,1-1.48-.6387,2.4985,2.4985,0,0,1-.6064-1.791A2.716,2.716,0,0,1,137,185.211a2.0137,2.0137,0,0,1,1.5986-.707A2.1289,2.1289,0,0,1,139.5635,184.7384Zm.2832,1.85a2.0642,2.0642,0,0,0-.2227-.8223,1.1367,1.1367,0,0,0-1.0761-.5723,1.1841,1.1841,0,0,0-.9063.3946,1.4927,1.4927,0,0,0-.3877,1Z"/><path d="M141.6836,184.61h.7519v.8125a1.8037,1.8037,0,0,1,.4532-.5782,1.1723,1.1723,0,0,1,.83-.34c.0146,0,.039.0019.0742.0039.0351.0039.0957.01.1806.0176v.8359a.8511.8511,0,0,0-.13-.0176c-.0391-.0039-.0831-.0039-.129-.0039a1.129,1.129,0,0,0-.9189.3828,1.3488,1.3488,0,0,0-.3213.8868v2.707h-.791Z"/><path d="M156.8584,148.4581H159.44a2.42,2.42,0,0,1,2.038.9443,3.516,3.516,0,0,1,.6465,2.1846,4.4065,4.4065,0,0,1-.3818,1.8584,2.353,2.353,0,0,1-2.3115,1.4678h-2.5723Zm2.4092,5.708a2.2794,2.2794,0,0,0,.7129-.0928,1.57,1.57,0,0,0,.8164-.6582,2.7178,2.7178,0,0,0,.3652-1.0019,3.9119,3.9119,0,0,0,.0654-.6778,3.2114,3.2114,0,0,0-.4668-1.8632,1.7084,1.7084,0,0,0-1.5019-.6631h-1.5166v4.957Z"/><path d="M165.7363,152.0645a.4318.4318,0,0,0,.3653-.2275.7208.7208,0,0,0,.0517-.3047.6463.6463,0,0,0-.2871-.5889,1.5325,1.5325,0,0,0-.8223-.1826,1.0415,1.0415,0,0,0-.8769.335,1.1086,1.1086,0,0,0-.1885.5518H163.24a1.3631,1.3631,0,0,1,.5645-1.2139,2.3075,2.3075,0,0,1,1.2568-.3408,2.5534,2.5534,0,0,1,1.3477.3164,1.0729,1.0729,0,0,1,.5137.9843v2.711a.3456.3456,0,0,0,.0507.1982c.0332.05.1045.0742.2129.0742a1.0928,1.0928,0,0,0,.1192-.0068c.0429-.0039.09-.0107.1406-.02v.584a2.2769,2.2769,0,0,1-.2813.0664,2.0607,2.0607,0,0,1-.2636.0136.6524.6524,0,0,1-.5938-.29,1.1379,1.1379,0,0,1-.1367-.4355,2.0189,2.0189,0,0,1-.6934.55,2.164,2.164,0,0,1-.998.2324,1.4864,1.4864,0,0,1-1.07-.3975,1.319,1.319,0,0,1-.4151-.9941,1.2774,1.2774,0,0,1,.4092-1.0137,1.9386,1.9386,0,0,1,1.0723-.4434Zm-1.665,2.1368a.9259.9259,0,0,0,.5928.1982,1.8029,1.8029,0,0,0,.8086-.1934,1.087,1.087,0,0,0,.6591-1.0488v-.6357a1.38,1.38,0,0,1-.373.1543,3.15,3.15,0,0,1-.4473.0879l-.4775.0615a1.8415,1.8415,0,0,0-.6465.18.6974.6974,0,0,0-.3672.6572A.6452.6452,0,0,0,164.0713,154.2013Z"/><path d="M168.377,148.8927h.8v1.3134h.7509v.6465h-.7509v3.0723a.3315.3315,0,0,0,.167.3291.7115.7115,0,0,0,.3076.0478c.0381,0,.0791,0,.123-.0019a1.49,1.49,0,0,0,.1533-.0156v.6289a1.7551,1.7551,0,0,1-.2832.0566,2.6874,2.6874,0,0,1-.3183.0176.86.86,0,0,1-.752-.2832,1.2649,1.2649,0,0,1-.1972-.7363v-3.1153H167.74v-.6465h.6368Z"/><path d="M173.2422,152.0645a.4317.4317,0,0,0,.3652-.2275.719.719,0,0,0,.0518-.3047.6463.6463,0,0,0-.2871-.5889,1.5327,1.5327,0,0,0-.8223-.1826,1.0415,1.0415,0,0,0-.8769.335,1.1086,1.1086,0,0,0-.1885.5518h-.7383a1.3628,1.3628,0,0,1,.5644-1.2139,2.3078,2.3078,0,0,1,1.2569-.3408,2.553,2.553,0,0,1,1.3476.3164,1.0729,1.0729,0,0,1,.5137.9843v2.711a.3448.3448,0,0,0,.0508.1982c.0332.05.1045.0742.2129.0742a1.0911,1.0911,0,0,0,.1191-.0068c.043-.0039.09-.0107.1406-.02v.584a2.2721,2.2721,0,0,1-.2812.0664,2.0614,2.0614,0,0,1-.2637.0136.6522.6522,0,0,1-.5937-.29,1.1361,1.1361,0,0,1-.1367-.4355,2.02,2.02,0,0,1-.6934.55,2.1643,2.1643,0,0,1-.998.2324,1.4867,1.4867,0,0,1-1.07-.3975,1.3193,1.3193,0,0,1-.415-.9941,1.2771,1.2771,0,0,1,.4092-1.0137,1.9386,1.9386,0,0,1,1.0722-.4434Zm-1.6651,2.1368a.9263.9263,0,0,0,.5928.1982,1.8025,1.8025,0,0,0,.8086-.1934,1.0869,1.0869,0,0,0,.6592-1.0488v-.6357a1.3806,1.3806,0,0,1-.3731.1543,3.1456,3.1456,0,0,1-.4472.0879l-.4776.0615a1.8409,1.8409,0,0,0-.6464.18.6972.6972,0,0,0-.3672.6572A.6454.6454,0,0,0,171.5771,154.2013Z"/><path d="M156.5508,160.18a3.5637,3.5637,0,0,1,.6416,2.1933,3.8386,3.8386,0,0,1-.7344,2.4043,3.261,3.261,0,0,1-4.7988.1407,3.7193,3.7193,0,0,1-.76-2.4,3.8154,3.8154,0,0,1,.65-2.24,2.8178,2.8178,0,0,1,2.47-1.1953A2.9574,2.9574,0,0,1,156.5508,160.18Zm-.7715,4.1152a3.5274,3.5274,0,0,0,.5166-1.9062,2.717,2.717,0,0,0-.5957-1.834,2.0289,2.0289,0,0,0-1.6279-.6953,2.12,2.12,0,0,0-1.6348.6884,2.9028,2.9028,0,0,0-.6328,2.0293,2.9657,2.9657,0,0,0,.543,1.8106,2.0388,2.0388,0,0,0,1.76.7363A1.8194,1.8194,0,0,0,155.7793,164.295Z"/><path d="M158.2334,159.2579h1.03l3.22,5.2158v-5.2158h.834v6.4551h-.9824l-3.2666-5.21v5.21h-.835Z"/><path d="M169.4268,159.2579v.7686H167.251v5.6865h-.8828v-5.6865h-2.1758v-.7686Z"/><path d="M171.4512,159.2579h.9873l2.3427,6.4551h-.958l-.6738-1.9336h-2.5322l-.7,1.9336h-.8965Zm1.45,3.81-.9942-2.8526-1.0322,2.8526Z"/><path d="M175.6543,159.2579h2.8887a1.9566,1.9566,0,0,1,1.3828.4854,1.7609,1.7609,0,0,1,.5273,1.3642,1.9856,1.9856,0,0,1-.4707,1.3164,1.7738,1.7738,0,0,1-1.4385.5606h-2.0156v2.7285h-.874Zm3.3916.8867a1.8972,1.8972,0,0,0-.79-.1357h-1.7276v2.2373h1.7276a1.6442,1.6442,0,0,0,.9492-.251.9961.9961,0,0,0,.3642-.8838A.9741.9741,0,0,0,179.0459,160.1446Z"/><path d="M160.6445,16.2667h2.5811a2.42,2.42,0,0,1,2.0381.9443,3.5167,3.5167,0,0,1,.6465,2.1846,4.4069,4.4069,0,0,1-.3819,1.8584,2.3528,2.3528,0,0,1-2.3115,1.4678h-2.5723Zm2.4092,5.708a2.2785,2.2785,0,0,0,.7129-.0928,1.57,1.57,0,0,0,.8164-.6582,2.7178,2.7178,0,0,0,.3652-1.0019,3.9125,3.9125,0,0,0,.0655-.6778,3.2121,3.2121,0,0,0-.4668-1.8632,1.7083,1.7083,0,0,0-1.502-.6631h-1.5166v4.957Z"/><path d="M169.5225,19.8731a.4317.4317,0,0,0,.3652-.2275.719.719,0,0,0,.0518-.3047.6461.6461,0,0,0-.2872-.5889,1.5323,1.5323,0,0,0-.8222-.1826,1.0419,1.0419,0,0,0-.877.335,1.1085,1.1085,0,0,0-.1885.5517h-.7382a1.3627,1.3627,0,0,1,.5644-1.2138,2.3076,2.3076,0,0,1,1.2569-.3408,2.553,2.553,0,0,1,1.3476.3164,1.0729,1.0729,0,0,1,.5137.9843v2.711a.3448.3448,0,0,0,.0508.1982c.0332.05.1045.0742.2129.0742a1.0911,1.0911,0,0,0,.1191-.0068c.043-.0039.09-.0107.1406-.0195v.584a2.2763,2.2763,0,0,1-.2812.0664,2.0811,2.0811,0,0,1-.2637.0136.6522.6522,0,0,1-.5937-.29,1.1383,1.1383,0,0,1-.1368-.4356,2.0175,2.0175,0,0,1-.6933.55,2.1659,2.1659,0,0,1-.9981.2324,1.4866,1.4866,0,0,1-1.07-.3975,1.3189,1.3189,0,0,1-.415-.9941,1.2771,1.2771,0,0,1,.4092-1.0137,1.9383,1.9383,0,0,1,1.0722-.4434ZM167.8574,22.01a.9261.9261,0,0,0,.5928.1982,1.8042,1.8042,0,0,0,.8086-.1934,1.0871,1.0871,0,0,0,.6592-1.0488V20.33a1.3806,1.3806,0,0,1-.3731.1543,3.1483,3.1483,0,0,1-.4472.0879l-.4776.0615a1.8422,1.8422,0,0,0-.6465.18.6974.6974,0,0,0-.3672.6572A.6455.6455,0,0,0,167.8574,22.01Z"/><path d="M172.1631,16.7013h.8v1.3134h.751v.6465h-.751v3.0723a.3317.3317,0,0,0,.167.3291.7115.7115,0,0,0,.3076.0478c.0381,0,.0791,0,.123-.0019a1.4915,1.4915,0,0,0,.1534-.0156v.6289a1.7594,1.7594,0,0,1-.2832.0566,2.6891,2.6891,0,0,1-.3184.0176.86.86,0,0,1-.7519-.2832,1.2642,1.2642,0,0,1-.1973-.7363V18.6612h-.6367v-.6465h.6367Z"/><path d="M177.0283,19.8731a.4318.4318,0,0,0,.3653-.2275.7208.7208,0,0,0,.0517-.3047.6463.6463,0,0,0-.2871-.5889,1.5325,1.5325,0,0,0-.8223-.1826,1.0415,1.0415,0,0,0-.8769.335,1.1085,1.1085,0,0,0-.1885.5517h-.7383a1.363,1.363,0,0,1,.5645-1.2138,2.3075,2.3075,0,0,1,1.2568-.3408,2.5536,2.5536,0,0,1,1.3477.3164,1.073,1.073,0,0,1,.5136.9843v2.711a.3448.3448,0,0,0,.0508.1982c.0332.05.1045.0742.2129.0742a1.0928,1.0928,0,0,0,.1192-.0068c.0429-.0039.09-.0107.1406-.0195v.584a2.2769,2.2769,0,0,1-.2813.0664,2.0794,2.0794,0,0,1-.2636.0136.6524.6524,0,0,1-.5938-.29,1.1384,1.1384,0,0,1-.1367-.4356,2.0179,2.0179,0,0,1-.6934.55,2.1652,2.1652,0,0,1-.998.2324,1.4864,1.4864,0,0,1-1.07-.3975,1.319,1.319,0,0,1-.4151-.9941,1.2774,1.2774,0,0,1,.4092-1.0137,1.9386,1.9386,0,0,1,1.0723-.4434Zm-1.665,2.1368a.9259.9259,0,0,0,.5928.1982,1.8035,1.8035,0,0,0,.8085-.1934,1.0869,1.0869,0,0,0,.6592-1.0488V20.33a1.3812,1.3812,0,0,1-.373.1543,3.15,3.15,0,0,1-.4473.0879l-.4775.0615a1.8415,1.8415,0,0,0-.6465.18.6974.6974,0,0,0-.3672.6572A.6452.6452,0,0,0,175.3633,22.01Z"/><path d="M161.3564,27.0665h.875V32.752H165.47v.77h-4.1133Z"/><path d="M168.2451,27.0665h.9873l2.3428,6.4551h-.958l-.6738-1.9336h-2.5323l-.7,1.9336h-.8964Zm1.45,3.81-.9941-2.8526-1.0323,2.8526Z"/><path d="M172.3652,27.0665h1.03l3.22,5.2158V27.0665h.834v6.4551h-.9824l-3.2666-5.21v5.21h-.835Z"/><path d="M36.4053,16.2667h1.2519l1.8565,5.457,1.8437-5.457h1.2432v6.4551h-.834V18.9112c0-.1308.002-.35.0078-.6543s.01-.6308.01-.98L39.94,22.7218h-.8662l-1.86-5.4453v.1982q0,.2373.0127.7227t.0127.7138v3.8106h-.834Z"/><path d="M46.3408,19.8731a.4318.4318,0,0,0,.3653-.2275.7208.7208,0,0,0,.0517-.3047.6463.6463,0,0,0-.2871-.5889,1.5325,1.5325,0,0,0-.8223-.1826,1.0415,1.0415,0,0,0-.8769.335,1.1085,1.1085,0,0,0-.1885.5517h-.7383a1.363,1.363,0,0,1,.5645-1.2138,2.3075,2.3075,0,0,1,1.2568-.3408,2.5536,2.5536,0,0,1,1.3477.3164,1.073,1.073,0,0,1,.5136.9843v2.711a.3448.3448,0,0,0,.0508.1982c.0332.05.1045.0742.2129.0742a1.0928,1.0928,0,0,0,.1192-.0068c.0429-.0039.09-.0107.1406-.0195v.584a2.2769,2.2769,0,0,1-.2813.0664,2.0794,2.0794,0,0,1-.2636.0136.6524.6524,0,0,1-.5938-.29,1.1384,1.1384,0,0,1-.1367-.4356,2.0179,2.0179,0,0,1-.6934.55,2.1652,2.1652,0,0,1-.998.2324,1.4864,1.4864,0,0,1-1.07-.3975,1.319,1.319,0,0,1-.4151-.9941,1.2774,1.2774,0,0,1,.4092-1.0137,1.9386,1.9386,0,0,1,1.0723-.4434ZM44.6758,22.01a.9259.9259,0,0,0,.5928.1982,1.8035,1.8035,0,0,0,.8085-.1934,1.0869,1.0869,0,0,0,.6592-1.0488V20.33a1.3812,1.3812,0,0,1-.373.1543,3.15,3.15,0,0,1-.4473.0879l-.4775.0615a1.8415,1.8415,0,0,0-.6465.18.6974.6974,0,0,0-.3672.6572A.6452.6452,0,0,0,44.6758,22.01Z"/><path d="M48.8232,18.0147h.752v.668a2.1082,2.1082,0,0,1,.707-.5928,1.885,1.885,0,0,1,.83-.1806,1.37,1.37,0,0,1,1.3535.6992,2.4786,2.4786,0,0,1,.1934,1.0937v3.02h-.8037V19.755a1.6034,1.6034,0,0,0-.128-.6934.771.771,0,0,0-.7636-.4394,1.5572,1.5572,0,0,0-.4619.0566,1.1887,1.1887,0,0,0-.5713.3867,1.1555,1.1555,0,0,0-.2569.4815,3.2019,3.2019,0,0,0-.0595.71v2.4649h-.7911Z"/><path d="M56.3516,19.8731a.4317.4317,0,0,0,.3652-.2275.719.719,0,0,0,.0518-.3047.6461.6461,0,0,0-.2872-.5889,1.5323,1.5323,0,0,0-.8222-.1826,1.0419,1.0419,0,0,0-.877.335,1.1076,1.1076,0,0,0-.1884.5517h-.7383a1.3627,1.3627,0,0,1,.5644-1.2138,2.3076,2.3076,0,0,1,1.2569-.3408,2.553,2.553,0,0,1,1.3476.3164,1.0729,1.0729,0,0,1,.5137.9843v2.711a.3448.3448,0,0,0,.0508.1982c.0332.05.1045.0742.2129.0742a1.0911,1.0911,0,0,0,.1191-.0068c.043-.0039.09-.0107.1406-.0195v.584a2.2721,2.2721,0,0,1-.2812.0664,2.0811,2.0811,0,0,1-.2637.0136.6522.6522,0,0,1-.5937-.29,1.1383,1.1383,0,0,1-.1368-.4356,2.0175,2.0175,0,0,1-.6933.55,2.1659,2.1659,0,0,1-.9981.2324,1.4866,1.4866,0,0,1-1.07-.3975,1.3189,1.3189,0,0,1-.415-.9941,1.2771,1.2771,0,0,1,.4092-1.0137,1.9383,1.9383,0,0,1,1.0722-.4434ZM54.6865,22.01a.9261.9261,0,0,0,.5928.1982,1.8042,1.8042,0,0,0,.8086-.1934,1.0871,1.0871,0,0,0,.6592-1.0488V20.33a1.3806,1.3806,0,0,1-.3731.1543,3.1483,3.1483,0,0,1-.4472.0879l-.4776.0615a1.8422,1.8422,0,0,0-.6465.18.6974.6974,0,0,0-.3672.6572A.6455.6455,0,0,0,54.6865,22.01Z"/><path d="M61.4512,18.2042a2.1663,2.1663,0,0,1,.456.4482V18.06h.7285V22.339a3.1649,3.1649,0,0,1-.2627,1.416,1.8851,1.8851,0,0,1-1.8525.957,2.2715,2.2715,0,0,1-1.2744-.34,1.33,1.33,0,0,1-.5781-1.0664h.8037a.9024.9024,0,0,0,.2275.4882,1.4334,1.4334,0,0,0,2.0235-.3779,3.6133,3.6133,0,0,0,.1533-1.3486,1.5361,1.5361,0,0,1-.5694.5351,2.0358,2.0358,0,0,1-2.2128-.3662,2.3936,2.3936,0,0,1-.5713-1.7959,2.7291,2.7291,0,0,1,.5761-1.8457,1.7794,1.7794,0,0,1,1.39-.6631A1.703,1.703,0,0,1,61.4512,18.2042Zm.0967.8476a1.1441,1.1441,0,0,0-.9131-.4218,1.13,1.13,0,0,0-1.1368.7832,3.0653,3.0653,0,0,0-.1621,1.0937,1.9546,1.9546,0,0,0,.3213,1.211,1.0361,1.0361,0,0,0,.8633.415,1.2107,1.2107,0,0,0,1.1934-.7686,2.4861,2.4861,0,0,0,.1933-1.0156A1.97,1.97,0,0,0,61.5479,19.0518Z"/><path d="M66.7471,18.1446a1.7948,1.7948,0,0,1,.7119.6084,2.1209,2.1209,0,0,1,.3144.8311,5.43,5.43,0,0,1,.07,1.0371H64.42a2.0372,2.0372,0,0,0,.336,1.1523,1.1192,1.1192,0,0,0,.9716.4346,1.2514,1.2514,0,0,0,.9815-.4111A1.4093,1.4093,0,0,0,67,21.2452h.7773a1.65,1.65,0,0,1-.2041.5781,2.0935,2.0935,0,0,1-.3877.5205,1.823,1.823,0,0,1-.8847.4746,2.6765,2.6765,0,0,1-.6416.07,1.9621,1.9621,0,0,1-1.48-.64,2.497,2.497,0,0,1-.6064-1.791,2.7114,2.7114,0,0,1,.6113-1.8408,2.0114,2.0114,0,0,1,1.5986-.708A2.1316,2.1316,0,0,1,66.7471,18.1446Zm.2832,1.8487a2.0659,2.0659,0,0,0-.2227-.8223A1.1359,1.1359,0,0,0,65.7314,18.6a1.1866,1.1866,0,0,0-.9062.3936,1.4922,1.4922,0,0,0-.3877,1Z"/><path d="M68.8447,18.0147h.7823v.668a2.6544,2.6544,0,0,1,.51-.5049,1.5338,1.5338,0,0,1,.8877-.2685,1.3971,1.3971,0,0,1,.9053.2773,1.4472,1.4472,0,0,1,.3515.4658,1.7092,1.7092,0,0,1,.62-.5605,1.7274,1.7274,0,0,1,.7988-.1826,1.31,1.31,0,0,1,1.293.6855,2.2473,2.2473,0,0,1,.1836.9942v3.1328h-.8213v-3.27a.7624.7624,0,0,0-.2354-.6464.9342.9342,0,0,0-.5732-.1758,1.1376,1.1376,0,0,0-.8018.3125,1.3684,1.3684,0,0,0-.3359,1.041v2.7383h-.8047V19.65a1.5954,1.5954,0,0,0-.1143-.6982.6971.6971,0,0,0-.6728-.3291,1.1574,1.1574,0,0,0-.8145.3466,1.7,1.7,0,0,0-.3672,1.2569v2.4961h-.791Z"/><path d="M79.25,18.1446a1.7948,1.7948,0,0,1,.7119.6084,2.1225,2.1225,0,0,1,.3145.8311,5.4406,5.4406,0,0,1,.07,1.0371H76.9229a2.0364,2.0364,0,0,0,.3359,1.1523,1.1194,1.1194,0,0,0,.9717.4346,1.2512,1.2512,0,0,0,.9814-.4111,1.4093,1.4093,0,0,0,.291-.5518H80.28a1.6515,1.6515,0,0,1-.2041.5781,2.0935,2.0935,0,0,1-.3877.5205,1.8233,1.8233,0,0,1-.8848.4746,2.6759,2.6759,0,0,1-.6416.07,1.9622,1.9622,0,0,1-1.48-.64,2.497,2.497,0,0,1-.6064-1.791,2.7114,2.7114,0,0,1,.6113-1.8408,2.0117,2.0117,0,0,1,1.5987-.708A2.1312,2.1312,0,0,1,79.25,18.1446Zm.2832,1.8487a2.0626,2.0626,0,0,0-.2227-.8223A1.1358,1.1358,0,0,0,78.2344,18.6a1.1868,1.1868,0,0,0-.9063.3936,1.4927,1.4927,0,0,0-.3877,1Z"/><path d="M81.3477,18.0147H82.1v.668a2.1082,2.1082,0,0,1,.707-.5928,1.8853,1.8853,0,0,1,.83-.1806,1.37,1.37,0,0,1,1.3535.6992,2.4786,2.4786,0,0,1,.1934,1.0937v3.02H84.38V19.755a1.605,1.605,0,0,0-.1279-.6934.7713.7713,0,0,0-.7637-.4394,1.5572,1.5572,0,0,0-.4619.0566,1.1887,1.1887,0,0,0-.5713.3867,1.1555,1.1555,0,0,0-.2569.4815,3.2019,3.2019,0,0,0-.0595.71v2.4649h-.791Z"/><path d="M86.5107,16.7013h.8v1.3134h.751v.6465h-.751v3.0723a.3317.3317,0,0,0,.167.3291.7123.7123,0,0,0,.3077.0478c.038,0,.0791,0,.123-.0019a1.4926,1.4926,0,0,0,.1533-.0156v.6289a1.7551,1.7551,0,0,1-.2832.0566,2.6874,2.6874,0,0,1-.3183.0176.86.86,0,0,1-.752-.2832,1.2642,1.2642,0,0,1-.1973-.7363V18.6612H85.874v-.6465h.6367Z"/><path d="M53.94,27.0665h.875V32.752h3.2382v.77H53.94Z"/><path d="M60.8281,27.0665h.9873l2.3428,6.4551H63.2l-.6738-1.9336H59.9941l-.7,1.9336h-.8964Zm1.45,3.81-.9941-2.8526L60.252,30.8761Z"/><path d="M64.9482,27.0665h1.03l3.22,5.2158V27.0665h.834v6.4551H69.05l-3.2666-5.21v5.21h-.835Z"/><path d="M29.8252,151.0665H30.41v.6318a1.3961,1.3961,0,0,1,.352-.4492.9127.9127,0,0,1,.646-.2646c.0112,0,.0308.0009.0581.0029s.0742.0068.14.0137v.6494a.8621.8621,0,0,0-.1006-.0137c-.0313-.0019-.0645-.0039-.1011-.0039a.879.879,0,0,0-.7144.3,1.0421,1.0421,0,0,0-.25.6885v2.1055h-.6152Z"/><path d="M34.4,151.1671a1.3859,1.3859,0,0,1,.5537.4736,1.6377,1.6377,0,0,1,.2446.6455,4.2611,4.2611,0,0,1,.0542.8067H32.59a1.582,1.582,0,0,0,.2613.8964.8705.8705,0,0,0,.7563.337.9709.9709,0,0,0,.7627-.3184,1.0959,1.0959,0,0,0,.2261-.43h.605a1.27,1.27,0,0,1-.1592.4492,1.62,1.62,0,0,1-.3008.4053,1.4136,1.4136,0,0,1-.689.3691,2.0877,2.0877,0,0,1-.4985.0547,1.53,1.53,0,0,1-1.1514-.497,1.9427,1.9427,0,0,1-.4721-1.3926,2.1153,2.1153,0,0,1,.4755-1.4326,1.563,1.563,0,0,1,1.2432-.55A1.65,1.65,0,0,1,34.4,151.1671Zm.22,1.4365a1.6074,1.6074,0,0,0-.1728-.6387.8845.8845,0,0,0-.837-.4443.923.923,0,0,0-.705.3057,1.1593,1.1593,0,0,0-.3018.7773Z"/><path d="M36.0322,151.0665h.6084v.52a2.0328,2.0328,0,0,1,.3965-.3935,1.1941,1.1941,0,0,1,.69-.208,1.087,1.087,0,0,1,.7041.2148,1.1319,1.1319,0,0,1,.2735.3623,1.3266,1.3266,0,0,1,.4819-.4355,1.3419,1.3419,0,0,1,.6221-.1416,1.0173,1.0173,0,0,1,1.0049.5332,1.7392,1.7392,0,0,1,.1435.7715v2.4375h-.6391v-2.543a.5914.5914,0,0,0-.1827-.502.7208.7208,0,0,0-.4462-.1367.8849.8849,0,0,0-.6241.2422,1.0683,1.0683,0,0,0-.2612.81v2.129h-.6255V152.338a1.2454,1.2454,0,0,0-.0889-.544.5417.5417,0,0,0-.5229-.2568.9051.9051,0,0,0-.6343.27,1.3245,1.3245,0,0,0-.2851.9775v1.9415h-.6153Z"/><path d="M44.5156,151.4317a1.8445,1.8445,0,0,1,.4854,1.3858,2.3893,2.3893,0,0,1-.4278,1.4619,1.5429,1.5429,0,0,1-1.3271.5771,1.4916,1.4916,0,0,1-1.1909-.5107,2.0212,2.0212,0,0,1-.4414-1.3711,2.1894,2.1894,0,0,1,.4648-1.4678,1.5573,1.5573,0,0,1,1.249-.5468A1.6405,1.6405,0,0,1,44.5156,151.4317Zm-.3818,2.4326a2.3227,2.3227,0,0,0,.2246-1.0292,1.8512,1.8512,0,0,0-.1621-.8331.9116.9116,0,0,0-.8858-.5058.8708.8708,0,0,0-.811.4306,2.0125,2.0125,0,0,0-.2534,1.0381,1.7494,1.7494,0,0,0,.2534.9727.8885.8885,0,0,0,.8042.3887A.8374.8374,0,0,0,44.1338,153.8643Z"/><path d="M45.8794,150.044h.6221v1.0225h.5844v.5019h-.5844v2.3887a.259.259,0,0,0,.13.2569.5473.5473,0,0,0,.2393.038c.03,0,.0615-.0009.0957-.0029s.0742-.0049.12-.0107v.4883a1.4579,1.4579,0,0,1-.22.0449,2.1739,2.1739,0,0,1-.248.0136.6692.6692,0,0,1-.5845-.2207.9805.9805,0,0,1-.1538-.5722v-2.4239h-.4956v-.5019h.4956Z"/><path d="M49.9624,151.1671a1.3852,1.3852,0,0,1,.5537.4736,1.6377,1.6377,0,0,1,.2446.6455,4.2611,4.2611,0,0,1,.0542.8067H48.1523a1.582,1.582,0,0,0,.2613.8964.8705.8705,0,0,0,.7563.337.9709.9709,0,0,0,.7627-.3184,1.0946,1.0946,0,0,0,.2261-.43h.605a1.2675,1.2675,0,0,1-.1592.4492,1.62,1.62,0,0,1-.3008.4053,1.4136,1.4136,0,0,1-.689.3691,2.0871,2.0871,0,0,1-.4985.0547,1.53,1.53,0,0,1-1.1514-.497,1.9427,1.9427,0,0,1-.4721-1.3926,2.1148,2.1148,0,0,1,.4756-1.4326,1.5628,1.5628,0,0,1,1.2431-.55A1.65,1.65,0,0,1,49.9624,151.1671Zm.22,1.4365a1.6074,1.6074,0,0,0-.1728-.6387.8844.8844,0,0,0-.8369-.4443.9231.9231,0,0,0-.7051.3057,1.1593,1.1593,0,0,0-.3018.7773Z"/><path d="M20.272,159.4659H20.88v.5195a2.03,2.03,0,0,1,.3965-.3935,1.1941,1.1941,0,0,1,.69-.208,1.087,1.087,0,0,1,.7041.2148,1.1314,1.1314,0,0,1,.2734.3623,1.3269,1.3269,0,0,1,.482-.4355,1.3424,1.3424,0,0,1,.622-.1416,1.0172,1.0172,0,0,1,1.0049.5332,1.7391,1.7391,0,0,1,.1436.7715v2.4375h-.6392v-2.543a.5915.5915,0,0,0-.1826-.502.7211.7211,0,0,0-.4463-.1367.8847.8847,0,0,0-.624.2422,1.0682,1.0682,0,0,0-.2613.8106v2.1289h-.6254v-2.3887a1.2454,1.2454,0,0,0-.0889-.544.5421.5421,0,0,0-.523-.2568.9049.9049,0,0,0-.6342.27,1.3242,1.3242,0,0,0-.2852.9776v1.9414H20.272Z"/><path d="M28.0649,160.91a.3333.3333,0,0,0,.2837-.1767.5443.5443,0,0,0,.041-.2373.504.504,0,0,0-.2236-.458,1.1924,1.1924,0,0,0-.6391-.1426.8118.8118,0,0,0-.6827.2617.8661.8661,0,0,0-.1464.43h-.5743a1.06,1.06,0,0,1,.4385-.9443,1.7919,1.7919,0,0,1,.9785-.2666,1.9884,1.9884,0,0,1,1.0479.2461.8366.8366,0,0,1,.3994.7666v2.1084a.2736.2736,0,0,0,.0391.1543.192.192,0,0,0,.166.0576c.0273,0,.0581-.002.0923-.0049s.0708-.0088.1093-.0156v.455a1.6719,1.6719,0,0,1-.2187.0508,1.6052,1.6052,0,0,1-.2051.01.5053.5053,0,0,1-.4614-.2246.8743.8743,0,0,1-.106-.3389,1.5689,1.5689,0,0,1-.54.4277,1.6774,1.6774,0,0,1-.7759.1807,1.1524,1.1524,0,0,1-.832-.3086,1.0245,1.0245,0,0,1-.3233-.7734.9966.9966,0,0,1,.3179-.7891,1.5182,1.5182,0,0,1,.834-.3447ZM26.77,162.5724a.7223.7223,0,0,0,.4615.1533,1.4107,1.4107,0,0,0,.6289-.1494.8454.8454,0,0,0,.5127-.8155v-.4951a1.0606,1.0606,0,0,1-.29.12,2.42,2.42,0,0,1-.3476.0684l-.3721.0478a1.44,1.44,0,0,0-.5029.14.5447.5447,0,0,0-.2852.5117A.5039.5039,0,0,0,26.77,162.5724Z"/><path d="M29.9961,159.4659h.5845v.5195a1.6376,1.6376,0,0,1,.55-.4619,1.464,1.464,0,0,1,.646-.14,1.0646,1.0646,0,0,1,1.0527.5429,1.9349,1.9349,0,0,1,.15.8516v2.3477h-.6255v-2.3067a1.2557,1.2557,0,0,0-.0991-.541.6015.6015,0,0,0-.5948-.3418,1.2176,1.2176,0,0,0-.3588.0449,1.0022,1.0022,0,0,0-.6446.6748,2.5627,2.5627,0,0,0-.0459.5518v1.918h-.6152Z"/><path d="M35.8511,160.91a.3336.3336,0,0,0,.2837-.1767.5458.5458,0,0,0,.041-.2373.5038.5038,0,0,0-.2237-.458,1.1924,1.1924,0,0,0-.6391-.1426.8114.8114,0,0,0-.6826.2617.866.866,0,0,0-.1465.43H33.91a1.06,1.06,0,0,1,.4384-.9443,1.7923,1.7923,0,0,1,.9786-.2666,1.988,1.988,0,0,1,1.0478.2461.8366.8366,0,0,1,.3994.7666v2.1084a.2736.2736,0,0,0,.0391.1543.1921.1921,0,0,0,.166.0576c.0273,0,.0581-.002.0923-.0049s.0708-.0088.1094-.0156v.455a1.6726,1.6726,0,0,1-.2188.0508,1.6042,1.6042,0,0,1-.2051.01.5053.5053,0,0,1-.4614-.2246.8744.8744,0,0,1-.1059-.3389,1.5684,1.5684,0,0,1-.54.4277,1.6771,1.6771,0,0,1-.7759.1807,1.1526,1.1526,0,0,1-.832-.3086,1.0244,1.0244,0,0,1-.3232-.7734.9966.9966,0,0,1,.3178-.7891,1.5186,1.5186,0,0,1,.834-.3447Zm-1.2954,1.6622a.722.722,0,0,0,.4614.1533,1.41,1.41,0,0,0,.6289-.1494.8454.8454,0,0,0,.5127-.8155v-.4951a1.0612,1.0612,0,0,1-.29.12,2.4214,2.4214,0,0,1-.3477.0684l-.3721.0478a1.4407,1.4407,0,0,0-.5029.14.5448.5448,0,0,0-.2852.5117A.504.504,0,0,0,34.5557,162.5724Z"/><path d="M39.8174,159.6124a1.7,1.7,0,0,1,.354.3486v-.4619h.5674v3.33a2.4574,2.4574,0,0,1-.2046,1.1,1.4662,1.4662,0,0,1-1.4409.7461,1.7628,1.7628,0,0,1-.9912-.2656,1.0342,1.0342,0,0,1-.45-.8282h.6255a.6952.6952,0,0,0,.1768.379,1.1149,1.1149,0,0,0,1.5737-.294,2.8206,2.8206,0,0,0,.1192-1.05,1.2087,1.2087,0,0,1-.4424.418,1.4742,1.4742,0,0,1-.6846.1367,1.4582,1.4582,0,0,1-1.0366-.4229,1.8594,1.8594,0,0,1-.4443-1.3955,2.12,2.12,0,0,1,.4477-1.4355,1.3805,1.3805,0,0,1,1.0811-.5166A1.3236,1.3236,0,0,1,39.8174,159.6124Zm.0752.66a.892.892,0,0,0-.711-.3282.8769.8769,0,0,0-.8837.6074,2.3992,2.3992,0,0,0-.126.8516,1.5161,1.5161,0,0,0,.25.9414.8042.8042,0,0,0,.6714.3233.9427.9427,0,0,0,.9287-.5987,1.9347,1.9347,0,0,0,.1494-.789A1.53,1.53,0,0,0,39.8926,160.2726Z"/><path d="M43.9365,159.5665a1.3852,1.3852,0,0,1,.5537.4736,1.6394,1.6394,0,0,1,.2447.6455,4.27,4.27,0,0,1,.0542.8067H42.1265a1.5818,1.5818,0,0,0,.2612.8965.8707.8707,0,0,0,.7563.3369.9709.9709,0,0,0,.7627-.3184,1.0946,1.0946,0,0,0,.2261-.43h.605a1.2675,1.2675,0,0,1-.1592.4492,1.6178,1.6178,0,0,1-.3008.4053,1.4147,1.4147,0,0,1-.6889.3692,2.094,2.094,0,0,1-.4986.0546,1.5294,1.5294,0,0,1-1.1513-.497,1.9423,1.9423,0,0,1-.4722-1.3926,2.1148,2.1148,0,0,1,.4756-1.4326,1.5628,1.5628,0,0,1,1.2431-.55A1.65,1.65,0,0,1,43.9365,159.5665Zm.22,1.4365a1.6074,1.6074,0,0,0-.1728-.6387.8844.8844,0,0,0-.8369-.4443.9231.9231,0,0,0-.7051.3057,1.16,1.16,0,0,0-.3018.7773Z"/><path d="M45.5684,159.4659h.6084v.5195a2.0327,2.0327,0,0,1,.3964-.3935,1.1944,1.1944,0,0,1,.6905-.208,1.0872,1.0872,0,0,1,.7041.2148,1.1314,1.1314,0,0,1,.2734.3623,1.3274,1.3274,0,0,1,.4819-.4355,1.3431,1.3431,0,0,1,.6221-.1416,1.0172,1.0172,0,0,1,1.0049.5332,1.7391,1.7391,0,0,1,.1436.7715v2.4375h-.6392v-2.543a.5915.5915,0,0,0-.1826-.502.7211.7211,0,0,0-.4463-.1367.8847.8847,0,0,0-.624.2422,1.0682,1.0682,0,0,0-.2613.8106v2.1289h-.6255v-2.3887a1.2456,1.2456,0,0,0-.0888-.544.5421.5421,0,0,0-.523-.2568.9049.9049,0,0,0-.6342.27,1.3242,1.3242,0,0,0-.2852.9776v1.9414h-.6152Z"/><path d="M53.6606,159.5665a1.3862,1.3862,0,0,1,.5538.4736,1.6393,1.6393,0,0,1,.2446.6455,4.27,4.27,0,0,1,.0542.8067H51.8506a1.5818,1.5818,0,0,0,.2612.8965.8709.8709,0,0,0,.7564.3369.9712.9712,0,0,0,.7627-.3184,1.0957,1.0957,0,0,0,.226-.43h.605a1.2655,1.2655,0,0,1-.1592.4492,1.62,1.62,0,0,1-.3007.4053,1.4155,1.4155,0,0,1-.689.3692,2.0937,2.0937,0,0,1-.4985.0546,1.53,1.53,0,0,1-1.1514-.497,1.9423,1.9423,0,0,1-.4722-1.3926,2.1148,2.1148,0,0,1,.4756-1.4326,1.5628,1.5628,0,0,1,1.2432-.55A1.65,1.65,0,0,1,53.6606,159.5665Zm.22,1.4365a1.6073,1.6073,0,0,0-.1729-.6387.8844.8844,0,0,0-.8369-.4443.9232.9232,0,0,0-.7051.3057,1.16,1.16,0,0,0-.3017.7773Z"/><path d="M55.2925,159.4659h.5845v.5195a1.6383,1.6383,0,0,1,.55-.4619,1.4646,1.4646,0,0,1,.646-.14,1.0648,1.0648,0,0,1,1.0528.5429,1.9349,1.9349,0,0,1,.15.8516v2.3477h-.6255v-2.3067a1.2557,1.2557,0,0,0-.0991-.541.6016.6016,0,0,0-.5948-.3418,1.2188,1.2188,0,0,0-.3589.0449,1.0023,1.0023,0,0,0-.6445.6748,2.5563,2.5563,0,0,0-.0459.5518v1.918h-.6152Z"/><path d="M59.3086,158.4434h.6221v1.0225h.5844v.502h-.5844v2.3886a.259.259,0,0,0,.13.2569.5455.5455,0,0,0,.2393.0381c.03,0,.0615-.001.0957-.003s.0742-.0049.12-.0107v.4883a1.4579,1.4579,0,0,1-.22.0449,2.1729,2.1729,0,0,1-.248.0137.67.67,0,0,1-.5845-.2207.9811.9811,0,0,1-.1538-.5723v-2.4238H58.813v-.502h.4956Z"/><path d="M32.5952,167.9786a1.676,1.676,0,0,1,.3711.3584v-1.8486h.5913v5.0381h-.5537v-.51a1.3238,1.3238,0,0,1-.5073.4892,1.4444,1.4444,0,0,1-.6709.15,1.3557,1.3557,0,0,1-1.0552-.5146,2.0132,2.0132,0,0,1-.4463-1.3691,2.37,2.37,0,0,1,.4068-1.3858,1.3307,1.3307,0,0,1,1.163-.5859A1.2963,1.2963,0,0,1,32.5952,167.9786Zm-1.3735,2.7451a.87.87,0,0,0,.7959.3965.8359.8359,0,0,0,.6987-.3682,1.7409,1.7409,0,0,0,.2739-1.0537,1.565,1.565,0,0,0-.2822-1.0273.8775.8775,0,0,0-.6973-.334.9212.9212,0,0,0-.75.3555,1.6373,1.6373,0,0,0-.2871,1.0468A1.8232,1.8232,0,0,0,31.2217,170.7237Z"/><path d="M36.7383,167.9669a1.3859,1.3859,0,0,1,.5537.4736,1.6377,1.6377,0,0,1,.2446.6455,4.2611,4.2611,0,0,1,.0542.8067H34.9282a1.5826,1.5826,0,0,0,.2613.8965.8707.8707,0,0,0,.7563.3369.9709.9709,0,0,0,.7627-.3184,1.0972,1.0972,0,0,0,.2261-.43h.605a1.27,1.27,0,0,1-.1592.4492,1.6227,1.6227,0,0,1-.3008.4053,1.415,1.415,0,0,1-.689.3692,2.0931,2.0931,0,0,1-.4985.0546,1.53,1.53,0,0,1-1.1514-.497,1.9427,1.9427,0,0,1-.4721-1.3926,2.1148,2.1148,0,0,1,.4755-1.4326,1.563,1.563,0,0,1,1.2432-.55A1.65,1.65,0,0,1,36.7383,167.9669Zm.22,1.4365a1.6056,1.6056,0,0,0-.1729-.6387.8842.8842,0,0,0-.8369-.4443.923.923,0,0,0-.705.3057,1.1593,1.1593,0,0,0-.3018.7773Z"/><path d="M38.6729,167.8663l.9775,2.9805,1.0185-2.9805h.6729l-1.3779,3.66h-.6553l-1.3506-3.66Z"/><path d="M41.87,166.505h.6255v.6972H41.87Zm0,1.3779h.6255v3.6436H41.87Z"/><path d="M45.8433,168.0606a1.44,1.44,0,0,1,.4668,1.0362h-.5982a1.1028,1.1028,0,0,0-.2495-.5625.7879.7879,0,0,0-.6255-.2246.864.864,0,0,0-.8408.5742,2.2728,2.2728,0,0,0-.1641.9179,1.7264,1.7264,0,0,0,.2325.9249.9022.9022,0,0,0,1.3383.1425,1.282,1.282,0,0,0,.3091-.6377H46.31a1.4453,1.4453,0,0,1-1.5621,1.4,1.4008,1.4008,0,0,1-1.145-.5244,2.0076,2.0076,0,0,1-.4272-1.31,2.2117,2.2117,0,0,1,.4682-1.501,1.5139,1.5139,0,0,1,1.1929-.5361A1.5964,1.5964,0,0,1,45.8433,168.0606Z"/><path d="M49.1865,167.9669a1.3852,1.3852,0,0,1,.5537.4736,1.6394,1.6394,0,0,1,.2447.6455,4.27,4.27,0,0,1,.0542.8067H47.3765a1.5818,1.5818,0,0,0,.2612.8965.8707.8707,0,0,0,.7563.3369.9709.9709,0,0,0,.7627-.3184,1.0946,1.0946,0,0,0,.2261-.43h.605a1.2675,1.2675,0,0,1-.1592.4492,1.6178,1.6178,0,0,1-.3008.4053,1.4147,1.4147,0,0,1-.6889.3692,2.094,2.094,0,0,1-.4986.0546,1.5294,1.5294,0,0,1-1.1513-.497,1.9423,1.9423,0,0,1-.4722-1.3926,2.1148,2.1148,0,0,1,.4756-1.4326,1.5628,1.5628,0,0,1,1.2431-.55A1.65,1.65,0,0,1,49.1865,167.9669Zm.22,1.4365a1.6074,1.6074,0,0,0-.1728-.6387.8844.8844,0,0,0-.8369-.4443.9231.9231,0,0,0-.7051.3057,1.16,1.16,0,0,0-.3018.7773Z"/></g></svg>