<?xml version="1.0" encoding="UTF-8"?>
<!DOCTYPE svg PUBLIC "-//W3C//DTD SVG 1.1//EN" "http://www.w3.org/Graphics/SVG/1.1/DTD/svg11.dtd">
<svg width="3.1944444444444446in" height="2.8194444444444446in" viewBox="-5px 594px 230px 203px">
<title>generated by pstoedit version:3.45 from c:/image_conversion/images/prnt_en_drw_e0m_source.eps</title>
<g xml:space="preserve">
<clipPath id="clippath1"> 	<path d="  M 0 598.059   L 0 792   L 220.5 792   L 220.5 598.059   Z   " style="clip-rule:nonzero"/>
</clipPath>
<g style="clip-path:url(#clippath1)"> 
<g fill="#afbfbf" fill-rule="nonzero" stroke-width="0" stroke-linejoin="miter" stroke-linecap="butt" stroke-miterlimit="10">
	<path d="  M 197.25 768.199   C 197.25 769.195 196.445 770 195.449 770   L 74.0508 770   C 73.0547 770 72.25 769.195 72.25 768.199   L 72.25 665.551   C 72.25 664.555 73.0547 663.75 74.0508 663.75   L 195.449 663.75   C 196.445 663.75 197.25 664.555 197.25 665.551   Z   "/>
</g>
<g stroke="#060808" fill="none" stroke-width="0.5" stroke-linejoin="miter" stroke-linecap="butt" stroke-miterlimit="4">
	<path d="  M 0.5 619.5   L 23.25 619.5   "/>
</g>
<g stroke="#060808" fill="none" stroke-width="0.5" stroke-linejoin="miter" stroke-linecap="butt" stroke-miterlimit="4">
	<path d="  M 0 627.5   L 23.25 627.5   "/>
</g>
<g stroke="#060808" fill="none" stroke-width="0.5" stroke-linejoin="miter" stroke-linecap="butt" stroke-miterlimit="4">
	<path d="  M 220.5 619.5   L 203.75 619.5   "/>
</g>
<g stroke="#060808" fill="none" stroke-width="0.5" stroke-linejoin="miter" stroke-linecap="butt" stroke-miterlimit="4">
	<path d="  M 220.5 627.5   L 203 627.5   "/>
</g>
<g stroke="#060808" fill="none" stroke-width="0.5" stroke-linejoin="miter" stroke-linecap="butt" stroke-miterlimit="4">
	<path d="  M 220.5 635.75   L 193 635.75   "/>
</g>
<g stroke="#ffffff" fill="none" stroke-width="2" stroke-linejoin="round" stroke-linecap="round" stroke-miterlimit="4">
	<path d="  M 59.5508 633.102   L 59.5508 662.68   "/>
</g>
<g stroke="#000000" fill="none" stroke-width="0.5" stroke-linejoin="round" stroke-linecap="round" stroke-miterlimit="4">
	<path d="  M 59.5508 633.102   L 59.5508 662.68   "/>
</g>
<g stroke="#ffffff" fill="none" stroke-width="2" stroke-linejoin="round" stroke-linecap="round" stroke-miterlimit="4">
	<path d="  M 154.551 633.102   L 154.551 662.68   "/>
</g>
<g stroke="#000000" fill="none" stroke-width="0.5" stroke-linejoin="round" stroke-linecap="round" stroke-miterlimit="4">
	<path d="  M 154.551 633.102   L 154.551 662.68   "/>
</g>
<g stroke="#ffffff" fill="none" stroke-width="2" stroke-linejoin="round" stroke-linecap="round" stroke-miterlimit="4">
	<path d="  M 182.801 633.102   L 182.801 662.68   "/>
</g>
<g stroke="#000000" fill="none" stroke-width="0.5" stroke-linejoin="round" stroke-linecap="round" stroke-miterlimit="4">
	<path d="  M 182.801 633.102   L 182.801 662.68   "/>
</g>
<g stroke="#060808" fill="none" stroke-width="0.5" stroke-linejoin="round" stroke-linecap="round" stroke-miterlimit="4">
	<path d="  M 204 791.75   L 12.25 791.75   L 12.25 660.5   L 204 660.5   Z   "/>
</g>
<g fill="#ffffff" fill-rule="nonzero" stroke-width="0" stroke-linejoin="round" stroke-linecap="round" stroke-miterlimit="4">
	<path d="  M 69.5 678   L 48.25 678   L 48.25 660.5   L 69.5 660.5   Z   "/>
</g>
<g stroke="#060808" fill="none" stroke-width="0.5" stroke-linejoin="round" stroke-linecap="round" stroke-miterlimit="4">
	<path d="  M 69.5 678   L 48.25 678   L 48.25 660.5   L 69.5 660.5   Z   "/>
</g>
<g fill="#ffffff" fill-rule="nonzero" stroke-width="0" stroke-linejoin="round" stroke-linecap="round" stroke-miterlimit="4">
	<path d="  M 165 678   L 143.75 678   L 143.75 660.5   L 165 660.5   Z   "/>
</g>
<g stroke="#060808" fill="none" stroke-width="0.5" stroke-linejoin="round" stroke-linecap="round" stroke-miterlimit="4">
	<path d="  M 165 678   L 143.75 678   L 143.75 660.5   L 165 660.5   Z   "/>
</g>
<g fill="#ffffff" fill-rule="nonzero" stroke-width="0" stroke-linejoin="round" stroke-linecap="round" stroke-miterlimit="4">
	<path d="  M 193.25 678   L 172 678   L 172 660.5   L 193.25 660.5   Z   "/>
</g>
<g stroke="#060808" fill="none" stroke-width="0.5" stroke-linejoin="round" stroke-linecap="round" stroke-miterlimit="4">
	<path d="  M 193.25 678   L 172 678   L 172 660.5   L 193.25 660.5   Z   "/>
</g>
<g fill="#ffffff" fill-rule="nonzero" stroke-width="0" stroke-linejoin="round" stroke-linecap="round" stroke-miterlimit="4">
	<path d="  M 89.75 726   L 27.75 726   L 27.75 693   L 89.75 693   Z   "/>
</g>
<g stroke="#060808" fill="none" stroke-width="0.5" stroke-linejoin="round" stroke-linecap="round" stroke-miterlimit="4">
	<path d="  M 89.75 726   L 27.75 726   L 27.75 693   L 89.75 693   Z   "/>
</g>
<g fill="#ffffff" fill-rule="nonzero" stroke-width="0" stroke-linejoin="round" stroke-linecap="round" stroke-miterlimit="4">
	<path d="  M 194.5 719.25   L 142.25 719.25   L 142.25 693.25   L 194.5 693.25   Z   "/>
</g>
<g stroke="#060808" fill="none" stroke-width="0.5" stroke-linejoin="round" stroke-linecap="round" stroke-miterlimit="4">
	<path d="  M 194.5 719.25   L 142.25 719.25   L 142.25 693.25   L 194.5 693.25   Z   "/>
</g>
<g stroke="#000000" fill="none" stroke-width="0.5" stroke-linejoin="round" stroke-linecap="round" stroke-miterlimit="4">
	<path d="  M 62 775.75   L 18.25 775.75   L 18.25 741.25   L 62 741.25   Z   "/>
</g>
<g fill="#ffffff" fill-rule="nonzero" stroke-width="0" stroke-linejoin="round" stroke-linecap="round" stroke-miterlimit="4">
	<path d="  M 117 775.75   L 73.25 775.75   L 73.25 741.25   L 117 741.25   Z   "/>
</g>
<g stroke="#000000" fill="none" stroke-width="0.5" stroke-linejoin="round" stroke-linecap="round" stroke-miterlimit="4">
	<path d="  M 117 775.75   L 73.25 775.75   L 73.25 741.25   L 117 741.25   Z   "/>
</g>
<g fill="#ffffff" fill-rule="nonzero" stroke-width="0" stroke-linejoin="round" stroke-linecap="round" stroke-miterlimit="4">
	<path d="  M 98.9766 618.645   C 98.9766 612.273 92.0977 607.117 83.6094 607.121   C 83.0781 607.121 82.5391 607.133 82.0234 607.176   C 80.4492 602.062 74.3555 598.25 67.0625 598.25   C 61.2109 598.25 56.1289 600.703 53.5313 604.309   C 51.8594 603.84 50.0469 603.566 48.1484 603.566   C 41.1328 603.566 35.2227 607.102 33.3867 611.922   C 25.7344 612.578 19.7852 617.449 19.7852 623.371   C 19.7813 629.73 26.6641 634.895 35.1484 634.895   C 37.5547 634.895 39.8203 634.465 41.8477 633.73   C 44.4766 637.238 49.4883 639.625 55.2422 639.625   C 60.25 639.625 64.6797 637.82 67.4844 635.043   C 70.0234 636.43 73.1367 637.258 76.5156 637.258   C 83.6992 637.258 89.7188 633.559 91.3984 628.562   C 95.9258 626.559 98.9766 622.867 98.9766 618.645   "/>
</g>
<g stroke="#131517" fill="none" stroke-width="0.3869" stroke-linejoin="miter" stroke-linecap="butt" stroke-miterlimit="4">
	<path d="  M 98.9766 618.645   C 98.9766 612.273 92.0977 607.117 83.6094 607.121   C 83.0781 607.121 82.5391 607.133 82.0234 607.176   C 80.4492 602.062 74.3555 598.25 67.0625 598.25   C 61.2109 598.25 56.1289 600.703 53.5313 604.309   C 51.8594 603.84 50.0469 603.566 48.1484 603.566   C 41.1328 603.566 35.2227 607.102 33.3867 611.922   C 25.7344 612.578 19.7852 617.449 19.7852 623.371   C 19.7813 629.73 26.6641 634.895 35.1484 634.895   C 37.5547 634.895 39.8203 634.465 41.8477 633.73   C 44.4766 637.238 49.4883 639.625 55.2422 639.625   C 60.25 639.625 64.6797 637.82 67.4844 635.043   C 70.0234 636.43 73.1367 637.258 76.5156 637.258   C 83.6992 637.258 89.7188 633.559 91.3984 628.562   C 95.9258 626.559 98.9766 622.867 98.9766 618.645   Z   "/>
</g>
<g fill="#ffffff" fill-rule="nonzero" stroke-width="0" stroke-linejoin="miter" stroke-linecap="butt" stroke-miterlimit="4">
	<path d="  M 207.227 621.645   C 207.227 615.273 200.348 610.117 191.859 610.121   C 191.324 610.121 190.789 610.133 190.27 610.176   C 188.695 605.062 182.605 601.25 175.313 601.25   C 169.465 601.25 164.379 603.703 161.781 607.309   C 160.105 606.84 158.301 606.566 156.398 606.566   C 149.383 606.566 143.477 610.102 141.637 614.922   C 133.984 615.578 128.035 620.449 128.035 626.371   C 128.031 632.73 134.914 637.895 143.395 637.895   C 145.805 637.895 148.07 637.465 150.098 636.73   C 152.727 640.238 157.738 642.625 163.492 642.625   C 168.5 642.625 172.93 640.82 175.73 638.043   C 178.273 639.43 181.387 640.258 184.766 640.258   C 191.949 640.258 197.969 636.559 199.648 631.562   C 204.18 629.559 207.227 625.867 207.227 621.645   "/>
</g>
<g stroke="#131517" fill="none" stroke-width="0.3869" stroke-linejoin="miter" stroke-linecap="butt" stroke-miterlimit="4">
	<path d="  M 207.227 621.645   C 207.227 615.273 200.348 610.117 191.859 610.121   C 191.324 610.121 190.789 610.133 190.27 610.176   C 188.695 605.062 182.605 601.25 175.313 601.25   C 169.465 601.25 164.379 603.703 161.781 607.309   C 160.105 606.84 158.301 606.566 156.398 606.566   C 149.383 606.566 143.477 610.102 141.637 614.922   C 133.984 615.578 128.035 620.449 128.035 626.371   C 128.031 632.73 134.914 637.895 143.395 637.895   C 145.805 637.895 148.07 637.465 150.098 636.73   C 152.727 640.238 157.738 642.625 163.492 642.625   C 168.5 642.625 172.93 640.82 175.73 638.043   C 178.273 639.43 181.387 640.258 184.766 640.258   C 191.949 640.258 197.969 636.559 199.648 631.562   C 204.18 629.559 207.227 625.867 207.227 621.645   Z   "/>
</g>
<g fill="#afbfbf" fill-rule="nonzero" stroke-width="0" stroke-linejoin="miter" stroke-linecap="butt" stroke-miterlimit="4">
	<path d="  M 86.25 726.25   L 86.25 740.5   "/>
</g>
<g fill="#060808" fill-rule="nonzero" stroke-width="0" stroke-linejoin="miter" stroke-linecap="butt" stroke-miterlimit="4">
	<path d="  M 66.6758 677.66   L 50.4727 677.66   L 50.4727 668.883   L 66.6758 668.883   Z   "/>
</g>
<g fill="#060808" fill-rule="nonzero" stroke-width="0" stroke-linejoin="miter" stroke-linecap="butt" stroke-miterlimit="4">
	<path d="  M 63.5313 669.066   L 53.6172 669.066   L 53.6172 664.523   L 63.5313 664.523   Z   "/>
</g>
<g fill="#060808" fill-rule="nonzero" stroke-width="0" stroke-linejoin="miter" stroke-linecap="butt" stroke-miterlimit="4">
	<path d="  M 162.926 677.66   L 146.723 677.66   L 146.723 668.883   L 162.926 668.883   Z   "/>
</g>
<g fill="#060808" fill-rule="nonzero" stroke-width="0" stroke-linejoin="miter" stroke-linecap="butt" stroke-miterlimit="4">
	<path d="  M 159.781 669.066   L 149.867 669.066   L 149.867 664.523   L 159.781 664.523   Z   "/>
</g>
<g fill="#060808" fill-rule="nonzero" stroke-width="0" stroke-linejoin="miter" stroke-linecap="butt" stroke-miterlimit="4">
	<path d="  M 190.926 677.66   L 174.723 677.66   L 174.723 668.883   L 190.926 668.883   Z   "/>
</g>
<g fill="#060808" fill-rule="nonzero" stroke-width="0" stroke-linejoin="miter" stroke-linecap="butt" stroke-miterlimit="4">
	<path d="  M 187.781 669.066   L 177.867 669.066   L 177.867 664.523   L 187.781 664.523   Z   "/>
</g>
<g stroke="#060808" fill="none" stroke-width="0.5" stroke-linejoin="round" stroke-linecap="round" stroke-miterlimit="4">
	<path d="  M 58.25 678   L 58.25 693   "/>
</g>
<g stroke="#060808" fill="none" stroke-width="0.5" stroke-linejoin="round" stroke-linecap="round" stroke-miterlimit="4">
	<path d="  M 154.5 678   L 154.5 693   "/>
</g>
<g stroke="#060808" fill="none" stroke-width="0.5" stroke-linejoin="round" stroke-linecap="round" stroke-miterlimit="4">
	<path d="  M 182.75 678   L 182.75 693   "/>
</g>
<g stroke="#060808" fill="none" stroke-width="0.5" stroke-linejoin="round" stroke-linecap="round" stroke-miterlimit="4">
	<path d="  M 32.168 726.25   L 32.168 741.25   "/>
</g>
<g stroke="#060808" fill="none" stroke-width="0.5" stroke-linejoin="round" stroke-linecap="round" stroke-miterlimit="4">
	<path d="  M 84.668 726.25   L 84.668 741.25   "/>
</g>
<g style="stroke:none;fill:#060808;text-rendering:optimizeGeometricPrecision;font-size:9;font-family:Helvetica,Arial;">
	<text transform="matrix(1 0 0 1 41.752 707.037)">Ether</text>
</g>
<g style="stroke:none;fill:#060808;text-rendering:optimizeGeometricPrecision;font-size:9;font-family:Helvetica,Arial;">
	<text transform="matrix(1 0 0 1 63.4863 707.037)">net</text>
</g>
<g style="stroke:none;fill:#060808;text-rendering:optimizeGeometricPrecision;font-size:9;font-family:Helvetica,Arial;">
	<text transform="matrix(1 0 0 1 46.5078 717.837)">swi</text>
</g>
<g style="stroke:none;fill:#060808;text-rendering:optimizeGeometricPrecision;font-size:9;font-family:Helvetica,Arial;">
	<text transform="matrix(1 0 0 1 59.2334 717.837)">tch</text>
</g>
<g style="stroke:none;fill:#060808;text-rendering:optimizeGeometricPrecision;font-size:9;font-family:Helvetica,Arial;">
	<text transform="matrix(1 0 0 1 147.11 709.229)">e0a</text>
</g>
<g style="stroke:none;fill:#060808;text-rendering:optimizeGeometricPrecision;font-size:9;font-family:Helvetica,Arial;">
	<text transform="matrix(1 0 0 1 174.525 709.229)">e0b</text>
</g>
<g style="stroke:none;fill:#060808;text-rendering:optimizeGeometricPrecision;font-size:9;font-family:Helvetica,Arial;">
	<text transform="matrix(1 0 0 1 84.0747 760.991)">e0M</text>
</g>
<g style="stroke:none;fill:#060808;text-rendering:optimizeGeometricPrecision;font-size:9;font-family:Helvetica,Arial;">
	<text transform="matrix(1 0 0 1 73.0908 787.373)">Storage</text>
</g>
<g style="stroke:none;fill:#060808;text-rendering:optimizeGeometricPrecision;font-size:9;font-family:Helvetica,Arial;">
	<text transform="matrix(1 0 0 1 104.519 787.373)"> controll</text>
</g>
<g style="stroke:none;fill:#060808;text-rendering:optimizeGeometricPrecision;font-size:9;font-family:Helvetica,Arial;">
	<text transform="matrix(1 0 0 1 136.027 787.373)">er</text>
</g>
<g style="stroke:none;fill:#060808;text-rendering:optimizeGeometricPrecision;font-size:9;font-family:Helvetica,Arial;">
	<text transform="matrix(1 0 0 1 156.135 752.97)">Data</text>
</g>
<g style="stroke:none;fill:#060808;text-rendering:optimizeGeometricPrecision;font-size:9;font-family:Helvetica,Arial;">
	<text transform="matrix(1 0 0 1 150.677 763.77)">ONTAP</text>
</g>
<g style="stroke:none;fill:#060808;text-rendering:optimizeGeometricPrecision;font-size:9;font-family:Helvetica,Arial;">
	<text transform="matrix(1 0 0 1 159.92 620.779)">Data</text>
</g>
<g style="stroke:none;fill:#060808;text-rendering:optimizeGeometricPrecision;font-size:9;font-family:Helvetica,Arial;">
	<text transform="matrix(1 0 0 1 160.672 631.578)">LAN</text>
</g>
<g style="stroke:none;fill:#060808;text-rendering:optimizeGeometricPrecision;font-size:9;font-family:Helvetica,Arial;">
	<text transform="matrix(1 0 0 1 35.7461 620.779)">Management</text>
</g>
<g style="stroke:none;fill:#060808;text-rendering:optimizeGeometricPrecision;font-size:9;font-family:Helvetica,Arial;">
	<text transform="matrix(1 0 0 1 53.2559 631.578)">LAN</text>
</g>
<g style="stroke:none;fill:#060808;text-rendering:optimizeGeometricPrecision;font-size:7;font-family:Helvetica,Arial;">
	<text transform="matrix(1 0 0 1 29.3579 752.777)">remote </text>
</g>
<g style="stroke:none;fill:#060808;text-rendering:optimizeGeometricPrecision;font-size:7;font-family:Helvetica,Arial;">
	<text transform="matrix(1 0 0 1 19.8242 761.176)">manage</text>
</g>
<g style="stroke:none;fill:#060808;text-rendering:optimizeGeometricPrecision;font-size:7;font-family:Helvetica,Arial;">
	<text transform="matrix(1 0 0 1 45.1157 761.176)">ment </text>
</g>
<g style="stroke:none;fill:#060808;text-rendering:optimizeGeometricPrecision;font-size:7;font-family:Helvetica,Arial;">
	<text transform="matrix(1 0 0 1 30.2402 769.577)">device</text>
</g>
</g>
</g>
</svg>