<?xml version="1.0" encoding="UTF-8"?><!-- Generator: Adobe Illustrator 12.0.0, SVG Export Plug-In . SVG Version: 6.00 Build 51448)  --><!DOCTYPE svg PUBLIC "-//W3C//DTD SVG 1.1//EN" "http://www.w3.org/Graphics/SVG/1.1/DTD/svg11.dtd">
<svg xmlns="http://www.w3.org/2000/svg" xmlns:xlink="http://www.w3.org/1999/xlink" version="1.1" width="239.5" height="380.667" viewBox="0 0 239.5 380.667" overflow="visible" enable-background="new 0 0 239.5 380.667" xml:space="preserve" preserveAspectRatio="xMidYMid meet" zoomAndPan="magnify" contentScriptType="application/ecmascript" contentStyleType="text/css">
<g id="Layer_1">
</g>
<g id="text">
	<rect x="71.5" y="71.417" fill="none" width="95" height="41.5"/>
	<text transform="matrix(1 0 0 1 85.4844 77.8784)"><tspan x="0" y="0" font-family="'Helvetica'" font-size="9">Do you know the </tspan><tspan x="8.257" y="10.8" font-family="'Helvetica'" font-size="9">performance  </tspan><tspan x="-6.75" y="21.6" font-family="'Helvetica'" font-size="9">requirements for the </tspan><tspan x="10.76" y="32.4" font-family="'Helvetica'" font-size="9">workloads?</tspan></text>
	<rect y="158.917" fill="none" width="75" height="31.5"/>
	<text transform="matrix(1 0 0 1 11.2432 165.3784)"><tspan x="0" y="0" font-family="'Helvetica'" font-size="9">Create policy </tspan><tspan x="3.248" y="10.8" font-family="'Helvetica'" font-size="9">groups with </tspan><tspan x="-6.755" y="21.6" font-family="'Helvetica'" font-size="9">throughput limits</tspan></text>
	<rect x="77" y="220.417" fill="none" width="86" height="29.5"/>
	<text transform="matrix(1 0 0 1 82.7314 226.8784)"><tspan x="0" y="0" font-family="'Helvetica'" font-size="9">Assign the storage </tspan><tspan x="5.256" y="10.8" font-family="'Helvetica'" font-size="9">objects to policy </tspan><tspan x="23.512" y="21.6" font-family="'Helvetica'" font-size="9">groups</tspan></text>
	<rect x="77" y="287.917" fill="none" width="86" height="24"/>
	<text transform="matrix(1 0 0 1 78.4873 294.3784)"><tspan x="0" y="0" font-family="'Helvetica'" font-size="9">Monitor performance </tspan><tspan x="2.003" y="10.8" font-family="'Helvetica'" font-size="9">by viewing statistics</tspan></text>
	<rect x="89" y="345.417" fill="none" width="61.5" height="31.5"/>
	<text transform="matrix(1 0 0 1 94.4922 351.8784)"><tspan x="0" y="0" font-family="'Helvetica'" font-size="9">Adjust policy </tspan><tspan x="-4.258" y="10.8" font-family="'Helvetica'" font-size="9">group settings, </tspan><tspan x="1.25" y="21.601" font-family="'Helvetica'" font-size="9">if necessary</tspan></text>
	<rect x="163" y="158.917" fill="none" width="76.5" height="32"/>
	<text transform="matrix(1 0 0 1 174.9932 165.3784)"><tspan x="0" y="0" font-family="'Helvetica'" font-size="9">Create policy </tspan><tspan x="-3.007" y="10.8" font-family="'Helvetica'" font-size="9">groups without </tspan><tspan x="-6.755" y="21.6" font-family="'Helvetica'" font-size="9">throughput limits</tspan></text>
	<rect x="55" y="129.917" fill="none" width="21" height="10.5"/>
	<text transform="matrix(1 0 0 1 57.7461 136.3784)" font-family="'Helvetica'" font-size="9">Yes</text>
	<rect x="160.5" y="129.917" fill="none" width="21" height="10.5"/>
	<text transform="matrix(1 0 0 1 165.249 136.3784)" font-family="'Helvetica'" font-size="9">No</text>
	
		<rect x="70" y="65.417" fill="none" stroke="#000000" stroke-width="0.5" stroke-linecap="round" stroke-linejoin="round" width="97.5" height="52"/>
	<rect x="71.5" y="7.25" fill="none" width="95" height="31"/>
	<text transform="matrix(1 0 0 1 72.7266 13.7124)"><tspan x="0" y="0" font-family="'Helvetica'" font-size="9">Identify storage objects </tspan><tspan x="10.508" y="10.8" font-family="'Helvetica'" font-size="9">to assign to policy </tspan><tspan x="32.517" y="21.6" font-family="'Helvetica'" font-size="9">groups</tspan></text>
	
		<rect x="70" y="0.25" fill="none" stroke="#000000" stroke-width="0.5" stroke-linecap="round" stroke-linejoin="round" width="97.5" height="41.5"/>
	
		<rect x="1.5" y="153.917" fill="none" stroke="#000000" stroke-width="0.5" stroke-linecap="round" stroke-linejoin="round" width="73" height="39"/>
	
		<rect x="165.5" y="153.917" fill="none" stroke="#000000" stroke-width="0.5" stroke-linecap="round" stroke-linejoin="round" width="71" height="39"/>
	
		<rect x="79.5" y="214.417" fill="none" stroke="#000000" stroke-width="0.5" stroke-linecap="round" stroke-linejoin="round" width="81.5" height="39"/>
	
		<rect x="76" y="278.417" fill="none" stroke="#000000" stroke-width="0.5" stroke-linecap="round" stroke-linejoin="round" width="88.5" height="39"/>
	
		<rect x="79.5" y="341.417" fill="none" stroke="#000000" stroke-width="0.5" stroke-linecap="round" stroke-linejoin="round" width="81.5" height="39"/>
	
		<line fill="none" stroke="#000000" stroke-width="0.5" stroke-linecap="round" stroke-linejoin="round" x1="114" y1="117.917" x2="59.5" y2="151.917"/>
	
		<line fill="none" stroke="#000000" stroke-width="0.5" stroke-linecap="round" stroke-linejoin="round" x1="177.5" y1="151.917" x2="126" y2="117.917"/>
	
		<line fill="none" stroke="#000000" stroke-width="0.5" stroke-linecap="round" stroke-linejoin="round" x1="35" y1="193.417" x2="107.5" y2="213.139"/>
	
		<line fill="none" stroke="#000000" stroke-width="0.5" stroke-linecap="round" stroke-linejoin="round" x1="202" y1="193.167" x2="132.5" y2="212.667"/>
	
		<line fill="none" stroke="#000000" stroke-width="0.5" stroke-linecap="round" stroke-linejoin="round" x1="119.5" y1="254.417" x2="119.5" y2="273.917"/>
	
		<line fill="none" stroke="#000000" stroke-width="0.5" stroke-linecap="round" stroke-linejoin="round" x1="119.5" y1="317.667" x2="119.5" y2="336.417"/>
	<polygon fill="#000100" stroke="#000100" points="57.237,153.115 60.079,149.968 62.922,146.82 64.182,148.891 65.441,150.962    61.339,152.039  "/>
	<polygon fill="#000100" stroke="#000100" points="179.259,152.957 176.29,149.93 173.32,146.902 172.146,149.022 170.974,151.144    175.115,152.051  "/>
	<polygon fill="#000100" stroke="#000100" points="109.721,213.502 106.225,211.042 102.729,208.58 101.984,210.946    101.242,213.312 105.48,213.408  "/>
	<polygon fill="#000100" stroke="#000100" points="129.507,213.459 133.74,213.239 137.976,213.019 137.164,210.735    136.351,208.452 132.929,210.954  "/>
	<polygon fill="#000100" stroke="#000100" points="119.496,276.844 120.687,272.776 121.878,268.706 119.455,268.717 117.03,268.73    118.262,272.787  "/>
	<polygon fill="#000100" stroke="#000100" points="119.496,340.094 120.687,336.026 121.878,331.956 119.455,331.967 117.03,331.98    118.262,336.037  "/>
	
		<line fill="none" stroke="#000000" stroke-width="0.5" stroke-linecap="round" stroke-linejoin="round" x1="119.5" y1="42.333" x2="119.5" y2="61.083"/>
	<polygon fill="#000100" stroke="#000100" points="119.496,64.761 120.687,60.693 121.878,56.623 119.455,56.634 117.03,56.647    118.262,60.704  "/>
</g>
</svg>