<?xml version="1.0" encoding="utf-8"?>
<!-- Generator: Adobe Illustrator 16.0.3, SVG Export Plug-In . SVG Version: 6.00 Build 0)  -->
<!DOCTYPE svg PUBLIC "-//W3C//DTD SVG 1.1//EN" "http://www.w3.org/Graphics/SVG/1.1/DTD/svg11.dtd">
<svg version="1.1" xmlns="http://www.w3.org/2000/svg" xmlns:xlink="http://www.w3.org/1999/xlink" x="0px" y="0px" width="341px"
	 height="197.334px" viewBox="0 0 341 197.334" enable-background="new 0 0 341 197.334" xml:space="preserve">
<g id="lines">
	
		<line fill="none" stroke="#000000" stroke-width="0.5" stroke-linecap="round" stroke-linejoin="round" x1="149.25" y1="48.25" x2="149.25" y2="79.25"/>
	
		<line fill="none" stroke="#000000" stroke-width="0.5" stroke-linecap="round" stroke-linejoin="round" x1="161" y1="48.25" x2="161" y2="79.25"/>
	<polyline fill="none" stroke="#000000" stroke-width="0.5" stroke-linecap="round" stroke-linejoin="round" points="172,79.75 
		172,70.25 273.5,70.25 273.5,49.25 	"/>
	<polyline fill="none" stroke="#000000" stroke-width="0.5" stroke-linecap="round" stroke-linejoin="round" points="52,49.25 
		52,63.75 138.5,63.75 138.5,80.25 	"/>
	<polyline fill="none" stroke="#000000" stroke-width="0.5" stroke-linecap="round" stroke-linejoin="round" points="162.417,127.5 
		162.417,138.5 216,138.5 216,157 212.543,157 	"/>
	<polyline fill="none" stroke="#000000" stroke-width="0.5" stroke-linecap="round" stroke-linejoin="round" points="173,127.25 
		173,132.928 233.75,132.928 233.75,162 212.5,162 	"/>
</g>
<g id="boxes">
	<rect x="5.75" y="34.5" fill="#3F3F3F" width="84.25" height="5.25"/>
	<rect x="5.75" y="29.25" fill="#B2B2B2" width="84.25" height="5"/>
	<rect x="5.75" y="45.25" fill="#3F3F3F" width="84.25" height="5"/>
	<rect x="5.75" y="40" fill="#B2B2B2" width="84.25" height="5"/>
	
		<line fill="none" stroke="#FFFFFF" stroke-width="0.5" stroke-linecap="round" stroke-linejoin="round" x1="62" y1="29.5" x2="62" y2="50.5"/>
	
		<line fill="none" stroke="#FFFFFF" stroke-width="0.5" stroke-linecap="round" stroke-linejoin="round" x1="44.75" y1="30.25" x2="59" y2="30.25"/>
	
		<ellipse fill="#FFFFFF" stroke="#FFFFFF" stroke-width="0.5" stroke-linecap="round" stroke-linejoin="round" cx="56.625" cy="32.75" rx="1.107" ry="0.914"/>
	
		<line fill="none" stroke="#FFFFFF" stroke-width="0.5" stroke-linecap="round" stroke-linejoin="round" x1="44.75" y1="35.25" x2="59" y2="35.25"/>
	
		<ellipse fill="#FFFFFF" stroke="#FFFFFF" stroke-width="0.5" stroke-linecap="round" stroke-linejoin="round" cx="56.625" cy="37.75" rx="1.107" ry="0.914"/>
	
		<line fill="none" stroke="#FFFFFF" stroke-width="0.5" stroke-linecap="round" stroke-linejoin="round" x1="73.25" y1="35.25" x2="87.5" y2="35.25"/>
	
		<ellipse fill="#FFFFFF" stroke="#FFFFFF" stroke-width="0.5" stroke-linecap="round" stroke-linejoin="round" cx="85.125" cy="37.75" rx="1.107" ry="0.914"/>
	
		<line fill="none" stroke="#FFFFFF" stroke-width="0.5" stroke-linecap="round" stroke-linejoin="round" x1="73.25" y1="46" x2="87.5" y2="46"/>
	
		<ellipse fill="#FFFFFF" stroke="#FFFFFF" stroke-width="0.5" stroke-linecap="round" stroke-linejoin="round" cx="85.125" cy="48.5" rx="1.107" ry="0.914"/>
	
		<line fill="none" stroke="#FFFFFF" stroke-width="0.5" stroke-linecap="round" stroke-linejoin="round" x1="44.75" y1="41.25" x2="59" y2="41.25"/>
	
		<ellipse fill="#FFFFFF" stroke="#FFFFFF" stroke-width="0.5" stroke-linecap="round" stroke-linejoin="round" cx="56.625" cy="43.75" rx="1.107" ry="0.914"/>
	
		<ellipse fill="#FFFFFF" stroke="#FFFFFF" stroke-width="0.5" stroke-linecap="round" stroke-linejoin="round" cx="85.125" cy="43.75" rx="1.107" ry="0.914"/>
	
		<line fill="none" stroke="#FFFFFF" stroke-width="0.5" stroke-linecap="round" stroke-linejoin="round" x1="44.75" y1="46.25" x2="59" y2="46.25"/>
	
		<ellipse fill="#FFFFFF" stroke="#FFFFFF" stroke-width="0.5" stroke-linecap="round" stroke-linejoin="round" cx="56.625" cy="48.75" rx="1.107" ry="0.914"/>
	
		<ellipse fill="#FFFFFF" stroke="#FFFFFF" stroke-width="0.5" stroke-linecap="round" stroke-linejoin="round" cx="85.375" cy="32.75" rx="1.107" ry="0.914"/>
	<rect x="6" y="18.5" fill="#3F3F3F" width="84" height="10"/>
	<rect x="10.25" y="21" fill="#B2B2B2" width="76.25" height="5.25"/>
	<polygon fill="#8C8C8C" points="6,18.5 89.25,18.5 85.25,14.75 10.25,14.75 	"/>
	
		<ellipse fill="#FFFFFF" stroke="#FFFFFF" stroke-width="0.5" stroke-linecap="round" stroke-linejoin="round" cx="86.625" cy="23.75" rx="1.107" ry="0.914"/>
	<rect x="111.417" y="34.5" fill="#3F3F3F" width="84.25" height="5.25"/>
	<rect x="111.417" y="29.25" fill="#B2B2B2" width="84.25" height="5"/>
	<rect x="111.417" y="45.25" fill="#3F3F3F" width="84.25" height="5"/>
	<rect x="111.417" y="40" fill="#B2B2B2" width="84.25" height="5"/>
	
		<line fill="none" stroke="#FFFFFF" stroke-width="0.5" stroke-linecap="round" stroke-linejoin="round" x1="167.667" y1="29.5" x2="167.667" y2="50.5"/>
	
		<line fill="none" stroke="#FFFFFF" stroke-width="0.5" stroke-linecap="round" stroke-linejoin="round" x1="150.417" y1="30.25" x2="164.667" y2="30.25"/>
	
		<ellipse fill="#FFFFFF" stroke="#FFFFFF" stroke-width="0.5" stroke-linecap="round" stroke-linejoin="round" cx="162.292" cy="32.75" rx="1.107" ry="0.914"/>
	
		<line fill="none" stroke="#FFFFFF" stroke-width="0.5" stroke-linecap="round" stroke-linejoin="round" x1="150.417" y1="35.25" x2="164.667" y2="35.25"/>
	
		<ellipse fill="#FFFFFF" stroke="#FFFFFF" stroke-width="0.5" stroke-linecap="round" stroke-linejoin="round" cx="162.292" cy="37.75" rx="1.107" ry="0.914"/>
	
		<line fill="none" stroke="#FFFFFF" stroke-width="0.5" stroke-linecap="round" stroke-linejoin="round" x1="178.916" y1="35.25" x2="193.166" y2="35.25"/>
	
		<ellipse fill="#FFFFFF" stroke="#FFFFFF" stroke-width="0.5" stroke-linecap="round" stroke-linejoin="round" cx="190.791" cy="37.75" rx="1.107" ry="0.914"/>
	
		<line fill="none" stroke="#FFFFFF" stroke-width="0.5" stroke-linecap="round" stroke-linejoin="round" x1="178.916" y1="46" x2="193.166" y2="46"/>
	
		<ellipse fill="#FFFFFF" stroke="#FFFFFF" stroke-width="0.5" stroke-linecap="round" stroke-linejoin="round" cx="190.791" cy="48.5" rx="1.107" ry="0.914"/>
	
		<line fill="none" stroke="#FFFFFF" stroke-width="0.5" stroke-linecap="round" stroke-linejoin="round" x1="150.417" y1="41.25" x2="164.667" y2="41.25"/>
	
		<ellipse fill="#FFFFFF" stroke="#FFFFFF" stroke-width="0.5" stroke-linecap="round" stroke-linejoin="round" cx="162.292" cy="43.75" rx="1.107" ry="0.914"/>
	
		<ellipse fill="#FFFFFF" stroke="#FFFFFF" stroke-width="0.5" stroke-linecap="round" stroke-linejoin="round" cx="190.791" cy="43.75" rx="1.107" ry="0.914"/>
	
		<line fill="none" stroke="#FFFFFF" stroke-width="0.5" stroke-linecap="round" stroke-linejoin="round" x1="150.417" y1="46.25" x2="164.667" y2="46.25"/>
	
		<ellipse fill="#FFFFFF" stroke="#FFFFFF" stroke-width="0.5" stroke-linecap="round" stroke-linejoin="round" cx="162.292" cy="48.75" rx="1.107" ry="0.914"/>
	
		<ellipse fill="#FFFFFF" stroke="#FFFFFF" stroke-width="0.5" stroke-linecap="round" stroke-linejoin="round" cx="191.041" cy="32.75" rx="1.107" ry="0.914"/>
	<rect x="111.667" y="18.5" fill="#3F3F3F" width="84" height="10"/>
	<rect x="115.917" y="21" fill="#B2B2B2" width="76.25" height="5.25"/>
	<polygon fill="#8C8C8C" points="111.667,18.5 194.916,18.5 190.916,14.75 115.917,14.75 	"/>
	
		<ellipse fill="#FFFFFF" stroke="#FFFFFF" stroke-width="0.5" stroke-linecap="round" stroke-linejoin="round" cx="192.291" cy="23.75" rx="1.107" ry="0.914"/>
	<rect x="250.084" y="34.5" fill="#3F3F3F" width="84.249" height="5.25"/>
	<rect x="250.084" y="29.25" fill="#B2B2B2" width="84.249" height="5"/>
	<rect x="250.084" y="45.25" fill="#3F3F3F" width="84.249" height="5"/>
	<rect x="250.084" y="40" fill="#B2B2B2" width="84.249" height="5"/>
	
		<line fill="none" stroke="#FFFFFF" stroke-width="0.5" stroke-linecap="round" stroke-linejoin="round" x1="306.334" y1="29.5" x2="306.334" y2="50.5"/>
	
		<line fill="none" stroke="#FFFFFF" stroke-width="0.5" stroke-linecap="round" stroke-linejoin="round" x1="289.084" y1="30.25" x2="303.334" y2="30.25"/>
	
		<ellipse fill="#FFFFFF" stroke="#FFFFFF" stroke-width="0.5" stroke-linecap="round" stroke-linejoin="round" cx="300.959" cy="32.75" rx="1.107" ry="0.914"/>
	
		<line fill="none" stroke="#FFFFFF" stroke-width="0.5" stroke-linecap="round" stroke-linejoin="round" x1="289.084" y1="35.25" x2="303.334" y2="35.25"/>
	
		<ellipse fill="#FFFFFF" stroke="#FFFFFF" stroke-width="0.5" stroke-linecap="round" stroke-linejoin="round" cx="300.959" cy="37.75" rx="1.107" ry="0.914"/>
	
		<line fill="none" stroke="#FFFFFF" stroke-width="0.5" stroke-linecap="round" stroke-linejoin="round" x1="317.583" y1="35.25" x2="331.833" y2="35.25"/>
	
		<ellipse fill="#FFFFFF" stroke="#FFFFFF" stroke-width="0.5" stroke-linecap="round" stroke-linejoin="round" cx="329.458" cy="37.75" rx="1.107" ry="0.914"/>
	
		<line fill="none" stroke="#FFFFFF" stroke-width="0.5" stroke-linecap="round" stroke-linejoin="round" x1="317.583" y1="46" x2="331.833" y2="46"/>
	
		<ellipse fill="#FFFFFF" stroke="#FFFFFF" stroke-width="0.5" stroke-linecap="round" stroke-linejoin="round" cx="329.458" cy="48.5" rx="1.107" ry="0.914"/>
	
		<line fill="none" stroke="#FFFFFF" stroke-width="0.5" stroke-linecap="round" stroke-linejoin="round" x1="289.084" y1="41.25" x2="303.334" y2="41.25"/>
	
		<ellipse fill="#FFFFFF" stroke="#FFFFFF" stroke-width="0.5" stroke-linecap="round" stroke-linejoin="round" cx="300.959" cy="43.75" rx="1.107" ry="0.914"/>
	
		<ellipse fill="#FFFFFF" stroke="#FFFFFF" stroke-width="0.5" stroke-linecap="round" stroke-linejoin="round" cx="329.458" cy="43.75" rx="1.107" ry="0.914"/>
	
		<line fill="none" stroke="#FFFFFF" stroke-width="0.5" stroke-linecap="round" stroke-linejoin="round" x1="289.084" y1="46.25" x2="303.334" y2="46.25"/>
	
		<ellipse fill="#FFFFFF" stroke="#FFFFFF" stroke-width="0.5" stroke-linecap="round" stroke-linejoin="round" cx="300.959" cy="48.75" rx="1.107" ry="0.914"/>
	
		<ellipse fill="#FFFFFF" stroke="#FFFFFF" stroke-width="0.5" stroke-linecap="round" stroke-linejoin="round" cx="329.708" cy="32.75" rx="1.107" ry="0.914"/>
	<rect x="250.334" y="18.5" fill="#3F3F3F" width="83.999" height="10"/>
	<rect x="254.584" y="21" fill="#B2B2B2" width="76.249" height="5.25"/>
	<polygon fill="#8C8C8C" points="250.334,18.5 333.583,18.5 329.583,14.75 254.584,14.75 	"/>
	
		<ellipse fill="#FFFFFF" stroke="#FFFFFF" stroke-width="0.5" stroke-linecap="round" stroke-linejoin="round" cx="330.958" cy="23.75" rx="1.107" ry="0.914"/>
</g>
<g id="text">
	<rect x="10.5" y="4.917" fill="none" width="27.667" height="8.333"/>
	<text transform="matrix(1 0 0 1 10.5 11.3794)" font-family="'Helvetica'" font-size="9">Host 1</text>
	<rect x="115.5" y="4.917" fill="none" width="27.667" height="8.333"/>
	<text transform="matrix(1 0 0 1 115.5 11.3794)" font-family="'Helvetica'" font-size="9">Host 2</text>
	<rect x="254.167" y="4.917" fill="none" width="27.667" height="8.333"/>
	<text transform="matrix(1 0 0 1 254.167 11.3794)" font-family="'Helvetica'" font-size="9">Host N</text>
	<g>
		<rect x="214.688" y="48.771" width="2.625" height="2.625"/>
		<rect x="220.021" y="48.771" width="2.625" height="2.625"/>
		<rect x="225.688" y="48.771" width="2.625" height="2.625"/>
	</g>
	<rect x="140.333" y="183.916" fill="none" width="51.333" height="7.667"/>
	<text transform="matrix(1 0 0 1 140.333 190.3779)" font-family="'Helvetica'" font-size="9">Controller 1</text>
	<rect x="182" y="93.25" fill="none" width="115.041" height="21"/>
	<text transform="matrix(1 0 0 1 182 99.7119)" font-family="'Helvetica'" font-size="9">Ethernet capable switch</text>
	<rect x="214" y="147.582" fill="none" width="18.333" height="7.667"/>
	<text transform="matrix(1 0 0 1 217.3213 154.0439)" font-family="'Helvetica'" font-size="9">e0a</text>
	<rect x="232.666" y="147.582" fill="none" width="18.333" height="7.667"/>
	<text transform="matrix(1 0 0 1 235.9873 154.0439)" font-family="'Helvetica'" font-size="9">e0b</text>
</g>
<g id="outline">
	<g>
		
			<rect x="130.5" y="78.417" fill="#FFFFFF" stroke="#000000" stroke-width="0.5" stroke-linecap="round" stroke-linejoin="round" width="49.167" height="48.833"/>
		<g>
			<polygon fill="none" stroke="#000000" stroke-width="0.5" stroke-linecap="round" stroke-linejoin="round" points="157,86.25 
				155.945,83.959 154.892,81.666 153.837,83.959 152.782,86.25 153.75,86.084 153.75,100.084 156,100.084 156,86.084 			"/>
		</g>
		<g>
			<polygon fill="none" stroke="#000000" stroke-width="0.5" stroke-linecap="round" stroke-linejoin="round" points="
				152.781,119.831 153.836,122.123 154.89,124.415 155.944,122.123 157,119.831 156.031,119.998 156.031,105.998 153.781,105.998 
				153.781,119.998 			"/>
		</g>
		<g>
			<polygon fill="none" stroke="#000000" stroke-width="0.5" stroke-linecap="round" stroke-linejoin="round" points="
				138.1,100.931 135.808,101.986 133.516,103.04 135.808,104.095 138.1,105.149 137.933,104.182 151.933,104.182 151.933,101.932 
				137.933,101.932 			"/>
		</g>
		<g>
			<polygon fill="none" stroke="#000000" stroke-width="0.5" stroke-linecap="round" stroke-linejoin="round" points="
				171.682,105.15 173.973,104.096 176.266,103.042 173.973,101.987 171.682,100.932 171.848,101.9 157.848,101.9 157.848,104.15 
				171.848,104.15 			"/>
		</g>
		<g>
			<polygon fill="none" stroke="#000000" stroke-width="0.5" stroke-linecap="round" stroke-linejoin="round" points="
				141.609,113.338 140.735,115.705 139.859,118.07 142.226,117.195 144.592,116.32 143.79,115.755 153.689,105.855 
				152.098,104.264 142.199,114.164 			"/>
		</g>
		<g>
			<polygon fill="none" stroke="#000000" stroke-width="0.5" stroke-linecap="round" stroke-linejoin="round" points="
				168.339,92.576 169.213,90.21 170.089,87.844 167.722,88.719 165.355,89.593 166.158,90.16 156.259,100.06 157.85,101.65 
				167.749,91.752 			"/>
		</g>
		<g>
			<polygon fill="none" stroke="#000000" stroke-width="0.5" stroke-linecap="round" stroke-linejoin="round" points="
				144.427,89.676 142.06,88.802 139.694,87.926 140.569,90.293 141.444,92.659 142.01,91.856 151.909,101.756 153.5,100.165 
				143.601,90.266 			"/>
		</g>
		<g>
			<polygon fill="none" stroke="#000000" stroke-width="0.5" stroke-linecap="round" stroke-linejoin="round" points="
				165.189,116.405 167.555,117.279 169.921,118.156 169.045,115.789 168.172,113.422 167.604,114.225 157.705,104.326 
				156.114,105.916 166.013,115.816 			"/>
		</g>
	</g>
	<g>
		<rect x="106.833" y="153.251" fill="#3F3F3F" width="105.667" height="24.667"/>
		<polyline fill="#B2B2B2" stroke="#B2B2B2" stroke-width="0.5" stroke-linecap="round" stroke-linejoin="round" points="
			106.833,153.251 111.834,146.251 207.167,146.251 212.501,153.251 		"/>
		<path fill="#FFFFFF" stroke="#FFFFFF" stroke-width="0.5" stroke-linecap="round" stroke-linejoin="round" d="M114.667,173.917
			v-17.833c0,0,57-4.166,90,0.167v18C204.667,174.251,144.667,178.75,114.667,173.917z"/>
		<path fill="#3F3F3F" stroke="#3F3F3F" stroke-width="0.5" stroke-linecap="round" stroke-linejoin="round" d="M120.667,157.084
			v16.333h-2.5c0,0-3-7.666,0.167-16.333H120.667z"/>
		<path fill="#3F3F3F" stroke="#3F3F3F" stroke-width="0.5" stroke-linecap="round" stroke-linejoin="round" d="M128.833,157.084
			v16.333h-2.5c0,0-3-7.666,0.167-16.333H128.833z"/>
		<path fill="#3F3F3F" stroke="#3F3F3F" stroke-width="0.5" stroke-linecap="round" stroke-linejoin="round" d="M198.882,173.417
			v-16.333h2.5c0,0,3,7.666-0.167,16.333H198.882z"/>
		<path fill="#3F3F3F" stroke="#3F3F3F" stroke-width="0.5" stroke-linecap="round" stroke-linejoin="round" d="M191.049,173.417
			v-17h2.5c0,0,3,7.979-0.167,17H191.049z"/>
		<path fill="#3F3F3F" stroke="#3F3F3F" stroke-width="0.5" stroke-linecap="round" stroke-linejoin="round" d="M182.716,173.751
			v-17h2.5c0,0,3,7.979-0.167,17H182.716z"/>
		<path fill="#3F3F3F" stroke="#3F3F3F" stroke-width="0.5" stroke-linecap="round" stroke-linejoin="round" d="M136.833,156.751
			v17.166h-2.5c0,0-3-8.057,0.167-17.166H136.833z"/>
		<path fill="#3F3F3F" stroke="#3F3F3F" stroke-width="0.5" stroke-linecap="round" stroke-linejoin="round" d="M145,156.084v17.832
			h-2.5c0,0-3-8.369,0.167-17.832H145z"/>
		<path fill="#3F3F3F" stroke="#3F3F3F" stroke-width="0.5" stroke-linecap="round" stroke-linejoin="round" d="M152.833,156.418
			v17.832h-2.5c0,0-3-8.369,0.167-17.832H152.833z"/>
		<path fill="#3F3F3F" stroke="#3F3F3F" stroke-width="0.5" stroke-linecap="round" stroke-linejoin="round" d="M179.834,173.116
			c0,0.994-0.807,1.8-1.801,1.8H157.3c-0.994,0-1.8-0.806-1.8-1.8v-8.733c0-0.994,0.806-1.8,1.8-1.8h20.733
			c0.994,0,1.801,0.806,1.801,1.8V173.116z"/>
		<path fill="#B2B2B2" stroke="#B2B2B2" stroke-width="0.5" stroke-linecap="round" stroke-linejoin="round" d="M177.167,172.451
			c0,0.994-0.806,1.8-1.8,1.8h-15.233c-0.995,0-1.8-0.806-1.8-1.8v-5.4c0-0.994,0.805-1.8,1.8-1.8h15.233c0.994,0,1.8,0.806,1.8,1.8
			V172.451z"/>
		<path fill="#3F3F3F" stroke="#3F3F3F" stroke-width="0.5" stroke-linecap="round" stroke-linejoin="round" d="M175.334,171.451
			c0,0.994-0.806,1.8-1.8,1.8H162.3c-0.994,0-1.8-0.806-1.8-1.8v-2.734c0-0.994,0.806-1.8,1.8-1.8h11.234c0.994,0,1.8,0.806,1.8,1.8
			V171.451z"/>
		
			<rect x="162.667" y="174.25" fill="#3F3F3F" stroke="#3F3F3F" stroke-width="0.5" stroke-linecap="round" stroke-linejoin="round" width="3.499" height="1"/>
		
			<rect x="167.167" y="174.25" fill="#3F3F3F" stroke="#3F3F3F" stroke-width="0.5" stroke-linecap="round" stroke-linejoin="round" width="3.499" height="1"/>
		
			<rect x="171.667" y="174.25" fill="#3F3F3F" stroke="#3F3F3F" stroke-width="0.5" stroke-linecap="round" stroke-linejoin="round" width="3.499" height="1"/>
	</g>
	<circle cx="138.417" cy="78.5" r="1.25"/>
	<circle cx="162.25" cy="127.166" r="1.25"/>
	<circle cx="173.083" cy="127.166" r="1.25"/>
	<circle cx="149.25" cy="78.5" r="1.25"/>
	<circle cx="161.083" cy="78.5" r="1.25"/>
	<circle cx="171.916" cy="78.5" r="1.25"/>
</g>
</svg>
