<?xml version="1.0" encoding="UTF-8"?><!-- Generator: Adobe Illustrator 12.0.0, SVG Export Plug-In . SVG Version: 6.00 Build 51448)  --><!DOCTYPE svg PUBLIC "-//W3C//DTD SVG 1.1//EN" "http://www.w3.org/Graphics/SVG/1.1/DTD/svg11.dtd">
<svg xmlns="http://www.w3.org/2000/svg" xmlns:xlink="http://www.w3.org/1999/xlink" version="1.1" width="305.167" height="268.603" viewBox="0 0 305.167 268.603" overflow="visible" enable-background="new 0 0 305.167 268.603" xml:space="preserve" preserveAspectRatio="xMidYMid meet" zoomAndPan="magnify" contentScriptType="application/ecmascript" contentStyleType="text/css">
<g id="lines">
	<line fill="none" stroke="#000000" stroke-width="2" x1="154.667" y1="35.936" x2="154.667" y2="99.603"/>
	<polyline fill="none" stroke="#000000" stroke-width="2" points="36.333,203.603 153.667,128.27 218.667,204.603  "/>
	<line fill="none" stroke="#000000" stroke-width="2" stroke-dasharray="12" x1="172" y1="34.936" x2="161" y2="99.603"/>
	<polyline fill="none" stroke="#000000" stroke-width="2" stroke-dasharray="12" points="108.667,203.603 153.667,128.27    272,202.937  "/>
</g>
<g id="boxes">
	
		<rect x="89.333" y="18.77" fill="#8C8C8C" stroke="#000000" stroke-width="0.5" stroke-linecap="round" stroke-linejoin="round" width="135" height="19.5"/>
	
		<rect x="91.5" y="20.77" fill="none" stroke="#000000" stroke-width="0.5" stroke-linecap="round" stroke-linejoin="round" width="130.667" height="15.667"/>
	<g>
		<path fill="#B2B2B2" stroke="#000000" stroke-width="0.5" stroke-linecap="round" stroke-linejoin="round" d="M94.832,23.603h22    v9.333H94.499C94.499,32.936,100.665,28.769,94.832,23.603z"/>
		<path fill="#B2B2B2" stroke="#000000" stroke-width="0.5" stroke-linecap="round" stroke-linejoin="round" d="M218.999,33.103h-22    v-9.333h22.333C219.332,23.769,213.166,27.936,218.999,33.103z"/>
		
			<ellipse fill="#B2B2B2" stroke="#000000" stroke-width="0.5" stroke-linecap="round" stroke-linejoin="round" cx="159.749" cy="28.353" rx="8.75" ry="5.083"/>
	</g>
	<polyline fill="#8C8C8C" stroke="#000000" stroke-width="0.5" stroke-linecap="round" stroke-linejoin="round" points="   88.667,38.103 81,33.27 81,21.603 88.667,19.436  "/>
	<polygon fill="#666666" stroke="#000000" stroke-linecap="round" stroke-linejoin="round" points="8.333,240.104 0.5,235.271    0.5,207.771 8.333,202.104 143.333,202.104 143.333,239.771  "/>
	
		<line fill="none" stroke="#000000" stroke-linecap="round" stroke-linejoin="round" x1="8.333" y1="202.104" x2="8.333" y2="240.104"/>
	<path fill="none" stroke="#000000" stroke-linecap="round" stroke-linejoin="round" d="M138.333,234.771v3.166L14,237.437v-3.333   c0,0-4.5-11.166,0.667-25.833v-3.5h123v3c0,0,5.333,10.5,0.833,26.5"/>
	<path fill="#B2B2B2" stroke="#000000" stroke-width="2" stroke-linecap="round" stroke-linejoin="round" d="M19.333,231.104   c0,0-0.5-13,0-16s1.667-6.667,8.667-6.5s52.5,4.333,52.5,4.333l50.5-4.5c0,0,9.667,11.334,0.833,25.334c0,0-40.333,1.167-56-2.5   l-47.833,3C28,234.271,20.833,234.771,19.333,231.104z"/>
	<path fill="none" stroke="#000000" stroke-linecap="round" stroke-linejoin="round" d="M32.833,209.271c0,0,0.667,21,2.167,24.833"/>
	<path fill="none" stroke="#000000" stroke-linecap="round" stroke-linejoin="round" d="M48.167,210.271c0,0-1.5,16,1.167,22.5"/>
	<path fill="none" stroke="#000000" stroke-linecap="round" stroke-linejoin="round" d="M61.5,211.604   c0,0-0.333,16.499,0.333,20.333"/>
	<path fill="none" stroke="#000000" stroke-linecap="round" stroke-linejoin="round" d="M75.5,212.771c0,0.5-0.5,18.333-0.5,18.333"/>
	<rect x="62.5" y="234.437" stroke="#000000" width="1.833" height="1.334"/>
	<rect x="66.333" y="234.604" stroke="#000000" width="1.833" height="1.334"/>
	<rect x="69" y="234.021" stroke="#000000" width="1.833" height="1.501"/>
	<rect x="72.5" y="233.557" stroke="#000000" width="1.833" height="1.596"/>
	<polygon fill="#666666" stroke="#000000" stroke-linecap="round" stroke-linejoin="round" points="169.667,240.104    161.834,235.271 161.834,207.771 169.667,202.104 304.667,202.104 304.667,239.771  "/>
	
		<line fill="none" stroke="#000000" stroke-linecap="round" stroke-linejoin="round" x1="169.667" y1="202.104" x2="169.667" y2="240.104"/>
	<path fill="none" stroke="#000000" stroke-linecap="round" stroke-linejoin="round" d="M299.667,234.771v3.166l-124.333-0.5v-3.333   c0,0-4.501-11.166,0.666-25.833v-3.5h123v3c0,0,5.334,10.5,0.834,26.5"/>
	<path fill="#B2B2B2" stroke="#000000" stroke-width="2" stroke-linecap="round" stroke-linejoin="round" d="M180.667,231.104   c0,0-0.5-13,0-16s1.667-6.667,8.667-6.5s52.5,4.333,52.5,4.333l50.5-4.5c0,0,9.666,11.334,0.833,25.334c0,0-40.333,1.167-56-2.5   l-47.833,3C189.334,234.271,182.167,234.771,180.667,231.104z"/>
	<path fill="none" stroke="#000000" stroke-linecap="round" stroke-linejoin="round" d="M194.167,209.271c0,0,0.667,21,2.167,24.833   "/>
	<path fill="none" stroke="#000000" stroke-linecap="round" stroke-linejoin="round" d="M209.5,210.271c0,0-1.5,16,1.167,22.5"/>
	<path fill="none" stroke="#000000" stroke-linecap="round" stroke-linejoin="round" d="M222.834,211.604   c0,0-0.334,16.499,0.333,20.333"/>
	<path fill="none" stroke="#000000" stroke-linecap="round" stroke-linejoin="round" d="M236.834,212.771   c0,0.5-0.5,18.333-0.5,18.333"/>
	<rect x="223.834" y="234.437" stroke="#000000" width="1.833" height="1.334"/>
	<rect x="227.666" y="234.604" stroke="#000000" width="1.834" height="1.334"/>
	<rect x="230.333" y="234.021" stroke="#000000" width="1.833" height="1.501"/>
	<rect x="233.833" y="233.557" stroke="#000000" width="1.833" height="1.596"/>
	
		<rect x="137.667" y="97.937" fill="#B2B2B2" stroke="#000000" stroke-linecap="round" stroke-linejoin="round" width="32.667" height="32.333"/>
	<polyline fill="#B2B2B2" stroke="#000000" stroke-linecap="round" stroke-linejoin="round" points="137.667,97.937 135.167,99.77    135.167,128.437 137.667,130.27  "/>
	
		<ellipse fill="none" stroke="#000000" stroke-width="0.5" stroke-linecap="round" stroke-linejoin="round" cx="154.25" cy="108.145" rx="4.5" ry="0.708"/>
	
		<ellipse fill="none" stroke="#000000" stroke-width="0.5" stroke-linecap="round" stroke-linejoin="round" cx="154.209" cy="108.061" rx="6.625" ry="1.708"/>
	<path fill="none" stroke="#000000" stroke-width="0.5" stroke-linecap="round" stroke-linejoin="round" d="M154.293,109.103"/>
	<path fill="none" stroke="#000000" stroke-width="0.5" stroke-linecap="round" stroke-linejoin="round" d="M147.668,108.061v2.75   c0,0.944,2.966,1.708,6.625,1.708s6.625-0.765,6.625-1.708v-2.75"/>
	<path fill="none" stroke="#000000" stroke-width="0.5" stroke-linecap="round" stroke-linejoin="round" d="M154.209,115.019"/>
	<path fill="none" stroke="#000000" stroke-width="0.5" stroke-linecap="round" stroke-linejoin="round" d="M160.834,116.981   c0,1.084-2.966,1.963-6.625,1.963s-6.625-0.878-6.625-1.963"/>
	<path fill="none" stroke="#000000" stroke-width="0.5" stroke-linecap="round" stroke-linejoin="round" d="M149.083,115.103   c-1.334,0.417-1.415,1.878-1.415,1.878v3.159c0,1.084,2.966,1.962,6.625,1.962s6.625-0.878,6.625-1.962v-3.159   c0,0-0.002-1.045-1.335-1.795"/>
	<path fill="none" stroke="#000000" stroke-width="0.5" stroke-linecap="round" stroke-linejoin="round" d="M149,112.02   c0,0,4.583,1.5,10.5-0.083v4.417c0,0-4.166,3.417-10.333,0.167L149,112.02z"/>
	<path fill="none" stroke="#000000" stroke-width="0.5" stroke-linecap="round" stroke-linejoin="round" d="M159.25,111.77"/>
	<path fill="none" stroke="#000000" stroke-width="0.5" stroke-linecap="round" stroke-linejoin="round" d="M159.25,116.353"/>
	<path fill="#3F3F3F" stroke="#000000" stroke-width="0.5" stroke-linecap="round" stroke-linejoin="round" d="M146.167,104.02v2   l-3.917-3.083l3.583-2.5v1.667h3.75c0,0,2.416,1.167,0,1.917H146.167z"/>
	<path fill="#3F3F3F" stroke="#000000" stroke-width="0.5" stroke-linecap="round" stroke-linejoin="round" d="M146.167,125.603v2   l-3.917-3.083l3.583-2.5v1.667h3.75c0,0,2.416,1.167,0,1.917H146.167z"/>
	<path fill="#3F3F3F" stroke="#000000" stroke-width="0.5" stroke-linecap="round" stroke-linejoin="round" d="M162.907,123.77v-2   l3.917,3.083l-3.583,2.5v-1.667h-3.75c0,0-2.416-1.167,0-1.917H162.907z"/>
	<path fill="#3F3F3F" stroke="#000000" stroke-width="0.5" stroke-linecap="round" stroke-linejoin="round" d="M162.907,102.187v-2   l3.917,3.083l-3.583,2.5v-1.667h-3.75c0,0-2.416-1.167,0-1.917H162.907z"/>
</g>
<g id="text">
	<rect x="146.332" y="1.27" fill="none" width="29.667" height="10"/>
	<text transform="matrix(1 0 0 1 146.332 7.731)" font-family="'Helvetica'" font-size="9">Host</text>
	<rect x="94.665" y="110.27" fill="none" width="45.667" height="10"/>
	<text transform="matrix(1 0 0 1 94.665 116.731)" font-family="'Helvetica'" font-size="9">Switch</text>
	<rect x="51" y="257.937" fill="none" width="40.333" height="10.333"/>
	<text transform="matrix(1 0 0 1 51 264.3984)" font-family="'Helvetica'" font-size="9">Node 01</text>
	<rect x="220.666" y="258.27" fill="none" width="40.332" height="10.333"/>
	<text transform="matrix(1 0 0 1 220.666 264.7314)" font-family="'Helvetica'" font-size="9">Node 02</text>
	<rect x="83.667" y="54.27" fill="none" width="26.667" height="9.667"/>
	<text transform="matrix(1 0 0 1 83.667 60.0137)" font-family="'Helvetica'" font-size="8">HBA 0</text>
	<rect x="195.667" y="54.27" fill="none" width="26.666" height="9.667"/>
	<text transform="matrix(1 0 0 1 195.666 60.0137)" font-family="'Helvetica'" font-size="8">HBA 1</text>
	<rect x="27" y="186.271" fill="none" width="23.333" height="8.667"/>
	<text transform="matrix(1 0 0 1 27.0005 192.0146)" font-family="'Helvetica'" font-size="8">LIF_1</text>
	<rect x="79.667" y="192.604" fill="none" width="23.333" height="8.667"/>
	<text transform="matrix(1 0 0 1 79.667 198.3477)" font-family="'Helvetica'" font-size="8">LIF_2</text>
	<rect x="176" y="184.938" fill="none" width="23.333" height="8.667"/>
	<text transform="matrix(1 0 0 1 176 190.6816)" font-family="'Helvetica'" font-size="8">LIF_3</text>
	<rect x="259.334" y="184.938" fill="none" width="23.333" height="8.667"/>
	<text transform="matrix(1 0 0 1 259.334 190.6816)" font-family="'Helvetica'" font-size="8">LIF_4</text>
</g>
</svg>