<?xml version="1.0" encoding="UTF-8"?><!-- Generator: Adobe Illustrator 12.0.0, SVG Export Plug-In . SVG Version: 6.00 Build 51448)  --><!DOCTYPE svg PUBLIC "-//W3C//DTD SVG 1.1//EN" "http://www.w3.org/Graphics/SVG/1.1/DTD/svg11.dtd">
<svg xmlns="http://www.w3.org/2000/svg" xmlns:xlink="http://www.w3.org/1999/xlink" version="1.1" width="305.833" height="230.27" viewBox="0 0 305.833 230.27" overflow="visible" enable-background="new 0 0 305.833 230.27" xml:space="preserve" preserveAspectRatio="xMidYMid meet" zoomAndPan="magnify" contentScriptType="application/ecmascript" contentStyleType="text/css">
<g id="lines">
	<line fill="none" stroke="#000000" stroke-width="2" x1="104" y1="31.27" x2="104" y2="94.937"/>
	<line fill="none" stroke="#000000" stroke-width="2" stroke-dasharray="12" x1="194.331" y1="92.939" x2="194.334" y2="18.937"/>
	<polyline fill="none" stroke="#000000" stroke-width="2" points="28.667,199.937 92.998,116.272 256.333,197.937  "/>
	<line fill="none" stroke="#000000" stroke-width="2" x1="92.331" y1="119.606" x2="92.331" y2="200.939"/>
	<line fill="none" stroke="#000000" stroke-width="2" x1="94.331" y1="118.272" x2="184.997" y2="200.272"/>
	<g>
		<polyline fill="none" stroke="#FFFFFF" stroke-width="3" stroke-dasharray="12" points="59.665,197.605 204.331,116.939     291.664,197.605   "/>
		
			<line fill="none" stroke="#FFFFFF" stroke-width="3" stroke-dasharray="12" x1="130.331" y1="199.605" x2="202.331" y2="118.272"/>
		
			<line fill="none" stroke="#FFFFFF" stroke-width="3" stroke-dasharray="12" x1="204.331" y1="116.939" x2="204.331" y2="198.939"/>
	</g>
	<g>
		<polyline fill="none" stroke="#000000" stroke-width="2" stroke-dasharray="12" points="59.665,197.605 204.331,116.939     291.667,207.271   "/>
		<line fill="none" stroke="#000000" stroke-width="2" stroke-dasharray="12" x1="119" y1="199.937" x2="202.331" y2="118.272"/>
		
			<line fill="none" stroke="#000000" stroke-width="2" stroke-dasharray="12" x1="204.331" y1="116.939" x2="204.331" y2="198.939"/>
	</g>
</g>
<g id="boxes">
	
		<rect x="88.171" y="13.437" fill="#8C8C8C" stroke="#000000" stroke-width="0.5" stroke-linecap="round" stroke-linejoin="round" width="116.163" height="16.779"/>
	
		<rect x="90.035" y="15.157" fill="none" stroke="#000000" stroke-width="0.5" stroke-linecap="round" stroke-linejoin="round" width="112.435" height="13.48"/>
	<g>
		<path fill="#B2B2B2" stroke="#000000" stroke-width="0.5" stroke-linecap="round" stroke-linejoin="round" d="M92.902,17.595    h18.93v8.031H92.615C92.615,25.626,97.921,22.041,92.902,17.595z"/>
		<path fill="#B2B2B2" stroke="#000000" stroke-width="0.5" stroke-linecap="round" stroke-linejoin="round" d="M199.743,25.77    h-18.93v-8.031h19.217C200.03,17.738,194.725,21.324,199.743,25.77z"/>
		
			<ellipse fill="#B2B2B2" stroke="#000000" stroke-width="0.5" stroke-linecap="round" stroke-linejoin="round" cx="148.761" cy="21.683" rx="7.529" ry="4.374"/>
	</g>
	<polyline fill="#8C8C8C" stroke="#000000" stroke-width="0.5" stroke-linecap="round" stroke-linejoin="round" points="   87.597,30.072 81,25.913 81,15.875 87.597,14.01  "/>
	<polygon fill="#666666" stroke="#000000" stroke-linecap="round" stroke-linejoin="round" points="4.313,215.269 0.5,212.916    0.5,199.529 4.313,196.771 70.032,196.771 70.032,215.107  "/>
	
		<line fill="none" stroke="#000000" stroke-linecap="round" stroke-linejoin="round" x1="4.313" y1="196.771" x2="4.313" y2="215.269"/>
	<path fill="none" stroke="#000000" stroke-linecap="round" stroke-linejoin="round" d="M67.598,212.673v1.541l-60.526-0.243v-1.622   c0,0-2.191-5.437,0.325-12.576v-1.703h59.876v1.46c0,0,2.596,5.111,0.406,12.9"/>
	<path fill="#B2B2B2" stroke="#000000" stroke-width="2" stroke-linecap="round" stroke-linejoin="round" d="M9.668,210.888   c0,0-0.244-6.328,0-7.788c0.243-1.461,0.811-3.246,4.219-3.165c3.408,0.082,25.557,2.109,25.557,2.109l24.583-2.19   c0,0,4.706,5.517,0.406,12.332c0,0-19.634,0.568-27.261-1.217l-23.286,1.461C13.887,212.43,10.398,212.673,9.668,210.888z"/>
	<path fill="none" stroke="#000000" stroke-linecap="round" stroke-linejoin="round" d="M16.24,200.26   c0,0,0.324,10.223,1.055,12.089"/>
	<path fill="none" stroke="#000000" stroke-linecap="round" stroke-linejoin="round" d="M23.705,200.746   c0,0-0.73,7.789,0.568,10.953"/>
	<path fill="none" stroke="#000000" stroke-linecap="round" stroke-linejoin="round" d="M30.195,201.396   c0,0-0.162,8.031,0.162,9.897"/>
	<path fill="none" stroke="#000000" stroke-linecap="round" stroke-linejoin="round" d="M37.01,201.963   c0,0.243-0.244,8.925-0.244,8.925"/>
	<rect x="30.682" y="212.51" stroke="#000000" width="0.892" height="0.649"/>
	<rect x="32.548" y="212.592" stroke="#000000" width="0.893" height="0.649"/>
	<rect x="33.846" y="212.308" stroke="#000000" width="0.893" height="0.73"/>
	<rect x="35.549" y="212.082" stroke="#000000" width="0.893" height="0.776"/>
	<polygon fill="#666666" stroke="#000000" stroke-linecap="round" stroke-linejoin="round" points="82.851,215.269 79.038,212.916    79.038,199.529 82.851,196.771 148.57,196.771 148.57,215.107  "/>
	
		<line fill="none" stroke="#000000" stroke-linecap="round" stroke-linejoin="round" x1="82.851" y1="196.771" x2="82.851" y2="215.269"/>
	<path fill="none" stroke="#000000" stroke-linecap="round" stroke-linejoin="round" d="M146.136,212.673v1.541l-60.526-0.243   v-1.622c0,0-2.191-5.437,0.324-12.576v-1.703h59.876v1.46c0,0,2.597,5.111,0.406,12.9"/>
	<path fill="#B2B2B2" stroke="#000000" stroke-width="2" stroke-linecap="round" stroke-linejoin="round" d="M88.206,210.888   c0,0-0.243-6.328,0-7.788c0.244-1.461,0.812-3.246,4.219-3.165c3.407,0.082,25.557,2.109,25.557,2.109l24.583-2.19   c0,0,4.705,5.517,0.405,12.332c0,0-19.634,0.568-27.261-1.217l-23.285,1.461C92.425,212.43,88.937,212.673,88.206,210.888z"/>
	<path fill="none" stroke="#000000" stroke-linecap="round" stroke-linejoin="round" d="M94.778,200.26   c0,0,0.325,10.223,1.055,12.089"/>
	<path fill="none" stroke="#000000" stroke-linecap="round" stroke-linejoin="round" d="M102.242,200.746   c0,0-0.73,7.789,0.568,10.953"/>
	<path fill="none" stroke="#000000" stroke-linecap="round" stroke-linejoin="round" d="M108.733,201.396   c0,0-0.163,8.031,0.162,9.897"/>
	<path fill="none" stroke="#000000" stroke-linecap="round" stroke-linejoin="round" d="M115.548,201.963   c0,0.243-0.243,8.925-0.243,8.925"/>
	<rect x="109.22" y="212.51" stroke="#000000" width="0.892" height="0.649"/>
	<rect x="111.085" y="212.592" stroke="#000000" width="0.893" height="0.649"/>
	<rect x="112.384" y="212.308" stroke="#000000" width="0.892" height="0.73"/>
	<rect x="114.087" y="212.082" stroke="#000000" width="0.892" height="0.776"/>
	<polygon fill="#666666" stroke="#000000" stroke-linecap="round" stroke-linejoin="round" points="161.077,215.269    157.263,212.916 157.263,199.529 161.077,196.771 226.795,196.771 226.795,215.107  "/>
	
		<line fill="none" stroke="#000000" stroke-linecap="round" stroke-linejoin="round" x1="161.077" y1="196.771" x2="161.077" y2="215.269"/>
	<path fill="none" stroke="#000000" stroke-linecap="round" stroke-linejoin="round" d="M224.361,212.673v1.541l-60.526-0.243   v-1.622c0,0-2.191-5.437,0.325-12.576v-1.703h59.876v1.46c0,0,2.597,5.111,0.406,12.9"/>
	<path fill="#B2B2B2" stroke="#000000" stroke-width="2" stroke-linecap="round" stroke-linejoin="round" d="M166.432,210.888   c0,0-0.243-6.328,0-7.788c0.243-1.461,0.812-3.246,4.22-3.165c3.407,0.082,25.557,2.109,25.557,2.109l24.583-2.19   c0,0,4.706,5.517,0.406,12.332c0,0-19.635,0.568-27.261-1.217l-23.285,1.461C170.651,212.43,167.162,212.673,166.432,210.888z"/>
	<path fill="none" stroke="#000000" stroke-linecap="round" stroke-linejoin="round" d="M173.004,200.26   c0,0,0.324,10.223,1.055,12.089"/>
	<path fill="none" stroke="#000000" stroke-linecap="round" stroke-linejoin="round" d="M180.468,200.746   c0,0-0.73,7.789,0.568,10.953"/>
	<path fill="none" stroke="#000000" stroke-linecap="round" stroke-linejoin="round" d="M186.958,201.396   c0,0-0.161,8.031,0.163,9.897"/>
	<path fill="none" stroke="#000000" stroke-linecap="round" stroke-linejoin="round" d="M193.773,201.963   c0,0.243-0.243,8.925-0.243,8.925"/>
	<rect x="187.445" y="212.51" stroke="#000000" width="0.893" height="0.649"/>
	<rect x="189.312" y="212.592" stroke="#000000" width="0.893" height="0.649"/>
	<rect x="190.609" y="212.308" stroke="#000000" width="0.893" height="0.73"/>
	<rect x="192.313" y="212.082" stroke="#000000" width="0.893" height="0.776"/>
	<polygon fill="#666666" stroke="#000000" stroke-linecap="round" stroke-linejoin="round" points="239.614,215.269    235.802,212.916 235.802,199.529 239.614,196.771 305.333,196.771 305.333,215.107  "/>
	
		<line fill="none" stroke="#000000" stroke-linecap="round" stroke-linejoin="round" x1="239.614" y1="196.771" x2="239.614" y2="215.269"/>
	<path fill="none" stroke="#000000" stroke-linecap="round" stroke-linejoin="round" d="M302.899,212.673v1.541l-60.526-0.243   v-1.622c0,0-2.191-5.437,0.325-12.576v-1.703h59.876v1.46c0,0,2.597,5.111,0.406,12.9"/>
	<path fill="#B2B2B2" stroke="#000000" stroke-width="2" stroke-linecap="round" stroke-linejoin="round" d="M244.97,210.888   c0,0-0.244-6.328,0-7.788c0.243-1.461,0.812-3.246,4.22-3.165c3.407,0.082,25.556,2.109,25.556,2.109l24.584-2.19   c0,0,4.705,5.517,0.405,12.332c0,0-19.634,0.568-27.26-1.217l-23.285,1.461C249.189,212.43,245.699,212.673,244.97,210.888z"/>
	<path fill="none" stroke="#000000" stroke-linecap="round" stroke-linejoin="round" d="M251.541,200.26   c0,0,0.324,10.223,1.056,12.089"/>
	<path fill="none" stroke="#000000" stroke-linecap="round" stroke-linejoin="round" d="M259.005,200.746   c0,0-0.729,7.789,0.568,10.953"/>
	<path fill="none" stroke="#000000" stroke-linecap="round" stroke-linejoin="round" d="M265.496,201.396   c0,0-0.162,8.031,0.162,9.897"/>
	<path fill="none" stroke="#000000" stroke-linecap="round" stroke-linejoin="round" d="M272.312,201.963   c0,0.243-0.243,8.925-0.243,8.925"/>
	<rect x="265.983" y="212.51" stroke="#000000" width="0.893" height="0.649"/>
	<rect x="267.849" y="212.592" stroke="#000000" width="0.894" height="0.649"/>
	<rect x="269.147" y="212.308" stroke="#000000" width="0.892" height="0.73"/>
	<rect x="270.851" y="212.082" stroke="#000000" width="0.893" height="0.776"/>
	
		<rect x="79.24" y="92.604" fill="#B2B2B2" stroke="#000000" stroke-linecap="round" stroke-linejoin="round" width="27.094" height="26.816"/>
	<polyline fill="#B2B2B2" stroke="#000000" stroke-linecap="round" stroke-linejoin="round" points="79.24,92.604 77.167,94.124    77.167,117.9 79.24,119.42  "/>
	
		<ellipse fill="none" stroke="#000000" stroke-width="0.5" stroke-linecap="round" stroke-linejoin="round" cx="92.994" cy="101.07" rx="3.732" ry="0.588"/>
	
		<ellipse fill="none" stroke="#000000" stroke-width="0.5" stroke-linecap="round" stroke-linejoin="round" cx="92.96" cy="101" rx="5.495" ry="1.417"/>
	<path fill="none" stroke="#000000" stroke-width="0.5" stroke-linecap="round" stroke-linejoin="round" d="M93.03,101.864"/>
	<path fill="none" stroke="#000000" stroke-width="0.5" stroke-linecap="round" stroke-linejoin="round" d="M87.535,101v2.281   c0,0.783,2.46,1.417,5.495,1.417s5.495-0.634,5.495-1.417V101"/>
	<path fill="none" stroke="#000000" stroke-width="0.5" stroke-linecap="round" stroke-linejoin="round" d="M92.96,106.771"/>
	<path fill="none" stroke="#000000" stroke-width="0.5" stroke-linecap="round" stroke-linejoin="round" d="M98.455,108.399   c0,0.899-2.46,1.628-5.495,1.628c-3.035,0-5.495-0.729-5.495-1.628"/>
	<path fill="none" stroke="#000000" stroke-width="0.5" stroke-linecap="round" stroke-linejoin="round" d="M88.709,106.841   c-1.106,0.345-1.174,1.558-1.174,1.558v2.62c0,0.899,2.46,1.628,5.495,1.628s5.495-0.729,5.495-1.628v-2.62   c0,0-0.001-0.867-1.107-1.489"/>
	<path fill="none" stroke="#000000" stroke-width="0.5" stroke-linecap="round" stroke-linejoin="round" d="M88.64,104.284   c0,0,3.801,1.245,8.709-0.069v3.663c0,0-3.456,2.833-8.57,0.138L88.64,104.284z"/>
	<path fill="none" stroke="#000000" stroke-width="0.5" stroke-linecap="round" stroke-linejoin="round" d="M97.141,104.076"/>
	<path fill="none" stroke="#000000" stroke-width="0.5" stroke-linecap="round" stroke-linejoin="round" d="M97.141,107.878"/>
	<path fill="#3F3F3F" stroke="#000000" stroke-width="0.5" stroke-linecap="round" stroke-linejoin="round" d="M86.29,97.648v1.659   l-3.249-2.557l2.972-2.074v1.382h3.11c0,0,2.004,0.967,0,1.589H86.29z"/>
	<path fill="#3F3F3F" stroke="#000000" stroke-width="0.5" stroke-linecap="round" stroke-linejoin="round" d="M86.29,115.549v1.659   l-3.249-2.557l2.972-2.073v1.382h3.11c0,0,2.004,0.967,0,1.589H86.29z"/>
	<path fill="#3F3F3F" stroke="#000000" stroke-width="0.5" stroke-linecap="round" stroke-linejoin="round" d="M100.174,114.029   v-1.659l3.249,2.557l-2.972,2.074v-1.382h-3.11c0,0-2.004-0.968,0-1.59H100.174z"/>
	<path fill="#3F3F3F" stroke="#000000" stroke-width="0.5" stroke-linecap="round" stroke-linejoin="round" d="M100.174,96.128   V94.47l3.249,2.557l-2.972,2.074v-1.382h-3.11c0,0-2.004-0.967,0-1.589H100.174z"/>
	
		<rect x="191.906" y="92.604" fill="#B2B2B2" stroke="#000000" stroke-linecap="round" stroke-linejoin="round" width="27.094" height="26.816"/>
	<polyline fill="#B2B2B2" stroke="#000000" stroke-linecap="round" stroke-linejoin="round" points="191.906,92.604 189.834,94.124    189.834,117.9 191.906,119.42  "/>
	<path fill="none" stroke="#000000" stroke-width="0.5" stroke-linecap="round" stroke-linejoin="round" d="M209.393,101.07   c0,0.325-1.672,0.588-3.73,0.588c-2.063,0-3.734-0.263-3.734-0.588c0-0.324,1.672-0.587,3.734-0.587   C207.721,100.482,209.393,100.746,209.393,101.07z"/>
	
		<ellipse fill="none" stroke="#000000" stroke-width="0.5" stroke-linecap="round" stroke-linejoin="round" cx="205.626" cy="101" rx="5.495" ry="1.417"/>
	<path fill="none" stroke="#000000" stroke-width="0.5" stroke-linecap="round" stroke-linejoin="round" d="M205.696,101.864"/>
	<path fill="none" stroke="#000000" stroke-width="0.5" stroke-linecap="round" stroke-linejoin="round" d="M200.201,101v2.281   c0,0.783,2.461,1.417,5.495,1.417s5.495-0.634,5.495-1.417V101"/>
	<path fill="none" stroke="#000000" stroke-width="0.5" stroke-linecap="round" stroke-linejoin="round" d="M205.627,106.771"/>
	<path fill="none" stroke="#000000" stroke-width="0.5" stroke-linecap="round" stroke-linejoin="round" d="M211.121,108.399   c0,0.899-2.459,1.628-5.494,1.628s-5.495-0.729-5.495-1.628"/>
	<path fill="none" stroke="#000000" stroke-width="0.5" stroke-linecap="round" stroke-linejoin="round" d="M201.375,106.841   c-1.105,0.345-1.174,1.558-1.174,1.558v2.62c0,0.899,2.461,1.628,5.495,1.628s5.495-0.729,5.495-1.628v-2.62   c0,0-0.002-0.867-1.107-1.489"/>
	<path fill="none" stroke="#000000" stroke-width="0.5" stroke-linecap="round" stroke-linejoin="round" d="M201.307,104.284   c0,0,3.801,1.245,8.709-0.069v3.663c0,0-3.456,2.833-8.57,0.138L201.307,104.284z"/>
	<path fill="none" stroke="#000000" stroke-width="0.5" stroke-linecap="round" stroke-linejoin="round" d="M209.808,104.076"/>
	<path fill="none" stroke="#000000" stroke-width="0.5" stroke-linecap="round" stroke-linejoin="round" d="M209.808,107.878"/>
	<path fill="#3F3F3F" stroke="#000000" stroke-width="0.5" stroke-linecap="round" stroke-linejoin="round" d="M198.957,97.648   v1.659l-3.249-2.557l2.972-2.074v1.382h3.11c0,0,2.004,0.967,0,1.589H198.957z"/>
	<path fill="#3F3F3F" stroke="#000000" stroke-width="0.5" stroke-linecap="round" stroke-linejoin="round" d="M198.957,115.549   v1.659l-3.249-2.557l2.972-2.073v1.382h3.11c0,0,2.004,0.967,0,1.589H198.957z"/>
	<path fill="#3F3F3F" stroke="#000000" stroke-width="0.5" stroke-linecap="round" stroke-linejoin="round" d="M212.841,114.029   v-1.659l3.249,2.557l-2.973,2.074v-1.382h-3.109c0,0-2.004-0.968,0-1.59H212.841z"/>
	<path fill="#3F3F3F" stroke="#000000" stroke-width="0.5" stroke-linecap="round" stroke-linejoin="round" d="M212.841,96.128   V94.47l3.249,2.557l-2.973,2.074v-1.382h-3.109c0,0-2.004-0.967,0-1.589H212.841z"/>
</g>
<g id="text">
	<rect x="137.332" y="1.27" fill="none" width="29.668" height="10"/>
	<text transform="matrix(1 0 0 1 137.3325 7.731)" font-family="'Helvetica'" font-size="9">Host</text>
	<rect x="40.332" y="102.603" fill="none" width="45.667" height="10"/>
	<text transform="matrix(1 0 0 1 40.3315 109.064)" font-family="'Helvetica'" font-size="9">Switch 1</text>
	<rect x="222.332" y="102.603" fill="none" width="45.667" height="10"/>
	<text transform="matrix(1 0 0 1 222.332 109.064)" font-family="'Helvetica'" font-size="9">Switch 2</text>
	<rect x="15.667" y="219.937" fill="none" width="40.333" height="10.333"/>
	<text transform="matrix(1 0 0 1 15.6665 226.3984)" font-family="'Helvetica'" font-size="9">Node 01</text>
	<rect x="97" y="219.937" fill="none" width="40.333" height="10.333"/>
	<text transform="matrix(1 0 0 1 97 226.3984)" font-family="'Helvetica'" font-size="9">Node 02</text>
	<rect x="178.334" y="219.937" fill="none" width="40.332" height="10.333"/>
	<text transform="matrix(1 0 0 1 178.334 226.3984)" font-family="'Helvetica'" font-size="9">Node 03</text>
	<rect x="257.668" y="219.937" fill="none" width="40.332" height="10.333"/>
	<text transform="matrix(1 0 0 1 257.667 226.3984)" font-family="'Helvetica'" font-size="9">Node 04</text>
	<rect x="76.667" y="35.603" fill="none" width="26.667" height="9.667"/>
	<text transform="matrix(1 0 0 1 76.6665 41.3467)" font-family="'Helvetica'" font-size="8">HBA 0</text>
	<rect x="198.001" y="34.937" fill="none" width="26.666" height="9.667"/>
	<text transform="matrix(1 0 0 1 198 40.6807)" font-family="'Helvetica'" font-size="8">HBA 1</text>
	<rect x="7.334" y="185.604" fill="none" width="23.333" height="8.667"/>
	<text transform="matrix(1 0 0 1 7.334 191.3486)" font-family="'Helvetica'" font-size="8">LIF_1</text>
	<rect x="43.001" y="185.604" fill="none" width="23.333" height="8.667"/>
	<text transform="matrix(1 0 0 1 43.001 191.3486)" font-family="'Helvetica'" font-size="8">LIF_2</text>
	<rect x="95.999" y="185.604" fill="none" width="23.334" height="8.667"/>
	<text transform="matrix(1 0 0 1 95.9995 191.3486)" font-family="'Helvetica'" font-size="8">LIF_3</text>
	<rect x="138" y="185.604" fill="none" width="23.333" height="8.667"/>
	<text transform="matrix(1 0 0 1 138.001 191.3486)" font-family="'Helvetica'" font-size="8">LIF_4</text>
	<rect x="177.668" y="185.604" fill="none" width="23.333" height="8.667"/>
	<text transform="matrix(1 0 0 1 177.668 191.3486)" font-family="'Helvetica'" font-size="8">LIF_5</text>
	<rect x="208.002" y="185.604" fill="none" width="23.333" height="8.667"/>
	<text transform="matrix(1 0 0 1 208.002 191.3486)" font-family="'Helvetica'" font-size="8">LIF_6</text>
	<rect x="246.002" y="185.604" fill="none" width="23.333" height="8.667"/>
	<text transform="matrix(1 0 0 1 246.002 191.3486)" font-family="'Helvetica'" font-size="8">LIF_7</text>
	<rect x="280.669" y="185.604" fill="none" width="23.333" height="8.667"/>
	<text transform="matrix(1 0 0 1 280.6689 191.3486)" font-family="'Helvetica'" font-size="8">LIF_8</text>
</g>
</svg>