<?xml version="1.0" encoding="UTF-8"?><!-- Generator: Adobe Illustrator 16.0.3, SVG Export Plug-In . SVG Version: 6.00 Build 0)  --><!DOCTYPE svg PUBLIC "-//W3C//DTD SVG 1.1//EN" "http://www.w3.org/Graphics/SVG/1.1/DTD/svg11.dtd">
<svg xmlns="http://www.w3.org/2000/svg" xmlns:xlink="http://www.w3.org/1999/xlink" version="1.1" x="0px" y="0px" width="350px" height="251.708px" viewBox="0 0 350 251.708" enable-background="new 0 0 350 251.708" xml:space="preserve" preserveAspectRatio="xMidYMid meet" zoomAndPan="magnify" contentScriptType="application/ecmascript" contentStyleType="text/css">
<g id="Guide">
	<polyline fill="none" stroke="#000000" stroke-width="0.5" stroke-miterlimit="10" points="69.788,51.408 69.788,68.972    133.381,68.972 133.381,81.362  "/>
	<polyline fill="none" stroke="#000000" stroke-width="0.5" stroke-miterlimit="10" points="283.211,51.408 283.211,66.992    206.68,66.992 206.68,79.376  "/>
	<polyline fill="none" stroke="#000000" stroke-width="0.5" stroke-miterlimit="10" points="293.211,52.042 293.211,71.472    216.68,71.472 216.68,82.011  "/>
	
		<line fill="none" stroke="#000000" stroke-width="0.5" stroke-miterlimit="10" x1="153.259" y1="79.822" x2="153.209" y2="51.018"/>
	<line fill="none" stroke="#000000" stroke-width="0.5" stroke-miterlimit="10" x1="180.28" y1="79.822" x2="180.23" y2="51.018"/>
	<g>
		<g>
			<polyline fill="#878E94" points="236.846,111.728 114.543,111.728 114.543,89.47 236.846,89.47 236.846,111.728    "/>
			<polygon fill="none" stroke="#FFFFFF" stroke-width="0.5" points="236.846,111.728 114.543,111.728 114.543,89.47 236.846,89.47      236.846,111.728    "/>
			<polyline fill="#B3B7BE" points="236.846,89.47 114.543,89.47 128.901,79.404 222.488,79.404 236.846,89.47    "/>
		</g>
		<path fill="#FFFFFF" d="M185.918,94.954c0,1.46-4.482,2.642-10.012,2.642c-5.531,0-10.014-1.182-10.014-2.642    c0-1.459,4.482-2.641,10.014-2.641C181.436,92.313,185.918,93.494,185.918,94.954"/>
		<path fill="#FFFFFF" d="M165.893,95.329v10.92c0,1.457,4.482,2.641,10.014,2.641c5.529,0,10.012-1.185,10.012-2.641V94.954"/>
		<path fill="none" stroke="#B3B7BE" stroke-width="0.5" d="M165.893,95.329v10.92c0,1.457,4.482,2.641,10.014,2.641    c5.529,0,10.012-1.185,10.012-2.641V94.954 M185.918,94.954c0,1.46-4.482,2.642-10.012,2.642c-5.531,0-10.014-1.182-10.014-2.642    c0-1.459,4.482-2.641,10.014-2.641C181.436,92.313,185.918,93.494,185.918,94.954L185.918,94.954z"/>
		<polyline fill="#FFFFFF" points="219.363,95.598 209.19,93.666 209.19,95.154 194.351,95.154 194.351,96.435 209.19,96.435     209.19,97.851 219.363,95.721 219.363,95.598   "/>
		<polyline fill="#FFFFFF" points="219.363,105.185 209.19,103.25 209.19,104.739 194.351,104.739 194.351,106.014 209.19,106.014     209.19,107.436 219.363,105.301 219.363,105.185   "/>
		<polyline fill="#FFFFFF" points="132.031,105.599 142.199,107.533 142.199,106.044 157.039,106.044 157.039,104.769     142.199,104.769 142.199,103.349 132.031,105.482 132.031,105.599   "/>
		<polyline fill="#FFFFFF" points="132.031,96.014 142.199,97.947 142.199,96.458 157.039,96.458 157.039,95.184 142.199,95.184     142.199,93.762 132.031,95.896 132.031,96.014   "/>
	</g>
	<g>
		<g>
			<polyline fill="#949494" points="92.603,34.153 5.121,34.153 5.121,28.441 92.603,28.44 92.603,34.153    "/>
			<polyline fill="#464646" points="92.603,40.01 5.121,40.01 5.121,34.297 92.603,34.297 92.603,40.01    "/>
			<polyline fill="#949494" points="92.603,45.781 5.121,45.781 5.121,40.069 92.603,40.069 92.603,45.781    "/>
			<polyline fill="#464646" points="92.603,51.638 5.121,51.638 5.121,45.925 92.603,45.925 92.603,51.638    "/>
			<g>
				<polyline fill="#B3B7BE" points="92.603,17.407 5.121,17.407 9.614,12.935 88.109,12.935 92.603,17.407     "/>
				<path fill="#444B4C" d="M90.339,26.734c-1.75,0-3.164-1.42-3.164-3.169c0-1.752,1.414-3.169,3.164-3.169V26.734"/>
				<polyline fill="#464646" points="92.603,27.688 5.121,27.688 5.121,17.407 92.603,17.407 92.603,27.688     "/>
				<polyline fill="#949494" points="88.332,25.886 9.172,25.886 9.172,19.547 88.332,19.547 88.332,25.886     "/>
				<ellipse fill="#FFFFFF" cx="88.247" cy="22.739" rx="1.44" ry="1.062"/>
			</g>
			<rect x="45.551" y="29.485" fill="#FFFFFF" width="14.232" height="0.595"/>
			<ellipse fill="#FFFFFF" cx="58.724" cy="32.286" rx="1.482" ry="1.019"/>
			<rect x="45.551" y="35.427" fill="#FFFFFF" width="14.232" height="0.594"/>
			<ellipse fill="#FFFFFF" cx="58.724" cy="38.228" rx="1.482" ry="1.019"/>
			<rect x="74.1" y="35.427" fill="#FFFFFF" width="14.232" height="0.594"/>
			<ellipse fill="#FFFFFF" cx="87.273" cy="38.228" rx="1.482" ry="1.019"/>
			<ellipse fill="#FFFFFF" cx="87.273" cy="44.168" rx="1.482" ry="1.019"/>
			<rect x="74.1" y="47.309" fill="#FFFFFF" width="14.232" height="0.594"/>
			<ellipse fill="#FFFFFF" cx="87.273" cy="50.11" rx="1.482" ry="1.019"/>
			<rect x="45.551" y="41.368" fill="#FFFFFF" width="14.232" height="0.594"/>
			<ellipse fill="#FFFFFF" cx="58.724" cy="44.169" rx="1.482" ry="1.019"/>
			<rect x="45.551" y="47.31" fill="#FFFFFF" width="14.232" height="0.594"/>
			<ellipse fill="#FFFFFF" cx="58.724" cy="50.11" rx="1.482" ry="1.019"/>
			<ellipse fill="#FFFFFF" cx="87.104" cy="32.286" rx="1.482" ry="1.019"/>
			<line fill="#FFFFFF" stroke="#FFFFFF" x1="63.596" y1="28.127" x2="63.596" y2="52.062"/>
		</g>
		<g>
			<polyline fill="#949494" points="201.928,34.153 114.445,34.153 114.445,28.44 201.928,28.44 201.928,34.153    "/>
			<polyline fill="#464646" points="201.928,40.01 114.445,40.01 114.445,34.297 201.928,34.297 201.928,40.01    "/>
			<polyline fill="#949494" points="201.928,45.781 114.445,45.781 114.445,40.069 201.928,40.069 201.928,45.781    "/>
			<polyline fill="#464646" points="201.928,51.638 114.445,51.638 114.445,45.925 201.928,45.925 201.928,51.638    "/>
			<g>
				<polyline fill="#B3B7BE" points="201.928,17.407 114.445,17.407 118.938,12.935 197.434,12.935 201.928,17.407     "/>
				<path fill="#444B4C" d="M199.664,26.734c-1.75,0-3.165-1.42-3.165-3.169c0-1.752,1.414-3.169,3.165-3.169V26.734"/>
				<polyline fill="#464646" points="201.928,27.688 114.445,27.688 114.445,17.407 201.928,17.407 201.928,27.688     "/>
				<polyline fill="#949494" points="197.657,25.886 118.496,25.886 118.496,19.547 197.657,19.547 197.657,25.886     "/>
				<ellipse fill="#FFFFFF" cx="197.572" cy="22.739" rx="1.44" ry="1.062"/>
			</g>
			<rect x="154.875" y="29.485" fill="#FFFFFF" width="14.232" height="0.595"/>
			<ellipse fill="#FFFFFF" cx="168.049" cy="32.286" rx="1.482" ry="1.019"/>
			<rect x="154.875" y="35.426" fill="#FFFFFF" width="14.232" height="0.595"/>
			<ellipse fill="#FFFFFF" cx="168.049" cy="38.228" rx="1.482" ry="1.019"/>
			<rect x="183.425" y="35.426" fill="#FFFFFF" width="14.232" height="0.595"/>
			<ellipse fill="#FFFFFF" cx="196.599" cy="38.228" rx="1.482" ry="1.019"/>
			<ellipse fill="#FFFFFF" cx="196.599" cy="44.168" rx="1.482" ry="1.019"/>
			<rect x="183.425" y="47.309" fill="#FFFFFF" width="14.232" height="0.594"/>
			<ellipse fill="#FFFFFF" cx="196.599" cy="50.11" rx="1.482" ry="1.019"/>
			<rect x="154.875" y="41.368" fill="#FFFFFF" width="14.232" height="0.594"/>
			<ellipse fill="#FFFFFF" cx="168.049" cy="44.169" rx="1.482" ry="1.019"/>
			<rect x="154.875" y="47.31" fill="#FFFFFF" width="14.232" height="0.594"/>
			<ellipse fill="#FFFFFF" cx="168.049" cy="50.11" rx="1.482" ry="1.019"/>
			<ellipse fill="#FFFFFF" cx="196.429" cy="32.286" rx="1.482" ry="1.019"/>
			<line fill="#FFFFFF" stroke="#FFFFFF" x1="172.92" y1="28.127" x2="172.92" y2="52.062"/>
		</g>
		<g>
			<polyline fill="#949494" points="346.268,34.153 258.785,34.153 258.785,28.44 346.268,28.44 346.268,34.153    "/>
			<polyline fill="#464646" points="346.268,40.01 258.785,40.01 258.785,34.297 346.268,34.297 346.268,40.01    "/>
			<polyline fill="#949494" points="346.268,45.781 258.785,45.781 258.785,40.069 346.268,40.069 346.268,45.781    "/>
			<polyline fill="#464646" points="346.268,51.638 258.785,51.638 258.785,45.925 346.268,45.925 346.268,51.638    "/>
			<g>
				<polyline fill="#B3B7BE" points="346.268,17.407 258.785,17.407 263.279,12.935 341.775,12.935 346.268,17.407     "/>
				<path fill="#444B4C" d="M344.004,26.734c-1.75,0-3.164-1.42-3.164-3.169c0-1.752,1.414-3.169,3.164-3.169V26.734"/>
				<polyline fill="#464646" points="346.268,27.688 258.785,27.688 258.785,17.407 346.268,17.407 346.268,27.688     "/>
				<polyline fill="#949494" points="341.998,25.886 262.838,25.886 262.838,19.547 341.998,19.547 341.998,25.886     "/>
				<ellipse fill="#FFFFFF" cx="341.912" cy="22.739" rx="1.439" ry="1.062"/>
			</g>
			<rect x="299.215" y="29.485" fill="#FFFFFF" width="14.232" height="0.595"/>
			<ellipse fill="#FFFFFF" cx="312.389" cy="32.286" rx="1.482" ry="1.019"/>
			<rect x="299.215" y="35.426" fill="#FFFFFF" width="14.232" height="0.595"/>
			<ellipse fill="#FFFFFF" cx="312.389" cy="38.228" rx="1.482" ry="1.019"/>
			<rect x="327.766" y="35.426" fill="#FFFFFF" width="14.232" height="0.595"/>
			<ellipse fill="#FFFFFF" cx="340.939" cy="38.228" rx="1.482" ry="1.019"/>
			<ellipse fill="#FFFFFF" cx="340.939" cy="44.168" rx="1.482" ry="1.019"/>
			<rect x="327.766" y="47.309" fill="#FFFFFF" width="14.232" height="0.594"/>
			<ellipse fill="#FFFFFF" cx="340.939" cy="50.11" rx="1.482" ry="1.019"/>
			<rect x="299.215" y="41.368" fill="#FFFFFF" width="14.232" height="0.594"/>
			<ellipse fill="#FFFFFF" cx="312.389" cy="44.169" rx="1.482" ry="1.019"/>
			<rect x="299.215" y="47.31" fill="#FFFFFF" width="14.232" height="0.594"/>
			<ellipse fill="#FFFFFF" cx="312.389" cy="50.11" rx="1.482" ry="1.019"/>
			<ellipse fill="#FFFFFF" cx="340.771" cy="32.286" rx="1.482" ry="1.019"/>
			<line fill="#FFFFFF" stroke="#FFFFFF" x1="317.262" y1="28.127" x2="317.262" y2="52.062"/>
		</g>
		<text transform="matrix(0.9981 0 0 1 9.8335 9.7705)" font-family="'HelveticaNeue-Roman'" font-size="9">Host 1</text>
		<text transform="matrix(0.9981 0 0 1 118.9702 9.7705)" font-family="'HelveticaNeue-Roman'" font-size="9">Host 2</text>
		<text transform="matrix(0.9981 0 0 1 262.9604 9.7705)" font-family="'HelveticaNeue-Roman'" font-size="9">Host N</text>
		<g>
			<rect x="221.83" y="49.762" width="2.549" height="2.554"/>
			<rect x="233.302" y="49.762" width="2.55" height="2.554"/>
			<rect x="227.565" y="49.762" width="2.549" height="2.554"/>
		</g>
	</g>
</g>
<g id="box_x5F_outline">
	
		<rect x="123.728" y="173.375" fill="#3F3F3F" stroke="#3F3F3F" stroke-width="0.5" stroke-linecap="round" stroke-linejoin="round" width="106.771" height="61.667"/>
	
		<rect x="124.616" y="175.002" fill="#B2B2B2" stroke="#FFFFFF" stroke-width="0.5" stroke-linecap="round" stroke-linejoin="round" width="9.612" height="29.133"/>
	
		<rect x="124.616" y="205.615" fill="#B2B2B2" stroke="#FFFFFF" stroke-width="0.5" stroke-linecap="round" stroke-linejoin="round" width="9.612" height="28.541"/>
	
		<rect x="135.707" y="175.002" fill="#8C8C8C" stroke="#FFFFFF" stroke-width="0.5" stroke-linecap="round" stroke-linejoin="round" width="93.462" height="29.133"/>
	
		<rect x="135.707" y="205.319" fill="#B2B2B2" stroke="#FFFFFF" stroke-width="0.5" stroke-linecap="round" stroke-linejoin="round" width="93.462" height="29.133"/>
	<g>
		<path fill="none" stroke="#000000" stroke-width="0.5" stroke-linecap="round" stroke-linejoin="round" d="M128.404,196.028    c0,0-0.107-0.744,0.638-0.744s1.447,0,1.447,0s0.425-0.107,0.851,0.213c0.425,0.319,0.51,0.638,0.51,0.638    s0.276,0.447,0.276,0.702s0.107,2.596,0.107,2.596s-0.128,0.446-0.277,0.702c-0.149,0.255-0.404,0.531-0.404,0.531    s-0.49,0.319-0.703,0.319c-0.212,0-1.638,0-1.638,0s-0.617-0.234-0.66-0.702c-0.042-0.469-0.148-4.191-0.148-4.191"/>
		
			<rect x="129.829" y="196.411" fill="none" stroke="#000000" stroke-width="0.5" stroke-linecap="round" stroke-linejoin="round" width="0.745" height="0.298"/>
		
			<rect x="130.531" y="197.943" fill="none" stroke="#000000" stroke-width="0.5" stroke-linecap="round" stroke-linejoin="round" width="0.745" height="0.425"/>
		
			<rect x="129.892" y="199.644" fill="none" stroke="#000000" stroke-width="0.5" stroke-linecap="round" stroke-linejoin="round" width="0.639" height="0.276"/>
		
			<rect x="127.869" y="194.523" fill="none" stroke="#000000" stroke-width="0.5" stroke-linecap="round" stroke-linejoin="round" width="5.472" height="7.542"/>
		<path fill="none" stroke="#000000" stroke-width="0.5" stroke-linecap="round" stroke-linejoin="round" d="M128.404,225.901    c0,0-0.107-0.745,0.638-0.745s1.447,0,1.447,0s0.425-0.107,0.851,0.213c0.425,0.319,0.51,0.638,0.51,0.638    s0.276,0.447,0.276,0.702c0,0.256,0.107,2.596,0.107,2.596s-0.128,0.446-0.277,0.702c-0.149,0.255-0.404,0.531-0.404,0.531    s-0.49,0.319-0.703,0.319c-0.212,0-1.638,0-1.638,0s-0.617-0.234-0.66-0.702c-0.042-0.469-0.148-4.19-0.148-4.19"/>
		
			<rect x="129.829" y="226.283" fill="none" stroke="#000000" stroke-width="0.5" stroke-linecap="round" stroke-linejoin="round" width="0.745" height="0.298"/>
		
			<rect x="130.531" y="227.815" fill="none" stroke="#000000" stroke-width="0.5" stroke-linecap="round" stroke-linejoin="round" width="0.745" height="0.426"/>
		
			<rect x="129.892" y="229.516" fill="none" stroke="#000000" stroke-width="0.5" stroke-linecap="round" stroke-linejoin="round" width="0.639" height="0.276"/>
		
			<rect x="127.869" y="224.395" fill="none" stroke="#000000" stroke-width="0.5" stroke-linecap="round" stroke-linejoin="round" width="5.472" height="7.543"/>
	</g>
	
		<rect x="136.89" y="175.742" fill="#B2B2B2" stroke="#FFFFFF" stroke-width="0.5" stroke-linecap="round" stroke-linejoin="round" width="90.8" height="27.21"/>
	
		<rect x="136.89" y="206.242" fill="#B2B2B2" stroke="#FFFFFF" stroke-width="0.5" stroke-linecap="round" stroke-linejoin="round" width="90.8" height="27.21"/>
	
		<rect x="140.143" y="196.742" fill="#FFFFFF" stroke="#000000" stroke-width="0.5" stroke-linecap="round" stroke-linejoin="round" width="53.261" height="5.471"/>
	
		<line fill="none" stroke="#000000" stroke-width="0.5" stroke-linecap="round" stroke-linejoin="round" x1="193.381" y1="175.593" x2="193.381" y2="202.065"/>
	
		<rect x="198.409" y="177.369" fill="#8C8C8C" stroke="#FFFFFF" stroke-width="0.5" stroke-linecap="round" stroke-linejoin="round" width="24.105" height="3.4"/>
	
		<rect x="198.409" y="184.249" fill="#8C8C8C" stroke="#FFFFFF" stroke-width="0.5" stroke-linecap="round" stroke-linejoin="round" width="23.957" height="3.549"/>
	
		<rect x="198.409" y="190.981" fill="#8C8C8C" stroke="#FFFFFF" stroke-width="0.5" stroke-linecap="round" stroke-linejoin="round" width="24.105" height="3.401"/>
	
		<rect x="198.409" y="197.305" fill="#8C8C8C" stroke="#FFFFFF" stroke-width="0.5" stroke-linecap="round" stroke-linejoin="round" width="23.957" height="3.549"/>
	
		<rect x="198.409" y="207.869" fill="#8C8C8C" stroke="#FFFFFF" stroke-width="0.5" stroke-linecap="round" stroke-linejoin="round" width="24.105" height="3.4"/>
	
		<rect x="198.409" y="214.749" fill="#8C8C8C" stroke="#FFFFFF" stroke-width="0.5" stroke-linecap="round" stroke-linejoin="round" width="23.957" height="3.549"/>
	
		<rect x="198.409" y="221.481" fill="#8C8C8C" stroke="#FFFFFF" stroke-width="0.5" stroke-linecap="round" stroke-linejoin="round" width="24.105" height="3.401"/>
	
		<rect x="198.409" y="227.805" fill="#8C8C8C" stroke="#FFFFFF" stroke-width="0.5" stroke-linecap="round" stroke-linejoin="round" width="23.957" height="3.549"/>
	<path fill="#FFFFFF" stroke="#000000" stroke-width="0.5" stroke-linecap="round" stroke-linejoin="round" d="M167.963,175.604   v4.638c0,0,0.298,0.681,1.361,0.681c1.064,0,10.339,0,10.339,0s1.107,0.171,1.192-0.893c0.085-1.064,0-4.426,0-4.426"/>
	<path fill="#FFFFFF" stroke="#000000" stroke-width="0.5" stroke-linecap="round" stroke-linejoin="round" d="M172.515,180.965   v6.882c0,1.568,1.305,2.84,2.915,2.84c1.61,0,2.915-1.271,2.915-2.84v-6.882"/>
	
		<ellipse fill="none" stroke="#000000" stroke-width="0.5" stroke-linecap="round" stroke-linejoin="round" cx="175.26" cy="187.624" rx="1.532" ry="1.554"/>
	
		<line fill="none" stroke="#000000" stroke-width="0.5" stroke-linecap="round" stroke-linejoin="round" x1="169.991" y1="176.739" x2="179.068" y2="176.739"/>
	
		<line fill="none" stroke="#000000" stroke-width="0.5" stroke-linecap="round" stroke-linejoin="round" x1="169.991" y1="177.703" x2="179.068" y2="177.703"/>
	
		<line fill="none" stroke="#000000" stroke-width="0.5" stroke-linecap="round" stroke-linejoin="round" x1="169.991" y1="178.667" x2="179.068" y2="178.667"/>
	
		<line fill="none" stroke="#000000" stroke-width="0.5" stroke-linecap="round" stroke-linejoin="round" x1="169.991" y1="179.631" x2="179.068" y2="179.631"/>
	
		<rect x="140.143" y="226.909" fill="#FFFFFF" stroke="#000000" stroke-width="0.5" stroke-linecap="round" stroke-linejoin="round" width="53.011" height="5.471"/>
	
		<line fill="none" stroke="#000000" stroke-width="0.5" stroke-linecap="round" stroke-linejoin="round" x1="193.381" y1="205.76" x2="193.381" y2="232.232"/>
	<path fill="#FFFFFF" stroke="#000000" stroke-width="0.5" stroke-linecap="round" stroke-linejoin="round" d="M167.963,205.771   v4.638c0,0,0.298,0.681,1.361,0.681c1.064,0,10.339,0,10.339,0s1.107,0.171,1.192-0.893c0.085-1.064,0-4.426,0-4.426"/>
	<path fill="#FFFFFF" stroke="#000000" stroke-width="0.5" stroke-linecap="round" stroke-linejoin="round" d="M172.515,211.132   v6.882c0,1.568,1.305,2.84,2.915,2.84c1.61,0,2.915-1.271,2.915-2.84v-6.882"/>
	
		<ellipse fill="none" stroke="#000000" stroke-width="0.5" stroke-linecap="round" stroke-linejoin="round" cx="175.26" cy="217.791" rx="1.532" ry="1.554"/>
	
		<line fill="none" stroke="#000000" stroke-width="0.5" stroke-linecap="round" stroke-linejoin="round" x1="169.991" y1="206.906" x2="179.068" y2="206.906"/>
	
		<line fill="none" stroke="#000000" stroke-width="0.5" stroke-linecap="round" stroke-linejoin="round" x1="169.991" y1="207.87" x2="179.068" y2="207.87"/>
	
		<line fill="none" stroke="#000000" stroke-width="0.5" stroke-linecap="round" stroke-linejoin="round" x1="169.991" y1="208.834" x2="179.068" y2="208.834"/>
	
		<line fill="none" stroke="#000000" stroke-width="0.5" stroke-linecap="round" stroke-linejoin="round" x1="169.991" y1="209.798" x2="179.068" y2="209.798"/>
	<rect x="152.062" y="160.709" fill="none" width="48.667" height="12"/>
	<text transform="matrix(1 0 0 1 152.0615 167.1709)" font-family="'Helvetica'" font-size="9">Controller 1</text>
	<rect x="152.062" y="239.708" fill="none" width="48.667" height="12"/>
	<text transform="matrix(1 0 0 1 152.0615 246.1709)" font-family="'Helvetica'" font-size="9">Controller 2</text>
	<rect x="129.062" y="116.709" fill="none" width="90.667" height="10"/>
	<text transform="matrix(1 0 0 1 133.6343 123.1709)" font-family="'Helvetica'" font-size="9">Single Switch/Fabric</text>
	<rect x="246.52" y="154.042" fill="none" width="12.25" height="8.75"/>
	<text transform="matrix(1 0 0 1 246.5195 160.5044)" font-family="'Helvetica'" font-size="9">0a</text>
	<rect x="262.02" y="154.042" fill="none" width="12.25" height="8.75"/>
	<text transform="matrix(1 0 0 1 262.0195 160.5044)" font-family="'Helvetica'" font-size="9">0c</text>
	<rect x="78.853" y="154.042" fill="none" width="12.25" height="8.75"/>
	<text transform="matrix(1 0 0 1 78.8525 160.5044)" font-family="'Helvetica'" font-size="9">0a</text>
	<rect x="94.353" y="154.042" fill="none" width="12.25" height="8.75"/>
	<text transform="matrix(1 0 0 1 94.3525 160.5044)" font-family="'Helvetica'" font-size="9">0c</text>
	<g>
		
			<polyline fill="none" stroke="#000000" stroke-width="0.5" stroke-linecap="round" stroke-linejoin="round" stroke-miterlimit="10" points="    236.645,109.042 245.395,109.042 245.395,190.792 230.645,190.792   "/>
		
			<polyline fill="none" stroke="#000000" stroke-width="0.5" stroke-linecap="round" stroke-linejoin="round" stroke-miterlimit="10" points="    236.645,105.292 259.145,105.292 259.145,194.542 229.895,194.542   "/>
	</g>
	
		<polyline fill="none" stroke="#000000" stroke-width="0.5" stroke-linecap="round" stroke-linejoin="round" stroke-miterlimit="10" points="   114.395,109.053 105.645,109.053 105.645,219.532 123.728,219.532  "/>
	
		<polyline fill="none" stroke="#000000" stroke-width="0.5" stroke-linecap="round" stroke-linejoin="round" stroke-miterlimit="10" points="   114.645,105.292 91.895,105.292 91.895,224.542 123.478,224.542  "/>
</g>
</svg>