<?xml version="1.0" encoding="UTF-8"?><!-- Generator: Adobe Illustrator 12.0.1, SVG Export Plug-In . SVG Version: 6.00 Build 51448)  --><!DOCTYPE svg PUBLIC "-//W3C//DTD SVG 1.1//EN" "http://www.w3.org/Graphics/SVG/1.1/DTD/svg11.dtd">
<svg xmlns="http://www.w3.org/2000/svg" xmlns:xlink="http://www.w3.org/1999/xlink" version="1.1" width="341.147" height="223.069" viewBox="0 0 341.147 223.069" overflow="visible" enable-background="new 0 0 341.147 223.069" xml:space="preserve" preserveAspectRatio="xMidYMid meet" zoomAndPan="magnify" contentScriptType="application/ecmascript" contentStyleType="text/css">
<g id="Guide">
	<g>
		<g>
			<polyline fill="#878E94" points="157.725,109.67 35.423,109.67 35.423,87.413 157.725,87.413 157.725,109.67    "/>
			<polygon fill="none" stroke="#FFFFFF" stroke-width="0.5" points="157.725,109.67 35.423,109.67 35.423,87.413 157.725,87.413      157.725,109.67    "/>
			<polyline fill="#B3B7BE" points="157.725,87.413 35.423,87.413 49.78,77.346 143.367,77.346 157.725,87.413    "/>
		</g>
		<path fill="#FFFFFF" d="M106.798,92.896c0,1.46-4.482,2.642-10.012,2.642c-5.531,0-10.014-1.182-10.014-2.642    c0-1.459,4.482-2.641,10.014-2.641C102.315,90.255,106.798,91.437,106.798,92.896"/>
		<path fill="#FFFFFF" d="M86.772,93.271v10.92c0,1.457,4.482,2.641,10.014,2.641c5.529,0,10.012-1.185,10.012-2.641V92.896"/>
		<path fill="none" stroke="#B3B7BE" stroke-width="0.5" d="M86.772,93.271v10.92c0,1.457,4.482,2.641,10.014,2.641    c5.529,0,10.012-1.185,10.012-2.641V92.896 M106.798,92.896c0,1.46-4.482,2.642-10.012,2.642c-5.531,0-10.014-1.182-10.014-2.642    c0-1.459,4.482-2.641,10.014-2.641C102.315,90.255,106.798,91.437,106.798,92.896L106.798,92.896z"/>
		<polyline fill="#FFFFFF" points="140.242,93.541 130.069,91.608 130.069,93.097 115.23,93.097 115.23,94.377 130.069,94.377     130.069,95.793 140.242,93.663 140.242,93.541   "/>
		<polyline fill="#FFFFFF" points="140.242,103.127 130.069,101.193 130.069,102.682 115.23,102.682 115.23,103.956     130.069,103.956 130.069,105.378 140.242,103.244 140.242,103.127   "/>
		<polyline fill="#FFFFFF" points="52.91,103.542 63.078,105.476 63.078,103.986 77.918,103.986 77.918,102.711 63.078,102.711     63.078,101.292 52.91,103.425 52.91,103.542   "/>
		<polyline fill="#FFFFFF" points="52.91,93.956 63.078,95.89 63.078,94.401 77.918,94.401 77.918,93.126 63.078,93.126     63.078,91.705 52.91,93.838 52.91,93.956   "/>
	</g>
	<g>
		<g>
			<polyline fill="#878E94" points="308.725,109.67 186.423,109.67 186.423,87.413 308.725,87.413 308.725,109.67    "/>
			<polygon fill="none" stroke="#FFFFFF" stroke-width="0.5" points="308.725,109.67 186.423,109.67 186.423,87.413 308.725,87.413      308.725,109.67    "/>
			<polyline fill="#B3B7BE" points="308.725,87.413 186.423,87.413 200.78,77.346 294.368,77.346 308.725,87.413    "/>
		</g>
		<path fill="#FFFFFF" d="M257.797,92.896c0,1.46-4.482,2.642-10.012,2.642c-5.531,0-10.013-1.182-10.013-2.642    c0-1.459,4.482-2.641,10.013-2.641C253.315,90.255,257.797,91.437,257.797,92.896"/>
		<path fill="#FFFFFF" d="M237.772,93.271v10.92c0,1.457,4.482,2.641,10.013,2.641c5.529,0,10.012-1.185,10.012-2.641V92.896"/>
		<path fill="none" stroke="#B3B7BE" stroke-width="0.5" d="M237.772,93.271v10.92c0,1.457,4.482,2.641,10.013,2.641    c5.529,0,10.012-1.185,10.012-2.641V92.896 M257.797,92.896c0,1.46-4.482,2.642-10.012,2.642c-5.531,0-10.013-1.182-10.013-2.642    c0-1.459,4.482-2.641,10.013-2.641C253.315,90.255,257.797,91.437,257.797,92.896L257.797,92.896z"/>
		<polyline fill="#FFFFFF" points="291.243,93.541 281.069,91.608 281.069,93.097 266.231,93.097 266.231,94.377 281.069,94.377     281.069,95.793 291.243,93.663 291.243,93.541   "/>
		<polyline fill="#FFFFFF" points="291.243,103.127 281.069,101.193 281.069,102.682 266.231,102.682 266.231,103.956     281.069,103.956 281.069,105.378 291.243,103.244 291.243,103.127   "/>
		<polyline fill="#FFFFFF" points="203.91,103.542 214.078,105.476 214.078,103.986 228.918,103.986 228.918,102.711     214.078,102.711 214.078,101.292 203.91,103.425 203.91,103.542   "/>
		<polyline fill="#FFFFFF" points="203.91,93.956 214.078,95.89 214.078,94.401 228.918,94.401 228.918,93.126 214.078,93.126     214.078,91.705 203.91,93.838 203.91,93.956   "/>
	</g>
	<g>
		<g>
			<polyline fill="#949494" points="87.482,32.096 0,32.096 0,26.383 87.482,26.383 87.482,32.096    "/>
			<polyline fill="#464646" points="87.482,37.952 0,37.952 0,32.239 87.482,32.239 87.482,37.952    "/>
			<polyline fill="#949494" points="87.482,43.724 0,43.724 0,38.011 87.482,38.011 87.482,43.724    "/>
			<polyline fill="#464646" points="87.482,49.58 0,49.58 0,43.867 87.482,43.867 87.482,49.58    "/>
			<g>
				<polyline fill="#B3B7BE" points="87.482,15.349 0,15.349 4.493,10.877 82.989,10.877 87.482,15.349     "/>
				<path fill="#444B4C" d="M85.218,24.677c-1.75,0-3.164-1.42-3.164-3.169c0-1.752,1.414-3.169,3.164-3.169V24.677"/>
				<polyline fill="#464646" points="87.482,25.631 0,25.631 0,15.349 87.482,15.349 87.482,25.631     "/>
				<polyline fill="#949494" points="83.211,23.829 4.052,23.829 4.052,17.489 83.211,17.489 83.211,23.829     "/>
				<ellipse fill="#FFFFFF" cx="83.127" cy="20.681" rx="1.44" ry="1.062"/>
			</g>
			<rect x="40.43" y="27.427" fill="#FFFFFF" width="14.232" height="0.595"/>
			<ellipse fill="#FFFFFF" cx="53.604" cy="30.229" rx="1.482" ry="1.019"/>
			<rect x="40.43" y="33.369" fill="#FFFFFF" width="14.232" height="0.594"/>
			<ellipse fill="#FFFFFF" cx="53.604" cy="36.17" rx="1.482" ry="1.019"/>
			<rect x="68.979" y="33.369" fill="#FFFFFF" width="14.232" height="0.594"/>
			<ellipse fill="#FFFFFF" cx="82.153" cy="36.17" rx="1.482" ry="1.019"/>
			<ellipse fill="#FFFFFF" cx="82.153" cy="42.111" rx="1.482" ry="1.019"/>
			<rect x="68.979" y="45.251" fill="#FFFFFF" width="14.232" height="0.594"/>
			<ellipse fill="#FFFFFF" cx="82.153" cy="48.052" rx="1.482" ry="1.019"/>
			<rect x="40.43" y="39.311" fill="#FFFFFF" width="14.232" height="0.594"/>
			<ellipse fill="#FFFFFF" cx="53.604" cy="42.111" rx="1.482" ry="1.019"/>
			<rect x="40.43" y="45.252" fill="#FFFFFF" width="14.232" height="0.594"/>
			<ellipse fill="#FFFFFF" cx="53.604" cy="48.053" rx="1.482" ry="1.019"/>
			<ellipse fill="#FFFFFF" cx="81.984" cy="30.229" rx="1.482" ry="1.019"/>
			<line fill="#FFFFFF" stroke="#FFFFFF" x1="58.475" y1="26.069" x2="58.475" y2="50.004"/>
		</g>
		<g>
			<polyline fill="#949494" points="196.808,32.096 109.325,32.096 109.325,26.383 196.808,26.383 196.808,32.096    "/>
			<polyline fill="#464646" points="196.808,37.952 109.325,37.952 109.325,32.239 196.808,32.239 196.808,37.952    "/>
			<polyline fill="#949494" points="196.808,43.724 109.325,43.724 109.325,38.011 196.808,38.011 196.808,43.724    "/>
			<polyline fill="#464646" points="196.808,49.58 109.325,49.58 109.325,43.867 196.808,43.867 196.808,49.58    "/>
			<g>
				<polyline fill="#B3B7BE" points="196.808,15.349 109.325,15.349 113.818,10.877 192.313,10.877 196.808,15.349     "/>
				<path fill="#444B4C" d="M194.543,24.677c-1.75,0-3.165-1.42-3.165-3.169c0-1.752,1.414-3.169,3.165-3.169V24.677"/>
				<polyline fill="#464646" points="196.808,25.631 109.325,25.631 109.325,15.349 196.808,15.349 196.808,25.631     "/>
				<polyline fill="#949494" points="192.536,23.829 113.375,23.829 113.375,17.489 192.536,17.489 192.536,23.829     "/>
				<ellipse fill="#FFFFFF" cx="192.451" cy="20.681" rx="1.44" ry="1.062"/>
			</g>
			<rect x="149.755" y="27.427" fill="#FFFFFF" width="14.232" height="0.595"/>
			<ellipse fill="#FFFFFF" cx="162.928" cy="30.229" rx="1.482" ry="1.019"/>
			<rect x="149.755" y="33.369" fill="#FFFFFF" width="14.232" height="0.595"/>
			<ellipse fill="#FFFFFF" cx="162.928" cy="36.17" rx="1.482" ry="1.019"/>
			<rect x="178.304" y="33.369" fill="#FFFFFF" width="14.232" height="0.595"/>
			<ellipse fill="#FFFFFF" cx="191.478" cy="36.17" rx="1.482" ry="1.019"/>
			<ellipse fill="#FFFFFF" cx="191.478" cy="42.111" rx="1.482" ry="1.019"/>
			<rect x="178.304" y="45.251" fill="#FFFFFF" width="14.232" height="0.594"/>
			<ellipse fill="#FFFFFF" cx="191.478" cy="48.052" rx="1.482" ry="1.019"/>
			<rect x="149.755" y="39.311" fill="#FFFFFF" width="14.232" height="0.594"/>
			<ellipse fill="#FFFFFF" cx="162.928" cy="42.111" rx="1.482" ry="1.019"/>
			<rect x="149.755" y="45.252" fill="#FFFFFF" width="14.232" height="0.594"/>
			<ellipse fill="#FFFFFF" cx="162.928" cy="48.053" rx="1.482" ry="1.019"/>
			<ellipse fill="#FFFFFF" cx="191.309" cy="30.229" rx="1.482" ry="1.019"/>
			<line fill="#FFFFFF" stroke="#FFFFFF" x1="167.8" y1="26.069" x2="167.8" y2="50.004"/>
		</g>
		<g>
			<polyline fill="#949494" points="341.147,32.096 253.665,32.096 253.665,26.383 341.147,26.383 341.147,32.096    "/>
			<polyline fill="#464646" points="341.147,37.952 253.665,37.952 253.665,32.239 341.147,32.239 341.147,37.952    "/>
			<polyline fill="#949494" points="341.147,43.724 253.665,43.724 253.665,38.011 341.147,38.011 341.147,43.724    "/>
			<polyline fill="#464646" points="341.147,49.58 253.665,49.58 253.665,43.867 341.147,43.867 341.147,49.58    "/>
			<g>
				<polyline fill="#B3B7BE" points="341.147,15.349 253.665,15.349 258.159,10.877 336.655,10.877 341.147,15.349     "/>
				<path fill="#444B4C" d="M338.883,24.677c-1.75,0-3.164-1.42-3.164-3.169c0-1.752,1.414-3.169,3.164-3.169V24.677"/>
				<polyline fill="#464646" points="341.147,25.631 253.665,25.631 253.665,15.349 341.147,15.349 341.147,25.631     "/>
				<polyline fill="#949494" points="336.877,23.829 257.717,23.829 257.717,17.489 336.877,17.489 336.877,23.829     "/>
				<ellipse fill="#FFFFFF" cx="336.792" cy="20.681" rx="1.439" ry="1.062"/>
			</g>
			<rect x="294.094" y="27.427" fill="#FFFFFF" width="14.232" height="0.595"/>
			<ellipse fill="#FFFFFF" cx="307.268" cy="30.229" rx="1.482" ry="1.019"/>
			<rect x="294.094" y="33.369" fill="#FFFFFF" width="14.232" height="0.595"/>
			<ellipse fill="#FFFFFF" cx="307.268" cy="36.17" rx="1.482" ry="1.019"/>
			<rect x="322.645" y="33.369" fill="#FFFFFF" width="14.232" height="0.595"/>
			<ellipse fill="#FFFFFF" cx="335.819" cy="36.17" rx="1.482" ry="1.019"/>
			<ellipse fill="#FFFFFF" cx="335.819" cy="42.111" rx="1.482" ry="1.019"/>
			<rect x="322.645" y="45.251" fill="#FFFFFF" width="14.232" height="0.594"/>
			<ellipse fill="#FFFFFF" cx="335.819" cy="48.052" rx="1.482" ry="1.019"/>
			<rect x="294.094" y="39.311" fill="#FFFFFF" width="14.232" height="0.594"/>
			<ellipse fill="#FFFFFF" cx="307.268" cy="42.111" rx="1.482" ry="1.019"/>
			<rect x="294.094" y="45.252" fill="#FFFFFF" width="14.232" height="0.594"/>
			<ellipse fill="#FFFFFF" cx="307.268" cy="48.053" rx="1.482" ry="1.019"/>
			<ellipse fill="#FFFFFF" cx="335.651" cy="30.229" rx="1.482" ry="1.019"/>
			<line fill="#FFFFFF" stroke="#FFFFFF" x1="312.141" y1="26.069" x2="312.141" y2="50.004"/>
		</g>
		<text transform="matrix(0.9981 0 0 1 4.7129 7.7129)" font-family="'HelveticaNeue-Roman'" font-size="9">Host 1</text>
		<text transform="matrix(0.9981 0 0 1 113.8496 7.7129)" font-family="'HelveticaNeue-Roman'" font-size="9">Host 2</text>
		<text transform="matrix(0.9981 0 0 1 257.8403 7.7129)" font-family="'HelveticaNeue-Roman'" font-size="9">Host N</text>
		<g>
			<rect x="216.709" y="47.704" width="2.549" height="2.554"/>
			<rect x="228.182" y="47.704" width="2.55" height="2.554"/>
			<rect x="222.445" y="47.704" width="2.549" height="2.554"/>
		</g>
	</g>
</g>
<g id="box_x5F_outline">
	
		<rect x="118.889" y="161.152" fill="#3F3F3F" stroke="#3F3F3F" stroke-width="0.5" stroke-linecap="round" stroke-linejoin="round" width="106.771" height="61.667"/>
	
		<rect x="119.776" y="162.779" fill="#B2B2B2" stroke="#FFFFFF" stroke-width="0.5" stroke-linecap="round" stroke-linejoin="round" width="9.612" height="29.133"/>
	
		<rect x="119.776" y="193.391" fill="#B2B2B2" stroke="#FFFFFF" stroke-width="0.5" stroke-linecap="round" stroke-linejoin="round" width="9.612" height="28.541"/>
	
		<rect x="130.868" y="162.779" fill="#8C8C8C" stroke="#FFFFFF" stroke-width="0.5" stroke-linecap="round" stroke-linejoin="round" width="93.462" height="29.133"/>
	
		<rect x="130.868" y="193.095" fill="#B2B2B2" stroke="#FFFFFF" stroke-width="0.5" stroke-linecap="round" stroke-linejoin="round" width="93.462" height="29.133"/>
	<g>
		<path fill="none" stroke="#000000" stroke-width="0.5" stroke-linecap="round" stroke-linejoin="round" d="M123.565,183.804    c0,0-0.107-0.744,0.637-0.744c0.745,0,1.447,0,1.447,0s0.426-0.107,0.852,0.213c0.425,0.319,0.51,0.638,0.51,0.638    s0.276,0.447,0.276,0.702s0.106,2.596,0.106,2.596s-0.127,0.446-0.276,0.702c-0.149,0.255-0.403,0.531-0.403,0.531    s-0.49,0.319-0.703,0.319s-1.639,0-1.639,0s-0.616-0.234-0.659-0.702c-0.042-0.469-0.147-4.191-0.147-4.191"/>
		
			<rect x="124.989" y="184.187" fill="none" stroke="#000000" stroke-width="0.5" stroke-linecap="round" stroke-linejoin="round" width="0.746" height="0.298"/>
		
			<rect x="125.692" y="185.719" fill="none" stroke="#000000" stroke-width="0.5" stroke-linecap="round" stroke-linejoin="round" width="0.744" height="0.425"/>
		
			<rect x="125.053" y="187.42" fill="none" stroke="#000000" stroke-width="0.5" stroke-linecap="round" stroke-linejoin="round" width="0.639" height="0.276"/>
		
			<rect x="123.03" y="182.299" fill="none" stroke="#000000" stroke-width="0.5" stroke-linecap="round" stroke-linejoin="round" width="5.471" height="7.542"/>
		<path fill="none" stroke="#000000" stroke-width="0.5" stroke-linecap="round" stroke-linejoin="round" d="M123.565,213.677    c0,0-0.107-0.745,0.637-0.745c0.745,0,1.447,0,1.447,0s0.426-0.107,0.852,0.213c0.425,0.319,0.51,0.638,0.51,0.638    s0.276,0.447,0.276,0.702c0,0.256,0.106,2.596,0.106,2.596s-0.127,0.446-0.276,0.702c-0.149,0.255-0.403,0.531-0.403,0.531    s-0.49,0.319-0.703,0.319s-1.639,0-1.639,0s-0.616-0.234-0.659-0.702c-0.042-0.469-0.147-4.19-0.147-4.19"/>
		
			<rect x="124.989" y="214.059" fill="none" stroke="#000000" stroke-width="0.5" stroke-linecap="round" stroke-linejoin="round" width="0.746" height="0.298"/>
		
			<rect x="125.692" y="215.591" fill="none" stroke="#000000" stroke-width="0.5" stroke-linecap="round" stroke-linejoin="round" width="0.744" height="0.426"/>
		
			<rect x="125.053" y="217.292" fill="none" stroke="#000000" stroke-width="0.5" stroke-linecap="round" stroke-linejoin="round" width="0.639" height="0.276"/>
		
			<rect x="123.03" y="212.171" fill="none" stroke="#000000" stroke-width="0.5" stroke-linecap="round" stroke-linejoin="round" width="5.471" height="7.543"/>
	</g>
	
		<rect x="132.05" y="163.518" fill="#B2B2B2" stroke="#FFFFFF" stroke-width="0.5" stroke-linecap="round" stroke-linejoin="round" width="90.8" height="27.21"/>
	
		<rect x="132.05" y="193.851" fill="#B2B2B2" stroke="#FFFFFF" stroke-width="0.5" stroke-linecap="round" stroke-linejoin="round" width="90.8" height="27.21"/>
	
		<rect x="135.303" y="184.518" fill="#FFFFFF" stroke="#000000" stroke-width="0.5" stroke-linecap="round" stroke-linejoin="round" width="53.178" height="5.471"/>
	
		<line fill="none" stroke="#000000" stroke-width="0.5" stroke-linecap="round" stroke-linejoin="round" x1="188.542" y1="163.37" x2="188.542" y2="189.841"/>
	
		<rect x="193.57" y="165.145" fill="#8C8C8C" stroke="#FFFFFF" stroke-width="0.5" stroke-linecap="round" stroke-linejoin="round" width="24.104" height="3.4"/>
	
		<rect x="193.57" y="171.025" fill="#8C8C8C" stroke="#FFFFFF" stroke-width="0.5" stroke-linecap="round" stroke-linejoin="round" width="23.957" height="3.549"/>
	
		<rect x="193.57" y="177.757" fill="#8C8C8C" stroke="#FFFFFF" stroke-width="0.5" stroke-linecap="round" stroke-linejoin="round" width="24.104" height="3.401"/>
	
		<rect x="193.57" y="184.082" fill="#8C8C8C" stroke="#FFFFFF" stroke-width="0.5" stroke-linecap="round" stroke-linejoin="round" width="23.957" height="3.549"/>
	
		<rect x="193.57" y="195.645" fill="#8C8C8C" stroke="#FFFFFF" stroke-width="0.5" stroke-linecap="round" stroke-linejoin="round" width="24.104" height="3.4"/>
	
		<rect x="193.57" y="201.524" fill="#8C8C8C" stroke="#FFFFFF" stroke-width="0.5" stroke-linecap="round" stroke-linejoin="round" width="23.957" height="3.549"/>
	
		<rect x="193.57" y="208.256" fill="#8C8C8C" stroke="#FFFFFF" stroke-width="0.5" stroke-linecap="round" stroke-linejoin="round" width="24.104" height="3.402"/>
	
		<rect x="193.57" y="214.581" fill="#8C8C8C" stroke="#FFFFFF" stroke-width="0.5" stroke-linecap="round" stroke-linejoin="round" width="23.957" height="3.549"/>
	
		<rect x="185.241" y="195.432" fill="#8C8C8C" stroke="#FFFFFF" stroke-width="0.5" stroke-linecap="round" stroke-linejoin="round" width="3.4" height="19.104"/>
	
		<rect x="179.908" y="195.432" fill="#8C8C8C" stroke="#FFFFFF" stroke-width="0.5" stroke-linecap="round" stroke-linejoin="round" width="3.4" height="19.104"/>
	
		<rect x="139.57" y="195.645" fill="#8C8C8C" stroke="#FFFFFF" stroke-width="0.5" stroke-linecap="round" stroke-linejoin="round" width="24.104" height="3.4"/>
	
		<rect x="139.57" y="200.525" fill="#8C8C8C" stroke="#FFFFFF" stroke-width="0.5" stroke-linecap="round" stroke-linejoin="round" width="23.957" height="3.549"/>
	
		<rect x="139.57" y="205.257" fill="#8C8C8C" stroke="#FFFFFF" stroke-width="0.5" stroke-linecap="round" stroke-linejoin="round" width="24.104" height="3.401"/>
	
		<rect x="139.57" y="210.582" fill="#8C8C8C" stroke="#FFFFFF" stroke-width="0.5" stroke-linecap="round" stroke-linejoin="round" width="23.957" height="3.549"/>
	<path fill="#FFFFFF" stroke="#000000" stroke-width="0.5" stroke-linecap="round" stroke-linejoin="round" d="M165.124,163.38   v4.638c0,0,0.298,0.681,1.361,0.681c1.064,0,10.339,0,10.339,0s1.107,0.171,1.192-0.893c0.085-1.064,0-4.426,0-4.426"/>
	<path fill="#FFFFFF" stroke="#000000" stroke-width="0.5" stroke-linecap="round" stroke-linejoin="round" d="M169.676,168.742   v6.882c0,1.568,1.305,2.84,2.914,2.84s2.915-1.271,2.915-2.84v-6.882"/>
	
		<ellipse fill="none" stroke="#000000" stroke-width="0.5" stroke-linecap="round" stroke-linejoin="round" cx="172.42" cy="175.4" rx="1.531" ry="1.554"/>
	
		<line fill="none" stroke="#000000" stroke-width="0.5" stroke-linecap="round" stroke-linejoin="round" x1="167.152" y1="167.408" x2="176.229" y2="167.408"/>
	<path fill="#FFFFFF" stroke="#000000" stroke-width="0.5" stroke-linecap="round" stroke-linejoin="round" d="M165.124,194.38   v4.638c0,0,0.298,0.681,1.361,0.681c1.064,0,10.339,0,10.339,0s1.107,0.171,1.192-0.893c0.085-1.064,0-4.426,0-4.426"/>
	<path fill="#FFFFFF" stroke="#000000" stroke-width="0.5" stroke-linecap="round" stroke-linejoin="round" d="M169.676,199.742   v6.882c0,1.568,1.305,2.84,2.914,2.84s2.915-1.271,2.915-2.84v-6.882"/>
	
		<ellipse fill="none" stroke="#000000" stroke-width="0.5" stroke-linecap="round" stroke-linejoin="round" cx="172.42" cy="206.4" rx="1.531" ry="1.554"/>
	
		<line fill="none" stroke="#000000" stroke-width="0.5" stroke-linecap="round" stroke-linejoin="round" x1="167.152" y1="198.408" x2="176.229" y2="198.408"/>
	<rect x="148.441" y="151.151" fill="none" width="48.667" height="12"/>
	<text transform="matrix(1 0 0 1 153.2715 157.6133)" font-family="'Helvetica'" font-size="9">Controller</text>
	<rect x="73.941" y="114.651" fill="none" width="64.667" height="10"/>
	<text transform="matrix(1 0 0 1 73.9409 121.1133)" font-family="'Helvetica'" font-size="9">Switch/Fabric 1</text>
	<rect x="203.941" y="114.651" fill="none" width="64.667" height="10"/>
	<text transform="matrix(1 0 0 1 203.9409 121.1133)" font-family="'Helvetica'" font-size="9">Switch/Fabric 2</text>
</g>
<g id="lines_x26_text">
	<polyline fill="none" stroke="#000000" stroke-width="0.5" points="35.274,99.235 21.024,99.235 21.024,49.985  "/>
	<g>
		<polyline fill="none" stroke="#FFFFFF" stroke-width="3" points="47.774,49.985 47.774,70.112 209.774,70.112 209.774,76.985       "/>
	</g>
	<g>
		<polyline fill="none" stroke="#000000" stroke-width="0.5" points="47.774,49.985 47.774,70.112 209.774,70.112 209.774,76.985       "/>
	</g>
	<line fill="none" stroke="#FFFFFF" stroke-width="3" x1="120.524" y1="49.985" x2="120.524" y2="77.485"/>
	<line fill="none" stroke="#000000" stroke-width="0.5" x1="120.524" y1="49.985" x2="120.524" y2="77.485"/>
	<line fill="none" stroke="#FFFFFF" stroke-width="3" x1="283.524" y1="49.985" x2="283.524" y2="77.485"/>
	<line fill="none" stroke="#000000" stroke-width="0.5" x1="283.524" y1="49.985" x2="283.524" y2="77.485"/>
	<polyline fill="none" stroke="#000000" stroke-width="0.5" points="171.524,49.985 171.524,65.735 219.024,65.735 219.024,77.485     "/>
	<g>
		<polyline fill="none" stroke="#FFFFFF" stroke-width="3" points="131.524,76.985 131.524,56.735 271.024,56.735 271.024,49.985       "/>
	</g>
	<g>
		<polyline fill="none" stroke="#000000" stroke-width="0.5" points="131.524,76.985 131.524,56.735 271.024,56.735 271.024,49.985       "/>
	</g>
	<g>
		<polyline fill="none" stroke="#FFFFFF" stroke-width="3" points="137.024,109.735 137.024,136.235 233.274,136.235     233.274,167.985 225.524,167.985   "/>
	</g>
	<g>
		<polyline fill="none" stroke="#000000" stroke-width="0.5" points="137.024,109.735 137.024,136.235 233.274,136.235     233.274,167.985 225.524,167.985   "/>
	</g>
	<g>
		<polyline fill="none" stroke="#FFFFFF" stroke-width="3" points="146.274,109.735 146.274,140.485 247.524,140.485     247.524,174.235 225.774,174.235   "/>
	</g>
	<g>
		<polyline fill="none" stroke="#000000" stroke-width="0.5" points="146.274,109.735 146.274,140.485 247.524,140.485     247.524,174.235 225.774,174.235   "/>
	</g>
	<rect x="234.649" y="151.11" fill="none" width="12.25" height="8.75"/>
	<text transform="matrix(1 0 0 1 234.6489 157.5718)" font-family="'Helvetica'" font-size="9">0a</text>
	<rect x="249.649" y="151.61" fill="none" width="12.25" height="8.75"/>
	<text transform="matrix(1 0 0 1 249.6489 158.0718)" font-family="'Helvetica'" font-size="9">0c</text>
	<rect x="268.149" y="151.61" fill="none" width="12.25" height="8.75"/>
	<text transform="matrix(1 0 0 1 268.1489 158.0718)" font-family="'Helvetica'" font-size="9">0b</text>
	<rect x="285.649" y="151.61" fill="none" width="12.25" height="8.75"/>
	<text transform="matrix(1 0 0 1 285.6489 158.0718)" font-family="'Helvetica'" font-size="9">0d</text>
	<polyline fill="none" stroke="#000000" stroke-width="0.5" points="225.524,179.985 266.774,179.985 266.774,110.485  "/>
	<polyline fill="none" stroke="#000000" stroke-width="0.5" points="225.524,184.985 283.024,184.985 283.024,109.985  "/>
</g>
</svg>