<svg xmlns="http://www.w3.org/2000/svg" viewBox="0 0 350 251.7085"><defs><style>.a1b4fff1-38b0-414a-a825-5375e93320fe,.bd81f07c-627c-46bf-8c63-299298787b24,.e83b9c97-402b-4eaf-ba60-09835594187a,.ecafbd21-3f04-4d38-9589-8a4bb0b689f0{fill:none;}.bd81f07c-627c-46bf-8c63-299298787b24,.e83b9c97-402b-4eaf-ba60-09835594187a,.ee440574-8647-4994-b4df-9c7f61265af3{stroke:#000;}.e83b9c97-402b-4eaf-ba60-09835594187a{stroke-miterlimit:10;}.a1b4fff1-38b0-414a-a825-5375e93320fe,.bd81f07c-627c-46bf-8c63-299298787b24,.e4a1b8c6-40f5-47b4-9e98-8b4e76b57a3a,.e83b9c97-402b-4eaf-ba60-09835594187a,.ea3a7a54-b6cd-43c5-86c4-4f519392c0a3,.ecafbd21-3f04-4d38-9589-8a4bb0b689f0,.ee440574-8647-4994-b4df-9c7f61265af3,.f598e4fc-1e52-42f5-b3a4-c166ae852f86{stroke-width:0.5px;}.ad0d2519-5c87-4671-a442-cb2bdb90920d{fill:#878e94;}.a1b4fff1-38b0-414a-a825-5375e93320fe,.e4a1b8c6-40f5-47b4-9e98-8b4e76b57a3a,.e9b411b3-a0a2-4173-86b6-5bb2a052432b,.ea3a7a54-b6cd-43c5-86c4-4f519392c0a3{stroke:#fff;}.f84d1373-2f52-4d1e-a135-b6ee87aa33f7{fill:#b3b7be;}.e9b411b3-a0a2-4173-86b6-5bb2a052432b,.ee440574-8647-4994-b4df-9c7f61265af3,.fa37e35d-8435-4f79-88c0-e2d631fd6458{fill:#fff;}.ecafbd21-3f04-4d38-9589-8a4bb0b689f0{stroke:#b3b7be;}.a99f00db-76c0-4f01-9d3d-7e81a034c303{fill:#949494;}.bb553dce-e341-4e0b-aea8-c06ebe787936{fill:#464646;}.e54e266e-957e-4bdb-80f0-1b20b83e7136{fill:#444b4c;}.f598e4fc-1e52-42f5-b3a4-c166ae852f86{fill:#3f3f3f;stroke:#3f3f3f;}.bd81f07c-627c-46bf-8c63-299298787b24,.e4a1b8c6-40f5-47b4-9e98-8b4e76b57a3a,.ea3a7a54-b6cd-43c5-86c4-4f519392c0a3,.ee440574-8647-4994-b4df-9c7f61265af3,.f598e4fc-1e52-42f5-b3a4-c166ae852f86{stroke-linecap:round;stroke-linejoin:round;}.ea3a7a54-b6cd-43c5-86c4-4f519392c0a3{fill:#b2b2b2;}.e4a1b8c6-40f5-47b4-9e98-8b4e76b57a3a{fill:#8c8c8c;}</style></defs><g id="b808fed3-72a8-4607-88b7-29eb944fd8bf" data-name="Guide"><polyline class="e83b9c97-402b-4eaf-ba60-09835594187a" points="69.788 51.408 69.788 68.972 133.381 68.972 133.381 81.362"/><polyline class="e83b9c97-402b-4eaf-ba60-09835594187a" points="283.211 51.408 283.211 66.992 206.68 66.992 206.68 79.376"/><polyline class="e83b9c97-402b-4eaf-ba60-09835594187a" points="293.211 52.043 293.211 71.472 216.68 71.472 216.68 82.011"/><line class="e83b9c97-402b-4eaf-ba60-09835594187a" x1="153.2593" y1="79.8223" x2="153.209" y2="51.0176"/><line class="e83b9c97-402b-4eaf-ba60-09835594187a" x1="180.2803" y1="79.8223" x2="180.23" y2="51.0176"/><polyline class="ad0d2519-5c87-4671-a442-cb2bdb90920d" points="236.846 111.728 114.543 111.728 114.543 89.47 236.846 89.47 236.846 111.728"/><polygon class="a1b4fff1-38b0-414a-a825-5375e93320fe" points="236.846 111.728 114.543 111.728 114.543 89.47 236.846 89.47 236.846 111.728 236.846 111.728"/><polyline class="f84d1373-2f52-4d1e-a135-b6ee87aa33f7" points="236.846 89.47 114.543 89.47 128.901 79.404 222.488 79.404 236.846 89.47"/><path class="fa37e35d-8435-4f79-88c0-e2d631fd6458" d="M185.9185,94.9536c0,1.4605-4.4825,2.6421-10.0118,2.6421-5.5312,0-10.0136-1.1816-10.0136-2.6421s4.4824-2.6411,10.0136-2.6411c5.5293,0,10.0118,1.1816,10.0118,2.6411"/><path class="fa37e35d-8435-4f79-88c0-e2d631fd6458" d="M165.8931,95.3291v10.92c0,1.4566,4.4824,2.6411,10.0136,2.6411,5.5293,0,10.0118-1.1845,10.0118-2.6411V94.9536"/><path class="ecafbd21-3f04-4d38-9589-8a4bb0b689f0" d="M165.8931,95.3291v10.92c0,1.4566,4.4824,2.6411,10.0136,2.6411,5.5293,0,10.0118-1.1845,10.0118-2.6411V94.9536m0,0c0,1.4605-4.4825,2.6421-10.0118,2.6421-5.5312,0-10.0136-1.1816-10.0136-2.6421s4.4824-2.6411,10.0136-2.6411c5.5293,0,10.0118,1.1816,10.0118,2.6411Z"/><polyline class="fa37e35d-8435-4f79-88c0-e2d631fd6458" points="219.363 95.598 209.19 93.666 209.19 95.154 194.351 95.154 194.351 96.435 209.19 96.435 209.19 97.851 219.363 95.721 219.363 95.598"/><polyline class="fa37e35d-8435-4f79-88c0-e2d631fd6458" points="219.363 105.185 209.19 103.251 209.19 104.739 194.351 104.739 194.351 106.014 209.19 106.014 209.19 107.436 219.363 105.301 219.363 105.185"/><polyline class="fa37e35d-8435-4f79-88c0-e2d631fd6458" points="132.031 105.599 142.199 107.533 142.199 106.044 157.039 106.044 157.039 104.769 142.199 104.769 142.199 103.349 132.031 105.482 132.031 105.599"/><polyline class="fa37e35d-8435-4f79-88c0-e2d631fd6458" points="132.031 96.014 142.199 97.947 142.199 96.459 157.039 96.459 157.039 95.184 142.199 95.184 142.199 93.762 132.031 95.896 132.031 96.014"/><polyline class="a99f00db-76c0-4f01-9d3d-7e81a034c303" points="92.603 34.153 5.121 34.153 5.121 28.441 92.603 28.44 92.603 34.153"/><polyline class="bb553dce-e341-4e0b-aea8-c06ebe787936" points="92.603 40.01 5.121 40.01 5.121 34.297 92.603 34.297 92.603 40.01"/><polyline class="a99f00db-76c0-4f01-9d3d-7e81a034c303" points="92.603 45.781 5.121 45.781 5.121 40.069 92.603 40.069 92.603 45.781"/><polyline class="bb553dce-e341-4e0b-aea8-c06ebe787936" points="92.603 51.638 5.121 51.638 5.121 45.925 92.603 45.925 92.603 51.638"/><polyline class="f84d1373-2f52-4d1e-a135-b6ee87aa33f7" points="92.603 17.407 5.121 17.407 9.614 12.935 88.109 12.935 92.603 17.407"/><path class="e54e266e-957e-4bdb-80f0-1b20b83e7136" d="M90.3389,26.7344a3.1695,3.1695,0,0,1,0-6.3389v6.3389"/><polyline class="bb553dce-e341-4e0b-aea8-c06ebe787936" points="92.603 27.689 5.121 27.689 5.121 17.407 92.603 17.407 92.603 27.689"/><polyline class="a99f00db-76c0-4f01-9d3d-7e81a034c303" points="88.332 25.886 9.172 25.886 9.172 19.547 88.332 19.547 88.332 25.886"/><path class="fa37e35d-8435-4f79-88c0-e2d631fd6458" d="M89.6875,22.7388c0,.5864-.645,1.0615-1.44,1.0615s-1.44-.4751-1.44-1.0615.645-1.0606,1.4405-1.0606S89.6875,22.1533,89.6875,22.7388Z"/><rect class="fa37e35d-8435-4f79-88c0-e2d631fd6458" x="45.5508" y="29.4849" width="14.2324" height="0.5947"/><path class="fa37e35d-8435-4f79-88c0-e2d631fd6458" d="M60.2065,32.2861c0,.5625-.6635,1.0186-1.4824,1.0186s-1.4824-.4561-1.4824-1.0186.6641-1.018,1.4824-1.018S60.2065,31.7236,60.2065,32.2861Z"/><rect class="fa37e35d-8435-4f79-88c0-e2d631fd6458" x="45.5508" y="35.4268" width="14.2324" height="0.5942"/><path class="fa37e35d-8435-4f79-88c0-e2d631fd6458" d="M60.2065,38.2275c0,.5625-.6635,1.0186-1.4824,1.0186s-1.4824-.4561-1.4824-1.0186.6641-1.018,1.4824-1.018S60.2065,37.665,60.2065,38.2275Z"/><rect class="fa37e35d-8435-4f79-88c0-e2d631fd6458" x="74.1001" y="35.4268" width="14.2324" height="0.5942"/><path class="fa37e35d-8435-4f79-88c0-e2d631fd6458" d="M88.7559,38.2275c0,.5625-.6636,1.0186-1.4825,1.0186S85.791,38.79,85.791,38.2275s.6641-1.018,1.4824-1.018S88.7559,37.665,88.7559,38.2275Z"/><path class="fa37e35d-8435-4f79-88c0-e2d631fd6458" d="M88.7559,44.1685c0,.5625-.6636,1.0185-1.4825,1.0185s-1.4824-.456-1.4824-1.0185.6641-1.0181,1.4824-1.0181S88.7559,43.606,88.7559,44.1685Z"/><rect class="fa37e35d-8435-4f79-88c0-e2d631fd6458" x="74.1001" y="47.3091" width="14.2324" height="0.5942"/><path class="fa37e35d-8435-4f79-88c0-e2d631fd6458" d="M88.7559,50.11c0,.5625-.6636,1.0185-1.4825,1.0185s-1.4824-.456-1.4824-1.0185.6641-1.0186,1.4824-1.0186S88.7559,49.5474,88.7559,50.11Z"/><rect class="fa37e35d-8435-4f79-88c0-e2d631fd6458" x="45.5508" y="41.3682" width="14.2324" height="0.5942"/><path class="fa37e35d-8435-4f79-88c0-e2d631fd6458" d="M60.2065,44.1689c0,.5625-.6635,1.0186-1.4824,1.0186s-1.4824-.4561-1.4824-1.0186.6641-1.018,1.4824-1.018S60.2065,43.6064,60.2065,44.1689Z"/><rect class="fa37e35d-8435-4f79-88c0-e2d631fd6458" x="45.5508" y="47.3101" width="14.2324" height="0.5937"/><path class="fa37e35d-8435-4f79-88c0-e2d631fd6458" d="M60.2065,50.11c0,.5629-.6635,1.0185-1.4824,1.0185s-1.4824-.4556-1.4824-1.0185.6641-1.0181,1.4824-1.0181S60.2065,49.5479,60.2065,50.11Z"/><path class="fa37e35d-8435-4f79-88c0-e2d631fd6458" d="M88.5869,32.2861c0,.5625-.6636,1.0186-1.4824,1.0186s-1.4824-.4561-1.4824-1.0186.664-1.018,1.4824-1.018S88.5869,31.7236,88.5869,32.2861Z"/><line class="e9b411b3-a0a2-4173-86b6-5bb2a052432b" x1="63.5957" y1="28.127" x2="63.5957" y2="52.062"/><polyline class="a99f00db-76c0-4f01-9d3d-7e81a034c303" points="201.928 34.153 114.445 34.153 114.445 28.44 201.928 28.44 201.928 34.153"/><polyline class="bb553dce-e341-4e0b-aea8-c06ebe787936" points="201.928 40.01 114.445 40.01 114.445 34.297 201.928 34.297 201.928 40.01"/><polyline class="a99f00db-76c0-4f01-9d3d-7e81a034c303" points="201.928 45.781 114.445 45.781 114.445 40.069 201.928 40.069 201.928 45.781"/><polyline class="bb553dce-e341-4e0b-aea8-c06ebe787936" points="201.928 51.638 114.445 51.638 114.445 45.925 201.928 45.925 201.928 51.638"/><polyline class="f84d1373-2f52-4d1e-a135-b6ee87aa33f7" points="201.928 17.407 114.445 17.407 118.939 12.935 197.434 12.935 201.928 17.407"/><path class="e54e266e-957e-4bdb-80f0-1b20b83e7136" d="M199.6636,26.7344a3.1695,3.1695,0,0,1,0-6.3389v6.3389"/><polyline class="bb553dce-e341-4e0b-aea8-c06ebe787936" points="201.928 27.689 114.445 27.689 114.445 17.407 201.928 17.407 201.928 27.689"/><polyline class="a99f00db-76c0-4f01-9d3d-7e81a034c303" points="197.657 25.886 118.496 25.886 118.496 19.547 197.657 19.547 197.657 25.886"/><path class="fa37e35d-8435-4f79-88c0-e2d631fd6458" d="M199.0117,22.7388c0,.5864-.644,1.0615-1.4394,1.0615s-1.4405-.4751-1.4405-1.0615.6441-1.0606,1.4405-1.0606S199.0117,22.1533,199.0117,22.7388Z"/><rect class="fa37e35d-8435-4f79-88c0-e2d631fd6458" x="154.8755" y="29.4849" width="14.2324" height="0.5947"/><path class="fa37e35d-8435-4f79-88c0-e2d631fd6458" d="M169.5313,32.2861c0,.5625-.6636,1.0186-1.4825,1.0186s-1.4824-.4561-1.4824-1.0186.6636-1.018,1.4824-1.018S169.5313,31.7236,169.5313,32.2861Z"/><rect class="fa37e35d-8435-4f79-88c0-e2d631fd6458" x="154.8755" y="35.4263" width="14.2324" height="0.5947"/><path class="fa37e35d-8435-4f79-88c0-e2d631fd6458" d="M169.5313,38.2275c0,.5625-.6636,1.0186-1.4825,1.0186s-1.4824-.4561-1.4824-1.0186.6636-1.018,1.4824-1.018S169.5313,37.665,169.5313,38.2275Z"/><rect class="fa37e35d-8435-4f79-88c0-e2d631fd6458" x="183.4248" y="35.4263" width="14.2319" height="0.5947"/><path class="fa37e35d-8435-4f79-88c0-e2d631fd6458" d="M198.0811,38.2275c0,.5625-.6641,1.0186-1.4834,1.0186s-1.4815-.4561-1.4815-1.0186.6631-1.018,1.4815-1.018S198.0811,37.665,198.0811,38.2275Z"/><path class="fa37e35d-8435-4f79-88c0-e2d631fd6458" d="M198.0811,44.1685c0,.5625-.6641,1.0185-1.4834,1.0185s-1.4815-.456-1.4815-1.0185.6631-1.0181,1.4815-1.0181S198.0811,43.606,198.0811,44.1685Z"/><rect class="fa37e35d-8435-4f79-88c0-e2d631fd6458" x="183.4248" y="47.3091" width="14.2319" height="0.5942"/><path class="fa37e35d-8435-4f79-88c0-e2d631fd6458" d="M198.0811,50.11c0,.5625-.6641,1.0185-1.4834,1.0185s-1.4815-.456-1.4815-1.0185.6631-1.0186,1.4815-1.0186S198.0811,49.5474,198.0811,50.11Z"/><rect class="fa37e35d-8435-4f79-88c0-e2d631fd6458" x="154.8755" y="41.3682" width="14.2324" height="0.5942"/><path class="fa37e35d-8435-4f79-88c0-e2d631fd6458" d="M169.5313,44.1689c0,.5625-.6636,1.0186-1.4825,1.0186s-1.4824-.4561-1.4824-1.0186.6636-1.018,1.4824-1.018S169.5313,43.6064,169.5313,44.1689Z"/><rect class="fa37e35d-8435-4f79-88c0-e2d631fd6458" x="154.8755" y="47.3101" width="14.2324" height="0.5937"/><path class="fa37e35d-8435-4f79-88c0-e2d631fd6458" d="M169.5313,50.11c0,.5629-.6636,1.0185-1.4825,1.0185s-1.4824-.4556-1.4824-1.0185.6636-1.0181,1.4824-1.0181S169.5313,49.5479,169.5313,50.11Z"/><path class="fa37e35d-8435-4f79-88c0-e2d631fd6458" d="M197.9116,32.2861c0,.5625-.6636,1.0186-1.4829,1.0186s-1.4814-.4561-1.4814-1.0186.6631-1.018,1.4814-1.018S197.9116,31.7236,197.9116,32.2861Z"/><line class="e9b411b3-a0a2-4173-86b6-5bb2a052432b" x1="172.9204" y1="28.127" x2="172.9204" y2="52.062"/><polyline class="a99f00db-76c0-4f01-9d3d-7e81a034c303" points="346.268 34.153 258.785 34.153 258.785 28.44 346.268 28.44 346.268 34.153"/><polyline class="bb553dce-e341-4e0b-aea8-c06ebe787936" points="346.268 40.01 258.785 40.01 258.785 34.297 346.268 34.297 346.268 40.01"/><polyline class="a99f00db-76c0-4f01-9d3d-7e81a034c303" points="346.268 45.781 258.785 45.781 258.785 40.069 346.268 40.069 346.268 45.781"/><polyline class="bb553dce-e341-4e0b-aea8-c06ebe787936" points="346.268 51.638 258.785 51.638 258.785 45.925 346.268 45.925 346.268 51.638"/><polyline class="f84d1373-2f52-4d1e-a135-b6ee87aa33f7" points="346.268 17.407 258.785 17.407 263.279 12.935 341.775 12.935 346.268 17.407"/><path class="e54e266e-957e-4bdb-80f0-1b20b83e7136" d="M344.0039,26.7344a3.1695,3.1695,0,0,1,0-6.3389v6.3389"/><polyline class="bb553dce-e341-4e0b-aea8-c06ebe787936" points="346.268 27.689 258.785 27.689 258.785 17.407 346.268 17.407 346.268 27.689"/><polyline class="a99f00db-76c0-4f01-9d3d-7e81a034c303" points="341.998 25.886 262.838 25.886 262.838 19.547 341.998 19.547 341.998 25.886"/><path class="fa37e35d-8435-4f79-88c0-e2d631fd6458" d="M343.3516,22.7388c0,.5864-.6426,1.0615-1.44,1.0615-.7949,0-1.4394-.4751-1.4394-1.0615s.6445-1.0606,1.4394-1.0606C342.709,21.6782,343.3516,22.1533,343.3516,22.7388Z"/><rect class="fa37e35d-8435-4f79-88c0-e2d631fd6458" x="299.2148" y="29.4849" width="14.2325" height="0.5947"/><path class="fa37e35d-8435-4f79-88c0-e2d631fd6458" d="M313.8711,32.2861c0,.5625-.6641,1.0186-1.4824,1.0186s-1.4824-.4561-1.4824-1.0186.664-1.018,1.4824-1.018S313.8711,31.7236,313.8711,32.2861Z"/><rect class="fa37e35d-8435-4f79-88c0-e2d631fd6458" x="299.2148" y="35.4263" width="14.2325" height="0.5947"/><path class="fa37e35d-8435-4f79-88c0-e2d631fd6458" d="M313.8711,38.2275c0,.5625-.6641,1.0186-1.4824,1.0186s-1.4824-.4561-1.4824-1.0186.664-1.018,1.4824-1.018S313.8711,37.665,313.8711,38.2275Z"/><rect class="fa37e35d-8435-4f79-88c0-e2d631fd6458" x="327.7656" y="35.4263" width="14.2324" height="0.5947"/><path class="fa37e35d-8435-4f79-88c0-e2d631fd6458" d="M342.4219,38.2275c0,.5625-.6641,1.0186-1.4824,1.0186-.82,0-1.4825-.4561-1.4825-1.0186s.6621-1.018,1.4825-1.018C341.7578,37.21,342.4219,37.665,342.4219,38.2275Z"/><path class="fa37e35d-8435-4f79-88c0-e2d631fd6458" d="M342.4219,44.1685c0,.5625-.6641,1.0185-1.4824,1.0185-.82,0-1.4825-.456-1.4825-1.0185s.6621-1.0181,1.4825-1.0181C341.7578,43.15,342.4219,43.606,342.4219,44.1685Z"/><rect class="fa37e35d-8435-4f79-88c0-e2d631fd6458" x="327.7656" y="47.3091" width="14.2324" height="0.5942"/><path class="fa37e35d-8435-4f79-88c0-e2d631fd6458" d="M342.4219,50.11c0,.5625-.6641,1.0185-1.4824,1.0185-.82,0-1.4825-.456-1.4825-1.0185s.6621-1.0186,1.4825-1.0186C341.7578,49.0913,342.4219,49.5474,342.4219,50.11Z"/><rect class="fa37e35d-8435-4f79-88c0-e2d631fd6458" x="299.2148" y="41.3682" width="14.2325" height="0.5942"/><path class="fa37e35d-8435-4f79-88c0-e2d631fd6458" d="M313.8711,44.1689c0,.5625-.6641,1.0186-1.4824,1.0186s-1.4824-.4561-1.4824-1.0186.664-1.018,1.4824-1.018S313.8711,43.6064,313.8711,44.1689Z"/><rect class="fa37e35d-8435-4f79-88c0-e2d631fd6458" x="299.2148" y="47.3101" width="14.2325" height="0.5937"/><path class="fa37e35d-8435-4f79-88c0-e2d631fd6458" d="M313.8711,50.11c0,.5629-.6621,1.0185-1.4824,1.0185-.8184,0-1.4824-.4556-1.4824-1.0185s.664-1.0181,1.4824-1.0181S313.8711,49.5479,313.8711,50.11Z"/><path class="fa37e35d-8435-4f79-88c0-e2d631fd6458" d="M342.2539,32.2861c0,.5625-.6641,1.0186-1.4844,1.0186-.8183,0-1.48-.4561-1.48-1.0186s.6621-1.018,1.48-1.018C341.59,31.2681,342.2539,31.7236,342.2539,32.2861Z"/><line class="e9b411b3-a0a2-4173-86b6-5bb2a052432b" x1="317.2617" y1="28.127" x2="317.2617" y2="52.062"/><path d="M10.54,3.3149h.8818V5.9824h3.3115V3.3149h.8818V9.7705h-.8818V6.7515H11.4214v3.019H10.54Z"/><path d="M20.3037,5.5337a2.3773,2.3773,0,0,1,.6226,1.7827,3.0726,3.0726,0,0,1-.5489,1.8789,1.9784,1.9784,0,0,1-1.7026.7422,1.9148,1.9148,0,0,1-1.5288-.6563A2.6043,2.6043,0,0,1,16.58,7.5181,2.8182,2.8182,0,0,1,17.1763,5.63a1.996,1.996,0,0,1,1.603-.7027A2.1042,2.1042,0,0,1,20.3037,5.5337Zm-.49,3.1279a2.99,2.99,0,0,0,.2881-1.3232,2.3854,2.3854,0,0,0-.208-1.0713,1.17,1.17,0,0,0-1.1363-.6494,1.1175,1.1175,0,0,0-1.041.5532,2.588,2.588,0,0,0-.3252,1.334,2.25,2.25,0,0,0,.3252,1.251,1.1413,1.1413,0,0,0,1.0322.5A1.0748,1.0748,0,0,0,19.8135,8.6616Z"/><path d="M22.3652,8.2939a1.1343,1.1343,0,0,0,.2017.6065,1.2771,1.2771,0,0,0,1.0561.3823,1.5872,1.5872,0,0,0,.7881-.1909.6332.6332,0,0,0,.34-.5913.5045.5045,0,0,0-.272-.4614,3.2688,3.2688,0,0,0-.6865-.2242l-.6377-.1582a3.1433,3.1433,0,0,1-.9-.3339.9957.9957,0,0,1-.5171-.8877,1.3506,1.3506,0,0,1,.4868-1.0811,1.9567,1.9567,0,0,1,1.3091-.4131,1.8266,1.8266,0,0,1,1.5513.624,1.3437,1.3437,0,0,1,.289.8526h-.7456a.8944.8944,0,0,0-.1929-.4854,1.2528,1.2528,0,0,0-.9653-.31,1.1764,1.1764,0,0,0-.6938.1709.5305.5305,0,0,0-.2359.4507.554.554,0,0,0,.31.4907,1.8877,1.8877,0,0,0,.5273.1928l.5318.1275a4.16,4.16,0,0,1,1.1621.4,1.06,1.06,0,0,1,.46.9536A1.4463,1.4463,0,0,1,25.05,9.4937a2.066,2.066,0,0,1-1.4678.457A1.981,1.981,0,0,1,22.08,9.4736a1.7894,1.7894,0,0,1-.4732-1.18Z"/><path d="M26.5454,3.75h.7984V5.064h.75V5.71h-.75V8.7817a.3327.3327,0,0,0,.1665.33.7071.7071,0,0,0,.3071.0484q.0572,0,.123-.003c.044-.0019.0948-.0068.1534-.0146v.6284a1.7528,1.7528,0,0,1-.2828.0571,2.67,2.67,0,0,1-.3178.0176.8558.8558,0,0,1-.7505-.2837,1.261,1.261,0,0,1-.1973-.7358V5.71H25.91V5.064h.6357Z"/><path d="M31.66,5.3145V4.708a3.1981,3.1981,0,0,0,1.1928-.2793,1.373,1.373,0,0,0,.5044-.9248H33.98V9.7705h-.8423V5.3145Z"/><path d="M119.6763,3.3149h.8818V5.9824H123.87V3.3149h.8819V9.7705H123.87V6.7515h-3.3115v3.019h-.8818Z"/><path d="M129.44,5.5337a2.3773,2.3773,0,0,1,.6226,1.7827,3.0732,3.0732,0,0,1-.5488,1.8789,1.9786,1.9786,0,0,1-1.7027.7422,1.915,1.915,0,0,1-1.5288-.6563,2.6043,2.6043,0,0,1-.5664-1.7631A2.8182,2.8182,0,0,1,126.313,5.63a1.996,1.996,0,0,1,1.603-.7027A2.1042,2.1042,0,0,1,129.44,5.5337Zm-.49,3.1279a2.99,2.99,0,0,0,.2881-1.3232,2.3854,2.3854,0,0,0-.208-1.0713,1.17,1.17,0,0,0-1.1363-.6494,1.1175,1.1175,0,0,0-1.041.5532,2.588,2.588,0,0,0-.3252,1.334,2.25,2.25,0,0,0,.3252,1.251,1.1415,1.1415,0,0,0,1.0323.5A1.0747,1.0747,0,0,0,128.95,8.6616Z"/><path d="M131.502,8.2939a1.1335,1.1335,0,0,0,.2016.6065,1.2772,1.2772,0,0,0,1.0562.3823,1.5877,1.5877,0,0,0,.7881-.1909.6332.6332,0,0,0,.34-.5913.5043.5043,0,0,0-.272-.4614,3.2688,3.2688,0,0,0-.6865-.2242l-.6377-.1582a3.1457,3.1457,0,0,1-.9-.3339.9957.9957,0,0,1-.5171-.8877,1.3506,1.3506,0,0,1,.4868-1.0811,1.9567,1.9567,0,0,1,1.3091-.4131,1.8266,1.8266,0,0,1,1.5513.624,1.3437,1.3437,0,0,1,.289.8526h-.7456a.895.895,0,0,0-.1928-.4854,1.2532,1.2532,0,0,0-.9654-.31,1.1764,1.1764,0,0,0-.6938.1709.5308.5308,0,0,0-.2359.4507.5542.5542,0,0,0,.31.4907,1.8877,1.8877,0,0,0,.5273.1928l.5318.1275a4.16,4.16,0,0,1,1.1621.4,1.06,1.06,0,0,1,.46.9536,1.4463,1.4463,0,0,1-.4819,1.0855,2.0658,2.0658,0,0,1-1.4678.457,1.981,1.981,0,0,1-1.5029-.4771,1.7888,1.7888,0,0,1-.4731-1.18Z"/><path d="M135.6821,3.75h.7984V5.064h.75V5.71h-.75V8.7817a.3327.3327,0,0,0,.1665.33.7071.7071,0,0,0,.3071.0484q.0571,0,.123-.003c.044-.0019.0948-.0068.1534-.0146v.6284a1.7538,1.7538,0,0,1-.2827.0571,2.6714,2.6714,0,0,1-.3179.0176.8558.8558,0,0,1-.75-.2837,1.261,1.261,0,0,1-.1973-.7358V5.71h-.6357V5.064h.6357Z"/><path d="M140.5527,8.3555a2.7184,2.7184,0,0,1,1.1382-1.0943l.8423-.4878a3.9273,3.9273,0,0,0,.7939-.563,1.16,1.16,0,0,0,.36-.8364,1.17,1.17,0,0,0-.3291-.874,1.1963,1.1963,0,0,0-.8774-.3237,1.1443,1.1443,0,0,0-1.1226.6172,2.2147,2.2147,0,0,0-.1846.9165h-.8027a2.8318,2.8318,0,0,1,.3027-1.34,1.8986,1.8986,0,0,1,1.8116-.914,1.9625,1.9625,0,0,1,1.5771.5844,1.9589,1.9589,0,0,1,.4976,1.3008,1.7693,1.7693,0,0,1-.5308,1.292,5.2019,5.2019,0,0,1-1.1006.7559l-.6011.334a3.9,3.9,0,0,0-.6757.4526,1.6459,1.6459,0,0,0-.5523.8481h3.43v.7471h-4.3115A3.6792,3.6792,0,0,1,140.5527,8.3555Z"/><path d="M263.666,3.3149h.8828V5.9824h3.3106V3.3149h.8828V9.7705h-.8828V6.7515h-3.3106v3.019h-.8828Z"/><path d="M273.43,5.5337a2.374,2.374,0,0,1,.623,1.7827,3.0667,3.0667,0,0,1-.5488,1.8789,1.9781,1.9781,0,0,1-1.7031.7422,1.9135,1.9135,0,0,1-1.5274-.6563,2.5992,2.5992,0,0,1-.5664-1.7631,2.8257,2.8257,0,0,1,.5957-1.8877,1.9966,1.9966,0,0,1,1.6035-.7027A2.099,2.099,0,0,1,273.43,5.5337Zm-.49,3.1279a2.9782,2.9782,0,0,0,.289-1.3232,2.3849,2.3849,0,0,0-.207-1.0713,1.1715,1.1715,0,0,0-1.1367-.6494,1.1158,1.1158,0,0,0-1.041.5532,2.5882,2.5882,0,0,0-.3262,1.334,2.2506,2.2506,0,0,0,.3262,1.251,1.14,1.14,0,0,0,1.0312.5A1.0732,1.0732,0,0,0,272.94,8.6616Z"/><path d="M275.4922,8.2939a1.1411,1.1411,0,0,0,.2012.6065,1.2781,1.2781,0,0,0,1.0566.3823,1.5812,1.5812,0,0,0,.7871-.1909.6319.6319,0,0,0,.3418-.5913.5049.5049,0,0,0-.2734-.4614,3.2361,3.2361,0,0,0-.6856-.2242l-.6367-.1582a3.1044,3.1044,0,0,1-.9-.3339.9943.9943,0,0,1-.5176-.8877,1.35,1.35,0,0,1,.4864-1.0811,1.9569,1.9569,0,0,1,1.3086-.4131,1.83,1.83,0,0,1,1.5527.624,1.3526,1.3526,0,0,1,.2891.8526h-.7461a.9075.9075,0,0,0-.1934-.4854,1.2531,1.2531,0,0,0-.9648-.31,1.1706,1.1706,0,0,0-.6934.1709.5288.5288,0,0,0-.2363.4507.5552.5552,0,0,0,.3086.4907,1.8877,1.8877,0,0,0,.5273.1928l.5332.1275a4.1646,4.1646,0,0,1,1.1621.4,1.0591,1.0591,0,0,1,.459.9536,1.4484,1.4484,0,0,1-.4805,1.0855,2.0683,2.0683,0,0,1-1.4687.457,1.9774,1.9774,0,0,1-1.502-.4771,1.7951,1.7951,0,0,1-.4746-1.18Z"/><path d="M279.6719,3.75h.7988V5.064h.75V5.71h-.75V8.7817a.3318.3318,0,0,0,.166.33.71.71,0,0,0,.3067.0484q.0585,0,.123-.003c.0449-.0019.0957-.0068.1543-.0146v.6284a1.7889,1.7889,0,0,1-.2832.0571,2.656,2.656,0,0,1-.3184.0176.8532.8532,0,0,1-.75-.2837,1.2654,1.2654,0,0,1-.1972-.7358V5.71h-.6367V5.064h.6367Z"/><path d="M284.6113,3.3149h1.0293l3.2129,5.2159V3.3149h.832V9.7705h-.98l-3.26-5.2095v5.21h-.834Z"/><rect x="221.8296" y="49.7617" width="2.5488" height="2.5542"/><rect x="233.3022" y="49.7617" width="2.5499" height="2.5542"/><rect x="227.5654" y="49.7617" width="2.5493" height="2.5542"/></g><g id="b2ee079b-d57f-4c14-8242-2bf8092bbee7" data-name="box_outline"><rect class="f598e4fc-1e52-42f5-b3a4-c166ae852f86" x="123.728" y="173.3755" width="106.7715" height="61.667"/><rect class="ea3a7a54-b6cd-43c5-86c4-4f519392c0a3" x="124.6157" y="175.0024" width="9.6118" height="29.1329"/><rect class="ea3a7a54-b6cd-43c5-86c4-4f519392c0a3" x="124.6157" y="205.6148" width="9.6118" height="28.541"/><rect class="e4a1b8c6-40f5-47b4-9e98-8b4e76b57a3a" x="135.707" y="175.0024" width="93.4619" height="29.1329"/><rect class="ea3a7a54-b6cd-43c5-86c4-4f519392c0a3" x="135.707" y="205.3188" width="93.4619" height="29.1328"/><path class="bd81f07c-627c-46bf-8c63-299298787b24" d="M128.4038,196.0278a.6215.6215,0,0,1,.6377-.7441h1.4473a1.073,1.073,0,0,1,.8506.2129,1.3411,1.3411,0,0,1,.51.6377,1.9391,1.9391,0,0,1,.2764.7021c0,.2549.1069,2.5957.1069,2.5957a3.9006,3.9006,0,0,1-.2768.7022,3.7178,3.7178,0,0,1-.4039.5312,2.1913,2.1913,0,0,1-.7026.3194h-1.6382s-.6167-.2344-.66-.7022-.148-4.1914-.148-4.1914"/><rect class="bd81f07c-627c-46bf-8c63-299298787b24" x="129.8286" y="196.4106" width="0.7451" height="0.2979"/><rect class="bd81f07c-627c-46bf-8c63-299298787b24" x="130.5308" y="197.9429" width="0.7446" height="0.4248"/><rect class="bd81f07c-627c-46bf-8c63-299298787b24" x="129.8921" y="199.644" width="0.6387" height="0.2764"/><rect class="bd81f07c-627c-46bf-8c63-299298787b24" x="127.8687" y="194.5229" width="5.4716" height="7.542"/><path class="bd81f07c-627c-46bf-8c63-299298787b24" d="M128.4038,225.9009a.6222.6222,0,0,1,.6377-.7451h1.4473a1.0725,1.0725,0,0,1,.8506.2129,1.3411,1.3411,0,0,1,.51.6376,1.94,1.94,0,0,1,.2764.7022c0,.2559.1069,2.5957.1069,2.5957a3.8979,3.8979,0,0,1-.2768.7021,3.7215,3.7215,0,0,1-.4039.5313,2.1917,2.1917,0,0,1-.7026.3193h-1.6382s-.6167-.2343-.66-.7021-.148-4.19-.148-4.19"/><rect class="bd81f07c-627c-46bf-8c63-299298787b24" x="129.8286" y="226.2827" width="0.7451" height="0.2979"/><rect class="bd81f07c-627c-46bf-8c63-299298787b24" x="130.5308" y="227.8149" width="0.7446" height="0.4258"/><rect class="bd81f07c-627c-46bf-8c63-299298787b24" x="129.8921" y="229.5161" width="0.6387" height="0.2764"/><rect class="bd81f07c-627c-46bf-8c63-299298787b24" x="127.8687" y="224.395" width="5.4716" height="7.543"/><rect class="ea3a7a54-b6cd-43c5-86c4-4f519392c0a3" x="136.8896" y="175.7417" width="90.8003" height="27.21"/><rect class="ea3a7a54-b6cd-43c5-86c4-4f519392c0a3" x="136.8896" y="206.2417" width="90.8003" height="27.21"/><rect class="ee440574-8647-4994-b4df-9c7f61265af3" x="140.1431" y="196.7417" width="53.2612" height="5.4707"/><line class="bd81f07c-627c-46bf-8c63-299298787b24" x1="193.3809" y1="175.5933" x2="193.3809" y2="202.0649"/><rect class="e4a1b8c6-40f5-47b4-9e98-8b4e76b57a3a" x="198.4092" y="177.3687" width="24.105" height="3.4003"/><rect class="e4a1b8c6-40f5-47b4-9e98-8b4e76b57a3a" x="198.4092" y="184.2485" width="23.957" height="3.5489"/><rect class="e4a1b8c6-40f5-47b4-9e98-8b4e76b57a3a" x="198.4092" y="190.981" width="24.105" height="3.4013"/><rect class="e4a1b8c6-40f5-47b4-9e98-8b4e76b57a3a" x="198.4092" y="197.3052" width="23.957" height="3.5488"/><rect class="e4a1b8c6-40f5-47b4-9e98-8b4e76b57a3a" x="198.4092" y="207.8687" width="24.105" height="3.4004"/><rect class="e4a1b8c6-40f5-47b4-9e98-8b4e76b57a3a" x="198.4092" y="214.7485" width="23.957" height="3.5488"/><rect class="e4a1b8c6-40f5-47b4-9e98-8b4e76b57a3a" x="198.4092" y="221.481" width="24.105" height="3.4014"/><rect class="e4a1b8c6-40f5-47b4-9e98-8b4e76b57a3a" x="198.4092" y="227.8052" width="23.957" height="3.5488"/><path class="ee440574-8647-4994-b4df-9c7f61265af3" d="M167.9629,175.604v4.6377a1.4021,1.4021,0,0,0,1.3613.6807h10.3389a.9927.9927,0,0,0,1.1919-.8926c.0854-1.0645,0-4.4258,0-4.4258"/><path class="ee440574-8647-4994-b4df-9c7f61265af3" d="M172.5151,180.9653v6.8819a2.9158,2.9158,0,0,0,5.83,0v-6.8819"/><path class="bd81f07c-627c-46bf-8c63-299298787b24" d="M176.7915,187.6235a1.5319,1.5319,0,1,1-1.5317-1.5527A1.5424,1.5424,0,0,1,176.7915,187.6235Z"/><line class="bd81f07c-627c-46bf-8c63-299298787b24" x1="169.9912" y1="176.7388" x2="179.0679" y2="176.7388"/><line class="bd81f07c-627c-46bf-8c63-299298787b24" x1="169.9912" y1="177.7026" x2="179.0679" y2="177.7026"/><line class="bd81f07c-627c-46bf-8c63-299298787b24" x1="169.9912" y1="178.6675" x2="179.0679" y2="178.6675"/><line class="bd81f07c-627c-46bf-8c63-299298787b24" x1="169.9912" y1="179.6313" x2="179.0679" y2="179.6313"/><rect class="ee440574-8647-4994-b4df-9c7f61265af3" x="140.1431" y="226.9087" width="53.0112" height="5.4707"/><line class="bd81f07c-627c-46bf-8c63-299298787b24" x1="193.3809" y1="205.7602" x2="193.3809" y2="232.2319"/><path class="ee440574-8647-4994-b4df-9c7f61265af3" d="M167.9629,205.771v4.6377a1.4021,1.4021,0,0,0,1.3613.6807h10.3389a.9928.9928,0,0,0,1.1919-.8926c.0854-1.0645,0-4.4258,0-4.4258"/><path class="ee440574-8647-4994-b4df-9c7f61265af3" d="M172.5151,211.1323v6.8819a2.9158,2.9158,0,0,0,5.83,0v-6.8819"/><path class="bd81f07c-627c-46bf-8c63-299298787b24" d="M176.7915,217.7905a1.5319,1.5319,0,1,1-1.5317-1.5527A1.5424,1.5424,0,0,1,176.7915,217.7905Z"/><line class="bd81f07c-627c-46bf-8c63-299298787b24" x1="169.9912" y1="206.9058" x2="179.0679" y2="206.9058"/><line class="bd81f07c-627c-46bf-8c63-299298787b24" x1="169.9912" y1="207.8696" x2="179.0679" y2="207.8696"/><line class="bd81f07c-627c-46bf-8c63-299298787b24" x1="169.9912" y1="208.8345" x2="179.0679" y2="208.8345"/><line class="bd81f07c-627c-46bf-8c63-299298787b24" x1="169.9912" y1="209.7983" x2="179.0679" y2="209.7983"/><path d="M157.313,161.1953a2.29,2.29,0,0,1,.7427,1.4668h-.8526a1.6244,1.6244,0,0,0-1.7607-1.3535,1.8975,1.8975,0,0,0-1.5127.6719,3.0937,3.0937,0,0,0-.5762,2.0556,3.0284,3.0284,0,0,0,.52,1.8409,1.8042,1.8042,0,0,0,1.5523.705,1.63,1.63,0,0,0,1.4458-.7422,2.85,2.85,0,0,0,.393-1.0283h.8526a2.9323,2.9323,0,0,1-.7471,1.71,2.6464,2.6464,0,0,1-2.05.83,2.6834,2.6834,0,0,1-1.8681-.6817,4.2305,4.2305,0,0,1-.2476-5.1269,2.7159,2.7159,0,0,1,2.228-.9942A2.5923,2.5923,0,0,1,157.313,161.1953Z"/><path d="M162.5513,162.9434a2.3756,2.3756,0,0,1,.624,1.7832,3.0714,3.0714,0,0,1-.55,1.8789,1.9858,1.9858,0,0,1-1.7061.7422,1.9206,1.9206,0,0,1-1.5317-.6563,2.6031,2.6031,0,0,1-.5674-1.7637,2.8154,2.8154,0,0,1,.5977-1.8877,2.0027,2.0027,0,0,1,1.6059-.7021A2.1079,2.1079,0,0,1,162.5513,162.9434Zm-.4912,3.1279a2.9836,2.9836,0,0,0,.289-1.3233,2.375,2.375,0,0,0-.2085-1.0712,1.1719,1.1719,0,0,0-1.1386-.6495,1.1207,1.1207,0,0,0-1.043.5528,2.5865,2.5865,0,0,0-.3257,1.334,2.25,2.25,0,0,0,.3257,1.2519,1.1454,1.1454,0,0,0,1.0347.5A1.0764,1.0764,0,0,0,162.06,166.0713Z"/><path d="M164.1465,162.4736h.7514v.668a2.095,2.095,0,0,1,.7076-.5928,1.873,1.873,0,0,1,.8305-.1806,1.3709,1.3709,0,0,1,1.3536.6982,2.4866,2.4866,0,0,1,.1933,1.0947V167.18h-.8042v-2.9658a1.6076,1.6076,0,0,0-.1274-.6944.7728.7728,0,0,0-.7647-.4394,1.592,1.592,0,0,0-.4614.0566,1.1892,1.1892,0,0,0-.5713.3867,1.1646,1.1646,0,0,0-.2568.4825,3.1907,3.1907,0,0,0-.06.7089V167.18h-.791Z"/><path d="M169.31,161.16h.8v1.3134h.7514v.6455H170.11v3.0723a.334.334,0,0,0,.167.33.7272.7272,0,0,0,.3076.0478q.0572,0,.123-.0029t.1538-.0146v.6279a1.67,1.67,0,0,1-.2837.0576,2.6935,2.6935,0,0,1-.3183.0176.8574.8574,0,0,1-.7515-.2842,1.2543,1.2543,0,0,1-.1977-.7353v-3.1163h-.6372v-.6455h.6372Z"/><path d="M171.6743,162.4736h.7515v.8135a1.7907,1.7907,0,0,1,.4526-.5781,1.1759,1.1759,0,0,1,.8306-.3408.6954.6954,0,0,1,.0747.0048q.0526.003.18.0176v.834c-.0469-.0078-.09-.0137-.13-.0176-.0391-.0019-.0825-.0039-.1294-.0039a1.1305,1.1305,0,0,0-.9185.3848,1.34,1.34,0,0,0-.3208.8848v2.707h-.791Z"/><path d="M178.06,162.9434a2.3756,2.3756,0,0,1,.624,1.7832,3.0681,3.0681,0,0,1-.55,1.8789,1.9852,1.9852,0,0,1-1.7061.7422,1.9206,1.9206,0,0,1-1.5317-.6563,2.6031,2.6031,0,0,1-.5674-1.7637,2.8154,2.8154,0,0,1,.5977-1.8877,2.0027,2.0027,0,0,1,1.6059-.7021A2.1071,2.1071,0,0,1,178.06,162.9434Zm-.4912,3.1279a2.9768,2.9768,0,0,0,.289-1.3233,2.3821,2.3821,0,0,0-.208-1.0712,1.1724,1.1724,0,0,0-1.1387-.6495,1.121,1.121,0,0,0-1.0434.5528,2.5865,2.5865,0,0,0-.3257,1.334,2.25,2.25,0,0,0,.3257,1.2519,1.1454,1.1454,0,0,0,1.0347.5A1.076,1.076,0,0,0,177.5684,166.0713Z"/><path d="M179.6768,160.7246h.791V167.18h-.791Z"/><path d="M181.6768,160.7246h.791V167.18h-.791Z"/><path d="M186.5615,162.6035a1.7792,1.7792,0,0,1,.7119.6084,2.1135,2.1135,0,0,1,.3145.8311,5.5379,5.5379,0,0,1,.0693,1.0371h-3.4228a2.03,2.03,0,0,0,.3359,1.1523,1.1187,1.1187,0,0,0,.9717.4336,1.25,1.25,0,0,0,.9814-.41,1.3986,1.3986,0,0,0,.29-.5528h.7783a1.638,1.638,0,0,1-.2041.5781,2.0815,2.0815,0,0,1-.3877.5215,1.8222,1.8222,0,0,1-.8857.4746,2.6629,2.6629,0,0,1-.6407.07,1.9594,1.9594,0,0,1-1.48-.6407,2.4922,2.4922,0,0,1-.6075-1.79,2.7142,2.7142,0,0,1,.6114-1.8408,2.01,2.01,0,0,1,1.5986-.708A2.1322,2.1322,0,0,1,186.5615,162.6035Zm.2832,1.8477a2.0691,2.0691,0,0,0-.2226-.8223,1.1354,1.1354,0,0,0-1.0762-.57,1.1894,1.1894,0,0,0-.9063.3926,1.4941,1.4941,0,0,0-.3876,1Z"/><path d="M188.6816,162.4736h.751v.8135a1.7938,1.7938,0,0,1,.4531-.5781,1.1748,1.1748,0,0,1,.83-.3408.7.7,0,0,1,.0752.0048c.0352.002.0947.0079.18.0176v.834c-.0469-.0078-.09-.0137-.13-.0176-.039-.0019-.082-.0039-.1289-.0039a1.1312,1.1312,0,0,0-.9189.3848,1.3389,1.3389,0,0,0-.32.8848v2.707h-.7911Z"/><path d="M194.4385,162.7246v-.6074a3.1915,3.1915,0,0,0,1.1953-.2793,1.3683,1.3683,0,0,0,.5049-.9238h.624V167.18h-.8438v-4.4551Z"/><path d="M157.313,240.1953a2.29,2.29,0,0,1,.7427,1.4668h-.8526a1.6244,1.6244,0,0,0-1.7607-1.3535,1.8975,1.8975,0,0,0-1.5127.6719,3.0937,3.0937,0,0,0-.5762,2.0556,3.0284,3.0284,0,0,0,.52,1.8409,1.8042,1.8042,0,0,0,1.5523.705,1.63,1.63,0,0,0,1.4458-.7422,2.85,2.85,0,0,0,.393-1.0283h.8526a2.9323,2.9323,0,0,1-.7471,1.71,2.6464,2.6464,0,0,1-2.05.83,2.6834,2.6834,0,0,1-1.8681-.6817,4.2305,4.2305,0,0,1-.2476-5.1269,2.7159,2.7159,0,0,1,2.228-.9942A2.5923,2.5923,0,0,1,157.313,240.1953Z"/><path d="M162.5513,241.9434a2.3756,2.3756,0,0,1,.624,1.7832,3.0714,3.0714,0,0,1-.55,1.8789,1.9858,1.9858,0,0,1-1.7061.7422,1.9206,1.9206,0,0,1-1.5317-.6563,2.6031,2.6031,0,0,1-.5674-1.7637,2.8154,2.8154,0,0,1,.5977-1.8877,2.0027,2.0027,0,0,1,1.6059-.7021A2.1079,2.1079,0,0,1,162.5513,241.9434Zm-.4912,3.1279a2.9836,2.9836,0,0,0,.289-1.3233,2.375,2.375,0,0,0-.2085-1.0712,1.1719,1.1719,0,0,0-1.1386-.6495,1.1207,1.1207,0,0,0-1.043.5528,2.5865,2.5865,0,0,0-.3257,1.334,2.25,2.25,0,0,0,.3257,1.2519,1.1454,1.1454,0,0,0,1.0347.5A1.0764,1.0764,0,0,0,162.06,245.0713Z"/><path d="M164.1465,241.4736h.7514v.668a2.095,2.095,0,0,1,.7076-.5928,1.873,1.873,0,0,1,.8305-.1806,1.3709,1.3709,0,0,1,1.3536.6982,2.4866,2.4866,0,0,1,.1933,1.0947V246.18h-.8042v-2.9658a1.6076,1.6076,0,0,0-.1274-.6944.7728.7728,0,0,0-.7647-.4394,1.592,1.592,0,0,0-.4614.0566,1.1892,1.1892,0,0,0-.5713.3867,1.1646,1.1646,0,0,0-.2568.4825,3.1907,3.1907,0,0,0-.06.7089V246.18h-.791Z"/><path d="M169.31,240.16h.8v1.3134h.7514v.6455H170.11v3.0723a.334.334,0,0,0,.167.33.7272.7272,0,0,0,.3076.0478q.0572,0,.123-.0029t.1538-.0146v.6279a1.67,1.67,0,0,1-.2837.0576,2.6935,2.6935,0,0,1-.3183.0176.8574.8574,0,0,1-.7515-.2842,1.2543,1.2543,0,0,1-.1977-.7353v-3.1163h-.6372v-.6455h.6372Z"/><path d="M171.6743,241.4736h.7515v.8135a1.7907,1.7907,0,0,1,.4526-.5781,1.1759,1.1759,0,0,1,.8306-.3408.6954.6954,0,0,1,.0747.0048q.0526.003.18.0176v.834c-.0469-.0078-.09-.0137-.13-.0176-.0391-.0019-.0825-.0039-.1294-.0039a1.1305,1.1305,0,0,0-.9185.3848,1.34,1.34,0,0,0-.3208.8848v2.707h-.791Z"/><path d="M178.06,241.9434a2.3756,2.3756,0,0,1,.624,1.7832,3.0681,3.0681,0,0,1-.55,1.8789,1.9852,1.9852,0,0,1-1.7061.7422,1.9206,1.9206,0,0,1-1.5317-.6563,2.6031,2.6031,0,0,1-.5674-1.7637,2.8154,2.8154,0,0,1,.5977-1.8877,2.0027,2.0027,0,0,1,1.6059-.7021A2.1071,2.1071,0,0,1,178.06,241.9434Zm-.4912,3.1279a2.9768,2.9768,0,0,0,.289-1.3233,2.3821,2.3821,0,0,0-.208-1.0712,1.1724,1.1724,0,0,0-1.1387-.6495,1.121,1.121,0,0,0-1.0434.5528,2.5865,2.5865,0,0,0-.3257,1.334,2.25,2.25,0,0,0,.3257,1.2519,1.1454,1.1454,0,0,0,1.0347.5A1.076,1.076,0,0,0,177.5684,245.0713Z"/><path d="M179.6768,239.7246h.791V246.18h-.791Z"/><path d="M181.6768,239.7246h.791V246.18h-.791Z"/><path d="M186.5615,241.6035a1.7792,1.7792,0,0,1,.7119.6084,2.1135,2.1135,0,0,1,.3145.8311,5.5379,5.5379,0,0,1,.0693,1.0371h-3.4228a2.03,2.03,0,0,0,.3359,1.1523,1.1187,1.1187,0,0,0,.9717.4336,1.25,1.25,0,0,0,.9814-.41,1.3986,1.3986,0,0,0,.29-.5528h.7783a1.638,1.638,0,0,1-.2041.5781,2.0815,2.0815,0,0,1-.3877.5215,1.8222,1.8222,0,0,1-.8857.4746,2.6629,2.6629,0,0,1-.6407.07,1.9594,1.9594,0,0,1-1.48-.6407,2.4922,2.4922,0,0,1-.6075-1.79,2.7142,2.7142,0,0,1,.6114-1.8408,2.01,2.01,0,0,1,1.5986-.708A2.1322,2.1322,0,0,1,186.5615,241.6035Zm.2832,1.8477a2.0691,2.0691,0,0,0-.2226-.8223,1.1354,1.1354,0,0,0-1.0762-.57,1.1894,1.1894,0,0,0-.9063.3926,1.4941,1.4941,0,0,0-.3876,1Z"/><path d="M188.6816,241.4736h.751v.8135a1.7938,1.7938,0,0,1,.4531-.5781,1.1748,1.1748,0,0,1,.83-.3408.7.7,0,0,1,.0752.0048c.0352.002.0947.0079.18.0176v.834c-.0469-.0078-.09-.0137-.13-.0176-.039-.0019-.082-.0039-.1289-.0039a1.1312,1.1312,0,0,0-.9189.3848,1.3389,1.3389,0,0,0-.32.8848v2.707h-.7911Z"/><path d="M194.1943,244.7656a2.7146,2.7146,0,0,1,1.1407-1.0947l.8437-.4873a3.9994,3.9994,0,0,0,.7949-.5635,1.232,1.232,0,0,0,.0313-1.71,1.1963,1.1963,0,0,0-.8789-.3243,1.1467,1.1467,0,0,0-1.125.6172,2.2111,2.2111,0,0,0-.1846.916h-.8047a2.8261,2.8261,0,0,1,.3037-1.34,1.9023,1.9023,0,0,1,1.8145-.9141,1.8669,1.8669,0,0,1,2.0791,1.8848,1.7715,1.7715,0,0,1-.5322,1.293,5.2732,5.2732,0,0,1-1.1026.7558l-.6025.334a3.9,3.9,0,0,0-.6768.4522,1.65,1.65,0,0,0-.5537.8486h3.4365v.7461h-4.3193A3.6569,3.6569,0,0,1,194.1943,244.7656Z"/><path d="M134.8857,121.0972a1.8147,1.8147,0,0,0,.25.8921,1.63,1.63,0,0,0,1.4775.6416,2.5291,2.5291,0,0,0,.8638-.1407.99.99,0,0,0,.7534-.9756.8533.8533,0,0,0-.3194-.7514,3.1609,3.1609,0,0,0-1.0131-.3823l-.8472-.1978a3.756,3.756,0,0,1-1.1748-.4263,1.3633,1.3633,0,0,1-.5962-1.2085,1.886,1.886,0,0,1,.5859-1.4282,2.31,2.31,0,0,1,1.6592-.5581,2.8265,2.8265,0,0,1,1.6787.49,1.7882,1.7882,0,0,1,.69,1.5665h-.8218a1.66,1.66,0,0,0-.27-.7955,1.5338,1.5338,0,0,0-1.3017-.5053,1.4652,1.4652,0,0,0-1.0664.3252,1.0375,1.0375,0,0,0-.3242.7558.743.743,0,0,0,.3833.6944,5.4976,5.4976,0,0,0,1.1367.3515l.8769.2066a2.64,2.64,0,0,1,.98.4087,1.5487,1.5487,0,0,1,.5962,1.3139,1.6517,1.6517,0,0,1-.7607,1.5337,3.3414,3.3414,0,0,1-1.7681.4614,2.6017,2.6017,0,0,1-1.8384-.6152,2.1018,2.1018,0,0,1-.6513-1.6567Z"/><path d="M140.2119,116.7246h.8042v.8965h-.8042Zm0,1.771h.8042V123.18h-.8042Z"/><path d="M142.2114,118.4736h.7515v.668a2.1084,2.1084,0,0,1,.7075-.5933,1.887,1.887,0,0,1,.8306-.18,1.37,1.37,0,0,1,1.3535.6987,2.4811,2.4811,0,0,1,.1934,1.0942V123.18h-.8042v-2.9663a1.606,1.606,0,0,0-.1275-.6944.7726.7726,0,0,0-.7646-.4394,1.5575,1.5575,0,0,0-.4615.0571,1.1892,1.1892,0,0,0-.5713.3867,1.1594,1.1594,0,0,0-.2568.4815,3.2049,3.2049,0,0,0-.06.7094V123.18h-.791Z"/><path d="M149.8335,118.6626a2.181,2.181,0,0,1,.4551.4482v-.5932h.73v4.28a3.1642,3.1642,0,0,1-.2627,1.415,1.8857,1.8857,0,0,1-1.8526.958,2.2727,2.2727,0,0,1-1.2749-.34,1.3319,1.3319,0,0,1-.5781-1.066h.8042a.8969.8969,0,0,0,.2271.4878,1.4339,1.4339,0,0,0,2.0239-.3779,3.6294,3.6294,0,0,0,.1528-1.3491,1.55,1.55,0,0,1-.5688.5361,2.035,2.035,0,0,1-2.2129-.3667,2.393,2.393,0,0,1-.5713-1.7954,2.7255,2.7255,0,0,1,.5757-1.8457,1.7773,1.7773,0,0,1,1.39-.6636A1.7056,1.7056,0,0,1,149.8335,118.6626Zm.0967.8481a1.1475,1.1475,0,0,0-.9141-.4218,1.1286,1.1286,0,0,0-1.1367.7822,3.0807,3.0807,0,0,0-.1616,1.0942,1.9507,1.9507,0,0,0,.3213,1.211,1.0367,1.0367,0,0,0,.8637.415,1.2119,1.2119,0,0,0,1.1934-.769,2.49,2.49,0,0,0,.1924-1.0152A1.9713,1.9713,0,0,0,149.93,119.5107Z"/><path d="M152.2441,116.7246h.7911V123.18h-.7911Z"/><path d="M157.1289,118.603a1.7887,1.7887,0,0,1,.7119.6089,2.1142,2.1142,0,0,1,.3145.8306,5.4845,5.4845,0,0,1,.07,1.0371h-3.4233a2.0314,2.0314,0,0,0,.3359,1.1523,1.1182,1.1182,0,0,0,.9722.4341,1.2488,1.2488,0,0,0,.9809-.4106,1.3984,1.3984,0,0,0,.2905-.5518h.7779a1.6481,1.6481,0,0,1-.2041.5781,2.0842,2.0842,0,0,1-.3877.52,1.8237,1.8237,0,0,1-.8853.4747,2.674,2.674,0,0,1-.6411.07,1.963,1.963,0,0,1-1.4805-.64,2.4958,2.4958,0,0,1-.6069-1.79,2.7153,2.7153,0,0,1,.6113-1.8413,2.012,2.012,0,0,1,1.5987-.7075A2.13,2.13,0,0,1,157.1289,118.603Zm.2832,1.8482a2.0652,2.0652,0,0,0-.2222-.8218,1.1371,1.1371,0,0,0-1.0766-.5713,1.1893,1.1893,0,0,0-.9063.3936,1.4924,1.4924,0,0,0-.3877.9995Z"/><path d="M162.4043,121.0972a1.8137,1.8137,0,0,0,.2495.8921,1.6306,1.6306,0,0,0,1.4775.6416,2.5283,2.5283,0,0,0,.8638-.1407.9894.9894,0,0,0,.7534-.9756.8532.8532,0,0,0-.3193-.7514,3.1607,3.1607,0,0,0-1.0132-.3823l-.8472-.1978a3.756,3.756,0,0,1-1.1748-.4263,1.3635,1.3635,0,0,1-.5961-1.2085,1.886,1.886,0,0,1,.5859-1.4282,2.31,2.31,0,0,1,1.6592-.5581,2.8267,2.8267,0,0,1,1.6787.49,1.7884,1.7884,0,0,1,.69,1.5665H165.59a1.66,1.66,0,0,0-.27-.7955,1.534,1.534,0,0,0-1.3018-.5053,1.4652,1.4652,0,0,0-1.0664.3252,1.0375,1.0375,0,0,0-.3242.7558.743.743,0,0,0,.3833.6944,5.5,5.5,0,0,0,1.1367.3515l.877.2066a2.64,2.64,0,0,1,.98.4087,1.549,1.549,0,0,1,.5962,1.3139,1.6516,1.6516,0,0,1-.7608,1.5337,3.3413,3.3413,0,0,1-1.768.4614,2.6017,2.6017,0,0,1-1.8384-.6152,2.1015,2.1015,0,0,1-.6514-1.6567Z"/><path d="M168.0977,118.4736l.9052,3.709.918-3.709h.8877l.9228,3.687.9629-3.687h.7911l-1.3672,4.7066h-.8213l-.958-3.6431-.9278,3.6431H168.59l-1.3584-4.7066Z"/><path d="M174.23,116.7246h.8042v.8965H174.23Zm0,1.771h.8042V123.18H174.23Z"/><path d="M176.3877,117.16h.8v1.3139h.752v.646h-.752v3.0718a.3325.3325,0,0,0,.167.33.71.71,0,0,0,.3076.0483q.0571,0,.1231-.0029c.0439-.0019.0957-.0068.1543-.0146v.6284a1.7922,1.7922,0,0,1-.2842.0571,2.7014,2.7014,0,0,1-.3184.0176.8555.8555,0,0,1-.751-.2837,1.2509,1.2509,0,0,1-.1982-.7358V119.12h-.6372v-.646h.6372Z"/><path d="M181.84,118.7241a1.8582,1.8582,0,0,1,.6,1.3316h-.77a1.43,1.43,0,0,0-.32-.7232,1.0175,1.0175,0,0,0-.8047-.2876,1.1109,1.1109,0,0,0-1.081.7373,2.9242,2.9242,0,0,0-.211,1.1807,2.2181,2.2181,0,0,0,.2989,1.1894,1.1593,1.1593,0,0,0,1.72.1831,1.642,1.642,0,0,0,.3984-.8208h.77a1.8617,1.8617,0,0,1-2.0088,1.8018,1.7984,1.7984,0,0,1-1.4717-.6743,2.5774,2.5774,0,0,1-.55-1.6856,2.8348,2.8348,0,0,1,.6025-1.9292,1.9432,1.9432,0,0,1,1.5332-.69A2.0569,2.0569,0,0,1,181.84,118.7241Z"/><path d="M183.2305,116.7026h.791v2.4082a2.2814,2.2814,0,0,1,.5049-.5009,1.7062,1.7062,0,0,1,.9541-.2505,1.4119,1.4119,0,0,1,1.3886.7163,2.4561,2.4561,0,0,1,.1973,1.0854V123.18h-.8125v-2.9663a1.6571,1.6571,0,0,0-.1328-.76.84.84,0,0,0-.8086-.3867,1.3458,1.3458,0,0,0-.8916.3384,1.627,1.627,0,0,0-.3994,1.2788V123.18h-.791Z"/><path d="M189.7051,116.7246h.6679l-2.0468,6.4556h-.669Z"/><path d="M190.9248,116.7246h4.4775v.791h-3.6035v1.96h3.169v.769h-3.169V123.18h-.874Z"/><path d="M198.7559,120.332a.4318.4318,0,0,0,.3652-.2285.7.7,0,0,0,.0527-.3042.6463.6463,0,0,0-.2871-.5889,1.5391,1.5391,0,0,0-.8222-.1831,1.0429,1.0429,0,0,0-.878.3355,1.1106,1.1106,0,0,0-.1885.5522H196.26a1.3659,1.3659,0,0,1,.5644-1.2143,2.3079,2.3079,0,0,1,1.2569-.3413,2.553,2.553,0,0,1,1.3476.3164,1.0729,1.0729,0,0,1,.5137.9844v2.7114a.3431.3431,0,0,0,.0508.1977.2426.2426,0,0,0,.2129.0747,1.0491,1.0491,0,0,0,.1181-.0068c.0449-.0039.0918-.0107.1406-.02v.5844a2.2007,2.2007,0,0,1-.2812.066,2.0572,2.0572,0,0,1-.2637.0131.6508.6508,0,0,1-.5928-.29,1.1042,1.1042,0,0,1-.1357-.435,2.0176,2.0176,0,0,1-.6953.5493,2.1439,2.1439,0,0,1-.9971.2329,1.4845,1.4845,0,0,1-1.07-.3975,1.3186,1.3186,0,0,1-.415-.9936,1.2834,1.2834,0,0,1,.4082-1.0142,1.9542,1.9542,0,0,1,1.0722-.4434Zm-1.6661,2.1368a.9349.9349,0,0,0,.5938.1972,1.8089,1.8089,0,0,0,.8086-.1929,1.0866,1.0866,0,0,0,.6592-1.0488v-.6362a1.34,1.34,0,0,1-.3721.1543,3.0521,3.0521,0,0,1-.4482.0879l-.4776.0615a1.8409,1.8409,0,0,0-.6465.18.6981.6981,0,0,0-.3672.6577A.6518.6518,0,0,0,197.09,122.4688Z"/><path d="M201.1729,116.7026h.7685v2.3423a1.7383,1.7383,0,0,1,1.4082-.6943,1.8474,1.8474,0,0,1,1.4316.604,2.5732,2.5732,0,0,1,.5489,1.7822,3.0508,3.0508,0,0,1-.543,1.8545,1.7618,1.7618,0,0,1-1.5039.7383,1.54,1.54,0,0,1-.9082-.2593,2.1684,2.1684,0,0,1-.4727-.4922v.6021h-.7294Zm3.0244,5.4185a2.5053,2.5053,0,0,0,.32-1.3447,2.2033,2.2033,0,0,0-.32-1.23,1.054,1.054,0,0,0-.9414-.4878,1.3164,1.3164,0,0,0-.95.4,1.79,1.79,0,0,0-.4073,1.3184,2.8932,2.8932,0,0,0,.167,1.0766,1.1577,1.1577,0,0,0,1.169.7779A1.0609,1.0609,0,0,0,204.1973,122.1211Z"/><path d="M206.2656,118.4736h.752v.813a1.8044,1.8044,0,0,1,.4531-.5781,1.1741,1.1741,0,0,1,.83-.34c.0146,0,.039.0014.0742.0044s.0957.0087.1807.0175v.835a1.1629,1.1629,0,0,0-.13-.0176q-.0587-.0044-.1289-.0044a1.1311,1.1311,0,0,0-.919.3843,1.3445,1.3445,0,0,0-.3213.8857V123.18h-.791Z"/><path d="M209.2412,116.7246h.8037v.8965h-.8037Zm0,1.771h.8037V123.18h-.8037Z"/><path d="M214.35,118.7241a1.8508,1.8508,0,0,1,.6,1.3316h-.7685a1.4156,1.4156,0,0,0-.3213-.7232,1.0125,1.0125,0,0,0-.8037-.2876,1.111,1.111,0,0,0-1.0811.7373,2.926,2.926,0,0,0-.2109,1.1807,2.219,2.219,0,0,0,.2988,1.1894,1.16,1.16,0,0,0,1.7207.1831,1.65,1.65,0,0,0,.3975-.8208h.7685a1.8588,1.8588,0,0,1-2.0078,1.8018,1.8028,1.8028,0,0,1-1.4726-.6743,2.5873,2.5873,0,0,1-.5489-1.6856,2.8442,2.8442,0,0,1,.6016-1.9292,1.9479,1.9479,0,0,1,1.5342-.69A2.05,2.05,0,0,1,214.35,118.7241Z"/><path d="M250.7207,155.2266a4.4993,4.4993,0,0,1,.4219,2.1308,5.12,5.12,0,0,1-.3828,2.1231,1.8719,1.8719,0,0,1-1.8106,1.2041,1.8133,1.8133,0,0,1-1.6875-.9844,4.5193,4.5193,0,0,1-.4609-2.2061,5.4341,5.4341,0,0,1,.2773-1.8418,1.8924,1.8924,0,0,1,1.876-1.4316A1.859,1.859,0,0,1,250.7207,155.2266Zm-.7959,4.1923a3.9435,3.9435,0,0,0,.3652-2.03,5.0117,5.0117,0,0,0-.2636-1.7637A1.0056,1.0056,0,0,0,249,154.9316a1.0726,1.0726,0,0,0-1.0234.6582,4.5218,4.5218,0,0,0-.3233,1.9356,4.7605,4.7605,0,0,0,.2071,1.5469,1.1249,1.1249,0,0,0,2.0644.3466Z"/><path d="M254.6279,157.665a.4306.4306,0,0,0,.3653-.2285.7157.7157,0,0,0,.0517-.3037.6477.6477,0,0,0-.2871-.59,1.5408,1.5408,0,0,0-.8223-.1826,1.0444,1.0444,0,0,0-.8769.3349,1.1163,1.1163,0,0,0-.1885.5527h-.7383a1.3649,1.3649,0,0,1,.5645-1.2148,2.3161,2.3161,0,0,1,1.2568-.3408,2.5543,2.5543,0,0,1,1.3477.3164,1.073,1.073,0,0,1,.5137.9844v2.7119a.3421.3421,0,0,0,.0507.1972c.0332.05.1045.0743.2129.0743.0352,0,.0742-.002.1192-.0059.0429-.0039.09-.0117.1406-.0195v.584a2.48,2.48,0,0,1-.2813.0664,2.2975,2.2975,0,0,1-.2636.0127.65.65,0,0,1-.5938-.29,1.1379,1.1379,0,0,1-.1367-.4355,2.0189,2.0189,0,0,1-.6934.55,2.1523,2.1523,0,0,1-.998.2334,1.4829,1.4829,0,0,1-1.07-.3985,1.3168,1.3168,0,0,1-.4151-.9931,1.2785,1.2785,0,0,1,.4092-1.0147,1.9523,1.9523,0,0,1,1.0723-.4433Zm-1.665,2.1368a.9251.9251,0,0,0,.5928.1972,1.8149,1.8149,0,0,0,.8086-.1924,1.0879,1.0879,0,0,0,.6591-1.0488v-.6367a1.3189,1.3189,0,0,1-.373.1543,3.15,3.15,0,0,1-.4473.0879l-.4775.0615a1.839,1.839,0,0,0-.6465.1807.6964.6964,0,0,0-.3672.6572A.6478.6478,0,0,0,252.9629,159.8018Z"/><path d="M266.2207,155.2266a4.4993,4.4993,0,0,1,.4219,2.1308,5.12,5.12,0,0,1-.3828,2.1231,1.8719,1.8719,0,0,1-1.8106,1.2041,1.8133,1.8133,0,0,1-1.6875-.9844,4.5193,4.5193,0,0,1-.4609-2.2061,5.4341,5.4341,0,0,1,.2773-1.8418,1.8924,1.8924,0,0,1,1.876-1.4316A1.859,1.859,0,0,1,266.2207,155.2266Zm-.7959,4.1923a3.9435,3.9435,0,0,0,.3652-2.03,5.0117,5.0117,0,0,0-.2636-1.7637,1.0056,1.0056,0,0,0-1.0264-.6934,1.0726,1.0726,0,0,0-1.0234.6582,4.5218,4.5218,0,0,0-.3233,1.9356,4.7605,4.7605,0,0,0,.2071,1.5469,1.1249,1.1249,0,0,0,2.0644.3466Z"/><path d="M270.7148,156.0566a1.8558,1.8558,0,0,1,.6,1.3321h-.77a1.4166,1.4166,0,0,0-.32-.7227,1.0162,1.0162,0,0,0-.8047-.2881,1.1083,1.1083,0,0,0-1.08.7373,2.926,2.926,0,0,0-.2109,1.1807,2.2083,2.2083,0,0,0,.2988,1.19,1.158,1.158,0,0,0,1.72.1826,1.6364,1.6364,0,0,0,.3974-.82h.77a1.8594,1.8594,0,0,1-2.0079,1.8017,1.8006,1.8006,0,0,1-1.4726-.6748,2.5813,2.5813,0,0,1-.5488-1.6855,2.8379,2.8379,0,0,1,.6015-1.9287,1.9448,1.9448,0,0,1,1.5332-.69A2.0551,2.0551,0,0,1,270.7148,156.0566Z"/><path d="M83.0537,155.2266a4.4993,4.4993,0,0,1,.4219,2.1308,5.12,5.12,0,0,1-.3828,2.1231,1.8719,1.8719,0,0,1-1.8106,1.2041,1.8133,1.8133,0,0,1-1.6875-.9844,4.5193,4.5193,0,0,1-.4609-2.2061,5.4341,5.4341,0,0,1,.2773-1.8418,1.8924,1.8924,0,0,1,1.876-1.4316A1.859,1.859,0,0,1,83.0537,155.2266Zm-.7959,4.1923a3.9435,3.9435,0,0,0,.3652-2.03,5.0094,5.0094,0,0,0-.2636-1.7637,1.0056,1.0056,0,0,0-1.0264-.6934,1.0726,1.0726,0,0,0-1.0234.6582,4.5234,4.5234,0,0,0-.3233,1.9356,4.7605,4.7605,0,0,0,.2071,1.5469,1.1249,1.1249,0,0,0,2.0644.3466Z"/><path d="M86.9609,157.665a.4306.4306,0,0,0,.3653-.2285.7141.7141,0,0,0,.0517-.3037.6477.6477,0,0,0-.2871-.59,1.5407,1.5407,0,0,0-.8222-.1826,1.0446,1.0446,0,0,0-.877.3349,1.1163,1.1163,0,0,0-.1885.5527h-.7383a1.3649,1.3649,0,0,1,.5645-1.2148,2.3161,2.3161,0,0,1,1.2568-.3408,2.5543,2.5543,0,0,1,1.3477.3164,1.073,1.073,0,0,1,.5137.9844v2.7119a.3421.3421,0,0,0,.0507.1972c.0332.05.1045.0743.2129.0743.0352,0,.0743-.002.1192-.0059.0429-.0039.09-.0117.1406-.0195v.584a2.4747,2.4747,0,0,1-.2813.0664,2.2975,2.2975,0,0,1-.2636.0127.65.65,0,0,1-.5938-.29,1.14,1.14,0,0,1-.1367-.4355,2.0189,2.0189,0,0,1-.6934.55,2.1523,2.1523,0,0,1-.998.2334,1.4829,1.4829,0,0,1-1.07-.3985,1.3167,1.3167,0,0,1-.415-.9931,1.2784,1.2784,0,0,1,.4091-1.0147,1.9523,1.9523,0,0,1,1.0723-.4433Zm-1.665,2.1368a.9253.9253,0,0,0,.5928.1972,1.8149,1.8149,0,0,0,.8086-.1924,1.0879,1.0879,0,0,0,.6591-1.0488v-.6367a1.3189,1.3189,0,0,1-.373.1543,3.15,3.15,0,0,1-.4473.0879l-.4775.0615a1.839,1.839,0,0,0-.6465.1807.6964.6964,0,0,0-.3672.6572A.6478.6478,0,0,0,85.2959,159.8018Z"/><path d="M98.5537,155.2266a4.4993,4.4993,0,0,1,.4219,2.1308,5.12,5.12,0,0,1-.3828,2.1231,1.8719,1.8719,0,0,1-1.8106,1.2041,1.8133,1.8133,0,0,1-1.6875-.9844,4.5193,4.5193,0,0,1-.4609-2.2061,5.4341,5.4341,0,0,1,.2773-1.8418,1.8924,1.8924,0,0,1,1.876-1.4316A1.859,1.859,0,0,1,98.5537,155.2266Zm-.7959,4.1923a3.9435,3.9435,0,0,0,.3652-2.03,5.0094,5.0094,0,0,0-.2636-1.7637,1.0056,1.0056,0,0,0-1.0264-.6934,1.0726,1.0726,0,0,0-1.0234.6582,4.5234,4.5234,0,0,0-.3233,1.9356,4.7605,4.7605,0,0,0,.2071,1.5469,1.1249,1.1249,0,0,0,2.0644.3466Z"/><path d="M103.0479,156.0566a1.8561,1.8561,0,0,1,.6,1.3321h-.77a1.4158,1.4158,0,0,0-.32-.7227,1.0162,1.0162,0,0,0-.8047-.2881,1.1081,1.1081,0,0,0-1.08.7373,2.9242,2.9242,0,0,0-.211,1.1807,2.2083,2.2083,0,0,0,.2988,1.19,1.158,1.158,0,0,0,1.72.1826,1.6356,1.6356,0,0,0,.3974-.82h.77a1.8594,1.8594,0,0,1-2.0079,1.8017,1.8006,1.8006,0,0,1-1.4726-.6748,2.5813,2.5813,0,0,1-.5488-1.6855,2.8379,2.8379,0,0,1,.6015-1.9287,1.9448,1.9448,0,0,1,1.5332-.69A2.0556,2.0556,0,0,1,103.0479,156.0566Z"/><polyline class="bd81f07c-627c-46bf-8c63-299298787b24" points="236.644 109.043 245.394 109.043 245.394 190.792 230.644 190.792"/><polyline class="bd81f07c-627c-46bf-8c63-299298787b24" points="236.644 105.293 259.144 105.293 259.144 194.542 229.894 194.542"/><polyline class="bd81f07c-627c-46bf-8c63-299298787b24" points="114.395 109.053 105.645 109.053 105.645 219.532 123.728 219.532"/><polyline class="bd81f07c-627c-46bf-8c63-299298787b24" points="114.645 105.293 91.895 105.293 91.895 224.542 123.477 224.542"/></g></svg>