<?xml version="1.0" encoding="UTF-8"?><!-- Generator: Adobe Illustrator 12.0.1, SVG Export Plug-In . SVG Version: 6.00 Build 51448)  --><!DOCTYPE svg PUBLIC "-//W3C//DTD SVG 1.1//EN" "http://www.w3.org/Graphics/SVG/1.1/DTD/svg11.dtd">
<svg xmlns="http://www.w3.org/2000/svg" xmlns:xlink="http://www.w3.org/1999/xlink" version="1.1" width="341.147" height="266.344" viewBox="0 0 341.147 266.344" overflow="visible" enable-background="new 0 0 341.147 266.344" xml:space="preserve" preserveAspectRatio="xMidYMid meet" zoomAndPan="magnify" contentScriptType="application/ecmascript" contentStyleType="text/css">
<g id="illustration">
	<polyline fill="none" stroke="#000000" stroke-width="0.5" stroke-miterlimit="10" points="115.621,236.496 95.07,236.496    95.07,158.514 228.349,158.562 228.349,133.568  "/>
	<line fill="none" stroke="#FFFFFF" stroke-width="2" stroke-miterlimit="10" x1="118.762" y1="91.557" x2="118.568" y2="53.96"/>
	<polyline fill="none" stroke="#000000" stroke-width="0.5" stroke-miterlimit="10" points="118.69,91.116 118.712,54.68    177.135,54.68 177.135,49.485  "/>
	<polyline fill="none" stroke="#FFFFFF" stroke-width="2" stroke-miterlimit="10" points="319.85,46.653 319.85,65.884    126.522,65.884 126.522,91.057  "/>
	<polyline fill="none" stroke="#000000" stroke-width="0.5" stroke-miterlimit="10" points="320.066,46.653 320.066,66.099    126.307,66.099 126.307,91.057  "/>
	<polyline fill="none" stroke="#000000" stroke-width="0.5" stroke-miterlimit="10" points="272.854,91.699 272.854,70.374    329.72,70.374 329.72,48.485  "/>
	<polyline fill="none" stroke="#000000" stroke-width="0.5" stroke-miterlimit="10" points="81.133,91.699 81.133,78.089    51.391,78.089 51.391,48.829  "/>
	<polyline fill="none" stroke="#FFFFFF" stroke-width="2" stroke-miterlimit="10" points="188.95,46.653 188.95,54.985    234.808,54.985 234.808,91.057  "/>
	<polyline fill="none" stroke="#FFFFFF" stroke-width="2" stroke-miterlimit="10" points="72.02,46.653 72.02,60.544    226.808,60.544 226.808,91.777  "/>
	<polyline fill="none" stroke="#000000" stroke-width="0.5" stroke-miterlimit="10" points="189.166,46.653 189.166,55.2    234.808,55.2 234.808,91.777  "/>
	<polyline fill="none" stroke="#000000" stroke-width="0.5" stroke-miterlimit="10" points="72.02,46.653 72.02,60.76    226.808,60.76 226.808,91.421  "/>
	<polyline fill="none" stroke="#000000" stroke-width="0.5" stroke-miterlimit="10" points="273.745,135.118 273.745,219.248    221.664,219.248  "/>
	<polyline fill="none" stroke="#FFFFFF" stroke-width="2" stroke-miterlimit="10" points="221.664,211.498 248.609,211.498    248.609,165.942 123.636,165.73 123.636,133.156  "/>
	<polyline fill="none" stroke="#000000" stroke-width="0.5" stroke-miterlimit="10" points="115.621,243.829 78.403,243.829    78.403,134.858  "/>
	<g>
		<polyline fill="#949494" points="87.482,32.096 0,32.096 0,26.383 87.482,26.383 87.482,32.096   "/>
		<polyline fill="#464646" points="87.482,37.952 0,37.952 0,32.239 87.482,32.239 87.482,37.952   "/>
		<polyline fill="#949494" points="87.482,43.724 0,43.724 0,38.011 87.482,38.011 87.482,43.724   "/>
		<polyline fill="#464646" points="87.482,49.58 0,49.58 0,43.867 87.482,43.867 87.482,49.58   "/>
		<g>
			<polyline fill="#B3B7BE" points="87.482,15.349 0,15.349 4.493,10.877 82.989,10.877 87.482,15.349    "/>
			<path fill="#444B4C" d="M85.218,24.677c-1.75,0-3.164-1.42-3.164-3.169c0-1.752,1.414-3.169,3.164-3.169V24.677"/>
			<polyline fill="#464646" points="87.482,25.631 0,25.631 0,15.349 87.482,15.349 87.482,25.631    "/>
			<polyline fill="#949494" points="83.211,23.829 4.052,23.829 4.052,17.489 83.211,17.489 83.211,23.829    "/>
			<ellipse fill="#FFFFFF" cx="83.127" cy="20.681" rx="1.44" ry="1.062"/>
		</g>
		<rect x="40.43" y="27.427" fill="#FFFFFF" width="14.232" height="0.595"/>
		<ellipse fill="#FFFFFF" cx="53.604" cy="30.229" rx="1.482" ry="1.019"/>
		<rect x="40.43" y="33.369" fill="#FFFFFF" width="14.232" height="0.594"/>
		<ellipse fill="#FFFFFF" cx="53.604" cy="36.17" rx="1.482" ry="1.019"/>
		<rect x="68.979" y="33.369" fill="#FFFFFF" width="14.232" height="0.594"/>
		<ellipse fill="#FFFFFF" cx="82.153" cy="36.17" rx="1.482" ry="1.019"/>
		<ellipse fill="#FFFFFF" cx="82.153" cy="42.111" rx="1.482" ry="1.019"/>
		<rect x="68.979" y="45.251" fill="#FFFFFF" width="14.232" height="0.594"/>
		<ellipse fill="#FFFFFF" cx="82.153" cy="48.052" rx="1.482" ry="1.019"/>
		<rect x="40.43" y="39.311" fill="#FFFFFF" width="14.232" height="0.594"/>
		<ellipse fill="#FFFFFF" cx="53.604" cy="42.111" rx="1.482" ry="1.019"/>
		<rect x="40.43" y="45.252" fill="#FFFFFF" width="14.232" height="0.594"/>
		<ellipse fill="#FFFFFF" cx="53.604" cy="48.053" rx="1.482" ry="1.019"/>
		<ellipse fill="#FFFFFF" cx="81.984" cy="30.229" rx="1.482" ry="1.019"/>
		<line fill="#FFFFFF" stroke="#FFFFFF" x1="58.475" y1="26.069" x2="58.475" y2="50.004"/>
	</g>
	<g>
		<polyline fill="#949494" points="196.808,32.096 109.325,32.096 109.325,26.383 196.808,26.383 196.808,32.096   "/>
		<polyline fill="#464646" points="196.808,37.952 109.325,37.952 109.325,32.239 196.808,32.239 196.808,37.952   "/>
		<polyline fill="#949494" points="196.808,43.724 109.325,43.724 109.325,38.011 196.808,38.011 196.808,43.724   "/>
		<polyline fill="#464646" points="196.808,49.58 109.325,49.58 109.325,43.867 196.808,43.867 196.808,49.58   "/>
		<g>
			<polyline fill="#B3B7BE" points="196.808,15.349 109.325,15.349 113.818,10.877 192.313,10.877 196.808,15.349    "/>
			<path fill="#444B4C" d="M194.543,24.677c-1.75,0-3.165-1.42-3.165-3.169c0-1.752,1.414-3.169,3.165-3.169V24.677"/>
			<polyline fill="#464646" points="196.808,25.631 109.325,25.631 109.325,15.349 196.808,15.349 196.808,25.631    "/>
			<polyline fill="#949494" points="192.536,23.829 113.375,23.829 113.375,17.489 192.536,17.489 192.536,23.829    "/>
			<ellipse fill="#FFFFFF" cx="192.451" cy="20.681" rx="1.44" ry="1.062"/>
		</g>
		<rect x="149.755" y="27.427" fill="#FFFFFF" width="14.232" height="0.595"/>
		<ellipse fill="#FFFFFF" cx="162.928" cy="30.229" rx="1.482" ry="1.019"/>
		<rect x="149.755" y="33.369" fill="#FFFFFF" width="14.232" height="0.595"/>
		<ellipse fill="#FFFFFF" cx="162.928" cy="36.17" rx="1.482" ry="1.019"/>
		<rect x="178.304" y="33.369" fill="#FFFFFF" width="14.232" height="0.595"/>
		<ellipse fill="#FFFFFF" cx="191.478" cy="36.17" rx="1.482" ry="1.019"/>
		<ellipse fill="#FFFFFF" cx="191.478" cy="42.111" rx="1.482" ry="1.019"/>
		<rect x="178.304" y="45.251" fill="#FFFFFF" width="14.232" height="0.594"/>
		<ellipse fill="#FFFFFF" cx="191.478" cy="48.052" rx="1.482" ry="1.019"/>
		<rect x="149.755" y="39.311" fill="#FFFFFF" width="14.232" height="0.594"/>
		<ellipse fill="#FFFFFF" cx="162.928" cy="42.111" rx="1.482" ry="1.019"/>
		<rect x="149.755" y="45.252" fill="#FFFFFF" width="14.232" height="0.594"/>
		<ellipse fill="#FFFFFF" cx="162.928" cy="48.053" rx="1.482" ry="1.019"/>
		<ellipse fill="#FFFFFF" cx="191.309" cy="30.229" rx="1.482" ry="1.019"/>
		<line fill="#FFFFFF" stroke="#FFFFFF" x1="167.8" y1="26.069" x2="167.8" y2="50.004"/>
	</g>
	<g>
		<polyline fill="#949494" points="341.147,32.096 253.665,32.096 253.665,26.383 341.147,26.383 341.147,32.096   "/>
		<polyline fill="#464646" points="341.147,37.952 253.665,37.952 253.665,32.239 341.147,32.239 341.147,37.952   "/>
		<polyline fill="#949494" points="341.147,43.724 253.665,43.724 253.665,38.011 341.147,38.011 341.147,43.724   "/>
		<polyline fill="#464646" points="341.147,49.58 253.665,49.58 253.665,43.867 341.147,43.867 341.147,49.58   "/>
		<g>
			<polyline fill="#B3B7BE" points="341.147,15.349 253.665,15.349 258.159,10.877 336.654,10.877 341.147,15.349    "/>
			<path fill="#444B4C" d="M338.883,24.677c-1.749,0-3.163-1.42-3.163-3.169c0-1.752,1.414-3.169,3.163-3.169V24.677"/>
			<polyline fill="#464646" points="341.147,25.631 253.665,25.631 253.665,15.349 341.147,15.349 341.147,25.631    "/>
			<polyline fill="#949494" points="336.877,23.829 257.717,23.829 257.717,17.489 336.877,17.489 336.877,23.829    "/>
			<ellipse fill="#FFFFFF" cx="336.792" cy="20.681" rx="1.44" ry="1.062"/>
		</g>
		<rect x="294.095" y="27.427" fill="#FFFFFF" width="14.232" height="0.595"/>
		<ellipse fill="#FFFFFF" cx="307.269" cy="30.229" rx="1.482" ry="1.019"/>
		<rect x="294.095" y="33.369" fill="#FFFFFF" width="14.232" height="0.595"/>
		<ellipse fill="#FFFFFF" cx="307.269" cy="36.17" rx="1.482" ry="1.019"/>
		<rect x="322.646" y="33.369" fill="#FFFFFF" width="14.231" height="0.595"/>
		<ellipse fill="#FFFFFF" cx="335.819" cy="36.17" rx="1.482" ry="1.019"/>
		<ellipse fill="#FFFFFF" cx="335.819" cy="42.111" rx="1.482" ry="1.019"/>
		<rect x="322.646" y="45.251" fill="#FFFFFF" width="14.231" height="0.594"/>
		<ellipse fill="#FFFFFF" cx="335.819" cy="48.052" rx="1.482" ry="1.019"/>
		<rect x="294.095" y="39.311" fill="#FFFFFF" width="14.232" height="0.594"/>
		<ellipse fill="#FFFFFF" cx="307.269" cy="42.111" rx="1.482" ry="1.019"/>
		<rect x="294.095" y="45.252" fill="#FFFFFF" width="14.232" height="0.594"/>
		<ellipse fill="#FFFFFF" cx="307.269" cy="48.053" rx="1.482" ry="1.019"/>
		<ellipse fill="#FFFFFF" cx="335.65" cy="30.229" rx="1.482" ry="1.019"/>
		<line fill="#FFFFFF" stroke="#FFFFFF" x1="312.141" y1="26.069" x2="312.141" y2="50.004"/>
	</g>
	<g>
		<rect x="216.709" y="47.704" width="2.549" height="2.554"/>
		<rect x="228.182" y="47.704" width="2.55" height="2.554"/>
		<rect x="222.445" y="47.704" width="2.549" height="2.554"/>
	</g>
	<path fill="none" stroke="#000000" stroke-width="1.2" stroke-miterlimit="10" d="M247.613,165.706"/>
	<polyline fill="none" stroke="#000000" stroke-width="0.5" stroke-miterlimit="10" points="221.664,211.914 248.609,211.914    248.609,165.942 123.636,165.945 123.636,133.156  "/>
	<g>
		<polyline fill="#434249" points="221.599,253.466 115.261,253.466 115.261,228.644 221.599,228.644 221.599,253.466   "/>
		<path fill="#FFFFFF" d="M140.223,230.835c-16.867,0.686-16.867,1.014-16.867,1.994v16.447c0,0.982,0,1.311,16.867,1.996    c9.834,0.398,20.639,0.646,28.201,0.646s18.373-0.248,28.211-0.646c16.872-0.686,16.872-1.014,16.872-1.996V232.83    c0-0.979,0-1.309-16.872-1.994c-9.838-0.398-20.648-0.646-28.211-0.646S150.055,230.437,140.223,230.835"/>
		<polyline fill="#9B9BBC" points="221.599,228.644 115.261,228.644 119.951,222.023 216.91,222.023 221.599,228.644   "/>
		<g>
			<polygon fill="none" stroke="#FFFFFF" stroke-width="0.5" stroke-linejoin="round" points="221.599,228.644 115.261,228.644      119.951,222.023 216.91,222.023 221.599,228.644    "/>
		</g>
		<path fill="#434249" d="M129.678,248.359c0,0.582-0.424,1.051-0.949,1.051h-1.333c-1.101,0-1.894-4.189-1.894-8.386    c0-4.199,0.793-8.392,1.894-8.392h1.333c0.525,0,0.949,0.471,0.949,1.055V248.359"/>
		<path fill="#434249" d="M133.441,241.03c0-4.321,0.807-8.642,1.926-8.642h1.355c0.531,0,0.962,0.486,0.962,1.087v15.108    c0,0.598-0.431,1.084-0.962,1.084h-1.355C134.248,249.667,133.441,245.353,133.441,241.03"/>
		<path fill="#434249" d="M141.385,241.037c0-4.446,0.819-8.891,1.953-8.891h1.377c0.541,0,0.979,0.5,0.979,1.118v15.544    c0,0.617-0.438,1.117-0.979,1.117h-1.377C142.204,249.925,141.385,245.486,141.385,241.037"/>
		<path fill="#434249" d="M207.186,248.359c0,0.582,0.423,1.051,0.945,1.051h1.336c1.1,0,1.894-4.189,1.894-8.386    c0-4.199-0.794-8.392-1.894-8.392h-1.336c-0.522,0-0.945,0.471-0.945,1.055V248.359"/>
		<path fill="#434249" d="M203.42,241.03c0-4.321-0.809-8.642-1.925-8.642h-1.355c-0.532,0-0.965,0.486-0.965,1.087v15.108    c0,0.598,0.433,1.084,0.965,1.084h1.355C202.611,249.667,203.42,245.353,203.42,241.03"/>
		<path fill="#434249" d="M195.477,241.037c0-4.446-0.818-8.891-1.953-8.891h-1.377c-0.539,0-0.978,0.5-0.978,1.118v15.544    c0,0.617,0.439,1.117,0.978,1.117h1.377C194.658,249.925,195.477,245.486,195.477,241.037"/>
		<path fill="#434249" d="M149.324,241.043c0-4.573,0.833-9.138,1.986-9.138h1.398c0.547,0,0.99,0.512,0.99,1.147v15.981    c0,0.633-0.443,1.146-0.99,1.146h-1.398C150.158,250.181,149.324,245.619,149.324,241.043"/>
		<path fill="#434249" d="M161.71,249.261c0,0.65-0.452,1.178-1.011,1.178h-1.417c-1.171,0-2.015-4.689-2.015-9.387    c0-4.699,0.844-9.391,2.015-9.391h1.417c0.559,0,1.011,0.527,1.011,1.178V249.261"/>
		<path fill="#434249" d="M188.198,248.58c0,1.025-0.756,1.859-1.688,1.859h-20.319c-0.934,0-1.688-0.834-1.688-1.859v-8.213    c0-1.026,0.754-1.858,1.688-1.858h20.319c0.932,0,1.688,0.832,1.688,1.858V248.58"/>
		<path fill="#B3B7BE" d="M185.825,248.951c0,0.822-0.603,1.488-1.349,1.488h-16.254c-0.748,0-1.35-0.666-1.35-1.488v-6.569    c0-0.822,0.602-1.487,1.35-1.487h16.254c0.746,0,1.349,0.665,1.349,1.487V248.951"/>
		<path fill="#434249" d="M183.932,248.388c0,0.525-0.483,0.951-1.081,0.951h-13.003c-0.598,0-1.08-0.426-1.08-0.951v-4.205    c0-0.525,0.482-0.952,1.08-0.952h13.003c0.598,0,1.081,0.427,1.081,0.952V248.388"/>
		<path fill="#434249" d="M174.07,250.439c0,0.26-0.209,0.471-0.47,0.471h-1.507c-0.262,0-0.473-0.211-0.473-0.471    c0-0.262,0.211-0.473,0.473-0.473h1.507C173.861,249.966,174.07,250.177,174.07,250.439"/>
		<path fill="#434249" d="M177.575,250.439c0,0.26-0.211,0.471-0.472,0.471h-1.508c-0.26,0-0.471-0.211-0.471-0.471    c0-0.262,0.211-0.473,0.471-0.473h1.508C177.364,249.966,177.575,250.177,177.575,250.439"/>
		<path fill="#434249" d="M181.08,250.439c0,0.26-0.211,0.471-0.473,0.471h-1.51c-0.26,0-0.471-0.211-0.471-0.471    c0-0.262,0.211-0.473,0.471-0.473h1.51C180.869,249.966,181.08,250.177,181.08,250.439"/>
		<polyline fill="#434249" points="221.599,228.644 115.261,228.644 115.261,203.826 221.599,203.826 221.599,228.644   "/>
		<path fill="#FFFFFF" d="M140.223,206.018c-16.867,0.686-16.867,1.014-16.867,1.994v16.443c0,0.982,0,1.313,16.867,1.998    c9.834,0.396,20.639,0.645,28.201,0.645s18.373-0.248,28.211-0.645c16.872-0.686,16.872-1.016,16.872-1.998v-16.443    c0-0.98,0-1.308-16.872-1.994c-9.838-0.398-20.648-0.646-28.211-0.646S150.055,205.619,140.223,206.018"/>
		<polyline fill="#B3B7BE" points="221.599,203.826 115.261,203.826 119.951,197.205 216.91,197.205 221.599,203.826   "/>
		<g>
			<polygon fill="none" stroke="#FFFFFF" stroke-width="0.5" stroke-linejoin="round" points="221.599,203.826 115.261,203.826      119.951,197.205 216.91,197.205 221.599,203.826    "/>
		</g>
		<path fill="#434249" d="M129.678,223.537c0,0.582-0.424,1.053-0.949,1.053h-1.333c-1.101,0-1.894-4.191-1.894-8.387    c0-4.199,0.793-8.388,1.894-8.388h1.333c0.525,0,0.949,0.47,0.949,1.052V223.537"/>
		<path fill="#434249" d="M133.441,216.208c0-4.322,0.807-8.638,1.926-8.638h1.355c0.531,0,0.962,0.486,0.962,1.085v15.107    c0,0.598-0.431,1.082-0.962,1.082h-1.355C134.248,224.845,133.441,220.531,133.441,216.208"/>
		<path fill="#434249" d="M141.385,216.216c0-4.447,0.819-8.888,1.953-8.888h1.377c0.541,0,0.979,0.5,0.979,1.117v15.541    c0,0.619-0.438,1.117-0.979,1.117h-1.377C142.204,225.103,141.385,220.666,141.385,216.216"/>
		<path fill="#434249" d="M207.186,223.537c0,0.582,0.423,1.053,0.945,1.053h1.336c1.1,0,1.894-4.191,1.894-8.387    c0-4.199-0.794-8.388-1.894-8.388h-1.336c-0.522,0-0.945,0.47-0.945,1.052V223.537"/>
		<path fill="#434249" d="M203.42,216.208c0-4.322-0.809-8.638-1.925-8.638h-1.355c-0.532,0-0.965,0.486-0.965,1.085v15.107    c0,0.598,0.433,1.082,0.965,1.082h1.355C202.611,224.845,203.42,220.531,203.42,216.208"/>
		<path fill="#434249" d="M195.477,216.216c0-4.447-0.818-8.888-1.953-8.888h-1.377c-0.539,0-0.978,0.5-0.978,1.117v15.541    c0,0.619,0.438,1.117,0.978,1.117h1.377C194.658,225.103,195.477,220.666,195.477,216.216"/>
		<path fill="#434249" d="M149.324,216.222c0-4.572,0.833-9.134,1.986-9.134h1.398c0.547,0,0.99,0.512,0.99,1.146v15.979    c0,0.633-0.443,1.146-0.99,1.146h-1.398C150.157,225.359,149.324,220.796,149.324,216.222"/>
		<path fill="#434249" d="M161.71,224.439c0,0.65-0.452,1.178-1.011,1.178h-1.417c-1.171,0-2.015-4.688-2.015-9.387    c0-4.697,0.844-9.386,2.015-9.386h1.417c0.559,0,1.011,0.527,1.011,1.177V224.439"/>
		<path fill="#434249" d="M188.198,223.757c0,1.027-0.756,1.859-1.688,1.859h-20.319c-0.934,0-1.688-0.832-1.688-1.859v-8.213    c0-1.025,0.754-1.857,1.688-1.857h20.319c0.932,0,1.688,0.832,1.688,1.857V223.757"/>
		<path fill="#B3B7BE" d="M185.825,224.13c0,0.82-0.603,1.486-1.349,1.486h-16.254c-0.748,0-1.35-0.666-1.35-1.486v-6.57    c0-0.822,0.602-1.488,1.35-1.488h16.254c0.746,0,1.349,0.666,1.349,1.488V224.13"/>
		<path fill="#434249" d="M183.932,223.568c0,0.523-0.483,0.951-1.081,0.951h-13.003c-0.598,0-1.08-0.428-1.08-0.951v-4.207    c0-0.523,0.482-0.951,1.08-0.951h13.003c0.598,0,1.081,0.428,1.081,0.951V223.568"/>
		<path fill="#434249" d="M174.07,225.617c0,0.26-0.209,0.471-0.47,0.471h-1.507c-0.262,0-0.473-0.211-0.473-0.471    c0-0.262,0.211-0.473,0.473-0.473h1.507C173.861,225.144,174.07,225.355,174.07,225.617"/>
		<path fill="#434249" d="M177.575,225.617c0,0.26-0.211,0.471-0.472,0.471h-1.508c-0.26,0-0.471-0.211-0.471-0.471    c0-0.262,0.211-0.473,0.471-0.473h1.508C177.364,225.144,177.575,225.355,177.575,225.617"/>
		<path fill="#434249" d="M181.08,225.617c0,0.26-0.211,0.471-0.473,0.471h-1.51c-0.26,0-0.471-0.211-0.471-0.471    c0-0.262,0.211-0.473,0.471-0.473h1.51C180.869,225.144,181.08,225.355,181.08,225.617"/>
	</g>
	<rect x="115.34" y="236.141" fill="#FFFFFF" stroke="#000000" stroke-width="0.4" width="40.55" height="10"/>
	<rect x="178.731" y="210.682" fill="#FFFFFF" stroke="#000000" stroke-width="0.4" width="42.833" height="10"/>
	<circle cx="78.373" cy="134.102" r="1.591"/>
	<circle cx="123.812" cy="134.102" r="1.591"/>
	<circle cx="228.406" cy="133.741" r="1.591"/>
	<circle cx="273.715" cy="133.741" r="1.591"/>
	<circle cx="118.706" cy="91.585" r="1.591"/>
	<circle cx="126.434" cy="91.585" r="1.591"/>
	<circle cx="226.775" cy="91.585" r="1.591"/>
	<circle cx="234.908" cy="91.585" r="1.591"/>
	<path d="M274.381,91.585c0,0.879-0.712,1.52-1.591,1.52s-1.592-0.641-1.592-1.52s0.713-1.591,1.592-1.591   S274.381,90.707,274.381,91.585z"/>
	<circle cx="81.069" cy="91.585" r="1.591"/>
	<rect x="41.202" y="39.224" fill="#FFFFFF" stroke="#000000" stroke-width="0.4" width="42.376" height="10"/>
	<rect x="151.115" y="39.224" fill="#FFFFFF" stroke="#000000" stroke-width="0.4" width="41.463" height="10"/>
	<rect x="293.482" y="39.224" fill="#FFFFFF" stroke="#000000" stroke-width="0.4" width="42.377" height="10"/>
	<g>
		<line fill="none" stroke="#000000" stroke-width="0.5" x1="279.469" y1="108.137" x2="287.688" y2="108.137"/>
		<path d="M290.051,107.112c-1.654-0.499-2.729-0.959-4.055-1.491v5.044c0.475-0.225,2.4-0.992,4.055-1.491    c1.77-0.534,3.373-0.9,4.414-1.03C293.424,108.012,291.82,107.647,290.051,107.112z"/>
	</g>
	<g>
		<line fill="none" stroke="#000000" stroke-width="0.5" x1="73.063" y1="106.649" x2="64.843" y2="106.649"/>
		<path d="M62.48,107.674c1.654,0.499,2.729,0.959,4.055,1.491v-5.044c-0.475,0.225-2.4,0.992-4.055,1.491    c-1.77,0.534-3.373,0.9-4.414,1.03C59.107,106.774,60.711,107.139,62.48,107.674z"/>
	</g>
	<g>
		<polyline fill="#FFFFFF" points="270.563,132.125 232.156,132.125 232.156,93.721 270.563,93.721 270.563,132.125   "/>
		<g>
			<polygon fill="none" stroke="#000000" stroke-width="0.5" points="279.714,132.125 223.005,132.125 223.005,93.721      279.714,93.721 279.714,132.125    "/>
		</g>
		<path d="M238.786,112.094c-0.467,0-0.844,0.377-0.844,0.843s0.377,0.843,0.844,0.843h9.41c0.467,0,0.845-0.377,0.845-0.843    s-0.378-0.843-0.845-0.843H238.786"/>
		<polyline points="239.138,115.739 239.138,110.106 235.326,112.911 239.138,115.739   "/>
		<path d="M254.523,112.069c-0.466,0-0.844,0.376-0.844,0.842s0.378,0.842,0.844,0.842h9.409c0.467,0,0.844-0.376,0.844-0.842    s-0.377-0.842-0.844-0.842H254.523"/>
		<polyline points="263.58,110.106 263.58,115.739 267.393,112.937 263.58,110.106   "/>
		<path d="M250.53,116.086v9.41c0,0.467,0.377,0.843,0.844,0.843c0.465,0,0.841-0.376,0.841-0.843v-9.41    c0-0.465-0.376-0.842-0.841-0.842C250.907,115.245,250.53,115.622,250.53,116.086"/>
		<polyline points="254.175,125.145 248.545,125.145 251.347,128.957 254.175,125.145   "/>
		<path d="M250.506,100.35v9.411c0,0.465,0.376,0.843,0.841,0.843c0.467,0,0.844-0.378,0.844-0.843v-9.411    c0-0.465-0.377-0.842-0.844-0.842C250.882,99.508,250.506,99.885,250.506,100.35"/>
		<polyline points="248.545,100.703 254.175,100.703 251.374,96.891 248.545,100.703   "/>
		<path d="M248.536,114.573l-6.657,6.654c-0.329,0.33-0.329,0.863,0,1.192c0.33,0.329,0.863,0.329,1.192,0l6.657-6.655    c0.328-0.328,0.328-0.862,0-1.191C249.399,114.244,248.865,114.244,248.536,114.573"/>
		<polyline points="244.709,123.555 240.727,119.573 240.012,124.252 244.709,123.555   "/>
		<path d="M259.646,103.428l-6.655,6.654c-0.329,0.33-0.329,0.863,0,1.193c0.329,0.328,0.861,0.328,1.19,0l6.656-6.656    c0.329-0.329,0.329-0.863,0-1.191C260.508,103.099,259.975,103.099,259.646,103.428"/>
		<polyline points="258.009,102.293 261.991,106.272 262.706,101.595 258.009,102.293   "/>
		<path d="M253.01,114.556c-0.329,0.329-0.329,0.862,0,1.191l6.654,6.651c0.329,0.33,0.862,0.33,1.191,0    c0.33-0.328,0.33-0.861,0-1.19l-6.654-6.652C253.872,114.227,253.339,114.227,253.01,114.556"/>
		<polyline points="261.991,119.573 258.009,123.555 262.689,124.27 261.991,119.573   "/>
		<path d="M241.863,103.444c-0.33,0.33-0.33,0.862,0,1.192l6.656,6.655c0.329,0.329,0.862,0.329,1.191,0s0.329-0.862,0-1.191    l-6.655-6.656C242.727,103.116,242.193,103.116,241.863,103.444"/>
		<polyline points="240.727,106.272 244.709,102.293 240.029,101.579 240.727,106.272   "/>
	</g>
	<g>
		<polyline fill="#FFFFFF" points="120.779,132.125 82.375,132.125 82.375,93.721 120.779,93.721 120.779,132.125   "/>
		<g>
			<polygon fill="none" stroke="#000000" stroke-width="0.5" points="129.93,132.125 73.224,132.125 73.224,93.721 129.93,93.721      129.93,132.125    "/>
		</g>
		<path d="M89.005,112.094c-0.467,0-0.844,0.377-0.844,0.843s0.377,0.843,0.844,0.843h9.408c0.467,0,0.845-0.377,0.845-0.843    s-0.378-0.843-0.845-0.843H89.005"/>
		<polyline points="89.356,115.739 89.356,110.106 85.545,112.911 89.356,115.739   "/>
		<path d="M104.74,112.069c-0.466,0-0.844,0.376-0.844,0.842s0.378,0.842,0.844,0.842h9.409c0.467,0,0.844-0.376,0.844-0.842    s-0.377-0.842-0.844-0.842H104.74"/>
		<polyline points="113.796,110.106 113.796,115.739 117.609,112.937 113.796,110.106   "/>
		<path d="M100.747,116.086v9.41c0,0.467,0.377,0.843,0.844,0.843c0.465,0,0.841-0.376,0.841-0.843v-9.41    c0-0.465-0.376-0.842-0.841-0.842C101.124,115.245,100.747,115.622,100.747,116.086"/>
		<polyline points="104.391,125.145 98.761,125.145 101.563,128.957 104.391,125.145   "/>
		<path d="M100.722,100.35v9.411c0,0.465,0.376,0.843,0.841,0.843c0.467,0,0.844-0.378,0.844-0.843v-9.411    c0-0.465-0.377-0.842-0.844-0.842C101.098,99.508,100.722,99.885,100.722,100.35"/>
		<polyline points="98.761,100.703 104.391,100.703 101.59,96.891 98.761,100.703   "/>
		<path d="M98.752,114.573l-6.655,6.654c-0.329,0.33-0.329,0.863,0,1.192s0.862,0.329,1.191,0l6.656-6.655    c0.328-0.328,0.328-0.862,0-1.191C99.616,114.244,99.082,114.244,98.752,114.573"/>
		<polyline points="94.925,123.555 90.946,119.573 90.23,124.252 94.925,123.555   "/>
		<path d="M109.862,103.428l-6.655,6.654c-0.329,0.33-0.329,0.863,0,1.193c0.329,0.328,0.861,0.328,1.19,0l6.656-6.656    c0.329-0.329,0.329-0.863,0-1.191C110.724,103.099,110.191,103.099,109.862,103.428"/>
		<polyline points="108.225,102.293 112.208,106.272 112.922,101.595 108.225,102.293   "/>
		<path d="M103.226,114.556c-0.329,0.329-0.329,0.862,0,1.191l6.654,6.651c0.329,0.33,0.862,0.33,1.191,0    c0.33-0.328,0.33-0.861,0-1.19l-6.654-6.652C104.088,114.227,103.555,114.227,103.226,114.556"/>
		<polyline points="112.208,119.573 108.225,123.555 112.906,124.27 112.208,119.573   "/>
		<path d="M92.082,103.444c-0.33,0.33-0.33,0.862,0,1.192l6.654,6.655c0.329,0.329,0.862,0.329,1.191,0s0.329-0.862,0-1.191    l-6.654-6.656C92.944,103.116,92.411,103.116,92.082,103.444"/>
		<polyline points="90.946,106.272 94.925,102.293 90.248,101.579 90.946,106.272   "/>
	</g>
	<rect x="239.168" y="72.088" fill="#FFFFFF" stroke="#000000" stroke-width="0.4" width="24.384" height="21.559"/>
	<rect x="89.382" y="72.088" fill="#FFFFFF" stroke="#000000" stroke-width="0.4" width="24.382" height="21.559"/>
	<rect x="239.168" y="132.088" fill="#FFFFFF" stroke="#000000" stroke-width="0.4" width="24.384" height="21.559"/>
	<rect x="89.382" y="132.088" fill="#FFFFFF" stroke="#000000" stroke-width="0.4" width="24.382" height="21.559"/>
</g>
<g id="Text">
	<text transform="matrix(0.9981 0 0 1 4.7129 7.7129)" font-family="'HelveticaNeue-Roman'" font-size="9">Host 1</text>
	<text transform="matrix(0.9981 0 0 1 43.4673 47.5146)" font-family="'HelveticaNeue-Roman'" font-size="8">CNA Ports</text>
	<text transform="matrix(0.9981 0 0 1 116.9561 244.4321)" font-family="'HelveticaNeue-Roman'" font-size="8">UTA Ports</text>
	<text transform="matrix(0.9981 0 0 1 180.3472 218.9751)" font-family="'HelveticaNeue-Roman'" font-size="8">UTA Ports</text>
	<text transform="matrix(0.9981 0 0 1 152.731 47.5146)" font-family="'HelveticaNeue-Roman'" font-size="8">CNA Ports</text>
	<text transform="matrix(0.9981 0 0 1 295.0967 47.5146)" font-family="'HelveticaNeue-Roman'" font-size="8">CNA Ports</text>
	<text transform="matrix(0.9981 0 0 1 144.0874 195.2339)" font-family="'HelveticaNeue-Roman'" font-size="9">Controller 1</text>
	<text transform="matrix(0.9981 0 0 1 144.0874 264.4185)" font-family="'HelveticaNeue-Roman'" font-size="9">Controller 2</text>
	<text transform="matrix(0.9981 0 0 1 81.4531 236.3462)" font-family="'HelveticaNeue-Roman'" font-size="9">2b</text>
	<text transform="matrix(0.9981 0 0 1 65.811 236.3462)" font-family="'HelveticaNeue-Roman'" font-size="9">2a</text>
	<text transform="matrix(0.9981 0 0 1 274.9258 209.3501)" font-family="'HelveticaNeue-Roman'" font-size="9">2b</text>
	<text transform="matrix(0.9981 0 0 1 251.1172 209.3501)" font-family="'HelveticaNeue-Roman'" font-size="9">2a</text>
	<text transform="matrix(0.9981 0 0 1 113.8496 7.7129)" font-family="'HelveticaNeue-Roman'" font-size="9">Host 2</text>
	<text transform="matrix(0.9981 0 0 1 257.8398 7.7129)" font-family="'HelveticaNeue-Roman'" font-size="9">Host N</text>
	<text transform="matrix(0.9981 0 0 1 16.4429 132.1377)" font-family="'HelveticaNeue-Roman'" font-size="9">FCoE Switch</text>
	<text transform="matrix(0.9981 0 0 1 295.7051 111.0366)" font-family="'HelveticaNeue-Roman'" font-size="9">IP Network</text>
	<text transform="matrix(0.9981 0 0 1 11.6523 109.5366)" font-family="'HelveticaNeue-Roman'" font-size="9">IP Network</text>
	<text transform="matrix(0.9981 0 0 1 281.9004 131.5459)" font-family="'HelveticaNeue-Roman'" font-size="9">FCoE Switch</text>
	<text transform="matrix(0.9981 0 0 1 242.9312 80.3789)"><tspan x="0" y="0" font-family="'HelveticaNeue-Roman'" font-size="8">DCB</tspan><tspan x="-1.036" y="9.6" font-family="'HelveticaNeue-Roman'" font-size="8">Ports</tspan></text>
	<text transform="matrix(0.9981 0 0 1 93.1455 80.3789)"><tspan x="0" y="0" font-family="'HelveticaNeue-Roman'" font-size="8">DCB</tspan><tspan x="-1.036" y="9.6" font-family="'HelveticaNeue-Roman'" font-size="8">Ports</tspan></text>
	<text transform="matrix(0.9981 0 0 1 242.9312 140.3789)"><tspan x="0" y="0" font-family="'HelveticaNeue-Roman'" font-size="8">DCB</tspan><tspan x="-1.036" y="9.6" font-family="'HelveticaNeue-Roman'" font-size="8">Ports</tspan></text>
	<text transform="matrix(0.9981 0 0 1 93.1455 140.3789)"><tspan x="0" y="0" font-family="'HelveticaNeue-Roman'" font-size="8">DCB</tspan><tspan x="-1.036" y="9.6" font-family="'HelveticaNeue-Roman'" font-size="8">Ports</tspan></text>
</g>
</svg>