<svg xmlns="http://www.w3.org/2000/svg" viewBox="0 0 356.5879 212.6016"><defs><style>.adb60cbd-8599-4d52-ad8f-e9e3b1d90ad9,.b26b05b1-2ea4-49bc-b7e1-215b05d3234e,.b8c6bab5-532f-4686-ad69-a2a317ab7eff,.e4f5b4c9-cf37-46fa-b82a-c961aa7a1719{fill:none;}.a371c212-15c3-414e-9a32-32febe1ee6a8,.b8c6bab5-532f-4686-ad69-a2a317ab7eff,.e018a293-1144-4511-9efd-504c41032578{stroke:#231f20;}.a371c212-15c3-414e-9a32-32febe1ee6a8,.a59b11aa-3bcd-4e32-a434-685fc050ba62,.b8c6bab5-532f-4686-ad69-a2a317ab7eff,.bf6b5645-eb0f-4d42-bbf0-b80c576dd2a1,.e018a293-1144-4511-9efd-504c41032578,.e3a4c0f5-120e-4187-a3fd-5f0a353a4a6a,.e4f5b4c9-cf37-46fa-b82a-c961aa7a1719,.e81360a2-4fdf-4245-ba1a-b19e683e281e,.ea867fc7-bb93-41ac-a06e-5727812a0a49{stroke-linecap:round;stroke-linejoin:round;}.a371c212-15c3-414e-9a32-32febe1ee6a8,.a59b11aa-3bcd-4e32-a434-685fc050ba62,.adb60cbd-8599-4d52-ad8f-e9e3b1d90ad9,.b26b05b1-2ea4-49bc-b7e1-215b05d3234e,.b8c6bab5-532f-4686-ad69-a2a317ab7eff,.bf6b5645-eb0f-4d42-bbf0-b80c576dd2a1,.e018a293-1144-4511-9efd-504c41032578,.e3a4c0f5-120e-4187-a3fd-5f0a353a4a6a,.e4f5b4c9-cf37-46fa-b82a-c961aa7a1719,.e81360a2-4fdf-4245-ba1a-b19e683e281e,.ea867fc7-bb93-41ac-a06e-5727812a0a49{stroke-width:0.5px;}.ea6e15d7-5fff-445d-9853-149cd0fd172d{fill:#878e94;}.b26b05b1-2ea4-49bc-b7e1-215b05d3234e,.be2125d8-b67d-4a27-888d-c0e71236d2b0{stroke:#fff;}.a9adb19e-8619-45ff-8abb-6552973499e9{fill:#b3b7be;}.a59b11aa-3bcd-4e32-a434-685fc050ba62,.be2125d8-b67d-4a27-888d-c0e71236d2b0,.e018a293-1144-4511-9efd-504c41032578,.e3a4c0f5-120e-4187-a3fd-5f0a353a4a6a,.ee2a014e-5a3c-4ac0-9e11-534b4d03095a{fill:#fff;}.adb60cbd-8599-4d52-ad8f-e9e3b1d90ad9{stroke:#b3b7be;}.aa6eeb81-6516-41f3-a754-bb1ff42faa3b{fill:#949494;}.e3ee4698-fe76-42d5-9c62-decda772161f{fill:#464646;}.aeb0f1fc-a879-4788-9525-6faafcdfdd41{fill:#444b4c;}.a371c212-15c3-414e-9a32-32febe1ee6a8{fill:#b2b2b2;}.e81360a2-4fdf-4245-ba1a-b19e683e281e{fill:#666;stroke:#666;}.a59b11aa-3bcd-4e32-a434-685fc050ba62,.bf6b5645-eb0f-4d42-bbf0-b80c576dd2a1,.e4f5b4c9-cf37-46fa-b82a-c961aa7a1719{stroke:#000;}.ea867fc7-bb93-41ac-a06e-5727812a0a49{fill:#3f3f3f;}.e3a4c0f5-120e-4187-a3fd-5f0a353a4a6a,.ea867fc7-bb93-41ac-a06e-5727812a0a49{stroke:#3f3f3f;}.bf6b5645-eb0f-4d42-bbf0-b80c576dd2a1{fill:#8c8c8c;}</style></defs><g id="e3b373e4-b161-4772-aa1c-3f4447cbb7a8" data-name="box_outline"><path d="M161.6851,158.5078a2.2939,2.2939,0,0,1,.7426,1.4688h-.8525a1.6225,1.6225,0,0,0-1.7607-1.3536,1.8957,1.8957,0,0,0-1.5127.67,3.0983,3.0983,0,0,0-.5762,2.0566,3.0246,3.0246,0,0,0,.52,1.84,1.8055,1.8055,0,0,0,1.5523.707,1.6307,1.6307,0,0,0,1.4458-.7432,2.8523,2.8523,0,0,0,.393-1.0283h.8526a2.9244,2.9244,0,0,1-.7471,1.709,2.64,2.64,0,0,1-2.05.831,2.6882,2.6882,0,0,1-1.8682-.6816,4.2322,4.2322,0,0,1-.2475-5.1279,2.7149,2.7149,0,0,1,2.228-.9932A2.6,2.6,0,0,1,161.6851,158.5078Z"/><path d="M166.9233,160.2568a2.3732,2.3732,0,0,1,.6241,1.7823,3.07,3.07,0,0,1-.55,1.8789,1.9833,1.9833,0,0,1-1.7061.7422,1.92,1.92,0,0,1-1.5317-.6563,2.6016,2.6016,0,0,1-.5674-1.7627,2.8177,2.8177,0,0,1,.5976-1.8877,2.0006,2.0006,0,0,1,1.606-.7031A2.1126,2.1126,0,0,1,166.9233,160.2568Zm-.4912,3.128a2.9854,2.9854,0,0,0,.2891-1.3233,2.3784,2.3784,0,0,0-.2085-1.0713,1.172,1.172,0,0,0-1.1387-.6494,1.12,1.12,0,0,0-1.0429.5537,2.58,2.58,0,0,0-.3257,1.334,2.2429,2.2429,0,0,0,.3257,1.25,1.1437,1.1437,0,0,0,1.0346.501A1.0765,1.0765,0,0,0,166.4321,163.3848Z"/><path d="M168.5186,159.7871h.7514v.668a2.1219,2.1219,0,0,1,.7075-.5938,1.9011,1.9011,0,0,1,.8306-.18,1.3682,1.3682,0,0,1,1.3535.6993,2.4757,2.4757,0,0,1,.1934,1.0937v3.0195h-.8042v-2.9668a1.6055,1.6055,0,0,0-.1275-.6943.7725.7725,0,0,0-.7646-.4394,1.5223,1.5223,0,0,0-.4614.0576,1.1873,1.1873,0,0,0-.5713.3867,1.1522,1.1522,0,0,0-.2569.4805,3.2142,3.2142,0,0,0-.06.71v2.4658h-.791Z"/><path d="M173.6821,158.4727h.8v1.3144h.7515v.6465h-.7515v3.0713a.3308.3308,0,0,0,.167.3291.694.694,0,0,0,.3076.0488q.0571,0,.1231-.0029t.1538-.0147v.6289a1.877,1.877,0,0,1-.2837.0567,2.694,2.694,0,0,1-.3184.0176.8573.8573,0,0,1-.7514-.2832,1.2613,1.2613,0,0,1-.1978-.7364v-3.1152h-.6372v-.6465h.6372Z"/><path d="M176.0464,159.7871h.7515V160.6a1.8119,1.8119,0,0,1,.4526-.5781,1.1748,1.1748,0,0,1,.8306-.34c.0146,0,.04.002.0747.0039q.0526.006.18.0176v.836a.8268.8268,0,0,0-.13-.0176c-.0391-.0039-.0826-.0049-.1294-.0049a1.13,1.13,0,0,0-.9185.3838,1.3479,1.3479,0,0,0-.3208.8867v2.707h-.791Z"/><path d="M182.4316,160.2568a2.3732,2.3732,0,0,1,.6241,1.7823,3.0669,3.0669,0,0,1-.55,1.8789,1.9839,1.9839,0,0,1-1.7061.7422,1.9222,1.9222,0,0,1-1.5322-.6563,2.6039,2.6039,0,0,1-.5669-1.7627,2.8153,2.8153,0,0,1,.5981-1.8877,2,2,0,0,1,1.6055-.7031A2.1133,2.1133,0,0,1,182.4316,160.2568Zm-.4912,3.128a2.9922,2.9922,0,0,0,.2891-1.3233,2.3855,2.3855,0,0,0-.208-1.0713,1.1725,1.1725,0,0,0-1.1387-.6494,1.1188,1.1188,0,0,0-1.043.5537,2.5757,2.5757,0,0,0-.3261,1.334,2.24,2.24,0,0,0,.3261,1.25,1.1426,1.1426,0,0,0,1.0342.501A1.076,1.076,0,0,0,181.94,163.3848Z"/><path d="M184.0488,158.0381h.791v6.456h-.791Z"/><path d="M186.0488,158.0381h.791v6.456h-.791Z"/><path d="M190.9336,159.916a1.7935,1.7935,0,0,1,.7109.6094,2.0967,2.0967,0,0,1,.3145.83,5.4322,5.4322,0,0,1,.07,1.0371h-3.4238a2.0417,2.0417,0,0,0,.3359,1.1523,1.1176,1.1176,0,0,0,.9727.4346,1.2458,1.2458,0,0,0,.98-.4111,1.3857,1.3857,0,0,0,.291-.5508h.7774a1.6342,1.6342,0,0,1-.2031.5781,2.1138,2.1138,0,0,1-.3887.5195,1.8233,1.8233,0,0,1-.8848.4746,2.6673,2.6673,0,0,1-.6406.07,1.9649,1.9649,0,0,1-1.4805-.6387,2.4953,2.4953,0,0,1-.6074-1.791,2.7157,2.7157,0,0,1,.6113-1.8418,2.0153,2.0153,0,0,1,1.5987-.7071A2.1342,2.1342,0,0,1,190.9336,159.916Zm.2832,1.8486a2.0783,2.0783,0,0,0-.2227-.8212,1.1375,1.1375,0,0,0-1.0761-.5723,1.1876,1.1876,0,0,0-.9063.3945,1.4959,1.4959,0,0,0-.3887.999Z"/><path d="M193.0527,159.7871h.752V160.6a1.8151,1.8151,0,0,1,.4531-.5781,1.1737,1.1737,0,0,1,.83-.34c.0146,0,.0391.002.0742.0039.0352.004.0957.01.1807.0176v.836a.83.83,0,0,0-.13-.0176c-.0391-.0039-.082-.0049-.1289-.0049a1.1308,1.1308,0,0,0-.919.3838,1.3488,1.3488,0,0,0-.3212.8867v2.707h-.7911Z"/><path d="M198.8105,160.0371v-.6055a3.2407,3.2407,0,0,0,1.1954-.2793,1.3819,1.3819,0,0,0,.5048-.9257h.6241v6.2675h-.8438v-4.457Z"/><path d="M144.1958,122.7441a1.8142,1.8142,0,0,0,.25.8916,1.63,1.63,0,0,0,1.4776.6416,2.5281,2.5281,0,0,0,.8637-.1406.9894.9894,0,0,0,.7534-.9756.8511.8511,0,0,0-.3193-.7509,3.1592,3.1592,0,0,0-1.0132-.3829l-.8471-.1972a3.7538,3.7538,0,0,1-1.1749-.4268,1.3638,1.3638,0,0,1-.5961-1.208,1.8869,1.8869,0,0,1,.5859-1.4287,2.31,2.31,0,0,1,1.6592-.5576,2.8233,2.8233,0,0,1,1.6787.49,1.7866,1.7866,0,0,1,.69,1.5664h-.8218a1.6616,1.6616,0,0,0-.2695-.7959,1.5339,1.5339,0,0,0-1.3018-.5049,1.4652,1.4652,0,0,0-1.0664.3243,1.0375,1.0375,0,0,0-.3242.7558.7444.7444,0,0,0,.3833.6953,5.4914,5.4914,0,0,0,1.1367.3516l.877.2061a2.6252,2.6252,0,0,1,.98.4091,1.5471,1.5471,0,0,1,.5962,1.3135,1.6534,1.6534,0,0,1-.7608,1.5342,3.35,3.35,0,0,1-1.768.4609,2.6021,2.6021,0,0,1-1.8384-.6152,2.1005,2.1005,0,0,1-.6514-1.6563Z"/><path d="M149.522,118.3711h.8042v.8965h-.8042Zm0,1.7715h.8042v4.6836h-.8042Z"/><path d="M151.5215,120.12h.7514v.668a2.095,2.095,0,0,1,.7076-.5928,1.873,1.873,0,0,1,.8305-.1807,1.3708,1.3708,0,0,1,1.3536.6983,2.4866,2.4866,0,0,1,.1933,1.0947v3.0186h-.8042V121.86a1.6073,1.6073,0,0,0-.1274-.6944.7726.7726,0,0,0-.7647-.4394,1.592,1.592,0,0,0-.4614.0566,1.1892,1.1892,0,0,0-.5713.3867,1.1649,1.1649,0,0,0-.2568.4824,3.1923,3.1923,0,0,0-.06.709v2.4649h-.791Z"/><path d="M159.1436,120.3086a2.1858,2.1858,0,0,1,.455.4492v-.5937h.73v4.28a3.1644,3.1644,0,0,1-.2627,1.4151,1.8856,1.8856,0,0,1-1.8525.958,2.2723,2.2723,0,0,1-1.2749-.3408,1.3294,1.3294,0,0,1-.5781-1.0655h.8042a.8918.8918,0,0,0,.227.4873,1.4347,1.4347,0,0,0,2.0239-.3769,3.6305,3.6305,0,0,0,.1529-1.35,1.55,1.55,0,0,1-.5689.5361,2.0359,2.0359,0,0,1-2.2129-.3662,2.3955,2.3955,0,0,1-.5713-1.7959,2.7255,2.7255,0,0,1,.5757-1.8457,1.777,1.777,0,0,1,1.39-.6631A1.7052,1.7052,0,0,1,159.1436,120.3086Zm.0966.8486a1.1471,1.1471,0,0,0-.914-.4218,1.1286,1.1286,0,0,0-1.1367.7822,3.0752,3.0752,0,0,0-.1617,1.0937,1.9494,1.9494,0,0,0,.3213,1.211,1.0352,1.0352,0,0,0,.8638.416,1.2123,1.2123,0,0,0,1.1933-.7695,2.49,2.49,0,0,0,.1924-1.0157A1.971,1.971,0,0,0,159.24,121.1572Z"/><path d="M161.5542,118.3711h.791v6.4551h-.791Z"/><path d="M166.439,120.25a1.7791,1.7791,0,0,1,.7119.6084,2.1143,2.1143,0,0,1,.3144.8311,5.4818,5.4818,0,0,1,.07,1.0371h-3.4234a2.0336,2.0336,0,0,0,.336,1.1523,1.1189,1.1189,0,0,0,.9721.4336,1.25,1.25,0,0,0,.981-.41,1.4048,1.4048,0,0,0,.29-.5527h.7778a1.6367,1.6367,0,0,1-.2041.5781,2.0815,2.0815,0,0,1-.3877.5215,1.8224,1.8224,0,0,1-.8852.4746,2.67,2.67,0,0,1-.6411.07,1.9605,1.9605,0,0,1-1.4805-.6406,2.4941,2.4941,0,0,1-.6069-1.79,2.7121,2.7121,0,0,1,.6113-1.8408,2.0091,2.0091,0,0,1,1.5986-.7081A2.1307,2.1307,0,0,1,166.439,120.25Zm.2832,1.8477a2.0711,2.0711,0,0,0-.2222-.8223,1.1365,1.1365,0,0,0-1.0767-.57,1.19,1.19,0,0,0-.9062.3926,1.4937,1.4937,0,0,0-.3877,1Z"/><path d="M171.7144,122.7441a1.8142,1.8142,0,0,0,.2495.8916,1.63,1.63,0,0,0,1.4775.6416,2.5291,2.5291,0,0,0,.8638-.1406.99.99,0,0,0,.7534-.9756.8513.8513,0,0,0-.3193-.7509,3.1611,3.1611,0,0,0-1.0132-.3829l-.8472-.1972a3.754,3.754,0,0,1-1.1748-.4268,1.3636,1.3636,0,0,1-.5962-1.208,1.8869,1.8869,0,0,1,.5859-1.4287,2.31,2.31,0,0,1,1.6592-.5576,2.823,2.823,0,0,1,1.6787.49,1.7864,1.7864,0,0,1,.69,1.5664H174.9a1.6616,1.6616,0,0,0-.2695-.7959,1.534,1.534,0,0,0-1.3018-.5049,1.4652,1.4652,0,0,0-1.0664.3243,1.0375,1.0375,0,0,0-.3242.7558.7442.7442,0,0,0,.3833.6953,5.4914,5.4914,0,0,0,1.1367.3516l.8769.2061a2.6237,2.6237,0,0,1,.98.4091,1.5468,1.5468,0,0,1,.5962,1.3135,1.6536,1.6536,0,0,1-.7607,1.5342,3.35,3.35,0,0,1-1.7681.4609,2.6021,2.6021,0,0,1-1.8384-.6152,2.1008,2.1008,0,0,1-.6513-1.6563Z"/><path d="M177.4077,120.12l.9053,3.709.9175-3.709h.8886l.9219,3.6865.9629-3.6865h.791l-1.3672,4.7061h-.82l-.959-3.6426-.9272,3.6426H177.9l-1.3584-4.7061Z"/><path d="M183.54,118.3711h.8038v.8965H183.54Zm0,1.7715h.8038v4.6836H183.54Z"/><path d="M185.6973,118.8066h.8007V120.12h.751v.6455h-.751v3.0723a.3335.3335,0,0,0,.1661.33.7325.7325,0,0,0,.3086.0478q.0557,0,.123-.0029c.043-.002.0947-.0068.1533-.0147v.628a1.6655,1.6655,0,0,1-.2842.0576,2.6752,2.6752,0,0,1-.3183.0176.8566.8566,0,0,1-.751-.2842,1.2545,1.2545,0,0,1-.1982-.7354v-3.1162h-.6368V120.12h.6368Z"/><path d="M191.1494,120.3711a1.8534,1.8534,0,0,1,.6,1.331h-.7685a1.4286,1.4286,0,0,0-.3213-.7236,1.0137,1.0137,0,0,0-.8037-.2871,1.1129,1.1129,0,0,0-1.0821.7373,2.9256,2.9256,0,0,0-.2109,1.1807,2.2214,2.2214,0,0,0,.2988,1.1894,1.1623,1.1623,0,0,0,1.7207.1836,1.6655,1.6655,0,0,0,.3985-.8213h.7685a1.8612,1.8612,0,0,1-2.0088,1.8018,1.8007,1.8007,0,0,1-1.4716-.6738,2.5835,2.5835,0,0,1-.55-1.6856,2.8406,2.8406,0,0,1,.6025-1.93,1.9462,1.9462,0,0,1,1.5342-.6894A2.0541,2.0541,0,0,1,191.1494,120.3711Z"/><path d="M192.54,118.35h.7911v2.4082a2.3114,2.3114,0,0,1,.5048-.5019,1.7162,1.7162,0,0,1,.9541-.25,1.4089,1.4089,0,0,1,1.3887.7168,2.4367,2.4367,0,0,1,.1983,1.0849v3.0186h-.8135V121.86a1.6639,1.6639,0,0,0-.1319-.7608.8422.8422,0,0,0-.8086-.3867,1.35,1.35,0,0,0-.8925.3389,1.6289,1.6289,0,0,0-.3994,1.2783v2.4961H192.54Z"/><path d="M199.0156,118.3711h.668l-2.0479,6.4551h-.6689Z"/><path d="M200.2344,118.3711h4.4785v.791h-3.6035v1.96h3.1679v.7685h-3.1679v2.9356h-.875Z"/><path d="M208.0664,121.9785a.429.429,0,0,0,.3643-.2285.7005.7005,0,0,0,.0527-.3047.6446.6446,0,0,0-.2871-.5879,1.5274,1.5274,0,0,0-.8223-.1836,1.04,1.04,0,0,0-.8779.336,1.115,1.115,0,0,0-.1875.5517H205.57a1.3625,1.3625,0,0,1,.5635-1.2138,2.3,2.3,0,0,1,1.2568-.3418,2.5534,2.5534,0,0,1,1.3477.3164,1.0729,1.0729,0,0,1,.5137.9843v2.711a.3527.3527,0,0,0,.0507.1982.2439.2439,0,0,0,.2129.0752.8933.8933,0,0,0,.1192-.0078,1.36,1.36,0,0,0,.1406-.0195v.5849a2.037,2.037,0,0,1-.2813.0655,1.8878,1.8878,0,0,1-.2636.0136.6514.6514,0,0,1-.5938-.29,1.1169,1.1169,0,0,1-.1357-.4346,2.0118,2.0118,0,0,1-.6944.5489,2.15,2.15,0,0,1-.998.2324,1.4876,1.4876,0,0,1-1.07-.3965,1.3233,1.3233,0,0,1-.4141-.9941,1.28,1.28,0,0,1,.4082-1.0137,1.9369,1.9369,0,0,1,1.0723-.4434Zm-1.666,2.1367a.935.935,0,0,0,.5937.1973,1.81,1.81,0,0,0,.8086-.1934,1.0844,1.0844,0,0,0,.6582-1.0488v-.6357a1.3424,1.3424,0,0,1-.372.1543,2.9277,2.9277,0,0,1-.4483.0879l-.4775.0615a1.8351,1.8351,0,0,0-.6455.18.6982.6982,0,0,0-.3672.6582A.6481.6481,0,0,0,206.4,124.1152Z"/><path d="M210.4824,118.35h.77v2.3418a1.738,1.738,0,0,1,1.4072-.6943,1.8451,1.8451,0,0,1,1.4316.6045,2.5645,2.5645,0,0,1,.55,1.7812,3.0538,3.0538,0,0,1-.5429,1.8555,1.7619,1.7619,0,0,1-1.5039.7383,1.5463,1.5463,0,0,1-.9092-.26,2.1651,2.1651,0,0,1-.4717-.4922v.6016h-.73Zm3.0254,5.418a2.5055,2.5055,0,0,0,.3193-1.3447,2.2031,2.2031,0,0,0-.3193-1.23,1.0535,1.0535,0,0,0-.9414-.4873,1.3184,1.3184,0,0,0-.9512.3994,1.794,1.794,0,0,0-.4072,1.3184,2.917,2.917,0,0,0,.167,1.0771,1.1591,1.1591,0,0,0,1.1689.7773A1.0623,1.0623,0,0,0,213.5078,123.7676Z"/><path d="M215.5762,120.12h.7519v.8135a1.7741,1.7741,0,0,1,.4522-.5781,1.1752,1.1752,0,0,1,.831-.3409.708.708,0,0,1,.0742.0049c.0352.002.0957.0078.18.0176v.834q-.07-.0117-.1289-.0176c-.039-.0019-.083-.0039-.13-.0039a1.1326,1.1326,0,0,0-.9189.3848,1.3438,1.3438,0,0,0-.32.8847v2.7071h-.791Z"/><path d="M218.5508,118.3711h.8047v.8965h-.8047Zm0,1.7715h.8047v4.6836h-.8047Z"/><path d="M223.66,120.3711a1.8534,1.8534,0,0,1,.6,1.331h-.77a1.4268,1.4268,0,0,0-.32-.7236,1.0159,1.0159,0,0,0-.8047-.2871,1.11,1.11,0,0,0-1.08.7373,2.9238,2.9238,0,0,0-.211,1.1807,2.2214,2.2214,0,0,0,.2988,1.1894,1.0228,1.0228,0,0,0,.94.4824,1.0339,1.0339,0,0,0,.78-.2988,1.6388,1.6388,0,0,0,.3974-.8213h.77a1.861,1.861,0,0,1-2.0078,1.8018,1.8027,1.8027,0,0,1-1.4727-.6738,2.5834,2.5834,0,0,1-.5488-1.6856,2.8408,2.8408,0,0,1,.6015-1.93,1.9442,1.9442,0,0,1,1.5332-.6894A2.0537,2.0537,0,0,1,223.66,120.3711Z"/><path d="M75.7163,132.3711v-.6074a3.1935,3.1935,0,0,0,1.1953-.2793,1.3681,1.3681,0,0,0,.5054-.9239h.624v6.2657h-.8437v-4.4551Z"/><path d="M82.9629,133.9785a.43.43,0,0,0,.3647-.2285.6989.6989,0,0,0,.0528-.3047.6446.6446,0,0,0-.2871-.5879,1.5265,1.5265,0,0,0-.8223-.1836,1.0388,1.0388,0,0,0-.8774.336,1.11,1.11,0,0,0-.1885.5517h-.7383a1.3646,1.3646,0,0,1,.564-1.2138,2.3011,2.3011,0,0,1,1.2573-.3418,2.5554,2.5554,0,0,1,1.3476.3164,1.0739,1.0739,0,0,1,.5137.9843v2.711a.3448.3448,0,0,0,.0508.1982.2427.2427,0,0,0,.2129.0752.8849.8849,0,0,0,.1186-.0078,1.3583,1.3583,0,0,0,.1407-.0195v.5849a2.037,2.037,0,0,1-.2813.0655,1.8884,1.8884,0,0,1-.2637.0136.65.65,0,0,1-.5932-.29,1.1163,1.1163,0,0,1-.1363-.4346,2.01,2.01,0,0,1-.6943.5489,2.1481,2.1481,0,0,1-.9975.2324,1.4864,1.4864,0,0,1-1.07-.3965,1.3208,1.3208,0,0,1-.415-.9941,1.28,1.28,0,0,1,.4087-1.0137,1.9369,1.9369,0,0,1,1.0723-.4434Zm-1.6655,2.1367a.9336.9336,0,0,0,.5932.1973,1.8039,1.8039,0,0,0,.8086-.1934,1.0853,1.0853,0,0,0,.6592-1.0488v-.6357a1.3522,1.3522,0,0,1-.3726.1543,2.9182,2.9182,0,0,1-.4477.0879l-.478.0615a1.8409,1.8409,0,0,0-.646.18.7.7,0,0,0-.3672.6582A.6485.6485,0,0,0,81.2974,136.1152Z"/><path d="M234.7168,132.3711v-.6074a3.2044,3.2044,0,0,0,1.1953-.2793,1.3719,1.3719,0,0,0,.5049-.9239h.624v6.2657h-.8437v-4.4551Z"/><path d="M239.375,130.35h.7686v2.3418a1.738,1.738,0,0,1,1.4072-.6943,1.8464,1.8464,0,0,1,1.4316.6045,2.5643,2.5643,0,0,1,.5488,1.7812,3.0534,3.0534,0,0,1-.5419,1.8555,1.7636,1.7636,0,0,1-1.5049.7383,1.5453,1.5453,0,0,1-.9082-.26,2.1878,2.1878,0,0,1-.4727-.4922v.6016h-.7285Zm3.0234,5.418a2.4962,2.4962,0,0,0,.32-1.3447,2.1952,2.1952,0,0,0-.32-1.2305,1.0524,1.0524,0,0,0-.9414-.4873,1.3123,1.3123,0,0,0-.9492.3994,1.79,1.79,0,0,0-.4082,1.3184,2.8945,2.8945,0,0,0,.168,1.0771,1.1571,1.1571,0,0,0,1.1679.7773A1.06,1.06,0,0,0,242.3984,135.7676Z"/></g><g id="a460be7c-4289-4573-8cfa-418f216d7c5c" data-name="lines&amp;text"><polyline class="b8c6bab5-532f-4686-ad69-a2a317ab7eff" points="76.194 56.451 76.194 76.856 151.527 76.856 151.527 84.217"/><polyline class="b8c6bab5-532f-4686-ad69-a2a317ab7eff" points="290.528 56.451 290.528 76.856 215.194 76.856 215.194 84.217"/><line class="b8c6bab5-532f-4686-ad69-a2a317ab7eff" x1="164.8604" y1="56.4512" x2="164.8604" y2="84.2173"/><line class="b8c6bab5-532f-4686-ad69-a2a317ab7eff" x1="179.5278" y1="56.4512" x2="179.5278" y2="84.2173"/></g><g id="a0510fc8-bad1-47c7-af59-c8f4182c3d3e" data-name="Guide"><polyline class="ea6e15d7-5fff-445d-9853-149cd0fd172d" points="244.645 116.541 122.343 116.541 122.343 94.284 244.645 94.284 244.645 116.541"/><polygon class="b26b05b1-2ea4-49bc-b7e1-215b05d3234e" points="244.645 116.541 122.343 116.541 122.343 94.284 244.645 94.284 244.645 116.541 244.645 116.541"/><polyline class="a9adb19e-8619-45ff-8abb-6552973499e9" points="244.645 94.284 122.343 94.284 136.7 84.217 230.288 84.217 244.645 94.284"/><path class="ee2a014e-5a3c-4ac0-9e11-534b4d03095a" d="M193.7173,99.7671c0,1.46-4.4824,2.6421-10.0117,2.6421s-10.0132-1.1817-10.0132-2.6421,4.4824-2.6411,10.0132-2.6411,10.0117,1.1816,10.0117,2.6411"/><path class="ee2a014e-5a3c-4ac0-9e11-534b4d03095a" d="M173.6924,100.1426v10.92c0,1.4565,4.4824,2.6411,10.0132,2.6411s10.0117-1.1846,10.0117-2.6411V99.7671"/><path class="adb60cbd-8599-4d52-ad8f-e9e3b1d90ad9" d="M173.6924,100.1426v10.92c0,1.4565,4.4824,2.6411,10.0132,2.6411s10.0117-1.1846,10.0117-2.6411V99.7671m0,0c0,1.46-4.4824,2.6421-10.0117,2.6421s-10.0132-1.1817-10.0132-2.6421,4.4824-2.6411,10.0132-2.6411,10.0117,1.1816,10.0117,2.6411Z"/><polyline class="ee2a014e-5a3c-4ac0-9e11-534b4d03095a" points="227.163 100.412 216.989 98.479 216.989 99.968 202.151 99.968 202.151 101.248 216.989 101.248 216.989 102.665 227.163 100.534 227.163 100.412"/><polyline class="ee2a014e-5a3c-4ac0-9e11-534b4d03095a" points="227.163 109.999 216.989 108.064 216.989 109.553 202.151 109.553 202.151 110.827 216.989 110.827 216.989 112.249 227.163 110.115 227.163 109.999"/><polyline class="ee2a014e-5a3c-4ac0-9e11-534b4d03095a" points="139.83 110.413 149.998 112.347 149.998 110.857 164.838 110.857 164.838 109.583 149.998 109.583 149.998 108.163 139.83 110.296 139.83 110.413"/><polyline class="ee2a014e-5a3c-4ac0-9e11-534b4d03095a" points="139.83 100.827 149.998 102.761 149.998 101.272 164.838 101.272 164.838 99.997 149.998 99.997 149.998 98.576 139.83 100.71 139.83 100.827"/><polyline class="aa6eeb81-6516-41f3-a754-bb1ff42faa3b" points="94.402 38.967 6.92 38.967 6.92 33.254 94.402 33.254 94.402 38.967"/><polyline class="e3ee4698-fe76-42d5-9c62-decda772161f" points="94.402 44.823 6.92 44.823 6.92 39.11 94.402 39.11 94.402 44.823"/><polyline class="aa6eeb81-6516-41f3-a754-bb1ff42faa3b" points="94.402 50.595 6.92 50.595 6.92 44.882 94.402 44.882 94.402 50.595"/><polyline class="e3ee4698-fe76-42d5-9c62-decda772161f" points="94.402 56.451 6.92 56.451 6.92 50.738 94.402 50.738 94.402 56.451"/><polyline class="a9adb19e-8619-45ff-8abb-6552973499e9" points="94.402 22.22 6.92 22.22 11.413 17.748 89.909 17.748 94.402 22.22"/><path class="aeb0f1fc-a879-4788-9525-6faafcdfdd41" d="M92.1382,31.5479a3.1695,3.1695,0,0,1,0-6.3389v6.3389"/><polyline class="e3ee4698-fe76-42d5-9c62-decda772161f" points="94.402 32.502 6.92 32.502 6.92 22.22 94.402 22.22 94.402 32.502"/><polyline class="aa6eeb81-6516-41f3-a754-bb1ff42faa3b" points="90.131 30.7 10.972 30.7 10.972 24.36 90.131 24.36 90.131 30.7"/><path class="ee2a014e-5a3c-4ac0-9e11-534b4d03095a" d="M91.4868,27.5522c0,.5865-.645,1.0616-1.44,1.0616s-1.44-.4751-1.44-1.0616.6451-1.06,1.4405-1.06S91.4868,26.9668,91.4868,27.5522Z"/><rect class="ee2a014e-5a3c-4ac0-9e11-534b4d03095a" x="47.3501" y="34.2983" width="14.2324" height="0.5948"/><path class="ee2a014e-5a3c-4ac0-9e11-534b4d03095a" d="M62.0059,37.1c0,.5625-.6636,1.0186-1.4825,1.0186S59.041,37.6621,59.041,37.1s.6641-1.0181,1.4824-1.0181S62.0059,36.5371,62.0059,37.1Z"/><rect class="ee2a014e-5a3c-4ac0-9e11-534b4d03095a" x="47.3501" y="40.2402" width="14.2324" height="0.5943"/><path class="ee2a014e-5a3c-4ac0-9e11-534b4d03095a" d="M62.0059,43.041c0,.5625-.6636,1.0186-1.4825,1.0186s-1.4824-.4561-1.4824-1.0186.6641-1.0181,1.4824-1.0181S62.0059,42.4785,62.0059,43.041Z"/><rect class="ee2a014e-5a3c-4ac0-9e11-534b4d03095a" x="75.8994" y="40.2402" width="14.2324" height="0.5943"/><path class="ee2a014e-5a3c-4ac0-9e11-534b4d03095a" d="M90.5552,43.041c0,.5625-.6636,1.0186-1.4824,1.0186S87.59,43.6035,87.59,43.041s.6641-1.0181,1.4825-1.0181S90.5552,42.4785,90.5552,43.041Z"/><path class="ee2a014e-5a3c-4ac0-9e11-534b4d03095a" d="M90.5552,48.9819c0,.5625-.6636,1.0186-1.4824,1.0186S87.59,49.5444,87.59,48.9819s.6641-1.018,1.4825-1.018S90.5552,48.4194,90.5552,48.9819Z"/><rect class="ee2a014e-5a3c-4ac0-9e11-534b4d03095a" x="75.8994" y="52.1226" width="14.2324" height="0.5942"/><path class="ee2a014e-5a3c-4ac0-9e11-534b4d03095a" d="M90.5552,54.9233c0,.5625-.6636,1.0186-1.4824,1.0186S87.59,55.4858,87.59,54.9233s.6641-1.0185,1.4825-1.0185S90.5552,54.3608,90.5552,54.9233Z"/><rect class="ee2a014e-5a3c-4ac0-9e11-534b4d03095a" x="47.3501" y="46.1816" width="14.2324" height="0.5943"/><path class="ee2a014e-5a3c-4ac0-9e11-534b4d03095a" d="M62.0059,48.9824c0,.5625-.6636,1.0186-1.4825,1.0186s-1.4824-.4561-1.4824-1.0186.6641-1.018,1.4824-1.018S62.0059,48.42,62.0059,48.9824Z"/><rect class="ee2a014e-5a3c-4ac0-9e11-534b4d03095a" x="47.3501" y="52.1235" width="14.2324" height="0.5938"/><path class="ee2a014e-5a3c-4ac0-9e11-534b4d03095a" d="M62.0059,54.9238c0,.563-.6636,1.0186-1.4825,1.0186s-1.4824-.4556-1.4824-1.0186.6641-1.018,1.4824-1.018S62.0059,54.3613,62.0059,54.9238Z"/><path class="ee2a014e-5a3c-4ac0-9e11-534b4d03095a" d="M90.3862,37.1c0,.5625-.6635,1.0186-1.4824,1.0186s-1.4824-.4561-1.4824-1.0186.664-1.0181,1.4824-1.0181S90.3862,36.5371,90.3862,37.1Z"/><line class="be2125d8-b67d-4a27-888d-c0e71236d2b0" x1="65.395" y1="32.9404" x2="65.395" y2="56.8755"/><polyline class="aa6eeb81-6516-41f3-a754-bb1ff42faa3b" points="203.727 38.967 116.245 38.967 116.245 33.254 203.727 33.254 203.727 38.967"/><polyline class="e3ee4698-fe76-42d5-9c62-decda772161f" points="203.727 44.823 116.245 44.823 116.245 39.11 203.727 39.11 203.727 44.823"/><polyline class="aa6eeb81-6516-41f3-a754-bb1ff42faa3b" points="203.727 50.595 116.245 50.595 116.245 44.882 203.727 44.882 203.727 50.595"/><polyline class="e3ee4698-fe76-42d5-9c62-decda772161f" points="203.727 56.451 116.245 56.451 116.245 50.738 203.727 50.738 203.727 56.451"/><polyline class="a9adb19e-8619-45ff-8abb-6552973499e9" points="203.727 22.22 116.245 22.22 120.738 17.748 199.233 17.748 203.727 22.22"/><path class="aeb0f1fc-a879-4788-9525-6faafcdfdd41" d="M201.4629,31.5479a3.1695,3.1695,0,0,1,0-6.3389v6.3389"/><polyline class="e3ee4698-fe76-42d5-9c62-decda772161f" points="203.727 32.502 116.245 32.502 116.245 22.22 203.727 22.22 203.727 32.502"/><polyline class="aa6eeb81-6516-41f3-a754-bb1ff42faa3b" points="199.456 30.7 120.295 30.7 120.295 24.36 199.456 24.36 199.456 30.7"/><path class="ee2a014e-5a3c-4ac0-9e11-534b4d03095a" d="M200.811,27.5522c0,.5865-.644,1.0616-1.4394,1.0616s-1.44-.4751-1.44-1.0616.644-1.06,1.44-1.06S200.811,26.9668,200.811,27.5522Z"/><rect class="ee2a014e-5a3c-4ac0-9e11-534b4d03095a" x="156.6748" y="34.2983" width="14.2324" height="0.5948"/><path class="ee2a014e-5a3c-4ac0-9e11-534b4d03095a" d="M171.3306,37.1c0,.5625-.6636,1.0186-1.4825,1.0186s-1.4824-.4561-1.4824-1.0186.6636-1.0181,1.4824-1.0181S171.3306,36.5371,171.3306,37.1Z"/><rect class="ee2a014e-5a3c-4ac0-9e11-534b4d03095a" x="156.6748" y="40.2397" width="14.2324" height="0.5948"/><path class="ee2a014e-5a3c-4ac0-9e11-534b4d03095a" d="M171.3306,43.041c0,.5625-.6636,1.0186-1.4825,1.0186s-1.4824-.4561-1.4824-1.0186.6636-1.0181,1.4824-1.0181S171.3306,42.4785,171.3306,43.041Z"/><rect class="ee2a014e-5a3c-4ac0-9e11-534b4d03095a" x="185.2241" y="40.2397" width="14.232" height="0.5948"/><path class="ee2a014e-5a3c-4ac0-9e11-534b4d03095a" d="M199.88,43.041c0,.5625-.6641,1.0186-1.4834,1.0186s-1.4815-.4561-1.4815-1.0186.6631-1.0181,1.4815-1.0181S199.88,42.4785,199.88,43.041Z"/><path class="ee2a014e-5a3c-4ac0-9e11-534b4d03095a" d="M199.88,48.9819c0,.5625-.6641,1.0186-1.4834,1.0186s-1.4815-.4561-1.4815-1.0186.6631-1.018,1.4815-1.018S199.88,48.4194,199.88,48.9819Z"/><rect class="ee2a014e-5a3c-4ac0-9e11-534b4d03095a" x="185.2241" y="52.1226" width="14.232" height="0.5942"/><path class="ee2a014e-5a3c-4ac0-9e11-534b4d03095a" d="M199.88,54.9233c0,.5625-.6641,1.0186-1.4834,1.0186s-1.4815-.4561-1.4815-1.0186.6631-1.0185,1.4815-1.0185S199.88,54.3608,199.88,54.9233Z"/><rect class="ee2a014e-5a3c-4ac0-9e11-534b4d03095a" x="156.6748" y="46.1816" width="14.2324" height="0.5943"/><path class="ee2a014e-5a3c-4ac0-9e11-534b4d03095a" d="M171.3306,48.9824c0,.5625-.6636,1.0186-1.4825,1.0186s-1.4824-.4561-1.4824-1.0186.6636-1.018,1.4824-1.018S171.3306,48.42,171.3306,48.9824Z"/><rect class="ee2a014e-5a3c-4ac0-9e11-534b4d03095a" x="156.6748" y="52.1235" width="14.2324" height="0.5938"/><path class="ee2a014e-5a3c-4ac0-9e11-534b4d03095a" d="M171.3306,54.9238c0,.563-.6636,1.0186-1.4825,1.0186s-1.4824-.4556-1.4824-1.0186.6636-1.018,1.4824-1.018S171.3306,54.3613,171.3306,54.9238Z"/><path class="ee2a014e-5a3c-4ac0-9e11-534b4d03095a" d="M199.7109,37.1c0,.5625-.6635,1.0186-1.4829,1.0186s-1.4814-.4561-1.4814-1.0186.6631-1.0181,1.4814-1.0181S199.7109,36.5371,199.7109,37.1Z"/><line class="be2125d8-b67d-4a27-888d-c0e71236d2b0" x1="174.7197" y1="32.9404" x2="174.7197" y2="56.8755"/><polyline class="aa6eeb81-6516-41f3-a754-bb1ff42faa3b" points="348.066 38.967 260.584 38.967 260.584 33.254 348.066 33.254 348.066 38.967"/><polyline class="e3ee4698-fe76-42d5-9c62-decda772161f" points="348.066 44.823 260.584 44.823 260.584 39.11 348.066 39.11 348.066 44.823"/><polyline class="aa6eeb81-6516-41f3-a754-bb1ff42faa3b" points="348.066 50.595 260.584 50.595 260.584 44.882 348.066 44.882 348.066 50.595"/><polyline class="e3ee4698-fe76-42d5-9c62-decda772161f" points="348.066 56.451 260.584 56.451 260.584 50.738 348.066 50.738 348.066 56.451"/><polyline class="a9adb19e-8619-45ff-8abb-6552973499e9" points="348.066 22.22 260.584 22.22 265.079 17.748 343.574 17.748 348.066 22.22"/><path class="aeb0f1fc-a879-4788-9525-6faafcdfdd41" d="M345.8027,31.5479a3.1695,3.1695,0,0,1,0-6.3389v6.3389"/><polyline class="e3ee4698-fe76-42d5-9c62-decda772161f" points="348.066 32.502 260.584 32.502 260.584 22.22 348.066 22.22 348.066 32.502"/><polyline class="aa6eeb81-6516-41f3-a754-bb1ff42faa3b" points="343.797 30.7 264.637 30.7 264.637 24.36 343.797 24.36 343.797 30.7"/><path class="ee2a014e-5a3c-4ac0-9e11-534b4d03095a" d="M345.15,27.5522c0,.5865-.6426,1.0616-1.44,1.0616-.7949,0-1.4394-.4751-1.4394-1.0616s.6445-1.06,1.4394-1.06C344.5078,26.4917,345.15,26.9668,345.15,27.5522Z"/><rect class="ee2a014e-5a3c-4ac0-9e11-534b4d03095a" x="301.0137" y="34.2983" width="14.2324" height="0.5948"/><path class="ee2a014e-5a3c-4ac0-9e11-534b4d03095a" d="M315.67,37.1c0,.5625-.664,1.0186-1.4824,1.0186s-1.4824-.4561-1.4824-1.0186.664-1.0181,1.4824-1.0181S315.67,36.5371,315.67,37.1Z"/><rect class="ee2a014e-5a3c-4ac0-9e11-534b4d03095a" x="301.0137" y="40.2397" width="14.2324" height="0.5948"/><path class="ee2a014e-5a3c-4ac0-9e11-534b4d03095a" d="M315.67,43.041c0,.5625-.664,1.0186-1.4824,1.0186s-1.4824-.4561-1.4824-1.0186.664-1.0181,1.4824-1.0181S315.67,42.4785,315.67,43.041Z"/><rect class="ee2a014e-5a3c-4ac0-9e11-534b4d03095a" x="329.5645" y="40.2397" width="14.2324" height="0.5948"/><path class="ee2a014e-5a3c-4ac0-9e11-534b4d03095a" d="M344.2207,43.041c0,.5625-.6641,1.0186-1.4824,1.0186-.82,0-1.4824-.4561-1.4824-1.0186s.6621-1.0181,1.4824-1.0181C343.5566,42.0229,344.2207,42.4785,344.2207,43.041Z"/><path class="ee2a014e-5a3c-4ac0-9e11-534b4d03095a" d="M344.2207,48.9819c0,.5625-.6641,1.0186-1.4824,1.0186-.82,0-1.4824-.4561-1.4824-1.0186s.6621-1.018,1.4824-1.018C343.5566,47.9639,344.2207,48.4194,344.2207,48.9819Z"/><rect class="ee2a014e-5a3c-4ac0-9e11-534b4d03095a" x="329.5645" y="52.1226" width="14.2324" height="0.5942"/><path class="ee2a014e-5a3c-4ac0-9e11-534b4d03095a" d="M344.2207,54.9233c0,.5625-.6641,1.0186-1.4824,1.0186-.82,0-1.4824-.4561-1.4824-1.0186s.6621-1.0185,1.4824-1.0185C343.5566,53.9048,344.2207,54.3608,344.2207,54.9233Z"/><rect class="ee2a014e-5a3c-4ac0-9e11-534b4d03095a" x="301.0137" y="46.1816" width="14.2324" height="0.5943"/><path class="ee2a014e-5a3c-4ac0-9e11-534b4d03095a" d="M315.67,48.9824c0,.5625-.664,1.0186-1.4824,1.0186s-1.4824-.4561-1.4824-1.0186.664-1.018,1.4824-1.018S315.67,48.42,315.67,48.9824Z"/><rect class="ee2a014e-5a3c-4ac0-9e11-534b4d03095a" x="301.0137" y="52.1235" width="14.2324" height="0.5938"/><path class="ee2a014e-5a3c-4ac0-9e11-534b4d03095a" d="M315.67,54.9238c0,.563-.6621,1.0186-1.4824,1.0186-.8184,0-1.4824-.4556-1.4824-1.0186s.664-1.018,1.4824-1.018S315.67,54.3613,315.67,54.9238Z"/><path class="ee2a014e-5a3c-4ac0-9e11-534b4d03095a" d="M344.0527,37.1c0,.5625-.664,1.0186-1.4843,1.0186-.8184,0-1.4805-.4561-1.4805-1.0186s.6621-1.0181,1.4805-1.0181C343.3887,36.0815,344.0527,36.5371,344.0527,37.1Z"/><line class="be2125d8-b67d-4a27-888d-c0e71236d2b0" x1="319.0605" y1="32.9404" x2="319.0605" y2="56.8755"/><path d="M12.3389,8.1284h.8818v2.6675h3.3115V8.1284h.8819V14.584h-.8819V11.5649H13.2207V14.584h-.8818Z"/><path d="M22.103,10.3472a2.3773,2.3773,0,0,1,.6226,1.7827,3.0732,3.0732,0,0,1-.5488,1.8789,1.9786,1.9786,0,0,1-1.7027.7422,1.9153,1.9153,0,0,1-1.5288-.6563,2.6047,2.6047,0,0,1-.5664-1.7632,2.8186,2.8186,0,0,1,.5967-1.8877,1.9962,1.9962,0,0,1,1.603-.7026A2.1042,2.1042,0,0,1,22.103,10.3472Zm-.49,3.1279a2.99,2.99,0,0,0,.2881-1.3232,2.3854,2.3854,0,0,0-.208-1.0713,1.1694,1.1694,0,0,0-1.1363-.6494,1.1175,1.1175,0,0,0-1.041.5532,2.5878,2.5878,0,0,0-.3252,1.334,2.25,2.25,0,0,0,.3252,1.2509,1.1416,1.1416,0,0,0,1.0323.5005A1.0747,1.0747,0,0,0,21.6128,13.4751Z"/><path d="M24.1646,13.1074a1.1338,1.1338,0,0,0,.2016.6065,1.2772,1.2772,0,0,0,1.0562.3823,1.5881,1.5881,0,0,0,.788-.1909.6333.6333,0,0,0,.34-.5913.5046.5046,0,0,0-.272-.4615,3.2765,3.2765,0,0,0-.6865-.2241l-.6377-.1582a3.1423,3.1423,0,0,1-.9-.334.9955.9955,0,0,1-.5171-.8877,1.3506,1.3506,0,0,1,.4868-1.081,1.9567,1.9567,0,0,1,1.3091-.4131,1.8266,1.8266,0,0,1,1.5513.624,1.3437,1.3437,0,0,1,.289.8526h-.7456a.895.895,0,0,0-.1928-.4854,1.2532,1.2532,0,0,0-.9654-.31,1.1771,1.1771,0,0,0-.6938.1709.531.531,0,0,0-.2359.4507.5542.5542,0,0,0,.31.4908,1.8877,1.8877,0,0,0,.5273.1928l.5318.1275a4.16,4.16,0,0,1,1.1621.4,1.06,1.06,0,0,1,.46.9536,1.4461,1.4461,0,0,1-.4819,1.0854,2.0654,2.0654,0,0,1-1.4678.4571,1.981,1.981,0,0,1-1.5029-.4771,1.7888,1.7888,0,0,1-.4731-1.18Z"/><path d="M28.3447,8.5635h.7984V9.8774h.75v.646h-.75v3.0718a.3328.3328,0,0,0,.1665.33.7089.7089,0,0,0,.3071.0483q.0572,0,.123-.0029c.044-.0019.0948-.0068.1534-.0146v.6284a1.7538,1.7538,0,0,1-.2827.0571,2.6939,2.6939,0,0,1-.3179.0176.8558.8558,0,0,1-.75-.2837,1.261,1.261,0,0,1-.1973-.7358V10.5234H27.709v-.646h.6357Z"/><path d="M33.459,10.1279V9.5215a3.2007,3.2007,0,0,0,1.1929-.2793,1.373,1.373,0,0,0,.5043-.9248h.6231V14.584H34.937V10.1279Z"/><path d="M121.4756,8.1284h.8818v2.6675h3.3115V8.1284h.8819V14.584h-.8819V11.5649h-3.3115V14.584h-.8818Z"/><path d="M131.24,10.3472a2.3773,2.3773,0,0,1,.6226,1.7827,3.0732,3.0732,0,0,1-.5488,1.8789,1.9784,1.9784,0,0,1-1.7027.7422,1.9154,1.9154,0,0,1-1.5288-.6563,2.6047,2.6047,0,0,1-.5664-1.7632,2.8191,2.8191,0,0,1,.5967-1.8877,1.9964,1.9964,0,0,1,1.603-.7026A2.1042,2.1042,0,0,1,131.24,10.3472Zm-.49,3.1279a2.99,2.99,0,0,0,.2881-1.3232,2.3841,2.3841,0,0,0-.208-1.0713,1.1692,1.1692,0,0,0-1.1362-.6494,1.1176,1.1176,0,0,0-1.0411.5532,2.5878,2.5878,0,0,0-.3252,1.334,2.25,2.25,0,0,0,.3252,1.2509,1.1416,1.1416,0,0,0,1.0323.5005A1.0747,1.0747,0,0,0,130.75,13.4751Z"/><path d="M133.3013,13.1074a1.1338,1.1338,0,0,0,.2016.6065,1.2773,1.2773,0,0,0,1.0562.3823,1.5888,1.5888,0,0,0,.7881-.1909.6333.6333,0,0,0,.34-.5913.5046.5046,0,0,0-.272-.4615,3.2765,3.2765,0,0,0-.6865-.2241l-.6377-.1582a3.1423,3.1423,0,0,1-.9-.334.9955.9955,0,0,1-.5171-.8877,1.3506,1.3506,0,0,1,.4868-1.081,1.9569,1.9569,0,0,1,1.3091-.4131,1.8266,1.8266,0,0,1,1.5513.624,1.3444,1.3444,0,0,1,.2891.8526h-.7456a.8952.8952,0,0,0-.1929-.4854,1.2531,1.2531,0,0,0-.9654-.31,1.1771,1.1771,0,0,0-.6938.1709.5309.5309,0,0,0-.2358.4507.5541.5541,0,0,0,.31.4908,1.8886,1.8886,0,0,0,.5274.1928l.5317.1275a4.16,4.16,0,0,1,1.1621.4,1.06,1.06,0,0,1,.46.9536,1.4462,1.4462,0,0,1-.482,1.0854,2.0653,2.0653,0,0,1-1.4677.4571,1.9813,1.9813,0,0,1-1.503-.4771,1.7888,1.7888,0,0,1-.4731-1.18Z"/><path d="M137.4814,8.5635h.7984V9.8774h.75v.646h-.75v3.0718a.3328.3328,0,0,0,.1665.33.7093.7093,0,0,0,.3071.0483q.0572,0,.1231-.0029c.0439-.0019.0947-.0068.1533-.0146v.6284a1.7516,1.7516,0,0,1-.2827.0571,2.6927,2.6927,0,0,1-.3179.0176.8558.8558,0,0,1-.7505-.2837,1.2617,1.2617,0,0,1-.1973-.7358V10.5234h-.6357v-.646h.6357Z"/><path d="M142.3521,13.1689a2.7174,2.7174,0,0,1,1.1381-1.0942l.8423-.4878a3.9286,3.9286,0,0,0,.794-.563,1.2333,1.2333,0,0,0,.0307-1.71A1.1964,1.1964,0,0,0,144.28,8.99a1.1444,1.1444,0,0,0-1.1226.6172,2.2137,2.2137,0,0,0-.1845.9165H142.17a2.83,2.83,0,0,1,.3028-1.34,1.8984,1.8984,0,0,1,1.8115-.9141,1.8649,1.8649,0,0,1,2.0747,1.8853,1.7693,1.7693,0,0,1-.5308,1.292,5.2023,5.2023,0,0,1-1.1006.7558l-.601.334a3.8976,3.8976,0,0,0-.6758.4527,1.6459,1.6459,0,0,0-.5523.8481h3.43v.7471h-4.3115A3.6783,3.6783,0,0,1,142.3521,13.1689Z"/><path d="M265.4658,8.1284h.8819v2.6675h3.3115V8.1284h.8818V14.584h-.8818V11.5649h-3.3115V14.584h-.8819Z"/><path d="M275.23,10.3472a2.374,2.374,0,0,1,.623,1.7827,3.0732,3.0732,0,0,1-.5488,1.8789,1.9781,1.9781,0,0,1-1.7031.7422,1.9141,1.9141,0,0,1-1.5283-.6563,2.6042,2.6042,0,0,1-.5664-1.7632,2.8217,2.8217,0,0,1,.5966-1.8877,1.9949,1.9949,0,0,1,1.6026-.7026A2.1027,2.1027,0,0,1,275.23,10.3472Zm-.49,3.1279a2.9919,2.9919,0,0,0,.289-1.3232,2.3841,2.3841,0,0,0-.208-1.0713,1.1694,1.1694,0,0,0-1.1367-.6494,1.117,1.117,0,0,0-1.041.5532,2.5878,2.5878,0,0,0-.3252,1.334,2.25,2.25,0,0,0,.3252,1.2509,1.1408,1.1408,0,0,0,1.0322.5005A1.074,1.074,0,0,0,274.7393,13.4751Z"/><path d="M277.291,13.1074a1.1414,1.1414,0,0,0,.2022.6065,1.2782,1.2782,0,0,0,1.0566.3823,1.5844,1.5844,0,0,0,.7871-.1909.6327.6327,0,0,0,.3408-.5913.5042.5042,0,0,0-.2724-.4615,3.2593,3.2593,0,0,0-.6865-.2241l-.6368-.1582a3.1245,3.1245,0,0,1-.9-.334.9959.9959,0,0,1-.5175-.8877,1.348,1.348,0,0,1,.4873-1.081,1.9551,1.9551,0,0,1,1.3086-.4131,1.8276,1.8276,0,0,1,1.5517.624,1.3467,1.3467,0,0,1,.2891.8526h-.7461a.892.892,0,0,0-.1934-.4854,1.2516,1.2516,0,0,0-.9648-.31,1.1736,1.1736,0,0,0-.6934.1709.5314.5314,0,0,0-.2363.4507.5544.5544,0,0,0,.31.4908,1.8877,1.8877,0,0,0,.5273.1928l.5322.1275a4.1634,4.1634,0,0,1,1.1621.4,1.06,1.06,0,0,1,.46.9536,1.4456,1.4456,0,0,1-.4814,1.0854,2.0655,2.0655,0,0,1-1.4678.4571,1.98,1.98,0,0,1-1.5029-.4771,1.7938,1.7938,0,0,1-.4737-1.18Z"/><path d="M281.4717,8.5635h.7978V9.8774h.75v.646h-.75v3.0718a.3325.3325,0,0,0,.167.33.7054.7054,0,0,0,.3067.0483c.038,0,.0791-.0009.123-.0029s.0947-.0068.1533-.0146v.6284a1.7446,1.7446,0,0,1-.2832.0571,2.67,2.67,0,0,1-.3174.0176.8532.8532,0,0,1-.75-.2837,1.258,1.258,0,0,1-.1972-.7358V10.5234h-.6367v-.646h.6367Z"/><path d="M286.4111,8.1284H287.44l3.2128,5.2158V8.1284h.8331V14.584h-.9805l-3.2608-5.2095v5.21h-.833Z"/><rect x="223.6289" y="54.5752" width="2.5488" height="2.5542"/><rect x="235.1016" y="54.5752" width="2.5498" height="2.5542"/><rect x="229.3647" y="54.5752" width="2.5494" height="2.5542"/><line class="b8c6bab5-532f-4686-ad69-a2a317ab7eff" x1="40.0869" y1="202.5107" x2="174.1108" y2="202.5107"/><polyline class="b8c6bab5-532f-4686-ad69-a2a317ab7eff" points="174.641 202.272 182.331 202.272 182.331 202.511 310.611 202.511"/><rect class="a371c212-15c3-414e-9a32-32febe1ee6a8" x="41.1108" y="176.8154" width="131.75" height="25.6953"/><rect class="a371c212-15c3-414e-9a32-32febe1ee6a8" x="118.8379" y="182" width="12.4922" height="15.3135"/><rect class="e81360a2-4fdf-4245-ba1a-b19e683e281e" x="83.1445" y="188.9424" width="12.3316" height="6.3633"/><rect class="b8c6bab5-532f-4686-ad69-a2a317ab7eff" x="40.2461" y="176.3896" width="273.6699" height="0.4258"/><line class="b8c6bab5-532f-4686-ad69-a2a317ab7eff" x1="40.0869" y1="202.5107" x2="40.0869" y2="176.8154"/><polygon class="e018a293-1144-4511-9efd-504c41032578" points="42.367 201.605 42.367 200.015 45.549 200.015 45.549 198.741 47.883 198.741 47.883 198.212 88.509 198.212 89.464 197.257 91.479 197.257 91.479 201.817 76.629 201.817 76.152 201.341 42.367 201.605"/><path class="e018a293-1144-4511-9efd-504c41032578" d="M92.3281,198.53l1.166-1.168h7.5318s.8491.3184,2.6518,1.168H167.11v2.65H125.9536v.7431H93.2827v-.53h-.9546Z"/><rect class="a59b11aa-3bcd-4e32-a434-685fc050ba62" x="84.1787" y="189.7373" width="10.1821" height="4.6143"/><rect class="e81360a2-4fdf-4245-ba1a-b19e683e281e" x="96.978" y="188.9424" width="12.3316" height="6.3633"/><rect class="a59b11aa-3bcd-4e32-a434-685fc050ba62" x="98.0122" y="189.7373" width="10.1821" height="4.6143"/><rect class="a371c212-15c3-414e-9a32-32febe1ee6a8" x="149.0483" y="180.5557" width="8.6465" height="7.4375"/><rect class="e018a293-1144-4511-9efd-504c41032578" x="150.0161" y="181.3418" width="6.7715" height="6.0459"/><rect class="a371c212-15c3-414e-9a32-32febe1ee6a8" x="157.7466" y="180.5557" width="8.6455" height="7.4375"/><rect class="e018a293-1144-4511-9efd-504c41032578" x="158.7144" y="181.3418" width="6.7714" height="6.0459"/><rect class="a371c212-15c3-414e-9a32-32febe1ee6a8" x="157.7466" y="188.0898" width="8.6455" height="7.4366"/><rect class="e018a293-1144-4511-9efd-504c41032578" x="158.6528" y="188.6943" width="6.7725" height="6.0469"/><rect class="a371c212-15c3-414e-9a32-32febe1ee6a8" x="149.0483" y="188.0898" width="8.6465" height="7.4366"/><rect class="e018a293-1144-4511-9efd-504c41032578" x="149.9556" y="188.6943" width="6.7715" height="6.0469"/><rect class="a371c212-15c3-414e-9a32-32febe1ee6a8" x="136.2681" y="187.9453" width="9.1015" height="7.8281"/><rect class="e018a293-1144-4511-9efd-504c41032578" x="137.2871" y="188.7725" width="7.1284" height="6.3652"/><rect class="a371c212-15c3-414e-9a32-32febe1ee6a8" x="136.2017" y="180.3184" width="9.1015" height="7.8281"/><rect class="e018a293-1144-4511-9efd-504c41032578" x="137.2202" y="181.1455" width="7.1279" height="5.8984"/><rect class="ea867fc7-bb93-41ac-a06e-5727812a0a49" x="48.9175" y="182.8652" width="12.8882" height="7.001"/><rect class="e3a4c0f5-120e-4187-a3fd-5f0a353a4a6a" x="50.1108" y="184.0586" width="10.7397" height="4.6143"/><rect class="ea867fc7-bb93-41ac-a06e-5727812a0a49" x="65.1777" y="182.8652" width="12.8882" height="7.001"/><rect class="e3a4c0f5-120e-4187-a3fd-5f0a353a4a6a" x="66.3711" y="184.0586" width="10.7397" height="4.6143"/><rect class="e018a293-1144-4511-9efd-504c41032578" x="120.7769" y="183.6348" width="8.9101" height="7.956"/><rect class="bf6b5645-eb0f-4d42-bbf0-b80c576dd2a1" x="120.4019" y="193.4902" width="9.478" height="2.8916"/><line class="b8c6bab5-532f-4686-ad69-a2a317ab7eff" x1="78.8013" y1="197.6553" x2="81.3403" y2="185.2646"/><line class="b8c6bab5-532f-4686-ad69-a2a317ab7eff" x1="81.3403" y1="185.2041" x2="111.9263" y2="185.1436"/><line class="b8c6bab5-532f-4686-ad69-a2a317ab7eff" x1="111.9868" y1="185.1436" x2="114.5259" y2="198.0186"/><path class="e4f5b4c9-cf37-46fa-b82a-c961aa7a1719" d="M81.9126,194.0615a.8748.8748,0,1,1-.8745-.876A.875.875,0,0,1,81.9126,194.0615Z"/><path class="e4f5b4c9-cf37-46fa-b82a-c961aa7a1719" d="M112.62,194.0615a.875.875,0,1,1-.875-.876A.8758.8758,0,0,1,112.62,194.0615Z"/><polyline class="b8c6bab5-532f-4686-ad69-a2a317ab7eff" points="313.916 176.39 313.836 202.591 310.098 202.591"/><rect class="a371c212-15c3-414e-9a32-32febe1ee6a8" x="180.3608" y="176.3896" width="132.5005" height="26.2012"/><polyline class="b8c6bab5-532f-4686-ad69-a2a317ab7eff" points="89.27 192.044 89.27 128.523 130.527 128.523 130.527 116.541"/><polyline class="b8c6bab5-532f-4686-ad69-a2a317ab7eff" points="103.103 192.044 103.103 141.19 231.194 141.19 231.194 116.541"/></g></svg>