<?xml version="1.0" encoding="utf-8"?>
<!-- Generator: Adobe Illustrator 19.1.0, SVG Export Plug-In . SVG Version: 6.00 Build 0)  -->
<svg version="1.1" xmlns="http://www.w3.org/2000/svg" xmlns:xlink="http://www.w3.org/1999/xlink" x="0px" y="0px" width="340.2px"
	 height="238.2px" viewBox="0 0 340.2 238.2" style="enable-background:new 0 0 340.2 238.2;" xml:space="preserve">
<style type="text/css">
	.st0{fill:none;stroke:#000000;stroke-width:0.5;stroke-linecap:round;stroke-linejoin:round;}
	.st1{fill:#3F3F3F;}
	.st2{fill:#B2B2B2;}
	.st3{fill:none;stroke:#FFFFFF;stroke-width:0.5;stroke-linecap:round;stroke-linejoin:round;}
	.st4{fill:#FFFFFF;stroke:#FFFFFF;stroke-width:0.5;stroke-linecap:round;stroke-linejoin:round;}
	.st5{fill:#8C8C8C;}
	.st6{fill:none;}
	.st7{font-family:'Helvetica';}
	.st8{font-size:9px;}
	.st9{fill:#FFFFFF;stroke:#000000;stroke-width:0.5;stroke-linecap:round;stroke-linejoin:round;}
	.st10{fill:#B2B2B2;stroke:#B2B2B2;stroke-width:0.5;stroke-linecap:round;stroke-linejoin:round;}
	.st11{fill:#3F3F3F;stroke:#3F3F3F;stroke-width:0.5;stroke-linecap:round;stroke-linejoin:round;}
</style>
<g id="lines">
	<line class="st0" x1="109.3" y1="46.6" x2="109.3" y2="83.8"/>
	<line class="st0" x1="254.9" y1="46.6" x2="254.9" y2="83.8"/>
	<polyline class="st0" points="116.9,84.3 116.9,72.3 267.8,72.3 267.8,45.6 	"/>
	<polyline class="st0" points="58.2,45.6 58.2,65.6 79.5,65.6 79.5,84.5 	"/>
	<polyline class="st0" points="77.3,45.6 77.3,58.3 223.9,58.3 223.9,84.5 	"/>
	<polyline class="st0" points="171.7,46.6 171.7,65.7 103.1,65.7 103.1,84.4 	"/>
	<polyline class="st0" points="88.2,203.7 88.2,151.1 223.7,151.1 223.7,114.8 	"/>
	<line class="st0" x1="88.2" y1="203.8" x2="111.1" y2="203.8"/>
	<line class="st0" x1="78.2" y1="132.2" x2="78.2" y2="212"/>
	<line class="st0" x1="78.2" y1="212.1" x2="111.1" y2="212.1"/>
</g>
<g id="boxes">
	<rect y="30.8" class="st1" width="84.2" height="5.2"/>
	<rect y="25.6" class="st2" width="84.2" height="5"/>
	<rect y="41.6" class="st1" width="84.2" height="5"/>
	<rect y="36.3" class="st2" width="84.2" height="5"/>
	<line class="st3" x1="56.2" y1="25.8" x2="56.2" y2="46.8"/>
	<line class="st3" x1="39" y1="26.6" x2="53.2" y2="26.6"/>
	<ellipse class="st4" cx="50.9" cy="29.1" rx="1.1" ry="0.9"/>
	<line class="st3" x1="39" y1="31.6" x2="53.2" y2="31.6"/>
	<ellipse class="st4" cx="50.9" cy="34.1" rx="1.1" ry="0.9"/>
	<line class="st3" x1="67.5" y1="31.6" x2="81.8" y2="31.6"/>
	<ellipse class="st4" cx="79.4" cy="34.1" rx="1.1" ry="0.9"/>
	<line class="st3" x1="67.5" y1="42.3" x2="81.8" y2="42.3"/>
	<ellipse class="st4" cx="79.4" cy="44.8" rx="1.1" ry="0.9"/>
	<line class="st3" x1="39" y1="37.6" x2="53.2" y2="37.6"/>
	<ellipse class="st4" cx="50.9" cy="40.1" rx="1.1" ry="0.9"/>
	<ellipse class="st4" cx="79.4" cy="40.1" rx="1.1" ry="0.9"/>
	<line class="st3" x1="39" y1="42.6" x2="53.2" y2="42.6"/>
	<ellipse class="st4" cx="50.9" cy="45.1" rx="1.1" ry="0.9"/>
	<ellipse class="st4" cx="79.6" cy="29.1" rx="1.1" ry="0.9"/>
	<rect x="0.2" y="14.8" class="st1" width="84" height="10"/>
	<rect x="4.5" y="17.3" class="st2" width="76.2" height="5.2"/>
	<polygon class="st5" points="0.2,14.8 83.5,14.8 79.5,11.1 4.5,11.1 	"/>
	<ellipse class="st4" cx="80.9" cy="20.1" rx="1.1" ry="0.9"/>
	<rect x="105.7" y="30.8" class="st1" width="84.2" height="5.2"/>
	<rect x="105.7" y="25.6" class="st2" width="84.2" height="5"/>
	<rect x="105.7" y="41.6" class="st1" width="84.2" height="5"/>
	<rect x="105.7" y="36.3" class="st2" width="84.2" height="5"/>
	<line class="st3" x1="161.9" y1="25.8" x2="161.9" y2="46.8"/>
	<line class="st3" x1="144.7" y1="26.6" x2="158.9" y2="26.6"/>
	<ellipse class="st4" cx="156.5" cy="29.1" rx="1.1" ry="0.9"/>
	<line class="st3" x1="144.7" y1="31.6" x2="158.9" y2="31.6"/>
	<ellipse class="st4" cx="156.5" cy="34.1" rx="1.1" ry="0.9"/>
	<line class="st3" x1="173.2" y1="31.6" x2="187.4" y2="31.6"/>
	<ellipse class="st4" cx="185" cy="34.1" rx="1.1" ry="0.9"/>
	<line class="st3" x1="173.2" y1="42.3" x2="187.4" y2="42.3"/>
	<ellipse class="st4" cx="185" cy="44.8" rx="1.1" ry="0.9"/>
	<line class="st3" x1="144.7" y1="37.6" x2="158.9" y2="37.6"/>
	<ellipse class="st4" cx="156.5" cy="40.1" rx="1.1" ry="0.9"/>
	<ellipse class="st4" cx="185" cy="40.1" rx="1.1" ry="0.9"/>
	<line class="st3" x1="144.7" y1="42.6" x2="158.9" y2="42.6"/>
	<ellipse class="st4" cx="156.5" cy="45.1" rx="1.1" ry="0.9"/>
	<ellipse class="st4" cx="185.3" cy="29.1" rx="1.1" ry="0.9"/>
	<rect x="105.9" y="14.8" class="st1" width="84" height="10"/>
	<rect x="110.2" y="17.3" class="st2" width="76.2" height="5.2"/>
	<polygon class="st5" points="105.9,14.8 189.2,14.8 185.2,11.1 110.2,11.1 	"/>
	<ellipse class="st4" cx="186.5" cy="20.1" rx="1.1" ry="0.9"/>
	<rect x="244.3" y="30.8" class="st1" width="84.2" height="5.2"/>
	<rect x="244.3" y="25.6" class="st2" width="84.2" height="5"/>
	<rect x="244.3" y="41.6" class="st1" width="84.2" height="5"/>
	<rect x="244.3" y="36.3" class="st2" width="84.2" height="5"/>
	<line class="st3" x1="300.6" y1="25.8" x2="300.6" y2="46.8"/>
	<line class="st3" x1="283.3" y1="26.6" x2="297.6" y2="26.6"/>
	<ellipse class="st4" cx="295.2" cy="29.1" rx="1.1" ry="0.9"/>
	<line class="st3" x1="283.3" y1="31.6" x2="297.6" y2="31.6"/>
	<ellipse class="st4" cx="295.2" cy="34.1" rx="1.1" ry="0.9"/>
	<line class="st3" x1="311.8" y1="31.6" x2="326.1" y2="31.6"/>
	<ellipse class="st4" cx="323.7" cy="34.1" rx="1.1" ry="0.9"/>
	<line class="st3" x1="311.8" y1="42.3" x2="326.1" y2="42.3"/>
	<ellipse class="st4" cx="323.7" cy="44.8" rx="1.1" ry="0.9"/>
	<line class="st3" x1="283.3" y1="37.6" x2="297.6" y2="37.6"/>
	<ellipse class="st4" cx="295.2" cy="40.1" rx="1.1" ry="0.9"/>
	<ellipse class="st4" cx="323.7" cy="40.1" rx="1.1" ry="0.9"/>
	<line class="st3" x1="283.3" y1="42.6" x2="297.6" y2="42.6"/>
	<ellipse class="st4" cx="295.2" cy="45.1" rx="1.1" ry="0.9"/>
	<ellipse class="st4" cx="324" cy="29.1" rx="1.1" ry="0.9"/>
	<rect x="244.6" y="14.8" class="st1" width="84" height="10"/>
	<rect x="248.8" y="17.3" class="st2" width="76.2" height="5.2"/>
	<polygon class="st5" points="244.6,14.8 327.8,14.8 323.8,11.1 248.8,11.1 	"/>
	<ellipse class="st4" cx="325.2" cy="20.1" rx="1.1" ry="0.9"/>
</g>
<g id="text">
	<rect x="4.8" y="1.3" class="st6" width="27.7" height="8.3"/>
	<text transform="matrix(1 0 0 1 4.75 7.7275)" class="st7 st8">Host 1</text>
	<rect x="109.8" y="1.3" class="st6" width="27.7" height="8.3"/>
	<text transform="matrix(1 0 0 1 109.75 7.7275)" class="st7 st8">Host 2</text>
	<rect x="248.4" y="1.3" class="st6" width="27.7" height="8.3"/>
	<text transform="matrix(1 0 0 1 248.417 7.7275)" class="st7 st8">Host N</text>
	<g>
		<rect x="208.9" y="45.1" width="2.6" height="2.6"/>
		<rect x="214.3" y="45.1" width="2.6" height="2.6"/>
		<rect x="219.9" y="45.1" width="2.6" height="2.6"/>
	</g>
	<rect x="139.1" y="223.4" class="st6" width="51.3" height="7.7"/>
	<text transform="matrix(1 0 0 1 139.083 229.8909)" class="st7 st8">Controller 1</text>
	<rect x="271.9" y="98.6" class="st6" width="68.4" height="31.9"/>
	<text transform="matrix(1 0 0 1 271.875 105.0605)"><tspan x="0" y="0" class="st7 st8">Ethernet</tspan><tspan x="0" y="10.8" class="st7 st8">capable switch</tspan></text>
	<rect x="8.4" y="98.6" class="st6" width="68.4" height="31.9"/>
	<text transform="matrix(1 0 0 1 8.4375 105.0605)"><tspan x="0" y="0" class="st7 st8">Ethernet </tspan><tspan x="0" y="10.8" class="st7 st8">capable switch</tspan></text>
	<rect x="88" y="156.1" class="st6" width="18.3" height="7.7"/>
	<text transform="matrix(1 0 0 1 91.3594 162.5576)" class="st7 st8">e0a</text>
	<rect x="57.3" y="201.9" class="st6" width="18.3" height="7.7"/>
	<text transform="matrix(1 0 0 1 60.625 208.3932)" class="st7 st8">e0b</text>
</g>
<g id="outline">
	<g>
		<rect x="218.4" y="83.8" class="st9" width="49.2" height="48.8"/>
		<g>
			<polygon class="st0" points="244.9,91.6 243.8,89.3 242.8,87 241.7,89.3 240.7,91.6 241.6,91.4 241.6,105.4 243.9,105.4 
				243.9,91.4 			"/>
		</g>
		<g>
			<polygon class="st0" points="240.7,125.2 241.7,127.5 242.8,129.8 243.8,127.5 244.9,125.2 243.9,125.3 243.9,111.3 241.7,111.3 
				241.7,125.3 			"/>
		</g>
		<g>
			<polygon class="st0" points="226,106.3 223.7,107.3 221.4,108.4 223.7,109.4 226,110.5 225.8,109.5 239.8,109.5 239.8,107.3 
				225.8,107.3 			"/>
		</g>
		<g>
			<polygon class="st0" points="259.6,110.5 261.8,109.4 264.1,108.4 261.8,107.3 259.6,106.3 259.7,107.2 245.7,107.2 245.7,109.5 
				259.7,109.5 			"/>
		</g>
		<g>
			<polygon class="st0" points="229.5,118.7 228.6,121 227.7,123.4 230.1,122.5 232.5,121.7 231.7,121.1 241.6,111.2 240,109.6 
				230.1,119.5 			"/>
		</g>
		<g>
			<polygon class="st0" points="256.2,97.9 257.1,95.5 258,93.2 255.6,94.1 253.2,94.9 254,95.5 244.1,105.4 245.7,107 255.6,97.1 
							"/>
		</g>
		<g>
			<polygon class="st0" points="232.3,95 229.9,94.1 227.6,93.3 228.4,95.6 229.3,98 229.9,97.2 239.8,107.1 241.4,105.5 
				231.5,95.6 			"/>
		</g>
		<g>
			<polygon class="st0" points="253.1,121.7 255.4,122.6 257.8,123.5 256.9,121.1 256,118.8 255.5,119.6 245.6,109.7 244,111.3 
				253.9,121.2 			"/>
		</g>
	</g>
	<g>
		<rect x="72.6" y="83.8" class="st9" width="49.2" height="48.8"/>
		<g>
			<polygon class="st0" points="99.1,91.6 98.1,89.3 97,87 96,89.3 94.9,91.6 95.9,91.4 95.9,105.4 98.1,105.4 98.1,91.4 			"/>
		</g>
		<g>
			<polygon class="st0" points="94.9,125.2 96,127.5 97,129.8 98.1,127.5 99.1,125.2 98.2,125.3 98.2,111.3 95.9,111.3 95.9,125.3 
							"/>
		</g>
		<g>
			<polygon class="st0" points="80.2,106.3 77.9,107.3 75.6,108.4 77.9,109.4 80.2,110.5 80.1,109.5 94.1,109.5 94.1,107.3 
				80.1,107.3 			"/>
		</g>
		<g>
			<polygon class="st0" points="113.8,110.5 116.1,109.4 118.4,108.4 116.1,107.3 113.8,106.3 114,107.2 100,107.2 100,109.5 
				114,109.5 			"/>
		</g>
		<g>
			<polygon class="st0" points="83.7,118.7 82.9,121 82,123.4 84.4,122.5 86.7,121.7 85.9,121.1 95.8,111.2 94.2,109.6 84.3,119.5 
							"/>
		</g>
		<g>
			<polygon class="st0" points="110.5,97.9 111.3,95.5 112.2,93.2 109.8,94.1 107.5,94.9 108.3,95.5 98.4,105.4 100,107 109.9,97.1 
							"/>
		</g>
		<g>
			<polygon class="st0" points="86.6,95 84.2,94.1 81.8,93.3 82.7,95.6 83.6,98 84.1,97.2 94,107.1 95.6,105.5 85.7,95.6 			"/>
		</g>
		<g>
			<polygon class="st0" points="107.3,121.7 109.7,122.6 112,123.5 111.2,121.1 110.3,118.8 109.7,119.6 99.8,109.7 98.2,111.3 
				108.1,121.2 			"/>
		</g>
	</g>
	<circle cx="79.5" cy="83.8" r="1.2"/>
	<circle cx="109.3" cy="83.8" r="1.2"/>
	<circle cx="254.9" cy="83.8" r="1.2"/>
	<circle cx="116.9" cy="83.8" r="1.2"/>
	<circle cx="223.9" cy="83.8" r="1.2"/>
	<circle cx="103.1" cy="83.8" r="1.2"/>
	<g>
		<polyline class="st10" points="111.1,219.8 116.1,212.8 211.4,212.8 216.8,219.8 		"/>
	</g>
	<g>
		<rect x="111.1" y="194.9" class="st1" width="105.7" height="24.7"/>
		<polyline class="st10" points="111.1,194.9 116.1,187.9 211.4,187.9 216.8,194.9 		"/>
		<path class="st4" d="M118.9,215.6v-17.8c0,0,57-4.2,90,0.2v18C208.9,215.9,148.9,220.4,118.9,215.6z"/>
		<path class="st11" d="M124.9,198.8v16.3h-2.5c0,0-3-7.7,0.2-16.3H124.9z"/>
		<path class="st11" d="M133.1,198.8v16.3h-2.5c0,0-3-7.7,0.2-16.3H133.1z"/>
		<path class="st11" d="M203.1,215.1v-16.3h2.5c0,0,3,7.7-0.2,16.3H203.1z"/>
		<path class="st11" d="M195.3,215.1v-17h2.5c0,0,3,8-0.2,17H195.3z"/>
		<path class="st11" d="M187,215.4v-17h2.5c0,0,3,8-0.2,17H187z"/>
		<path class="st11" d="M141.1,198.4v17.2h-2.5c0,0-3-8.1,0.2-17.2H141.1z"/>
		<path class="st11" d="M149.2,197.8v17.8h-2.5c0,0-3-8.4,0.2-17.8H149.2z"/>
		<path class="st11" d="M157.1,198.1v17.8h-2.5c0,0-3-8.4,0.2-17.8H157.1z"/>
		<path class="st11" d="M184.1,214.8c0,1-0.8,1.8-1.8,1.8h-20.7c-1,0-1.8-0.8-1.8-1.8v-8.7c0-1,0.8-1.8,1.8-1.8h20.7
			c1,0,1.8,0.8,1.8,1.8V214.8z"/>
		<path class="st10" d="M181.4,214.1c0,1-0.8,1.8-1.8,1.8h-15.2c-1,0-1.8-0.8-1.8-1.8v-5.4c0-1,0.8-1.8,1.8-1.8h15.2
			c1,0,1.8,0.8,1.8,1.8V214.1z"/>
		<path class="st11" d="M179.6,213.1c0,1-0.8,1.8-1.8,1.8h-11.2c-1,0-1.8-0.8-1.8-1.8v-2.7c0-1,0.8-1.8,1.8-1.8h11.2
			c1,0,1.8,0.8,1.8,1.8V213.1z"/>
		<rect x="166.9" y="215.9" class="st11" width="3.5" height="1"/>
		<rect x="171.4" y="215.9" class="st11" width="3.5" height="1"/>
		<rect x="175.9" y="215.9" class="st11" width="3.5" height="1"/>
	</g>
	<circle cx="223.9" cy="132.6" r="1.2"/>
	<circle cx="78.2" cy="132.6" r="1.2"/>
</g>
</svg>
