<?xml version="1.0" encoding="utf-8"?>
<!-- Generator: Adobe Illustrator 12.0.1, SVG Export Plug-In . SVG Version: 6.00 Build 51448)  -->
<!DOCTYPE svg PUBLIC "-//W3C//DTD SVG 1.1//EN" "http://www.w3.org/Graphics/SVG/1.1/DTD/svg11.dtd" [
	<!ENTITY ns_svg "http://www.w3.org/2000/svg">
	<!ENTITY ns_xlink "http://www.w3.org/1999/xlink">
]>
<svg  version="1.1" xmlns="&ns_svg;" xmlns:xlink="&ns_xlink;" width="341.147" height="242.985" viewBox="0 0 341.147 242.985"
	 overflow="visible" enable-background="new 0 0 341.147 242.985" xml:space="preserve">
<g id="Guide">
	<g>
		<g>
			<polyline fill="#878E94" points="157.725,109.67 35.423,109.67 35.423,87.413 157.725,87.413 157.725,109.67 			"/>
			<polygon fill="none" stroke="#FFFFFF" stroke-width="0.5" points="157.725,109.67 35.423,109.67 35.423,87.413 157.725,87.413 
				157.725,109.67 			"/>
			<polyline fill="#B3B7BE" points="157.725,87.413 35.423,87.413 49.78,77.346 143.367,77.346 157.725,87.413 			"/>
		</g>
		<path fill="#FFFFFF" d="M106.798,92.896c0,1.46-4.482,2.642-10.012,2.642c-5.531,0-10.014-1.182-10.014-2.642
			c0-1.459,4.482-2.641,10.014-2.641C102.315,90.255,106.798,91.437,106.798,92.896"/>
		<path fill="#FFFFFF" d="M86.772,93.271v10.92c0,1.457,4.482,2.641,10.014,2.641c5.529,0,10.012-1.185,10.012-2.641V92.896"/>
		<path fill="none" stroke="#B3B7BE" stroke-width="0.5" d="M86.772,93.271v10.92c0,1.457,4.482,2.641,10.014,2.641
			c5.529,0,10.012-1.185,10.012-2.641V92.896 M106.798,92.896c0,1.46-4.482,2.642-10.012,2.642c-5.531,0-10.014-1.182-10.014-2.642
			c0-1.459,4.482-2.641,10.014-2.641C102.315,90.255,106.798,91.437,106.798,92.896L106.798,92.896z"/>
		<polyline fill="#FFFFFF" points="140.242,93.541 130.069,91.608 130.069,93.097 115.23,93.097 115.23,94.377 130.069,94.377 
			130.069,95.793 140.242,93.663 140.242,93.541 		"/>
		<polyline fill="#FFFFFF" points="140.242,103.127 130.069,101.193 130.069,102.682 115.23,102.682 115.23,103.956 
			130.069,103.956 130.069,105.378 140.242,103.244 140.242,103.127 		"/>
		<polyline fill="#FFFFFF" points="52.91,103.542 63.078,105.476 63.078,103.986 77.918,103.986 77.918,102.711 63.078,102.711 
			63.078,101.292 52.91,103.425 52.91,103.542 		"/>
		<polyline fill="#FFFFFF" points="52.91,93.956 63.078,95.89 63.078,94.401 77.918,94.401 77.918,93.126 63.078,93.126 
			63.078,91.705 52.91,93.838 52.91,93.956 		"/>
	</g>
	<g>
		<g>
			<polyline fill="#878E94" points="308.725,109.67 186.423,109.67 186.423,87.413 308.725,87.413 308.725,109.67 			"/>
			<polygon fill="none" stroke="#FFFFFF" stroke-width="0.5" points="308.725,109.67 186.423,109.67 186.423,87.413 308.725,87.413 
				308.725,109.67 			"/>
			<polyline fill="#B3B7BE" points="308.725,87.413 186.423,87.413 200.78,77.346 294.368,77.346 308.725,87.413 			"/>
		</g>
		<path fill="#FFFFFF" d="M257.797,92.896c0,1.46-4.482,2.642-10.012,2.642c-5.531,0-10.013-1.182-10.013-2.642
			c0-1.459,4.482-2.641,10.013-2.641C253.315,90.255,257.797,91.437,257.797,92.896"/>
		<path fill="#FFFFFF" d="M237.772,93.271v10.92c0,1.457,4.482,2.641,10.013,2.641c5.529,0,10.012-1.185,10.012-2.641V92.896"/>
		<path fill="none" stroke="#B3B7BE" stroke-width="0.5" d="M237.772,93.271v10.92c0,1.457,4.482,2.641,10.013,2.641
			c5.529,0,10.012-1.185,10.012-2.641V92.896 M257.797,92.896c0,1.46-4.482,2.642-10.012,2.642c-5.531,0-10.013-1.182-10.013-2.642
			c0-1.459,4.482-2.641,10.013-2.641C253.315,90.255,257.797,91.437,257.797,92.896L257.797,92.896z"/>
		<polyline fill="#FFFFFF" points="291.243,93.541 281.069,91.608 281.069,93.097 266.231,93.097 266.231,94.377 281.069,94.377 
			281.069,95.793 291.243,93.663 291.243,93.541 		"/>
		<polyline fill="#FFFFFF" points="291.243,103.127 281.069,101.193 281.069,102.682 266.231,102.682 266.231,103.956 
			281.069,103.956 281.069,105.378 291.243,103.244 291.243,103.127 		"/>
		<polyline fill="#FFFFFF" points="203.91,103.542 214.078,105.476 214.078,103.986 228.918,103.986 228.918,102.711 
			214.078,102.711 214.078,101.292 203.91,103.425 203.91,103.542 		"/>
		<polyline fill="#FFFFFF" points="203.91,93.956 214.078,95.89 214.078,94.401 228.918,94.401 228.918,93.126 214.078,93.126 
			214.078,91.705 203.91,93.838 203.91,93.956 		"/>
	</g>
	<g>
		<g>
			<polyline fill="#949494" points="87.482,32.096 0,32.096 0,26.383 87.482,26.383 87.482,32.096 			"/>
			<polyline fill="#464646" points="87.482,37.952 0,37.952 0,32.239 87.482,32.239 87.482,37.952 			"/>
			<polyline fill="#949494" points="87.482,43.724 0,43.724 0,38.011 87.482,38.011 87.482,43.724 			"/>
			<polyline fill="#464646" points="87.482,49.58 0,49.58 0,43.867 87.482,43.867 87.482,49.58 			"/>
			<g>
				<polyline fill="#B3B7BE" points="87.482,15.349 0,15.349 4.493,10.877 82.989,10.877 87.482,15.349 				"/>
				<path fill="#444B4C" d="M85.218,24.677c-1.75,0-3.164-1.42-3.164-3.169c0-1.752,1.414-3.169,3.164-3.169V24.677"/>
				<polyline fill="#464646" points="87.482,25.631 0,25.631 0,15.349 87.482,15.349 87.482,25.631 				"/>
				<polyline fill="#949494" points="83.211,23.829 4.052,23.829 4.052,17.489 83.211,17.489 83.211,23.829 				"/>
				<ellipse fill="#FFFFFF" cx="83.127" cy="20.681" rx="1.44" ry="1.062"/>
			</g>
			<rect x="40.43" y="27.427" fill="#FFFFFF" width="14.232" height="0.595"/>
			<ellipse fill="#FFFFFF" cx="53.604" cy="30.229" rx="1.482" ry="1.019"/>
			<rect x="40.43" y="33.369" fill="#FFFFFF" width="14.232" height="0.594"/>
			<ellipse fill="#FFFFFF" cx="53.604" cy="36.17" rx="1.482" ry="1.019"/>
			<rect x="68.979" y="33.369" fill="#FFFFFF" width="14.232" height="0.594"/>
			<ellipse fill="#FFFFFF" cx="82.153" cy="36.17" rx="1.482" ry="1.019"/>
			<ellipse fill="#FFFFFF" cx="82.153" cy="42.111" rx="1.482" ry="1.019"/>
			<rect x="68.979" y="45.251" fill="#FFFFFF" width="14.232" height="0.594"/>
			<ellipse fill="#FFFFFF" cx="82.153" cy="48.052" rx="1.482" ry="1.019"/>
			<rect x="40.43" y="39.311" fill="#FFFFFF" width="14.232" height="0.594"/>
			<ellipse fill="#FFFFFF" cx="53.604" cy="42.111" rx="1.482" ry="1.019"/>
			<rect x="40.43" y="45.252" fill="#FFFFFF" width="14.232" height="0.594"/>
			<ellipse fill="#FFFFFF" cx="53.604" cy="48.053" rx="1.482" ry="1.019"/>
			<ellipse fill="#FFFFFF" cx="81.984" cy="30.229" rx="1.482" ry="1.019"/>
			<line fill="#FFFFFF" stroke="#FFFFFF" x1="58.475" y1="26.069" x2="58.475" y2="50.004"/>
		</g>
		<g>
			<polyline fill="#949494" points="196.808,32.096 109.325,32.096 109.325,26.383 196.808,26.383 196.808,32.096 			"/>
			<polyline fill="#464646" points="196.808,37.952 109.325,37.952 109.325,32.239 196.808,32.239 196.808,37.952 			"/>
			<polyline fill="#949494" points="196.808,43.724 109.325,43.724 109.325,38.011 196.808,38.011 196.808,43.724 			"/>
			<polyline fill="#464646" points="196.808,49.58 109.325,49.58 109.325,43.867 196.808,43.867 196.808,49.58 			"/>
			<g>
				<polyline fill="#B3B7BE" points="196.808,15.349 109.325,15.349 113.818,10.877 192.313,10.877 196.808,15.349 				"/>
				<path fill="#444B4C" d="M194.543,24.677c-1.75,0-3.165-1.42-3.165-3.169c0-1.752,1.414-3.169,3.165-3.169V24.677"/>
				<polyline fill="#464646" points="196.808,25.631 109.325,25.631 109.325,15.349 196.808,15.349 196.808,25.631 				"/>
				<polyline fill="#949494" points="192.536,23.829 113.375,23.829 113.375,17.489 192.536,17.489 192.536,23.829 				"/>
				<ellipse fill="#FFFFFF" cx="192.451" cy="20.681" rx="1.44" ry="1.062"/>
			</g>
			<rect x="149.755" y="27.427" fill="#FFFFFF" width="14.232" height="0.595"/>
			<ellipse fill="#FFFFFF" cx="162.928" cy="30.229" rx="1.482" ry="1.019"/>
			<rect x="149.755" y="33.369" fill="#FFFFFF" width="14.232" height="0.595"/>
			<ellipse fill="#FFFFFF" cx="162.928" cy="36.17" rx="1.482" ry="1.019"/>
			<rect x="178.304" y="33.369" fill="#FFFFFF" width="14.232" height="0.595"/>
			<ellipse fill="#FFFFFF" cx="191.478" cy="36.17" rx="1.482" ry="1.019"/>
			<ellipse fill="#FFFFFF" cx="191.478" cy="42.111" rx="1.482" ry="1.019"/>
			<rect x="178.304" y="45.251" fill="#FFFFFF" width="14.232" height="0.594"/>
			<ellipse fill="#FFFFFF" cx="191.478" cy="48.052" rx="1.482" ry="1.019"/>
			<rect x="149.755" y="39.311" fill="#FFFFFF" width="14.232" height="0.594"/>
			<ellipse fill="#FFFFFF" cx="162.928" cy="42.111" rx="1.482" ry="1.019"/>
			<rect x="149.755" y="45.252" fill="#FFFFFF" width="14.232" height="0.594"/>
			<ellipse fill="#FFFFFF" cx="162.928" cy="48.053" rx="1.482" ry="1.019"/>
			<ellipse fill="#FFFFFF" cx="191.309" cy="30.229" rx="1.482" ry="1.019"/>
			<line fill="#FFFFFF" stroke="#FFFFFF" x1="167.8" y1="26.069" x2="167.8" y2="50.004"/>
		</g>
		<g>
			<polyline fill="#949494" points="341.147,32.096 253.665,32.096 253.665,26.383 341.147,26.383 341.147,32.096 			"/>
			<polyline fill="#464646" points="341.147,37.952 253.665,37.952 253.665,32.239 341.147,32.239 341.147,37.952 			"/>
			<polyline fill="#949494" points="341.147,43.724 253.665,43.724 253.665,38.011 341.147,38.011 341.147,43.724 			"/>
			<polyline fill="#464646" points="341.147,49.58 253.665,49.58 253.665,43.867 341.147,43.867 341.147,49.58 			"/>
			<g>
				<polyline fill="#B3B7BE" points="341.147,15.349 253.665,15.349 258.159,10.877 336.655,10.877 341.147,15.349 				"/>
				<path fill="#444B4C" d="M338.883,24.677c-1.75,0-3.164-1.42-3.164-3.169c0-1.752,1.414-3.169,3.164-3.169V24.677"/>
				<polyline fill="#464646" points="341.147,25.631 253.665,25.631 253.665,15.349 341.147,15.349 341.147,25.631 				"/>
				<polyline fill="#949494" points="336.877,23.829 257.717,23.829 257.717,17.489 336.877,17.489 336.877,23.829 				"/>
				<ellipse fill="#FFFFFF" cx="336.792" cy="20.681" rx="1.439" ry="1.062"/>
			</g>
			<rect x="294.094" y="27.427" fill="#FFFFFF" width="14.232" height="0.595"/>
			<ellipse fill="#FFFFFF" cx="307.268" cy="30.229" rx="1.482" ry="1.019"/>
			<rect x="294.094" y="33.369" fill="#FFFFFF" width="14.232" height="0.595"/>
			<ellipse fill="#FFFFFF" cx="307.268" cy="36.17" rx="1.482" ry="1.019"/>
			<rect x="322.645" y="33.369" fill="#FFFFFF" width="14.232" height="0.595"/>
			<ellipse fill="#FFFFFF" cx="335.819" cy="36.17" rx="1.482" ry="1.019"/>
			<ellipse fill="#FFFFFF" cx="335.819" cy="42.111" rx="1.482" ry="1.019"/>
			<rect x="322.645" y="45.251" fill="#FFFFFF" width="14.232" height="0.594"/>
			<ellipse fill="#FFFFFF" cx="335.819" cy="48.052" rx="1.482" ry="1.019"/>
			<rect x="294.094" y="39.311" fill="#FFFFFF" width="14.232" height="0.594"/>
			<ellipse fill="#FFFFFF" cx="307.268" cy="42.111" rx="1.482" ry="1.019"/>
			<rect x="294.094" y="45.252" fill="#FFFFFF" width="14.232" height="0.594"/>
			<ellipse fill="#FFFFFF" cx="307.268" cy="48.053" rx="1.482" ry="1.019"/>
			<ellipse fill="#FFFFFF" cx="335.651" cy="30.229" rx="1.482" ry="1.019"/>
			<line fill="#FFFFFF" stroke="#FFFFFF" x1="312.141" y1="26.069" x2="312.141" y2="50.004"/>
		</g>
		<text transform="matrix(0.9981 0 0 1 4.7129 7.7129)" font-family="'HelveticaNeue-Roman'" font-size="9">Host 1</text>
		<text transform="matrix(0.9981 0 0 1 113.8496 7.7129)" font-family="'HelveticaNeue-Roman'" font-size="9">Host 2</text>
		<text transform="matrix(0.9981 0 0 1 257.8403 7.7129)" font-family="'HelveticaNeue-Roman'" font-size="9">Host N</text>
		<g>
			<rect x="216.709" y="47.704" width="2.549" height="2.554"/>
			<rect x="228.182" y="47.704" width="2.55" height="2.554"/>
			<rect x="222.445" y="47.704" width="2.549" height="2.554"/>
		</g>
	</g>
</g>
<g id="box_x5F_outline">
	<rect x="148.441" y="151.151" fill="none" width="48.667" height="12"/>
	<text transform="matrix(1 0 0 1 148.4409 157.6133)" font-family="'Helvetica'" font-size="9">Controller 1</text>
	<rect x="150.441" y="230.985" fill="none" width="48.667" height="12"/>
	<text transform="matrix(1 0 0 1 150.4409 237.4478)" font-family="'Helvetica'" font-size="9">Controller 2</text>
	<rect x="73.941" y="114.651" fill="none" width="64.667" height="10"/>
	<text transform="matrix(1 0 0 1 73.9409 121.1133)" font-family="'Helvetica'" font-size="9">Switch/Fabric 1</text>
	<rect x="203.941" y="114.651" fill="none" width="64.667" height="10"/>
	<text transform="matrix(1 0 0 1 203.9409 121.1133)" font-family="'Helvetica'" font-size="9">Switch/Fabric 2</text>
	
		<rect x="119.234" y="163.065" fill="#3F3F3F" stroke="#3F3F3F" stroke-width="0.5" stroke-linecap="round" stroke-linejoin="round" width="106.771" height="32.875"/>
	
		<rect x="120.122" y="164.526" fill="#B2B2B2" stroke="#FFFFFF" stroke-width="0.5" stroke-linecap="round" stroke-linejoin="round" width="9.611" height="29.876"/>
	
		<rect x="130.588" y="164.526" fill="#8C8C8C" stroke="#FFFFFF" stroke-width="0.5" stroke-linecap="round" stroke-linejoin="round" width="84.086" height="14.542"/>
	<g>
		<path fill="none" stroke="#000000" stroke-width="0.5" stroke-linecap="round" stroke-linejoin="round" d="M123.91,185.411
			c0,0-0.106-0.668,0.638-0.668s1.447,0,1.447,0s0.425-0.097,0.851,0.19c0.425,0.287,0.511,0.573,0.511,0.573
			s0.275,0.401,0.275,0.631c0,0.229,0.107,2.331,0.107,2.331s-0.128,0.401-0.277,0.631c-0.148,0.229-0.403,0.477-0.403,0.477
			s-0.489,0.287-0.702,0.287s-1.639,0-1.639,0s-0.617-0.21-0.66-0.631c-0.041-0.421-0.147-3.765-0.147-3.765"/>
		
			<rect x="125.334" y="185.754" fill="none" stroke="#000000" stroke-width="0.5" stroke-linecap="round" stroke-linejoin="round" width="0.745" height="0.268"/>
		
			<rect x="126.037" y="187.13" fill="none" stroke="#000000" stroke-width="0.5" stroke-linecap="round" stroke-linejoin="round" width="0.745" height="0.382"/>
		
			<rect x="125.398" y="188.659" fill="none" stroke="#000000" stroke-width="0.5" stroke-linecap="round" stroke-linejoin="round" width="0.639" height="0.248"/>
		
			<rect x="123.375" y="184.059" fill="none" stroke="#000000" stroke-width="0.5" stroke-linecap="round" stroke-linejoin="round" width="5.472" height="6.774"/>
	</g>
	
		<rect x="215.747" y="164.526" fill="#B2B2B2" stroke="#FFFFFF" stroke-width="0.5" stroke-linecap="round" stroke-linejoin="round" width="9.611" height="29.876"/>
	<path fill="none" stroke="#000000" stroke-width="0.5" stroke-linecap="round" stroke-linejoin="round" d="M219.535,185.411
		c0,0-0.106-0.668,0.638-0.668s1.447,0,1.447,0s0.425-0.097,0.851,0.19c0.425,0.287,0.511,0.573,0.511,0.573
		s0.275,0.401,0.275,0.631c0,0.229,0.107,2.331,0.107,2.331s-0.128,0.401-0.277,0.631c-0.148,0.229-0.403,0.477-0.403,0.477
		s-0.489,0.287-0.702,0.287s-1.639,0-1.639,0s-0.617-0.21-0.66-0.631c-0.041-0.421-0.147-3.765-0.147-3.765"/>
	
		<rect x="220.959" y="185.754" fill="none" stroke="#000000" stroke-width="0.5" stroke-linecap="round" stroke-linejoin="round" width="0.745" height="0.268"/>
	
		<rect x="221.023" y="188.659" fill="none" stroke="#000000" stroke-width="0.5" stroke-linecap="round" stroke-linejoin="round" width="0.639" height="0.248"/>
	
		<rect x="219" y="184.059" fill="none" stroke="#000000" stroke-width="0.5" stroke-linecap="round" stroke-linejoin="round" width="5.472" height="6.774"/>
	<g>
		
			<rect x="146.649" y="173.22" fill="#FFFFFF" stroke="#000000" stroke-width="0.5" stroke-linecap="round" stroke-linejoin="round" width="25.262" height="4.557"/>
		
			<rect x="146.649" y="169.056" fill="#FFFFFF" stroke="#000000" stroke-width="0.5" stroke-linecap="round" stroke-linejoin="round" width="25.262" height="4.557"/>
	</g>
	
		<rect x="132.399" y="173.931" fill="#FFFFFF" stroke="#000000" stroke-width="0.5" stroke-linecap="round" stroke-linejoin="round" width="12.887" height="3.721"/>
	
		<rect x="173.274" y="173.931" fill="#FFFFFF" stroke="#000000" stroke-width="0.5" stroke-linecap="round" stroke-linejoin="round" width="6.137" height="3.721"/>
	
		<line fill="none" stroke="#000000" stroke-width="0.5" stroke-linecap="round" stroke-linejoin="round" x1="188.887" y1="165.057" x2="188.887" y2="178.607"/>
	
		<rect x="189.79" y="172.934" fill="#8C8C8C" stroke="#FFFFFF" stroke-width="0.5" stroke-linecap="round" stroke-linejoin="round" width="22.605" height="4.963"/>
	
		<rect x="189.79" y="166.309" fill="#8C8C8C" stroke="#FFFFFF" stroke-width="0.5" stroke-linecap="round" stroke-linejoin="round" width="22.605" height="4.963"/>
	<path fill="#FFFFFF" stroke="#000000" stroke-width="0.5" stroke-linecap="round" stroke-linejoin="round" d="M163.469,165.067
		v2.406c0,0,0.297,0.353,1.361,0.353c1.063,0,10.338,0,10.338,0s1.107,0.089,1.192-0.463s0-2.296,0-2.296"/>
	
		<rect x="130.588" y="180.359" fill="#8C8C8C" stroke="#FFFFFF" stroke-width="0.5" stroke-linecap="round" stroke-linejoin="round" width="84.086" height="14.542"/>
	
		<rect x="173.274" y="189.764" fill="#FFFFFF" stroke="#000000" stroke-width="0.5" stroke-linecap="round" stroke-linejoin="round" width="6.137" height="3.721"/>
	
		<line fill="none" stroke="#000000" stroke-width="0.5" stroke-linecap="round" stroke-linejoin="round" x1="188.887" y1="180.89" x2="188.887" y2="194.44"/>
	
		<rect x="189.79" y="188.767" fill="#8C8C8C" stroke="#FFFFFF" stroke-width="0.5" stroke-linecap="round" stroke-linejoin="round" width="22.605" height="4.963"/>
	
		<rect x="189.79" y="182.142" fill="#8C8C8C" stroke="#FFFFFF" stroke-width="0.5" stroke-linecap="round" stroke-linejoin="round" width="22.605" height="4.963"/>
	
		<rect x="136.457" y="188.767" fill="#8C8C8C" stroke="#FFFFFF" stroke-width="0.5" stroke-linecap="round" stroke-linejoin="round" width="22.604" height="4.963"/>
	
		<rect x="136.457" y="182.142" fill="#8C8C8C" stroke="#FFFFFF" stroke-width="0.5" stroke-linecap="round" stroke-linejoin="round" width="22.604" height="4.963"/>
	<path fill="#FFFFFF" stroke="#000000" stroke-width="0.5" stroke-linecap="round" stroke-linejoin="round" d="M163.469,180.9v2.406
		c0,0,0.297,0.353,1.361,0.353c1.063,0,10.338,0,10.338,0s1.107,0.089,1.192-0.463s0-2.296,0-2.296"/>
	
		<rect x="119.234" y="194.547" fill="#3F3F3F" stroke="#3F3F3F" stroke-width="0.5" stroke-linecap="round" stroke-linejoin="round" width="106.771" height="32.875"/>
	
		<rect x="120.122" y="196.008" fill="#B2B2B2" stroke="#FFFFFF" stroke-width="0.5" stroke-linecap="round" stroke-linejoin="round" width="9.611" height="29.876"/>
	
		<rect x="130.588" y="196.008" fill="#8C8C8C" stroke="#FFFFFF" stroke-width="0.5" stroke-linecap="round" stroke-linejoin="round" width="84.086" height="14.542"/>
	<g>
		<path fill="none" stroke="#000000" stroke-width="0.5" stroke-linecap="round" stroke-linejoin="round" d="M123.91,216.893
			c0,0-0.106-0.668,0.638-0.668s1.447,0,1.447,0s0.425-0.097,0.851,0.19c0.425,0.287,0.511,0.573,0.511,0.573
			s0.275,0.401,0.275,0.631c0,0.229,0.107,2.331,0.107,2.331s-0.128,0.401-0.277,0.631c-0.148,0.229-0.403,0.477-0.403,0.477
			s-0.489,0.287-0.702,0.287s-1.639,0-1.639,0s-0.617-0.21-0.66-0.631c-0.041-0.421-0.147-3.765-0.147-3.765"/>
		
			<rect x="125.334" y="217.237" fill="none" stroke="#000000" stroke-width="0.5" stroke-linecap="round" stroke-linejoin="round" width="0.745" height="0.268"/>
		
			<rect x="126.037" y="218.613" fill="none" stroke="#000000" stroke-width="0.5" stroke-linecap="round" stroke-linejoin="round" width="0.745" height="0.382"/>
		
			<rect x="125.398" y="220.141" fill="none" stroke="#000000" stroke-width="0.5" stroke-linecap="round" stroke-linejoin="round" width="0.639" height="0.248"/>
		
			<rect x="123.375" y="215.542" fill="none" stroke="#000000" stroke-width="0.5" stroke-linecap="round" stroke-linejoin="round" width="5.472" height="6.774"/>
	</g>
	
		<rect x="215.747" y="196.008" fill="#B2B2B2" stroke="#FFFFFF" stroke-width="0.5" stroke-linecap="round" stroke-linejoin="round" width="9.611" height="29.876"/>
	<path fill="none" stroke="#000000" stroke-width="0.5" stroke-linecap="round" stroke-linejoin="round" d="M219.535,216.893
		c0,0-0.106-0.668,0.638-0.668s1.447,0,1.447,0s0.425-0.097,0.851,0.19c0.425,0.287,0.511,0.573,0.511,0.573
		s0.275,0.401,0.275,0.631c0,0.229,0.107,2.331,0.107,2.331s-0.128,0.401-0.277,0.631c-0.148,0.229-0.403,0.477-0.403,0.477
		s-0.489,0.287-0.702,0.287s-1.639,0-1.639,0s-0.617-0.21-0.66-0.631c-0.041-0.421-0.147-3.765-0.147-3.765"/>
	
		<rect x="220.959" y="217.237" fill="none" stroke="#000000" stroke-width="0.5" stroke-linecap="round" stroke-linejoin="round" width="0.745" height="0.268"/>
	
		<rect x="221.023" y="220.141" fill="none" stroke="#000000" stroke-width="0.5" stroke-linecap="round" stroke-linejoin="round" width="0.639" height="0.248"/>
	
		<rect x="219" y="215.542" fill="none" stroke="#000000" stroke-width="0.5" stroke-linecap="round" stroke-linejoin="round" width="5.472" height="6.774"/>
	<g>
		
			<rect x="146.649" y="204.703" fill="#FFFFFF" stroke="#000000" stroke-width="0.5" stroke-linecap="round" stroke-linejoin="round" width="25.262" height="4.557"/>
		
			<rect x="146.649" y="200.539" fill="#FFFFFF" stroke="#000000" stroke-width="0.5" stroke-linecap="round" stroke-linejoin="round" width="25.262" height="4.557"/>
	</g>
	
		<rect x="132.399" y="205.414" fill="#FFFFFF" stroke="#000000" stroke-width="0.5" stroke-linecap="round" stroke-linejoin="round" width="12.887" height="3.721"/>
	
		<rect x="173.274" y="205.414" fill="#FFFFFF" stroke="#000000" stroke-width="0.5" stroke-linecap="round" stroke-linejoin="round" width="6.137" height="3.721"/>
	
		<line fill="none" stroke="#000000" stroke-width="0.5" stroke-linecap="round" stroke-linejoin="round" x1="188.887" y1="196.54" x2="188.887" y2="210.089"/>
	
		<rect x="189.79" y="204.417" fill="#8C8C8C" stroke="#FFFFFF" stroke-width="0.5" stroke-linecap="round" stroke-linejoin="round" width="22.605" height="4.963"/>
	
		<rect x="189.79" y="197.792" fill="#8C8C8C" stroke="#FFFFFF" stroke-width="0.5" stroke-linecap="round" stroke-linejoin="round" width="22.605" height="4.963"/>
	<path fill="#FFFFFF" stroke="#000000" stroke-width="0.5" stroke-linecap="round" stroke-linejoin="round" d="M163.469,196.549
		v2.406c0,0,0.297,0.353,1.361,0.353c1.063,0,10.338,0,10.338,0s1.107,0.089,1.192-0.463s0-2.296,0-2.296"/>
	
		<rect x="130.588" y="211.841" fill="#8C8C8C" stroke="#FFFFFF" stroke-width="0.5" stroke-linecap="round" stroke-linejoin="round" width="84.086" height="14.542"/>
	
		<rect x="173.274" y="221.247" fill="#FFFFFF" stroke="#000000" stroke-width="0.5" stroke-linecap="round" stroke-linejoin="round" width="6.137" height="3.721"/>
	
		<line fill="none" stroke="#000000" stroke-width="0.5" stroke-linecap="round" stroke-linejoin="round" x1="188.887" y1="212.373" x2="188.887" y2="225.922"/>
	
		<rect x="189.79" y="220.25" fill="#8C8C8C" stroke="#FFFFFF" stroke-width="0.5" stroke-linecap="round" stroke-linejoin="round" width="22.605" height="4.963"/>
	
		<rect x="189.79" y="213.625" fill="#8C8C8C" stroke="#FFFFFF" stroke-width="0.5" stroke-linecap="round" stroke-linejoin="round" width="22.605" height="4.963"/>
	
		<rect x="136.457" y="220.25" fill="#8C8C8C" stroke="#FFFFFF" stroke-width="0.5" stroke-linecap="round" stroke-linejoin="round" width="22.604" height="4.963"/>
	
		<rect x="136.457" y="213.625" fill="#8C8C8C" stroke="#FFFFFF" stroke-width="0.5" stroke-linecap="round" stroke-linejoin="round" width="22.604" height="4.963"/>
	<path fill="#FFFFFF" stroke="#000000" stroke-width="0.5" stroke-linecap="round" stroke-linejoin="round" d="M163.469,212.382
		v2.406c0,0,0.297,0.353,1.361,0.353c1.063,0,10.338,0,10.338,0s1.107,0.089,1.192-0.463s0-2.296,0-2.296"/>
</g>
<g id="lines_x26_text">
	<polyline fill="none" stroke="#000000" stroke-width="0.5" points="35.274,99.235 21.024,99.235 21.024,49.985 	"/>
	<g>
		<polyline fill="none" stroke="#FFFFFF" stroke-width="3" points="47.774,49.985 47.774,70.112 209.774,70.112 209.774,76.985 		
			"/>
	</g>
	<g>
		<polyline fill="none" stroke="#000000" stroke-width="0.5" points="47.774,49.985 47.774,70.112 209.774,70.112 209.774,76.985 		
			"/>
	</g>
	<line fill="none" stroke="#FFFFFF" stroke-width="3" x1="120.524" y1="49.985" x2="120.524" y2="77.485"/>
	<line fill="none" stroke="#000000" stroke-width="0.5" x1="120.524" y1="49.985" x2="120.524" y2="77.485"/>
	<line fill="none" stroke="#FFFFFF" stroke-width="3" x1="283.524" y1="49.985" x2="283.524" y2="77.485"/>
	<line fill="none" stroke="#000000" stroke-width="0.5" x1="283.524" y1="49.985" x2="283.524" y2="77.485"/>
	<polyline fill="none" stroke="#000000" stroke-width="0.5" points="171.524,49.985 171.524,65.735 219.024,65.735 219.024,77.485 	
		"/>
	<g>
		<polyline fill="none" stroke="#FFFFFF" stroke-width="3" points="131.524,76.985 131.524,56.735 271.024,56.735 271.024,49.985 		
			"/>
	</g>
	<g>
		<polyline fill="none" stroke="#000000" stroke-width="0.5" points="131.524,76.985 131.524,56.735 271.024,56.735 271.024,49.985 
					"/>
	</g>
	<polyline fill="none" stroke="#000000" stroke-width="0.5" points="192.024,109.943 192.024,125.215 90.024,125.215 
		90.024,214.412 118.274,214.412 	"/>
	<polyline fill="none" stroke="#000000" stroke-width="0.5" points="117.784,209.209 106.274,209.209 106.274,128.672 
		200.274,128.672 200.274,109.735 	"/>
	<g>
		<polyline fill="none" stroke="#FFFFFF" stroke-width="3" points="137.024,109.735 137.024,136.235 233.274,136.235 
			233.274,167.985 225.524,167.985 		"/>
	</g>
	<g>
		<polyline fill="none" stroke="#000000" stroke-width="0.5" points="137.024,109.735 137.024,136.235 233.274,136.235 
			233.274,167.985 225.524,167.985 		"/>
	</g>
	<g>
		<polyline fill="none" stroke="#FFFFFF" stroke-width="3" points="146.274,109.735 146.274,140.485 247.524,140.485 
			247.524,174.235 225.774,174.235 		"/>
	</g>
	<g>
		<polyline fill="none" stroke="#000000" stroke-width="0.5" points="146.274,109.735 146.274,140.485 247.524,140.485 
			247.524,174.235 225.774,174.235 		"/>
	</g>
	<rect x="234.649" y="151.11" fill="none" width="12.25" height="8.75"/>
	<text transform="matrix(1 0 0 1 234.6489 157.5718)" font-family="'Helvetica'" font-size="9">0c</text>
	<rect x="249.649" y="151.61" fill="none" width="12.25" height="8.75"/>
	<text transform="matrix(1 0 0 1 249.6489 158.0718)" font-family="'Helvetica'" font-size="9">1a</text>
	<rect x="268.149" y="151.61" fill="none" width="12.25" height="8.75"/>
	<text transform="matrix(1 0 0 1 268.1489 158.0718)" font-family="'Helvetica'" font-size="9">0d</text>
	<rect x="285.649" y="151.61" fill="none" width="12.25" height="8.75"/>
	<text transform="matrix(1 0 0 1 285.6489 158.0718)" font-family="'Helvetica'" font-size="9">1b</text>
	<rect x="77.232" y="196.985" fill="none" width="12.25" height="8.75"/>
	<text transform="matrix(1 0 0 1 77.2319 203.4468)" font-family="'Helvetica'" font-size="9">0d</text>
	<rect x="94.732" y="197.485" fill="none" width="12.25" height="8.75"/>
	<text transform="matrix(1 0 0 1 94.7319 203.9468)" font-family="'Helvetica'" font-size="9">1b</text>
	<rect x="38.732" y="196.985" fill="none" width="12.25" height="8.75"/>
	<text transform="matrix(1 0 0 1 38.7319 203.4468)" font-family="'Helvetica'" font-size="9">0c</text>
	<rect x="56.232" y="197.485" fill="none" width="12.25" height="8.75"/>
	<text transform="matrix(1 0 0 1 56.2319 203.9468)" font-family="'Helvetica'" font-size="9">1a</text>
	<polyline fill="none" stroke="#000000" stroke-width="0.5" points="118.024,219.199 70.524,219.199 70.524,109.943 	"/>
	<polyline fill="none" stroke="#000000" stroke-width="0.5" points="118.524,223.985 51.774,223.985 51.774,109.943 	"/>
	<polyline fill="none" stroke="#000000" stroke-width="0.5" points="225.524,179.985 266.774,179.985 266.774,110.485 	"/>
	<polyline fill="none" stroke="#000000" stroke-width="0.5" points="225.524,184.985 283.024,184.985 283.024,109.985 	"/>
</g>
</svg>
