<?xml version="1.0" encoding="utf-8"?>
<!-- Generator: Adobe Illustrator 16.0.3, SVG Export Plug-In . SVG Version: 6.00 Build 0)  -->
<!DOCTYPE svg PUBLIC "-//W3C//DTD SVG 1.1//EN" "http://www.w3.org/Graphics/SVG/1.1/DTD/svg11.dtd">
<svg version="1.1" xmlns="http://www.w3.org/2000/svg" xmlns:xlink="http://www.w3.org/1999/xlink" x="0px" y="0px" width="352px"
	 height="246px" viewBox="0 0 352 246" enable-background="new 0 0 352 246" xml:space="preserve">
<g id="lines">
	
		<line fill="none" stroke="#000000" stroke-width="0.5" stroke-linecap="round" stroke-linejoin="round" x1="115.048" y1="50.25" x2="115.048" y2="87.417"/>
	
		<line fill="none" stroke="#000000" stroke-width="0.5" stroke-linecap="round" stroke-linejoin="round" x1="260.683" y1="50.25" x2="260.683" y2="87.417"/>
	<polyline fill="none" stroke="#000000" stroke-width="0.5" stroke-linecap="round" stroke-linejoin="round" points="
		122.655,88.001 122.655,75.931 273.5,75.931 273.5,49.25 	"/>
	<polyline fill="none" stroke="#000000" stroke-width="0.5" stroke-linecap="round" stroke-linejoin="round" points="64,49.25 
		64,67.453 85.25,67.453 85.25,88.167 	"/>
	<polyline fill="none" stroke="#000000" stroke-width="0.5" stroke-linecap="round" stroke-linejoin="round" points="
		114.917,118.606 114.917,144.576 236.35,144.576 236.35,188.25 222.5,188.25 	"/>
	<polyline fill="none" stroke="#000000" stroke-width="0.5" stroke-linecap="round" stroke-linejoin="round" points="
		260.999,136.833 260.999,146.296 260.999,146.296 260.999,194.751 222.5,194.751 	"/>
	<polyline fill="none" stroke="#000000" stroke-width="0.5" stroke-linecap="round" stroke-linejoin="round" points="83.098,49.25 
		83.098,62 229.667,62 229.667,88.167 	"/>
	<polyline fill="none" stroke="#000000" stroke-width="0.5" stroke-linecap="round" stroke-linejoin="round" points="177.424,50.25 
		177.424,55.864 252.493,55.864 252.493,88.084 	"/>
	<polyline fill="none" stroke="#000000" stroke-width="0.5" stroke-linecap="round" stroke-linejoin="round" points="94,214.75 
		94,154.798 229.464,154.798 229.464,118.45 	"/>
	
		<line fill="none" stroke="#000000" stroke-width="0.5" stroke-linecap="round" stroke-linejoin="round" x1="94" y1="214.75" x2="116.833" y2="214.75"/>
	
		<line fill="none" stroke="#000000" stroke-width="0.5" stroke-linecap="round" stroke-linejoin="round" x1="84" y1="135.864" x2="84" y2="222.698"/>
	
		<line fill="none" stroke="#000000" stroke-width="0.5" stroke-linecap="round" stroke-linejoin="round" x1="84" y1="223.084" x2="116.833" y2="223.084"/>
</g>
<g id="boxes">
	<rect x="5.75" y="34.5" fill="#3F3F3F" width="84.25" height="5.25"/>
	<rect x="5.75" y="29.25" fill="#B2B2B2" width="84.25" height="5"/>
	<rect x="5.75" y="45.25" fill="#3F3F3F" width="84.25" height="5"/>
	<rect x="5.75" y="40" fill="#B2B2B2" width="84.25" height="5"/>
	
		<line fill="none" stroke="#FFFFFF" stroke-width="0.5" stroke-linecap="round" stroke-linejoin="round" x1="62" y1="29.5" x2="62" y2="50.5"/>
	
		<line fill="none" stroke="#FFFFFF" stroke-width="0.5" stroke-linecap="round" stroke-linejoin="round" x1="44.75" y1="30.25" x2="59" y2="30.25"/>
	
		<ellipse fill="#FFFFFF" stroke="#FFFFFF" stroke-width="0.5" stroke-linecap="round" stroke-linejoin="round" cx="56.625" cy="32.75" rx="1.107" ry="0.914"/>
	
		<line fill="none" stroke="#FFFFFF" stroke-width="0.5" stroke-linecap="round" stroke-linejoin="round" x1="44.75" y1="35.25" x2="59" y2="35.25"/>
	
		<ellipse fill="#FFFFFF" stroke="#FFFFFF" stroke-width="0.5" stroke-linecap="round" stroke-linejoin="round" cx="56.625" cy="37.75" rx="1.107" ry="0.914"/>
	
		<line fill="none" stroke="#FFFFFF" stroke-width="0.5" stroke-linecap="round" stroke-linejoin="round" x1="73.25" y1="35.25" x2="87.5" y2="35.25"/>
	
		<ellipse fill="#FFFFFF" stroke="#FFFFFF" stroke-width="0.5" stroke-linecap="round" stroke-linejoin="round" cx="85.125" cy="37.75" rx="1.107" ry="0.914"/>
	
		<line fill="none" stroke="#FFFFFF" stroke-width="0.5" stroke-linecap="round" stroke-linejoin="round" x1="73.25" y1="46" x2="87.5" y2="46"/>
	
		<ellipse fill="#FFFFFF" stroke="#FFFFFF" stroke-width="0.5" stroke-linecap="round" stroke-linejoin="round" cx="85.125" cy="48.5" rx="1.107" ry="0.914"/>
	
		<line fill="none" stroke="#FFFFFF" stroke-width="0.5" stroke-linecap="round" stroke-linejoin="round" x1="44.75" y1="41.25" x2="59" y2="41.25"/>
	
		<ellipse fill="#FFFFFF" stroke="#FFFFFF" stroke-width="0.5" stroke-linecap="round" stroke-linejoin="round" cx="56.625" cy="43.75" rx="1.107" ry="0.914"/>
	
		<ellipse fill="#FFFFFF" stroke="#FFFFFF" stroke-width="0.5" stroke-linecap="round" stroke-linejoin="round" cx="85.125" cy="43.75" rx="1.107" ry="0.914"/>
	
		<line fill="none" stroke="#FFFFFF" stroke-width="0.5" stroke-linecap="round" stroke-linejoin="round" x1="44.75" y1="46.25" x2="59" y2="46.25"/>
	
		<ellipse fill="#FFFFFF" stroke="#FFFFFF" stroke-width="0.5" stroke-linecap="round" stroke-linejoin="round" cx="56.625" cy="48.75" rx="1.107" ry="0.914"/>
	
		<ellipse fill="#FFFFFF" stroke="#FFFFFF" stroke-width="0.5" stroke-linecap="round" stroke-linejoin="round" cx="85.375" cy="32.75" rx="1.107" ry="0.914"/>
	<rect x="6" y="18.5" fill="#3F3F3F" width="84" height="10"/>
	<rect x="10.25" y="21" fill="#B2B2B2" width="76.25" height="5.25"/>
	<polygon fill="#8C8C8C" points="6,18.5 89.25,18.5 85.25,14.75 10.25,14.75 	"/>
	
		<ellipse fill="#FFFFFF" stroke="#FFFFFF" stroke-width="0.5" stroke-linecap="round" stroke-linejoin="round" cx="86.625" cy="23.75" rx="1.107" ry="0.914"/>
	<rect x="111.417" y="34.5" fill="#3F3F3F" width="84.25" height="5.25"/>
	<rect x="111.417" y="29.25" fill="#B2B2B2" width="84.25" height="5"/>
	<rect x="111.417" y="45.25" fill="#3F3F3F" width="84.25" height="5"/>
	<rect x="111.417" y="40" fill="#B2B2B2" width="84.25" height="5"/>
	
		<line fill="none" stroke="#FFFFFF" stroke-width="0.5" stroke-linecap="round" stroke-linejoin="round" x1="167.666" y1="29.5" x2="167.666" y2="50.5"/>
	
		<line fill="none" stroke="#FFFFFF" stroke-width="0.5" stroke-linecap="round" stroke-linejoin="round" x1="150.417" y1="30.25" x2="164.666" y2="30.25"/>
	
		<ellipse fill="#FFFFFF" stroke="#FFFFFF" stroke-width="0.5" stroke-linecap="round" stroke-linejoin="round" cx="162.291" cy="32.75" rx="1.107" ry="0.914"/>
	
		<line fill="none" stroke="#FFFFFF" stroke-width="0.5" stroke-linecap="round" stroke-linejoin="round" x1="150.417" y1="35.25" x2="164.666" y2="35.25"/>
	
		<ellipse fill="#FFFFFF" stroke="#FFFFFF" stroke-width="0.5" stroke-linecap="round" stroke-linejoin="round" cx="162.291" cy="37.75" rx="1.107" ry="0.914"/>
	
		<line fill="none" stroke="#FFFFFF" stroke-width="0.5" stroke-linecap="round" stroke-linejoin="round" x1="178.916" y1="35.25" x2="193.166" y2="35.25"/>
	
		<ellipse fill="#FFFFFF" stroke="#FFFFFF" stroke-width="0.5" stroke-linecap="round" stroke-linejoin="round" cx="190.791" cy="37.75" rx="1.107" ry="0.914"/>
	
		<line fill="none" stroke="#FFFFFF" stroke-width="0.5" stroke-linecap="round" stroke-linejoin="round" x1="178.916" y1="46" x2="193.166" y2="46"/>
	
		<ellipse fill="#FFFFFF" stroke="#FFFFFF" stroke-width="0.5" stroke-linecap="round" stroke-linejoin="round" cx="190.791" cy="48.5" rx="1.107" ry="0.914"/>
	
		<line fill="none" stroke="#FFFFFF" stroke-width="0.5" stroke-linecap="round" stroke-linejoin="round" x1="150.417" y1="41.25" x2="164.666" y2="41.25"/>
	
		<ellipse fill="#FFFFFF" stroke="#FFFFFF" stroke-width="0.5" stroke-linecap="round" stroke-linejoin="round" cx="162.291" cy="43.75" rx="1.107" ry="0.914"/>
	
		<ellipse fill="#FFFFFF" stroke="#FFFFFF" stroke-width="0.5" stroke-linecap="round" stroke-linejoin="round" cx="190.791" cy="43.75" rx="1.107" ry="0.914"/>
	
		<line fill="none" stroke="#FFFFFF" stroke-width="0.5" stroke-linecap="round" stroke-linejoin="round" x1="150.417" y1="46.25" x2="164.666" y2="46.25"/>
	
		<ellipse fill="#FFFFFF" stroke="#FFFFFF" stroke-width="0.5" stroke-linecap="round" stroke-linejoin="round" cx="162.291" cy="48.75" rx="1.107" ry="0.914"/>
	
		<ellipse fill="#FFFFFF" stroke="#FFFFFF" stroke-width="0.5" stroke-linecap="round" stroke-linejoin="round" cx="191.041" cy="32.75" rx="1.107" ry="0.914"/>
	<rect x="111.667" y="18.5" fill="#3F3F3F" width="84" height="10"/>
	<rect x="115.917" y="21" fill="#B2B2B2" width="76.25" height="5.25"/>
	<polygon fill="#8C8C8C" points="111.667,18.5 194.916,18.5 190.916,14.75 115.917,14.75 	"/>
	
		<ellipse fill="#FFFFFF" stroke="#FFFFFF" stroke-width="0.5" stroke-linecap="round" stroke-linejoin="round" cx="192.291" cy="23.75" rx="1.107" ry="0.914"/>
	<rect x="250.084" y="34.5" fill="#3F3F3F" width="84.249" height="5.25"/>
	<rect x="250.084" y="29.25" fill="#B2B2B2" width="84.249" height="5"/>
	<rect x="250.084" y="45.25" fill="#3F3F3F" width="84.249" height="5"/>
	<rect x="250.084" y="40" fill="#B2B2B2" width="84.249" height="5"/>
	
		<line fill="none" stroke="#FFFFFF" stroke-width="0.5" stroke-linecap="round" stroke-linejoin="round" x1="306.334" y1="29.5" x2="306.334" y2="50.5"/>
	
		<line fill="none" stroke="#FFFFFF" stroke-width="0.5" stroke-linecap="round" stroke-linejoin="round" x1="289.084" y1="30.25" x2="303.334" y2="30.25"/>
	
		<ellipse fill="#FFFFFF" stroke="#FFFFFF" stroke-width="0.5" stroke-linecap="round" stroke-linejoin="round" cx="300.959" cy="32.75" rx="1.107" ry="0.914"/>
	
		<line fill="none" stroke="#FFFFFF" stroke-width="0.5" stroke-linecap="round" stroke-linejoin="round" x1="289.084" y1="35.25" x2="303.334" y2="35.25"/>
	
		<ellipse fill="#FFFFFF" stroke="#FFFFFF" stroke-width="0.5" stroke-linecap="round" stroke-linejoin="round" cx="300.959" cy="37.75" rx="1.107" ry="0.914"/>
	
		<line fill="none" stroke="#FFFFFF" stroke-width="0.5" stroke-linecap="round" stroke-linejoin="round" x1="317.583" y1="35.25" x2="331.833" y2="35.25"/>
	
		<ellipse fill="#FFFFFF" stroke="#FFFFFF" stroke-width="0.5" stroke-linecap="round" stroke-linejoin="round" cx="329.458" cy="37.75" rx="1.107" ry="0.914"/>
	
		<line fill="none" stroke="#FFFFFF" stroke-width="0.5" stroke-linecap="round" stroke-linejoin="round" x1="317.583" y1="46" x2="331.833" y2="46"/>
	
		<ellipse fill="#FFFFFF" stroke="#FFFFFF" stroke-width="0.5" stroke-linecap="round" stroke-linejoin="round" cx="329.458" cy="48.5" rx="1.107" ry="0.914"/>
	
		<line fill="none" stroke="#FFFFFF" stroke-width="0.5" stroke-linecap="round" stroke-linejoin="round" x1="289.084" y1="41.25" x2="303.334" y2="41.25"/>
	
		<ellipse fill="#FFFFFF" stroke="#FFFFFF" stroke-width="0.5" stroke-linecap="round" stroke-linejoin="round" cx="300.959" cy="43.75" rx="1.107" ry="0.914"/>
	
		<ellipse fill="#FFFFFF" stroke="#FFFFFF" stroke-width="0.5" stroke-linecap="round" stroke-linejoin="round" cx="329.458" cy="43.75" rx="1.107" ry="0.914"/>
	
		<line fill="none" stroke="#FFFFFF" stroke-width="0.5" stroke-linecap="round" stroke-linejoin="round" x1="289.084" y1="46.25" x2="303.334" y2="46.25"/>
	
		<ellipse fill="#FFFFFF" stroke="#FFFFFF" stroke-width="0.5" stroke-linecap="round" stroke-linejoin="round" cx="300.959" cy="48.75" rx="1.107" ry="0.914"/>
	
		<ellipse fill="#FFFFFF" stroke="#FFFFFF" stroke-width="0.5" stroke-linecap="round" stroke-linejoin="round" cx="329.708" cy="32.75" rx="1.107" ry="0.914"/>
	<rect x="250.334" y="18.5" fill="#3F3F3F" width="83.999" height="10"/>
	<rect x="254.584" y="21" fill="#B2B2B2" width="76.249" height="5.25"/>
	<polygon fill="#8C8C8C" points="250.334,18.5 333.583,18.5 329.583,14.75 254.584,14.75 	"/>
	
		<ellipse fill="#FFFFFF" stroke="#FFFFFF" stroke-width="0.5" stroke-linecap="round" stroke-linejoin="round" cx="330.958" cy="23.75" rx="1.107" ry="0.914"/>
</g>
<g id="text">
	<rect x="10.5" y="4.917" fill="none" width="27.667" height="8.333"/>
	<text transform="matrix(1 0 0 1 10.5 11.3794)" font-family="'Helvetica'" font-size="9">Host 1</text>
	<rect x="115.5" y="4.917" fill="none" width="27.667" height="8.333"/>
	<text transform="matrix(1 0 0 1 115.5 11.3794)" font-family="'Helvetica'" font-size="9">Host 2</text>
	<rect x="254.167" y="4.917" fill="none" width="27.667" height="8.333"/>
	<text transform="matrix(1 0 0 1 254.167 11.3794)" font-family="'Helvetica'" font-size="9">Host N</text>
	<g>
		<rect x="214.688" y="48.771" width="2.625" height="2.625"/>
		<rect x="220.021" y="48.771" width="2.625" height="2.625"/>
		<rect x="225.688" y="48.771" width="2.625" height="2.625"/>
	</g>
	<rect x="144.833" y="159.748" fill="none" width="51.333" height="7.667"/>
	<text transform="matrix(1 0 0 1 144.833 166.21)" font-family="'Helvetica'" font-size="9">Controller 1</text>
	<rect x="277.625" y="102.251" fill="none" width="68.375" height="31.898"/>
	<text transform="matrix(1 0 0 1 277.625 108.7129)"><tspan x="0" y="0" font-family="'Helvetica'" font-size="9">Ethernet</tspan><tspan x="0" y="10.8" font-family="'Helvetica'" font-size="9">capable switch</tspan></text>
	<rect x="14.188" y="102.251" fill="none" width="68.375" height="31.898"/>
	<text transform="matrix(1 0 0 1 14.1875 108.7129)"><tspan x="0" y="0" font-family="'Helvetica'" font-size="9">Ethernet </tspan><tspan x="0" y="10.8" font-family="'Helvetica'" font-size="9">capable switch</tspan></text>
	<rect x="234.241" y="169.582" fill="none" width="18.333" height="7.667"/>
	<text transform="matrix(1 0 0 1 237.5625 176.0439)" font-family="'Helvetica'" font-size="9">e0a</text>
	<rect x="258.876" y="169.582" fill="none" width="18.333" height="7.667"/>
	<text transform="matrix(1 0 0 1 262.1973 176.0439)" font-family="'Helvetica'" font-size="9">e0b</text>
	<rect x="93.792" y="159.748" fill="none" width="18.333" height="7.667"/>
	<text transform="matrix(1 0 0 1 97.1133 166.21)" font-family="'Helvetica'" font-size="9">e0a</text>
	<rect x="63.058" y="212.917" fill="none" width="18.333" height="7.667"/>
	<text transform="matrix(1 0 0 1 66.3789 219.3789)" font-family="'Helvetica'" font-size="9">e0b</text>
	<rect x="144.833" y="231.081" fill="none" width="51.333" height="7.667"/>
	<text transform="matrix(1 0 0 1 144.8335 237.543)" font-family="'Helvetica'" font-size="9">Controller 2</text>
</g>
<g id="outline">
	<g>
		
			<rect x="224.125" y="87.417" fill="#FFFFFF" stroke="#000000" stroke-width="0.5" stroke-linecap="round" stroke-linejoin="round" width="49.168" height="48.833"/>
		<g>
			<polygon fill="none" stroke="#000000" stroke-width="0.5" stroke-linecap="round" stroke-linejoin="round" points="
				250.626,95.25 249.57,92.959 248.518,90.666 247.463,92.959 246.407,95.25 247.375,95.084 247.375,109.084 249.625,109.084 
				249.625,95.084 			"/>
		</g>
		<g>
			<polygon fill="none" stroke="#000000" stroke-width="0.5" stroke-linecap="round" stroke-linejoin="round" points="
				246.406,128.831 247.461,131.123 248.516,133.415 249.57,131.123 250.625,128.831 249.656,128.998 249.656,114.998 
				247.406,114.998 247.406,128.998 			"/>
		</g>
		<g>
			<polygon fill="none" stroke="#000000" stroke-width="0.5" stroke-linecap="round" stroke-linejoin="round" points="
				231.726,109.931 229.434,110.986 227.142,112.04 229.434,113.095 231.726,114.149 231.559,113.182 245.559,113.182 
				245.559,110.932 231.559,110.932 			"/>
		</g>
		<g>
			<polygon fill="none" stroke="#000000" stroke-width="0.5" stroke-linecap="round" stroke-linejoin="round" points="
				265.307,114.15 267.598,113.096 269.891,112.042 267.598,110.987 265.307,109.932 265.473,110.9 251.474,110.9 251.474,113.15 
				265.473,113.15 			"/>
		</g>
		<g>
			<polygon fill="none" stroke="#000000" stroke-width="0.5" stroke-linecap="round" stroke-linejoin="round" points="
				235.234,122.338 234.36,124.705 233.484,127.07 235.852,126.195 238.218,125.32 237.415,124.755 247.314,114.855 
				245.724,113.264 235.824,123.164 			"/>
		</g>
		<g>
			<polygon fill="none" stroke="#000000" stroke-width="0.5" stroke-linecap="round" stroke-linejoin="round" points="
				261.965,101.576 262.838,99.21 263.715,96.844 261.348,97.719 258.98,98.593 259.783,99.16 249.885,109.06 251.475,110.65 
				261.375,100.752 			"/>
		</g>
		<g>
			<polygon fill="none" stroke="#000000" stroke-width="0.5" stroke-linecap="round" stroke-linejoin="round" points="
				238.053,98.676 235.686,97.802 233.319,96.926 234.194,99.293 235.069,101.659 235.635,100.856 245.535,110.756 247.126,109.165 
				237.227,99.266 			"/>
		</g>
		<g>
			<polygon fill="none" stroke="#000000" stroke-width="0.5" stroke-linecap="round" stroke-linejoin="round" points="
				258.814,125.405 261.18,126.279 263.547,127.156 262.67,124.789 261.797,122.422 261.23,123.225 251.33,113.326 249.74,114.916 
				259.639,124.816 			"/>
		</g>
	</g>
	<g>
		
			<rect x="78.375" y="87.417" fill="#FFFFFF" stroke="#000000" stroke-width="0.5" stroke-linecap="round" stroke-linejoin="round" width="49.168" height="48.833"/>
		<g>
			<polygon fill="none" stroke="#000000" stroke-width="0.5" stroke-linecap="round" stroke-linejoin="round" points="
				104.875,95.25 103.82,92.959 102.767,90.666 101.712,92.959 100.657,95.25 101.625,95.084 101.625,109.084 103.875,109.084 
				103.875,95.084 			"/>
		</g>
		<g>
			<polygon fill="none" stroke="#000000" stroke-width="0.5" stroke-linecap="round" stroke-linejoin="round" points="
				100.656,128.831 101.71,131.123 102.765,133.415 103.82,131.123 104.875,128.831 103.906,128.998 103.906,114.998 
				101.656,114.998 101.656,128.998 			"/>
		</g>
		<g>
			<polygon fill="none" stroke="#000000" stroke-width="0.5" stroke-linecap="round" stroke-linejoin="round" points="
				85.975,109.931 83.683,110.986 81.391,112.04 83.683,113.095 85.975,114.149 85.808,113.182 99.808,113.182 99.808,110.932 
				85.808,110.932 			"/>
		</g>
		<g>
			<polygon fill="none" stroke="#000000" stroke-width="0.5" stroke-linecap="round" stroke-linejoin="round" points="
				119.556,114.15 121.847,113.096 124.14,112.042 121.847,110.987 119.556,109.932 119.722,110.9 105.723,110.9 105.723,113.15 
				119.722,113.15 			"/>
		</g>
		<g>
			<polygon fill="none" stroke="#000000" stroke-width="0.5" stroke-linecap="round" stroke-linejoin="round" points="
				89.484,122.338 88.61,124.705 87.734,127.07 90.101,126.195 92.467,125.32 91.665,124.755 101.564,114.855 99.973,113.264 
				90.074,123.164 			"/>
		</g>
		<g>
			<polygon fill="none" stroke="#000000" stroke-width="0.5" stroke-linecap="round" stroke-linejoin="round" points="
				116.214,101.576 117.087,99.21 117.964,96.844 115.597,97.719 113.23,98.593 114.033,99.16 104.134,109.06 105.724,110.65 
				115.625,100.752 			"/>
		</g>
		<g>
			<polygon fill="none" stroke="#000000" stroke-width="0.5" stroke-linecap="round" stroke-linejoin="round" points="
				92.302,98.676 89.935,97.802 87.569,96.926 88.444,99.293 89.319,101.659 89.884,100.856 99.785,110.756 101.375,109.165 
				91.476,99.266 			"/>
		</g>
		<g>
			<polygon fill="none" stroke="#000000" stroke-width="0.5" stroke-linecap="round" stroke-linejoin="round" points="
				113.064,125.405 115.429,126.279 117.796,127.156 116.919,124.789 116.046,122.422 115.48,123.225 105.58,113.326 
				103.99,114.916 113.888,124.816 			"/>
		</g>
	</g>
	<circle cx="85.25" cy="87.417" r="1.25"/>
	<circle cx="114.917" cy="136.25" r="1.25"/>
	<circle cx="260.999" cy="136.25" r="1.25"/>
	<circle cx="115.048" cy="87.417" r="1.25"/>
	<circle cx="260.683" cy="87.417" r="1.25"/>
	<circle cx="122.655" cy="87.417" r="1.25"/>
	<circle cx="229.667" cy="87.417" r="1.25"/>
	<circle cx="252.493" cy="87.417" r="1.25"/>
	<g>
		<rect x="116.833" y="203.084" fill="#3F3F3F" width="105.667" height="24.667"/>
		<polyline fill="#B2B2B2" stroke="#B2B2B2" stroke-width="0.5" stroke-linecap="round" stroke-linejoin="round" points="
			116.833,203.084 121.833,196.084 217.166,196.084 222.5,203.084 		"/>
		<path fill="#FFFFFF" stroke="#FFFFFF" stroke-width="0.5" stroke-linecap="round" stroke-linejoin="round" d="M124.667,223.75
			v-17.833c0,0,57-4.166,90,0.167v18C214.666,224.084,154.667,228.583,124.667,223.75z"/>
		<path fill="#3F3F3F" stroke="#3F3F3F" stroke-width="0.5" stroke-linecap="round" stroke-linejoin="round" d="M130.667,206.917
			v16.333h-2.5c0,0-3-7.666,0.167-16.333H130.667z"/>
		<path fill="#3F3F3F" stroke="#3F3F3F" stroke-width="0.5" stroke-linecap="round" stroke-linejoin="round" d="M138.833,206.917
			v16.333h-2.5c0,0-3-7.666,0.166-16.333H138.833z"/>
		<path fill="#3F3F3F" stroke="#3F3F3F" stroke-width="0.5" stroke-linecap="round" stroke-linejoin="round" d="M208.881,223.25
			v-16.333h2.5c0,0,3,7.666-0.166,16.333H208.881z"/>
		<path fill="#3F3F3F" stroke="#3F3F3F" stroke-width="0.5" stroke-linecap="round" stroke-linejoin="round" d="M201.049,223.25v-17
			h2.5c0,0,3,7.979-0.168,17H201.049z"/>
		<path fill="#3F3F3F" stroke="#3F3F3F" stroke-width="0.5" stroke-linecap="round" stroke-linejoin="round" d="M192.715,223.584
			v-17h2.5c0,0,3,7.979-0.166,17H192.715z"/>
		<path fill="#3F3F3F" stroke="#3F3F3F" stroke-width="0.5" stroke-linecap="round" stroke-linejoin="round" d="M146.833,206.584
			v17.166h-2.5c0,0-3-8.057,0.166-17.166H146.833z"/>
		<path fill="#3F3F3F" stroke="#3F3F3F" stroke-width="0.5" stroke-linecap="round" stroke-linejoin="round" d="M155,205.917v17.832
			h-2.5c0,0-3-8.369,0.166-17.832H155z"/>
		<path fill="#3F3F3F" stroke="#3F3F3F" stroke-width="0.5" stroke-linecap="round" stroke-linejoin="round" d="M162.833,206.251
			v17.832h-2.5c0,0-3-8.369,0.167-17.832H162.833z"/>
		<path fill="#3F3F3F" stroke="#3F3F3F" stroke-width="0.5" stroke-linecap="round" stroke-linejoin="round" d="M189.834,222.949
			c0,0.994-0.807,1.8-1.801,1.8h-20.734c-0.994,0-1.8-0.806-1.8-1.8v-8.733c0-0.994,0.806-1.8,1.8-1.8h20.734
			c0.994,0,1.801,0.806,1.801,1.8V222.949z"/>
		<path fill="#B2B2B2" stroke="#B2B2B2" stroke-width="0.5" stroke-linecap="round" stroke-linejoin="round" d="M187.166,222.284
			c0,0.994-0.805,1.8-1.799,1.8h-15.234c-0.995,0-1.8-0.806-1.8-1.8v-5.4c0-0.994,0.805-1.8,1.8-1.8h15.234
			c0.994,0,1.799,0.806,1.799,1.8V222.284z"/>
		<path fill="#3F3F3F" stroke="#3F3F3F" stroke-width="0.5" stroke-linecap="round" stroke-linejoin="round" d="M185.334,221.284
			c0,0.994-0.807,1.8-1.801,1.8h-11.234c-0.994,0-1.799-0.806-1.799-1.8v-2.734c0-0.994,0.805-1.8,1.799-1.8h11.234
			c0.994,0,1.801,0.806,1.801,1.8V221.284z"/>
		
			<rect x="172.666" y="224.083" fill="#3F3F3F" stroke="#3F3F3F" stroke-width="0.5" stroke-linecap="round" stroke-linejoin="round" width="3.5" height="1"/>
		
			<rect x="177.166" y="224.083" fill="#3F3F3F" stroke="#3F3F3F" stroke-width="0.5" stroke-linecap="round" stroke-linejoin="round" width="3.5" height="1"/>
		
			<rect x="181.666" y="224.083" fill="#3F3F3F" stroke="#3F3F3F" stroke-width="0.5" stroke-linecap="round" stroke-linejoin="round" width="3.5" height="1"/>
	</g>
	<g>
		<rect x="116.833" y="178.251" fill="#3F3F3F" width="105.667" height="24.667"/>
		<polyline fill="#B2B2B2" stroke="#B2B2B2" stroke-width="0.5" stroke-linecap="round" stroke-linejoin="round" points="
			116.833,178.251 121.834,171.251 217.167,171.251 222.501,178.251 		"/>
		<path fill="#FFFFFF" stroke="#FFFFFF" stroke-width="0.5" stroke-linecap="round" stroke-linejoin="round" d="M124.667,198.917
			v-17.833c0,0,57-4.166,90,0.167v18C214.667,199.251,154.667,203.75,124.667,198.917z"/>
		<path fill="#3F3F3F" stroke="#3F3F3F" stroke-width="0.5" stroke-linecap="round" stroke-linejoin="round" d="M130.667,182.084
			v16.333h-2.5c0,0-3-7.666,0.167-16.333H130.667z"/>
		<path fill="#3F3F3F" stroke="#3F3F3F" stroke-width="0.5" stroke-linecap="round" stroke-linejoin="round" d="M138.833,182.084
			v16.333h-2.5c0,0-3-7.666,0.167-16.333H138.833z"/>
		<path fill="#3F3F3F" stroke="#3F3F3F" stroke-width="0.5" stroke-linecap="round" stroke-linejoin="round" d="M208.882,198.417
			v-16.333h2.5c0,0,3,7.666-0.167,16.333H208.882z"/>
		<path fill="#3F3F3F" stroke="#3F3F3F" stroke-width="0.5" stroke-linecap="round" stroke-linejoin="round" d="M201.049,198.417
			v-17h2.5c0,0,3,7.979-0.167,17H201.049z"/>
		<path fill="#3F3F3F" stroke="#3F3F3F" stroke-width="0.5" stroke-linecap="round" stroke-linejoin="round" d="M192.716,198.751
			v-17h2.5c0,0,3,7.979-0.167,17H192.716z"/>
		<path fill="#3F3F3F" stroke="#3F3F3F" stroke-width="0.5" stroke-linecap="round" stroke-linejoin="round" d="M146.833,181.751
			v17.166h-2.5c0,0-3-8.057,0.167-17.166H146.833z"/>
		<path fill="#3F3F3F" stroke="#3F3F3F" stroke-width="0.5" stroke-linecap="round" stroke-linejoin="round" d="M155,181.084v17.832
			h-2.5c0,0-3-8.369,0.167-17.832H155z"/>
		<path fill="#3F3F3F" stroke="#3F3F3F" stroke-width="0.5" stroke-linecap="round" stroke-linejoin="round" d="M162.833,181.418
			v17.832h-2.5c0,0-3-8.369,0.167-17.832H162.833z"/>
		<path fill="#3F3F3F" stroke="#3F3F3F" stroke-width="0.5" stroke-linecap="round" stroke-linejoin="round" d="M189.834,198.116
			c0,0.994-0.807,1.8-1.801,1.8H167.3c-0.994,0-1.8-0.806-1.8-1.8v-8.733c0-0.994,0.806-1.8,1.8-1.8h20.733
			c0.994,0,1.801,0.806,1.801,1.8V198.116z"/>
		<path fill="#B2B2B2" stroke="#B2B2B2" stroke-width="0.5" stroke-linecap="round" stroke-linejoin="round" d="M187.167,197.451
			c0,0.994-0.806,1.8-1.8,1.8h-15.233c-0.995,0-1.8-0.806-1.8-1.8v-5.4c0-0.994,0.805-1.8,1.8-1.8h15.233c0.994,0,1.8,0.806,1.8,1.8
			V197.451z"/>
		<path fill="#3F3F3F" stroke="#3F3F3F" stroke-width="0.5" stroke-linecap="round" stroke-linejoin="round" d="M185.334,196.451
			c0,0.994-0.806,1.8-1.8,1.8H172.3c-0.994,0-1.8-0.806-1.8-1.8v-2.734c0-0.994,0.806-1.8,1.8-1.8h11.234c0.994,0,1.8,0.806,1.8,1.8
			V196.451z"/>
		
			<rect x="172.667" y="199.25" fill="#3F3F3F" stroke="#3F3F3F" stroke-width="0.5" stroke-linecap="round" stroke-linejoin="round" width="3.499" height="1"/>
		
			<rect x="177.167" y="199.25" fill="#3F3F3F" stroke="#3F3F3F" stroke-width="0.5" stroke-linecap="round" stroke-linejoin="round" width="3.499" height="1"/>
		
			<rect x="181.667" y="199.25" fill="#3F3F3F" stroke="#3F3F3F" stroke-width="0.5" stroke-linecap="round" stroke-linejoin="round" width="3.499" height="1"/>
	</g>
	<circle cx="229.667" cy="136.25" r="1.25"/>
	<circle cx="84" cy="136.25" r="1.25"/>
</g>
</svg>
