<?xml version="1.0" encoding="UTF-8"?><!-- Generator: Adobe Illustrator 16.0.3, SVG Export Plug-In . SVG Version: 6.00 Build 0)  --><!DOCTYPE svg PUBLIC "-//W3C//DTD SVG 1.1//EN" "http://www.w3.org/Graphics/SVG/1.1/DTD/svg11.dtd">
<svg xmlns="http://www.w3.org/2000/svg" xmlns:xlink="http://www.w3.org/1999/xlink" version="1.1" x="0px" y="0px" width="356.588px" height="212.602px" viewBox="0 0 356.588 212.602" enable-background="new 0 0 356.588 212.602" xml:space="preserve" preserveAspectRatio="xMidYMid meet" zoomAndPan="magnify" contentScriptType="application/ecmascript" contentStyleType="text/css">
<g id="box_x5F_outline">
	<rect x="155.361" y="158.022" fill="none" width="48.667" height="12"/>
	<text transform="matrix(1 0 0 1 156.4385 164.4844)" font-family="'Helvetica'" font-size="9">Controller 1</text>
	<rect x="139.216" y="118.355" fill="none" width="88.978" height="12"/>
	<text transform="matrix(1 0 0 1 142.9443 124.8174)" font-family="'Helvetica'" font-size="9">Single Switch/Fabric </text>
	<rect x="74.027" y="130.355" fill="none" width="11.667" height="12"/>
	<text transform="matrix(1 0 0 1 74.8564 136.8174)" font-family="'Helvetica'" font-size="9">1a</text>
	<rect x="233.027" y="130.355" fill="none" width="11.667" height="12"/>
	<text transform="matrix(1 0 0 1 233.8564 136.8174)" font-family="'Helvetica'" font-size="9">1b</text>
</g>
<g id="lines_x26_text">
	<polyline fill="none" stroke="#231F20" stroke-width="0.5" stroke-linecap="round" stroke-linejoin="round" points="76.194,56.451    76.194,76.856 151.527,76.856 151.527,84.217  "/>
	<polyline fill="none" stroke="#231F20" stroke-width="0.5" stroke-linecap="round" stroke-linejoin="round" points="   290.528,56.451 290.528,76.856 215.194,76.856 215.194,84.217  "/>
	
		<line fill="none" stroke="#231F20" stroke-width="0.5" stroke-linecap="round" stroke-linejoin="round" x1="164.86" y1="56.451" x2="164.86" y2="84.217"/>
	
		<line fill="none" stroke="#231F20" stroke-width="0.5" stroke-linecap="round" stroke-linejoin="round" x1="179.528" y1="56.451" x2="179.528" y2="84.217"/>
</g>
<g id="Guide">
	<g>
		<g>
			<polyline fill="#878E94" points="244.645,116.541 122.343,116.541 122.343,94.284 244.645,94.284 244.645,116.541    "/>
			<polygon fill="none" stroke="#FFFFFF" stroke-width="0.5" points="244.645,116.541 122.343,116.541 122.343,94.284      244.645,94.284 244.645,116.541    "/>
			<polyline fill="#B3B7BE" points="244.645,94.284 122.343,94.284 136.7,84.217 230.288,84.217 244.645,94.284    "/>
		</g>
		<path fill="#FFFFFF" d="M193.717,99.767c0,1.46-4.482,2.642-10.012,2.642c-5.531,0-10.013-1.182-10.013-2.642    c0-1.459,4.482-2.641,10.013-2.641C189.235,97.126,193.717,98.308,193.717,99.767"/>
		<path fill="#FFFFFF" d="M173.692,100.143v10.92c0,1.457,4.482,2.641,10.013,2.641c5.529,0,10.012-1.185,10.012-2.641V99.767"/>
		<path fill="none" stroke="#B3B7BE" stroke-width="0.5" d="M173.692,100.143v10.92c0,1.457,4.482,2.641,10.013,2.641    c5.529,0,10.012-1.185,10.012-2.641V99.767 M193.717,99.767c0,1.46-4.482,2.642-10.012,2.642c-5.531,0-10.013-1.182-10.013-2.642    c0-1.459,4.482-2.641,10.013-2.641C189.235,97.126,193.717,98.308,193.717,99.767L193.717,99.767z"/>
		<polyline fill="#FFFFFF" points="227.163,100.412 216.989,98.479 216.989,99.968 202.151,99.968 202.151,101.248 216.989,101.248     216.989,102.665 227.163,100.534 227.163,100.412   "/>
		<polyline fill="#FFFFFF" points="227.163,109.999 216.989,108.064 216.989,109.553 202.151,109.553 202.151,110.827     216.989,110.827 216.989,112.249 227.163,110.115 227.163,109.999   "/>
		<polyline fill="#FFFFFF" points="139.83,110.413 149.998,112.347 149.998,110.857 164.838,110.857 164.838,109.583     149.998,109.583 149.998,108.163 139.83,110.296 139.83,110.413   "/>
		<polyline fill="#FFFFFF" points="139.83,100.827 149.998,102.761 149.998,101.272 164.838,101.272 164.838,99.997 149.998,99.997     149.998,98.576 139.83,100.709 139.83,100.827   "/>
	</g>
	<g>
		<g>
			<polyline fill="#949494" points="94.402,38.967 6.92,38.967 6.92,33.254 94.402,33.254 94.402,38.967    "/>
			<polyline fill="#464646" points="94.402,44.823 6.92,44.823 6.92,39.11 94.402,39.11 94.402,44.823    "/>
			<polyline fill="#949494" points="94.402,50.595 6.92,50.595 6.92,44.882 94.402,44.882 94.402,50.595    "/>
			<polyline fill="#464646" points="94.402,56.451 6.92,56.451 6.92,50.738 94.402,50.738 94.402,56.451    "/>
			<g>
				<polyline fill="#B3B7BE" points="94.402,22.22 6.92,22.22 11.413,17.748 89.909,17.748 94.402,22.22     "/>
				<path fill="#444B4C" d="M92.138,31.548c-1.75,0-3.164-1.42-3.164-3.169c0-1.752,1.414-3.169,3.164-3.169V31.548"/>
				<polyline fill="#464646" points="94.402,32.502 6.92,32.502 6.92,22.22 94.402,22.22 94.402,32.502     "/>
				<polyline fill="#949494" points="90.131,30.7 10.972,30.7 10.972,24.36 90.131,24.36 90.131,30.7     "/>
				<ellipse fill="#FFFFFF" cx="90.047" cy="27.552" rx="1.44" ry="1.062"/>
			</g>
			<rect x="47.35" y="34.298" fill="#FFFFFF" width="14.232" height="0.595"/>
			<ellipse fill="#FFFFFF" cx="60.523" cy="37.1" rx="1.482" ry="1.019"/>
			<rect x="47.35" y="40.24" fill="#FFFFFF" width="14.232" height="0.594"/>
			<ellipse fill="#FFFFFF" cx="60.523" cy="43.041" rx="1.482" ry="1.019"/>
			<rect x="75.899" y="40.24" fill="#FFFFFF" width="14.232" height="0.594"/>
			<ellipse fill="#FFFFFF" cx="89.073" cy="43.041" rx="1.482" ry="1.019"/>
			<ellipse fill="#FFFFFF" cx="89.073" cy="48.982" rx="1.482" ry="1.019"/>
			<rect x="75.899" y="52.123" fill="#FFFFFF" width="14.232" height="0.594"/>
			<ellipse fill="#FFFFFF" cx="89.073" cy="54.923" rx="1.482" ry="1.019"/>
			<rect x="47.35" y="46.182" fill="#FFFFFF" width="14.232" height="0.594"/>
			<ellipse fill="#FFFFFF" cx="60.523" cy="48.982" rx="1.482" ry="1.019"/>
			<rect x="47.35" y="52.124" fill="#FFFFFF" width="14.232" height="0.594"/>
			<ellipse fill="#FFFFFF" cx="60.523" cy="54.924" rx="1.482" ry="1.019"/>
			<ellipse fill="#FFFFFF" cx="88.904" cy="37.1" rx="1.482" ry="1.019"/>
			<line fill="#FFFFFF" stroke="#FFFFFF" x1="65.395" y1="32.94" x2="65.395" y2="56.875"/>
		</g>
		<g>
			<polyline fill="#949494" points="203.728,38.967 116.245,38.967 116.245,33.254 203.728,33.254 203.728,38.967    "/>
			<polyline fill="#464646" points="203.728,44.823 116.245,44.823 116.245,39.11 203.728,39.11 203.728,44.823    "/>
			<polyline fill="#949494" points="203.728,50.595 116.245,50.595 116.245,44.882 203.728,44.882 203.728,50.595    "/>
			<polyline fill="#464646" points="203.728,56.451 116.245,56.451 116.245,50.738 203.728,50.738 203.728,56.451    "/>
			<g>
				<polyline fill="#B3B7BE" points="203.728,22.22 116.245,22.22 120.738,17.748 199.233,17.748 203.728,22.22     "/>
				<path fill="#444B4C" d="M201.463,31.548c-1.75,0-3.165-1.42-3.165-3.169c0-1.752,1.414-3.169,3.165-3.169V31.548"/>
				<polyline fill="#464646" points="203.728,32.502 116.245,32.502 116.245,22.22 203.728,22.22 203.728,32.502     "/>
				<polyline fill="#949494" points="199.456,30.7 120.295,30.7 120.295,24.36 199.456,24.36 199.456,30.7     "/>
				<ellipse fill="#FFFFFF" cx="199.371" cy="27.552" rx="1.44" ry="1.062"/>
			</g>
			<rect x="156.675" y="34.298" fill="#FFFFFF" width="14.232" height="0.595"/>
			<ellipse fill="#FFFFFF" cx="169.848" cy="37.1" rx="1.482" ry="1.019"/>
			<rect x="156.675" y="40.24" fill="#FFFFFF" width="14.232" height="0.595"/>
			<ellipse fill="#FFFFFF" cx="169.848" cy="43.041" rx="1.482" ry="1.019"/>
			<rect x="185.224" y="40.24" fill="#FFFFFF" width="14.232" height="0.595"/>
			<ellipse fill="#FFFFFF" cx="198.398" cy="43.041" rx="1.482" ry="1.019"/>
			<ellipse fill="#FFFFFF" cx="198.398" cy="48.982" rx="1.482" ry="1.019"/>
			<rect x="185.224" y="52.123" fill="#FFFFFF" width="14.232" height="0.594"/>
			<ellipse fill="#FFFFFF" cx="198.398" cy="54.923" rx="1.482" ry="1.019"/>
			<rect x="156.675" y="46.182" fill="#FFFFFF" width="14.232" height="0.594"/>
			<ellipse fill="#FFFFFF" cx="169.848" cy="48.982" rx="1.482" ry="1.019"/>
			<rect x="156.675" y="52.124" fill="#FFFFFF" width="14.232" height="0.594"/>
			<ellipse fill="#FFFFFF" cx="169.848" cy="54.924" rx="1.482" ry="1.019"/>
			<ellipse fill="#FFFFFF" cx="198.229" cy="37.1" rx="1.482" ry="1.019"/>
			<line fill="#FFFFFF" stroke="#FFFFFF" x1="174.72" y1="32.94" x2="174.72" y2="56.875"/>
		</g>
		<g>
			<polyline fill="#949494" points="348.066,38.967 260.584,38.967 260.584,33.254 348.066,33.254 348.066,38.967    "/>
			<polyline fill="#464646" points="348.066,44.823 260.584,44.823 260.584,39.11 348.066,39.11 348.066,44.823    "/>
			<polyline fill="#949494" points="348.066,50.595 260.584,50.595 260.584,44.882 348.066,44.882 348.066,50.595    "/>
			<polyline fill="#464646" points="348.066,56.451 260.584,56.451 260.584,50.738 348.066,50.738 348.066,56.451    "/>
			<g>
				<polyline fill="#B3B7BE" points="348.066,22.22 260.584,22.22 265.079,17.748 343.574,17.748 348.066,22.22     "/>
				<path fill="#444B4C" d="M345.803,31.548c-1.75,0-3.164-1.42-3.164-3.169c0-1.752,1.414-3.169,3.164-3.169V31.548"/>
				<polyline fill="#464646" points="348.066,32.502 260.584,32.502 260.584,22.22 348.066,22.22 348.066,32.502     "/>
				<polyline fill="#949494" points="343.797,30.7 264.637,30.7 264.637,24.36 343.797,24.36 343.797,30.7     "/>
				<ellipse fill="#FFFFFF" cx="343.711" cy="27.552" rx="1.439" ry="1.062"/>
			</g>
			<rect x="301.014" y="34.298" fill="#FFFFFF" width="14.232" height="0.595"/>
			<ellipse fill="#FFFFFF" cx="314.188" cy="37.1" rx="1.482" ry="1.019"/>
			<rect x="301.014" y="40.24" fill="#FFFFFF" width="14.232" height="0.595"/>
			<ellipse fill="#FFFFFF" cx="314.188" cy="43.041" rx="1.482" ry="1.019"/>
			<rect x="329.564" y="40.24" fill="#FFFFFF" width="14.232" height="0.595"/>
			<ellipse fill="#FFFFFF" cx="342.738" cy="43.041" rx="1.482" ry="1.019"/>
			<ellipse fill="#FFFFFF" cx="342.738" cy="48.982" rx="1.482" ry="1.019"/>
			<rect x="329.564" y="52.123" fill="#FFFFFF" width="14.232" height="0.594"/>
			<ellipse fill="#FFFFFF" cx="342.738" cy="54.923" rx="1.482" ry="1.019"/>
			<rect x="301.014" y="46.182" fill="#FFFFFF" width="14.232" height="0.594"/>
			<ellipse fill="#FFFFFF" cx="314.188" cy="48.982" rx="1.482" ry="1.019"/>
			<rect x="301.014" y="52.124" fill="#FFFFFF" width="14.232" height="0.594"/>
			<ellipse fill="#FFFFFF" cx="314.188" cy="54.924" rx="1.482" ry="1.019"/>
			<ellipse fill="#FFFFFF" cx="342.57" cy="37.1" rx="1.482" ry="1.019"/>
			<line fill="#FFFFFF" stroke="#FFFFFF" x1="319.061" y1="32.94" x2="319.061" y2="56.875"/>
		</g>
		<text transform="matrix(0.9981 0 0 1 11.6328 14.584)" font-family="'HelveticaNeue-Roman'" font-size="9">Host 1</text>
		<text transform="matrix(0.9981 0 0 1 120.7695 14.584)" font-family="'HelveticaNeue-Roman'" font-size="9">Host 2</text>
		<text transform="matrix(0.9981 0 0 1 264.7598 14.584)" font-family="'HelveticaNeue-Roman'" font-size="9">Host N</text>
		<g>
			<rect x="223.629" y="54.575" width="2.549" height="2.554"/>
			<rect x="235.102" y="54.575" width="2.55" height="2.554"/>
			<rect x="229.365" y="54.575" width="2.549" height="2.554"/>
		</g>
	</g>
	<path fill="none" stroke="#231F20" stroke-width="0.5" stroke-linecap="round" stroke-linejoin="round" d="M47.008,201.238"/>
	
		<line fill="none" stroke="#231F20" stroke-width="0.5" stroke-linecap="round" stroke-linejoin="round" x1="40.087" y1="202.511" x2="174.111" y2="202.511"/>
	<polyline fill="none" stroke="#231F20" stroke-width="0.5" stroke-linecap="round" stroke-linejoin="round" points="   174.641,202.272 182.332,202.272 182.332,202.511 310.611,202.511  "/>
	<g>
		
			<rect x="41.111" y="176.815" fill="#B2B2B2" stroke="#231F20" stroke-width="0.5" stroke-linecap="round" stroke-linejoin="round" width="131.75" height="25.695"/>
		
			<rect x="118.838" y="182" fill="#B2B2B2" stroke="#231F20" stroke-width="0.5" stroke-linecap="round" stroke-linejoin="round" width="12.492" height="15.313"/>
		
			<rect x="83.145" y="188.942" fill="#666666" stroke="#666666" stroke-width="0.5" stroke-linecap="round" stroke-linejoin="round" width="12.332" height="6.363"/>
		
			<rect x="40.246" y="176.39" fill="none" stroke="#231F20" stroke-width="0.5" stroke-linecap="round" stroke-linejoin="round" width="273.67" height="0.426"/>
		
			<line fill="none" stroke="#231F20" stroke-width="0.5" stroke-linecap="round" stroke-linejoin="round" x1="40.087" y1="202.511" x2="40.087" y2="176.815"/>
		<g>
			<polygon fill="#FFFFFF" stroke="#231F20" stroke-width="0.5" stroke-linecap="round" stroke-linejoin="round" points="     42.367,201.605 42.367,200.015 45.549,200.015 45.549,198.741 47.883,198.741 47.883,198.212 88.509,198.212 89.464,197.257      91.479,197.257 91.479,201.817 76.629,201.817 76.152,201.341    "/>
			<path fill="#FFFFFF" stroke="#231F20" stroke-width="0.5" stroke-linecap="round" stroke-linejoin="round" d="M92.328,198.53     l1.166-1.168h7.532c0,0,0.849,0.318,2.652,1.168c0,0,0.53,0,1.061,0c0.531,0,62.372,0,62.372,0v2.65h-41.156v0.743H93.283v-0.53     h-0.955V198.53z"/>
		</g>
		<path fill="none" stroke="#000000" stroke-width="0.5" stroke-linecap="round" stroke-linejoin="round" d="M95.874,188.544"/>
		
			<rect x="84.179" y="189.737" fill="#FFFFFF" stroke="#000000" stroke-width="0.5" stroke-linecap="round" stroke-linejoin="round" width="10.182" height="4.614"/>
		
			<rect x="96.978" y="188.942" fill="#666666" stroke="#666666" stroke-width="0.5" stroke-linecap="round" stroke-linejoin="round" width="12.332" height="6.363"/>
		
			<rect x="98.012" y="189.737" fill="#FFFFFF" stroke="#000000" stroke-width="0.5" stroke-linecap="round" stroke-linejoin="round" width="10.182" height="4.614"/>
		<path fill="none" stroke="#000000" stroke-width="0.5" stroke-linecap="round" stroke-linejoin="round" d="M83.145,195.306"/>
		<path fill="none" stroke="#000000" stroke-width="0.5" stroke-linecap="round" stroke-linejoin="round" d="M110.142,188.544"/>
		<path fill="none" stroke="#000000" stroke-width="0.5" stroke-linecap="round" stroke-linejoin="round" d="M97.413,195.306"/>
		
			<rect x="149.048" y="180.556" fill="#B2B2B2" stroke="#231F20" stroke-width="0.5" stroke-linecap="round" stroke-linejoin="round" width="8.646" height="7.438"/>
		
			<rect x="150.016" y="181.342" fill="#FFFFFF" stroke="#231F20" stroke-width="0.5" stroke-linecap="round" stroke-linejoin="round" width="6.771" height="6.046"/>
		
			<rect x="157.747" y="180.556" fill="#B2B2B2" stroke="#231F20" stroke-width="0.5" stroke-linecap="round" stroke-linejoin="round" width="8.646" height="7.438"/>
		
			<rect x="158.714" y="181.342" fill="#FFFFFF" stroke="#231F20" stroke-width="0.5" stroke-linecap="round" stroke-linejoin="round" width="6.771" height="6.046"/>
		
			<rect x="157.747" y="188.09" fill="#B2B2B2" stroke="#231F20" stroke-width="0.5" stroke-linecap="round" stroke-linejoin="round" width="8.646" height="7.437"/>
		
			<rect x="158.653" y="188.694" fill="#FFFFFF" stroke="#231F20" stroke-width="0.5" stroke-linecap="round" stroke-linejoin="round" width="6.772" height="6.047"/>
		
			<rect x="149.048" y="188.09" fill="#B2B2B2" stroke="#231F20" stroke-width="0.5" stroke-linecap="round" stroke-linejoin="round" width="8.646" height="7.437"/>
		
			<rect x="149.956" y="188.694" fill="#FFFFFF" stroke="#231F20" stroke-width="0.5" stroke-linecap="round" stroke-linejoin="round" width="6.771" height="6.047"/>
		
			<rect x="136.268" y="187.945" fill="#B2B2B2" stroke="#231F20" stroke-width="0.5" stroke-linecap="round" stroke-linejoin="round" width="9.102" height="7.828"/>
		
			<rect x="137.287" y="188.772" fill="#FFFFFF" stroke="#231F20" stroke-width="0.5" stroke-linecap="round" stroke-linejoin="round" width="7.128" height="6.365"/>
		
			<rect x="136.202" y="180.318" fill="#B2B2B2" stroke="#231F20" stroke-width="0.5" stroke-linecap="round" stroke-linejoin="round" width="9.102" height="7.828"/>
		
			<rect x="137.22" y="181.146" fill="#FFFFFF" stroke="#231F20" stroke-width="0.5" stroke-linecap="round" stroke-linejoin="round" width="7.128" height="5.898"/>
		
			<rect x="48.917" y="182.865" fill="#3F3F3F" stroke="#3F3F3F" stroke-width="0.5" stroke-linecap="round" stroke-linejoin="round" width="12.888" height="7.001"/>
		
			<rect x="50.111" y="184.059" fill="#FFFFFF" stroke="#3F3F3F" stroke-width="0.5" stroke-linecap="round" stroke-linejoin="round" width="10.74" height="4.614"/>
		
			<rect x="65.178" y="182.865" fill="#3F3F3F" stroke="#3F3F3F" stroke-width="0.5" stroke-linecap="round" stroke-linejoin="round" width="12.888" height="7.001"/>
		
			<rect x="66.371" y="184.059" fill="#FFFFFF" stroke="#3F3F3F" stroke-width="0.5" stroke-linecap="round" stroke-linejoin="round" width="10.74" height="4.614"/>
		
			<rect x="120.777" y="183.635" fill="#FFFFFF" stroke="#231F20" stroke-width="0.5" stroke-linecap="round" stroke-linejoin="round" width="8.91" height="7.956"/>
		
			<rect x="120.402" y="193.49" fill="#8C8C8C" stroke="#000000" stroke-width="0.5" stroke-linecap="round" stroke-linejoin="round" width="9.478" height="2.892"/>
		<g>
			
				<line fill="none" stroke="#231F20" stroke-width="0.5" stroke-linecap="round" stroke-linejoin="round" x1="78.801" y1="197.655" x2="81.34" y2="185.265"/>
			
				<line fill="none" stroke="#231F20" stroke-width="0.5" stroke-linecap="round" stroke-linejoin="round" x1="81.34" y1="185.204" x2="111.926" y2="185.144"/>
			
				<line fill="none" stroke="#231F20" stroke-width="0.5" stroke-linecap="round" stroke-linejoin="round" x1="111.987" y1="185.144" x2="114.526" y2="198.019"/>
		</g>
		
			<circle fill="none" stroke="#000000" stroke-width="0.5" stroke-linecap="round" stroke-linejoin="round" cx="81.038" cy="194.062" r="0.875"/>
		
			<circle fill="none" stroke="#000000" stroke-width="0.5" stroke-linecap="round" stroke-linejoin="round" cx="111.745" cy="194.062" r="0.875"/>
		<polyline fill="none" stroke="#231F20" stroke-width="0.5" stroke-linecap="round" stroke-linejoin="round" points="    313.916,176.39 313.836,202.591 310.098,202.591   "/>
		
			<rect x="180.361" y="176.39" fill="#B2B2B2" stroke="#231F20" stroke-width="0.5" stroke-linecap="round" stroke-linejoin="round" width="132.5" height="26.201"/>
	</g>
	<polyline fill="none" stroke="#231F20" stroke-width="0.5" stroke-linecap="round" stroke-linejoin="round" points="89.27,192.044    89.27,128.523 130.527,128.523 130.527,116.541  "/>
	<polyline fill="none" stroke="#231F20" stroke-width="0.5" stroke-linecap="round" stroke-linejoin="round" points="   103.103,192.044 103.103,141.189 231.194,141.189 231.194,116.541  "/>
</g>
</svg>