<?xml version="1.0" encoding="UTF-8"?><!-- Generator: Adobe Illustrator 12.0.1, SVG Export Plug-In . SVG Version: 6.00 Build 51448)  --><!DOCTYPE svg PUBLIC "-//W3C//DTD SVG 1.1//EN" "http://www.w3.org/Graphics/SVG/1.1/DTD/svg11.dtd">
<svg xmlns="http://www.w3.org/2000/svg" xmlns:xlink="http://www.w3.org/1999/xlink" version="1.1" width="341.147" height="321.493" viewBox="0 0 341.147 321.493" overflow="visible" enable-background="new 0 0 341.147 321.493" xml:space="preserve" preserveAspectRatio="xMidYMid meet" zoomAndPan="magnify" contentScriptType="application/ecmascript" contentStyleType="text/css">
<g id="illustration">
	<g>
		<g>
			<polyline fill="#878E94" points="153.829,189.983 55.718,189.983 55.718,172.129 153.829,172.129 153.829,189.983    "/>
			<polygon fill="none" stroke="#FFFFFF" stroke-width="0.5" points="153.829,189.983 55.718,189.983 55.718,172.129      153.829,172.129 153.829,189.983    "/>
			<polyline fill="#B3B7BE" points="153.829,172.129 55.718,172.129 67.235,164.053 142.31,164.053 153.829,172.129    "/>
		</g>
		<polyline fill="#FFFFFF" points="139.804,177.045 131.644,175.494 131.644,176.688 119.74,176.688 119.74,177.715     131.644,177.715 131.644,178.852 139.804,177.143 139.804,177.045   "/>
		<polyline fill="#FFFFFF" points="139.804,184.734 131.644,183.184 131.644,184.377 119.74,184.377 119.74,185.4 131.644,185.4     131.644,186.541 139.804,184.828 139.804,184.734   "/>
		<polyline fill="#FFFFFF" points="69.746,185.067 77.903,186.619 77.903,185.424 89.807,185.424 89.807,184.401 77.903,184.401     77.903,183.262 69.746,184.974 69.746,185.067   "/>
		<polyline fill="#FFFFFF" points="69.746,177.378 77.903,178.929 77.903,177.734 89.807,177.734 89.807,176.712 77.903,176.712     77.903,175.572 69.746,177.283 69.746,177.378   "/>
	</g>
	<g>
		<g>
			<polyline fill="#878E94" points="303.806,189.983 205.7,189.983 205.7,172.129 303.806,172.129 303.806,189.983    "/>
			<polygon fill="none" stroke="#FFFFFF" stroke-width="0.5" points="303.806,189.983 205.7,189.983 205.7,172.129 303.806,172.129      303.806,189.983    "/>
			<polyline fill="#B3B7BE" points="303.806,172.129 205.7,172.129 217.217,164.053 292.288,164.053 303.806,172.129    "/>
		</g>
		<polyline fill="#FFFFFF" points="289.782,177.045 281.622,175.494 281.622,176.688 269.718,176.688 269.718,177.715     281.622,177.715 281.622,178.852 289.782,177.143 289.782,177.045   "/>
		<polyline fill="#FFFFFF" points="289.782,184.734 281.622,183.184 281.622,184.377 269.718,184.377 269.718,185.4 281.622,185.4     281.622,186.541 289.782,184.828 289.782,184.734   "/>
		<polyline fill="#FFFFFF" points="219.728,185.067 227.885,186.619 227.885,185.424 239.789,185.424 239.789,184.401     227.885,184.401 227.885,183.262 219.728,184.974 219.728,185.067   "/>
		<polyline fill="#FFFFFF" points="219.728,177.378 227.885,178.929 227.885,177.734 239.789,177.734 239.789,176.712     227.885,176.712 227.885,175.572 219.728,177.283 219.728,177.378   "/>
	</g>
	
		<line fill="none" stroke="#000000" stroke-width="0.5" stroke-miterlimit="10" x1="117.63" y1="162.796" x2="117.63" y2="149.575"/>
	
		<line fill="none" stroke="#000000" stroke-width="0.5" stroke-miterlimit="10" x1="267.854" y1="162.796" x2="267.854" y2="149.575"/>
	<polyline fill="none" stroke="#000000" stroke-width="0.5" stroke-miterlimit="10" points="117.782,267.176 87.868,267.176    87.868,214.243 216.105,214.29 216.105,190.877  "/>
	<line fill="none" stroke="#FFFFFF" stroke-width="2" stroke-miterlimit="10" x1="118.762" y1="88.422" x2="118.497" y2="53.96"/>
	<polyline fill="none" stroke="#000000" stroke-width="0.5" stroke-miterlimit="10" points="118.69,86.981 118.64,54.68    179.296,54.68 179.296,49.485  "/>
	<polyline fill="none" stroke="#FFFFFF" stroke-width="2" stroke-miterlimit="10" points="322.009,45.933 322.009,65.164    126.522,65.164 126.522,86.202  "/>
	<polyline fill="none" stroke="#000000" stroke-width="0.5" stroke-miterlimit="10" points="322.226,45.933 322.226,65.379    126.307,65.379 126.307,86.202  "/>
	<polyline fill="none" stroke="#000000" stroke-width="0.5" stroke-miterlimit="10" points="272.854,87.564 272.854,70.374    331.879,70.374 331.879,48.485  "/>
	<polyline fill="none" stroke="#000000" stroke-width="0.5" stroke-miterlimit="10" points="81.293,87.564 81.293,71.503    51.204,71.503 51.204,48.392  "/>
	<polyline fill="none" stroke="#FFFFFF" stroke-width="2" stroke-miterlimit="10" points="191.111,46.653 191.111,54.985    234.521,54.985 234.521,87.642  "/>
	<polyline fill="none" stroke="#FFFFFF" stroke-width="2" stroke-miterlimit="10" points="77.782,46.653 77.782,60.544    226.521,60.544 226.521,87.642  "/>
	<polyline fill="none" stroke="#000000" stroke-width="0.5" stroke-miterlimit="10" points="191.326,46.653 191.326,55.2    234.521,55.2 234.521,87.642  "/>
	<polyline fill="none" stroke="#000000" stroke-width="0.5" stroke-miterlimit="10" points="77.782,46.653 77.782,60.76    226.521,60.76 226.521,87.642  "/>
	<polyline fill="none" stroke="#000000" stroke-width="0.5" stroke-miterlimit="10" points="268.102,191.256 268.102,302.633    223.825,302.633  "/>
	<polyline fill="none" stroke="#FFFFFF" stroke-width="2" stroke-miterlimit="10" points="223.825,294.883 250.769,294.883    250.769,221.813 134.439,221.602 134.439,191.543  "/>
	<polyline fill="none" stroke="#000000" stroke-width="0.5" stroke-miterlimit="10" points="117.782,274.508 71.201,274.508    71.201,191.256  "/>
	<g>
		<polyline fill="#949494" points="87.482,32.096 0,32.096 0,26.383 87.482,26.383 87.482,32.096   "/>
		<polyline fill="#464646" points="87.482,37.952 0,37.952 0,32.239 87.482,32.239 87.482,37.952   "/>
		<polyline fill="#949494" points="87.482,43.724 0,43.724 0,38.011 87.482,38.011 87.482,43.724   "/>
		<polyline fill="#464646" points="87.482,49.58 0,49.58 0,43.867 87.482,43.867 87.482,49.58   "/>
		<g>
			<polyline fill="#B3B7BE" points="87.482,15.349 0,15.349 4.493,10.877 82.989,10.877 87.482,15.349    "/>
			<path fill="#444B4C" d="M85.218,24.677c-1.75,0-3.164-1.42-3.164-3.169c0-1.752,1.414-3.169,3.164-3.169V24.677"/>
			<polyline fill="#464646" points="87.482,25.631 0,25.631 0,15.349 87.482,15.349 87.482,25.631    "/>
			<polyline fill="#949494" points="83.211,23.829 4.052,23.829 4.052,17.489 83.211,17.489 83.211,23.829    "/>
			<ellipse fill="#FFFFFF" cx="83.127" cy="20.681" rx="1.44" ry="1.062"/>
		</g>
		<rect x="40.43" y="27.427" fill="#FFFFFF" width="14.232" height="0.595"/>
		<ellipse fill="#FFFFFF" cx="53.604" cy="30.229" rx="1.482" ry="1.019"/>
		<rect x="40.43" y="33.369" fill="#FFFFFF" width="14.232" height="0.594"/>
		<ellipse fill="#FFFFFF" cx="53.604" cy="36.17" rx="1.482" ry="1.019"/>
		<rect x="68.979" y="33.369" fill="#FFFFFF" width="14.232" height="0.594"/>
		<ellipse fill="#FFFFFF" cx="82.153" cy="36.17" rx="1.482" ry="1.019"/>
		<ellipse fill="#FFFFFF" cx="82.153" cy="42.111" rx="1.482" ry="1.019"/>
		<rect x="68.979" y="45.251" fill="#FFFFFF" width="14.232" height="0.594"/>
		<ellipse fill="#FFFFFF" cx="82.153" cy="48.052" rx="1.482" ry="1.019"/>
		<rect x="40.43" y="39.311" fill="#FFFFFF" width="14.232" height="0.594"/>
		<ellipse fill="#FFFFFF" cx="53.604" cy="42.111" rx="1.482" ry="1.019"/>
		<rect x="40.43" y="45.252" fill="#FFFFFF" width="14.232" height="0.594"/>
		<ellipse fill="#FFFFFF" cx="53.604" cy="48.053" rx="1.482" ry="1.019"/>
		<ellipse fill="#FFFFFF" cx="81.984" cy="30.229" rx="1.482" ry="1.019"/>
		<line fill="#FFFFFF" stroke="#FFFFFF" x1="58.475" y1="26.069" x2="58.475" y2="50.004"/>
	</g>
	<g>
		<polyline fill="#949494" points="196.808,32.096 109.325,32.096 109.325,26.383 196.808,26.383 196.808,32.096   "/>
		<polyline fill="#464646" points="196.808,37.952 109.325,37.952 109.325,32.239 196.808,32.239 196.808,37.952   "/>
		<polyline fill="#949494" points="196.808,43.724 109.325,43.724 109.325,38.011 196.808,38.011 196.808,43.724   "/>
		<polyline fill="#464646" points="196.808,49.58 109.325,49.58 109.325,43.867 196.808,43.867 196.808,49.58   "/>
		<g>
			<polyline fill="#B3B7BE" points="196.808,15.349 109.325,15.349 113.818,10.877 192.313,10.877 196.808,15.349    "/>
			<path fill="#444B4C" d="M194.543,24.677c-1.75,0-3.165-1.42-3.165-3.169c0-1.752,1.414-3.169,3.165-3.169V24.677"/>
			<polyline fill="#464646" points="196.808,25.631 109.325,25.631 109.325,15.349 196.808,15.349 196.808,25.631    "/>
			<polyline fill="#949494" points="192.536,23.829 113.375,23.829 113.375,17.489 192.536,17.489 192.536,23.829    "/>
			<ellipse fill="#FFFFFF" cx="192.451" cy="20.681" rx="1.44" ry="1.062"/>
		</g>
		<rect x="149.755" y="27.427" fill="#FFFFFF" width="14.232" height="0.595"/>
		<ellipse fill="#FFFFFF" cx="162.928" cy="30.229" rx="1.482" ry="1.019"/>
		<rect x="149.755" y="33.369" fill="#FFFFFF" width="14.232" height="0.595"/>
		<ellipse fill="#FFFFFF" cx="162.928" cy="36.17" rx="1.482" ry="1.019"/>
		<rect x="178.304" y="33.369" fill="#FFFFFF" width="14.232" height="0.595"/>
		<ellipse fill="#FFFFFF" cx="191.478" cy="36.17" rx="1.482" ry="1.019"/>
		<ellipse fill="#FFFFFF" cx="191.478" cy="42.111" rx="1.482" ry="1.019"/>
		<rect x="178.304" y="45.251" fill="#FFFFFF" width="14.232" height="0.594"/>
		<ellipse fill="#FFFFFF" cx="191.478" cy="48.052" rx="1.482" ry="1.019"/>
		<rect x="149.755" y="39.311" fill="#FFFFFF" width="14.232" height="0.594"/>
		<ellipse fill="#FFFFFF" cx="162.928" cy="42.111" rx="1.482" ry="1.019"/>
		<rect x="149.755" y="45.252" fill="#FFFFFF" width="14.232" height="0.594"/>
		<ellipse fill="#FFFFFF" cx="162.928" cy="48.053" rx="1.482" ry="1.019"/>
		<ellipse fill="#FFFFFF" cx="191.309" cy="30.229" rx="1.482" ry="1.019"/>
		<line fill="#FFFFFF" stroke="#FFFFFF" x1="167.8" y1="26.069" x2="167.8" y2="50.004"/>
	</g>
	<g>
		<polyline fill="#949494" points="341.147,32.096 253.665,32.096 253.665,26.383 341.147,26.383 341.147,32.096   "/>
		<polyline fill="#464646" points="341.147,37.952 253.665,37.952 253.665,32.239 341.147,32.239 341.147,37.952   "/>
		<polyline fill="#949494" points="341.147,43.724 253.665,43.724 253.665,38.011 341.147,38.011 341.147,43.724   "/>
		<polyline fill="#464646" points="341.147,49.58 253.665,49.58 253.665,43.867 341.147,43.867 341.147,49.58   "/>
		<g>
			<polyline fill="#B3B7BE" points="341.147,15.349 253.665,15.349 258.159,10.877 336.654,10.877 341.147,15.349    "/>
			<path fill="#444B4C" d="M338.883,24.677c-1.749,0-3.163-1.42-3.163-3.169c0-1.752,1.414-3.169,3.163-3.169V24.677"/>
			<polyline fill="#464646" points="341.147,25.631 253.665,25.631 253.665,15.349 341.147,15.349 341.147,25.631    "/>
			<polyline fill="#949494" points="336.877,23.829 257.717,23.829 257.717,17.489 336.877,17.489 336.877,23.829    "/>
			<ellipse fill="#FFFFFF" cx="336.792" cy="20.681" rx="1.44" ry="1.062"/>
		</g>
		<rect x="294.095" y="27.427" fill="#FFFFFF" width="14.232" height="0.595"/>
		<ellipse fill="#FFFFFF" cx="307.269" cy="30.229" rx="1.482" ry="1.019"/>
		<rect x="294.095" y="33.369" fill="#FFFFFF" width="14.232" height="0.595"/>
		<ellipse fill="#FFFFFF" cx="307.269" cy="36.17" rx="1.482" ry="1.019"/>
		<rect x="322.646" y="33.369" fill="#FFFFFF" width="14.231" height="0.595"/>
		<ellipse fill="#FFFFFF" cx="335.819" cy="36.17" rx="1.482" ry="1.019"/>
		<ellipse fill="#FFFFFF" cx="335.819" cy="42.111" rx="1.482" ry="1.019"/>
		<rect x="322.646" y="45.251" fill="#FFFFFF" width="14.231" height="0.594"/>
		<ellipse fill="#FFFFFF" cx="335.819" cy="48.052" rx="1.482" ry="1.019"/>
		<rect x="294.095" y="39.311" fill="#FFFFFF" width="14.232" height="0.594"/>
		<ellipse fill="#FFFFFF" cx="307.269" cy="42.111" rx="1.482" ry="1.019"/>
		<rect x="294.095" y="45.252" fill="#FFFFFF" width="14.232" height="0.594"/>
		<ellipse fill="#FFFFFF" cx="307.269" cy="48.053" rx="1.482" ry="1.019"/>
		<ellipse fill="#FFFFFF" cx="335.65" cy="30.229" rx="1.482" ry="1.019"/>
		<line fill="#FFFFFF" stroke="#FFFFFF" x1="312.141" y1="26.069" x2="312.141" y2="50.004"/>
	</g>
	<rect x="43.788" y="39.224" fill="#FFFFFF" stroke="#000000" stroke-width="0.4" width="42.089" height="10"/>
	<rect x="152.294" y="39.224" fill="#FFFFFF" stroke="#000000" stroke-width="0.4" width="42.089" height="10"/>
	<rect x="296.453" y="39.224" fill="#FFFFFF" stroke="#000000" stroke-width="0.4" width="42.089" height="10"/>
	<g>
		<rect x="216.709" y="47.704" width="2.549" height="2.554"/>
		<rect x="228.182" y="47.704" width="2.55" height="2.554"/>
		<rect x="222.445" y="47.704" width="2.549" height="2.554"/>
	</g>
	<path fill="none" stroke="#000000" stroke-width="1.2" stroke-miterlimit="10" d="M249.772,221.649"/>
	<polyline fill="none" stroke="#000000" stroke-width="0.5" stroke-miterlimit="10" points="223.825,295.299 250.769,295.299    250.769,221.813 134.439,221.817 134.439,191.415  "/>
	<circle cx="71.242" cy="191.336" r="1.591"/>
	<circle cx="134.474" cy="191.336" r="1.591"/>
	<circle cx="216.091" cy="191.336" r="1.591"/>
	<circle cx="268.072" cy="191.336" r="1.591"/>
	<circle cx="118.706" cy="87.451" r="1.591"/>
	<circle cx="126.434" cy="87.451" r="1.591"/>
	<circle cx="226.488" cy="87.451" r="1.591"/>
	<circle cx="234.621" cy="87.451" r="1.591"/>
	<circle cx="272.79" cy="87.451" r="1.591"/>
	<circle cx="81.229" cy="87.451" r="1.591"/>
	<circle cx="117.566" cy="162.683" r="1.591"/>
	<circle cx="267.791" cy="162.683" r="1.591"/>
	<polyline fill="none" stroke="#FFFFFF" stroke-width="2" stroke-miterlimit="10" points="242.682,154.581 242.682,157.439    338.28,157.439 338.28,276.395 223.6,276.395  "/>
	<polyline fill="none" stroke="#FFFFFF" stroke-width="2" stroke-miterlimit="10" points="93.554,151.549 93.554,157.056    173.631,157.056 173.631,206.303 305.904,206.303 305.904,264.959 223.561,264.959  "/>
	<polyline fill="none" stroke="#000000" stroke-width="0.5" stroke-miterlimit="10" points="93.554,151.549 93.554,157.056    173.631,157.056 173.631,206.303 305.904,206.303 305.904,264.959 223.561,264.959  "/>
	<polyline fill="none" stroke="#FFFFFF" stroke-width="2" stroke-miterlimit="10" points="242.682,154.581 242.682,157.439    338.28,157.439 338.28,276.395 223.6,276.395  "/>
	<circle cx="93.411" cy="151.044" r="1.591"/>
	<polyline fill="none" stroke="#FFFFFF" stroke-width="2" stroke-miterlimit="10" points="228.198,152.298 228.198,157.138    184.86,157.138 184.86,237.586 104.322,237.586 104.322,292.94 117.689,292.94  "/>
	<polyline fill="none" stroke="#FFFFFF" stroke-width="2" stroke-miterlimit="10" points="228.198,152.298 228.198,157.138    184.86,157.138 184.86,237.586 104.322,237.586 104.322,292.94 117.689,292.94  "/>
	<polyline fill="none" stroke="#FFFFFF" stroke-width="0.5" stroke-miterlimit="10" points="228.198,152.298 228.198,157.138    184.86,157.138 184.86,237.586 104.322,237.586 104.322,292.94 117.689,292.94  "/>
	<polyline fill="none" stroke="#000000" stroke-width="0.5" stroke-miterlimit="10" points="228.198,152.298 228.198,157.138    184.86,157.138 184.86,237.586 104.322,237.586 104.322,292.94 117.689,292.94  "/>
	<circle cx="228.27" cy="151.262" r="1.591"/>
	<polyline fill="none" stroke="#FFFFFF" stroke-width="0.5" stroke-miterlimit="10" points="242.682,154.581 242.682,157.439    338.28,157.439 338.28,276.395 223.6,276.395  "/>
	<polyline fill="none" stroke="#000000" stroke-width="0.5" stroke-miterlimit="10" points="242.682,152.422 242.682,157.439    338.28,157.439 338.28,276.395 223.6,276.395  "/>
	<circle cx="242.614" cy="151.262" r="1.591"/>
	<polyline fill="none" stroke="#FFFFFF" stroke-width="2" stroke-miterlimit="10" points="78.248,152.581 78.248,157.383    1.939,157.383 1.939,303.79 117.939,303.79  "/>
	<polyline fill="none" stroke="#FFFFFF" stroke-width="2" stroke-miterlimit="10" points="78.248,152.581 78.248,157.383    1.939,157.383 1.939,303.79 117.939,303.79  "/>
	<polyline fill="none" stroke="#FFFFFF" stroke-width="0.5" stroke-miterlimit="10" points="78.248,152.581 78.248,157.383    1.939,157.383 1.939,303.79 117.939,303.79  "/>
	<polyline fill="none" stroke="#000000" stroke-width="0.5" stroke-miterlimit="10" points="78.248,152.581 78.248,157.383    1.939,157.383 1.939,303.79 117.939,303.79  "/>
	<g>
		<polyline fill="#434249" points="223.759,309.336 117.421,309.336 117.421,284.516 223.759,284.516 223.759,309.336   "/>
		<path fill="#FFFFFF" d="M142.383,286.708c-16.867,0.686-16.867,1.014-16.867,1.994v16.445c0,0.982,0,1.311,16.867,1.996    c9.834,0.398,20.639,0.646,28.201,0.646s18.373-0.248,28.211-0.646c16.872-0.686,16.872-1.014,16.872-1.996v-16.445    c0-0.979,0-1.309-16.872-1.994c-9.838-0.398-20.648-0.646-28.211-0.646S152.215,286.309,142.383,286.708"/>
		<polyline fill="#9B9BBC" points="223.759,284.516 117.421,284.516 122.112,277.895 219.071,277.895 223.759,284.516   "/>
		<g>
			<polygon fill="none" stroke="#FFFFFF" stroke-width="0.5" stroke-linejoin="round" points="223.759,284.516 117.421,284.516      122.112,277.895 219.071,277.895 223.759,284.516    "/>
		</g>
		<path fill="#434249" d="M131.838,304.229c0,0.582-0.424,1.051-0.949,1.051h-1.333c-1.101,0-1.894-4.189-1.894-8.387    c0-4.199,0.793-8.389,1.894-8.389h1.333c0.525,0,0.949,0.471,0.949,1.053V304.229"/>
		<path fill="#434249" d="M135.602,296.899c0-4.32,0.807-8.639,1.926-8.639h1.355c0.531,0,0.962,0.486,0.962,1.086v15.107    c0,0.598-0.431,1.084-0.962,1.084h-1.355C136.409,305.538,135.602,301.223,135.602,296.899"/>
		<path fill="#434249" d="M143.545,296.907c0-4.447,0.819-8.889,1.953-8.889h1.377c0.541,0,0.979,0.5,0.979,1.117v15.543    c0,0.617-0.438,1.117-0.979,1.117h-1.377C144.365,305.795,143.545,301.356,143.545,296.907"/>
		<path fill="#434249" d="M209.346,304.229c0,0.582,0.423,1.051,0.945,1.051h1.336c1.1,0,1.894-4.189,1.894-8.387    c0-4.199-0.794-8.389-1.894-8.389h-1.336c-0.522,0-0.945,0.471-0.945,1.053V304.229"/>
		<path fill="#434249" d="M205.581,296.899c0-4.32-0.809-8.639-1.925-8.639H202.3c-0.532,0-0.965,0.486-0.965,1.086v15.107    c0,0.598,0.433,1.084,0.965,1.084h1.355C204.772,305.538,205.581,301.223,205.581,296.899"/>
		<path fill="#434249" d="M197.637,296.907c0-4.447-0.818-8.889-1.953-8.889h-1.377c-0.539,0-0.978,0.5-0.978,1.117v15.543    c0,0.617,0.439,1.117,0.978,1.117h1.377C196.819,305.795,197.637,301.356,197.637,296.907"/>
		<path fill="#434249" d="M151.485,296.913c0-4.572,0.833-9.135,1.986-9.135h1.398c0.547,0,0.99,0.512,0.99,1.146v15.98    c0,0.633-0.443,1.146-0.99,1.146h-1.398C152.319,306.051,151.485,301.489,151.485,296.913"/>
		<path fill="#434249" d="M163.871,305.131c0,0.65-0.452,1.178-1.011,1.178h-1.417c-1.171,0-2.015-4.689-2.015-9.387    c0-4.699,0.844-9.389,2.015-9.389h1.417c0.559,0,1.011,0.527,1.011,1.178V305.131"/>
		<path fill="#434249" d="M190.359,304.45c0,1.025-0.756,1.859-1.688,1.859h-20.319c-0.934,0-1.688-0.834-1.688-1.859v-8.213    c0-1.027,0.754-1.859,1.688-1.859h20.319c0.932,0,1.688,0.832,1.688,1.859V304.45"/>
		<path fill="#B3B7BE" d="M187.986,304.821c0,0.822-0.603,1.488-1.349,1.488h-16.254c-0.748,0-1.35-0.666-1.35-1.488v-6.57    c0-0.822,0.602-1.486,1.35-1.486h16.254c0.746,0,1.349,0.664,1.349,1.486V304.821"/>
		<path fill="#434249" d="M186.092,304.258c0,0.525-0.483,0.951-1.081,0.951h-13.003c-0.598,0-1.08-0.426-1.08-0.951v-4.205    c0-0.525,0.482-0.953,1.08-0.953h13.003c0.598,0,1.081,0.428,1.081,0.953V304.258"/>
		<path fill="#434249" d="M176.231,306.309c0,0.26-0.209,0.471-0.47,0.471h-1.507c-0.262,0-0.473-0.211-0.473-0.471    c0-0.262,0.211-0.473,0.473-0.473h1.507C176.022,305.836,176.231,306.047,176.231,306.309"/>
		<path fill="#434249" d="M179.736,306.309c0,0.26-0.211,0.471-0.472,0.471h-1.508c-0.26,0-0.471-0.211-0.471-0.471    c0-0.262,0.211-0.473,0.471-0.473h1.508C179.525,305.836,179.736,306.047,179.736,306.309"/>
		<path fill="#434249" d="M183.241,306.309c0,0.26-0.211,0.471-0.473,0.471h-1.51c-0.26,0-0.471-0.211-0.471-0.471    c0-0.262,0.211-0.473,0.471-0.473h1.51C183.03,305.836,183.241,306.047,183.241,306.309"/>
		<polyline fill="#434249" points="223.759,284.516 117.421,284.516 117.421,259.698 223.759,259.698 223.759,284.516   "/>
		<path fill="#FFFFFF" d="M142.383,261.889c-16.867,0.686-16.867,1.014-16.867,1.994v16.443c0,0.982,0,1.313,16.867,1.998    c9.834,0.396,20.639,0.645,28.201,0.645s18.373-0.248,28.211-0.645c16.872-0.686,16.872-1.016,16.872-1.998v-16.443    c0-0.98,0-1.309-16.872-1.994c-9.838-0.398-20.648-0.646-28.211-0.646S152.215,261.491,142.383,261.889"/>
		<polyline fill="#B3B7BE" points="223.759,259.698 117.421,259.698 122.112,253.077 219.071,253.077 223.759,259.698   "/>
		<g>
			<polygon fill="none" stroke="#FFFFFF" stroke-width="0.5" stroke-linejoin="round" points="223.759,259.698 117.421,259.698      122.112,253.077 219.071,253.077 223.759,259.698    "/>
		</g>
		<path fill="#434249" d="M131.838,279.409c0,0.582-0.424,1.053-0.949,1.053h-1.333c-1.101,0-1.894-4.191-1.894-8.387    c0-4.199,0.793-8.389,1.894-8.389h1.333c0.525,0,0.949,0.471,0.949,1.053V279.409"/>
		<path fill="#434249" d="M135.602,272.081c0-4.322,0.807-8.639,1.926-8.639h1.355c0.531,0,0.962,0.486,0.962,1.086v15.107    c0,0.598-0.431,1.082-0.962,1.082h-1.355C136.409,280.717,135.602,276.403,135.602,272.081"/>
		<path fill="#434249" d="M143.545,272.088c0-4.447,0.819-8.889,1.953-8.889h1.377c0.541,0,0.979,0.5,0.979,1.117v15.541    c0,0.619-0.438,1.117-0.979,1.117h-1.377C144.365,280.975,143.545,276.538,143.545,272.088"/>
		<path fill="#434249" d="M209.346,279.409c0,0.582,0.423,1.053,0.945,1.053h1.336c1.1,0,1.894-4.191,1.894-8.387    c0-4.199-0.794-8.389-1.894-8.389h-1.336c-0.522,0-0.945,0.471-0.945,1.053V279.409"/>
		<path fill="#434249" d="M205.581,272.081c0-4.322-0.809-8.639-1.925-8.639H202.3c-0.532,0-0.965,0.486-0.965,1.086v15.107    c0,0.598,0.433,1.082,0.965,1.082h1.355C204.772,280.717,205.581,276.403,205.581,272.081"/>
		<path fill="#434249" d="M197.637,272.088c0-4.447-0.818-8.889-1.953-8.889h-1.377c-0.539,0-0.978,0.5-0.978,1.117v15.541    c0,0.619,0.438,1.117,0.978,1.117h1.377C196.819,280.975,197.637,276.538,197.637,272.088"/>
		<path fill="#434249" d="M151.485,272.094c0-4.572,0.833-9.135,1.986-9.135h1.398c0.547,0,0.99,0.512,0.99,1.146v15.979    c0,0.633-0.443,1.146-0.99,1.146h-1.398C152.318,281.231,151.485,276.668,151.485,272.094"/>
		<path fill="#434249" d="M163.871,280.311c0,0.65-0.452,1.178-1.011,1.178h-1.417c-1.171,0-2.015-4.688-2.015-9.387    c0-4.697,0.844-9.387,2.015-9.387h1.417c0.559,0,1.011,0.527,1.011,1.178V280.311"/>
		<path fill="#434249" d="M190.359,279.629c0,1.027-0.756,1.859-1.688,1.859h-20.319c-0.934,0-1.688-0.832-1.688-1.859v-8.213    c0-1.025,0.754-1.857,1.688-1.857h20.319c0.932,0,1.688,0.832,1.688,1.857V279.629"/>
		<path fill="#B3B7BE" d="M187.986,280.002c0,0.82-0.603,1.486-1.349,1.486h-16.254c-0.748,0-1.35-0.666-1.35-1.486v-6.57    c0-0.822,0.602-1.488,1.35-1.488h16.254c0.746,0,1.349,0.666,1.349,1.488V280.002"/>
		<path fill="#434249" d="M186.092,279.44c0,0.523-0.483,0.951-1.081,0.951h-13.003c-0.598,0-1.08-0.428-1.08-0.951v-4.207    c0-0.523,0.482-0.951,1.08-0.951h13.003c0.598,0,1.081,0.428,1.081,0.951V279.44"/>
		<path fill="#434249" d="M176.231,281.489c0,0.26-0.209,0.471-0.47,0.471h-1.507c-0.262,0-0.473-0.211-0.473-0.471    c0-0.262,0.211-0.473,0.473-0.473h1.507C176.022,281.016,176.231,281.227,176.231,281.489"/>
		<path fill="#434249" d="M179.736,281.489c0,0.26-0.211,0.471-0.472,0.471h-1.508c-0.26,0-0.471-0.211-0.471-0.471    c0-0.262,0.211-0.473,0.471-0.473h1.508C179.525,281.016,179.736,281.227,179.736,281.489"/>
		<path fill="#434249" d="M183.241,281.489c0,0.26-0.211,0.471-0.473,0.471h-1.51c-0.26,0-0.471-0.211-0.471-0.471    c0-0.262,0.211-0.473,0.471-0.473h1.51C183.03,281.016,183.241,281.227,183.241,281.489"/>
	</g>
	<rect x="117.502" y="292.807" fill="#FFFFFF" stroke="#000000" stroke-width="0.4" width="41.313" height="11.162"/>
	<rect x="181.857" y="265.051" fill="#FFFFFF" stroke="#000000" stroke-width="0.4" width="41.869" height="11.162"/>
	<circle cx="78.248" cy="150.99" r="1.591"/>
	<g>
		<line fill="none" stroke="#000000" stroke-width="0.5" x1="279.469" y1="103.815" x2="287.688" y2="103.815"/>
		<path d="M290.051,102.79c-1.654-0.499-2.729-0.959-4.055-1.491v5.044c0.475-0.225,2.4-0.992,4.055-1.491    c1.77-0.534,3.373-0.9,4.414-1.03C293.424,103.69,291.82,103.325,290.051,102.79z"/>
	</g>
	<g>
		<line fill="none" stroke="#000000" stroke-width="0.5" x1="73.063" y1="102.327" x2="64.843" y2="102.327"/>
		<path d="M62.48,103.353c1.654,0.499,2.729,0.959,4.055,1.491V99.8c-0.475,0.225-2.4,0.992-4.055,1.491    c-1.77,0.534-3.373,0.9-4.414,1.03C59.107,102.452,60.711,102.817,62.48,103.353z"/>
	</g>
	<g>
		<polyline fill="#FFFFFF" points="270.563,127.804 232.156,127.804 232.156,89.399 270.563,89.399 270.563,127.804   "/>
		<g>
			<polygon fill="none" stroke="#000000" stroke-width="0.5" points="279.714,127.804 223.005,127.804 223.005,89.399      279.714,89.399 279.714,127.804    "/>
		</g>
		<path d="M238.786,107.772c-0.467,0-0.844,0.377-0.844,0.843s0.377,0.843,0.844,0.843h9.41c0.467,0,0.845-0.377,0.845-0.843    s-0.378-0.843-0.845-0.843H238.786"/>
		<polyline points="239.138,111.417 239.138,105.784 235.326,108.589 239.138,111.417   "/>
		<path d="M254.523,107.747c-0.466,0-0.844,0.376-0.844,0.842s0.378,0.842,0.844,0.842h9.409c0.467,0,0.844-0.376,0.844-0.842    s-0.377-0.842-0.844-0.842H254.523"/>
		<polyline points="263.58,105.784 263.58,111.417 267.393,108.615 263.58,105.784   "/>
		<path d="M250.53,111.765v9.41c0,0.467,0.377,0.843,0.844,0.843c0.465,0,0.841-0.376,0.841-0.843v-9.41    c0-0.465-0.376-0.842-0.841-0.842C250.907,110.923,250.53,111.3,250.53,111.765"/>
		<polyline points="254.175,120.823 248.545,120.823 251.347,124.635 254.175,120.823   "/>
		<path d="M250.506,96.028v9.411c0,0.465,0.376,0.843,0.841,0.843c0.467,0,0.844-0.378,0.844-0.843v-9.411    c0-0.465-0.377-0.842-0.844-0.842C250.882,95.187,250.506,95.563,250.506,96.028"/>
		<polyline points="248.545,96.381 254.175,96.381 251.374,92.569 248.545,96.381   "/>
		<path d="M248.536,110.251l-6.657,6.654c-0.329,0.33-0.329,0.863,0,1.192c0.33,0.329,0.863,0.329,1.192,0l6.657-6.655    c0.328-0.328,0.328-0.862,0-1.191C249.399,109.922,248.865,109.922,248.536,110.251"/>
		<polyline points="244.709,119.233 240.727,115.251 240.012,119.931 244.709,119.233   "/>
		<path d="M259.646,99.106l-6.655,6.654c-0.329,0.33-0.329,0.863,0,1.193c0.329,0.328,0.861,0.328,1.19,0l6.656-6.656    c0.329-0.329,0.329-0.863,0-1.191C260.508,98.777,259.975,98.777,259.646,99.106"/>
		<polyline points="258.009,97.972 261.991,101.95 262.706,97.273 258.009,97.972   "/>
		<path d="M253.01,110.234c-0.329,0.329-0.329,0.862,0,1.191l6.654,6.651c0.329,0.33,0.862,0.33,1.191,0    c0.33-0.328,0.33-0.861,0-1.19l-6.654-6.652C253.872,109.905,253.339,109.905,253.01,110.234"/>
		<polyline points="261.991,115.251 258.009,119.233 262.689,119.948 261.991,115.251   "/>
		<path d="M241.863,99.122c-0.33,0.33-0.33,0.862,0,1.192l6.656,6.655c0.329,0.329,0.862,0.329,1.191,0s0.329-0.862,0-1.191    l-6.655-6.656C242.727,98.794,242.193,98.794,241.863,99.122"/>
		<polyline points="240.727,101.95 244.709,97.972 240.029,97.257 240.727,101.95   "/>
	</g>
	<g>
		<polyline fill="#FFFFFF" points="120.779,127.804 82.375,127.804 82.375,89.399 120.779,89.399 120.779,127.804   "/>
		<g>
			<polygon fill="none" stroke="#000000" stroke-width="0.5" points="129.93,127.804 73.224,127.804 73.224,89.399 129.93,89.399      129.93,127.804    "/>
		</g>
		<path d="M89.005,107.772c-0.467,0-0.844,0.377-0.844,0.843s0.377,0.843,0.844,0.843h9.408c0.467,0,0.845-0.377,0.845-0.843    s-0.378-0.843-0.845-0.843H89.005"/>
		<polyline points="89.356,111.417 89.356,105.784 85.545,108.589 89.356,111.417   "/>
		<path d="M104.74,107.747c-0.466,0-0.844,0.376-0.844,0.842s0.378,0.842,0.844,0.842h9.409c0.467,0,0.844-0.376,0.844-0.842    s-0.377-0.842-0.844-0.842H104.74"/>
		<polyline points="113.796,105.784 113.796,111.417 117.609,108.615 113.796,105.784   "/>
		<path d="M100.747,111.765v9.41c0,0.467,0.377,0.843,0.844,0.843c0.465,0,0.841-0.376,0.841-0.843v-9.41    c0-0.465-0.376-0.842-0.841-0.842C101.124,110.923,100.747,111.3,100.747,111.765"/>
		<polyline points="104.391,120.823 98.761,120.823 101.563,124.635 104.391,120.823   "/>
		<path d="M100.722,96.028v9.411c0,0.465,0.376,0.843,0.841,0.843c0.467,0,0.844-0.378,0.844-0.843v-9.411    c0-0.465-0.377-0.842-0.844-0.842C101.098,95.187,100.722,95.563,100.722,96.028"/>
		<polyline points="98.761,96.381 104.391,96.381 101.59,92.569 98.761,96.381   "/>
		<path d="M98.752,110.251l-6.655,6.654c-0.329,0.33-0.329,0.863,0,1.192s0.862,0.329,1.191,0l6.656-6.655    c0.328-0.328,0.328-0.862,0-1.191C99.616,109.922,99.082,109.922,98.752,110.251"/>
		<polyline points="94.925,119.233 90.946,115.251 90.23,119.931 94.925,119.233   "/>
		<path d="M109.862,99.106l-6.655,6.654c-0.329,0.33-0.329,0.863,0,1.193c0.329,0.328,0.861,0.328,1.19,0l6.656-6.656    c0.329-0.329,0.329-0.863,0-1.191C110.724,98.777,110.191,98.777,109.862,99.106"/>
		<polyline points="108.225,97.972 112.208,101.95 112.922,97.273 108.225,97.972   "/>
		<path d="M103.226,110.234c-0.329,0.329-0.329,0.862,0,1.191l6.654,6.651c0.329,0.33,0.862,0.33,1.191,0    c0.33-0.328,0.33-0.861,0-1.19l-6.654-6.652C104.088,109.905,103.555,109.905,103.226,110.234"/>
		<polyline points="112.208,115.251 108.225,119.233 112.906,119.948 112.208,115.251   "/>
		<path d="M92.082,99.122c-0.33,0.33-0.33,0.862,0,1.192l6.654,6.655c0.329,0.329,0.862,0.329,1.191,0s0.329-0.862,0-1.191    l-6.654-6.656C92.944,98.794,92.411,98.794,92.082,99.122"/>
		<polyline points="90.946,101.95 94.925,97.972 90.248,97.257 90.946,101.95   "/>
	</g>
	<rect x="239.168" y="67.767" fill="#FFFFFF" stroke="#000000" stroke-width="0.4" width="24.384" height="21.559"/>
	<rect x="89.382" y="67.767" fill="#FFFFFF" stroke="#000000" stroke-width="0.4" width="24.382" height="21.559"/>
	<rect x="222.892" y="127.767" fill="#FFFFFF" stroke="#000000" stroke-width="0.4" width="24.383" height="21.559"/>
	<rect x="73.106" y="127.767" fill="#FFFFFF" stroke="#000000" stroke-width="0.4" width="24.382" height="21.559"/>
	<rect x="255.443" y="127.767" fill="#FFFFFF" stroke="#000000" stroke-width="0.4" width="24.384" height="21.559"/>
	<rect x="105.658" y="127.767" fill="#FFFFFF" stroke="#000000" stroke-width="0.4" width="24.382" height="21.559"/>
</g>
<g id="Text">
	<text transform="matrix(0.9981 0 0 1 4.7129 7.7129)" font-family="'HelveticaNeue-Roman'" font-size="9">Host 1</text>
	<text transform="matrix(0.9981 0 0 1 5.4316 198.8398)" font-family="'HelveticaNeue-Roman'" font-size="9">Switch/Fabric 1</text>
	<text transform="matrix(0.9981 0 0 1 146.2476 251.1021)" font-family="'HelveticaNeue-Roman'" font-size="9">Controller 1</text>
	<text transform="matrix(0.9981 0 0 1 119.1191 301.5386)" font-family="'HelveticaNeue-Roman'" font-size="8">UTA Ports</text>
	<text transform="matrix(0.9981 0 0 1 184.1304 273.9214)" font-family="'HelveticaNeue-Roman'" font-size="8">UTA Ports</text>
	<text transform="matrix(0.9981 0 0 1 146.2476 319.5669)" font-family="'HelveticaNeue-Roman'" font-size="9">Controller 2</text>
	<text transform="matrix(0.9981 0 0 1 75.8682 266.4155)" font-family="'HelveticaNeue-Roman'" font-size="9">0d</text>
	<text transform="matrix(0.9981 0 0 1 59.9746 266.4155)" font-family="'HelveticaNeue-Roman'" font-size="9">0b</text>
	<text transform="matrix(0.9981 0 0 1 268.7451 294.4312)" font-family="'HelveticaNeue-Roman'" font-size="9">0d</text>
	<text transform="matrix(0.9981 0 0 1 251.4121 294.4312)" font-family="'HelveticaNeue-Roman'" font-size="9">0b</text>
	<text transform="matrix(0.9981 0 0 1 226.063 263.146)" font-family="'HelveticaNeue-Roman'" font-size="9">2b</text>
	<text transform="matrix(0.9981 0 0 1 226.3145 275.1978)" font-family="'HelveticaNeue-Roman'" font-size="9">2a</text>
	<text transform="matrix(0.9981 0 0 1 105.8906 291.5786)" font-family="'HelveticaNeue-Roman'" font-size="9">2a</text>
	<text transform="matrix(0.9981 0 0 1 105.6392 302.1899)" font-family="'HelveticaNeue-Roman'" font-size="9">2b</text>
	<text transform="matrix(0.9981 0 0 1 271.3584 198.8398)" font-family="'HelveticaNeue-Roman'" font-size="9">Switch/Fabric 2</text>
	<text transform="matrix(0.9981 0 0 1 113.8496 7.7129)" font-family="'HelveticaNeue-Roman'" font-size="9">Host 2</text>
	<text transform="matrix(0.9981 0 0 1 257.8398 7.7129)" font-family="'HelveticaNeue-Roman'" font-size="9">Host N</text>
	<text transform="matrix(0.9981 0 0 1 45.9082 47.5146)" font-family="'HelveticaNeue-Roman'" font-size="8">CNA Ports</text>
	<text transform="matrix(0.9981 0 0 1 154.4146 47.5146)" font-family="'HelveticaNeue-Roman'" font-size="8">CNA Ports</text>
	<text transform="matrix(0.9981 0 0 1 298.5732 47.5146)" font-family="'HelveticaNeue-Roman'" font-size="8">CNA Ports</text>
	<text transform="matrix(0.9981 0 0 1 17.4429 127.8154)" font-family="'HelveticaNeue-Roman'" font-size="9">FCoE Switch</text>
	<text transform="matrix(0.9981 0 0 1 295.7051 106.7144)" font-family="'HelveticaNeue-Roman'" font-size="9">IP Network</text>
	<text transform="matrix(0.9981 0 0 1 11.6523 105.2144)" font-family="'HelveticaNeue-Roman'" font-size="9">IP Network</text>
	<text transform="matrix(0.9981 0 0 1 281.9004 127.2236)" font-family="'HelveticaNeue-Roman'" font-size="9">FCoE  Switch</text>
	<text transform="matrix(0.9981 0 0 1 242.9312 76.0566)"><tspan x="0" y="0" font-family="'HelveticaNeue-Roman'" font-size="8">DCB</tspan><tspan x="-1.036" y="9.6" font-family="'HelveticaNeue-Roman'" font-size="8">Ports</tspan></text>
	<text transform="matrix(0.9981 0 0 1 93.1455 76.0566)"><tspan x="0" y="0" font-family="'HelveticaNeue-Roman'" font-size="8">DCB</tspan><tspan x="-1.036" y="9.6" font-family="'HelveticaNeue-Roman'" font-size="8">Ports</tspan></text>
	<text transform="matrix(0.9981 0 0 1 226.6553 136.0566)"><tspan x="0" y="0" font-family="'HelveticaNeue-Roman'" font-size="8">DCB</tspan><tspan x="-1.036" y="9.6" font-family="'HelveticaNeue-Roman'" font-size="8">Ports</tspan></text>
	<text transform="matrix(0.9981 0 0 1 76.8696 136.0566)"><tspan x="0" y="0" font-family="'HelveticaNeue-Roman'" font-size="8">DCB</tspan><tspan x="-1.036" y="9.6" font-family="'HelveticaNeue-Roman'" font-size="8">Ports</tspan></text>
	<text transform="matrix(0.9981 0 0 1 262.4609 136.0566)"><tspan x="0" y="0" font-family="'HelveticaNeue-Roman'" font-size="8">FC</tspan><tspan x="-4.295" y="9.6" font-family="'HelveticaNeue-Roman'" font-size="8">Ports</tspan></text>
	<text transform="matrix(0.9981 0 0 1 112.6753 136.0566)"><tspan x="0" y="0" font-family="'HelveticaNeue-Roman'" font-size="8">FC</tspan><tspan x="-4.296" y="9.6" font-family="'HelveticaNeue-Roman'" font-size="8">Ports</tspan></text>
</g>
</svg>