<?xml version="1.0" encoding="UTF-8"?><!-- Generator: Adobe Illustrator 12.0.1, SVG Export Plug-In . SVG Version: 6.00 Build 51448)  --><!DOCTYPE svg PUBLIC "-//W3C//DTD SVG 1.1//EN" "http://www.w3.org/Graphics/SVG/1.1/DTD/svg11.dtd">
<svg xmlns="http://www.w3.org/2000/svg" xmlns:xlink="http://www.w3.org/1999/xlink" version="1.1" width="341.147" height="311.561" viewBox="0 0 341.147 311.561" overflow="visible" enable-background="new 0 0 341.147 311.561" xml:space="preserve" preserveAspectRatio="xMidYMid meet" zoomAndPan="magnify" contentScriptType="application/ecmascript" contentStyleType="text/css">
<g id="illustration">
	<polyline fill="none" stroke="#000000" stroke-width="0.5" stroke-miterlimit="10" points="117.782,282.432 87.868,282.432    87.868,204.38 278.956,204.356 278.956,162.275  "/>
	<line fill="none" stroke="#FFFFFF" stroke-width="2" stroke-miterlimit="10" x1="118.779" y1="90.071" x2="118.585" y2="53.96"/>
	<polyline fill="none" stroke="#000000" stroke-width="0.5" stroke-miterlimit="10" points="118.707,88.63 118.729,54.68    179.296,54.68 179.296,49.485  "/>
	<polyline fill="none" stroke="#FFFFFF" stroke-width="2" stroke-miterlimit="10" points="322.009,45.933 322.009,65.164    126.467,65.164 126.467,87.851  "/>
	<polyline fill="none" stroke="#000000" stroke-width="0.5" stroke-miterlimit="10" points="322.226,45.933 322.226,65.379    126.252,65.379 126.252,87.851  "/>
	<polyline fill="none" stroke="#000000" stroke-width="0.5" stroke-miterlimit="10" points="272.707,89.213 272.707,70.374    331.879,70.374 331.879,48.485  "/>
	<polyline fill="none" stroke="#000000" stroke-width="0.5" stroke-miterlimit="10" points="80.854,89.213 80.854,75.321    49.883,75.321 49.883,48.785  "/>
	<polyline fill="none" stroke="#FFFFFF" stroke-width="2" stroke-miterlimit="10" points="188.95,46.653 188.95,54.985    234.808,54.985 234.808,89.291  "/>
	<polyline fill="none" stroke="#FFFFFF" stroke-width="2" stroke-miterlimit="10" points="58.574,46.653 58.574,60.544    226.808,60.544 226.808,89.291  "/>
	<polyline fill="none" stroke="#000000" stroke-width="0.5" stroke-miterlimit="10" points="189.166,46.653 189.166,55.2    234.808,55.2 234.808,89.291  "/>
	<polyline fill="none" stroke="#000000" stroke-width="0.5" stroke-miterlimit="10" points="58.574,46.653 58.574,60.76    226.808,60.76 226.808,89.291  "/>
	<polyline fill="none" stroke="#000000" stroke-width="0.5" stroke-miterlimit="10" points="267.382,161.933 267.382,265.186    223.825,265.186  "/>
	<polyline fill="none" stroke="#FFFFFF" stroke-width="2" stroke-miterlimit="10" points="223.825,257.436 250.769,257.436    250.769,211.879 127.599,211.668 127.599,162.942  "/>
	<polyline fill="none" stroke="#000000" stroke-width="0.5" stroke-miterlimit="10" points="117.782,289.764 71.201,289.764    71.201,196.444 115.956,196.444 115.956,161.318  "/>
	<g>
		<polyline fill="#949494" points="87.482,32.096 0,32.096 0,26.383 87.482,26.383 87.482,32.096   "/>
		<polyline fill="#464646" points="87.482,37.952 0,37.952 0,32.239 87.482,32.239 87.482,37.952   "/>
		<polyline fill="#949494" points="87.482,43.724 0,43.724 0,38.011 87.482,38.011 87.482,43.724   "/>
		<polyline fill="#464646" points="87.482,49.58 0,49.58 0,43.867 87.482,43.867 87.482,49.58   "/>
		<g>
			<polyline fill="#B3B7BE" points="87.482,15.349 0,15.349 4.493,10.877 82.989,10.877 87.482,15.349    "/>
			<path fill="#444B4C" d="M85.218,24.677c-1.75,0-3.164-1.42-3.164-3.169c0-1.752,1.414-3.169,3.164-3.169V24.677"/>
			<polyline fill="#464646" points="87.482,25.631 0,25.631 0,15.349 87.482,15.349 87.482,25.631    "/>
			<polyline fill="#949494" points="83.211,23.829 4.052,23.829 4.052,17.489 83.211,17.489 83.211,23.829    "/>
			<ellipse fill="#FFFFFF" cx="83.127" cy="20.681" rx="1.44" ry="1.062"/>
		</g>
		<rect x="40.43" y="27.427" fill="#FFFFFF" width="14.232" height="0.595"/>
		<ellipse fill="#FFFFFF" cx="53.604" cy="30.229" rx="1.482" ry="1.019"/>
		<rect x="40.43" y="33.369" fill="#FFFFFF" width="14.232" height="0.594"/>
		<ellipse fill="#FFFFFF" cx="53.604" cy="36.17" rx="1.482" ry="1.019"/>
		<rect x="68.979" y="33.369" fill="#FFFFFF" width="14.232" height="0.594"/>
		<ellipse fill="#FFFFFF" cx="82.153" cy="36.17" rx="1.482" ry="1.019"/>
		<ellipse fill="#FFFFFF" cx="82.153" cy="42.111" rx="1.482" ry="1.019"/>
		<rect x="68.979" y="45.251" fill="#FFFFFF" width="14.232" height="0.594"/>
		<ellipse fill="#FFFFFF" cx="82.153" cy="48.052" rx="1.482" ry="1.019"/>
		<rect x="40.43" y="39.311" fill="#FFFFFF" width="14.232" height="0.594"/>
		<ellipse fill="#FFFFFF" cx="53.604" cy="42.111" rx="1.482" ry="1.019"/>
		<rect x="40.43" y="45.252" fill="#FFFFFF" width="14.232" height="0.594"/>
		<ellipse fill="#FFFFFF" cx="53.604" cy="48.053" rx="1.482" ry="1.019"/>
		<ellipse fill="#FFFFFF" cx="81.984" cy="30.229" rx="1.482" ry="1.019"/>
		<line fill="#FFFFFF" stroke="#FFFFFF" x1="58.475" y1="26.069" x2="58.475" y2="48.564"/>
	</g>
	<g>
		<polyline fill="#949494" points="196.808,32.096 109.325,32.096 109.325,26.383 196.808,26.383 196.808,32.096   "/>
		<polyline fill="#464646" points="196.808,37.952 109.325,37.952 109.325,32.239 196.808,32.239 196.808,37.952   "/>
		<polyline fill="#949494" points="196.808,43.724 109.325,43.724 109.325,38.011 196.808,38.011 196.808,43.724   "/>
		<polyline fill="#464646" points="196.808,49.58 109.325,49.58 109.325,43.867 196.808,43.867 196.808,49.58   "/>
		<g>
			<polyline fill="#B3B7BE" points="196.808,15.349 109.325,15.349 113.818,10.877 192.313,10.877 196.808,15.349    "/>
			<path fill="#444B4C" d="M194.543,24.677c-1.75,0-3.165-1.42-3.165-3.169c0-1.752,1.414-3.169,3.165-3.169V24.677"/>
			<polyline fill="#464646" points="196.808,25.631 109.325,25.631 109.325,15.349 196.808,15.349 196.808,25.631    "/>
			<polyline fill="#949494" points="192.536,23.829 113.375,23.829 113.375,17.489 192.536,17.489 192.536,23.829    "/>
			<ellipse fill="#FFFFFF" cx="192.451" cy="20.681" rx="1.44" ry="1.062"/>
		</g>
		<rect x="149.755" y="27.427" fill="#FFFFFF" width="14.232" height="0.595"/>
		<ellipse fill="#FFFFFF" cx="162.928" cy="30.229" rx="1.482" ry="1.019"/>
		<rect x="149.755" y="33.369" fill="#FFFFFF" width="14.232" height="0.595"/>
		<ellipse fill="#FFFFFF" cx="162.928" cy="36.17" rx="1.482" ry="1.019"/>
		<rect x="178.304" y="33.369" fill="#FFFFFF" width="14.232" height="0.595"/>
		<ellipse fill="#FFFFFF" cx="191.478" cy="36.17" rx="1.482" ry="1.019"/>
		<ellipse fill="#FFFFFF" cx="191.478" cy="42.111" rx="1.482" ry="1.019"/>
		<rect x="178.304" y="45.251" fill="#FFFFFF" width="14.232" height="0.594"/>
		<ellipse fill="#FFFFFF" cx="191.478" cy="48.052" rx="1.482" ry="1.019"/>
		<rect x="149.755" y="39.311" fill="#FFFFFF" width="14.232" height="0.594"/>
		<ellipse fill="#FFFFFF" cx="162.928" cy="42.111" rx="1.482" ry="1.019"/>
		<rect x="149.755" y="45.252" fill="#FFFFFF" width="14.232" height="0.594"/>
		<ellipse fill="#FFFFFF" cx="162.928" cy="48.053" rx="1.482" ry="1.019"/>
		<ellipse fill="#FFFFFF" cx="191.309" cy="30.229" rx="1.482" ry="1.019"/>
		<line fill="#FFFFFF" stroke="#FFFFFF" x1="167.8" y1="26.069" x2="167.8" y2="49.284"/>
	</g>
	<g>
		<polyline fill="#949494" points="341.147,32.096 253.665,32.096 253.665,26.383 341.147,26.383 341.147,32.096   "/>
		<polyline fill="#464646" points="341.147,37.952 253.665,37.952 253.665,32.239 341.147,32.239 341.147,37.952   "/>
		<polyline fill="#949494" points="341.147,43.724 253.665,43.724 253.665,38.011 341.147,38.011 341.147,43.724   "/>
		<polyline fill="#464646" points="341.147,49.58 253.665,49.58 253.665,43.867 341.147,43.867 341.147,49.58   "/>
		<g>
			<polyline fill="#B3B7BE" points="341.147,15.349 253.665,15.349 258.159,10.877 336.654,10.877 341.147,15.349    "/>
			<path fill="#444B4C" d="M338.883,24.677c-1.749,0-3.163-1.42-3.163-3.169c0-1.752,1.414-3.169,3.163-3.169V24.677"/>
			<polyline fill="#464646" points="341.147,25.631 253.665,25.631 253.665,15.349 341.147,15.349 341.147,25.631    "/>
			<polyline fill="#949494" points="336.877,23.829 257.717,23.829 257.717,17.489 336.877,17.489 336.877,23.829    "/>
			<ellipse fill="#FFFFFF" cx="336.792" cy="20.681" rx="1.44" ry="1.062"/>
		</g>
		<rect x="294.095" y="27.427" fill="#FFFFFF" width="14.232" height="0.595"/>
		<ellipse fill="#FFFFFF" cx="307.269" cy="30.229" rx="1.482" ry="1.019"/>
		<rect x="294.095" y="33.369" fill="#FFFFFF" width="14.232" height="0.595"/>
		<ellipse fill="#FFFFFF" cx="307.269" cy="36.17" rx="1.482" ry="1.019"/>
		<rect x="322.646" y="33.369" fill="#FFFFFF" width="14.231" height="0.595"/>
		<ellipse fill="#FFFFFF" cx="335.819" cy="36.17" rx="1.482" ry="1.019"/>
		<ellipse fill="#FFFFFF" cx="335.819" cy="42.111" rx="1.482" ry="1.019"/>
		<rect x="322.646" y="45.251" fill="#FFFFFF" width="14.231" height="0.594"/>
		<ellipse fill="#FFFFFF" cx="335.819" cy="48.052" rx="1.482" ry="1.019"/>
		<rect x="294.095" y="39.311" fill="#FFFFFF" width="14.232" height="0.594"/>
		<ellipse fill="#FFFFFF" cx="307.269" cy="42.111" rx="1.482" ry="1.019"/>
		<rect x="294.095" y="45.252" fill="#FFFFFF" width="14.232" height="0.594"/>
		<ellipse fill="#FFFFFF" cx="307.269" cy="48.053" rx="1.482" ry="1.019"/>
		<ellipse fill="#FFFFFF" cx="335.65" cy="30.229" rx="1.482" ry="1.019"/>
		<line fill="#FFFFFF" stroke="#FFFFFF" x1="312.141" y1="26.069" x2="312.141" y2="49.284"/>
	</g>
	<rect x="42.264" y="39.224" fill="#FFFFFF" stroke="#000000" stroke-width="0.4" width="41.314" height="10"/>
	<rect x="151.652" y="39.224" fill="#FFFFFF" stroke="#000000" stroke-width="0.4" width="40.926" height="10"/>
	<rect x="295.266" y="39.224" fill="#FFFFFF" stroke="#000000" stroke-width="0.4" width="41.313" height="10"/>
	<g>
		<rect x="216.709" y="47.704" width="2.549" height="2.554"/>
		<rect x="228.182" y="47.704" width="2.55" height="2.554"/>
		<rect x="222.445" y="47.704" width="2.549" height="2.554"/>
	</g>
	<path fill="none" stroke="#000000" stroke-width="1.2" stroke-miterlimit="10" d="M249.772,211.643"/>
	<polyline fill="none" stroke="#000000" stroke-width="0.5" stroke-miterlimit="10" points="223.825,257.852 250.769,257.852    250.769,211.879 127.599,211.883 127.599,162.942  "/>
	<circle cx="115.909" cy="161.285" r="1.591"/>
	<circle cx="127.576" cy="161.285" r="1.591"/>
	<circle cx="267.243" cy="161.285" r="1.591"/>
	<circle cx="278.91" cy="161.285" r="1.592"/>
	<circle cx="118.723" cy="89.1" r="1.591"/>
	<circle cx="126.378" cy="89.1" r="1.591"/>
	<circle cx="226.775" cy="89.1" r="1.591"/>
	<circle cx="234.908" cy="89.1" r="1.591"/>
	<circle cx="272.643" cy="89.1" r="1.591"/>
	<circle cx="80.791" cy="89.1" r="1.591"/>
	<polyline fill="none" stroke="#FFFFFF" stroke-width="2" stroke-miterlimit="10" points="252.547,164.151 252.547,180.189    317.28,180.189 317.28,296.301 223.6,296.301  "/>
	<polyline fill="none" stroke="#FFFFFF" stroke-width="2" stroke-miterlimit="10" points="102.402,161.119 102.402,180.527    173.631,180.527 173.631,196.372 305.904,196.372 305.904,284.866 223.561,284.866  "/>
	<polyline fill="none" stroke="#000000" stroke-width="0.5" stroke-miterlimit="10" points="102.402,161.119 102.402,180.527    173.631,180.527 173.631,196.372 305.904,196.372 305.904,284.866 223.561,284.866  "/>
	<polyline fill="none" stroke="#FFFFFF" stroke-width="2" stroke-miterlimit="10" points="252.547,164.151 252.547,180.189    317.28,180.189 317.28,296.301 223.6,296.301  "/>
	<circle cx="102.402" cy="161.047" r="1.591"/>
	<polyline fill="none" stroke="#FFFFFF" stroke-width="2" stroke-miterlimit="10" points="225.625,161.868 225.625,180.609    184.86,180.609 184.86,227.653 97.84,227.653 97.84,256.268 117.689,256.268  "/>
	<polyline fill="none" stroke="#FFFFFF" stroke-width="2" stroke-miterlimit="10" points="225.625,161.868 225.625,180.609    184.86,180.609 184.86,227.653 97.84,227.653 97.84,256.268 117.689,256.268  "/>
	<polyline fill="none" stroke="#FFFFFF" stroke-width="0.5" stroke-miterlimit="10" points="225.625,161.868 225.625,180.609    184.86,180.609 184.86,227.653 97.84,227.653 97.84,256.268 117.689,256.268  "/>
	<polyline fill="none" stroke="#000000" stroke-width="0.5" stroke-miterlimit="10" points="225.625,161.868 225.625,180.609    184.86,180.609 184.86,227.653 97.84,227.653 97.84,256.268 117.689,256.268  "/>
	<circle cx="225.697" cy="161.119" r="1.591"/>
	<polyline fill="none" stroke="#FFFFFF" stroke-width="0.5" stroke-miterlimit="10" points="252.547,164.151 252.547,180.189    317.28,180.189 317.28,296.301 223.6,296.301  "/>
	<circle cx="252.479" cy="161.119" r="1.591"/>
	<polyline fill="none" stroke="#FFFFFF" stroke-width="2" stroke-miterlimit="10" points="74.915,162.151 74.915,181.284    57.439,181.284 57.439,268.557 117.939,268.557  "/>
	<polyline fill="none" stroke="#FFFFFF" stroke-width="0.5" stroke-miterlimit="10" points="74.915,162.151 74.915,181.284    57.439,181.284 57.439,268.557 117.939,268.557  "/>
	<polyline fill="none" stroke="#000000" stroke-width="0.5" stroke-miterlimit="10" points="74.915,162.151 74.915,181.284    57.606,181.284 57.606,268.557 117.939,268.557  "/>
	<g>
		<g>
			<polyline fill="#434249" points="223.759,299.403 117.421,299.403 117.421,274.583 223.759,274.583 223.759,299.403    "/>
			<path fill="#FFFFFF" d="M142.383,276.774c-16.867,0.686-16.867,1.014-16.867,1.994v16.445c0,0.982,0,1.311,16.867,1.996     c9.834,0.398,20.639,0.646,28.201,0.646s18.373-0.248,28.211-0.646c16.872-0.686,16.872-1.014,16.872-1.996v-16.445     c0-0.979,0-1.309-16.872-1.994c-9.838-0.398-20.648-0.646-28.211-0.646S152.215,276.375,142.383,276.774"/>
			<polyline fill="#9B9BBC" points="223.759,274.583 117.421,274.583 122.112,267.961 219.071,267.961 223.759,274.583    "/>
			<g>
				<polygon fill="none" stroke="#FFFFFF" stroke-width="0.5" stroke-linejoin="round" points="223.759,274.583 117.421,274.583       122.112,267.961 219.071,267.961 223.759,274.583     "/>
			</g>
			<path fill="#434249" d="M131.838,294.295c0,0.582-0.424,1.051-0.949,1.051h-1.333c-1.101,0-1.894-4.189-1.894-8.387     c0-4.199,0.793-8.389,1.894-8.389h1.333c0.525,0,0.949,0.471,0.949,1.053V294.295"/>
			<path fill="#434249" d="M135.602,286.965c0-4.32,0.807-8.639,1.926-8.639h1.355c0.531,0,0.962,0.486,0.962,1.086v15.107     c0,0.598-0.431,1.084-0.962,1.084h-1.355C136.409,295.604,135.602,291.29,135.602,286.965"/>
			<path fill="#434249" d="M143.545,286.973c0-4.447,0.819-8.889,1.953-8.889h1.377c0.541,0,0.979,0.5,0.979,1.117v15.543     c0,0.617-0.438,1.117-0.979,1.117h-1.377C144.365,295.862,143.545,291.422,143.545,286.973"/>
			<path fill="#434249" d="M209.346,294.295c0,0.582,0.423,1.051,0.945,1.051h1.336c1.1,0,1.894-4.189,1.894-8.387     c0-4.199-0.794-8.389-1.894-8.389h-1.336c-0.522,0-0.945,0.471-0.945,1.053V294.295"/>
			<path fill="#434249" d="M205.581,286.965c0-4.32-0.809-8.639-1.925-8.639H202.3c-0.532,0-0.965,0.486-0.965,1.086v15.107     c0,0.598,0.433,1.084,0.965,1.084h1.355C204.772,295.604,205.581,291.29,205.581,286.965"/>
			<path fill="#434249" d="M197.637,286.973c0-4.447-0.818-8.889-1.953-8.889h-1.377c-0.539,0-0.978,0.5-0.978,1.117v15.543     c0,0.617,0.439,1.117,0.978,1.117h1.377C196.819,295.862,197.637,291.422,197.637,286.973"/>
			<path fill="#434249" d="M151.485,286.979c0-4.572,0.833-9.135,1.986-9.135h1.398c0.547,0,0.99,0.512,0.99,1.146v15.98     c0,0.633-0.443,1.146-0.99,1.146h-1.398C152.319,296.118,151.485,291.555,151.485,286.979"/>
			<path fill="#434249" d="M163.871,295.198c0,0.65-0.452,1.178-1.011,1.178h-1.417c-1.171,0-2.015-4.689-2.015-9.387     c0-4.699,0.844-9.389,2.015-9.389h1.417c0.559,0,1.011,0.527,1.011,1.178V295.198"/>
			<path fill="#434249" d="M190.359,294.516c0,1.025-0.756,1.859-1.688,1.859h-20.319c-0.934,0-1.688-0.834-1.688-1.859v-8.213     c0-1.027,0.754-1.859,1.688-1.859h20.319c0.932,0,1.688,0.832,1.688,1.859V294.516"/>
			<path fill="#B3B7BE" d="M187.986,294.887c0,0.822-0.603,1.488-1.349,1.488h-16.254c-0.748,0-1.35-0.666-1.35-1.488v-6.57     c0-0.822,0.602-1.486,1.35-1.486h16.254c0.746,0,1.349,0.664,1.349,1.486V294.887"/>
			<path fill="#434249" d="M186.092,294.325c0,0.525-0.483,0.951-1.081,0.951h-13.003c-0.598,0-1.08-0.426-1.08-0.951v-4.205     c0-0.525,0.482-0.953,1.08-0.953h13.003c0.598,0,1.081,0.428,1.081,0.953V294.325"/>
			<path fill="#434249" d="M176.231,296.375c0,0.26-0.209,0.471-0.47,0.471h-1.507c-0.262,0-0.473-0.211-0.473-0.471     c0-0.262,0.211-0.473,0.473-0.473h1.507C176.022,295.903,176.231,296.114,176.231,296.375"/>
			<path fill="#434249" d="M179.736,296.375c0,0.26-0.211,0.471-0.472,0.471h-1.508c-0.26,0-0.471-0.211-0.471-0.471     c0-0.262,0.211-0.473,0.471-0.473h1.508C179.525,295.903,179.736,296.114,179.736,296.375"/>
			<path fill="#434249" d="M183.241,296.375c0,0.26-0.211,0.471-0.473,0.471h-1.51c-0.26,0-0.471-0.211-0.471-0.471     c0-0.262,0.211-0.473,0.471-0.473h1.51C183.03,295.903,183.241,296.114,183.241,296.375"/>
			<polyline fill="#434249" points="223.759,274.583 117.421,274.583 117.421,249.764 223.759,249.764 223.759,274.583    "/>
			<path fill="#FFFFFF" d="M142.383,251.956c-16.867,0.686-16.867,1.014-16.867,1.994v16.443c0,0.982,0,1.313,16.867,1.998     c9.834,0.396,20.639,0.645,28.201,0.645s18.373-0.248,28.211-0.645c16.872-0.686,16.872-1.016,16.872-1.998V253.95     c0-0.98,0-1.309-16.872-1.994c-9.838-0.398-20.648-0.646-28.211-0.646S152.215,251.557,142.383,251.956"/>
			<polyline fill="#B3B7BE" points="223.759,249.764 117.421,249.764 122.112,243.143 219.071,243.143 223.759,249.764    "/>
			<g>
				<polygon fill="none" stroke="#FFFFFF" stroke-width="0.5" stroke-linejoin="round" points="223.759,249.764 117.421,249.764       122.112,243.143 219.071,243.143 223.759,249.764     "/>
			</g>
			<path fill="#434249" d="M131.838,269.475c0,0.582-0.424,1.053-0.949,1.053h-1.333c-1.101,0-1.894-4.191-1.894-8.387     c0-4.199,0.793-8.389,1.894-8.389h1.333c0.525,0,0.949,0.471,0.949,1.053V269.475"/>
			<path fill="#434249" d="M135.602,262.147c0-4.322,0.807-8.639,1.926-8.639h1.355c0.531,0,0.962,0.486,0.962,1.086v15.107     c0,0.598-0.431,1.082-0.962,1.082h-1.355C136.409,270.784,135.602,266.469,135.602,262.147"/>
			<path fill="#434249" d="M143.545,262.155c0-4.447,0.819-8.889,1.953-8.889h1.377c0.541,0,0.979,0.5,0.979,1.117v15.541     c0,0.619-0.438,1.117-0.979,1.117h-1.377C144.365,271.042,143.545,266.604,143.545,262.155"/>
			<path fill="#434249" d="M209.346,269.475c0,0.582,0.423,1.053,0.945,1.053h1.336c1.1,0,1.894-4.191,1.894-8.387     c0-4.199-0.794-8.389-1.894-8.389h-1.336c-0.522,0-0.945,0.471-0.945,1.053V269.475"/>
			<path fill="#434249" d="M205.581,262.147c0-4.322-0.809-8.639-1.925-8.639H202.3c-0.532,0-0.965,0.486-0.965,1.086v15.107     c0,0.598,0.433,1.082,0.965,1.082h1.355C204.772,270.784,205.581,266.469,205.581,262.147"/>
			<path fill="#434249" d="M197.637,262.155c0-4.447-0.818-8.889-1.953-8.889h-1.377c-0.539,0-0.978,0.5-0.978,1.117v15.541     c0,0.619,0.438,1.117,0.978,1.117h1.377C196.819,271.042,197.637,266.604,197.637,262.155"/>
			<path fill="#434249" d="M151.485,262.161c0-4.572,0.833-9.135,1.986-9.135h1.398c0.547,0,0.99,0.512,0.99,1.146v15.979     c0,0.633-0.443,1.146-0.99,1.146h-1.398C152.318,271.297,151.485,266.735,151.485,262.161"/>
			<path fill="#434249" d="M163.871,270.377c0,0.65-0.452,1.178-1.011,1.178h-1.417c-1.171,0-2.015-4.688-2.015-9.387     c0-4.697,0.844-9.387,2.015-9.387h1.417c0.559,0,1.011,0.527,1.011,1.178V270.377"/>
			<path fill="#434249" d="M190.359,269.696c0,1.027-0.756,1.859-1.688,1.859h-20.319c-0.934,0-1.688-0.832-1.688-1.859v-8.213     c0-1.025,0.754-1.857,1.688-1.857h20.319c0.932,0,1.688,0.832,1.688,1.857V269.696"/>
			<path fill="#B3B7BE" d="M187.986,270.069c0,0.82-0.603,1.486-1.349,1.486h-16.254c-0.748,0-1.35-0.666-1.35-1.486v-6.57     c0-0.822,0.602-1.488,1.35-1.488h16.254c0.746,0,1.349,0.666,1.349,1.488V270.069"/>
			<path fill="#434249" d="M186.092,269.506c0,0.523-0.483,0.951-1.081,0.951h-13.003c-0.598,0-1.08-0.428-1.08-0.951v-4.207     c0-0.523,0.482-0.951,1.08-0.951h13.003c0.598,0,1.081,0.428,1.081,0.951V269.506"/>
			<path fill="#434249" d="M176.231,271.555c0,0.26-0.209,0.471-0.47,0.471h-1.507c-0.262,0-0.473-0.211-0.473-0.471     c0-0.262,0.211-0.473,0.473-0.473h1.507C176.022,271.083,176.231,271.293,176.231,271.555"/>
			<path fill="#434249" d="M179.736,271.555c0,0.26-0.211,0.471-0.472,0.471h-1.508c-0.26,0-0.471-0.211-0.471-0.471     c0-0.262,0.211-0.473,0.471-0.473h1.508C179.525,271.083,179.736,271.293,179.736,271.555"/>
			<path fill="#434249" d="M183.241,271.555c0,0.26-0.211,0.471-0.473,0.471h-1.51c-0.26,0-0.471-0.211-0.471-0.471     c0-0.262,0.211-0.473,0.471-0.473h1.51C183.03,271.083,183.241,271.293,183.241,271.555"/>
		</g>
	</g>
	<polyline fill="none" stroke="#000000" stroke-width="0.5" stroke-miterlimit="10" points="252.547,162.393 252.547,180.189    317.28,180.189 317.28,296.301 223.6,296.301  "/>
	<rect x="117.647" y="281.351" fill="#FFFFFF" stroke="#000000" stroke-width="0.4" width="40.55" height="10"/>
	<rect x="181.039" y="255.892" fill="#FFFFFF" stroke="#000000" stroke-width="0.4" width="42.833" height="10"/>
	<g>
		<line fill="none" stroke="#000000" stroke-width="0.5" x1="279.469" y1="105.424" x2="287.688" y2="105.424"/>
		<path d="M290.051,104.399c-1.654-0.499-2.729-0.959-4.055-1.491v5.044c0.475-0.225,2.4-0.992,4.055-1.491    c1.77-0.534,3.373-0.9,4.414-1.03C293.424,105.299,291.82,104.934,290.051,104.399z"/>
	</g>
	<g>
		<line fill="none" stroke="#000000" stroke-width="0.5" x1="73.063" y1="103.936" x2="64.843" y2="103.936"/>
		<path d="M62.48,104.961c1.654,0.499,2.729,0.959,4.055,1.491v-5.044c-0.475,0.225-2.4,0.992-4.055,1.491    c-1.77,0.534-3.373,0.9-4.414,1.03C59.107,104.061,60.711,104.426,62.48,104.961z"/>
	</g>
	<rect x="239.168" y="69.375" fill="#FFFFFF" stroke="#000000" stroke-width="0.4" width="24.384" height="21.559"/>
	<rect x="89.382" y="69.375" fill="#FFFFFF" stroke="#000000" stroke-width="0.4" width="24.382" height="21.559"/>
	<rect x="109.816" y="129.541" fill="#FFFFFF" stroke="#000000" stroke-width="0.4" width="24.382" height="29.831"/>
	<rect x="68.386" y="129.541" fill="#FFFFFF" stroke="#000000" stroke-width="0.4" width="38.563" height="29.536"/>
	<rect x="260.214" y="129.541" fill="#FFFFFF" stroke="#000000" stroke-width="0.4" width="24.383" height="29.831"/>
	<rect x="218.788" y="129.541" fill="#FFFFFF" stroke="#000000" stroke-width="0.4" width="38.56" height="29.536"/>
	<circle cx="74.915" cy="161.062" r="1.591"/>
	<g>
		<polyline fill="#FFFFFF" points="270.563,129.413 232.156,129.413 232.156,91.008 270.563,91.008 270.563,129.413   "/>
		<g>
			<polygon fill="none" stroke="#000000" stroke-width="0.5" points="279.714,129.413 223.005,129.413 223.005,91.008      279.714,91.008 279.714,129.413    "/>
		</g>
		<path d="M238.786,109.381c-0.467,0-0.844,0.377-0.844,0.843s0.377,0.843,0.844,0.843h9.41c0.467,0,0.845-0.377,0.845-0.843    s-0.378-0.843-0.845-0.843H238.786"/>
		<polyline points="239.138,113.026 239.138,107.393 235.326,110.198 239.138,113.026   "/>
		<path d="M254.523,109.356c-0.466,0-0.844,0.376-0.844,0.842s0.378,0.842,0.844,0.842h9.409c0.467,0,0.844-0.376,0.844-0.842    s-0.377-0.842-0.844-0.842H254.523"/>
		<polyline points="263.58,107.393 263.58,113.026 267.393,110.224 263.58,107.393   "/>
		<path d="M250.53,113.374v9.41c0,0.467,0.377,0.843,0.844,0.843c0.465,0,0.841-0.376,0.841-0.843v-9.41    c0-0.465-0.376-0.842-0.841-0.842C250.907,112.532,250.53,112.909,250.53,113.374"/>
		<polyline points="254.175,122.432 248.545,122.432 251.347,126.244 254.175,122.432   "/>
		<path d="M250.506,97.637v9.411c0,0.465,0.376,0.843,0.841,0.843c0.467,0,0.844-0.378,0.844-0.843v-9.411    c0-0.465-0.377-0.842-0.844-0.842C250.882,96.795,250.506,97.172,250.506,97.637"/>
		<polyline points="248.545,97.99 254.175,97.99 251.374,94.178 248.545,97.99   "/>
		<path d="M248.536,111.86l-6.657,6.654c-0.329,0.33-0.329,0.863,0,1.192c0.33,0.329,0.863,0.329,1.192,0l6.657-6.655    c0.328-0.328,0.328-0.862,0-1.191C249.399,111.531,248.865,111.531,248.536,111.86"/>
		<polyline points="244.709,120.842 240.727,116.86 240.012,121.54 244.709,120.842   "/>
		<path d="M259.646,100.715l-6.655,6.654c-0.329,0.33-0.329,0.863,0,1.193c0.329,0.328,0.861,0.328,1.19,0l6.656-6.656    c0.329-0.329,0.329-0.863,0-1.191C260.508,100.386,259.975,100.386,259.646,100.715"/>
		<polyline points="258.009,99.581 261.991,103.559 262.706,98.882 258.009,99.581   "/>
		<path d="M253.01,111.843c-0.329,0.329-0.329,0.862,0,1.191l6.654,6.651c0.329,0.33,0.862,0.33,1.191,0    c0.33-0.328,0.33-0.861,0-1.19l-6.654-6.652C253.872,111.514,253.339,111.514,253.01,111.843"/>
		<polyline points="261.991,116.86 258.009,120.842 262.689,121.557 261.991,116.86   "/>
		<path d="M241.863,100.731c-0.33,0.33-0.33,0.862,0,1.192l6.656,6.655c0.329,0.329,0.862,0.329,1.191,0s0.329-0.862,0-1.191    l-6.655-6.656C242.727,100.403,242.193,100.403,241.863,100.731"/>
		<polyline points="240.727,103.559 244.709,99.581 240.029,98.866 240.727,103.559   "/>
	</g>
	<g>
		<polyline fill="#FFFFFF" points="120.779,129.413 82.375,129.413 82.375,91.008 120.779,91.008 120.779,129.413   "/>
		<g>
			<polygon fill="none" stroke="#000000" stroke-width="0.5" points="129.93,129.413 73.224,129.413 73.224,91.008 129.93,91.008      129.93,129.413    "/>
		</g>
		<path d="M89.005,109.381c-0.467,0-0.844,0.377-0.844,0.843s0.377,0.843,0.844,0.843h9.408c0.467,0,0.845-0.377,0.845-0.843    s-0.378-0.843-0.845-0.843H89.005"/>
		<polyline points="89.356,113.026 89.356,107.393 85.545,110.198 89.356,113.026   "/>
		<path d="M104.74,109.356c-0.466,0-0.844,0.376-0.844,0.842s0.378,0.842,0.844,0.842h9.409c0.467,0,0.844-0.376,0.844-0.842    s-0.377-0.842-0.844-0.842H104.74"/>
		<polyline points="113.796,107.393 113.796,113.026 117.609,110.224 113.796,107.393   "/>
		<path d="M100.747,113.374v9.41c0,0.467,0.377,0.843,0.844,0.843c0.465,0,0.841-0.376,0.841-0.843v-9.41    c0-0.465-0.376-0.842-0.841-0.842C101.124,112.532,100.747,112.909,100.747,113.374"/>
		<polyline points="104.391,122.432 98.761,122.432 101.563,126.244 104.391,122.432   "/>
		<path d="M100.722,97.637v9.411c0,0.465,0.376,0.843,0.841,0.843c0.467,0,0.844-0.378,0.844-0.843v-9.411    c0-0.465-0.377-0.842-0.844-0.842C101.098,96.795,100.722,97.172,100.722,97.637"/>
		<polyline points="98.761,97.99 104.391,97.99 101.59,94.178 98.761,97.99   "/>
		<path d="M98.752,111.86l-6.655,6.654c-0.329,0.33-0.329,0.863,0,1.192s0.862,0.329,1.191,0l6.656-6.655    c0.328-0.328,0.328-0.862,0-1.191C99.616,111.531,99.082,111.531,98.752,111.86"/>
		<polyline points="94.925,120.842 90.946,116.86 90.23,121.54 94.925,120.842   "/>
		<path d="M109.862,100.715l-6.655,6.654c-0.329,0.33-0.329,0.863,0,1.193c0.329,0.328,0.861,0.328,1.19,0l6.656-6.656    c0.329-0.329,0.329-0.863,0-1.191C110.724,100.386,110.191,100.386,109.862,100.715"/>
		<polyline points="108.225,99.581 112.208,103.559 112.922,98.882 108.225,99.581   "/>
		<path d="M103.226,111.843c-0.329,0.329-0.329,0.862,0,1.191l6.654,6.651c0.329,0.33,0.862,0.33,1.191,0    c0.33-0.328,0.33-0.861,0-1.19l-6.654-6.652C104.088,111.514,103.555,111.514,103.226,111.843"/>
		<polyline points="112.208,116.86 108.225,120.842 112.906,121.557 112.208,116.86   "/>
		<path d="M92.082,100.731c-0.33,0.33-0.33,0.862,0,1.192l6.654,6.655c0.329,0.329,0.862,0.329,1.191,0s0.329-0.862,0-1.191    l-6.654-6.656C92.944,100.403,92.411,100.403,92.082,100.731"/>
		<polyline points="90.946,103.559 94.925,99.581 90.248,98.866 90.946,103.559   "/>
	</g>
</g>
<g id="Text">
	<text transform="matrix(0.9981 0 0 1 43.8799 47.5146)" font-family="'HelveticaNeue-Roman'" font-size="8">CNA Ports</text>
	<text transform="matrix(0.9981 0 0 1 153.2676 47.5146)" font-family="'HelveticaNeue-Roman'" font-size="8">CNA Ports</text>
	<text transform="matrix(0.9981 0 0 1 296.8809 47.5146)" font-family="'HelveticaNeue-Roman'" font-size="8">CNA Ports</text>
	<text transform="matrix(0.9981 0 0 1 119.2637 289.6421)" font-family="'HelveticaNeue-Roman'" font-size="8">UTA Ports</text>
	<text transform="matrix(0.9981 0 0 1 182.6548 264.1851)" font-family="'HelveticaNeue-Roman'" font-size="8">UTA Ports</text>
	<text transform="matrix(0.9981 0 0 1 4.7129 7.7129)" font-family="'HelveticaNeue-Roman'" font-size="9">Host 1</text>
	<text transform="matrix(0.9981 0 0 1 146.2476 241.1704)" font-family="'HelveticaNeue-Roman'" font-size="9">Controller 1</text>
	<text transform="matrix(0.9981 0 0 1 146.2476 309.6353)" font-family="'HelveticaNeue-Roman'" font-size="9">Controller 2</text>
	<text transform="matrix(0.9981 0 0 1 75.8682 281.6724)" font-family="'HelveticaNeue-Roman'" font-size="9">2b</text>
	<text transform="matrix(0.9981 0 0 1 60.2261 281.6724)" font-family="'HelveticaNeue-Roman'" font-size="9">2a</text>
	<text transform="matrix(0.9981 0 0 1 268.0254 256.9849)" font-family="'HelveticaNeue-Roman'" font-size="9">2b</text>
	<text transform="matrix(0.9981 0 0 1 251.6631 256.9849)" font-family="'HelveticaNeue-Roman'" font-size="9">2a</text>
	<text transform="matrix(0.9981 0 0 1 227.251 283.0532)" font-family="'HelveticaNeue-Roman'" font-size="9">e0a </text>
	<text transform="matrix(0.9981 0 0 1 227.2505 295.104)" font-family="'HelveticaNeue-Roman'" font-size="9">e0b</text>
	<text transform="matrix(0.9981 0 0 1 100.1304 254.9067)" font-family="'HelveticaNeue-Roman'" font-size="9">e0a</text>
	<text transform="matrix(0.9981 0 0 1 99.627 266.9585)" font-family="'HelveticaNeue-Roman'" font-size="9">e0b</text>
	<text transform="matrix(0.9981 0 0 1 113.8496 7.7129)" font-family="'HelveticaNeue-Roman'" font-size="9">Host 2</text>
	<text transform="matrix(0.9981 0 0 1 257.8398 7.7129)" font-family="'HelveticaNeue-Roman'" font-size="9">Host N</text>
	<text transform="matrix(0.9981 0 0 1 17.4429 127.9849)" font-family="'HelveticaNeue-Roman'" font-size="9">FCoE Switch</text>
	<text transform="matrix(0.9981 0 0 1 295.7051 108.3237)" font-family="'HelveticaNeue-Roman'" font-size="9">IP Network</text>
	<text transform="matrix(0.9981 0 0 1 11.6523 106.8237)" font-family="'HelveticaNeue-Roman'" font-size="9">IP Network</text>
	<text transform="matrix(0.9981 0 0 1 281.9004 127.3931)" font-family="'HelveticaNeue-Roman'" font-size="9">FCoE Switch</text>
	<text transform="matrix(0.9981 0 0 1 242.9312 77.666)"><tspan x="0" y="0" font-family="'HelveticaNeue-Roman'" font-size="8">DCB</tspan><tspan x="-1.036" y="9.6" font-family="'HelveticaNeue-Roman'" font-size="8">Ports</tspan></text>
	<text transform="matrix(0.9981 0 0 1 93.1455 77.666)"><tspan x="0" y="0" font-family="'HelveticaNeue-Roman'" font-size="8">DCB</tspan><tspan x="-1.036" y="9.6" font-family="'HelveticaNeue-Roman'" font-size="8">Ports</tspan></text>
	<text transform="matrix(0.9981 0 0 1 113.5767 142.2275)"><tspan x="0" y="0" font-family="'HelveticaNeue-Roman'" font-size="8">DCB</tspan><tspan x="-1.036" y="9.6" font-family="'HelveticaNeue-Roman'" font-size="8">Ports</tspan></text>
	<text transform="matrix(0.9981 0 0 1 77.9116 137.8311)"><tspan x="0" y="0" font-family="'HelveticaNeue-Roman'" font-size="8">DCB/</tspan><tspan x="-5.264" y="9.6" font-family="'HelveticaNeue-Roman'" font-size="8">Ethernet</tspan><tspan x="0.296" y="19.2" font-family="'HelveticaNeue-Roman'" font-size="8">Ports</tspan></text>
	<text transform="matrix(0.9981 0 0 1 263.9766 142.2275)"><tspan x="0" y="0" font-family="'HelveticaNeue-Roman'" font-size="8">DCB</tspan><tspan x="-1.035" y="9.6" font-family="'HelveticaNeue-Roman'" font-size="8">Ports</tspan></text>
	<text transform="matrix(0.9981 0 0 1 228.3115 137.8311)"><tspan x="0" y="0" font-family="'HelveticaNeue-Roman'" font-size="8">DCB/</tspan><tspan x="-5.264" y="9.6" font-family="'HelveticaNeue-Roman'" font-size="8">Ethernet</tspan><tspan x="0.296" y="19.2" font-family="'HelveticaNeue-Roman'" font-size="8">Ports</tspan></text>
</g>
</svg>