<?xml version="1.0" encoding="UTF-8"?><!-- Generator: Adobe Illustrator 16.0.3, SVG Export Plug-In . SVG Version: 6.00 Build 0)  --><!DOCTYPE svg PUBLIC "-//W3C//DTD SVG 1.1//EN" "http://www.w3.org/Graphics/SVG/1.1/DTD/svg11.dtd">
<svg xmlns="http://www.w3.org/2000/svg" xmlns:xlink="http://www.w3.org/1999/xlink" version="1.1" x="0px" y="0px" width="350px" height="305px" viewBox="0 0 350 305" enable-background="new 0 0 350 305" xml:space="preserve" preserveAspectRatio="xMidYMid meet" zoomAndPan="magnify" contentScriptType="application/ecmascript" contentStyleType="text/css">
<g id="illustration">
	<g>
		<g>
			<polyline fill="#878E94" points="156.951,181.937 58.84,181.937 58.84,164.082 156.951,164.082 156.951,181.937    "/>
			<polygon fill="none" stroke="#FFFFFF" stroke-width="0.5" points="156.951,181.937 58.84,181.937 58.84,164.082 156.951,164.082      156.951,181.937    "/>
			<polyline fill="#B3B7BE" points="156.951,164.082 58.84,164.082 70.357,156.006 145.432,156.006 156.951,164.082    "/>
		</g>
		<polyline fill="#FFFFFF" points="142.926,168.998 134.766,167.447 134.766,168.642 122.862,168.642 122.862,169.668     134.766,169.668 134.766,170.805 142.926,169.096 142.926,168.998   "/>
		<polyline fill="#FFFFFF" points="142.926,176.688 134.766,175.136 134.766,176.331 122.862,176.331 122.862,177.353     134.766,177.353 134.766,178.493 142.926,176.781 142.926,176.688   "/>
		<polyline fill="#FFFFFF" points="72.868,177.021 81.025,178.571 81.025,177.377 92.929,177.377 92.929,176.354 81.025,176.354     81.025,175.215 72.868,176.927 72.868,177.021   "/>
		<polyline fill="#FFFFFF" points="72.868,169.331 81.025,170.882 81.025,169.688 92.929,169.688 92.929,168.665 81.025,168.665     81.025,167.525 72.868,169.236 72.868,169.331   "/>
	</g>
	<g>
		<g>
			<polyline fill="#878E94" points="306.93,181.937 208.822,181.937 208.822,164.082 306.93,164.082 306.93,181.937    "/>
			<polygon fill="none" stroke="#FFFFFF" stroke-width="0.5" points="306.93,181.937 208.822,181.937 208.822,164.082      306.93,164.082 306.93,181.937    "/>
			<polyline fill="#B3B7BE" points="306.93,164.082 208.822,164.082 220.339,156.006 295.412,156.006 306.93,164.082    "/>
		</g>
		<polyline fill="#FFFFFF" points="292.906,168.998 284.747,167.447 284.747,168.642 272.842,168.642 272.842,169.668     284.747,169.668 284.747,170.805 292.906,169.096 292.906,168.998   "/>
		<polyline fill="#FFFFFF" points="292.906,176.688 284.747,175.136 284.747,176.331 272.842,176.331 272.842,177.353     284.747,177.353 284.747,178.493 292.906,176.781 292.906,176.688   "/>
		<polyline fill="#FFFFFF" points="222.85,177.021 231.007,178.571 231.007,177.377 242.911,177.377 242.911,176.354     231.007,176.354 231.007,175.215 222.85,176.927 222.85,177.021   "/>
		<polyline fill="#FFFFFF" points="222.85,169.331 231.007,170.882 231.007,169.688 242.911,169.688 242.911,168.665     231.007,168.665 231.007,167.525 222.85,169.236 222.85,169.331   "/>
	</g>
	
		<line fill="none" stroke="#000000" stroke-width="0.5" stroke-miterlimit="10" x1="107.826" y1="154.749" x2="107.826" y2="141.408"/>
	
		<line fill="none" stroke="#000000" stroke-width="0.5" stroke-miterlimit="10" x1="258.089" y1="154.749" x2="258.089" y2="141.408"/>
	<g>
		<line fill="none" stroke="#000000" stroke-width="0.5" x1="285.594" y1="107.942" x2="293.814" y2="107.942"/>
		<path d="M296.176,106.917c-1.654-0.5-2.729-0.959-4.055-1.492v5.044c0.475-0.226,2.4-0.993,4.055-1.492    c1.77-0.535,3.373-0.9,4.414-1.031C299.549,107.817,297.945,107.452,296.176,106.917z"/>
	</g>
	<g>
		<line fill="none" stroke="#000000" stroke-width="0.5" x1="79.188" y1="106.454" x2="70.968" y2="106.454"/>
		<path d="M68.606,107.479c1.654,0.5,2.729,0.959,4.055,1.492v-5.044c-0.475,0.226-2.4,0.993-4.055,1.492    c-1.77,0.535-3.373,0.9-4.414,1.031C65.233,106.579,66.836,106.945,68.606,107.479z"/>
	</g>
	<polyline fill="none" stroke="#000000" stroke-width="0.5" stroke-miterlimit="10" points="120.904,273.315 90.99,273.315    90.99,206.265 219.227,206.239 219.227,182.831  "/>
	<line fill="none" stroke="#FFFFFF" stroke-width="2" stroke-miterlimit="10" x1="126.206" y1="92.54" x2="126.012" y2="57.14"/>
	<polyline fill="none" stroke="#000000" stroke-width="0.5" stroke-miterlimit="10" points="126.134,91.099 126.155,57.86    182.418,57.86 182.418,52.665  "/>
	<polyline fill="none" stroke="#FFFFFF" stroke-width="2" stroke-miterlimit="10" points="325.133,49.113 325.133,68.343    133.966,68.343 133.966,90.319  "/>
	<polyline fill="none" stroke="#000000" stroke-width="0.5" stroke-miterlimit="10" points="325.35,49.113 325.35,68.559    133.75,68.559 133.75,90.319  "/>
	<polyline fill="none" stroke="#000000" stroke-width="0.5" stroke-miterlimit="10" points="278.857,91.61 278.857,73.553    335.004,73.553 335.004,51.665  "/>
	<polyline fill="none" stroke="#000000" stroke-width="0.5" stroke-miterlimit="10" points="61.494,52.333 61.494,85.521    86.673,85.521 86.673,90.854  "/>
	<polyline fill="none" stroke="#FFFFFF" stroke-width="2" stroke-miterlimit="10" points="194.233,49.833 194.233,58.165    239.371,58.165 239.371,91.949  "/>
	<polyline fill="none" stroke="#FFFFFF" stroke-width="2" stroke-miterlimit="10" points="80.904,49.833 80.904,63.724    232.091,63.724 232.091,91.949  "/>
	<polyline fill="none" stroke="#000000" stroke-width="0.5" stroke-miterlimit="10" points="194.448,49.833 194.448,58.38    239.371,58.38 239.371,91.949  "/>
	<polyline fill="none" stroke="#000000" stroke-width="0.5" stroke-miterlimit="10" points="80.904,49.833 80.904,63.939    232.091,63.939 232.091,91.949  "/>
	<polyline fill="none" stroke="#000000" stroke-width="0.5" stroke-miterlimit="10" points="271.226,183.209 271.226,256.069    226.947,256.069  "/>
	<polyline fill="none" stroke="#FFFFFF" stroke-width="2" stroke-miterlimit="10" points="226.947,248.319 253.893,248.319    253.893,213.836 137.562,213.551 137.562,181.337  "/>
	<polyline fill="none" stroke="#000000" stroke-width="0.5" stroke-miterlimit="10" points="120.904,280.647 74.323,280.647    74.323,183.209  "/>
	<g>
		<polyline fill="#949494" points="94.206,35.275 6.723,35.275 6.723,29.563 94.206,29.563 94.206,35.275   "/>
		<polyline fill="#464646" points="94.206,41.132 6.723,41.132 6.723,35.419 94.206,35.419 94.206,41.132   "/>
		<polyline fill="#949494" points="94.206,46.903 6.723,46.903 6.723,41.191 94.206,41.191 94.206,46.903   "/>
		<polyline fill="#464646" points="94.206,52.76 6.723,52.76 6.723,47.047 94.206,47.047 94.206,52.76   "/>
		<g>
			<polyline fill="#B3B7BE" points="94.206,18.529 6.723,18.529 11.216,14.057 89.712,14.057 94.206,18.529    "/>
			<path fill="#444B4C" d="M91.941,27.856c-1.75,0-3.164-1.42-3.164-3.169c0-1.752,1.414-3.169,3.164-3.169V27.856"/>
			<polyline fill="#464646" points="94.206,28.811 6.723,28.811 6.723,18.529 94.206,18.529 94.206,28.811    "/>
			<polyline fill="#949494" points="89.935,27.008 10.775,27.008 10.775,20.669 89.935,20.669 89.935,27.008    "/>
			<ellipse fill="#FFFFFF" cx="89.85" cy="23.861" rx="1.44" ry="1.062"/>
		</g>
		<rect x="47.153" y="30.607" fill="#FFFFFF" width="14.232" height="0.595"/>
		<ellipse fill="#FFFFFF" cx="60.327" cy="33.408" rx="1.482" ry="1.019"/>
		<rect x="47.153" y="36.549" fill="#FFFFFF" width="14.232" height="0.594"/>
		<ellipse fill="#FFFFFF" cx="60.327" cy="39.35" rx="1.482" ry="1.019"/>
		<rect x="75.703" y="36.549" fill="#FFFFFF" width="14.232" height="0.594"/>
		<ellipse fill="#FFFFFF" cx="88.876" cy="39.35" rx="1.482" ry="1.019"/>
		<ellipse fill="#FFFFFF" cx="88.876" cy="45.291" rx="1.482" ry="1.019"/>
		<rect x="75.703" y="48.431" fill="#FFFFFF" width="14.232" height="0.594"/>
		<ellipse fill="#FFFFFF" cx="88.876" cy="51.232" rx="1.482" ry="1.019"/>
		<rect x="47.153" y="42.49" fill="#FFFFFF" width="14.232" height="0.594"/>
		<ellipse fill="#FFFFFF" cx="60.327" cy="45.291" rx="1.482" ry="1.019"/>
		<rect x="47.153" y="48.432" fill="#FFFFFF" width="14.232" height="0.594"/>
		<ellipse fill="#FFFFFF" cx="60.327" cy="51.232" rx="1.482" ry="1.019"/>
		<ellipse fill="#FFFFFF" cx="88.707" cy="33.408" rx="1.482" ry="1.019"/>
		<line fill="#FFFFFF" stroke="#FFFFFF" x1="65.198" y1="29.249" x2="65.198" y2="52.575"/>
	</g>
	<g>
		<polyline fill="#949494" points="203.531,35.275 116.048,35.275 116.048,29.563 203.531,29.563 203.531,35.275   "/>
		<polyline fill="#464646" points="203.531,41.132 116.048,41.132 116.048,35.419 203.531,35.419 203.531,41.132   "/>
		<polyline fill="#949494" points="203.531,46.903 116.048,46.903 116.048,41.191 203.531,41.191 203.531,46.903   "/>
		<polyline fill="#464646" points="203.531,52.76 116.048,52.76 116.048,47.047 203.531,47.047 203.531,52.76   "/>
		<g>
			<polyline fill="#B3B7BE" points="203.531,18.529 116.048,18.529 120.541,14.057 199.037,14.057 203.531,18.529    "/>
			<path fill="#444B4C" d="M201.266,27.856c-1.75,0-3.165-1.42-3.165-3.169c0-1.752,1.414-3.169,3.165-3.169V27.856"/>
			<polyline fill="#464646" points="203.531,28.811 116.048,28.811 116.048,18.529 203.531,18.529 203.531,28.811    "/>
			<polyline fill="#949494" points="199.259,27.008 120.099,27.008 120.099,20.669 199.259,20.669 199.259,27.008    "/>
			<ellipse fill="#FFFFFF" cx="199.174" cy="23.861" rx="1.44" ry="1.062"/>
		</g>
		<rect x="156.478" y="30.607" fill="#FFFFFF" width="14.232" height="0.595"/>
		<ellipse fill="#FFFFFF" cx="169.651" cy="33.408" rx="1.482" ry="1.019"/>
		<rect x="156.478" y="36.548" fill="#FFFFFF" width="14.232" height="0.595"/>
		<ellipse fill="#FFFFFF" cx="169.651" cy="39.35" rx="1.482" ry="1.019"/>
		<rect x="185.027" y="36.548" fill="#FFFFFF" width="14.232" height="0.595"/>
		<ellipse fill="#FFFFFF" cx="198.201" cy="39.35" rx="1.482" ry="1.019"/>
		<ellipse fill="#FFFFFF" cx="198.201" cy="45.291" rx="1.482" ry="1.019"/>
		<rect x="185.027" y="48.431" fill="#FFFFFF" width="14.232" height="0.594"/>
		<ellipse fill="#FFFFFF" cx="198.201" cy="51.232" rx="1.482" ry="1.019"/>
		<rect x="156.478" y="42.49" fill="#FFFFFF" width="14.232" height="0.594"/>
		<ellipse fill="#FFFFFF" cx="169.651" cy="45.291" rx="1.482" ry="1.019"/>
		<rect x="156.478" y="48.432" fill="#FFFFFF" width="14.232" height="0.594"/>
		<ellipse fill="#FFFFFF" cx="169.651" cy="51.232" rx="1.482" ry="1.019"/>
		<ellipse fill="#FFFFFF" cx="198.032" cy="33.408" rx="1.482" ry="1.019"/>
		<line fill="#FFFFFF" stroke="#FFFFFF" x1="174.523" y1="29.249" x2="174.523" y2="53.184"/>
	</g>
	<g>
		<polyline fill="#949494" points="347.871,35.275 260.388,35.275 260.388,29.563 347.871,29.563 347.871,35.275   "/>
		<polyline fill="#464646" points="347.871,41.132 260.388,41.132 260.388,35.419 347.871,35.419 347.871,41.132   "/>
		<polyline fill="#949494" points="347.871,46.903 260.388,46.903 260.388,41.191 347.871,41.191 347.871,46.903   "/>
		<polyline fill="#464646" points="347.871,52.76 260.388,52.76 260.388,47.047 347.871,47.047 347.871,52.76   "/>
		<g>
			<polyline fill="#B3B7BE" points="347.871,18.529 260.388,18.529 264.882,14.057 343.377,14.057 347.871,18.529    "/>
			<path fill="#444B4C" d="M345.605,27.856c-1.748,0-3.162-1.42-3.162-3.169c0-1.752,1.414-3.169,3.162-3.169V27.856"/>
			<polyline fill="#464646" points="347.871,28.811 260.388,28.811 260.388,18.529 347.871,18.529 347.871,28.811    "/>
			<polyline fill="#949494" points="343.6,27.008 264.44,27.008 264.44,20.669 343.6,20.669 343.6,27.008    "/>
			<ellipse fill="#FFFFFF" cx="343.515" cy="23.861" rx="1.44" ry="1.062"/>
		</g>
		<rect x="300.818" y="30.607" fill="#FFFFFF" width="14.232" height="0.595"/>
		<ellipse fill="#FFFFFF" cx="313.992" cy="33.408" rx="1.482" ry="1.019"/>
		<rect x="300.818" y="36.548" fill="#FFFFFF" width="14.232" height="0.595"/>
		<ellipse fill="#FFFFFF" cx="313.992" cy="39.35" rx="1.482" ry="1.019"/>
		<rect x="329.369" y="36.548" fill="#FFFFFF" width="14.23" height="0.595"/>
		<ellipse fill="#FFFFFF" cx="342.543" cy="39.35" rx="1.482" ry="1.019"/>
		<ellipse fill="#FFFFFF" cx="342.543" cy="45.291" rx="1.482" ry="1.019"/>
		<rect x="329.369" y="48.431" fill="#FFFFFF" width="14.23" height="0.594"/>
		<ellipse fill="#FFFFFF" cx="342.543" cy="51.232" rx="1.482" ry="1.019"/>
		<rect x="300.818" y="42.49" fill="#FFFFFF" width="14.232" height="0.594"/>
		<ellipse fill="#FFFFFF" cx="313.992" cy="45.291" rx="1.482" ry="1.019"/>
		<rect x="300.818" y="48.432" fill="#FFFFFF" width="14.232" height="0.594"/>
		<ellipse fill="#FFFFFF" cx="313.992" cy="51.232" rx="1.482" ry="1.019"/>
		<ellipse fill="#FFFFFF" cx="342.373" cy="33.408" rx="1.482" ry="1.019"/>
		<line fill="#FFFFFF" stroke="#FFFFFF" x1="318.863" y1="29.249" x2="318.863" y2="53.184"/>
	</g>
	<g>
		<polyline fill="#FFFFFF" points="276.688,131.931 238.282,131.931 238.282,93.527 276.688,93.527 276.688,131.931   "/>
		<g>
			<polygon fill="none" stroke="#000000" stroke-width="0.5" points="285.839,131.931 229.13,131.931 229.13,93.527 285.839,93.527      285.839,131.931    "/>
		</g>
		<path d="M244.912,111.9c-0.467,0-0.844,0.376-0.844,0.842s0.377,0.842,0.844,0.842h9.41c0.467,0,0.845-0.376,0.845-0.842    s-0.378-0.842-0.845-0.842H244.912"/>
		<polyline points="245.263,115.543 245.263,109.911 241.452,112.716 245.263,115.543   "/>
		<path d="M260.649,111.874c-0.466,0-0.844,0.376-0.844,0.842s0.378,0.842,0.844,0.842h9.409c0.467,0,0.844-0.376,0.844-0.842    s-0.377-0.842-0.844-0.842H260.649"/>
		<polyline points="269.706,109.911 269.706,115.543 273.518,112.742 269.706,109.911   "/>
		<path d="M256.656,115.892v9.411c0,0.466,0.377,0.842,0.844,0.842c0.465,0,0.841-0.376,0.841-0.842v-9.411    c0-0.465-0.376-0.842-0.841-0.842C257.033,115.049,256.656,115.427,256.656,115.892"/>
		<polyline points="260.3,124.95 254.67,124.95 257.472,128.762 260.3,124.95   "/>
		<path d="M256.631,100.156v9.411c0,0.465,0.376,0.842,0.841,0.842c0.467,0,0.844-0.377,0.844-0.842v-9.411    c0-0.466-0.377-0.842-0.844-0.842C257.007,99.313,256.631,99.69,256.631,100.156"/>
		<polyline points="254.67,100.508 260.3,100.508 257.5,96.696 254.67,100.508   "/>
		<path d="M254.662,114.377l-6.657,6.655c-0.33,0.33-0.33,0.863,0,1.192c0.329,0.329,0.863,0.329,1.192,0l6.657-6.655    c0.328-0.329,0.328-0.863,0-1.192C255.525,114.049,254.991,114.049,254.662,114.377"/>
		<polyline points="250.834,123.36 246.853,119.378 246.137,124.058 250.834,123.36   "/>
		<path d="M265.771,103.233l-6.655,6.655c-0.329,0.329-0.329,0.863,0,1.192c0.329,0.329,0.861,0.329,1.19,0l6.656-6.655    c0.329-0.33,0.329-0.863,0-1.192C266.633,102.904,266.1,102.904,265.771,103.233"/>
		<polyline points="264.134,102.098 268.117,106.077 268.832,101.4 264.134,102.098   "/>
		<path d="M259.135,114.361c-0.329,0.329-0.329,0.862,0,1.191l6.654,6.652c0.329,0.33,0.862,0.33,1.191,0    c0.33-0.329,0.33-0.861,0-1.191l-6.654-6.652C259.998,114.032,259.464,114.032,259.135,114.361"/>
		<polyline points="268.117,119.378 264.134,123.36 268.815,124.075 268.117,119.378   "/>
		<path d="M247.989,103.25c-0.33,0.33-0.33,0.862,0,1.192l6.656,6.655c0.329,0.329,0.862,0.329,1.191,0s0.329-0.862,0-1.191    l-6.655-6.656C248.852,102.92,248.318,102.92,247.989,103.25"/>
		<polyline points="246.853,106.077 250.834,102.098 246.155,101.383 246.853,106.077   "/>
	</g>
	<g>
		<polyline fill="#FFFFFF" points="126.904,131.931 88.5,131.931 88.5,93.527 126.904,93.527 126.904,131.931   "/>
		<g>
			<polygon fill="none" stroke="#000000" stroke-width="0.5" points="136.056,131.931 79.349,131.931 79.349,93.527 136.056,93.527      136.056,131.931    "/>
		</g>
		<path d="M95.13,111.9c-0.467,0-0.844,0.376-0.844,0.842s0.377,0.842,0.844,0.842h9.408c0.467,0,0.845-0.376,0.845-0.842    s-0.378-0.842-0.845-0.842H95.13"/>
		<polyline points="95.482,115.543 95.482,109.911 91.67,112.716 95.482,115.543   "/>
		<path d="M110.865,111.874c-0.466,0-0.844,0.376-0.844,0.842s0.378,0.842,0.844,0.842h9.409c0.467,0,0.844-0.376,0.844-0.842    s-0.377-0.842-0.844-0.842H110.865"/>
		<polyline points="119.922,109.911 119.922,115.543 123.734,112.742 119.922,109.911   "/>
		<path d="M106.872,115.892v9.411c0,0.466,0.377,0.842,0.844,0.842c0.465,0,0.841-0.376,0.841-0.842v-9.411    c0-0.465-0.376-0.842-0.841-0.842C107.249,115.049,106.872,115.427,106.872,115.892"/>
		<polyline points="110.517,124.95 104.887,124.95 107.688,128.762 110.517,124.95   "/>
		<path d="M106.848,100.156v9.411c0,0.465,0.376,0.842,0.841,0.842c0.467,0,0.844-0.377,0.844-0.842v-9.411    c0-0.466-0.377-0.842-0.844-0.842C107.224,99.313,106.848,99.69,106.848,100.156"/>
		<polyline points="104.887,100.508 110.517,100.508 107.716,96.696 104.887,100.508   "/>
		<path d="M104.878,114.377l-6.655,6.655c-0.329,0.33-0.329,0.863,0,1.192c0.329,0.329,0.862,0.329,1.191,0l6.656-6.655    c0.328-0.329,0.328-0.863,0-1.192C105.741,114.049,105.207,114.049,104.878,114.377"/>
		<polyline points="101.051,123.36 97.071,119.378 96.356,124.058 101.051,123.36   "/>
		<path d="M115.987,103.233l-6.655,6.655c-0.329,0.329-0.329,0.863,0,1.192c0.329,0.329,0.861,0.329,1.19,0l6.656-6.655    c0.329-0.33,0.329-0.863,0-1.192C116.85,102.904,116.316,102.904,115.987,103.233"/>
		<polyline points="114.351,102.098 118.333,106.077 119.048,101.4 114.351,102.098   "/>
		<path d="M109.352,114.361c-0.329,0.329-0.329,0.862,0,1.191l6.654,6.652c0.329,0.33,0.862,0.33,1.191,0    c0.33-0.329,0.33-0.861,0-1.191l-6.654-6.652C110.214,114.032,109.681,114.032,109.352,114.361"/>
		<polyline points="118.333,119.378 114.351,123.36 119.031,124.075 118.333,119.378   "/>
		<path d="M98.207,103.25c-0.33,0.33-0.33,0.862,0,1.192l6.654,6.655c0.329,0.329,0.862,0.329,1.191,0s0.329-0.862,0-1.191    l-6.654-6.656C99.069,102.92,98.536,102.92,98.207,103.25"/>
		<polyline points="97.071,106.077 101.051,102.098 96.374,101.383 97.071,106.077   "/>
	</g>
	<g>
		<rect x="223.432" y="50.884" width="2.549" height="2.554"/>
		<rect x="234.905" y="50.884" width="2.55" height="2.554"/>
		<rect x="229.168" y="50.884" width="2.549" height="2.554"/>
	</g>
	<path fill="none" stroke="#000000" stroke-width="1.2" stroke-miterlimit="10" d="M252.897,213.598"/>
	<polyline fill="none" stroke="#000000" stroke-width="0.5" stroke-miterlimit="10" points="226.947,248.735 253.893,248.735    253.893,213.836 137.562,213.766 137.562,181.337  "/>
	<g>
		<polyline fill="#434249" points="226.881,290.286 120.543,290.286 120.543,265.465 226.881,265.465 226.881,290.286   "/>
		<path fill="#FFFFFF" d="M145.505,267.657c-16.867,0.686-16.867,1.014-16.867,1.994v16.445c0,0.982,0,1.311,16.867,1.996    c9.834,0.398,20.639,0.646,28.201,0.646s18.373-0.248,28.211-0.646c16.872-0.686,16.872-1.014,16.872-1.996v-16.445    c0-0.979,0-1.309-16.872-1.994c-9.838-0.398-20.648-0.646-28.211-0.646S155.337,267.258,145.505,267.657"/>
		<polyline fill="#9B9BBC" points="226.881,265.465 120.543,265.465 125.234,258.844 222.193,258.844 226.881,265.465   "/>
		<g>
			<polygon fill="none" stroke="#FFFFFF" stroke-width="0.5" stroke-linejoin="round" points="226.881,265.465 120.543,265.465      125.234,258.844 222.193,258.844 226.881,265.465    "/>
		</g>
		<path fill="#434249" d="M134.96,285.178c0,0.582-0.424,1.051-0.949,1.051h-1.333c-1.101,0-1.894-4.189-1.894-8.387    c0-4.199,0.793-8.389,1.894-8.389h1.333c0.525,0,0.949,0.471,0.949,1.053V285.178"/>
		<path fill="#434249" d="M138.724,277.848c0-4.32,0.807-8.639,1.926-8.639h1.355c0.531,0,0.962,0.486,0.962,1.086v15.107    c0,0.598-0.431,1.084-0.962,1.084h-1.355C139.531,286.487,138.724,282.172,138.724,277.848"/>
		<path fill="#434249" d="M146.667,277.856c0-4.447,0.819-8.889,1.953-8.889h1.377c0.541,0,0.979,0.5,0.979,1.117v15.543    c0,0.617-0.438,1.117-0.979,1.117h-1.377C147.487,286.745,146.667,282.305,146.667,277.856"/>
		<path fill="#434249" d="M212.468,285.178c0,0.582,0.423,1.051,0.945,1.051h1.336c1.1,0,1.894-4.189,1.894-8.387    c0-4.199-0.794-8.389-1.894-8.389h-1.336c-0.522,0-0.945,0.471-0.945,1.053V285.178"/>
		<path fill="#434249" d="M208.703,277.848c0-4.32-0.809-8.639-1.925-8.639h-1.355c-0.532,0-0.965,0.486-0.965,1.086v15.107    c0,0.598,0.433,1.084,0.965,1.084h1.355C207.894,286.487,208.703,282.172,208.703,277.848"/>
		<path fill="#434249" d="M200.759,277.856c0-4.447-0.818-8.889-1.953-8.889h-1.377c-0.539,0-0.978,0.5-0.978,1.117v15.543    c0,0.617,0.439,1.117,0.978,1.117h1.377C199.941,286.745,200.759,282.305,200.759,277.856"/>
		<path fill="#434249" d="M154.607,277.862c0-4.572,0.833-9.135,1.986-9.135h1.398c0.547,0,0.99,0.512,0.99,1.146v15.98    c0,0.633-0.443,1.146-0.99,1.146h-1.398C155.441,287,154.607,282.438,154.607,277.862"/>
		<path fill="#434249" d="M166.993,286.081c0,0.65-0.452,1.178-1.011,1.178h-1.417c-1.171,0-2.015-4.689-2.015-9.387    c0-4.699,0.844-9.389,2.015-9.389h1.417c0.559,0,1.011,0.527,1.011,1.178V286.081"/>
		<path fill="#434249" d="M193.481,285.399c0,1.025-0.756,1.859-1.688,1.859h-20.319c-0.934,0-1.688-0.834-1.688-1.859v-8.213    c0-1.027,0.754-1.859,1.688-1.859h20.319c0.932,0,1.688,0.832,1.688,1.859V285.399"/>
		<path fill="#B3B7BE" d="M191.108,285.77c0,0.822-0.603,1.488-1.349,1.488h-16.254c-0.748,0-1.35-0.666-1.35-1.488v-6.57    c0-0.822,0.602-1.486,1.35-1.486h16.254c0.746,0,1.349,0.664,1.349,1.486V285.77"/>
		<path fill="#434249" d="M189.214,285.208c0,0.525-0.483,0.951-1.081,0.951H175.13c-0.598,0-1.08-0.426-1.08-0.951v-4.205    c0-0.525,0.482-0.953,1.08-0.953h13.003c0.598,0,1.081,0.428,1.081,0.953V285.208"/>
		<path fill="#434249" d="M179.353,287.258c0,0.26-0.209,0.471-0.47,0.471h-1.507c-0.262,0-0.473-0.211-0.473-0.471    c0-0.262,0.211-0.473,0.473-0.473h1.507C179.144,286.786,179.353,286.997,179.353,287.258"/>
		<path fill="#434249" d="M182.858,287.258c0,0.26-0.211,0.471-0.472,0.471h-1.508c-0.26,0-0.471-0.211-0.471-0.471    c0-0.262,0.211-0.473,0.471-0.473h1.508C182.647,286.786,182.858,286.997,182.858,287.258"/>
		<path fill="#434249" d="M186.363,287.258c0,0.26-0.211,0.471-0.473,0.471h-1.51c-0.26,0-0.471-0.211-0.471-0.471    c0-0.262,0.211-0.473,0.471-0.473h1.51C186.152,286.786,186.363,286.997,186.363,287.258"/>
		<polyline fill="#434249" points="226.881,265.465 120.543,265.465 120.543,240.647 226.881,240.647 226.881,265.465   "/>
		<path fill="#FFFFFF" d="M145.505,242.838c-16.867,0.686-16.867,1.014-16.867,1.994v16.443c0,0.982,0,1.313,16.867,1.998    c9.834,0.396,20.639,0.645,28.201,0.645s18.373-0.248,28.211-0.645c16.872-0.686,16.872-1.016,16.872-1.998v-16.443    c0-0.98,0-1.309-16.872-1.994c-9.838-0.398-20.648-0.646-28.211-0.646S155.337,242.44,145.505,242.838"/>
		<polyline fill="#B3B7BE" points="226.881,240.647 120.543,240.647 125.234,234.026 222.193,234.026 226.881,240.647   "/>
		<g>
			<polygon fill="none" stroke="#FFFFFF" stroke-width="0.5" stroke-linejoin="round" points="226.881,240.647 120.543,240.647      125.234,234.026 222.193,234.026 226.881,240.647    "/>
		</g>
		<path fill="#434249" d="M134.96,260.358c0,0.582-0.424,1.053-0.949,1.053h-1.333c-1.101,0-1.894-4.191-1.894-8.387    c0-4.199,0.793-8.389,1.894-8.389h1.333c0.525,0,0.949,0.471,0.949,1.053V260.358"/>
		<path fill="#434249" d="M138.724,253.03c0-4.322,0.807-8.639,1.926-8.639h1.355c0.531,0,0.962,0.486,0.962,1.086v15.107    c0,0.598-0.431,1.082-0.962,1.082h-1.355C139.531,261.667,138.724,257.352,138.724,253.03"/>
		<path fill="#434249" d="M146.667,253.038c0-4.447,0.819-8.889,1.953-8.889h1.377c0.541,0,0.979,0.5,0.979,1.117v15.541    c0,0.619-0.438,1.117-0.979,1.117h-1.377C147.487,261.924,146.667,257.487,146.667,253.038"/>
		<path fill="#434249" d="M212.468,260.358c0,0.582,0.423,1.053,0.945,1.053h1.336c1.1,0,1.894-4.191,1.894-8.387    c0-4.199-0.794-8.389-1.894-8.389h-1.336c-0.522,0-0.945,0.471-0.945,1.053V260.358"/>
		<path fill="#434249" d="M208.703,253.03c0-4.322-0.809-8.639-1.925-8.639h-1.355c-0.532,0-0.965,0.486-0.965,1.086v15.107    c0,0.598,0.433,1.082,0.965,1.082h1.355C207.894,261.667,208.703,257.352,208.703,253.03"/>
		<path fill="#434249" d="M200.759,253.038c0-4.447-0.818-8.889-1.953-8.889h-1.377c-0.539,0-0.978,0.5-0.978,1.117v15.541    c0,0.619,0.438,1.117,0.978,1.117h1.377C199.941,261.924,200.759,257.487,200.759,253.038"/>
		<path fill="#434249" d="M154.607,253.043c0-4.572,0.833-9.135,1.986-9.135h1.398c0.547,0,0.99,0.512,0.99,1.146v15.979    c0,0.633-0.443,1.146-0.99,1.146h-1.398C155.44,262.18,154.607,257.618,154.607,253.043"/>
		<path fill="#434249" d="M166.993,261.26c0,0.65-0.452,1.178-1.011,1.178h-1.417c-1.171,0-2.015-4.688-2.015-9.387    c0-4.697,0.844-9.387,2.015-9.387h1.417c0.559,0,1.011,0.527,1.011,1.178V261.26"/>
		<path fill="#434249" d="M193.481,260.579c0,1.027-0.756,1.859-1.688,1.859h-20.319c-0.934,0-1.688-0.832-1.688-1.859v-8.213    c0-1.025,0.754-1.857,1.688-1.857h20.319c0.932,0,1.688,0.832,1.688,1.857V260.579"/>
		<path fill="#B3B7BE" d="M191.108,260.952c0,0.82-0.603,1.486-1.349,1.486h-16.254c-0.748,0-1.35-0.666-1.35-1.486v-6.57    c0-0.822,0.602-1.488,1.35-1.488h16.254c0.746,0,1.349,0.666,1.349,1.488V260.952"/>
		<path fill="#434249" d="M189.214,260.389c0,0.523-0.483,0.951-1.081,0.951H175.13c-0.598,0-1.08-0.428-1.08-0.951v-4.207    c0-0.523,0.482-0.951,1.08-0.951h13.003c0.598,0,1.081,0.428,1.081,0.951V260.389"/>
		<path fill="#434249" d="M179.353,262.438c0,0.26-0.209,0.471-0.47,0.471h-1.507c-0.262,0-0.473-0.211-0.473-0.471    c0-0.262,0.211-0.473,0.473-0.473h1.507C179.144,261.965,179.353,262.176,179.353,262.438"/>
		<path fill="#434249" d="M182.858,262.438c0,0.26-0.211,0.471-0.472,0.471h-1.508c-0.26,0-0.471-0.211-0.471-0.471    c0-0.262,0.211-0.473,0.471-0.473h1.508C182.647,261.965,182.858,262.176,182.858,262.438"/>
		<path fill="#434249" d="M186.363,262.438c0,0.26-0.211,0.471-0.473,0.471h-1.51c-0.26,0-0.471-0.211-0.471-0.471    c0-0.262,0.211-0.473,0.471-0.473h1.51C186.152,261.965,186.363,262.176,186.363,262.438"/>
	</g>
	<circle cx="74.364" cy="183.003" r="1.591"/>
	<circle cx="137.74" cy="183.003" r="1.591"/>
	<circle cx="219.069" cy="183.003" r="1.591"/>
	<circle cx="271.196" cy="183.003" r="1.591"/>
	<circle cx="126.149" cy="91.568" r="1.591"/>
	<circle cx="133.877" cy="91.568" r="1.591"/>
	<circle cx="232.058" cy="91.757" r="1.591"/>
	<circle cx="239.471" cy="91.757" r="1.591"/>
	<circle cx="278.793" cy="91.497" r="1.591"/>
	<circle cx="86.819" cy="91.568" r="1.591"/>
	<circle cx="107.762" cy="154.636" r="1.591"/>
	<circle cx="258.026" cy="154.636" r="1.591"/>
	<rect x="245.293" y="71.893" fill="#FFFFFF" stroke="#000000" stroke-width="0.4" width="24.384" height="21.559"/>
	<rect x="95.507" y="71.893" fill="#FFFFFF" stroke="#000000" stroke-width="0.4" width="24.382" height="21.559"/>
	<rect x="84.988" y="132.006" fill="#FFFFFF" stroke="#000000" stroke-width="0.4" width="45.573" height="10"/>
	<rect x="240" y="132.006" fill="#FFFFFF" stroke="#000000" stroke-width="0.4" width="34.971" height="10.481"/>
	<rect x="48.815" y="42.403" fill="#FFFFFF" stroke="#000000" stroke-width="0.4" width="41.486" height="10"/>
	<rect x="157.816" y="42.403" fill="#FFFFFF" stroke="#000000" stroke-width="0.4" width="41.485" height="10"/>
	<rect x="301.816" y="42.403" fill="#FFFFFF" stroke="#000000" stroke-width="0.4" width="41.486" height="10"/>
</g>
<g id="Text">
	<text transform="matrix(0.9981 0 0 1 11.436 10.8926)" font-family="'HelveticaNeue-Roman'" font-size="9">Host 1</text>
	<text transform="matrix(0.9981 0 0 1 50.4312 50.6943)" font-family="'HelveticaNeue-Roman'" font-size="8">CNA Ports</text>
	<text transform="matrix(0.9981 0 0 1 159.4316 50.6943)" font-family="'HelveticaNeue-Roman'" font-size="8">CNA Ports</text>
	<text transform="matrix(0.9981 0 0 1 303.4316 50.6943)" font-family="'HelveticaNeue-Roman'" font-size="8">CNA Ports</text>
	<text transform="matrix(0.9981 0 0 1 2 190.7915)" font-family="'HelveticaNeue-Roman'" font-size="9">Switch 1/Fabric 1</text>
	<text transform="matrix(0.9981 0 0 1 149.3706 232.0542)" font-family="'HelveticaNeue-Roman'" font-size="9">Controller 1</text>
	<text transform="matrix(0.9981 0 0 1 149.3706 300.5186)" font-family="'HelveticaNeue-Roman'" font-size="9">Controller 2</text>
	<text transform="matrix(0.9981 0 0 1 77.3765 270.4805)" font-family="'HelveticaNeue-Roman'" font-size="9">0d</text>
	<text transform="matrix(0.9981 0 0 1 61.4829 270.4805)" font-family="'HelveticaNeue-Roman'" font-size="9">0b</text>
	<text transform="matrix(0.9981 0 0 1 273.4824 243.4854)" font-family="'HelveticaNeue-Roman'" font-size="9">0d</text>
	<text transform="matrix(0.9981 0 0 1 256.1489 243.4854)" font-family="'HelveticaNeue-Roman'" font-size="9">0b</text>
	<text transform="matrix(0.9981 0 0 1 274.4814 190.7915)" font-family="'HelveticaNeue-Roman'" font-size="9">Switch 2/Fabric 2</text>
	<text transform="matrix(0.9981 0 0 1 120.5728 10.8926)" font-family="'HelveticaNeue-Roman'" font-size="9">Host 2</text>
	<text transform="matrix(0.9981 0 0 1 264.563 10.8926)" font-family="'HelveticaNeue-Roman'" font-size="9">Host N</text>
	<text transform="matrix(0.9981 0 0 1 22.5684 131.9429)" font-family="'HelveticaNeue-Roman'" font-size="9">FCoE Switch</text>
	<text transform="matrix(0.9981 0 0 1 301.8301 110.8418)" font-family="'HelveticaNeue-Roman'" font-size="9">IP Network</text>
	<text transform="matrix(0.9981 0 0 1 17.7778 109.3418)" font-family="'HelveticaNeue-Roman'" font-size="9">IP Network</text>
	<text transform="matrix(0.9981 0 0 1 291.0264 131.3511)" font-family="'HelveticaNeue-Roman'" font-size="9">FCoE Switch</text>
	<text transform="matrix(0.9981 0 0 1 249.0566 80.1841)"><tspan x="0" y="0" font-family="'HelveticaNeue-Roman'" font-size="8">DCB</tspan><tspan x="-1.036" y="9.6" font-family="'HelveticaNeue-Roman'" font-size="8">Ports</tspan></text>
	<text transform="matrix(0.9981 0 0 1 99.271 80.1841)"><tspan x="0" y="0" font-family="'HelveticaNeue-Roman'" font-size="8">DCB</tspan><tspan x="-1.036" y="9.6" font-family="'HelveticaNeue-Roman'" font-size="8">Ports</tspan></text>
	<text transform="matrix(0.9981 0 0 1 92.0288 140.2979)" font-family="'HelveticaNeue-Roman'" font-size="8">FC Ports</text>
	<text transform="matrix(0.9981 0 0 1 241.7383 140.2979)" font-family="'HelveticaNeue-Roman'" font-size="8">FC Ports</text>
</g>
</svg>