<svg xmlns="http://www.w3.org/2000/svg" viewBox="0 0 341.1469 223.084"><defs><style>.ba972a2f-7407-424a-9e6f-3e785d08c77b{fill:#878e94;}.a5a47bd4-231a-41ae-9a85-05da70281b6e,.ac377a58-36f7-4d79-bd79-7e0a97609ab6,.e2f9e44c-6408-4d00-b780-5a2637c8e8c6,.e405a6c2-bc76-4e89-a03a-5959ef559798,.eea3f52b-4119-4830-9b18-bc086a4bd74f{fill:none;}.a5a47bd4-231a-41ae-9a85-05da70281b6e,.aba80a69-8c98-44d3-8976-2aa5e6080d81,.ae3bc7b8-aeb0-4f80-af59-bc559c06332c,.be8b97b6-482d-4f6b-9e90-88130a19b8b6,.eea3f52b-4119-4830-9b18-bc086a4bd74f{stroke:#fff;}.a8da637e-a646-4df6-a6d4-c417bff61857,.aba80a69-8c98-44d3-8976-2aa5e6080d81,.ac377a58-36f7-4d79-bd79-7e0a97609ab6,.ae3bc7b8-aeb0-4f80-af59-bc559c06332c,.e2f9e44c-6408-4d00-b780-5a2637c8e8c6,.e405a6c2-bc76-4e89-a03a-5959ef559798,.ee037902-d387-4c05-b321-fe3e801cbe84,.eea3f52b-4119-4830-9b18-bc086a4bd74f{stroke-width:0.5px;}.ba1456d0-d296-46e5-9685-2ba0f1a247dc{fill:#b3b7be;}.a8da637e-a646-4df6-a6d4-c417bff61857,.be8b97b6-482d-4f6b-9e90-88130a19b8b6,.fe1d4c39-0a66-4acf-aea6-38cc58fbb526{fill:#fff;}.e2f9e44c-6408-4d00-b780-5a2637c8e8c6{stroke:#b3b7be;}.ef9771e5-6e1d-4d74-9c48-98476198a38d{fill:#949494;}.e7e9e6e6-b160-4d2d-b7ad-fd4293df56b8{fill:#464646;}.b12d3de3-9a4b-43c4-8bc9-a6eb88d0b9d2{fill:#444b4c;}.ee037902-d387-4c05-b321-fe3e801cbe84{fill:#3f3f3f;stroke:#3f3f3f;}.a8da637e-a646-4df6-a6d4-c417bff61857,.aba80a69-8c98-44d3-8976-2aa5e6080d81,.ac377a58-36f7-4d79-bd79-7e0a97609ab6,.ae3bc7b8-aeb0-4f80-af59-bc559c06332c,.ee037902-d387-4c05-b321-fe3e801cbe84{stroke-linecap:round;stroke-linejoin:round;}.ae3bc7b8-aeb0-4f80-af59-bc559c06332c{fill:#b2b2b2;}.aba80a69-8c98-44d3-8976-2aa5e6080d81{fill:#8c8c8c;}.a8da637e-a646-4df6-a6d4-c417bff61857,.ac377a58-36f7-4d79-bd79-7e0a97609ab6,.e405a6c2-bc76-4e89-a03a-5959ef559798{stroke:#000;}.a5a47bd4-231a-41ae-9a85-05da70281b6e{stroke-width:3px;}</style></defs><g id="a127bae1-beaa-4335-a8b4-d659f4ac25af" data-name="Guide"><polyline class="ba972a2f-7407-424a-9e6f-3e785d08c77b" points="157.725 109.685 35.423 109.685 35.423 87.428 157.725 87.428 157.725 109.685"/><polygon class="eea3f52b-4119-4830-9b18-bc086a4bd74f" points="157.725 109.685 35.423 109.685 35.423 87.428 157.725 87.428 157.725 109.685 157.725 109.685"/><polyline class="ba1456d0-d296-46e5-9685-2ba0f1a247dc" points="157.725 87.428 35.423 87.428 49.78 77.361 143.367 77.361 157.725 87.428"/><path class="fe1d4c39-0a66-4acf-aea6-38cc58fbb526" d="M106.7978,92.9111c0,1.46-4.4824,2.6421-10.0117,2.6421-5.5312,0-10.0137-1.1816-10.0137-2.6421S91.2549,90.27,96.7861,90.27c5.5293,0,10.0117,1.1817,10.0117,2.6411"/><path class="fe1d4c39-0a66-4acf-aea6-38cc58fbb526" d="M86.7724,93.2866v10.92c0,1.4566,4.4825,2.6412,10.0137,2.6412,5.5293,0,10.0117-1.1846,10.0117-2.6412V92.9111"/><path class="e2f9e44c-6408-4d00-b780-5a2637c8e8c6" d="M86.7724,93.2866v10.92c0,1.4566,4.4825,2.6412,10.0137,2.6412,5.5293,0,10.0117-1.1846,10.0117-2.6412V92.9111m0,0c0,1.46-4.4824,2.6421-10.0117,2.6421-5.5312,0-10.0137-1.1816-10.0137-2.6421S91.2549,90.27,96.7861,90.27c5.5293,0,10.0117,1.1817,10.0117,2.6411Z"/><polyline class="fe1d4c39-0a66-4acf-aea6-38cc58fbb526" points="140.242 93.556 130.069 91.623 130.069 93.112 115.23 93.112 115.23 94.392 130.069 94.392 130.069 95.809 140.242 93.678 140.242 93.556"/><polyline class="fe1d4c39-0a66-4acf-aea6-38cc58fbb526" points="140.242 103.143 130.069 101.208 130.069 102.697 115.23 102.697 115.23 103.971 130.069 103.971 130.069 105.393 140.242 103.259 140.242 103.143"/><polyline class="fe1d4c39-0a66-4acf-aea6-38cc58fbb526" points="52.91 103.557 63.078 105.491 63.078 104.002 77.918 104.002 77.918 102.727 63.078 102.727 63.078 101.307 52.91 103.44 52.91 103.557"/><polyline class="fe1d4c39-0a66-4acf-aea6-38cc58fbb526" points="52.91 93.971 63.078 95.905 63.078 94.416 77.918 94.416 77.918 93.141 63.078 93.141 63.078 91.72 52.91 93.854 52.91 93.971"/><polyline class="ba972a2f-7407-424a-9e6f-3e785d08c77b" points="308.725 109.685 186.423 109.685 186.423 87.428 308.725 87.428 308.725 109.685"/><polygon class="eea3f52b-4119-4830-9b18-bc086a4bd74f" points="308.725 109.685 186.423 109.685 186.423 87.428 308.725 87.428 308.725 109.685 308.725 109.685"/><polyline class="ba1456d0-d296-46e5-9685-2ba0f1a247dc" points="308.725 87.428 186.423 87.428 200.78 77.361 294.368 77.361 308.725 87.428"/><path class="fe1d4c39-0a66-4acf-aea6-38cc58fbb526" d="M257.7973,92.9111c0,1.46-4.4824,2.6421-10.0117,2.6421s-10.0132-1.1816-10.0132-2.6421,4.4825-2.6411,10.0132-2.6411,10.0117,1.1817,10.0117,2.6411"/><path class="fe1d4c39-0a66-4acf-aea6-38cc58fbb526" d="M237.7724,93.2866v10.92c0,1.4566,4.4825,2.6412,10.0132,2.6412s10.0117-1.1846,10.0117-2.6412V92.9111"/><path class="e2f9e44c-6408-4d00-b780-5a2637c8e8c6" d="M237.7724,93.2866v10.92c0,1.4566,4.4825,2.6412,10.0132,2.6412s10.0117-1.1846,10.0117-2.6412V92.9111m0,0c0,1.46-4.4824,2.6421-10.0117,2.6421s-10.0132-1.1816-10.0132-2.6421,4.4825-2.6411,10.0132-2.6411,10.0117,1.1817,10.0117,2.6411Z"/><polyline class="fe1d4c39-0a66-4acf-aea6-38cc58fbb526" points="291.243 93.556 281.069 91.623 281.069 93.112 266.231 93.112 266.231 94.392 281.069 94.392 281.069 95.809 291.243 93.678 291.243 93.556"/><polyline class="fe1d4c39-0a66-4acf-aea6-38cc58fbb526" points="291.243 103.143 281.069 101.208 281.069 102.697 266.231 102.697 266.231 103.971 281.069 103.971 281.069 105.393 291.243 103.259 291.243 103.143"/><polyline class="fe1d4c39-0a66-4acf-aea6-38cc58fbb526" points="203.91 103.557 214.078 105.491 214.078 104.002 228.918 104.002 228.918 102.727 214.078 102.727 214.078 101.307 203.91 103.44 203.91 103.557"/><polyline class="fe1d4c39-0a66-4acf-aea6-38cc58fbb526" points="203.91 93.971 214.078 95.905 214.078 94.416 228.918 94.416 228.918 93.141 214.078 93.141 214.078 91.72 203.91 93.854 203.91 93.971"/><polyline class="ef9771e5-6e1d-4d74-9c48-98476198a38d" points="87.482 32.111 0 32.111 0 26.398 87.482 26.398 87.482 32.111"/><polyline class="e7e9e6e6-b160-4d2d-b7ad-fd4293df56b8" points="87.482 37.967 0 37.967 0 32.254 87.482 32.254 87.482 37.967"/><polyline class="ef9771e5-6e1d-4d74-9c48-98476198a38d" points="87.482 43.739 0 43.739 0 38.026 87.482 38.026 87.482 43.739"/><polyline class="e7e9e6e6-b160-4d2d-b7ad-fd4293df56b8" points="87.482 49.595 0 49.595 0 43.882 87.482 43.882 87.482 49.595"/><polyline class="ba1456d0-d296-46e5-9685-2ba0f1a247dc" points="87.482 15.364 0 15.364 4.493 10.892 82.989 10.892 87.482 15.364"/><path class="b12d3de3-9a4b-43c4-8bc9-a6eb88d0b9d2" d="M85.2182,24.6919a3.1695,3.1695,0,0,1,0-6.3389v6.3389"/><polyline class="e7e9e6e6-b160-4d2d-b7ad-fd4293df56b8" points="87.482 25.646 0 25.646 0 15.364 87.482 15.364 87.482 25.646"/><polyline class="ef9771e5-6e1d-4d74-9c48-98476198a38d" points="83.211 23.844 4.052 23.844 4.052 17.504 83.211 17.504 83.211 23.844"/><path class="fe1d4c39-0a66-4acf-aea6-38cc58fbb526" d="M84.5669,20.6963c0,.5864-.6451,1.0615-1.44,1.0615s-1.44-.4751-1.44-1.0615.645-1.0606,1.44-1.0606S84.5669,20.1108,84.5669,20.6963Z"/><rect class="fe1d4c39-0a66-4acf-aea6-38cc58fbb526" x="40.4302" y="27.4424" width="14.2324" height="0.5947"/><path class="fe1d4c39-0a66-4acf-aea6-38cc58fbb526" d="M55.0859,30.2437c0,.5625-.6636,1.0185-1.4824,1.0185s-1.4824-.456-1.4824-1.0185.664-1.0181,1.4824-1.0181S55.0859,29.6812,55.0859,30.2437Z"/><rect class="fe1d4c39-0a66-4acf-aea6-38cc58fbb526" x="40.4302" y="33.3843" width="14.2324" height="0.5942"/><path class="fe1d4c39-0a66-4acf-aea6-38cc58fbb526" d="M55.0859,36.1851c0,.5625-.6636,1.0185-1.4824,1.0185s-1.4824-.456-1.4824-1.0185.664-1.0181,1.4824-1.0181S55.0859,35.6226,55.0859,36.1851Z"/><rect class="fe1d4c39-0a66-4acf-aea6-38cc58fbb526" x="68.9795" y="33.3843" width="14.2324" height="0.5942"/><path class="fe1d4c39-0a66-4acf-aea6-38cc58fbb526" d="M83.6352,36.1851c0,.5625-.6635,1.0185-1.4824,1.0185s-1.4824-.456-1.4824-1.0185.664-1.0181,1.4824-1.0181S83.6352,35.6226,83.6352,36.1851Z"/><path class="fe1d4c39-0a66-4acf-aea6-38cc58fbb526" d="M83.6352,42.126c0,.5625-.6635,1.0185-1.4824,1.0185S80.67,42.6885,80.67,42.126s.664-1.0181,1.4824-1.0181S83.6352,41.5635,83.6352,42.126Z"/><rect class="fe1d4c39-0a66-4acf-aea6-38cc58fbb526" x="68.9795" y="45.2666" width="14.2324" height="0.5942"/><path class="fe1d4c39-0a66-4acf-aea6-38cc58fbb526" d="M83.6352,48.0674c0,.5625-.6635,1.0185-1.4824,1.0185S80.67,48.63,80.67,48.0674s.664-1.0186,1.4824-1.0186S83.6352,47.5049,83.6352,48.0674Z"/><rect class="fe1d4c39-0a66-4acf-aea6-38cc58fbb526" x="40.4302" y="39.3257" width="14.2324" height="0.5942"/><path class="fe1d4c39-0a66-4acf-aea6-38cc58fbb526" d="M55.0859,42.1265c0,.5625-.6636,1.0185-1.4824,1.0185s-1.4824-.456-1.4824-1.0185.664-1.0181,1.4824-1.0181S55.0859,41.564,55.0859,42.1265Z"/><rect class="fe1d4c39-0a66-4acf-aea6-38cc58fbb526" x="40.4302" y="45.2676" width="14.2324" height="0.5937"/><path class="fe1d4c39-0a66-4acf-aea6-38cc58fbb526" d="M55.0859,48.0679c0,.563-.6636,1.0185-1.4824,1.0185s-1.4824-.4555-1.4824-1.0185.664-1.0181,1.4824-1.0181S55.0859,47.5054,55.0859,48.0679Z"/><path class="fe1d4c39-0a66-4acf-aea6-38cc58fbb526" d="M83.4663,30.2437c0,.5625-.6636,1.0185-1.4824,1.0185s-1.4825-.456-1.4825-1.0185.6641-1.0181,1.4825-1.0181S83.4663,29.6812,83.4663,30.2437Z"/><line class="be8b97b6-482d-4f6b-9e90-88130a19b8b6" x1="58.4751" y1="26.0845" x2="58.4751" y2="50.0195"/><polyline class="ef9771e5-6e1d-4d74-9c48-98476198a38d" points="196.808 32.111 109.325 32.111 109.325 26.398 196.808 26.398 196.808 32.111"/><polyline class="e7e9e6e6-b160-4d2d-b7ad-fd4293df56b8" points="196.808 37.967 109.325 37.967 109.325 32.254 196.808 32.254 196.808 37.967"/><polyline class="ef9771e5-6e1d-4d74-9c48-98476198a38d" points="196.808 43.739 109.325 43.739 109.325 38.026 196.808 38.026 196.808 43.739"/><polyline class="e7e9e6e6-b160-4d2d-b7ad-fd4293df56b8" points="196.808 49.595 109.325 49.595 109.325 43.882 196.808 43.882 196.808 49.595"/><polyline class="ba1456d0-d296-46e5-9685-2ba0f1a247dc" points="196.808 15.364 109.325 15.364 113.818 10.892 192.314 10.892 196.808 15.364"/><path class="b12d3de3-9a4b-43c4-8bc9-a6eb88d0b9d2" d="M194.5429,24.6919a3.1695,3.1695,0,0,1,0-6.3389v6.3389"/><polyline class="e7e9e6e6-b160-4d2d-b7ad-fd4293df56b8" points="196.808 25.646 109.325 25.646 109.325 15.364 196.808 15.364 196.808 25.646"/><polyline class="ef9771e5-6e1d-4d74-9c48-98476198a38d" points="192.536 23.844 113.376 23.844 113.376 17.504 192.536 17.504 192.536 23.844"/><path class="fe1d4c39-0a66-4acf-aea6-38cc58fbb526" d="M193.8911,20.6963c0,.5864-.6441,1.0615-1.4395,1.0615s-1.44-.4751-1.44-1.0615.644-1.0606,1.44-1.0606S193.8911,20.1108,193.8911,20.6963Z"/><rect class="fe1d4c39-0a66-4acf-aea6-38cc58fbb526" x="149.7549" y="27.4424" width="14.2324" height="0.5947"/><path class="fe1d4c39-0a66-4acf-aea6-38cc58fbb526" d="M164.4106,30.2437c0,.5625-.6636,1.0185-1.4824,1.0185s-1.4824-.456-1.4824-1.0185.6635-1.0181,1.4824-1.0181S164.4106,29.6812,164.4106,30.2437Z"/><rect class="fe1d4c39-0a66-4acf-aea6-38cc58fbb526" x="149.7549" y="33.3838" width="14.2324" height="0.5947"/><path class="fe1d4c39-0a66-4acf-aea6-38cc58fbb526" d="M164.4106,36.1851c0,.5625-.6636,1.0185-1.4824,1.0185s-1.4824-.456-1.4824-1.0185.6635-1.0181,1.4824-1.0181S164.4106,35.6226,164.4106,36.1851Z"/><rect class="fe1d4c39-0a66-4acf-aea6-38cc58fbb526" x="178.3042" y="33.3838" width="14.2319" height="0.5947"/><path class="fe1d4c39-0a66-4acf-aea6-38cc58fbb526" d="M192.96,36.1851c0,.5625-.664,1.0185-1.4834,1.0185s-1.4814-.456-1.4814-1.0185.6631-1.0181,1.4814-1.0181S192.96,35.6226,192.96,36.1851Z"/><path class="fe1d4c39-0a66-4acf-aea6-38cc58fbb526" d="M192.96,42.126c0,.5625-.664,1.0185-1.4834,1.0185s-1.4814-.456-1.4814-1.0185.6631-1.0181,1.4814-1.0181S192.96,41.5635,192.96,42.126Z"/><rect class="fe1d4c39-0a66-4acf-aea6-38cc58fbb526" x="178.3042" y="45.2666" width="14.2319" height="0.5942"/><path class="fe1d4c39-0a66-4acf-aea6-38cc58fbb526" d="M192.96,48.0674c0,.5625-.664,1.0185-1.4834,1.0185s-1.4814-.456-1.4814-1.0185.6631-1.0186,1.4814-1.0186S192.96,47.5049,192.96,48.0674Z"/><rect class="fe1d4c39-0a66-4acf-aea6-38cc58fbb526" x="149.7549" y="39.3257" width="14.2324" height="0.5942"/><path class="fe1d4c39-0a66-4acf-aea6-38cc58fbb526" d="M164.4106,42.1265c0,.5625-.6636,1.0185-1.4824,1.0185s-1.4824-.456-1.4824-1.0185.6635-1.0181,1.4824-1.0181S164.4106,41.564,164.4106,42.1265Z"/><rect class="fe1d4c39-0a66-4acf-aea6-38cc58fbb526" x="149.7549" y="45.2676" width="14.2324" height="0.5937"/><path class="fe1d4c39-0a66-4acf-aea6-38cc58fbb526" d="M164.4106,48.0679c0,.563-.6636,1.0185-1.4824,1.0185s-1.4824-.4555-1.4824-1.0185.6635-1.0181,1.4824-1.0181S164.4106,47.5054,164.4106,48.0679Z"/><path class="fe1d4c39-0a66-4acf-aea6-38cc58fbb526" d="M192.791,30.2437c0,.5625-.6636,1.0185-1.4829,1.0185s-1.4815-.456-1.4815-1.0185.6631-1.0181,1.4815-1.0181S192.791,29.6812,192.791,30.2437Z"/><line class="be8b97b6-482d-4f6b-9e90-88130a19b8b6" x1="167.7998" y1="26.0845" x2="167.7998" y2="50.0195"/><polyline class="ef9771e5-6e1d-4d74-9c48-98476198a38d" points="341.147 32.111 253.665 32.111 253.665 26.398 341.147 26.398 341.147 32.111"/><polyline class="e7e9e6e6-b160-4d2d-b7ad-fd4293df56b8" points="341.147 37.967 253.665 37.967 253.665 32.254 341.147 32.254 341.147 37.967"/><polyline class="ef9771e5-6e1d-4d74-9c48-98476198a38d" points="341.147 43.739 253.665 43.739 253.665 38.026 341.147 38.026 341.147 43.739"/><polyline class="e7e9e6e6-b160-4d2d-b7ad-fd4293df56b8" points="341.147 49.595 253.665 49.595 253.665 43.882 341.147 43.882 341.147 49.595"/><polyline class="ba1456d0-d296-46e5-9685-2ba0f1a247dc" points="341.147 15.364 253.665 15.364 258.159 10.892 336.655 10.892 341.147 15.364"/><path class="b12d3de3-9a4b-43c4-8bc9-a6eb88d0b9d2" d="M338.8833,24.6919a3.1695,3.1695,0,0,1,0-6.3389v6.3389"/><polyline class="e7e9e6e6-b160-4d2d-b7ad-fd4293df56b8" points="341.147 25.646 253.665 25.646 253.665 15.364 341.147 15.364 341.147 25.646"/><polyline class="ef9771e5-6e1d-4d74-9c48-98476198a38d" points="336.877 23.844 257.717 23.844 257.717 17.504 336.877 17.504 336.877 23.844"/><path class="fe1d4c39-0a66-4acf-aea6-38cc58fbb526" d="M338.2309,20.6963c0,.5864-.6425,1.0615-1.4394,1.0615-.7949,0-1.44-.4751-1.44-1.0615s.6446-1.0606,1.44-1.0606C337.5884,19.6357,338.2309,20.1108,338.2309,20.6963Z"/><rect class="fe1d4c39-0a66-4acf-aea6-38cc58fbb526" x="294.0942" y="27.4424" width="14.2324" height="0.5947"/><path class="fe1d4c39-0a66-4acf-aea6-38cc58fbb526" d="M308.7505,30.2437c0,.5625-.6641,1.0185-1.4825,1.0185s-1.4824-.456-1.4824-1.0185.6641-1.0181,1.4824-1.0181S308.7505,29.6812,308.7505,30.2437Z"/><rect class="fe1d4c39-0a66-4acf-aea6-38cc58fbb526" x="294.0942" y="33.3838" width="14.2324" height="0.5947"/><path class="fe1d4c39-0a66-4acf-aea6-38cc58fbb526" d="M308.7505,36.1851c0,.5625-.6641,1.0185-1.4825,1.0185s-1.4824-.456-1.4824-1.0185.6641-1.0181,1.4824-1.0181S308.7505,35.6226,308.7505,36.1851Z"/><rect class="fe1d4c39-0a66-4acf-aea6-38cc58fbb526" x="322.645" y="33.3838" width="14.2324" height="0.5947"/><path class="fe1d4c39-0a66-4acf-aea6-38cc58fbb526" d="M337.3012,36.1851c0,.5625-.664,1.0185-1.4824,1.0185-.82,0-1.4824-.456-1.4824-1.0185s.6621-1.0181,1.4824-1.0181C336.6372,35.167,337.3012,35.6226,337.3012,36.1851Z"/><path class="fe1d4c39-0a66-4acf-aea6-38cc58fbb526" d="M337.3012,42.126c0,.5625-.664,1.0185-1.4824,1.0185-.82,0-1.4824-.456-1.4824-1.0185s.6621-1.0181,1.4824-1.0181C336.6372,41.1079,337.3012,41.5635,337.3012,42.126Z"/><rect class="fe1d4c39-0a66-4acf-aea6-38cc58fbb526" x="322.645" y="45.2666" width="14.2324" height="0.5942"/><path class="fe1d4c39-0a66-4acf-aea6-38cc58fbb526" d="M337.3012,48.0674c0,.5625-.664,1.0185-1.4824,1.0185-.82,0-1.4824-.456-1.4824-1.0185s.6621-1.0186,1.4824-1.0186C336.6372,47.0488,337.3012,47.5049,337.3012,48.0674Z"/><rect class="fe1d4c39-0a66-4acf-aea6-38cc58fbb526" x="294.0942" y="39.3257" width="14.2324" height="0.5942"/><path class="fe1d4c39-0a66-4acf-aea6-38cc58fbb526" d="M308.7505,42.1265c0,.5625-.6641,1.0185-1.4825,1.0185s-1.4824-.456-1.4824-1.0185.6641-1.0181,1.4824-1.0181S308.7505,41.564,308.7505,42.1265Z"/><rect class="fe1d4c39-0a66-4acf-aea6-38cc58fbb526" x="294.0942" y="45.2676" width="14.2324" height="0.5937"/><path class="fe1d4c39-0a66-4acf-aea6-38cc58fbb526" d="M308.7505,48.0679c0,.563-.6621,1.0185-1.4825,1.0185-.8183,0-1.4824-.4555-1.4824-1.0185S306.45,47.05,307.268,47.05,308.7505,47.5054,308.7505,48.0679Z"/><path class="fe1d4c39-0a66-4acf-aea6-38cc58fbb526" d="M337.1333,30.2437c0,.5625-.6641,1.0185-1.4844,1.0185-.8184,0-1.4805-.456-1.4805-1.0185s.6621-1.0181,1.4805-1.0181C336.4692,29.2256,337.1333,29.6812,337.1333,30.2437Z"/><line class="be8b97b6-482d-4f6b-9e90-88130a19b8b6" x1="312.1411" y1="26.0845" x2="312.1411" y2="50.0195"/><path d="M5.4189,1.2725h.8819V3.94H9.6123V1.2725h.8818V7.728H9.6123V4.709H6.3008V7.728H5.4189Z"/><path d="M15.1831,3.4912a2.3779,2.3779,0,0,1,.6226,1.7827,3.0733,3.0733,0,0,1-.5489,1.8789,1.9781,1.9781,0,0,1-1.7026.7422,1.9151,1.9151,0,0,1-1.5288-.6562,2.6047,2.6047,0,0,1-.5664-1.7632,2.8184,2.8184,0,0,1,.5967-1.8877,1.9959,1.9959,0,0,1,1.603-.7026A2.1041,2.1041,0,0,1,15.1831,3.4912Zm-.49,3.1279a2.99,2.99,0,0,0,.2881-1.3232,2.384,2.384,0,0,0-.2081-1.0713,1.1693,1.1693,0,0,0-1.1362-.6494,1.1177,1.1177,0,0,0-1.041.5532,2.588,2.588,0,0,0-.3252,1.334,2.25,2.25,0,0,0,.3252,1.251,1.1414,1.1414,0,0,0,1.0322.5A1.0748,1.0748,0,0,0,14.6929,6.6191Z"/><path d="M17.2446,6.2515a1.1334,1.1334,0,0,0,.2017.6064,1.2771,1.2771,0,0,0,1.0561.3823,1.5872,1.5872,0,0,0,.7881-.1909.6332.6332,0,0,0,.34-.5913.5047.5047,0,0,0-.272-.4614,3.2643,3.2643,0,0,0-.6865-.2241l-.6377-.1582a3.1459,3.1459,0,0,1-.9-.334.9957.9957,0,0,1-.5171-.8877,1.3508,1.3508,0,0,1,.4868-1.0811,1.9565,1.9565,0,0,1,1.3091-.4131,1.8264,1.8264,0,0,1,1.5513.6241,1.3432,1.3432,0,0,1,.289.8525h-.7456a.8947.8947,0,0,0-.1929-.4854,1.2528,1.2528,0,0,0-.9653-.31,1.1762,1.1762,0,0,0-.6938.1709.5306.5306,0,0,0-.2359.4507.5539.5539,0,0,0,.31.4907,1.8906,1.8906,0,0,0,.5273.1929l.5318.1274a4.16,4.16,0,0,1,1.1621.4,1.06,1.06,0,0,1,.46.9536A1.4461,1.4461,0,0,1,19.93,7.4512a2.0655,2.0655,0,0,1-1.4678.457,1.9814,1.9814,0,0,1-1.5029-.477,1.7891,1.7891,0,0,1-.4732-1.18Z"/><path d="M21.4248,1.7075h.7983v1.314h.75v.646h-.75V6.7393a.3328.3328,0,0,0,.1665.33.708.708,0,0,0,.3072.0484q.0572,0,.123-.0029c.044-.002.0948-.0069.1533-.0147V7.728a1.76,1.76,0,0,1-.2827.0572,2.6918,2.6918,0,0,1-.3178.0175.8558.8558,0,0,1-.75-.2837,1.2605,1.2605,0,0,1-.1973-.7358V3.6675h-.6357v-.646h.6357Z"/><path d="M26.5391,3.272V2.6655a3.1961,3.1961,0,0,0,1.1928-.2793,1.3728,1.3728,0,0,0,.5044-.9248h.6231V7.728h-.8423V3.272Z"/><path d="M114.5557,1.2725h.8818V3.94h3.3115V1.2725h.8819V7.728h-.8819V4.709h-3.3115V7.728h-.8818Z"/><path d="M124.32,3.4912a2.3775,2.3775,0,0,1,.6226,1.7827,3.0732,3.0732,0,0,1-.5488,1.8789,1.9783,1.9783,0,0,1-1.7027.7422,1.9152,1.9152,0,0,1-1.5288-.6562,2.6047,2.6047,0,0,1-.5664-1.7632,2.8184,2.8184,0,0,1,.5967-1.8877,1.9959,1.9959,0,0,1,1.603-.7026A2.1041,2.1041,0,0,1,124.32,3.4912Zm-.49,3.1279a2.99,2.99,0,0,0,.2881-1.3232,2.3854,2.3854,0,0,0-.208-1.0713,1.17,1.17,0,0,0-1.1363-.6494,1.1177,1.1177,0,0,0-1.041.5532,2.588,2.588,0,0,0-.3252,1.334,2.25,2.25,0,0,0,.3252,1.251,1.1415,1.1415,0,0,0,1.0322.5A1.0748,1.0748,0,0,0,123.83,6.6191Z"/><path d="M126.3813,6.2515a1.1342,1.1342,0,0,0,.2017.6064,1.2772,1.2772,0,0,0,1.0562.3823,1.5871,1.5871,0,0,0,.788-.1909.6332.6332,0,0,0,.34-.5913.5045.5045,0,0,0-.272-.4614,3.2643,3.2643,0,0,0-.6865-.2241l-.6377-.1582a3.1471,3.1471,0,0,1-.9-.334.9957.9957,0,0,1-.5171-.8877,1.3508,1.3508,0,0,1,.4868-1.0811,1.9567,1.9567,0,0,1,1.3091-.4131,1.8264,1.8264,0,0,1,1.5513.6241,1.3432,1.3432,0,0,1,.289.8525h-.7456a.8953.8953,0,0,0-.1928-.4854,1.2532,1.2532,0,0,0-.9654-.31,1.1764,1.1764,0,0,0-.6938.1709.5309.5309,0,0,0-.2359.4507.5541.5541,0,0,0,.31.4907,1.8906,1.8906,0,0,0,.5273.1929l.5318.1274a4.16,4.16,0,0,1,1.1621.4,1.06,1.06,0,0,1,.46.9536,1.4461,1.4461,0,0,1-.4819,1.0855,2.0654,2.0654,0,0,1-1.4678.457,1.9814,1.9814,0,0,1-1.5029-.477,1.789,1.789,0,0,1-.4731-1.18Z"/><path d="M130.5615,1.7075h.7984v1.314h.75v.646h-.75V6.7393a.3327.3327,0,0,0,.1665.33.7071.7071,0,0,0,.3071.0484q.0572,0,.123-.0029c.044-.002.0948-.0069.1534-.0147V7.728a1.7638,1.7638,0,0,1-.2828.0572,2.6918,2.6918,0,0,1-.3178.0175.8558.8558,0,0,1-.75-.2837,1.2605,1.2605,0,0,1-.1973-.7358V3.6675h-.6357v-.646h.6357Z"/><path d="M135.4321,6.313A2.7177,2.7177,0,0,1,136.57,5.2188l.8423-.4878a3.9353,3.9353,0,0,0,.7939-.563,1.16,1.16,0,0,0,.36-.8365,1.1706,1.1706,0,0,0-.3291-.874,1.1963,1.1963,0,0,0-.8774-.3237,1.1443,1.1443,0,0,0-1.1226.6172,2.2151,2.2151,0,0,0-.1846.9165H135.25a2.8321,2.8321,0,0,1,.3027-1.34,1.8986,1.8986,0,0,1,1.8116-.914,1.9622,1.9622,0,0,1,1.5771.5845,1.959,1.959,0,0,1,.4976,1.3007,1.7693,1.7693,0,0,1-.5308,1.292,5.2019,5.2019,0,0,1-1.1006.7559l-.6011.334a3.9061,3.9061,0,0,0-.6757.4526,1.6457,1.6457,0,0,0-.5523.8482h3.43v.747h-4.3115A3.68,3.68,0,0,1,135.4321,6.313Z"/><path d="M258.5464,1.2725h.8818V3.94H262.74V1.2725h.8819V7.728H262.74V4.709h-3.3115V7.728h-.8818Z"/><path d="M268.31,3.4912a2.3741,2.3741,0,0,1,.623,1.7827,3.0732,3.0732,0,0,1-.5488,1.8789,1.978,1.978,0,0,1-1.7031.7422,1.9144,1.9144,0,0,1-1.5284-.6562,2.6047,2.6047,0,0,1-.5664-1.7632,2.821,2.821,0,0,1,.5967-1.8877,1.9944,1.9944,0,0,1,1.6025-.7026A2.1029,2.1029,0,0,1,268.31,3.4912Zm-.49,3.1279a2.99,2.99,0,0,0,.2891-1.3232,2.3841,2.3841,0,0,0-.208-1.0713,1.17,1.17,0,0,0-1.1367-.6494,1.1173,1.1173,0,0,0-1.0411.5532,2.588,2.588,0,0,0-.3252,1.334,2.25,2.25,0,0,0,.3252,1.251,1.141,1.141,0,0,0,1.0323.5A1.074,1.074,0,0,0,267.82,6.6191Z"/><path d="M270.3716,6.2515a1.1419,1.1419,0,0,0,.2021.6064A1.2785,1.2785,0,0,0,271.63,7.24a1.5839,1.5839,0,0,0,.7871-.1909.6328.6328,0,0,0,.3408-.5913.5041.5041,0,0,0-.2725-.4614,3.243,3.243,0,0,0-.6865-.2241l-.6367-.1582a3.13,3.13,0,0,1-.9-.334.9962.9962,0,0,1-.5176-.8877,1.3482,1.3482,0,0,1,.4873-1.0811,1.9555,1.9555,0,0,1,1.3086-.4131,1.8274,1.8274,0,0,1,1.5518.6241,1.3461,1.3461,0,0,1,.289.8525h-.746a.8923.8923,0,0,0-.1934-.4854,1.2517,1.2517,0,0,0-.9648-.31,1.1727,1.1727,0,0,0-.6934.1709.5313.5313,0,0,0-.2363.4507.5544.5544,0,0,0,.31.4907,1.8927,1.8927,0,0,0,.5274.1929l.5322.1274a4.1659,4.1659,0,0,1,1.1621.4,1.06,1.06,0,0,1,.46.9536,1.4457,1.4457,0,0,1-.4815,1.0855,2.0653,2.0653,0,0,1-1.4677.457,1.98,1.98,0,0,1-1.503-.477,1.7944,1.7944,0,0,1-.4736-1.18Z"/><path d="M274.5522,1.7075h.7979v1.314h.75v.646h-.75V6.7393a.3323.3323,0,0,0,.167.33.7034.7034,0,0,0,.3066.0484q.0572,0,.1231-.0029c.0439-.002.0947-.0069.1533-.0147V7.728a1.7576,1.7576,0,0,1-.2832.0572,2.6727,2.6727,0,0,1-.3174.0175.8532.8532,0,0,1-.75-.2837,1.2576,1.2576,0,0,1-.1973-.7358V3.6675h-.6367v-.646h.6367Z"/><path d="M279.4917,1.2725H280.52l3.2129,5.2158V1.2725h.833V7.728h-.9805l-3.2607-5.2094V7.728h-.833Z"/><rect x="216.709" y="47.7192" width="2.5488" height="2.5542"/><rect x="228.1816" y="47.7192" width="2.5498" height="2.5542"/><rect x="222.4448" y="47.7192" width="2.5493" height="2.5542"/></g><g id="e66f2bbd-4767-4bcd-b1bd-0767b7bfdbac" data-name="box_outline"><rect class="ee037902-d387-4c05-b321-fe3e801cbe84" x="118.8891" y="161.167" width="106.7715" height="61.667"/><rect class="ae3bc7b8-aeb0-4f80-af59-bc559c06332c" x="119.7759" y="162.7939" width="9.6123" height="29.1329"/><rect class="ae3bc7b8-aeb0-4f80-af59-bc559c06332c" x="119.7759" y="193.4063" width="9.6123" height="28.541"/><rect class="aba80a69-8c98-44d3-8976-2aa5e6080d81" x="130.8677" y="162.7939" width="93.4619" height="29.1329"/><rect class="ae3bc7b8-aeb0-4f80-af59-bc559c06332c" x="130.8677" y="193.1104" width="93.4619" height="29.1328"/><path class="ac377a58-36f7-4d79-bd79-7e0a97609ab6" d="M123.5649,183.8193a.6209.6209,0,0,1,.6367-.7441h1.4473a1.0751,1.0751,0,0,1,.8516.2129,1.3409,1.3409,0,0,1,.51.6377,1.9391,1.9391,0,0,1,.2764.7021c0,.2549.1064,2.5957.1064,2.5957a3.8429,3.8429,0,0,1-.2763.7022,3.768,3.768,0,0,1-.4033.5312,2.196,2.196,0,0,1-.7032.3194h-1.6386s-.6163-.2344-.6592-.7022-.1475-4.1914-.1475-4.1914"/><rect class="ac377a58-36f7-4d79-bd79-7e0a97609ab6" x="124.9887" y="184.2021" width="0.7461" height="0.2979"/><rect class="ac377a58-36f7-4d79-bd79-7e0a97609ab6" x="125.6919" y="185.7344" width="0.7441" height="0.4248"/><rect class="ac377a58-36f7-4d79-bd79-7e0a97609ab6" x="125.0532" y="187.4355" width="0.6387" height="0.2764"/><rect class="ac377a58-36f7-4d79-bd79-7e0a97609ab6" x="123.0298" y="182.3145" width="5.4707" height="7.5419"/><path class="ac377a58-36f7-4d79-bd79-7e0a97609ab6" d="M123.5649,213.6924a.6216.6216,0,0,1,.6367-.7451h1.4473a1.0747,1.0747,0,0,1,.8516.2129,1.3409,1.3409,0,0,1,.51.6377,1.9391,1.9391,0,0,1,.2764.7021c0,.2559.1064,2.5957.1064,2.5957a3.8429,3.8429,0,0,1-.2763.7022,3.7747,3.7747,0,0,1-.4033.5312,2.1964,2.1964,0,0,1-.7032.3193h-1.6386s-.6163-.2343-.6592-.7021-.1475-4.19-.1475-4.19"/><rect class="ac377a58-36f7-4d79-bd79-7e0a97609ab6" x="124.9887" y="214.0742" width="0.7461" height="0.2979"/><rect class="ac377a58-36f7-4d79-bd79-7e0a97609ab6" x="125.6919" y="215.6064" width="0.7441" height="0.4258"/><rect class="ac377a58-36f7-4d79-bd79-7e0a97609ab6" x="125.0532" y="217.3076" width="0.6387" height="0.2764"/><rect class="ac377a58-36f7-4d79-bd79-7e0a97609ab6" x="123.0298" y="212.1865" width="5.4707" height="7.543"/><rect class="ae3bc7b8-aeb0-4f80-af59-bc559c06332c" x="132.0503" y="163.5332" width="90.7998" height="27.21"/><rect class="ae3bc7b8-aeb0-4f80-af59-bc559c06332c" x="132.0503" y="193.8662" width="90.7998" height="27.21"/><rect class="a8da637e-a646-4df6-a6d4-c417bff61857" x="135.3032" y="184.5332" width="53.1782" height="5.4707"/><line class="ac377a58-36f7-4d79-bd79-7e0a97609ab6" x1="188.5415" y1="163.3848" x2="188.5415" y2="189.8564"/><rect class="aba80a69-8c98-44d3-8976-2aa5e6080d81" x="193.5698" y="165.1602" width="24.1045" height="3.4003"/><rect class="aba80a69-8c98-44d3-8976-2aa5e6080d81" x="193.5698" y="171.04" width="23.957" height="3.5489"/><rect class="aba80a69-8c98-44d3-8976-2aa5e6080d81" x="193.5698" y="177.7725" width="24.1045" height="3.4013"/><rect class="aba80a69-8c98-44d3-8976-2aa5e6080d81" x="193.5698" y="184.0967" width="23.957" height="3.5488"/><rect class="aba80a69-8c98-44d3-8976-2aa5e6080d81" x="193.5698" y="195.6597" width="24.1045" height="3.4004"/><rect class="aba80a69-8c98-44d3-8976-2aa5e6080d81" x="193.5698" y="201.5396" width="23.957" height="3.5488"/><rect class="aba80a69-8c98-44d3-8976-2aa5e6080d81" x="193.5698" y="208.2715" width="24.1045" height="3.4023"/><rect class="aba80a69-8c98-44d3-8976-2aa5e6080d81" x="193.5698" y="214.5957" width="23.957" height="3.5488"/><rect class="aba80a69-8c98-44d3-8976-2aa5e6080d81" x="185.2407" y="195.4473" width="3.4004" height="19.1045"/><rect class="aba80a69-8c98-44d3-8976-2aa5e6080d81" x="179.9077" y="195.4473" width="3.4004" height="19.1045"/><rect class="aba80a69-8c98-44d3-8976-2aa5e6080d81" x="139.5698" y="195.6602" width="24.1045" height="3.4003"/><rect class="aba80a69-8c98-44d3-8976-2aa5e6080d81" x="139.5698" y="200.54" width="23.957" height="3.5489"/><rect class="aba80a69-8c98-44d3-8976-2aa5e6080d81" x="139.5698" y="205.2725" width="24.1045" height="3.4013"/><rect class="aba80a69-8c98-44d3-8976-2aa5e6080d81" x="139.5698" y="210.5967" width="23.957" height="3.5488"/><path class="a8da637e-a646-4df6-a6d4-c417bff61857" d="M165.1235,163.3955v4.6377a1.4022,1.4022,0,0,0,1.3613.6807h10.3389a.9933.9933,0,0,0,1.1924-.8926c.0849-1.0645,0-4.4258,0-4.4258"/><path class="a8da637e-a646-4df6-a6d4-c417bff61857" d="M169.6762,168.7568v6.8819a2.9155,2.9155,0,0,0,5.8291,0v-6.8819"/><path class="ac377a58-36f7-4d79-bd79-7e0a97609ab6" d="M173.9516,175.415a1.5314,1.5314,0,1,1-1.5312-1.5527A1.5424,1.5424,0,0,1,173.9516,175.415Z"/><line class="ac377a58-36f7-4d79-bd79-7e0a97609ab6" x1="167.1518" y1="167.4229" x2="176.229" y2="167.4229"/><path class="a8da637e-a646-4df6-a6d4-c417bff61857" d="M165.1235,194.3955v4.6377a1.4022,1.4022,0,0,0,1.3613.6807h10.3389a.9933.9933,0,0,0,1.1924-.8926c.0849-1.0645,0-4.4258,0-4.4258"/><path class="a8da637e-a646-4df6-a6d4-c417bff61857" d="M169.6762,199.7568v6.8819a2.9155,2.9155,0,0,0,5.8291,0v-6.8819"/><path class="ac377a58-36f7-4d79-bd79-7e0a97609ab6" d="M173.9516,206.415a1.5314,1.5314,0,1,1-1.5312-1.5527A1.5424,1.5424,0,0,1,173.9516,206.415Z"/><line class="ac377a58-36f7-4d79-bd79-7e0a97609ab6" x1="167.1518" y1="198.4229" x2="176.229" y2="198.4229"/><path d="M158.5181,151.6523a2.2918,2.2918,0,0,1,.7426,1.4678h-.8525a1.6234,1.6234,0,0,0-1.7607-1.3535,1.8966,1.8966,0,0,0-1.5127.6709,3.0962,3.0962,0,0,0-.5762,2.0562,3.0259,3.0259,0,0,0,.52,1.84,1.8049,1.8049,0,0,0,1.5523.706,1.63,1.63,0,0,0,1.4458-.7426,2.8536,2.8536,0,0,0,.393-1.0284h.8526a2.9284,2.9284,0,0,1-.7471,1.7095,2.6433,2.6433,0,0,1-2.05.8306,2.6859,2.6859,0,0,1-1.8682-.6817A4.2314,4.2314,0,0,1,154.4092,152a2.7154,2.7154,0,0,1,2.228-.9937A2.5963,2.5963,0,0,1,158.5181,151.6523Z"/><path d="M163.7563,153.4009a2.374,2.374,0,0,1,.6241,1.7827,3.07,3.07,0,0,1-.55,1.8789,1.9845,1.9845,0,0,1-1.7061.7422,1.92,1.92,0,0,1-1.5317-.6563,2.6025,2.6025,0,0,1-.5674-1.7631,2.8165,2.8165,0,0,1,.5976-1.8877,2.0015,2.0015,0,0,1,1.606-.7027A2.11,2.11,0,0,1,163.7563,153.4009Zm-.4912,3.1279a2.9837,2.9837,0,0,0,.2891-1.3232,2.3769,2.3769,0,0,0-.2085-1.0713,1.172,1.172,0,0,0-1.1387-.6494,1.12,1.12,0,0,0-1.0429.5532,2.583,2.583,0,0,0-.3257,1.334,2.2458,2.2458,0,0,0,.3257,1.2509,1.1445,1.1445,0,0,0,1.0346.5005A1.0763,1.0763,0,0,0,163.2651,156.5288Z"/><path d="M165.3516,152.9312h.7514v.6679a2.1078,2.1078,0,0,1,.7075-.5932,1.886,1.886,0,0,1,.8306-.18,1.3694,1.3694,0,0,1,1.3535.6987,2.4812,2.4812,0,0,1,.1934,1.0943v3.019h-.8042v-2.9663a1.6052,1.6052,0,0,0-.1275-.6943.7725.7725,0,0,0-.7646-.44,1.5563,1.5563,0,0,0-.4614.0571,1.1887,1.1887,0,0,0-.5713.3867,1.1591,1.1591,0,0,0-.2569.4815,3.2064,3.2064,0,0,0-.06.71v2.4653h-.791Z"/><path d="M170.5151,151.6172h.8v1.314h.7515v.6459h-.7515v3.0718a.3324.3324,0,0,0,.167.33.7105.7105,0,0,0,.3077.0484c.038,0,.0791-.001.123-.003s.0952-.0068.1538-.0146v.6284a1.7616,1.7616,0,0,1-.2837.0571,2.6935,2.6935,0,0,1-.3183.0176.8573.8573,0,0,1-.7515-.2837,1.2581,1.2581,0,0,1-.1978-.7358v-3.1158h-.6372v-.6459h.6372Z"/><path d="M172.8794,152.9312h.7515v.8129a1.8023,1.8023,0,0,1,.4526-.5781,1.1756,1.1756,0,0,1,.8306-.34c.0146,0,.04.0014.0747.0044s.0952.0088.18.0176v.8349a1.1819,1.1819,0,0,0-.13-.0176c-.0391-.0029-.0826-.0044-.1294-.0044a1.13,1.13,0,0,0-.9185.3843,1.3438,1.3438,0,0,0-.3208.8858v2.707h-.791Z"/><path d="M179.2646,153.4009a2.374,2.374,0,0,1,.6241,1.7827,3.07,3.07,0,0,1-.55,1.8789,1.9845,1.9845,0,0,1-1.7061.7422,1.92,1.92,0,0,1-1.5317-.6563,2.6025,2.6025,0,0,1-.5674-1.7631,2.8165,2.8165,0,0,1,.5976-1.8877,2.0015,2.0015,0,0,1,1.606-.7027A2.11,2.11,0,0,1,179.2646,153.4009Zm-.4912,3.1279a2.9837,2.9837,0,0,0,.2891-1.3232,2.3769,2.3769,0,0,0-.2085-1.0713,1.172,1.172,0,0,0-1.1387-.6494,1.12,1.12,0,0,0-1.0429.5532,2.583,2.583,0,0,0-.3257,1.334,2.2458,2.2458,0,0,0,.3257,1.2509,1.1445,1.1445,0,0,0,1.0346.5005A1.0763,1.0763,0,0,0,178.7734,156.5288Z"/><path d="M180.8818,151.1821h.7911v6.4556h-.7911Z"/><path d="M182.8813,151.1821h.7911v6.4556h-.7911Z"/><path d="M187.7661,153.0605a1.7887,1.7887,0,0,1,.7119.6089,2.1127,2.1127,0,0,1,.3145.8306,5.4845,5.4845,0,0,1,.07,1.0371H185.439a2.0319,2.0319,0,0,0,.3359,1.1524,1.1183,1.1183,0,0,0,.9722.434,1.2488,1.2488,0,0,0,.9809-.4106,1.4,1.4,0,0,0,.2906-.5518h.7778a1.6486,1.6486,0,0,1-.2041.5782,2.0861,2.0861,0,0,1-.3877.5205,1.8243,1.8243,0,0,1-.8853.4746,2.674,2.674,0,0,1-.6411.07,1.9626,1.9626,0,0,1-1.48-.64,2.4953,2.4953,0,0,1-.607-1.79,2.7154,2.7154,0,0,1,.6113-1.8413,2.012,2.012,0,0,1,1.5987-.7075A2.13,2.13,0,0,1,187.7661,153.0605Zm.2832,1.8482a2.0652,2.0652,0,0,0-.2222-.8218,1.1373,1.1373,0,0,0-1.0766-.5713,1.1893,1.1893,0,0,0-.9063.3936,1.4924,1.4924,0,0,0-.3877,1Z"/><path d="M189.8862,152.9312h.7515v.8129a1.8023,1.8023,0,0,1,.4526-.5781,1.1758,1.1758,0,0,1,.8306-.34c.0146,0,.04.0014.0747.0044s.0952.0088.18.0176v.8349a1.1868,1.1868,0,0,0-.13-.0176c-.0391-.0029-.0825-.0044-.1294-.0044a1.13,1.13,0,0,0-.9185.3843,1.3443,1.3443,0,0,0-.3208.8858v2.707h-.791Z"/><path d="M75.1978,119.0547a1.8133,1.8133,0,0,0,.2495.8921,1.63,1.63,0,0,0,1.4775.6416,2.5315,2.5315,0,0,0,.8638-.1406.99.99,0,0,0,.7534-.9756.8535.8535,0,0,0-.3193-.7515,3.1626,3.1626,0,0,0-1.0132-.3823l-.8472-.1978a3.7589,3.7589,0,0,1-1.1748-.4262,1.3636,1.3636,0,0,1-.5962-1.2085,1.886,1.886,0,0,1,.5859-1.4283,2.3108,2.3108,0,0,1,1.6592-.5581,2.8259,2.8259,0,0,1,1.6787.49,1.7879,1.7879,0,0,1,.6905,1.5664h-.8218a1.6591,1.6591,0,0,0-.2695-.7954,1.5339,1.5339,0,0,0-1.3018-.5054,1.4652,1.4652,0,0,0-1.0664.3252,1.0375,1.0375,0,0,0-.3242.7558.7429.7429,0,0,0,.3833.6944,5.5,5.5,0,0,0,1.1367.3515l.8769.2066a2.6387,2.6387,0,0,1,.98.4087,1.5487,1.5487,0,0,1,.5962,1.3139,1.6517,1.6517,0,0,1-.7607,1.5337,3.3406,3.3406,0,0,1-1.7681.4615,2.6017,2.6017,0,0,1-1.8384-.6153,2.1017,2.1017,0,0,1-.6513-1.6567Z"/><path d="M80.8911,116.4312l.9053,3.7089.918-3.7089h.8877l.9228,3.687.9629-3.687h.791l-1.3672,4.7065H84.09l-.958-3.6431-.9277,3.6431h-.8213l-1.3584-4.7065Z"/><path d="M87.0234,114.6821h.8042v.8965h-.8042Zm0,1.771h.8042v4.6846h-.8042Z"/><path d="M89.1812,115.1172h.8v1.314h.7514v.6459H89.981v3.0718a.3323.3323,0,0,0,.1669.33.7105.7105,0,0,0,.3077.0484q.0572,0,.123-.003t.1538-.0146v.6284a1.7616,1.7616,0,0,1-.2837.0571,2.6935,2.6935,0,0,1-.3183.0176.8573.8573,0,0,1-.7515-.2837,1.2581,1.2581,0,0,1-.1977-.7358v-3.1158h-.6373v-.6459h.6373Z"/><path d="M94.6328,116.6816a1.8549,1.8549,0,0,1,.6,1.3316h-.769a1.4226,1.4226,0,0,0-.3208-.7232,1.015,1.015,0,0,0-.8042-.2876,1.111,1.111,0,0,0-1.0811.7373,2.926,2.926,0,0,0-.2109,1.1807,2.22,2.22,0,0,0,.2988,1.1895,1.16,1.16,0,0,0,1.72.1831,1.647,1.647,0,0,0,.398-.8208h.769a1.86,1.86,0,0,1-2.0083,1.8017A1.8007,1.8007,0,0,1,91.752,120.6a2.582,2.582,0,0,1-.5494-1.6855,2.8389,2.8389,0,0,1,.6021-1.9292,1.9454,1.9454,0,0,1,1.5337-.69A2.0536,2.0536,0,0,1,94.6328,116.6816Z"/><path d="M96.0234,114.66h.7911v2.4082a2.2848,2.2848,0,0,1,.5053-.501,1.705,1.705,0,0,1,.9536-.2505,1.41,1.41,0,0,1,1.3887.7163,2.4432,2.4432,0,0,1,.1978,1.0855v3.019h-.813v-2.9663a1.6592,1.6592,0,0,0-.1319-.76.8422.8422,0,0,0-.8086-.3867,1.3468,1.3468,0,0,0-.892.3384,1.627,1.627,0,0,0-.4,1.2788v2.4961h-.7911Z"/><path d="M102.4985,114.6821h.6685l-2.0479,6.4556h-.6684Z"/><path d="M103.7183,114.6821h4.478v.791h-3.6035v1.96h3.1684v.769h-3.1684v2.9356h-.8745Z"/><path d="M111.5493,118.29a.43.43,0,0,0,.3648-.2286.6993.6993,0,0,0,.0527-.3042.646.646,0,0,0-.2871-.5888,1.5348,1.5348,0,0,0-.8223-.1831,1.0415,1.0415,0,0,0-.8774.3354,1.1155,1.1155,0,0,0-.1885.5523h-.7383a1.366,1.366,0,0,1,.564-1.2144,2.31,2.31,0,0,1,1.2573-.3413,2.5567,2.5567,0,0,1,1.3477.3164,1.0739,1.0739,0,0,1,.5136.9844v2.7114a.3434.3434,0,0,0,.0508.1978.2426.2426,0,0,0,.2129.0747,1.0729,1.0729,0,0,0,.1187-.0069c.0439-.0039.0908-.0107.1406-.02v.5845a2.2147,2.2147,0,0,1-.2813.0659,2.0513,2.0513,0,0,1-.2636.0132.6506.6506,0,0,1-.5933-.29,1.1186,1.1186,0,0,1-.1362-.435,2.0137,2.0137,0,0,1-.6944.5493,2.1469,2.1469,0,0,1-.9975.2329,1.4843,1.4843,0,0,1-1.07-.3975,1.3187,1.3187,0,0,1-.4151-.9936,1.2811,1.2811,0,0,1,.4087-1.0142,1.9477,1.9477,0,0,1,1.0723-.4433Zm-1.6655,2.1367a.9313.9313,0,0,0,.5933.1972,1.8094,1.8094,0,0,0,.8085-.1928,1.0867,1.0867,0,0,0,.6592-1.0489v-.6362a1.3376,1.3376,0,0,1-.3725.1543,3.0471,3.0471,0,0,1-.4478.0879l-.478.0615a1.8425,1.8425,0,0,0-.646.18.6981.6981,0,0,0-.3672.6577A.6494.6494,0,0,0,109.8838,120.4263Z"/><path d="M113.9663,114.66h.7691v2.3422a1.7343,1.7343,0,0,1,1.4072-.6943,1.8457,1.8457,0,0,1,1.4316.604,2.5689,2.5689,0,0,1,.5493,1.7822,3.0505,3.0505,0,0,1-.5424,1.8545,1.7628,1.7628,0,0,1-1.5044.7383,1.5448,1.5448,0,0,1-.9087-.2593,2.1764,2.1764,0,0,1-.4722-.4922v.6021h-.73Zm3.0244,5.4184a2.5006,2.5006,0,0,0,.32-1.3447,2.1994,2.1994,0,0,0-.32-1.2305,1.0533,1.0533,0,0,0-.9414-.4878,1.3159,1.3159,0,0,0-.95.4,1.7916,1.7916,0,0,0-.4077,1.3184,2.9021,2.9021,0,0,0,.1675,1.0766,1.1574,1.1574,0,0,0,1.1684.7779A1.061,1.061,0,0,0,116.9907,120.0786Z"/><path d="M119.06,116.4312h.7514v.8129a1.8029,1.8029,0,0,1,.4527-.5781,1.1756,1.1756,0,0,1,.8305-.34c.0147,0,.04.0014.0747.0044s.0953.0088.18.0176v.8349a1.1835,1.1835,0,0,0-.13-.0176c-.039-.0029-.0825-.0044-.1294-.0044a1.13,1.13,0,0,0-.9184.3843,1.3438,1.3438,0,0,0-.3208.8858v2.707h-.791Z"/><path d="M122.0347,114.6821h.8042v.8965h-.8042Zm0,1.771h.8042v4.6846h-.8042Z"/><path d="M127.1436,116.6816a1.8549,1.8549,0,0,1,.6,1.3316h-.7691a1.4226,1.4226,0,0,0-.3208-.7232,1.0149,1.0149,0,0,0-.8042-.2876,1.1109,1.1109,0,0,0-1.081.7373,2.9242,2.9242,0,0,0-.211,1.1807,2.2187,2.2187,0,0,0,.2989,1.1895,1.16,1.16,0,0,0,1.72.1831,1.6461,1.6461,0,0,0,.3979-.8208h.7691a1.86,1.86,0,0,1-2.0083,1.8017,1.8007,1.8007,0,0,1-1.4722-.6743,2.5825,2.5825,0,0,1-.5493-1.6855,2.8394,2.8394,0,0,1,.602-1.9292,1.9454,1.9454,0,0,1,1.5337-.69A2.0541,2.0541,0,0,1,127.1436,116.6816Z"/><path d="M131.3159,116.6816v-.6064a3.2114,3.2114,0,0,0,1.1953-.2793,1.3733,1.3733,0,0,0,.5054-.9248h.624v6.2666h-.8437v-4.4561Z"/><path d="M205.1978,119.0547a1.8133,1.8133,0,0,0,.25.8921,1.63,1.63,0,0,0,1.4775.6416,2.5315,2.5315,0,0,0,.8638-.1406.99.99,0,0,0,.7534-.9756.8535.8535,0,0,0-.3193-.7515,3.1626,3.1626,0,0,0-1.0132-.3823l-.8472-.1978a3.7589,3.7589,0,0,1-1.1748-.4262,1.3636,1.3636,0,0,1-.5962-1.2085,1.886,1.886,0,0,1,.5859-1.4283,2.3108,2.3108,0,0,1,1.6592-.5581,2.8259,2.8259,0,0,1,1.6787.49,1.7879,1.7879,0,0,1,.6905,1.5664h-.8218a1.6591,1.6591,0,0,0-.27-.7954,1.5339,1.5339,0,0,0-1.3018-.5054,1.4652,1.4652,0,0,0-1.0664.3252,1.0375,1.0375,0,0,0-.3242.7558.7429.7429,0,0,0,.3833.6944,5.5,5.5,0,0,0,1.1367.3515l.8769.2066a2.6387,2.6387,0,0,1,.98.4087,1.5487,1.5487,0,0,1,.5962,1.3139,1.6517,1.6517,0,0,1-.7607,1.5337,3.3406,3.3406,0,0,1-1.7681.4615,2.6017,2.6017,0,0,1-1.8384-.6153,2.1017,2.1017,0,0,1-.6513-1.6567Z"/><path d="M210.8911,116.4312l.9053,3.7089.918-3.7089h.8877l.9228,3.687.9629-3.687h.791l-1.3672,4.7065H214.09l-.958-3.6431-.9277,3.6431h-.8213l-1.3584-4.7065Z"/><path d="M217.0234,114.6821h.8042v.8965h-.8042Zm0,1.771h.8042v4.6846h-.8042Z"/><path d="M219.1812,115.1172h.8v1.314h.7514v.6459h-.7514v3.0718a.3323.3323,0,0,0,.1669.33.7105.7105,0,0,0,.3077.0484q.0571,0,.123-.003t.1538-.0146v.6284a1.7616,1.7616,0,0,1-.2837.0571,2.6935,2.6935,0,0,1-.3183.0176.8573.8573,0,0,1-.7515-.2837,1.2581,1.2581,0,0,1-.1977-.7358v-3.1158h-.6373v-.6459h.6373Z"/><path d="M224.6328,116.6816a1.8549,1.8549,0,0,1,.6,1.3316h-.769a1.4226,1.4226,0,0,0-.3208-.7232,1.015,1.015,0,0,0-.8042-.2876,1.111,1.111,0,0,0-1.0811.7373,2.926,2.926,0,0,0-.2109,1.1807,2.22,2.22,0,0,0,.2988,1.1895,1.16,1.16,0,0,0,1.72.1831,1.647,1.647,0,0,0,.398-.8208h.769a1.86,1.86,0,0,1-2.0083,1.8017,1.8007,1.8007,0,0,1-1.4721-.6743,2.582,2.582,0,0,1-.5494-1.6855,2.8389,2.8389,0,0,1,.6021-1.9292,1.9454,1.9454,0,0,1,1.5337-.69A2.0536,2.0536,0,0,1,224.6328,116.6816Z"/><path d="M226.0234,114.66h.7911v2.4082a2.2848,2.2848,0,0,1,.5053-.501,1.705,1.705,0,0,1,.9536-.2505,1.41,1.41,0,0,1,1.3887.7163,2.4432,2.4432,0,0,1,.1978,1.0855v3.019h-.813v-2.9663a1.6592,1.6592,0,0,0-.1319-.76.8422.8422,0,0,0-.8086-.3867,1.3468,1.3468,0,0,0-.892.3384,1.627,1.627,0,0,0-.4,1.2788v2.4961h-.7911Z"/><path d="M232.4985,114.6821h.6685l-2.0479,6.4556h-.6684Z"/><path d="M233.7183,114.6821h4.478v.791h-3.6035v1.96h3.1684v.769h-3.1684v2.9356h-.8745Z"/><path d="M241.5493,118.29a.43.43,0,0,0,.3648-.2286.6993.6993,0,0,0,.0527-.3042.646.646,0,0,0-.2871-.5888,1.5348,1.5348,0,0,0-.8223-.1831,1.0415,1.0415,0,0,0-.8774.3354,1.1155,1.1155,0,0,0-.1885.5523h-.7383a1.366,1.366,0,0,1,.564-1.2144,2.31,2.31,0,0,1,1.2573-.3413,2.5567,2.5567,0,0,1,1.3477.3164,1.0739,1.0739,0,0,1,.5136.9844v2.7114a.3434.3434,0,0,0,.0508.1978.2426.2426,0,0,0,.2129.0747,1.0729,1.0729,0,0,0,.1187-.0069c.0439-.0039.0908-.0107.1406-.02v.5845a2.2147,2.2147,0,0,1-.2813.0659,2.0513,2.0513,0,0,1-.2636.0132.6506.6506,0,0,1-.5933-.29,1.1186,1.1186,0,0,1-.1362-.435,2.0137,2.0137,0,0,1-.6944.5493,2.1469,2.1469,0,0,1-.9975.2329,1.4843,1.4843,0,0,1-1.07-.3975,1.3187,1.3187,0,0,1-.4151-.9936,1.2811,1.2811,0,0,1,.4087-1.0142,1.9477,1.9477,0,0,1,1.0723-.4433Zm-1.6655,2.1367a.9313.9313,0,0,0,.5933.1972,1.8094,1.8094,0,0,0,.8085-.1928,1.0867,1.0867,0,0,0,.6592-1.0489v-.6362a1.3376,1.3376,0,0,1-.3725.1543,3.0471,3.0471,0,0,1-.4478.0879l-.478.0615a1.8425,1.8425,0,0,0-.646.18.6981.6981,0,0,0-.3672.6577A.6494.6494,0,0,0,239.8838,120.4263Z"/><path d="M243.9663,114.66h.7686v2.3422a1.738,1.738,0,0,1,1.4082-.6943,1.8478,1.8478,0,0,1,1.4316.604,2.5737,2.5737,0,0,1,.5488,1.7822,3.0507,3.0507,0,0,1-.5429,1.8545,1.7619,1.7619,0,0,1-1.5039.7383,1.54,1.54,0,0,1-.9082-.2593,2.1663,2.1663,0,0,1-.4727-.4922v.6021h-.73Zm3.0244,5.4184a2.505,2.505,0,0,0,.32-1.3447,2.2035,2.2035,0,0,0-.32-1.2305,1.0539,1.0539,0,0,0-.9414-.4878,1.3167,1.3167,0,0,0-.95.4,1.79,1.79,0,0,0-.4072,1.3184,2.8928,2.8928,0,0,0,.167,1.0766,1.1576,1.1576,0,0,0,1.1689.7779A1.0607,1.0607,0,0,0,246.9907,120.0786Z"/><path d="M249.0591,116.4312h.7519v.8129a1.806,1.806,0,0,1,.4532-.5781,1.1744,1.1744,0,0,1,.83-.34c.0147,0,.0391.0014.0743.0044s.0957.0088.1806.0176v.8349a1.1835,1.1835,0,0,0-.13-.0176q-.0585-.0044-.1289-.0044a1.1313,1.1313,0,0,0-.9189.3843,1.3443,1.3443,0,0,0-.3213.8858v2.707h-.791Z"/><path d="M252.0347,114.6821h.8037v.8965h-.8037Zm0,1.771h.8037v4.6846h-.8037Z"/><path d="M257.1431,116.6816a1.851,1.851,0,0,1,.6,1.3316h-.7686a1.4148,1.4148,0,0,0-.3213-.7232,1.0123,1.0123,0,0,0-.8037-.2876,1.1109,1.1109,0,0,0-1.081.7373,2.9242,2.9242,0,0,0-.211,1.1807,2.2187,2.2187,0,0,0,.2989,1.1895,1.1606,1.1606,0,0,0,1.7207.1831,1.65,1.65,0,0,0,.3974-.8208h.7686a1.8588,1.8588,0,0,1-2.0078,1.8017,1.803,1.803,0,0,1-1.4727-.6743,2.5877,2.5877,0,0,1-.5488-1.6855,2.8444,2.8444,0,0,1,.6015-1.9292,1.9478,1.9478,0,0,1,1.5342-.69A2.0507,2.0507,0,0,1,257.1431,116.6816Z"/><path d="M261.0718,119.7227a2.719,2.719,0,0,1,1.1406-1.0943l.8438-.4878a3.9568,3.9568,0,0,0,.7959-.563,1.234,1.234,0,0,0,.03-1.71,1.2,1.2,0,0,0-.8789-.3237,1.1475,1.1475,0,0,0-1.125.6171,2.2155,2.2155,0,0,0-.1846.9165h-.8046a2.8348,2.8348,0,0,1,.3037-1.34,1.9036,1.9036,0,0,1,1.8154-.914,1.8673,1.8673,0,0,1,2.0781,1.8852,1.7717,1.7717,0,0,1-.5312,1.292,5.2146,5.2146,0,0,1-1.1035.7559l-.6016.3339a3.9071,3.9071,0,0,0-.6777.4527,1.6469,1.6469,0,0,0-.5528.8481h3.4356v.7471h-4.3194A3.6774,3.6774,0,0,1,261.0718,119.7227Z"/></g><g id="ab2be7e1-39e9-4231-a54a-0e1d3966b048" data-name="lines&amp;text"><polyline class="e405a6c2-bc76-4e89-a03a-5959ef559798" points="35.274 99.25 21.024 99.25 21.024 50"/><polyline class="a5a47bd4-231a-41ae-9a85-05da70281b6e" points="47.774 50 47.774 70.127 209.774 70.127 209.774 77"/><polyline class="e405a6c2-bc76-4e89-a03a-5959ef559798" points="47.774 50 47.774 70.127 209.774 70.127 209.774 77"/><line class="a5a47bd4-231a-41ae-9a85-05da70281b6e" x1="120.5239" y1="50" x2="120.5239" y2="77.5"/><line class="e405a6c2-bc76-4e89-a03a-5959ef559798" x1="120.5239" y1="50" x2="120.5239" y2="77.5"/><line class="a5a47bd4-231a-41ae-9a85-05da70281b6e" x1="283.5239" y1="50" x2="283.5239" y2="77.5"/><line class="e405a6c2-bc76-4e89-a03a-5959ef559798" x1="283.5239" y1="50" x2="283.5239" y2="77.5"/><polyline class="e405a6c2-bc76-4e89-a03a-5959ef559798" points="171.524 50 171.524 65.75 219.024 65.75 219.024 77.5"/><polyline class="a5a47bd4-231a-41ae-9a85-05da70281b6e" points="131.524 77 131.524 56.75 271.024 56.75 271.024 50"/><polyline class="e405a6c2-bc76-4e89-a03a-5959ef559798" points="131.524 77 131.524 56.75 271.024 56.75 271.024 50"/><polyline class="a5a47bd4-231a-41ae-9a85-05da70281b6e" points="137.024 109.75 137.024 136.25 233.274 136.25 233.274 168 225.524 168"/><polyline class="e405a6c2-bc76-4e89-a03a-5959ef559798" points="137.024 109.75 137.024 136.25 233.274 136.25 233.274 168 225.524 168"/><polyline class="a5a47bd4-231a-41ae-9a85-05da70281b6e" points="146.274 109.75 146.274 140.5 247.524 140.5 247.524 174.25 225.774 174.25"/><polyline class="e405a6c2-bc76-4e89-a03a-5959ef559798" points="146.274 109.75 146.274 140.5 247.524 140.5 247.524 174.25 225.774 174.25"/><path d="M238.85,152.3091a4.5027,4.5027,0,0,1,.4219,2.1313,5.1172,5.1172,0,0,1-.3828,2.1226,1.8719,1.8719,0,0,1-1.8106,1.2041,1.8131,1.8131,0,0,1-1.6875-.9844,4.5188,4.5188,0,0,1-.4609-2.206,5.4262,5.4262,0,0,1,.2773-1.8413,1.8933,1.8933,0,0,1,1.876-1.4327A1.86,1.86,0,0,1,238.85,152.3091Zm-.7959,4.1924a3.9442,3.9442,0,0,0,.3652-2.03,5.0151,5.0151,0,0,0-.2636-1.7642,1.006,1.006,0,0,0-1.0264-.6924,1.0724,1.0724,0,0,0-1.0234.6573,4.5259,4.5259,0,0,0-.3233,1.9355,4.7552,4.7552,0,0,0,.207,1.5469,1.1249,1.1249,0,0,0,2.0645.3472Z"/><path d="M242.7573,154.7476a.4309.4309,0,0,0,.3653-.2286.7164.7164,0,0,0,.0517-.3042.646.646,0,0,0-.2871-.5888,1.5312,1.5312,0,0,0-.8223-.1831,1.0417,1.0417,0,0,0-.8769.3354,1.1106,1.1106,0,0,0-.1885.5523h-.7383a1.364,1.364,0,0,1,.5645-1.2144,2.3086,2.3086,0,0,1,1.2568-.3413,2.5546,2.5546,0,0,1,1.3477.3164,1.0732,1.0732,0,0,1,.5136.9844v2.7114a.3434.3434,0,0,0,.0508.1978.2426.2426,0,0,0,.2129.0747,1.0951,1.0951,0,0,0,.1192-.0069c.0429-.0039.09-.0107.1406-.0195v.5845a2.2547,2.2547,0,0,1-.2813.0659,2.0729,2.0729,0,0,1-.2636.0132.65.65,0,0,1-.5938-.29,1.1351,1.1351,0,0,1-.1367-.435,2.018,2.018,0,0,1-.6934.5493,2.1519,2.1519,0,0,1-.998.2329,1.4843,1.4843,0,0,1-1.07-.3975,1.3187,1.3187,0,0,1-.4151-.9936,1.2781,1.2781,0,0,1,.4092-1.0142,1.9414,1.9414,0,0,1,1.0723-.4433Zm-1.665,2.1367a.928.928,0,0,0,.5928.1972,1.81,1.81,0,0,0,.8086-.1928,1.0868,1.0868,0,0,0,.6591-1.0489v-.6362a1.3336,1.3336,0,0,1-.373.1543,3.0156,3.0156,0,0,1-.4473.0879l-.4775.0615a1.8424,1.8424,0,0,0-.6465.18.6981.6981,0,0,0-.3672.6577A.647.647,0,0,0,241.0923,156.8843Z"/><path d="M253.85,152.8091a4.5027,4.5027,0,0,1,.4219,2.1313,5.1172,5.1172,0,0,1-.3828,2.1226,1.8719,1.8719,0,0,1-1.8106,1.2041,1.8131,1.8131,0,0,1-1.6875-.9844,4.5188,4.5188,0,0,1-.4609-2.206,5.4262,5.4262,0,0,1,.2773-1.8413,1.8933,1.8933,0,0,1,1.876-1.4327A1.86,1.86,0,0,1,253.85,152.8091Zm-.7959,4.1924a3.9442,3.9442,0,0,0,.3652-2.03,5.0151,5.0151,0,0,0-.2636-1.7642,1.006,1.006,0,0,0-1.0264-.6924,1.0724,1.0724,0,0,0-1.0234.6573,4.5259,4.5259,0,0,0-.3233,1.9355,4.7552,4.7552,0,0,0,.207,1.5469,1.1249,1.1249,0,0,0,2.0645.3472Z"/><path d="M258.3442,153.64a1.8541,1.8541,0,0,1,.6,1.3316h-.7695a1.4224,1.4224,0,0,0-.32-.7232,1.0161,1.0161,0,0,0-.8047-.2876,1.1091,1.1091,0,0,0-1.08.7374,2.9255,2.9255,0,0,0-.2109,1.1806,2.2106,2.2106,0,0,0,.2988,1.19,1.16,1.16,0,0,0,1.72.1831,1.6424,1.6424,0,0,0,.3974-.8208h.7695a1.86,1.86,0,0,1-2.0078,1.8017,1.8016,1.8016,0,0,1-1.4726-.6743,2.5822,2.5822,0,0,1-.5488-1.6855,2.8388,2.8388,0,0,1,.6015-1.9292,1.9444,1.9444,0,0,1,1.5332-.69A2.0551,2.0551,0,0,1,258.3442,153.64Z"/><path d="M272.35,152.8091a4.5027,4.5027,0,0,1,.4219,2.1313,5.1172,5.1172,0,0,1-.3828,2.1226,1.8719,1.8719,0,0,1-1.8106,1.2041,1.8131,1.8131,0,0,1-1.6875-.9844,4.5188,4.5188,0,0,1-.4609-2.206,5.4262,5.4262,0,0,1,.2773-1.8413,1.8933,1.8933,0,0,1,1.876-1.4327A1.86,1.86,0,0,1,272.35,152.8091Zm-.7959,4.1924a3.9442,3.9442,0,0,0,.3652-2.03,5.0151,5.0151,0,0,0-.2636-1.7642,1.006,1.006,0,0,0-1.0264-.6924,1.0724,1.0724,0,0,0-1.0234.6573,4.5259,4.5259,0,0,0-.3233,1.9355,4.7552,4.7552,0,0,0,.207,1.5469,1.1249,1.1249,0,0,0,2.0645.3472Z"/><path d="M273.6685,151.6182h.7695V153.96a1.7347,1.7347,0,0,1,1.4072-.6943,1.8467,1.8467,0,0,1,1.4317.604,2.5689,2.5689,0,0,1,.55,1.7822,3.0508,3.0508,0,0,1-.543,1.8545,1.7636,1.7636,0,0,1-1.5049.7383,1.5445,1.5445,0,0,1-.9082-.2593,2.1664,2.1664,0,0,1-.4717-.4921v.602h-.73Zm3.0253,5.4184a2.5052,2.5052,0,0,0,.3194-1.3447,2.2034,2.2034,0,0,0-.3194-1.2305,1.0549,1.0549,0,0,0-.9414-.4878,1.3134,1.3134,0,0,0-.95.4,1.79,1.79,0,0,0-.4082,1.3184,2.8918,2.8918,0,0,0,.168,1.0767,1.1565,1.1565,0,0,0,1.168.7778A1.0621,1.0621,0,0,0,276.6938,157.0366Z"/><path d="M289.85,152.8091a4.5027,4.5027,0,0,1,.4219,2.1313,5.1172,5.1172,0,0,1-.3828,2.1226,1.8719,1.8719,0,0,1-1.8106,1.2041,1.8131,1.8131,0,0,1-1.6875-.9844,4.5188,4.5188,0,0,1-.4609-2.206,5.4262,5.4262,0,0,1,.2773-1.8413,1.8933,1.8933,0,0,1,1.876-1.4327A1.86,1.86,0,0,1,289.85,152.8091Zm-.7959,4.1924a3.9442,3.9442,0,0,0,.3652-2.03,5.0151,5.0151,0,0,0-.2636-1.7642,1.006,1.006,0,0,0-1.0264-.6924,1.0724,1.0724,0,0,0-1.0234.6573,4.5259,4.5259,0,0,0-.3233,1.9355,4.7552,4.7552,0,0,0,.207,1.5469,1.1249,1.1249,0,0,0,2.0645.3472Z"/><path d="M293.8208,153.5342a2.1273,2.1273,0,0,1,.4766.4614v-2.3774h.7607v6.4775h-.7119v-.6548a1.7055,1.7055,0,0,1-.6524.6284,1.86,1.86,0,0,1-.8623.1934,1.745,1.745,0,0,1-1.3574-.6611,2.5956,2.5956,0,0,1-.5732-1.76,3.0469,3.0469,0,0,1,.5234-1.7817,1.71,1.71,0,0,1,1.4942-.7539A1.6635,1.6635,0,0,1,293.8208,153.5342Zm-1.7656,3.5288a1.117,1.117,0,0,0,1.0234.51,1.0769,1.0769,0,0,0,.8985-.4722,2.243,2.243,0,0,0,.3515-1.356,2.0122,2.0122,0,0,0-.3633-1.3208,1.1287,1.1287,0,0,0-.8955-.4282,1.1818,1.1818,0,0,0-.9648.457,2.1024,2.1024,0,0,0-.3692,1.3448A2.3413,2.3413,0,0,0,292.0552,157.063Z"/><polyline class="e405a6c2-bc76-4e89-a03a-5959ef559798" points="225.524 180 266.774 180 266.774 110.5"/><polyline class="e405a6c2-bc76-4e89-a03a-5959ef559798" points="225.524 185 283.024 185 283.024 110"/></g></svg>