<svg xmlns="http://www.w3.org/2000/svg" viewBox="0 0 341.1475 268.7627"><defs><style>.a18bc2ae-2314-445e-a36f-53a057bbf16e,.a7a13510-ece7-4e27-a33c-4b48e4a0678f,.aae3b2f5-e5c3-495b-bb66-c0e92e729959,.b531d137-7e8e-4b12-b5c9-02f1eb836d2c{fill:none;}.aae3b2f5-e5c3-495b-bb66-c0e92e729959,.b531d137-7e8e-4b12-b5c9-02f1eb836d2c,.bdf7acbc-e755-4497-808d-afbde3603a2a{stroke:#000;}.a7a13510-ece7-4e27-a33c-4b48e4a0678f,.b531d137-7e8e-4b12-b5c9-02f1eb836d2c{stroke-miterlimit:10;}.a18bc2ae-2314-445e-a36f-53a057bbf16e,.aae3b2f5-e5c3-495b-bb66-c0e92e729959,.b531d137-7e8e-4b12-b5c9-02f1eb836d2c{stroke-width:0.5px;}.a18bc2ae-2314-445e-a36f-53a057bbf16e,.a7a13510-ece7-4e27-a33c-4b48e4a0678f,.f91c94d8-f709-40b9-bf3a-a0c55d86d519{stroke:#fff;}.a7a13510-ece7-4e27-a33c-4b48e4a0678f{stroke-width:2px;}.b9e18c39-ab71-4138-bcc8-cdb5813967c0{fill:#949494;}.a4fc8fce-35b5-4ae4-a06e-75a7604f93cb{fill:#464646;}.e691d12f-18e4-462f-b7d1-1320e75974a4{fill:#b3b7be;}.a5ac94fe-b4cf-446a-9225-5915b64a2202{fill:#444b4c;}.a559acb4-6dd7-49fd-9600-b0be6868b0cb,.bdf7acbc-e755-4497-808d-afbde3603a2a,.f91c94d8-f709-40b9-bf3a-a0c55d86d519{fill:#fff;}.b34cc2f8-04e6-4dc3-980b-8f5ba0f2710e{fill:#434249;}.eae43448-ec50-4aa8-aa60-5dc54d270b00{fill:#9b9bbc;}.a18bc2ae-2314-445e-a36f-53a057bbf16e{stroke-linejoin:round;}.bdf7acbc-e755-4497-808d-afbde3603a2a{stroke-width:0.4px;}</style></defs><g id="be43aa48-31e7-4d23-98e0-5031dab6892c" data-name="illustration"><polyline class="b531d137-7e8e-4b12-b5c9-02f1eb836d2c" points="115.621 236.511 95.07 236.511 95.07 158.529 228.349 158.577 228.349 133.583"/><line class="a7a13510-ece7-4e27-a33c-4b48e4a0678f" x1="118.7622" y1="91.5718" x2="118.5683" y2="53.9751"/><polyline class="b531d137-7e8e-4b12-b5c9-02f1eb836d2c" points="118.69 91.131 118.712 54.695 177.135 54.695 177.135 49.5"/><polyline class="a7a13510-ece7-4e27-a33c-4b48e4a0678f" points="319.85 46.668 319.85 65.899 126.522 65.899 126.522 91.072"/><polyline class="b531d137-7e8e-4b12-b5c9-02f1eb836d2c" points="320.066 46.668 320.066 66.114 126.307 66.114 126.307 91.072"/><polyline class="b531d137-7e8e-4b12-b5c9-02f1eb836d2c" points="272.854 91.714 272.854 70.389 329.72 70.389 329.72 48.5"/><polyline class="b531d137-7e8e-4b12-b5c9-02f1eb836d2c" points="81.133 91.714 81.133 78.105 51.391 78.105 51.391 48.844"/><polyline class="a7a13510-ece7-4e27-a33c-4b48e4a0678f" points="188.95 46.668 188.95 55 234.808 55 234.808 91.072"/><polyline class="a7a13510-ece7-4e27-a33c-4b48e4a0678f" points="72.02 46.668 72.02 60.56 226.808 60.56 226.808 91.792"/><polyline class="b531d137-7e8e-4b12-b5c9-02f1eb836d2c" points="189.166 46.668 189.166 55.215 234.808 55.215 234.808 91.792"/><polyline class="b531d137-7e8e-4b12-b5c9-02f1eb836d2c" points="72.02 46.668 72.02 60.775 226.808 60.775 226.808 91.436"/><polyline class="b531d137-7e8e-4b12-b5c9-02f1eb836d2c" points="273.745 135.133 273.745 219.263 221.664 219.263"/><polyline class="a7a13510-ece7-4e27-a33c-4b48e4a0678f" points="221.664 211.513 248.609 211.513 248.609 165.957 123.636 165.746 123.636 133.171"/><polyline class="b531d137-7e8e-4b12-b5c9-02f1eb836d2c" points="115.621 243.844 78.403 243.844 78.403 134.873"/><polyline class="b9e18c39-ab71-4138-bcc8-cdb5813967c0" points="87.482 32.111 0 32.111 0 26.398 87.482 26.398 87.482 32.111"/><polyline class="a4fc8fce-35b5-4ae4-a06e-75a7604f93cb" points="87.482 37.967 0 37.967 0 32.254 87.482 32.254 87.482 37.967"/><polyline class="b9e18c39-ab71-4138-bcc8-cdb5813967c0" points="87.482 43.739 0 43.739 0 38.026 87.482 38.026 87.482 43.739"/><polyline class="a4fc8fce-35b5-4ae4-a06e-75a7604f93cb" points="87.482 49.595 0 49.595 0 43.882 87.482 43.882 87.482 49.595"/><polyline class="e691d12f-18e4-462f-b7d1-1320e75974a4" points="87.482 15.364 0 15.364 4.493 10.892 82.989 10.892 87.482 15.364"/><path class="a5ac94fe-b4cf-446a-9225-5915b64a2202" d="M85.2183,24.6919a3.1695,3.1695,0,0,1,0-6.3389v6.3389"/><polyline class="a4fc8fce-35b5-4ae4-a06e-75a7604f93cb" points="87.482 25.646 0 25.646 0 15.364 87.482 15.364 87.482 25.646"/><polyline class="b9e18c39-ab71-4138-bcc8-cdb5813967c0" points="83.211 23.844 4.052 23.844 4.052 17.504 83.211 17.504 83.211 23.844"/><path class="a559acb4-6dd7-49fd-9600-b0be6868b0cb" d="M84.5669,20.6963c0,.5864-.645,1.0615-1.44,1.0615s-1.44-.4751-1.44-1.0615.645-1.0606,1.44-1.0606S84.5669,20.1108,84.5669,20.6963Z"/><rect class="a559acb4-6dd7-49fd-9600-b0be6868b0cb" x="40.4302" y="27.4424" width="14.2324" height="0.5947"/><path class="a559acb4-6dd7-49fd-9600-b0be6868b0cb" d="M55.086,30.2437c0,.5625-.6636,1.0185-1.4824,1.0185s-1.4825-.456-1.4825-1.0185.6641-1.0181,1.4825-1.0181S55.086,29.6812,55.086,30.2437Z"/><rect class="a559acb4-6dd7-49fd-9600-b0be6868b0cb" x="40.4302" y="33.3843" width="14.2324" height="0.5942"/><path class="a559acb4-6dd7-49fd-9600-b0be6868b0cb" d="M55.086,36.1851c0,.5625-.6636,1.0185-1.4824,1.0185s-1.4825-.456-1.4825-1.0185.6641-1.0181,1.4825-1.0181S55.086,35.6226,55.086,36.1851Z"/><rect class="a559acb4-6dd7-49fd-9600-b0be6868b0cb" x="68.9795" y="33.3843" width="14.2325" height="0.5942"/><path class="a559acb4-6dd7-49fd-9600-b0be6868b0cb" d="M83.6353,36.1851c0,.5625-.6636,1.0185-1.4824,1.0185s-1.4824-.456-1.4824-1.0185.664-1.0181,1.4824-1.0181S83.6353,35.6226,83.6353,36.1851Z"/><path class="a559acb4-6dd7-49fd-9600-b0be6868b0cb" d="M83.6353,42.126c0,.5625-.6636,1.0185-1.4824,1.0185s-1.4824-.456-1.4824-1.0185.664-1.0181,1.4824-1.0181S83.6353,41.5635,83.6353,42.126Z"/><rect class="a559acb4-6dd7-49fd-9600-b0be6868b0cb" x="68.9795" y="45.2666" width="14.2325" height="0.5942"/><path class="a559acb4-6dd7-49fd-9600-b0be6868b0cb" d="M83.6353,48.0674c0,.5625-.6636,1.0185-1.4824,1.0185s-1.4824-.456-1.4824-1.0185.664-1.0186,1.4824-1.0186S83.6353,47.5049,83.6353,48.0674Z"/><rect class="a559acb4-6dd7-49fd-9600-b0be6868b0cb" x="40.4302" y="39.3257" width="14.2324" height="0.5942"/><path class="a559acb4-6dd7-49fd-9600-b0be6868b0cb" d="M55.086,42.1265c0,.5625-.6636,1.0185-1.4824,1.0185s-1.4825-.456-1.4825-1.0185.6641-1.0181,1.4825-1.0181S55.086,41.564,55.086,42.1265Z"/><rect class="a559acb4-6dd7-49fd-9600-b0be6868b0cb" x="40.4302" y="45.2676" width="14.2324" height="0.5937"/><path class="a559acb4-6dd7-49fd-9600-b0be6868b0cb" d="M55.086,48.0679c0,.563-.6636,1.0185-1.4824,1.0185s-1.4825-.4555-1.4825-1.0185.6641-1.0181,1.4825-1.0181S55.086,47.5054,55.086,48.0679Z"/><path class="a559acb4-6dd7-49fd-9600-b0be6868b0cb" d="M83.4664,30.2437c0,.5625-.6636,1.0185-1.4825,1.0185s-1.4824-.456-1.4824-1.0185.6641-1.0181,1.4824-1.0181S83.4664,29.6812,83.4664,30.2437Z"/><line class="f91c94d8-f709-40b9-bf3a-a0c55d86d519" x1="58.4751" y1="26.0845" x2="58.4751" y2="50.0195"/><polyline class="b9e18c39-ab71-4138-bcc8-cdb5813967c0" points="196.808 32.111 109.325 32.111 109.325 26.398 196.808 26.398 196.808 32.111"/><polyline class="a4fc8fce-35b5-4ae4-a06e-75a7604f93cb" points="196.808 37.967 109.325 37.967 109.325 32.254 196.808 32.254 196.808 37.967"/><polyline class="b9e18c39-ab71-4138-bcc8-cdb5813967c0" points="196.808 43.739 109.325 43.739 109.325 38.026 196.808 38.026 196.808 43.739"/><polyline class="a4fc8fce-35b5-4ae4-a06e-75a7604f93cb" points="196.808 49.595 109.325 49.595 109.325 43.882 196.808 43.882 196.808 49.595"/><polyline class="e691d12f-18e4-462f-b7d1-1320e75974a4" points="196.808 15.364 109.325 15.364 113.818 10.892 192.313 10.892 196.808 15.364"/><path class="a5ac94fe-b4cf-446a-9225-5915b64a2202" d="M194.5429,24.6919a3.1695,3.1695,0,0,1,0-6.3389v6.3389"/><polyline class="a4fc8fce-35b5-4ae4-a06e-75a7604f93cb" points="196.808 25.646 109.325 25.646 109.325 15.364 196.808 15.364 196.808 25.646"/><polyline class="b9e18c39-ab71-4138-bcc8-cdb5813967c0" points="192.536 23.844 113.375 23.844 113.375 17.504 192.536 17.504 192.536 23.844"/><path class="a559acb4-6dd7-49fd-9600-b0be6868b0cb" d="M193.8911,20.6963c0,.5864-.6441,1.0615-1.4395,1.0615s-1.44-.4751-1.44-1.0615.644-1.0606,1.44-1.0606S193.8911,20.1108,193.8911,20.6963Z"/><rect class="a559acb4-6dd7-49fd-9600-b0be6868b0cb" x="149.7548" y="27.4424" width="14.2325" height="0.5947"/><path class="a559acb4-6dd7-49fd-9600-b0be6868b0cb" d="M164.4106,30.2437c0,.5625-.6636,1.0185-1.4824,1.0185s-1.4825-.456-1.4825-1.0185.6636-1.0181,1.4825-1.0181S164.4106,29.6812,164.4106,30.2437Z"/><rect class="a559acb4-6dd7-49fd-9600-b0be6868b0cb" x="149.7548" y="33.3838" width="14.2325" height="0.5947"/><path class="a559acb4-6dd7-49fd-9600-b0be6868b0cb" d="M164.4106,36.1851c0,.5625-.6636,1.0185-1.4824,1.0185s-1.4825-.456-1.4825-1.0185.6636-1.0181,1.4825-1.0181S164.4106,35.6226,164.4106,36.1851Z"/><rect class="a559acb4-6dd7-49fd-9600-b0be6868b0cb" x="178.3041" y="33.3838" width="14.232" height="0.5947"/><path class="a559acb4-6dd7-49fd-9600-b0be6868b0cb" d="M192.9605,36.1851c0,.5625-.6642,1.0185-1.4835,1.0185s-1.4814-.456-1.4814-1.0185.663-1.0181,1.4814-1.0181S192.9605,35.6226,192.9605,36.1851Z"/><path class="a559acb4-6dd7-49fd-9600-b0be6868b0cb" d="M192.9605,42.126c0,.5625-.6642,1.0185-1.4835,1.0185s-1.4814-.456-1.4814-1.0185.663-1.0181,1.4814-1.0181S192.9605,41.5635,192.9605,42.126Z"/><rect class="a559acb4-6dd7-49fd-9600-b0be6868b0cb" x="178.3041" y="45.2666" width="14.232" height="0.5942"/><path class="a559acb4-6dd7-49fd-9600-b0be6868b0cb" d="M192.9605,48.0674c0,.5625-.6642,1.0185-1.4835,1.0185s-1.4814-.456-1.4814-1.0185.663-1.0186,1.4814-1.0186S192.9605,47.5049,192.9605,48.0674Z"/><rect class="a559acb4-6dd7-49fd-9600-b0be6868b0cb" x="149.7548" y="39.3257" width="14.2325" height="0.5942"/><path class="a559acb4-6dd7-49fd-9600-b0be6868b0cb" d="M164.4106,42.1265c0,.5625-.6636,1.0185-1.4824,1.0185s-1.4825-.456-1.4825-1.0185.6636-1.0181,1.4825-1.0181S164.4106,41.564,164.4106,42.1265Z"/><rect class="a559acb4-6dd7-49fd-9600-b0be6868b0cb" x="149.7548" y="45.2676" width="14.2325" height="0.5937"/><path class="a559acb4-6dd7-49fd-9600-b0be6868b0cb" d="M164.4106,48.0679c0,.563-.6636,1.0185-1.4824,1.0185s-1.4825-.4555-1.4825-1.0185.6636-1.0181,1.4825-1.0181S164.4106,47.5054,164.4106,48.0679Z"/><path class="a559acb4-6dd7-49fd-9600-b0be6868b0cb" d="M192.791,30.2437c0,.5625-.6635,1.0185-1.4829,1.0185s-1.4815-.456-1.4815-1.0185.6631-1.0181,1.4815-1.0181S192.791,29.6812,192.791,30.2437Z"/><line class="f91c94d8-f709-40b9-bf3a-a0c55d86d519" x1="167.7998" y1="26.0845" x2="167.7998" y2="50.0195"/><polyline class="b9e18c39-ab71-4138-bcc8-cdb5813967c0" points="341.147 32.111 253.665 32.111 253.665 26.398 341.147 26.398 341.147 32.111"/><polyline class="a4fc8fce-35b5-4ae4-a06e-75a7604f93cb" points="341.147 37.967 253.665 37.967 253.665 32.254 341.147 32.254 341.147 37.967"/><polyline class="b9e18c39-ab71-4138-bcc8-cdb5813967c0" points="341.147 43.739 253.665 43.739 253.665 38.026 341.147 38.026 341.147 43.739"/><polyline class="a4fc8fce-35b5-4ae4-a06e-75a7604f93cb" points="341.147 49.595 253.665 49.595 253.665 43.882 341.147 43.882 341.147 49.595"/><polyline class="e691d12f-18e4-462f-b7d1-1320e75974a4" points="341.147 15.364 253.665 15.364 258.159 10.892 336.654 10.892 341.147 15.364"/><path class="a5ac94fe-b4cf-446a-9225-5915b64a2202" d="M338.8828,24.6919a3.1695,3.1695,0,0,1,0-6.3389v6.3389"/><polyline class="a4fc8fce-35b5-4ae4-a06e-75a7604f93cb" points="341.147 25.646 253.665 25.646 253.665 15.364 341.147 15.364 341.147 25.646"/><polyline class="b9e18c39-ab71-4138-bcc8-cdb5813967c0" points="336.877 23.844 257.717 23.844 257.717 17.504 336.877 17.504 336.877 23.844"/><path class="a559acb4-6dd7-49fd-9600-b0be6868b0cb" d="M338.2315,20.6963c0,.5864-.6437,1.0615-1.44,1.0615s-1.44-.4751-1.44-1.0615.6445-1.0606,1.44-1.0606S338.2315,20.1108,338.2315,20.6963Z"/><rect class="a559acb4-6dd7-49fd-9600-b0be6868b0cb" x="294.0947" y="27.4424" width="14.2324" height="0.5947"/><path class="a559acb4-6dd7-49fd-9600-b0be6868b0cb" d="M308.7509,30.2437c0,.5625-.664,1.0185-1.4834,1.0185-.8174,0-1.4814-.456-1.4814-1.0185s.664-1.0181,1.4814-1.0181C308.0869,29.2256,308.7509,29.6812,308.7509,30.2437Z"/><rect class="a559acb4-6dd7-49fd-9600-b0be6868b0cb" x="294.0947" y="33.3838" width="14.2324" height="0.5947"/><path class="a559acb4-6dd7-49fd-9600-b0be6868b0cb" d="M308.7509,36.1851c0,.5625-.664,1.0185-1.4834,1.0185-.8174,0-1.4814-.456-1.4814-1.0185s.664-1.0181,1.4814-1.0181C308.0869,35.167,308.7509,35.6226,308.7509,36.1851Z"/><rect class="a559acb4-6dd7-49fd-9600-b0be6868b0cb" x="322.6455" y="33.3838" width="14.2314" height="0.5947"/><path class="a559acb4-6dd7-49fd-9600-b0be6868b0cb" d="M337.3017,36.1851c0,.5625-.6641,1.0185-1.4834,1.0185s-1.4814-.456-1.4814-1.0185.6621-1.0181,1.4814-1.0181S337.3017,35.6226,337.3017,36.1851Z"/><path class="a559acb4-6dd7-49fd-9600-b0be6868b0cb" d="M337.3017,42.126c0,.5625-.6641,1.0185-1.4834,1.0185s-1.4814-.456-1.4814-1.0185.6621-1.0181,1.4814-1.0181S337.3017,41.5635,337.3017,42.126Z"/><rect class="a559acb4-6dd7-49fd-9600-b0be6868b0cb" x="322.6455" y="45.2666" width="14.2314" height="0.5942"/><path class="a559acb4-6dd7-49fd-9600-b0be6868b0cb" d="M337.3017,48.0674c0,.5625-.6641,1.0185-1.4834,1.0185s-1.4814-.456-1.4814-1.0185.6621-1.0186,1.4814-1.0186S337.3017,47.5049,337.3017,48.0674Z"/><rect class="a559acb4-6dd7-49fd-9600-b0be6868b0cb" x="294.0947" y="39.3257" width="14.2324" height="0.5942"/><path class="a559acb4-6dd7-49fd-9600-b0be6868b0cb" d="M308.7509,42.1265c0,.5625-.664,1.0185-1.4834,1.0185-.8174,0-1.4814-.456-1.4814-1.0185s.664-1.0181,1.4814-1.0181C308.0869,41.1084,308.7509,41.564,308.7509,42.1265Z"/><rect class="a559acb4-6dd7-49fd-9600-b0be6868b0cb" x="294.0947" y="45.2676" width="14.2324" height="0.5937"/><path class="a559acb4-6dd7-49fd-9600-b0be6868b0cb" d="M308.7509,48.0679c0,.563-.6631,1.0185-1.4834,1.0185-.8174,0-1.4814-.4555-1.4814-1.0185s.664-1.0181,1.4814-1.0181C308.0869,47.05,308.7509,47.5054,308.7509,48.0679Z"/><path class="a559acb4-6dd7-49fd-9600-b0be6868b0cb" d="M337.1328,30.2437c0,.5625-.6641,1.0185-1.4833,1.0185s-1.4816-.456-1.4816-1.0185.6621-1.0181,1.4816-1.0181S337.1328,29.6812,337.1328,30.2437Z"/><line class="f91c94d8-f709-40b9-bf3a-a0c55d86d519" x1="312.1406" y1="26.0845" x2="312.1406" y2="50.0195"/><rect x="216.7089" y="47.7192" width="2.5489" height="2.5542"/><rect x="228.1816" y="47.7192" width="2.5498" height="2.5542"/><rect x="222.4448" y="47.7192" width="2.5493" height="2.5542"/><polyline class="b531d137-7e8e-4b12-b5c9-02f1eb836d2c" points="221.664 211.929 248.609 211.929 248.609 165.957 123.636 165.96 123.636 133.171"/><polyline class="b34cc2f8-04e6-4dc3-980b-8f5ba0f2710e" points="221.599 253.481 115.261 253.481 115.261 228.659 221.599 228.659 221.599 253.481"/><path class="a559acb4-6dd7-49fd-9600-b0be6868b0cb" d="M140.2226,230.8506c-16.8671.6855-16.8671,1.0137-16.8671,1.9941V249.292c0,.9824,0,1.31,16.8671,1.9961,9.834.3984,20.6387.6465,28.2012.6465s18.373-.2481,28.2109-.6465c16.8721-.6856,16.8721-1.0137,16.8721-1.9961V232.8447c0-.9785,0-1.3086-16.8721-1.9941-9.8379-.3985-20.6484-.6465-28.2109-.6465s-18.3692.248-28.2012.6465"/><polyline class="eae43448-ec50-4aa8-aa60-5dc54d270b00" points="221.599 228.659 115.261 228.659 119.951 222.038 216.91 222.038 221.599 228.659"/><polygon class="a18bc2ae-2314-445e-a36f-53a057bbf16e" points="221.599 228.659 115.261 228.659 119.951 222.038 216.91 222.038 221.599 228.659 221.599 228.659"/><path class="b34cc2f8-04e6-4dc3-980b-8f5ba0f2710e" d="M129.6777,248.374a1.002,1.002,0,0,1-.9492,1.0508h-1.333c-1.1006,0-1.8936-4.1894-1.8936-8.3857,0-4.1993.793-8.3916,1.8936-8.3916h1.333a1.0044,1.0044,0,0,1,.9492,1.0546V248.374"/><path class="b34cc2f8-04e6-4dc3-980b-8f5ba0f2710e" d="M133.4415,241.0449c0-4.3213.8065-8.6416,1.9256-8.6416h1.3555a1.03,1.03,0,0,1,.9619,1.0869v15.1084a1.029,1.029,0,0,1-.9619,1.084h-1.3555c-1.1191,0-1.9256-4.3144-1.9256-8.6377"/><path class="b34cc2f8-04e6-4dc3-980b-8f5ba0f2710e" d="M141.3847,241.0518c0-4.4463.8193-8.8907,1.9531-8.8907h1.377a1.0546,1.0546,0,0,1,.9785,1.1182v15.5439a1.0543,1.0543,0,0,1-.9785,1.1172h-1.377c-1.1338,0-1.9531-4.4394-1.9531-8.8886"/><path class="b34cc2f8-04e6-4dc3-980b-8f5ba0f2710e" d="M207.1855,248.374a1.0009,1.0009,0,0,0,.9453,1.0508h1.3359c1.1,0,1.8936-4.1894,1.8936-8.3857,0-4.1993-.7938-8.3916-1.8936-8.3916h-1.3359a1.0032,1.0032,0,0,0-.9453,1.0546V248.374"/><path class="b34cc2f8-04e6-4dc3-980b-8f5ba0f2710e" d="M203.42,241.0449c0-4.3213-.8086-8.6416-1.9248-8.6416H200.14a1.0316,1.0316,0,0,0-.9648,1.0869v15.1084a1.0307,1.0307,0,0,0,.9648,1.084h1.3555c1.1162,0,1.9248-4.3144,1.9248-8.6377"/><path class="b34cc2f8-04e6-4dc3-980b-8f5ba0f2710e" d="M195.4765,241.0518c0-4.4463-.8183-8.8907-1.953-8.8907h-1.377a1.0552,1.0552,0,0,0-.9776,1.1182v15.5439a1.0554,1.0554,0,0,0,.9776,1.1172h1.377c1.1347,0,1.953-4.4394,1.953-8.8886"/><path class="b34cc2f8-04e6-4dc3-980b-8f5ba0f2710e" d="M149.3242,241.0586c0-4.5732.833-9.1377,1.9863-9.1377h1.3984a1.0763,1.0763,0,0,1,.99,1.1475V249.05a1.0773,1.0773,0,0,1-.99,1.1465h-1.3984c-1.1523,0-1.9863-4.5625-1.9863-9.1377"/><path class="b34cc2f8-04e6-4dc3-980b-8f5ba0f2710e" d="M161.71,249.2764a1.1036,1.1036,0,0,1-1.0107,1.1777h-1.417c-1.1709,0-2.0147-4.69-2.0147-9.3867,0-4.6992.8438-9.3906,2.0147-9.3906h1.417a1.1036,1.1036,0,0,1,1.0107,1.1777v16.4219"/><path class="b34cc2f8-04e6-4dc3-980b-8f5ba0f2710e" d="M188.1982,248.5947a1.7809,1.7809,0,0,1-1.6875,1.8594H166.1915a1.78,1.78,0,0,1-1.6876-1.8594v-8.2129a1.7781,1.7781,0,0,1,1.6876-1.8584h20.3192a1.7794,1.7794,0,0,1,1.6875,1.8584v8.2129"/><path class="e691d12f-18e4-462f-b7d1-1320e75974a4" d="M185.8251,248.9658a1.4226,1.4226,0,0,1-1.3486,1.4883H168.2226a1.4221,1.4221,0,0,1-1.35-1.4883v-6.5693a1.4212,1.4212,0,0,1,1.35-1.4873h16.2539a1.4216,1.4216,0,0,1,1.3486,1.4873v6.5693"/><path class="b34cc2f8-04e6-4dc3-980b-8f5ba0f2710e" d="M183.9316,248.4033a1.022,1.022,0,0,1-1.0811.9512H169.8476a1.021,1.021,0,0,1-1.08-.9512v-4.2051a1.0218,1.0218,0,0,1,1.08-.9521h13.0029a1.0227,1.0227,0,0,1,1.0811.9521v4.2051"/><path class="b34cc2f8-04e6-4dc3-980b-8f5ba0f2710e" d="M174.07,250.4541a.47.47,0,0,1-.47.4707h-1.5068a.4717.4717,0,1,1,0-.9434h1.5068a.47.47,0,0,1,.47.4727"/><path class="b34cc2f8-04e6-4dc3-980b-8f5ba0f2710e" d="M177.5751,250.4541a.4711.4711,0,0,1-.4716.4707h-1.5078a.4717.4717,0,0,1,0-.9434h1.5078a.4716.4716,0,0,1,.4716.4727"/><path class="b34cc2f8-04e6-4dc3-980b-8f5ba0f2710e" d="M181.08,250.4541a.4713.4713,0,0,1-.4725.4707h-1.51a.4717.4717,0,0,1,0-.9434h1.51a.4718.4718,0,0,1,.4725.4727"/><polyline class="b34cc2f8-04e6-4dc3-980b-8f5ba0f2710e" points="221.599 228.659 115.261 228.659 115.261 203.841 221.599 203.841 221.599 228.659"/><path class="a559acb4-6dd7-49fd-9600-b0be6868b0cb" d="M140.2226,206.0327c-16.8671.6856-16.8671,1.0137-16.8671,1.9937V224.47c0,.9824,0,1.3125,16.8671,1.9981,9.834.3965,20.6387.6445,28.2012.6445s18.373-.248,28.2109-.6445c16.8721-.6856,16.8721-1.0157,16.8721-1.9981V208.0264c0-.98,0-1.3081-16.8721-1.9937-9.8379-.3984-20.6484-.6465-28.2109-.6465s-18.3692.2481-28.2012.6465"/><polyline class="e691d12f-18e4-462f-b7d1-1320e75974a4" points="221.599 203.841 115.261 203.841 119.951 197.22 216.91 197.22 221.599 203.841"/><polygon class="a18bc2ae-2314-445e-a36f-53a057bbf16e" points="221.599 203.841 115.261 203.841 119.951 197.22 216.91 197.22 221.599 203.841 221.599 203.841"/><path class="b34cc2f8-04e6-4dc3-980b-8f5ba0f2710e" d="M129.6777,223.5518a1.0038,1.0038,0,0,1-.9492,1.0527h-1.333c-1.1006,0-1.8936-4.1914-1.8936-8.3867,0-4.1992.793-8.3882,1.8936-8.3882h1.333a1.0034,1.0034,0,0,1,.9492,1.0522v14.67"/><path class="b34cc2f8-04e6-4dc3-980b-8f5ba0f2710e" d="M133.4415,216.2236c0-4.3222.8065-8.6382,1.9256-8.6382h1.3555a1.0292,1.0292,0,0,1,.9619,1.0855v15.1074a1.0272,1.0272,0,0,1-.9619,1.0821h-1.3555c-1.1191,0-1.9256-4.3145-1.9256-8.6368"/><path class="b34cc2f8-04e6-4dc3-980b-8f5ba0f2710e" d="M141.3847,216.2314c0-4.4472.8193-8.8881,1.9531-8.8881h1.377a1.0541,1.0541,0,0,1,.9785,1.1167v15.541a1.0531,1.0531,0,0,1-.9785,1.1172h-1.377c-1.1338,0-1.9531-4.4375-1.9531-8.8868"/><path class="b34cc2f8-04e6-4dc3-980b-8f5ba0f2710e" d="M207.1855,223.5518a1.0027,1.0027,0,0,0,.9453,1.0527h1.3359c1.1,0,1.8936-4.1914,1.8936-8.3867,0-4.1992-.7938-8.3882-1.8936-8.3882h-1.3359a1.0022,1.0022,0,0,0-.9453,1.0522v14.67"/><path class="b34cc2f8-04e6-4dc3-980b-8f5ba0f2710e" d="M203.42,216.2236c0-4.3222-.8086-8.6382-1.9248-8.6382H200.14a1.0309,1.0309,0,0,0-.9648,1.0855v15.1074a1.029,1.029,0,0,0,.9648,1.0821h1.3555c1.1162,0,1.9248-4.3145,1.9248-8.6368"/><path class="b34cc2f8-04e6-4dc3-980b-8f5ba0f2710e" d="M195.4765,216.2314c0-4.4472-.8183-8.8881-1.953-8.8881h-1.377a1.0548,1.0548,0,0,0-.9776,1.1167v15.541a1.0537,1.0537,0,0,0,.9776,1.1172h1.377c1.1347,0,1.953-4.4375,1.953-8.8868"/><path class="b34cc2f8-04e6-4dc3-980b-8f5ba0f2710e" d="M149.3242,216.2373c0-4.5723.833-9.1343,1.9863-9.1343h1.3984a1.0759,1.0759,0,0,1,.99,1.146v15.9785a1.0772,1.0772,0,0,1-.99,1.1465h-1.3984c-1.1533,0-1.9863-4.5625-1.9863-9.1367"/><path class="b34cc2f8-04e6-4dc3-980b-8f5ba0f2710e" d="M161.71,224.4541a1.1036,1.1036,0,0,1-1.0107,1.1777h-1.417c-1.1709,0-2.0147-4.6875-2.0147-9.3867,0-4.6972.8438-9.3862,2.0147-9.3862h1.417a1.1034,1.1034,0,0,1,1.0107,1.1772v16.418"/><path class="b34cc2f8-04e6-4dc3-980b-8f5ba0f2710e" d="M188.1982,223.7725a1.78,1.78,0,0,1-1.6875,1.8593H166.1915a1.7783,1.7783,0,0,1-1.6876-1.8593V215.56a1.7779,1.7779,0,0,1,1.6876-1.8575h20.3192a1.7792,1.7792,0,0,1,1.6875,1.8575v8.2129"/><path class="e691d12f-18e4-462f-b7d1-1320e75974a4" d="M185.8251,224.1455a1.422,1.422,0,0,1-1.3486,1.4863H168.2226a1.4215,1.4215,0,0,1-1.35-1.4863v-6.57a1.4221,1.4221,0,0,1,1.35-1.4883h16.2539a1.4226,1.4226,0,0,1,1.3486,1.4883v6.57"/><path class="b34cc2f8-04e6-4dc3-980b-8f5ba0f2710e" d="M183.9316,223.583a1.0233,1.0233,0,0,1-1.0811.9512H169.8476a1.0224,1.0224,0,0,1-1.08-.9512v-4.207a1.0223,1.0223,0,0,1,1.08-.9512h13.0029a1.0232,1.0232,0,0,1,1.0811.9512v4.207"/><path class="b34cc2f8-04e6-4dc3-980b-8f5ba0f2710e" d="M174.07,225.6318a.47.47,0,0,1-.47.4707h-1.5068a.4717.4717,0,1,1,0-.9433h1.5068a.47.47,0,0,1,.47.4726"/><path class="b34cc2f8-04e6-4dc3-980b-8f5ba0f2710e" d="M177.5751,225.6318a.4711.4711,0,0,1-.4716.4707h-1.5078a.4717.4717,0,0,1,0-.9433h1.5078a.4715.4715,0,0,1,.4716.4726"/><path class="b34cc2f8-04e6-4dc3-980b-8f5ba0f2710e" d="M181.08,225.6318a.4713.4713,0,0,1-.4725.4707h-1.51a.4717.4717,0,0,1,0-.9433h1.51a.4717.4717,0,0,1,.4725.4726"/><rect class="bdf7acbc-e755-4497-808d-afbde3603a2a" x="115.3399" y="236.1563" width="40.5498" height="10"/><rect class="bdf7acbc-e755-4497-808d-afbde3603a2a" x="178.7309" y="210.6973" width="42.8335" height="10"/><circle cx="78.3726" cy="134.1172" r="1.591"/><circle cx="123.812" cy="134.1172" r="1.591"/><path d="M229.9975,133.7563a1.5913,1.5913,0,1,1-1.5913-1.5917A1.5908,1.5908,0,0,1,229.9975,133.7563Z"/><path d="M275.3066,133.7563a1.5913,1.5913,0,1,1-1.5908-1.5917A1.59,1.59,0,0,1,275.3066,133.7563Z"/><circle cx="118.706" cy="91.6006" r="1.5913"/><circle cx="126.4335" cy="91.6006" r="1.5913"/><path d="M228.3662,91.6006a1.5914,1.5914,0,1,1-1.5914-1.5913A1.5913,1.5913,0,0,1,228.3662,91.6006Z"/><path d="M236.5,91.6006a1.5914,1.5914,0,1,1-1.5913-1.5913A1.5912,1.5912,0,0,1,236.5,91.6006Z"/><path d="M274.3808,91.6006a1.593,1.593,0,0,1-3.1826,0,1.5913,1.5913,0,1,1,3.1826,0Z"/><path d="M82.66,91.6006a1.5913,1.5913,0,1,1-1.5908-1.5913A1.5908,1.5908,0,0,1,82.66,91.6006Z"/><rect class="bdf7acbc-e755-4497-808d-afbde3603a2a" x="41.2017" y="39.2388" width="42.3765" height="10"/><rect class="bdf7acbc-e755-4497-808d-afbde3603a2a" x="151.1152" y="39.2388" width="41.4629" height="10"/><rect class="bdf7acbc-e755-4497-808d-afbde3603a2a" x="293.4825" y="39.2388" width="42.3769" height="10"/><line class="aae3b2f5-e5c3-495b-bb66-c0e92e729959" x1="279.4687" y1="108.1523" x2="287.6885" y2="108.1523"/><path d="M290.0507,107.127a43.0041,43.0041,0,0,1-4.0547-1.4913v5.044a39.81,39.81,0,0,1,4.0547-1.4912,29.54,29.54,0,0,1,4.4141-1.03A29.5755,29.5755,0,0,1,290.0507,107.127Z"/><line class="aae3b2f5-e5c3-495b-bb66-c0e92e729959" x1="73.0625" y1="106.6641" x2="64.8428" y2="106.6641"/><path d="M62.4805,107.69a42.9672,42.9672,0,0,1,4.0547,1.4912v-5.044a39.7914,39.7914,0,0,1-4.0547,1.4912,29.5366,29.5366,0,0,1-4.414,1.03A29.5618,29.5618,0,0,1,62.4805,107.69Z"/><polyline class="a559acb4-6dd7-49fd-9600-b0be6868b0cb" points="270.562 132.141 232.156 132.141 232.156 93.736 270.562 93.736 270.562 132.141"/><polygon class="aae3b2f5-e5c3-495b-bb66-c0e92e729959" points="279.714 132.141 223.005 132.141 223.005 93.736 279.714 93.736 279.714 132.141 279.714 132.141"/><path d="M238.7861,112.1094a.8428.8428,0,1,0,0,1.6855h9.41a.8428.8428,0,1,0,0-1.6855h-9.41"/><polyline points="239.138 115.754 239.138 110.121 235.326 112.926 239.138 115.754"/><path d="M254.5235,112.084a.8418.8418,0,1,0,0,1.6836h9.4091a.8418.8418,0,1,0,0-1.6836h-9.4091"/><polyline points="263.58 110.121 263.58 115.754 267.393 112.952 263.58 110.121"/><path d="M250.53,116.1016v9.41a.8423.8423,0,1,0,1.6846,0v-9.41a.8423.8423,0,0,0-1.6846,0"/><polyline points="254.175 125.16 248.545 125.16 251.347 128.972 254.175 125.16"/><path d="M250.5058,100.3652v9.4112a.8424.8424,0,1,0,1.6847,0v-9.4112a.8424.8424,0,0,0-1.6847,0"/><polyline points="248.545 100.718 254.175 100.718 251.374 96.906 248.545 100.718"/><path d="M248.5361,114.5879l-6.6572,6.6543a.8431.8431,0,0,0,1.1923,1.1924l6.6573-6.6553a.8428.8428,0,0,0-1.1924-1.1914"/><polyline points="244.709 123.57 240.727 119.588 240.012 124.268 244.709 123.57"/><path d="M259.6455,103.4434l-6.6553,6.6543a.8428.8428,0,0,0,1.19,1.1933l6.6563-6.6562a.8424.8424,0,1,0-1.1914-1.1914"/><polyline points="258.009 102.309 261.991 106.287 262.706 101.61 258.009 102.309"/><path d="M253.01,114.5713a.8423.8423,0,0,0,0,1.1914l6.6543,6.6514a.8422.8422,0,0,0,1.1915-1.19l-6.6544-6.6523a.8423.8423,0,0,0-1.1914,0"/><polyline points="261.991 119.588 258.009 123.57 262.689 124.285 261.991 119.588"/><path d="M241.8632,103.459a.8418.8418,0,0,0,0,1.1924l6.6563,6.6552a.8424.8424,0,1,0,1.1914-1.1914l-6.6553-6.6562a.8453.8453,0,0,0-1.1924,0"/><polyline points="240.727 106.287 244.709 102.309 240.029 101.594 240.727 106.287"/><polyline class="a559acb4-6dd7-49fd-9600-b0be6868b0cb" points="120.779 132.141 82.375 132.141 82.375 93.736 120.779 93.736 120.779 132.141"/><polygon class="aae3b2f5-e5c3-495b-bb66-c0e92e729959" points="129.93 132.141 73.224 132.141 73.224 93.736 129.93 93.736 129.93 132.141 129.93 132.141"/><path d="M89.0049,112.1094a.8428.8428,0,1,0,0,1.6855h9.4077a.8428.8428,0,1,0,0-1.6855H89.0049"/><polyline points="89.356 115.754 89.356 110.121 85.545 112.926 89.356 115.754"/><path d="M104.74,112.084a.8418.8418,0,1,0,0,1.6836h9.4092a.8418.8418,0,1,0,0-1.6836H104.74"/><polyline points="113.796 110.121 113.796 115.754 117.609 112.952 113.796 110.121"/><path d="M100.7466,116.1016v9.41a.8423.8423,0,1,0,1.6846,0v-9.41a.8423.8423,0,0,0-1.6846,0"/><polyline points="104.391 125.16 98.761 125.16 101.563 128.972 104.391 125.16"/><path d="M100.7222,100.3652v9.4112a.8423.8423,0,1,0,1.6846,0v-9.4112a.8423.8423,0,0,0-1.6846,0"/><polyline points="98.761 100.718 104.391 100.718 101.59 96.906 98.761 100.718"/><path d="M98.7525,114.5879l-6.6553,6.6543a.8428.8428,0,0,0,1.1914,1.1924l6.6563-6.6553a.8428.8428,0,0,0-1.1924-1.1914"/><polyline points="94.925 123.57 90.946 119.588 90.23 124.268 94.925 123.57"/><path d="M109.8619,103.4434l-6.6553,6.6543a.8428.8428,0,0,0,1.19,1.1933l6.6563-6.6562a.8424.8424,0,1,0-1.1914-1.1914"/><polyline points="108.225 102.309 112.208 106.287 112.922 101.61 108.225 102.309"/><path d="M103.2261,114.5713a.8423.8423,0,0,0,0,1.1914l6.6543,6.6514a.8421.8421,0,1,0,1.1914-1.19l-6.6543-6.6523a.8423.8423,0,0,0-1.1914,0"/><polyline points="112.208 119.588 108.225 123.57 112.906 124.285 112.208 119.588"/><path d="M92.0816,103.459a.8417.8417,0,0,0,0,1.1924l6.6543,6.6552a.8424.8424,0,1,0,1.1914-1.1914L93.273,103.459a.8441.8441,0,0,0-1.1914,0"/><polyline points="90.946 106.287 94.925 102.309 90.248 101.594 90.946 106.287"/><rect class="bdf7acbc-e755-4497-808d-afbde3603a2a" x="239.1679" y="72.1035" width="24.3838" height="21.5586"/><rect class="bdf7acbc-e755-4497-808d-afbde3603a2a" x="89.3819" y="72.1035" width="24.3818" height="21.5586"/><rect class="bdf7acbc-e755-4497-808d-afbde3603a2a" x="239.1679" y="132.1035" width="24.3838" height="21.5586"/><rect class="bdf7acbc-e755-4497-808d-afbde3603a2a" x="89.3819" y="132.1035" width="24.3818" height="21.5586"/></g><g id="baa8fcd9-80a1-43b2-b8d1-b430e12829a3" data-name="Text"><path d="M5.4189,1.2725h.8819V3.94H9.6123V1.2725h.8818V7.728H9.6123V4.709H6.3008V7.728H5.4189Z"/><path d="M15.1831,3.4912a2.3779,2.3779,0,0,1,.6226,1.7827,3.0733,3.0733,0,0,1-.5489,1.8789,1.9781,1.9781,0,0,1-1.7026.7422,1.9151,1.9151,0,0,1-1.5288-.6562,2.6047,2.6047,0,0,1-.5664-1.7632,2.8184,2.8184,0,0,1,.5967-1.8877,1.9959,1.9959,0,0,1,1.603-.7026A2.1041,2.1041,0,0,1,15.1831,3.4912Zm-.49,3.1279a2.99,2.99,0,0,0,.2881-1.3232,2.384,2.384,0,0,0-.2081-1.0713,1.1693,1.1693,0,0,0-1.1362-.6494,1.1177,1.1177,0,0,0-1.041.5532,2.588,2.588,0,0,0-.3252,1.334,2.25,2.25,0,0,0,.3252,1.251,1.1414,1.1414,0,0,0,1.0322.5A1.0748,1.0748,0,0,0,14.6929,6.6191Z"/><path d="M17.2446,6.2515a1.1334,1.1334,0,0,0,.2017.6064,1.2771,1.2771,0,0,0,1.0561.3823,1.5872,1.5872,0,0,0,.7881-.1909.6332.6332,0,0,0,.34-.5913.5047.5047,0,0,0-.272-.4614,3.2643,3.2643,0,0,0-.6865-.2241l-.6377-.1582a3.1459,3.1459,0,0,1-.9-.334.9957.9957,0,0,1-.5171-.8877,1.3508,1.3508,0,0,1,.4868-1.0811,1.9565,1.9565,0,0,1,1.3091-.4131,1.8264,1.8264,0,0,1,1.5513.6241,1.3432,1.3432,0,0,1,.289.8525h-.7456a.8947.8947,0,0,0-.1929-.4854,1.2528,1.2528,0,0,0-.9653-.31,1.1762,1.1762,0,0,0-.6938.1709.5306.5306,0,0,0-.2359.4507.5539.5539,0,0,0,.31.4907,1.8906,1.8906,0,0,0,.5273.1929l.5318.1274a4.16,4.16,0,0,1,1.1621.4,1.06,1.06,0,0,1,.46.9536A1.4461,1.4461,0,0,1,19.93,7.4512a2.0655,2.0655,0,0,1-1.4678.457,1.9814,1.9814,0,0,1-1.5029-.477,1.7891,1.7891,0,0,1-.4732-1.18Z"/><path d="M21.4248,1.7075h.7983v1.314h.75v.646h-.75V6.7393a.3328.3328,0,0,0,.1665.33.708.708,0,0,0,.3072.0484q.0572,0,.123-.0029c.044-.002.0948-.0069.1533-.0147V7.728a1.76,1.76,0,0,1-.2827.0572,2.6918,2.6918,0,0,1-.3178.0175.8558.8558,0,0,1-.75-.2837,1.2605,1.2605,0,0,1-.1973-.7358V3.6675h-.6357v-.646h.6357Z"/><path d="M26.5391,3.272V2.6655a3.1961,3.1961,0,0,0,1.1928-.2793,1.3728,1.3728,0,0,0,.5044-.9248h.6231V7.728h-.8423V3.272Z"/><path d="M48.1265,42.21a2.04,2.04,0,0,1,.6591,1.3047h-.7568a1.4411,1.4411,0,0,0-1.562-1.2032,1.6825,1.6825,0,0,0-1.3423.5962,2.7581,2.7581,0,0,0-.5107,1.8277,2.6956,2.6956,0,0,0,.4614,1.6362,1.5988,1.5988,0,0,0,1.3769.6274,1.4461,1.4461,0,0,0,1.2828-.66,2.5454,2.5454,0,0,0,.3486-.9141H48.84a2.6036,2.6036,0,0,1-.6626,1.52,2.3431,2.3431,0,0,1-1.8193.7383,2.3817,2.3817,0,0,1-1.6572-.6059,3.7675,3.7675,0,0,1-.22-4.5576,2.4066,2.4066,0,0,1,1.977-.8833A2.3,2.3,0,0,1,48.1265,42.21Z"/><path d="M49.8423,41.7915h.914l2.856,4.6362V41.7915h.7407V47.53h-.8716L50.583,42.8989V47.53h-.7407Z"/><path d="M57.28,41.7915h.8759L60.2349,47.53h-.85l-.5977-1.7188H56.54L55.9185,47.53h-.795Zm1.2866,3.3867-.8818-2.5351-.9165,2.5351Z"/><path d="M62.79,41.7915h2.563a1.7383,1.7383,0,0,1,1.2276.4316,1.5686,1.5686,0,0,1,.4673,1.2129,1.7674,1.7674,0,0,1-.417,1.17,1.571,1.571,0,0,1-1.2764.498H63.5659V47.53H62.79Zm3.01.7891a1.666,1.666,0,0,0-.7007-.1211H63.5659v1.9883h1.5332a1.4547,1.4547,0,0,0,.8418-.2227.8864.8864,0,0,0,.3233-.7852A.8647.8647,0,0,0,65.8,42.5806Z"/><path d="M70.9741,43.7637a2.1123,2.1123,0,0,1,.5537,1.5844,2.734,2.734,0,0,1-.4878,1.67,1.7578,1.7578,0,0,1-1.5136.66,1.7019,1.7019,0,0,1-1.3589-.5835,2.3167,2.3167,0,0,1-.5034-1.5669,2.5072,2.5072,0,0,1,.53-1.6782,1.7733,1.7733,0,0,1,1.4248-.6245A1.87,1.87,0,0,1,70.9741,43.7637Zm-.4355,2.78a2.659,2.659,0,0,0,.2563-1.1762,2.1119,2.1119,0,0,0-.185-.9517,1.039,1.039,0,0,0-1.01-.5776.9937.9937,0,0,0-.9253.4917,2.3034,2.3034,0,0,0-.289,1.186,2.0023,2.0023,0,0,0,.289,1.1118,1.0156,1.0156,0,0,0,.918.4449A.9548.9548,0,0,0,70.5386,46.5439Z"/><path d="M72.4092,43.3462h.6665v.7226a1.5948,1.5948,0,0,1,.4018-.5136,1.04,1.04,0,0,1,.7369-.3028c.0131,0,.0351.0015.0664.0039s.0844.0079.16.0157v.7422a1.0074,1.0074,0,0,0-.1147-.0157c-.0352-.0024-.0737-.0039-.1153-.0039a1,1,0,0,0-.8149.3418,1.1969,1.1969,0,0,0-.2847.7871V47.53h-.7016Z"/><path d="M75.189,42.1782h.71v1.168h.6665V43.92h-.6665v2.73a.2952.2952,0,0,0,.148.2929.6249.6249,0,0,0,.2729.043c.0337,0,.07-.001.1094-.0024s.0845-.0064.1362-.0132V47.53a1.5567,1.5567,0,0,1-.2514.0508,2.4308,2.4308,0,0,1-.2828.0156.7608.7608,0,0,1-.6665-.252,1.12,1.12,0,0,1-.1757-.6543V43.92h-.565v-.5742h.565Z"/><path d="M77.6841,46.2173a1.0118,1.0118,0,0,0,.1792.539,1.1371,1.1371,0,0,0,.9394.34,1.4049,1.4049,0,0,0,.7-.17.5624.5624,0,0,0,.3023-.5254.4484.4484,0,0,0-.2417-.41,2.9237,2.9237,0,0,0-.61-.1992l-.5669-.1406a2.7858,2.7858,0,0,1-.8-.2969.8842.8842,0,0,1-.4594-.7891,1.1986,1.1986,0,0,1,.4326-.9609,1.7391,1.7391,0,0,1,1.1635-.3672,1.6248,1.6248,0,0,1,1.379.5547,1.1954,1.1954,0,0,1,.2568.7578h-.6626a.7988.7988,0,0,0-.1719-.4311,1.112,1.112,0,0,0-.8579-.2759,1.0471,1.0471,0,0,0-.6167.1518.4723.4723,0,0,0-.21.4009.4921.4921,0,0,0,.2754.4361,1.6678,1.6678,0,0,0,.4688.1713l.4726.1133a3.694,3.694,0,0,1,1.0327.3555.942.942,0,0,1,.41.8476,1.2858,1.2858,0,0,1-.4287.9649,1.8336,1.8336,0,0,1-1.3042.4062,1.7609,1.7609,0,0,1-1.3364-.4238,1.5955,1.5955,0,0,1-.42-1.0488Z"/><path d="M118.4023,238.709v3.5469a2.076,2.076,0,0,0,.2359,1.039,1.2427,1.2427,0,0,0,1.1792.625,1.3868,1.3868,0,0,0,1.352-.6758,2.1367,2.1367,0,0,0,.1924-.9882V238.709h.7837v3.2226a3.7272,3.7272,0,0,1-.2856,1.6289,2.4018,2.4018,0,0,1-3.9556,0,3.7272,3.7272,0,0,1-.2856-1.6289V238.709Z"/><path d="M127.4951,238.709v.6836h-1.93v5.0547h-.7837v-5.0547h-1.93v-.6836Z"/><path d="M129.291,238.709h.876l2.0786,5.7383h-.85l-.5976-1.7188h-2.2471l-.6216,1.7188h-.7949Zm1.2866,3.3867-.8818-2.5352-.9165,2.5352Z"/><path d="M134.8013,238.709h2.563a1.74,1.74,0,0,1,1.2275.4316,1.5671,1.5671,0,0,1,.4673,1.2129,1.7679,1.7679,0,0,1-.417,1.17,1.57,1.57,0,0,1-1.2764.4981h-1.7886v2.4258h-.7758Zm3.01.789a1.6755,1.6755,0,0,0-.7006-.121h-1.5333v1.9882H137.11a1.4544,1.4544,0,0,0,.8417-.2226.8863.8863,0,0,0,.3233-.7852A.8644.8644,0,0,0,137.811,239.498Z"/><path d="M142.9854,240.6816a2.111,2.111,0,0,1,.5537,1.584,2.732,2.732,0,0,1-.4878,1.67,1.7567,1.7567,0,0,1-1.5137.66,1.7009,1.7009,0,0,1-1.3589-.584,2.3143,2.3143,0,0,1-.5034-1.5664,2.5041,2.5041,0,0,1,.53-1.6777,1.7721,1.7721,0,0,1,1.4248-.625A1.8691,1.8691,0,0,1,142.9854,240.6816Zm-.4356,2.7793a2.6554,2.6554,0,0,0,.2564-1.1757,2.1078,2.1078,0,0,0-.1851-.9512,1.0384,1.0384,0,0,0-1.01-.5781.9933.9933,0,0,0-.9253.4921,2.3019,2.3019,0,0,0-.289,1.1856,1.9991,1.9991,0,0,0,.289,1.1113,1.0149,1.0149,0,0,0,.918.4453A.9535.9535,0,0,0,142.55,243.4609Z"/><path d="M144.42,240.2637h.6665v.7226a1.5887,1.5887,0,0,1,.4019-.5136,1.042,1.042,0,0,1,.7368-.3028c.0132,0,.0351.002.0664.0039s.0845.0078.16.0157v.7421a.9247.9247,0,0,0-.1148-.0156c-.0351-.0019-.0737-.0039-.1152-.0039a.9993.9993,0,0,0-.815.3418,1.1973,1.1973,0,0,0-.2846.7871v2.4063H144.42Z"/><path d="M147.2,239.0957h.71v1.168h.6665v.5742H147.91v2.7305a.2945.2945,0,0,0,.1479.2929.6192.6192,0,0,0,.273.043c.0337,0,.07-.001.1093-.002s.0845-.0068.1363-.0136v.5586a1.4977,1.4977,0,0,1-.2515.0507,2.5194,2.5194,0,0,1-.2827.0157.7607.7607,0,0,1-.6665-.252,1.1208,1.1208,0,0,1-.1758-.6543v-2.77h-.5649v-.5742H147.2Z"/><path d="M149.6953,243.1348a1.0129,1.0129,0,0,0,.1792.539,1.1375,1.1375,0,0,0,.9395.34,1.4065,1.4065,0,0,0,.7-.17.5629.5629,0,0,0,.3022-.5254.4484.4484,0,0,0-.2417-.41,2.9819,2.9819,0,0,0-.61-.1992l-.5669-.1406a2.7689,2.7689,0,0,1-.8-.2969.8836.8836,0,0,1-.4595-.7891,1.1973,1.1973,0,0,1,.4326-.9609,1.7415,1.7415,0,0,1,1.1636-.3672,1.6258,1.6258,0,0,1,1.3789.5547,1.1938,1.1938,0,0,1,.2568.7578h-.6626a.8016.8016,0,0,0-.1719-.4316,1.1137,1.1137,0,0,0-.8579-.2754,1.0425,1.0425,0,0,0-.6167.1523.4707.4707,0,0,0-.2094.4.4908.4908,0,0,0,.2754.4355,1.6315,1.6315,0,0,0,.4687.1719l.4727.1133a3.692,3.692,0,0,1,1.0327.3555.9427.9427,0,0,1,.41.8476,1.2855,1.2855,0,0,1-.4287.9649,1.8311,1.8311,0,0,1-1.3042.4062,1.7589,1.7589,0,0,1-1.3364-.4238,1.5981,1.5981,0,0,1-.42-1.0488Z"/><path d="M181.7935,213.252v3.5468a2.0764,2.0764,0,0,0,.2358,1.0391,1.2428,1.2428,0,0,0,1.1792.625,1.3868,1.3868,0,0,0,1.352-.6758,2.1369,2.1369,0,0,0,.1924-.9883V213.252h.7837v3.2226a3.7272,3.7272,0,0,1-.2856,1.6289,2.4018,2.4018,0,0,1-3.9556,0,3.7272,3.7272,0,0,1-.2856-1.6289V213.252Z"/><path d="M190.8862,213.252v.6835h-1.93V218.99h-.7837v-5.0547h-1.93v-.6835Z"/><path d="M192.6821,213.252h.876l2.0786,5.7382h-.85l-.5976-1.7187h-2.2471L191.32,218.99h-.7949Zm1.2866,3.3867-.8818-2.5352-.9165,2.5352Z"/><path d="M198.1924,213.252h2.563a1.74,1.74,0,0,1,1.2275.4316,1.5671,1.5671,0,0,1,.4673,1.2129,1.7679,1.7679,0,0,1-.417,1.17,1.5708,1.5708,0,0,1-1.2764.4981h-1.7885V218.99h-.7759Zm3.01.789a1.6737,1.6737,0,0,0-.7006-.1211h-1.5332v1.9883h1.5332a1.4542,1.4542,0,0,0,.8418-.2227.8862.8862,0,0,0,.3232-.7851A.8644.8644,0,0,0,201.2021,214.041Z"/><path d="M206.3765,215.2246a2.1108,2.1108,0,0,1,.5537,1.584,2.7322,2.7322,0,0,1-.4878,1.67,1.7569,1.7569,0,0,1-1.5137.66,1.7012,1.7012,0,0,1-1.3589-.584,2.3144,2.3144,0,0,1-.5034-1.5664,2.5045,2.5045,0,0,1,.53-1.6778,1.7724,1.7724,0,0,1,1.4248-.625A1.8688,1.8688,0,0,1,206.3765,215.2246Zm-.4356,2.7793a2.6558,2.6558,0,0,0,.2564-1.1758,2.1077,2.1077,0,0,0-.1851-.9511,1.0384,1.0384,0,0,0-1.01-.5782.9932.9932,0,0,0-.9253.4922,2.3009,2.3009,0,0,0-.2891,1.1856,1.9983,1.9983,0,0,0,.2891,1.1113,1.0146,1.0146,0,0,0,.9179.4453A.9537.9537,0,0,0,205.9409,218.0039Z"/><path d="M207.8115,214.8066h.6665v.7227a1.59,1.59,0,0,1,.4019-.5137,1.0423,1.0423,0,0,1,.7368-.3027c.0132,0,.0352.0019.0664.0039s.0845.0078.16.0156v.7422a.9062.9062,0,0,0-.1148-.0156c-.0351-.002-.0737-.0039-.1152-.0039a.999.999,0,0,0-.8149.3418,1.1969,1.1969,0,0,0-.2847.7871V218.99h-.7017Z"/><path d="M210.5908,213.6387h.71v1.1679h.6665v.5743h-.6665v2.73a.2945.2945,0,0,0,.1479.293.6192.6192,0,0,0,.273.043c.0337,0,.07-.001.1094-.002s.0844-.0068.1362-.0137v.5586a1.4978,1.4978,0,0,1-.2515.0508,2.52,2.52,0,0,1-.2827.0156.7608.7608,0,0,1-.6665-.2519,1.121,1.121,0,0,1-.1758-.6543v-2.7695h-.5649v-.5743h.5649Z"/><path d="M213.0864,217.6777a1.013,1.013,0,0,0,.1792.5391,1.1375,1.1375,0,0,0,.9395.34,1.4055,1.4055,0,0,0,.7-.17.5628.5628,0,0,0,.3022-.5254.448.448,0,0,0-.2417-.41,2.97,2.97,0,0,0-.61-.1992l-.5669-.1407a2.7719,2.7719,0,0,1-.8-.2968.8837.8837,0,0,1-.4595-.7891,1.1973,1.1973,0,0,1,.4326-.9609,1.7415,1.7415,0,0,1,1.1636-.3672,1.6257,1.6257,0,0,1,1.3789.5547,1.1936,1.1936,0,0,1,.2568.7578h-.6626a.8021.8021,0,0,0-.1718-.4317,1.1141,1.1141,0,0,0-.858-.2754,1.0426,1.0426,0,0,0-.6167.1524.4707.4707,0,0,0-.2094.4.4908.4908,0,0,0,.2754.4355,1.6345,1.6345,0,0,0,.4687.1719l.4727.1133a3.6961,3.6961,0,0,1,1.0327.3554.9428.9428,0,0,1,.41.8477,1.2854,1.2854,0,0,1-.4288.9648,1.8311,1.8311,0,0,1-1.3042.4063,1.7591,1.7591,0,0,1-1.3364-.4238,1.5982,1.5982,0,0,1-.42-1.0489Z"/><path d="M157.39,42.21a2.04,2.04,0,0,1,.6592,1.3047h-.7568a1.4411,1.4411,0,0,0-1.562-1.2032,1.6825,1.6825,0,0,0-1.3423.5962,2.7581,2.7581,0,0,0-.5108,1.8277,2.6949,2.6949,0,0,0,.4615,1.6362,1.5988,1.5988,0,0,0,1.3769.6274,1.446,1.446,0,0,0,1.2827-.66,2.5435,2.5435,0,0,0,.3487-.9141h.7563a2.6036,2.6036,0,0,1-.6626,1.52,2.3431,2.3431,0,0,1-1.8193.7383,2.3817,2.3817,0,0,1-1.6572-.6059,3.7674,3.7674,0,0,1-.22-4.5576,2.4068,2.4068,0,0,1,1.9771-.8833A2.3,2.3,0,0,1,157.39,42.21Z"/><path d="M159.106,41.7915h.914l2.856,4.6362V41.7915h.7407V47.53h-.8716l-2.8984-4.6309V47.53h-.7407Z"/><path d="M166.5439,41.7915h.876l2.0786,5.7383h-.85l-.5976-1.7188h-2.2471l-.6216,1.7188h-.7949Zm1.2867,3.3867-.8819-2.5351-.9165,2.5351Z"/><path d="M172.0537,41.7915h2.563a1.738,1.738,0,0,1,1.2275.4316,1.5682,1.5682,0,0,1,.4673,1.2129,1.7669,1.7669,0,0,1-.417,1.17,1.5707,1.5707,0,0,1-1.2763.498H172.83V47.53h-.7759Zm3.01.7891a1.666,1.666,0,0,0-.7007-.1211H172.83v1.9883h1.5332a1.4547,1.4547,0,0,0,.8418-.2227.8863.8863,0,0,0,.3232-.7852A.8647.8647,0,0,0,175.0635,42.5806Z"/><path d="M180.2378,43.7637a2.1127,2.1127,0,0,1,.5537,1.5844,2.734,2.734,0,0,1-.4878,1.67,1.7579,1.7579,0,0,1-1.5137.66,1.7017,1.7017,0,0,1-1.3588-.5835,2.3168,2.3168,0,0,1-.5035-1.5669,2.5073,2.5073,0,0,1,.53-1.6782,1.7732,1.7732,0,0,1,1.4248-.6245A1.87,1.87,0,0,1,180.2378,43.7637Zm-.4356,2.78a2.6591,2.6591,0,0,0,.2564-1.1762,2.1105,2.1105,0,0,0-.1851-.9517,1.0389,1.0389,0,0,0-1.01-.5776.9937.9937,0,0,0-.9253.4917,2.3034,2.3034,0,0,0-.2891,1.186,2.0024,2.0024,0,0,0,.2891,1.1118,1.0156,1.0156,0,0,0,.918.4449A.9547.9547,0,0,0,179.8022,46.5439Z"/><path d="M181.6729,43.3462h.6665v.7226a1.5919,1.5919,0,0,1,.4018-.5136,1.04,1.04,0,0,1,.7368-.3028c.0132,0,.0352.0015.0664.0039s.0845.0079.16.0157v.7422a1.01,1.01,0,0,0-.1147-.0157c-.0352-.0024-.0738-.0039-.1153-.0039a1,1,0,0,0-.8149.3418,1.1963,1.1963,0,0,0-.2847.7871V47.53h-.7016Z"/><path d="M184.4526,42.1782h.71v1.168h.6665V43.92h-.6665v2.73a.2953.2953,0,0,0,.1479.2929.6254.6254,0,0,0,.273.043c.0337,0,.07-.001.1094-.0024s.0844-.0064.1362-.0132V47.53a1.5579,1.5579,0,0,1-.2515.0508,2.4291,2.4291,0,0,1-.2827.0156.7608.7608,0,0,1-.6665-.252,1.12,1.12,0,0,1-.1758-.6543V43.92h-.5649v-.5742h.5649Z"/><path d="M186.9478,46.2173a1.0109,1.0109,0,0,0,.1792.539,1.1371,1.1371,0,0,0,.9394.34,1.4055,1.4055,0,0,0,.7-.17.5623.5623,0,0,0,.3022-.5254.4482.4482,0,0,0-.2417-.41,2.92,2.92,0,0,0-.61-.1992l-.5669-.1406a2.7858,2.7858,0,0,1-.8-.2969.8843.8843,0,0,1-.4595-.7891,1.1989,1.1989,0,0,1,.4326-.9609,1.7394,1.7394,0,0,1,1.1636-.3672,1.6246,1.6246,0,0,1,1.3789.5547,1.1955,1.1955,0,0,1,.2569.7578H188.96a.7988.7988,0,0,0-.1719-.4311,1.1121,1.1121,0,0,0-.8579-.2759,1.0469,1.0469,0,0,0-.6167.1518.472.472,0,0,0-.2095.4009.4921.4921,0,0,0,.2754.4361,1.6681,1.6681,0,0,0,.4687.1713l.4727.1133a3.694,3.694,0,0,1,1.0327.3555.942.942,0,0,1,.41.8476,1.2858,1.2858,0,0,1-.4287.9649,1.8336,1.8336,0,0,1-1.3042.4062,1.7613,1.7613,0,0,1-1.3365-.4238,1.596,1.596,0,0,1-.42-1.0488Z"/><path d="M299.7559,42.21a2.04,2.04,0,0,1,.6591,1.3047h-.7568a1.442,1.442,0,0,0-1.5625-1.2032,1.6822,1.6822,0,0,0-1.3418.5962,2.7581,2.7581,0,0,0-.5107,1.8277,2.689,2.689,0,0,0,.4619,1.6362,1.5963,1.5963,0,0,0,1.3769.6274,1.447,1.447,0,0,0,1.2823-.66,2.5454,2.5454,0,0,0,.3486-.9141h.7558a2.6031,2.6031,0,0,1-.6621,1.52,2.3431,2.3431,0,0,1-1.8193.7383,2.3826,2.3826,0,0,1-1.6572-.6059,3.7656,3.7656,0,0,1-.22-4.5576,2.4063,2.4063,0,0,1,1.9775-.8833A2.299,2.299,0,0,1,299.7559,42.21Z"/><path d="M301.4717,41.7915h.914l2.8565,4.6362V41.7915h.74V47.53h-.8711l-2.8984-4.6309V47.53h-.7412Z"/><path d="M308.91,41.7915h.875l2.0791,5.7383h-.8506l-.5977-1.7188H308.17l-.622,1.7188h-.795Zm1.2861,3.3867-.8818-2.5351-.9161,2.5351Z"/><path d="M314.42,41.7915h2.5625a1.7383,1.7383,0,0,1,1.2276.4316,1.5688,1.5688,0,0,1,.4677,1.2129,1.7656,1.7656,0,0,1-.4179,1.17,1.5689,1.5689,0,0,1-1.2754.498h-1.7891V47.53H314.42Zm3.01.7891a1.67,1.67,0,0,0-.7012-.1211h-1.5332v1.9883h1.5332a1.4536,1.4536,0,0,0,.8418-.2227.8874.8874,0,0,0,.3233-.7852A.8659.8659,0,0,0,317.43,42.5806Z"/><path d="M322.6035,43.7637a2.1123,2.1123,0,0,1,.5537,1.5844,2.74,2.74,0,0,1-.4873,1.67,1.76,1.76,0,0,1-1.5137.66,1.7035,1.7035,0,0,1-1.3593-.5835,2.3144,2.3144,0,0,1-.5039-1.5669,2.5076,2.5076,0,0,1,.5312-1.6782,1.7719,1.7719,0,0,1,1.4238-.6245A1.87,1.87,0,0,1,322.6035,43.7637Zm-.4355,2.78a2.6588,2.6588,0,0,0,.2558-1.1762,2.1056,2.1056,0,0,0-.1845-.9517,1.0394,1.0394,0,0,0-1.0108-.5776.9924.9924,0,0,0-.9248.4917,2.3034,2.3034,0,0,0-.2891,1.186,2.0024,2.0024,0,0,0,.2891,1.1118,1.015,1.015,0,0,0,.918.4449A.9548.9548,0,0,0,322.168,46.5439Z"/><path d="M324.0391,43.3462h.666v.7226a1.5906,1.5906,0,0,1,.4023-.5136,1.0388,1.0388,0,0,1,.7363-.3028c.0137,0,.0352.0015.0665.0039s.0839.0079.16.0157v.7422a1.0181,1.0181,0,0,0-.1152-.0157c-.0352-.0024-.0742-.0039-.1153-.0039a.9988.9988,0,0,0-.8144.3418,1.1968,1.1968,0,0,0-.2852.7871V47.53h-.7011Z"/><path d="M326.8184,42.1782h.71v1.168h.667V43.92h-.667v2.73a.2965.2965,0,0,0,.1475.2929.6289.6289,0,0,0,.2734.043c.0332,0,.07-.001.1094-.0024s.084-.0064.1367-.0132V47.53a1.5739,1.5739,0,0,1-.2519.0508,2.44,2.44,0,0,1-.2832.0156.7616.7616,0,0,1-.6661-.252,1.12,1.12,0,0,1-.1757-.6543V43.92h-.5645v-.5742h.5645Z"/><path d="M329.3135,46.2173a1.0161,1.0161,0,0,0,.1787.539,1.1391,1.1391,0,0,0,.9394.34,1.4088,1.4088,0,0,0,.7012-.17.5628.5628,0,0,0,.3018-.5254.45.45,0,0,0-.2412-.41,2.9423,2.9423,0,0,0-.61-.1992l-.5674-.1406a2.7875,2.7875,0,0,1-.8-.2969.8846.8846,0,0,1-.46-.7891,1.198,1.198,0,0,1,.4336-.9609,1.7359,1.7359,0,0,1,1.163-.3672,1.6246,1.6246,0,0,1,1.3789.5547,1.19,1.19,0,0,1,.2569.7578h-.6621a.8027.8027,0,0,0-.1719-.4311,1.114,1.114,0,0,0-.8584-.2759,1.0432,1.0432,0,0,0-.6162.1518.47.47,0,0,0-.21.4009.4921.4921,0,0,0,.2754.4361,1.68,1.68,0,0,0,.4688.1713l.4726.1133a3.6764,3.6764,0,0,1,1.0322.3555.9413.9413,0,0,1,.41.8476,1.2841,1.2841,0,0,1-.4287.9649,1.8322,1.8322,0,0,1-1.3037.4062,1.7615,1.7615,0,0,1-1.3369-.4238,1.601,1.601,0,0,1-.4209-1.0488Z"/><path d="M149.5669,189.2637a2.2941,2.2941,0,0,1,.7412,1.4677h-.8511a1.6213,1.6213,0,0,0-1.7573-1.3535,1.8925,1.8925,0,0,0-1.51.6709,3.1021,3.1021,0,0,0-.5752,2.0562,3.029,3.029,0,0,0,.5191,1.84,1.8,1.8,0,0,0,1.5493.7061,1.6268,1.6268,0,0,0,1.4434-.7427,2.8623,2.8623,0,0,0,.3921-1.0283h.851a2.9322,2.9322,0,0,1-.7456,1.7094,2.6363,2.6363,0,0,1-2.0469.8306,2.6776,2.6776,0,0,1-1.8642-.6816,4.2362,4.2362,0,0,1-.2471-5.1275,2.7074,2.7074,0,0,1,2.2237-.9936A2.5887,2.5887,0,0,1,149.5669,189.2637Z"/><path d="M154.7954,191.0122a2.3779,2.3779,0,0,1,.6226,1.7827,3.0726,3.0726,0,0,1-.5489,1.8789,1.9781,1.9781,0,0,1-1.7026.7422,1.9151,1.9151,0,0,1-1.5288-.6562,2.6047,2.6047,0,0,1-.5664-1.7632,2.8182,2.8182,0,0,1,.5967-1.8877,1.996,1.996,0,0,1,1.603-.7027A2.1042,2.1042,0,0,1,154.7954,191.0122Zm-.49,3.1279a2.99,2.99,0,0,0,.2881-1.3232,2.3854,2.3854,0,0,0-.208-1.0713,1.17,1.17,0,0,0-1.1363-.6494,1.1177,1.1177,0,0,0-1.041.5532,2.588,2.588,0,0,0-.3252,1.334,2.25,2.25,0,0,0,.3252,1.251,1.1414,1.1414,0,0,0,1.0322.5005A1.0748,1.0748,0,0,0,154.3052,194.14Z"/><path d="M156.3877,190.5425h.75v.6679a2.105,2.105,0,0,1,.706-.5932,1.8812,1.8812,0,0,1,.8292-.18,1.3665,1.3665,0,0,1,1.351.6987,2.49,2.49,0,0,1,.1929,1.0943v3.019h-.8027v-2.9663a1.6135,1.6135,0,0,0-.127-.6943.7714.7714,0,0,0-.7632-.44,1.5524,1.5524,0,0,0-.4609.0572,1.1834,1.1834,0,0,0-.57.3867,1.164,1.164,0,0,0-.2569.4814,3.2425,3.2425,0,0,0-.0591.71v2.4653h-.79Z"/><path d="M161.5415,189.2285h.7983v1.314h.75v.646h-.75V194.26a.3328.3328,0,0,0,.1665.3295.708.708,0,0,0,.3072.0484q.0571,0,.123-.0029c.044-.002.0947-.0069.1533-.0147v.6284a1.76,1.76,0,0,1-.2827.0572,2.6918,2.6918,0,0,1-.3178.0175.8558.8558,0,0,1-.75-.2837,1.2605,1.2605,0,0,1-.1973-.7358v-3.1157h-.6357v-.646h.6357Z"/><path d="M163.9014,190.5425h.75v.813a1.8036,1.8036,0,0,1,.4516-.5782,1.1724,1.1724,0,0,1,.8291-.34q.0221,0,.0747.0044c.0347.0029.0948.0088.18.0176v.8349a1.19,1.19,0,0,0-.1294-.0175c-.04-.003-.0825-.0044-.1294-.0044a1.128,1.128,0,0,0-.917.3842,1.346,1.346,0,0,0-.32.8858v2.707h-.79Z"/><path d="M170.2749,191.0122a2.3779,2.3779,0,0,1,.6226,1.7827,3.0733,3.0733,0,0,1-.5489,1.8789,1.9781,1.9781,0,0,1-1.7026.7422,1.9151,1.9151,0,0,1-1.5288-.6562,2.6047,2.6047,0,0,1-.5664-1.7632,2.8182,2.8182,0,0,1,.5967-1.8877,1.996,1.996,0,0,1,1.603-.7027A2.1042,2.1042,0,0,1,170.2749,191.0122Zm-.49,3.1279a2.99,2.99,0,0,0,.2881-1.3232,2.384,2.384,0,0,0-.2081-1.0713,1.1693,1.1693,0,0,0-1.1362-.6494,1.1177,1.1177,0,0,0-1.041.5532,2.588,2.588,0,0,0-.3252,1.334,2.25,2.25,0,0,0,.3252,1.251,1.1414,1.1414,0,0,0,1.0322.5005A1.0748,1.0748,0,0,0,169.7847,194.14Z"/><path d="M171.8887,188.7935h.79v6.4555h-.79Z"/><path d="M173.8848,188.7935h.7895v6.4555h-.7895Z"/><path d="M178.76,190.6719a1.7873,1.7873,0,0,1,.7109.6089,2.121,2.121,0,0,1,.314.8305,5.4946,5.4946,0,0,1,.0693,1.0371h-3.4165a2.0326,2.0326,0,0,0,.335,1.1524,1.1157,1.1157,0,0,0,.97.4341,1.2459,1.2459,0,0,0,.9795-.4107,1.4042,1.4042,0,0,0,.29-.5517h.7764a1.6488,1.6488,0,0,1-.2041.5781,2.0888,2.0888,0,0,1-.3867.5205,1.8189,1.8189,0,0,1-.8833.4746,2.6647,2.6647,0,0,1-.64.07,1.9569,1.9569,0,0,1-1.4775-.64,2.4975,2.4975,0,0,1-.606-1.7906,2.717,2.717,0,0,1,.61-1.8413,2.0056,2.0056,0,0,1,1.5952-.7075A2.121,2.121,0,0,1,178.76,190.6719Zm.2832,1.8481a2.0685,2.0685,0,0,0-.2222-.8218,1.134,1.134,0,0,0-1.0742-.5712,1.1859,1.1859,0,0,0-.9048.3935,1.4934,1.4934,0,0,0-.3872,1Z"/><path d="M180.8765,190.5425h.75v.813a1.8036,1.8036,0,0,1,.4516-.5782,1.1724,1.1724,0,0,1,.8291-.34q.0221,0,.0747.0044c.0347.0029.0948.0088.18.0176v.8349a1.19,1.19,0,0,0-.1294-.0175c-.0395-.003-.0825-.0044-.1294-.0044a1.128,1.128,0,0,0-.917.3842,1.346,1.346,0,0,0-.32.8858v2.707h-.79Z"/><path d="M186.6226,190.793v-.6065a3.1961,3.1961,0,0,0,1.1928-.2793,1.3728,1.3728,0,0,0,.5044-.9248h.6231v6.2666h-.8423v-4.456Z"/><path d="M149.5669,258.4482a2.2946,2.2946,0,0,1,.7412,1.4678h-.8511a1.6221,1.6221,0,0,0-1.7573-1.3535,1.8922,1.8922,0,0,0-1.51.6709,3.1031,3.1031,0,0,0-.5752,2.0557,3.0306,3.0306,0,0,0,.5191,1.8408,1.8,1.8,0,0,0,1.5493.706,1.6263,1.6263,0,0,0,1.4434-.7421,2.8613,2.8613,0,0,0,.3921-1.0293h.851a2.9311,2.9311,0,0,1-.7456,1.71,2.637,2.637,0,0,1-2.0469.8311,2.68,2.68,0,0,1-1.8642-.6817,4.2368,4.2368,0,0,1-.2471-5.1279,2.7071,2.7071,0,0,1,2.2237-.9932A2.5889,2.5889,0,0,1,149.5669,258.4482Z"/><path d="M154.7954,260.1973a2.3765,2.3765,0,0,1,.6226,1.7822,3.0716,3.0716,0,0,1-.5489,1.8789,1.9771,1.9771,0,0,1-1.7026.7422,1.9151,1.9151,0,0,1-1.5288-.6563,2.6042,2.6042,0,0,1-.5664-1.7627,2.82,2.82,0,0,1,.5967-1.8886,1.9971,1.9971,0,0,1,1.603-.7022A2.1026,2.1026,0,0,1,154.7954,260.1973Zm-.49,3.1279a2.9929,2.9929,0,0,0,.2881-1.3242,2.3794,2.3794,0,0,0-.208-1.07,1.1681,1.1681,0,0,0-1.1363-.6495,1.1163,1.1163,0,0,0-1.041.5528,2.5865,2.5865,0,0,0-.3252,1.334,2.248,2.248,0,0,0,.3252,1.2509,1.1407,1.1407,0,0,0,1.0322.501A1.0748,1.0748,0,0,0,154.3052,263.3252Z"/><path d="M156.3877,259.7266h.75v.6679a2.1136,2.1136,0,0,1,.706-.5927,1.88,1.88,0,0,1,.8292-.1807,1.3668,1.3668,0,0,1,1.351.6992,2.4871,2.4871,0,0,1,.1929,1.0938v3.0195h-.8027v-2.9668a1.6122,1.6122,0,0,0-.127-.6934.7714.7714,0,0,0-.7632-.4394,1.5545,1.5545,0,0,0-.4609.0566,1.1848,1.1848,0,0,0-.57.3867,1.1619,1.1619,0,0,0-.2569.4815,3.2383,3.2383,0,0,0-.0591.71v2.4648h-.79Z"/><path d="M161.5415,258.4131h.7983v1.3135h.75v.6464h-.75v3.0723a.3321.3321,0,0,0,.1665.3291.7109.7109,0,0,0,.3072.0479c.0381,0,.0791,0,.123-.002a1.4623,1.4623,0,0,0,.1533-.0156v.6289a1.749,1.749,0,0,1-.2827.0566,2.67,2.67,0,0,1-.3178.0176.8557.8557,0,0,1-.75-.2832,1.26,1.26,0,0,1-.1973-.7363V260.373h-.6357v-.6464h.6357Z"/><path d="M163.9014,259.7266h.75v.8134a1.8034,1.8034,0,0,1,.4516-.5781,1.1729,1.1729,0,0,1,.8291-.3408c.0147,0,.04.0019.0747.0049s.0948.0088.18.0176v.8349a1.1918,1.1918,0,0,0-.1294-.0176c-.04-.0029-.0825-.0039-.1294-.0039a1.1277,1.1277,0,0,0-.917.3838,1.346,1.346,0,0,0-.32.8858v2.707h-.79Z"/><path d="M170.2749,260.1973a2.3765,2.3765,0,0,1,.6226,1.7822,3.0723,3.0723,0,0,1-.5489,1.8789,1.9771,1.9771,0,0,1-1.7026.7422,1.9151,1.9151,0,0,1-1.5288-.6563,2.6042,2.6042,0,0,1-.5664-1.7627,2.82,2.82,0,0,1,.5967-1.8886,1.9971,1.9971,0,0,1,1.603-.7022A2.1026,2.1026,0,0,1,170.2749,260.1973Zm-.49,3.1279a2.9929,2.9929,0,0,0,.2881-1.3242,2.3779,2.3779,0,0,0-.2081-1.07,1.1678,1.1678,0,0,0-1.1362-.6495,1.1163,1.1163,0,0,0-1.041.5528,2.5865,2.5865,0,0,0-.3252,1.334,2.248,2.248,0,0,0,.3252,1.2509,1.1407,1.1407,0,0,0,1.0322.501A1.0748,1.0748,0,0,0,169.7847,263.3252Z"/><path d="M171.8887,257.9785h.79v6.4551h-.79Z"/><path d="M173.8848,257.9785h.7895v6.4551h-.7895Z"/><path d="M178.76,259.8564a1.7958,1.7958,0,0,1,.7109.6084,2.13,2.13,0,0,1,.314.8311,5.4946,5.4946,0,0,1,.0693,1.0371h-3.4165a2.0338,2.0338,0,0,0,.335,1.1524,1.1172,1.1172,0,0,0,.97.4345,1.2479,1.2479,0,0,0,.9795-.4111,1.4073,1.4073,0,0,0,.29-.5518h.7764a1.6519,1.6519,0,0,1-.2041.5782,2.0981,2.0981,0,0,1-.3867.5205,1.8205,1.8205,0,0,1-.8833.4746,2.67,2.67,0,0,1-.64.07,1.9566,1.9566,0,0,1-1.4775-.64,2.4967,2.4967,0,0,1-.606-1.791,2.7156,2.7156,0,0,1,.61-1.8408,2.0057,2.0057,0,0,1,1.5952-.708A2.1227,2.1227,0,0,1,178.76,259.8564Zm.2832,1.8487a2.0663,2.0663,0,0,0-.2222-.8223,1.1341,1.1341,0,0,0-1.0742-.5713,1.1842,1.1842,0,0,0-.9048.3936,1.4938,1.4938,0,0,0-.3872,1Z"/><path d="M180.8765,259.7266h.75v.8134a1.8034,1.8034,0,0,1,.4516-.5781,1.1729,1.1729,0,0,1,.8291-.3408c.0147,0,.04.0019.0747.0049s.0948.0088.18.0176v.8349a1.1918,1.1918,0,0,0-.1294-.0176c-.0395-.0029-.0825-.0039-.1294-.0039a1.1277,1.1277,0,0,0-.917.3838,1.346,1.346,0,0,0-.32.8858v2.707h-.79Z"/><path d="M186.3789,263.0186a2.7233,2.7233,0,0,1,1.1382-1.0948l.8423-.4873a3.95,3.95,0,0,0,.7939-.5625,1.2338,1.2338,0,0,0,.0308-1.7109,1.1963,1.1963,0,0,0-.8775-.3233,1.1443,1.1443,0,0,0-1.1225.6163,2.2174,2.2174,0,0,0-.1846.9169h-.8027a2.8283,2.8283,0,0,1,.3027-1.34,1.8985,1.8985,0,0,1,1.8115-.9141,1.864,1.864,0,0,1,2.0747,1.8848,1.7692,1.7692,0,0,1-.5307,1.292,5.2019,5.2019,0,0,1-1.1006.7559l-.6011.3339a3.9647,3.9647,0,0,0-.6758.4522,1.6514,1.6514,0,0,0-.5522.8486h3.43v.7471h-4.3115A3.6792,3.6792,0,0,1,186.3789,263.0186Z"/><path d="M82.2339,234.9453a2.7232,2.7232,0,0,1,1.1382-1.0947l.8423-.4873a3.9082,3.9082,0,0,0,.7939-.5635,1.1578,1.1578,0,0,0,.36-.8359,1.1708,1.1708,0,0,0-.3291-.8741,1.1964,1.1964,0,0,0-.8775-.3232,1.1435,1.1435,0,0,0-1.1225.6172,2.2075,2.2075,0,0,0-.1846.916h-.8027a2.8271,2.8271,0,0,1,.3027-1.34,1.8985,1.8985,0,0,1,1.8115-.9141,1.864,1.864,0,0,1,2.0747,1.8848,1.7694,1.7694,0,0,1-.5307,1.292,5.2023,5.2023,0,0,1-1.1006.7558l-.6011.334a3.9709,3.9709,0,0,0-.6758.4521,1.6506,1.6506,0,0,0-.5522.8487h3.43v.7471H81.8984A3.68,3.68,0,0,1,82.2339,234.9453Z"/><path d="M87.127,229.8828h.7675v2.3428a1.7277,1.7277,0,0,1,1.4048-.6944,1.84,1.84,0,0,1,1.4287.6036,2.571,2.571,0,0,1,.5484,1.7822,3.0537,3.0537,0,0,1-.5415,1.8545,1.7588,1.7588,0,0,1-1.5015.7383,1.5472,1.5472,0,0,1-.9072-.2588,2.1882,2.1882,0,0,1-.4712-.4922v.6016h-.728Zm3.019,5.419a2.5115,2.5115,0,0,0,.3188-1.3457,2.2117,2.2117,0,0,0-.3188-1.2305,1.0532,1.0532,0,0,0-.94-.4873,1.315,1.315,0,0,0-.9483.3994,1.7968,1.7968,0,0,0-.4072,1.3184,2.9,2.9,0,0,0,.1675,1.0771,1.155,1.155,0,0,0,1.166.7783A1.0592,1.0592,0,0,0,90.146,235.3018Z"/><path d="M66.34,234.9453a2.7244,2.7244,0,0,1,1.1382-1.0947l.8423-.4873a3.9053,3.9053,0,0,0,.7939-.5635,1.1574,1.1574,0,0,0,.36-.8359,1.1708,1.1708,0,0,0-.3291-.8741,1.196,1.196,0,0,0-.8774-.3232,1.1436,1.1436,0,0,0-1.1226.6172,2.2107,2.2107,0,0,0-.1846.916h-.8027a2.83,2.83,0,0,1,.3027-1.34,1.8985,1.8985,0,0,1,1.8116-.9141,1.8642,1.8642,0,0,1,2.0747,1.8848,1.77,1.77,0,0,1-.5308,1.292,5.2023,5.2023,0,0,1-1.1006.7558l-.6011.334a3.9655,3.9655,0,0,0-.6757.4521,1.6508,1.6508,0,0,0-.5523.8487h3.43v.7471H66.0049A3.68,3.68,0,0,1,66.34,234.9453Z"/><path d="M73.8169,233.5117a.43.43,0,0,0,.3643-.2275.7005.7005,0,0,0,.0527-.3047.6463.6463,0,0,0-.2871-.5889,1.5293,1.5293,0,0,0-.8208-.1826,1.0389,1.0389,0,0,0-.8755.335,1.1136,1.1136,0,0,0-.188.5517h-.7368a1.3664,1.3664,0,0,1,.563-1.2138,2.3,2.3,0,0,1,1.2549-.3409,2.5487,2.5487,0,0,1,1.3452.3164,1.0744,1.0744,0,0,1,.5127.9844v2.711a.3487.3487,0,0,0,.05.1982.2429.2429,0,0,0,.2128.0742,1.0678,1.0678,0,0,0,.1182-.0068c.044-.0039.0908-.0108.1406-.0195v.5839a2.2165,2.2165,0,0,1-.2807.0664,2.0353,2.0353,0,0,1-.2632.0137.6509.6509,0,0,1-.5923-.29,1.1224,1.1224,0,0,1-.1362-.4356,2.0059,2.0059,0,0,1-.6929.55,2.153,2.153,0,0,1-.9956.2325,1.48,1.48,0,0,1-1.0679-.3975,1.319,1.319,0,0,1-.4145-.9941,1.2811,1.2811,0,0,1,.4077-1.0137,1.9392,1.9392,0,0,1,1.07-.4434Zm-1.6626,2.1367a.9271.9271,0,0,0,.5923.1983,1.7977,1.7977,0,0,0,.8071-.1934,1.0876,1.0876,0,0,0,.6582-1.0488v-.6357a1.3835,1.3835,0,0,1-.3721.1542,3.1385,3.1385,0,0,1-.4467.0879l-.4771.0616a1.8354,1.8354,0,0,0-.645.18.6981.6981,0,0,0-.3667.6573A.6481.6481,0,0,0,72.1543,235.6484Z"/><path d="M275.7061,207.9507a2.7218,2.7218,0,0,1,1.1376-1.0947l.8428-.4873a3.9145,3.9145,0,0,0,.794-.5635,1.156,1.156,0,0,0,.3593-.836,1.1715,1.1715,0,0,0-.3281-.874,1.1975,1.1975,0,0,0-.8779-.3237,1.1432,1.1432,0,0,0-1.1221.6172,2.2121,2.2121,0,0,0-.1855.9165h-.8028a2.8485,2.8485,0,0,1,.3028-1.34,1.9,1.9,0,0,1,1.8125-.914,1.8655,1.8655,0,0,1,2.0742,1.8852,1.7678,1.7678,0,0,1-.5313,1.292,5.1864,5.1864,0,0,1-1.1.7559l-.6015.334a3.9409,3.9409,0,0,0-.6758.4521,1.6544,1.6544,0,0,0-.5527.8491h3.43v.7471h-4.31A3.6822,3.6822,0,0,1,275.7061,207.9507Z"/><path d="M280.6,202.8882h.7676v2.3423a1.7313,1.7313,0,0,1,1.4043-.6944,1.84,1.84,0,0,1,1.4287.604,2.5689,2.5689,0,0,1,.5478,1.7823,3.0505,3.0505,0,0,1-.541,1.8549,1.7582,1.7582,0,0,1-1.5019.7383,1.5454,1.5454,0,0,1-.9063-.2588,2.1672,2.1672,0,0,1-.4717-.4922v.6016H280.6Zm3.0186,5.4194a2.5187,2.5187,0,0,0,.3193-1.3462,2.2156,2.2156,0,0,0-.3193-1.23,1.0528,1.0528,0,0,0-.94-.4873,1.3115,1.3115,0,0,0-.9472.3994,1.7965,1.7965,0,0,0-.4082,1.3183,2.9165,2.9165,0,0,0,.1679,1.0777,1.1553,1.1553,0,0,0,1.166.7783A1.0591,1.0591,0,0,0,283.6182,208.3076Z"/><path d="M251.6465,207.9507a2.7248,2.7248,0,0,1,1.1387-1.0947l.8418-.4873a3.9161,3.9161,0,0,0,.7939-.5635,1.231,1.231,0,0,0,.03-1.71,1.1954,1.1954,0,0,0-.877-.3237,1.1455,1.1455,0,0,0-1.123.6172,2.2134,2.2134,0,0,0-.1836.9165h-.8028a2.814,2.814,0,0,1,.3028-1.34,1.8969,1.8969,0,0,1,1.8105-.914,1.8642,1.8642,0,0,1,2.0752,1.8852,1.77,1.77,0,0,1-.53,1.292,5.2107,5.2107,0,0,1-1.1015.7559l-.6006.334a3.9853,3.9853,0,0,0-.6758.4521,1.6529,1.6529,0,0,0-.5517.8491h3.43v.7471h-4.3125A3.6822,3.6822,0,0,1,251.6465,207.9507Z"/><path d="M259.123,206.5171a.43.43,0,0,0,.3643-.2275.6994.6994,0,0,0,.0527-.3047.6463.6463,0,0,0-.2871-.5889,1.5274,1.5274,0,0,0-.8213-.1831,1.039,1.039,0,0,0-.875.3354,1.12,1.12,0,0,0-.1875.5518h-.7373a1.3655,1.3655,0,0,1,.5635-1.2139,2.2963,2.2963,0,0,1,1.2539-.3413,2.5489,2.5489,0,0,1,1.3457.3164,1.0746,1.0746,0,0,1,.5127.9849v2.7114a.3531.3531,0,0,0,.05.1983.2451.2451,0,0,0,.2129.0742,1.0951,1.0951,0,0,0,.1192-.0069c.0429-.0039.09-.0107.1406-.02v.584a2.218,2.218,0,0,1-.2813.0664,2.0357,2.0357,0,0,1-.2636.0137.6511.6511,0,0,1-.5918-.29,1.1378,1.1378,0,0,1-.1368-.4355,1.9962,1.9962,0,0,1-.6923.55,2.1554,2.1554,0,0,1-.9952.2324,1.48,1.48,0,0,1-1.0683-.3974,1.3185,1.3185,0,0,1-.4141-.9942,1.28,1.28,0,0,1,.4072-1.0141,1.9411,1.9411,0,0,1,1.07-.4434Zm-1.6621,2.1372a.9235.9235,0,0,0,.5918.1982,1.7959,1.7959,0,0,0,.8067-.1933,1.0866,1.0866,0,0,0,.6582-1.0493v-.6358a1.3788,1.3788,0,0,1-.3711.1543,3.1772,3.1772,0,0,1-.4473.0879l-.4765.0615a1.8313,1.8313,0,0,0-.6456.18.697.697,0,0,0-.3662.6577A.647.647,0,0,0,257.4609,208.6543Z"/><path d="M114.5557,1.2725h.8818V3.94h3.3115V1.2725h.8819V7.728h-.8819V4.709h-3.3115V7.728h-.8818Z"/><path d="M124.32,3.4912a2.3775,2.3775,0,0,1,.6226,1.7827,3.0732,3.0732,0,0,1-.5488,1.8789,1.9783,1.9783,0,0,1-1.7027.7422,1.9152,1.9152,0,0,1-1.5288-.6562,2.6047,2.6047,0,0,1-.5664-1.7632,2.8184,2.8184,0,0,1,.5967-1.8877,1.9959,1.9959,0,0,1,1.603-.7026A2.1041,2.1041,0,0,1,124.32,3.4912Zm-.49,3.1279a2.99,2.99,0,0,0,.2881-1.3232,2.3854,2.3854,0,0,0-.208-1.0713,1.17,1.17,0,0,0-1.1363-.6494,1.1177,1.1177,0,0,0-1.041.5532,2.588,2.588,0,0,0-.3252,1.334,2.25,2.25,0,0,0,.3252,1.251,1.1415,1.1415,0,0,0,1.0322.5A1.0748,1.0748,0,0,0,123.83,6.6191Z"/><path d="M126.3813,6.2515a1.1342,1.1342,0,0,0,.2017.6064,1.2772,1.2772,0,0,0,1.0562.3823,1.5871,1.5871,0,0,0,.788-.1909.6332.6332,0,0,0,.34-.5913.5045.5045,0,0,0-.272-.4614,3.2643,3.2643,0,0,0-.6865-.2241l-.6377-.1582a3.1471,3.1471,0,0,1-.9-.334.9957.9957,0,0,1-.5171-.8877,1.3508,1.3508,0,0,1,.4868-1.0811,1.9567,1.9567,0,0,1,1.3091-.4131,1.8264,1.8264,0,0,1,1.5513.6241,1.3432,1.3432,0,0,1,.289.8525h-.7456a.8953.8953,0,0,0-.1928-.4854,1.2532,1.2532,0,0,0-.9654-.31,1.1764,1.1764,0,0,0-.6938.1709.5309.5309,0,0,0-.2359.4507.5541.5541,0,0,0,.31.4907,1.8906,1.8906,0,0,0,.5273.1929l.5318.1274a4.16,4.16,0,0,1,1.1621.4,1.06,1.06,0,0,1,.46.9536,1.4461,1.4461,0,0,1-.4819,1.0855,2.0654,2.0654,0,0,1-1.4678.457,1.9814,1.9814,0,0,1-1.5029-.477,1.789,1.789,0,0,1-.4731-1.18Z"/><path d="M130.5615,1.7075h.7984v1.314h.75v.646h-.75V6.7393a.3327.3327,0,0,0,.1665.33.7071.7071,0,0,0,.3071.0484q.0572,0,.123-.0029c.044-.002.0948-.0069.1534-.0147V7.728a1.7638,1.7638,0,0,1-.2828.0572,2.6918,2.6918,0,0,1-.3178.0175.8558.8558,0,0,1-.75-.2837,1.2605,1.2605,0,0,1-.1973-.7358V3.6675h-.6357v-.646h.6357Z"/><path d="M135.4321,6.313A2.7177,2.7177,0,0,1,136.57,5.2188l.8423-.4878a3.9353,3.9353,0,0,0,.7939-.563,1.16,1.16,0,0,0,.36-.8365,1.1706,1.1706,0,0,0-.3291-.874,1.1963,1.1963,0,0,0-.8774-.3237,1.1443,1.1443,0,0,0-1.1226.6172,2.2151,2.2151,0,0,0-.1846.9165H135.25a2.8321,2.8321,0,0,1,.3027-1.34,1.8986,1.8986,0,0,1,1.8116-.914,1.9622,1.9622,0,0,1,1.5771.5845,1.959,1.959,0,0,1,.4976,1.3007,1.7693,1.7693,0,0,1-.5308,1.292,5.2019,5.2019,0,0,1-1.1006.7559l-.6011.334a3.9061,3.9061,0,0,0-.6757.4526,1.6457,1.6457,0,0,0-.5523.8482h3.43v.747h-4.3115A3.68,3.68,0,0,1,135.4321,6.313Z"/><path d="M258.5459,1.2725h.8818V3.94h3.3116V1.2725h.8818V7.728h-.8818V4.709h-3.3116V7.728h-.8818Z"/><path d="M268.31,3.4912a2.3741,2.3741,0,0,1,.623,1.7827,3.0732,3.0732,0,0,1-.5488,1.8789,1.9779,1.9779,0,0,1-1.7031.7422,1.9144,1.9144,0,0,1-1.5284-.6562,2.6047,2.6047,0,0,1-.5664-1.7632,2.8216,2.8216,0,0,1,.5967-1.8877,1.9946,1.9946,0,0,1,1.6026-.7026A2.1028,2.1028,0,0,1,268.31,3.4912Zm-.49,3.1279a2.99,2.99,0,0,0,.2891-1.3232,2.3841,2.3841,0,0,0-.208-1.0713,1.17,1.17,0,0,0-1.1367-.6494,1.1171,1.1171,0,0,0-1.041.5532,2.588,2.588,0,0,0-.3252,1.334,2.25,2.25,0,0,0,.3252,1.251,1.1408,1.1408,0,0,0,1.0322.5A1.0739,1.0739,0,0,0,267.8193,6.6191Z"/><path d="M270.3711,6.2515a1.1419,1.1419,0,0,0,.2021.6064A1.2785,1.2785,0,0,0,271.63,7.24a1.5839,1.5839,0,0,0,.7871-.1909.6328.6328,0,0,0,.3408-.5913.5042.5042,0,0,0-.2724-.4614,3.2467,3.2467,0,0,0-.6866-.2241l-.6367-.1582a3.13,3.13,0,0,1-.9-.334.9962.9962,0,0,1-.5176-.8877,1.3482,1.3482,0,0,1,.4873-1.0811,1.9555,1.9555,0,0,1,1.3086-.4131,1.8274,1.8274,0,0,1,1.5518.6241,1.3468,1.3468,0,0,1,.2891.8525h-.7461a.8923.8923,0,0,0-.1934-.4854,1.2516,1.2516,0,0,0-.9648-.31,1.1729,1.1729,0,0,0-.6934.1709.5313.5313,0,0,0-.2363.4507.5544.5544,0,0,0,.31.4907,1.8927,1.8927,0,0,0,.5274.1929l.5322.1274a4.1646,4.1646,0,0,1,1.1621.4,1.06,1.06,0,0,1,.46.9536,1.4457,1.4457,0,0,1-.4815,1.0855,2.0651,2.0651,0,0,1-1.4677.457,1.98,1.98,0,0,1-1.503-.477,1.7944,1.7944,0,0,1-.4736-1.18Z"/><path d="M274.5518,1.7075h.7978v1.314h.75v.646h-.75V6.7393a.3323.3323,0,0,0,.167.33.7034.7034,0,0,0,.3066.0484q.0572,0,.1231-.0029c.0439-.002.0947-.0069.1533-.0147V7.728a1.7576,1.7576,0,0,1-.2832.0572,2.6727,2.6727,0,0,1-.3174.0175.8532.8532,0,0,1-.75-.2837,1.2576,1.2576,0,0,1-.1972-.7358V3.6675h-.6368v-.646h.6368Z"/><path d="M279.4912,1.2725H280.52l3.2129,5.2158V1.2725h.833V7.728h-.98l-3.2608-5.2094V7.728h-.833Z"/><path d="M17.21,125.6973h4.47v.791H18.0835v1.96h3.1626v.7691H18.0835v2.9355H17.21Z"/><path d="M27.1719,126.1675a2.2941,2.2941,0,0,1,.7412,1.4678H27.062a1.6213,1.6213,0,0,0-1.7573-1.3536,1.8924,1.8924,0,0,0-1.51.6709,3.1021,3.1021,0,0,0-.5752,2.0562,3.029,3.029,0,0,0,.5191,1.84,1.8,1.8,0,0,0,1.5493.7061,1.6265,1.6265,0,0,0,1.4433-.7427,2.86,2.86,0,0,0,.3921-1.0283h.8511a2.9328,2.9328,0,0,1-.7456,1.7095,2.6367,2.6367,0,0,1-2.0469.8305,2.6776,2.6776,0,0,1-1.8642-.6816,4.2362,4.2362,0,0,1-.2471-5.1275,2.7073,2.7073,0,0,1,2.2236-.9936A2.5888,2.5888,0,0,1,27.1719,126.1675Z"/><path d="M32.4,127.916a2.3778,2.3778,0,0,1,.6225,1.7827,3.0732,3.0732,0,0,1-.5488,1.8789,1.9781,1.9781,0,0,1-1.7026.7422,1.9151,1.9151,0,0,1-1.5288-.6562,2.6042,2.6042,0,0,1-.5664-1.7632,2.8191,2.8191,0,0,1,.5966-1.8877,1.9963,1.9963,0,0,1,1.6031-.7026A2.1041,2.1041,0,0,1,32.4,127.916Zm-.49,3.1279a2.9911,2.9911,0,0,0,.288-1.3232,2.3841,2.3841,0,0,0-.208-1.0713A1.1693,1.1693,0,0,0,30.854,128a1.1177,1.1177,0,0,0-1.041.5532,2.588,2.588,0,0,0-.3252,1.334,2.25,2.25,0,0,0,.3252,1.251,1.1414,1.1414,0,0,0,1.0322.5A1.0748,1.0748,0,0,0,31.91,131.0439Z"/><path d="M34.1812,125.6973h4.6757v.791H35.0322v1.96h3.5352v.7471H35.0322v2.1885h3.8907v.769H34.1812Z"/><path d="M43.1553,130.07a1.8186,1.8186,0,0,0,.25.8921,1.625,1.625,0,0,0,1.4746.6416,2.52,2.52,0,0,0,.8618-.1406.9892.9892,0,0,0,.752-.9756.8542.8542,0,0,0-.3184-.7515,3.1581,3.1581,0,0,0-1.0112-.3823l-.8457-.1977a3.7449,3.7449,0,0,1-1.1729-.4263,1.3646,1.3646,0,0,1-.5947-1.2085,1.8878,1.8878,0,0,1,.5845-1.4282,2.3033,2.3033,0,0,1,1.6562-.5581,2.8164,2.8164,0,0,1,1.6753.49,1.7887,1.7887,0,0,1,.69,1.5664h-.82a1.6638,1.6638,0,0,0-.269-.7954,1.53,1.53,0,0,0-1.2993-.5054,1.4615,1.4615,0,0,0-1.0645.3252,1.0391,1.0391,0,0,0-.3237.7559.7424.7424,0,0,0,.3828.6943,5.4689,5.4689,0,0,0,1.1348.3516l.8755.2065a2.6316,2.6316,0,0,1,.977.4087,1.55,1.55,0,0,1,.5952,1.314,1.6528,1.6528,0,0,1-.7592,1.5337,3.3308,3.3308,0,0,1-1.7647.4614,2.5937,2.5937,0,0,1-1.8349-.6152,2.1028,2.1028,0,0,1-.65-1.6568Z"/><path d="M48.8379,127.4463l.9033,3.709.917-3.709h.8857l.9214,3.687.9605-3.687h.7895l-1.3642,4.7065h-.82l-.9565-3.643-.9253,3.643h-.82l-1.3555-4.7065Z"/><path d="M54.959,125.6973h.8027v.8965H54.959Zm0,1.771h.8027v4.6845H54.959Z"/><path d="M57.1128,126.1323h.7983v1.314h.75v.646h-.75v3.0718a.3331.3331,0,0,0,.1665.33.71.71,0,0,0,.3072.0483q.0572,0,.123-.0029c.044-.002.0947-.0069.1533-.0147v.6284a1.76,1.76,0,0,1-.2827.0572,2.6923,2.6923,0,0,1-.3179.0175.8557.8557,0,0,1-.75-.2837,1.2605,1.2605,0,0,1-.1973-.7358v-3.1157h-.6357v-.646h.6357Z"/><path d="M62.5537,127.6968a1.8542,1.8542,0,0,1,.5991,1.3315h-.7675a1.4264,1.4264,0,0,0-.32-.7231,1.0128,1.0128,0,0,0-.8027-.2876,1.109,1.109,0,0,0-1.0791.7373,2.9345,2.9345,0,0,0-.21,1.1806,2.22,2.22,0,0,0,.2983,1.19,1.1569,1.1569,0,0,0,1.7173.1831,1.65,1.65,0,0,0,.397-.8208h.7675a1.8584,1.8584,0,0,1-2.0049,1.8018,1.7955,1.7955,0,0,1-1.4692-.6744,2.5847,2.5847,0,0,1-.5483-1.6855A2.8419,2.8419,0,0,1,59.7314,128a1.94,1.94,0,0,1,1.5308-.69A2.044,2.044,0,0,1,62.5537,127.6968Z"/><path d="M63.9424,125.6753h.7895v2.4082a2.2735,2.2735,0,0,1,.5044-.501,1.6993,1.6993,0,0,1,.9517-.2505,1.4071,1.4071,0,0,1,1.3862.7163,2.45,2.45,0,0,1,.1973,1.0855v3.019H66.96v-2.9663a1.6662,1.6662,0,0,0-.1314-.76.8408.8408,0,0,0-.8071-.3867,1.343,1.343,0,0,0-.8906.3383,1.6287,1.6287,0,0,0-.399,1.2788v2.4961h-.7895Z"/><path d="M296.5869,104.5962h.8818v6.4556h-.8818Z"/><path d="M298.9687,104.5962h2.8838a1.952,1.952,0,0,1,1.38.4858,1.7647,1.7647,0,0,1,.5264,1.3643,1.9852,1.9852,0,0,1-.47,1.3164,1.7677,1.7677,0,0,1-1.4356.56h-2.0117v2.729h-.8731Zm3.3858.8877a1.87,1.87,0,0,0-.7881-.1362h-1.7246v2.2368h1.7246a1.64,1.64,0,0,0,.9473-.2505.997.997,0,0,0,.3633-.8833A.9726.9726,0,0,0,302.3545,105.4839Z"/><path d="M307.2148,104.5962h1.0284l3.2129,5.2158v-5.2158h.833v6.4556h-.9805l-3.2607-5.21v5.21h-.8331Z"/><path d="M316.498,106.4746a1.7843,1.7843,0,0,1,.711.6089,2.098,2.098,0,0,1,.3135.8306,5.4406,5.4406,0,0,1,.07,1.0371h-3.417a2.0358,2.0358,0,0,0,.3349,1.1523,1.116,1.116,0,0,0,.9707.4341,1.2433,1.2433,0,0,0,.9786-.4106,1.3911,1.3911,0,0,0,.29-.5518h.7764a1.6289,1.6289,0,0,1-.2041.5781,2.0827,2.0827,0,0,1-.3858.52,1.8245,1.8245,0,0,1-.8838.4746,2.6614,2.6614,0,0,1-.6406.07,1.9574,1.9574,0,0,1-1.4775-.64,2.501,2.501,0,0,1-.6055-1.79,2.7166,2.7166,0,0,1,.61-1.8413,2.005,2.005,0,0,1,1.5957-.7076A2.12,2.12,0,0,1,316.498,106.4746Zm.2832,1.8482a2.0841,2.0841,0,0,0-.2216-.8218,1.1349,1.1349,0,0,0-1.0742-.5713,1.1862,1.1862,0,0,0-.9053.3935,1.4958,1.4958,0,0,0-.3867,1Z"/><path d="M318.751,105.0312h.7978v1.314h.75v.646h-.75v3.0718a.3325.3325,0,0,0,.167.33.7054.7054,0,0,0,.3067.0483c.038,0,.0791-.001.123-.0029s.0947-.0068.1533-.0147v.6285a1.7554,1.7554,0,0,1-.2832.0571,2.67,2.67,0,0,1-.3174.0176.8535.8535,0,0,1-.75-.2837,1.2581,1.2581,0,0,1-.1972-.7359v-3.1157h-.6367v-.646h.6367Z"/><path d="M321.4551,106.3452l.9033,3.709.917-3.709h.8857l.9209,3.687.961-3.687h.79l-1.3643,4.7066h-.82l-.956-3.6431-.9258,3.6431h-.82l-1.3555-4.7066Z"/><path d="M330.98,106.8149a2.3744,2.3744,0,0,1,.623,1.7828,3.0734,3.0734,0,0,1-.5488,1.8789,1.9781,1.9781,0,0,1-1.7031.7422,1.9141,1.9141,0,0,1-1.5283-.6563,2.6042,2.6042,0,0,1-.5664-1.7632,2.8217,2.8217,0,0,1,.5966-1.8877,1.9949,1.9949,0,0,1,1.6026-.7026A2.1027,2.1027,0,0,1,330.98,106.8149Zm-.49,3.128a2.992,2.992,0,0,0,.289-1.3233,2.3844,2.3844,0,0,0-.208-1.0713,1.17,1.17,0,0,0-1.1367-.6494,1.1172,1.1172,0,0,0-1.041.5532,2.588,2.588,0,0,0-.3252,1.334,2.25,2.25,0,0,0,.3252,1.251,1.1408,1.1408,0,0,0,1.0322.5005A1.074,1.074,0,0,0,330.4893,109.9429Z"/><path d="M332.5937,106.3452h.75v.813a1.8,1.8,0,0,1,.4522-.5781,1.1736,1.1736,0,0,1,.8291-.34c.0146,0,.0391.0015.0742.0044s.0957.0088.18.0176v.835a1.1441,1.1441,0,0,0-.1289-.0176c-.0391-.0029-.083-.0044-.13-.0044a1.125,1.125,0,0,0-.916.3843,1.3429,1.3429,0,0,0-.32.8857v2.7071h-.79Z"/><path d="M335.5459,104.5962h.7588v3.748l2.0244-1.999h1.0088l-1.8057,1.75,1.9073,2.9566h-1.0088l-1.4776-2.3951-.6484.6285v1.7666h-.7588Z"/><path d="M13.166,103.0962h.8814v6.4556H13.166Z"/><path d="M15.5474,103.0962h2.8833a1.9553,1.9553,0,0,1,1.3808.4858,1.7644,1.7644,0,0,1,.5259,1.3643,1.99,1.99,0,0,1-.4692,1.3164,1.7693,1.7693,0,0,1-1.4361.56H16.42v2.729h-.873Zm3.3857.8877a1.8745,1.8745,0,0,0-.7886-.1362H16.42v2.2368h1.7241a1.6364,1.6364,0,0,0,.9473-.2505.996.996,0,0,0,.3638-.8833A.9734.9734,0,0,0,18.9331,103.9839Z"/><path d="M23.7935,103.0962h1.0283l3.2138,5.2158v-5.2158h.8321v6.4556h-.98l-3.26-5.21v5.21h-.8335Z"/><path d="M33.0776,104.9746a1.7843,1.7843,0,0,1,.711.6089,2.098,2.098,0,0,1,.3135.8306,5.4406,5.4406,0,0,1,.07,1.0371h-3.417a2.0351,2.0351,0,0,0,.3349,1.1523,1.116,1.116,0,0,0,.9707.4341,1.2433,1.2433,0,0,0,.9786-.4106,1.3924,1.3924,0,0,0,.29-.5518h.7764a1.6308,1.6308,0,0,1-.2041.5781,2.0827,2.0827,0,0,1-.3858.52,1.8245,1.8245,0,0,1-.8838.4746,2.662,2.662,0,0,1-.6406.07,1.9572,1.9572,0,0,1-1.4775-.64,2.501,2.501,0,0,1-.6055-1.79,2.7171,2.7171,0,0,1,.61-1.8413,2.0053,2.0053,0,0,1,1.5957-.7076A2.12,2.12,0,0,1,33.0776,104.9746Zm.2832,1.8482a2.0841,2.0841,0,0,0-.2216-.8218,1.135,1.135,0,0,0-1.0743-.5713,1.1861,1.1861,0,0,0-.9052.3935,1.4963,1.4963,0,0,0-.3868,1Z"/><path d="M35.3306,103.5312h.7978v1.314h.75v.646h-.75v3.0718a.3325.3325,0,0,0,.167.33.7054.7054,0,0,0,.3067.0483c.038,0,.0791-.001.123-.0029s.0947-.0068.1533-.0147v.6285a1.7576,1.7576,0,0,1-.2832.0571,2.67,2.67,0,0,1-.3174.0176.8535.8535,0,0,1-.75-.2837,1.2581,1.2581,0,0,1-.1972-.7359v-3.1157h-.6368v-.646h.6368Z"/><path d="M38.0337,104.8452l.9033,3.709.917-3.709H40.74l.9209,3.687.961-3.687h.79l-1.3642,4.7066h-.82l-.9561-3.6431-.9258,3.6431h-.82l-1.3555-4.7066Z"/><path d="M47.5581,105.3149a2.3744,2.3744,0,0,1,.6231,1.7828,3.0735,3.0735,0,0,1-.5489,1.8789,1.9781,1.9781,0,0,1-1.7031.7422,1.9141,1.9141,0,0,1-1.5283-.6563,2.6042,2.6042,0,0,1-.5664-1.7632,2.8212,2.8212,0,0,1,.5967-1.8877,1.9945,1.9945,0,0,1,1.6025-.7026A2.1025,2.1025,0,0,1,47.5581,105.3149Zm-.49,3.128a2.9906,2.9906,0,0,0,.289-1.3233,2.3844,2.3844,0,0,0-.208-1.0713,1.17,1.17,0,0,0-1.1367-.6494,1.1172,1.1172,0,0,0-1.041.5532,2.588,2.588,0,0,0-.3252,1.334,2.25,2.25,0,0,0,.3252,1.251,1.1408,1.1408,0,0,0,1.0322.5005A1.074,1.074,0,0,0,47.0679,108.4429Z"/><path d="M49.1724,104.8452h.75v.813a1.7982,1.7982,0,0,1,.4521-.5781,1.1736,1.1736,0,0,1,.8291-.34c.0147,0,.0391.0015.0742.0044s.0957.0088.18.0176v.835a1.1441,1.1441,0,0,0-.1289-.0176c-.039-.0029-.083-.0044-.13-.0044a1.125,1.125,0,0,0-.916.3843,1.3429,1.3429,0,0,0-.32.8857v2.7071h-.79Z"/><path d="M52.1255,103.0962h.7588v3.748l2.0244-1.999h1.0088l-1.8057,1.75,1.9072,2.9566H55.01l-1.4776-2.3951-.6484.6285v1.7666h-.7588Z"/><path d="M282.668,125.1055h4.47v.791H283.541v1.96h3.1621v.7691H283.541v2.9355h-.873Z"/><path d="M292.6289,125.5757a2.2955,2.2955,0,0,1,.7422,1.4678H292.52a1.6213,1.6213,0,0,0-1.7578-1.3536,1.8929,1.8929,0,0,0-1.51.6709,3.1044,3.1044,0,0,0-.5743,2.0562,3.0322,3.0322,0,0,0,.5186,1.84,1.8,1.8,0,0,0,1.5488.7061,1.6285,1.6285,0,0,0,1.4444-.7427,2.8617,2.8617,0,0,0,.3916-1.0283h.8505a2.9322,2.9322,0,0,1-.7451,1.71,2.6366,2.6366,0,0,1-2.0469.8305,2.6767,2.6767,0,0,1-1.8642-.6816,4.2362,4.2362,0,0,1-.2471-5.1275,2.7067,2.7067,0,0,1,2.2237-.9936A2.5858,2.5858,0,0,1,292.6289,125.5757Z"/><path d="M297.8574,127.3242a2.3741,2.3741,0,0,1,.6231,1.7827,3.0726,3.0726,0,0,1-.5489,1.8789,1.9779,1.9779,0,0,1-1.7031.7422,1.914,1.914,0,0,1-1.5283-.6562,2.6047,2.6047,0,0,1-.5664-1.7632,2.8212,2.8212,0,0,1,.5967-1.8877,1.9942,1.9942,0,0,1,1.6025-.7026A2.1025,2.1025,0,0,1,297.8574,127.3242Zm-.49,3.1279a2.99,2.99,0,0,0,.289-1.3232,2.3841,2.3841,0,0,0-.208-1.0713,1.17,1.17,0,0,0-1.1367-.6494,1.1172,1.1172,0,0,0-1.041.5532,2.588,2.588,0,0,0-.3252,1.334,2.25,2.25,0,0,0,.3252,1.251,1.141,1.141,0,0,0,1.0322.5A1.0741,1.0741,0,0,0,297.3672,130.4521Z"/><path d="M299.6387,125.1055h4.6758v.791h-3.8252v1.96h3.5361v.7471h-3.5361v2.1885H304.38v.769h-4.7412Z"/><path d="M308.6133,129.478a1.8134,1.8134,0,0,0,.249.8921,1.6248,1.6248,0,0,0,1.4746.6416,2.5244,2.5244,0,0,0,.8623-.1406.99.99,0,0,0,.752-.9756.8535.8535,0,0,0-.3194-.7515,3.1448,3.1448,0,0,0-1.0107-.3823l-.8457-.1977a3.7459,3.7459,0,0,1-1.1729-.4263,1.3648,1.3648,0,0,1-.5947-1.2085,1.8846,1.8846,0,0,1,.585-1.4282,2.3015,2.3015,0,0,1,1.6552-.5581,2.8167,2.8167,0,0,1,1.6758.49A1.7875,1.7875,0,0,1,312.6133,127h-.82a1.6594,1.6594,0,0,0-.27-.7954,1.5271,1.5271,0,0,0-1.2988-.5054,1.46,1.46,0,0,0-1.0644.3252,1.0383,1.0383,0,0,0-.3233.7559.7427.7427,0,0,0,.3818.6943,5.5019,5.5019,0,0,0,1.1348.3516l.876.2065a2.6374,2.6374,0,0,1,.9775.4087,1.5507,1.5507,0,0,1,.5948,1.314,1.6535,1.6535,0,0,1-.7588,1.5337,3.3332,3.3332,0,0,1-1.7647.4614,2.5956,2.5956,0,0,1-1.8359-.6152,2.1055,2.1055,0,0,1-.6494-1.6568Z"/><path d="M314.2959,126.8545l.9033,3.709.917-3.709h.8858l.9209,3.687.9609-3.687h.79L318.31,131.561h-.82l-.9561-3.643-.9258,3.643h-.82l-1.3555-4.7065Z"/><path d="M320.417,125.1055h.8027v.8965h-.8027Zm0,1.771h.8027v4.6845h-.8027Z"/><path d="M322.57,125.5405h.7979v1.314h.75v.646h-.75v3.0718a.3324.3324,0,0,0,.167.33.7049.7049,0,0,0,.3066.0483q.0572,0,.123-.0029c.044-.002.0948-.0069.1534-.0147v.6284a1.76,1.76,0,0,1-.2832.0572,2.6739,2.6739,0,0,1-.3174.0175.8532.8532,0,0,1-.75-.2836,1.2574,1.2574,0,0,1-.1973-.7359v-3.1157h-.6367v-.646h.6367Z"/><path d="M328.0117,127.105a1.854,1.854,0,0,1,.5987,1.3315h-.7676a1.4221,1.4221,0,0,0-.32-.7231,1.0131,1.0131,0,0,0-.8028-.2876,1.1094,1.1094,0,0,0-1.0791.7373,2.9256,2.9256,0,0,0-.2109,1.1807,2.22,2.22,0,0,0,.2988,1.1894,1.1563,1.1563,0,0,0,1.7168.1831,1.65,1.65,0,0,0,.3975-.8208h.7676a1.8585,1.8585,0,0,1-2.0049,1.8018,1.7973,1.7973,0,0,1-1.47-.6744,2.5872,2.5872,0,0,1-.5478-1.6855,2.8438,2.8438,0,0,1,.6006-1.9292,1.9416,1.9416,0,0,1,1.5312-.69A2.0465,2.0465,0,0,1,328.0117,127.105Z"/><path d="M329.3994,125.0835h.7891v2.4082a2.2824,2.2824,0,0,1,.5049-.501,1.6973,1.6973,0,0,1,.9521-.2505,1.4075,1.4075,0,0,1,1.3857.7163,2.4428,2.4428,0,0,1,.1973,1.0855v3.019h-.8115v-2.9663a1.66,1.66,0,0,0-.1318-.76.8393.8393,0,0,0-.8067-.3867,1.3451,1.3451,0,0,0-.8906.3383,1.6309,1.6309,0,0,0-.3994,1.2788v2.4961h-.7891Z"/><path d="M243.5732,74.6558h2.2891a2.1453,2.1453,0,0,1,1.8086.84,3.132,3.132,0,0,1,.5732,1.9414,3.9205,3.9205,0,0,1-.3388,1.6524,2.0871,2.0871,0,0,1-2.0508,1.3046h-2.2813ZM245.71,79.73a2.0477,2.0477,0,0,0,.6328-.0821,1.3992,1.3992,0,0,0,.7246-.5859,2.4555,2.4555,0,0,0,.3242-.8906,3.4833,3.4833,0,0,0,.0576-.6016,2.8567,2.8567,0,0,0-.414-1.6562,1.5135,1.5135,0,0,0-1.3321-.59h-1.3457V79.73Z"/><path d="M253.3555,75.0737a2.04,2.04,0,0,1,.6591,1.3047h-.7568a1.4418,1.4418,0,0,0-1.5625-1.2031,1.6819,1.6819,0,0,0-1.3418.5962,2.7577,2.7577,0,0,0-.5107,1.8276,2.6891,2.6891,0,0,0,.4619,1.6363,1.5966,1.5966,0,0,0,1.3769.6274,1.4468,1.4468,0,0,0,1.2823-.66,2.5448,2.5448,0,0,0,.3486-.914h.7559a2.6035,2.6035,0,0,1-.6622,1.5195,2.3431,2.3431,0,0,1-1.8193.7383,2.3829,2.3829,0,0,1-1.6572-.606,3.7656,3.7656,0,0,1-.22-4.5576,2.4063,2.4063,0,0,1,1.9775-.8833A2.299,2.299,0,0,1,253.3555,75.0737Z"/><path d="M255.0518,74.6558h2.4755a1.6465,1.6465,0,0,1,1.4414.6015,1.3879,1.3879,0,0,1,.251.82,1.2948,1.2948,0,0,1-.3076.8907,1.5074,1.5074,0,0,1-.4609.3359,1.9433,1.9433,0,0,1,.6592.3789,1.3784,1.3784,0,0,1,.3857,1.0352,1.5971,1.5971,0,0,1-.3486,1.0039,1.9722,1.9722,0,0,1-1.6592.6718h-2.4365Zm2.1865,2.4257a1.7679,1.7679,0,0,0,.7715-.1367.7861.7861,0,0,0,.4336-.7734.7447.7447,0,0,0-.461-.7578,2.0863,2.0863,0,0,0-.7715-.1094h-1.3984v1.7773ZM257.5,79.73a1.196,1.196,0,0,0,1.0273-.4141,1.0345,1.0345,0,0,0,.1934-.6328.842.842,0,0,0-.5625-.8516,2.1555,2.1555,0,0,0-.791-.1211h-1.5547v2.02Z"/><path d="M242.7231,84.2559h2.563a1.7383,1.7383,0,0,1,1.2276.4316,1.5683,1.5683,0,0,1,.4668,1.2129,1.7689,1.7689,0,0,1-.416,1.17,1.5731,1.5731,0,0,1-1.2774.4981H243.499v2.4257h-.7759Zm3.0093.789a1.6635,1.6635,0,0,0-.7-.1211H243.499v1.9883h1.5332a1.4558,1.4558,0,0,0,.8418-.2226.8853.8853,0,0,0,.3233-.7852A.8636.8636,0,0,0,245.7324,85.0449Z"/><path d="M250.9072,86.228a2.1124,2.1124,0,0,1,.5537,1.5845,2.728,2.728,0,0,1-.4882,1.67,1.7559,1.7559,0,0,1-1.5137.66,1.7005,1.7005,0,0,1-1.3584-.5835,2.3194,2.3194,0,0,1-.5029-1.5669,2.5064,2.5064,0,0,1,.5293-1.6782,1.7745,1.7745,0,0,1,1.4257-.6245A1.8706,1.8706,0,0,1,250.9072,86.228Zm-.4355,2.78a2.66,2.66,0,0,0,.2568-1.1763,2.1178,2.1178,0,0,0-.1855-.9516,1.0387,1.0387,0,0,0-1.01-.5777.9952.9952,0,0,0-.9258.4917,2.304,2.304,0,0,0-.289,1.1861,2.0023,2.0023,0,0,0,.289,1.1118,1.016,1.016,0,0,0,.918.4448A.9548.9548,0,0,0,250.4717,89.0083Z"/><path d="M252.3418,85.8105h.666v.7227a1.6055,1.6055,0,0,1,.4024-.5137,1.04,1.04,0,0,1,.7363-.3027c.0137,0,.0351.0015.0664.0039s.085.0078.16.0156v.7422a.9843.9843,0,0,0-.1152-.0156c-.0351-.0025-.0732-.0039-.1152-.0039a.9991.9991,0,0,0-.8145.3418,1.1969,1.1969,0,0,0-.2851.7871v2.4062h-.7012Z"/><path d="M255.1211,84.6426h.7109v1.1679h.666v.5743h-.666v2.73a.2952.2952,0,0,0,.1475.293.6255.6255,0,0,0,.2725.043c.0341,0,.07-.001.1093-.0025s.085-.0063.1367-.0132v.5586a1.51,1.51,0,0,1-.2519.0508,2.3874,2.3874,0,0,1-.2822.0156.7623.7623,0,0,1-.667-.2519,1.12,1.12,0,0,1-.1758-.6543v-2.77h-.5645v-.5743h.5645Z"/><path d="M257.6172,88.6816a1.0079,1.0079,0,0,0,.18.5391,1.1353,1.1353,0,0,0,.9394.34,1.4011,1.4011,0,0,0,.6992-.17.5618.5618,0,0,0,.3028-.5254.4468.4468,0,0,0-.2422-.41,2.891,2.891,0,0,0-.6094-.1992l-.5664-.1407a2.7844,2.7844,0,0,1-.8008-.2968.884.884,0,0,1-.459-.7891,1.1994,1.1994,0,0,1,.4317-.9609,1.7416,1.7416,0,0,1,1.164-.3672,1.6245,1.6245,0,0,1,1.379.5547,1.201,1.201,0,0,1,.2568.7578h-.6631a.7953.7953,0,0,0-.1719-.4312,1.11,1.11,0,0,0-.8574-.2759,1.05,1.05,0,0,0-.6172.1519.474.474,0,0,0-.209.4009.4921.4921,0,0,0,.2754.436,1.6523,1.6523,0,0,0,.4688.1714l.4726.1133a3.7113,3.7113,0,0,1,1.0332.3554.9428.9428,0,0,1,.4092.8477,1.2869,1.2869,0,0,1-.4287.9648,1.8349,1.8349,0,0,1-1.3047.4063,1.76,1.76,0,0,1-1.3359-.4238,1.59,1.59,0,0,1-.42-1.0489Z"/><path d="M93.7876,74.6558h2.2891a2.1454,2.1454,0,0,1,1.8086.84,3.132,3.132,0,0,1,.5732,1.9414,3.9205,3.9205,0,0,1-.3389,1.6524,2.0869,2.0869,0,0,1-2.0508,1.3046H93.7876ZM95.9243,79.73a2.0468,2.0468,0,0,0,.6328-.0821,1.3969,1.3969,0,0,0,.7246-.5859,2.4463,2.4463,0,0,0,.3243-.8906,3.49,3.49,0,0,0,.0571-.6016,2.8522,2.8522,0,0,0-.4141-1.6562,1.5123,1.5123,0,0,0-1.332-.59H94.5713V79.73Z"/><path d="M103.57,75.0737a2.04,2.04,0,0,1,.6592,1.3047h-.7568a1.4411,1.4411,0,0,0-1.562-1.2031,1.6822,1.6822,0,0,0-1.3423.5962,2.7577,2.7577,0,0,0-.5108,1.8276,2.695,2.695,0,0,0,.4615,1.6363,1.599,1.599,0,0,0,1.3769.6274,1.4458,1.4458,0,0,0,1.2827-.66,2.543,2.543,0,0,0,.3487-.914h.7563a2.6039,2.6039,0,0,1-.6626,1.5195,2.3431,2.3431,0,0,1-1.8193.7383,2.3822,2.3822,0,0,1-1.6573-.606,3.7675,3.7675,0,0,1-.22-4.5576,2.4067,2.4067,0,0,1,1.9771-.8833A2.3,2.3,0,0,1,103.57,75.0737Z"/><path d="M105.2661,74.6558h2.4761a1.6451,1.6451,0,0,1,1.44.6015,1.3848,1.3848,0,0,1,.2515.82,1.2951,1.2951,0,0,1-.3081.8907,1.5024,1.5024,0,0,1-.46.3359,1.9434,1.9434,0,0,1,.6587.3789,1.3767,1.3767,0,0,1,.3862,1.0352,1.5976,1.5976,0,0,1-.3491,1.0039,1.9719,1.9719,0,0,1-1.66.6718h-2.436Zm2.1865,2.4257a1.7688,1.7688,0,0,0,.772-.1367.786.786,0,0,0,.4336-.7734.7453.7453,0,0,0-.4609-.7578,2.093,2.093,0,0,0-.7725-.1094h-1.3984v1.7773Zm.2622,2.6485a1.1969,1.1969,0,0,0,1.0274-.4141,1.0374,1.0374,0,0,0,.1929-.6328.8424.8424,0,0,0-.563-.8516,2.1518,2.1518,0,0,0-.791-.1211h-1.5547v2.02Z"/><path d="M92.9375,84.2559h2.563a1.738,1.738,0,0,1,1.2275.4316A1.5682,1.5682,0,0,1,97.1953,85.9a1.7667,1.7667,0,0,1-.417,1.17,1.5707,1.5707,0,0,1-1.2763.4981H93.7134v2.4257h-.7759Zm3.01.789a1.6675,1.6675,0,0,0-.7007-.1211H93.7134v1.9883h1.5332a1.4549,1.4549,0,0,0,.8418-.2226.8865.8865,0,0,0,.3232-.7852A.8649.8649,0,0,0,95.9473,85.0449Z"/><path d="M101.1216,86.228a2.1128,2.1128,0,0,1,.5537,1.5845,2.7337,2.7337,0,0,1-.4878,1.67,1.7577,1.7577,0,0,1-1.5137.66,1.7024,1.7024,0,0,1-1.3589-.5835,2.3176,2.3176,0,0,1-.5034-1.5669,2.5073,2.5073,0,0,1,.53-1.6782,1.7732,1.7732,0,0,1,1.4248-.6245A1.87,1.87,0,0,1,101.1216,86.228Zm-.4356,2.78a2.66,2.66,0,0,0,.2564-1.1763,2.11,2.11,0,0,0-.1851-.9516,1.0388,1.0388,0,0,0-1.01-.5777.9937.9937,0,0,0-.9253.4917,2.3041,2.3041,0,0,0-.2891,1.1861,2.0024,2.0024,0,0,0,.2891,1.1118,1.0153,1.0153,0,0,0,.9179.4448A.9548.9548,0,0,0,100.686,89.0083Z"/><path d="M102.5562,85.8105h.6665v.7227a1.5931,1.5931,0,0,1,.4018-.5137,1.04,1.04,0,0,1,.7368-.3027c.0132,0,.0352.0015.0664.0039s.0845.0078.16.0156v.7422a1.0087,1.0087,0,0,0-.1147-.0156c-.0352-.0025-.0738-.0039-.1153-.0039a1,1,0,0,0-.8149.3418,1.196,1.196,0,0,0-.2847.7871v2.4062h-.7016Z"/><path d="M105.3359,84.6426h.71v1.1679h.6665v.5743h-.6665v2.73a.2955.2955,0,0,0,.1479.293.6269.6269,0,0,0,.273.043c.0337,0,.07-.001.1094-.0025s.0844-.0063.1362-.0132v.5586a1.5367,1.5367,0,0,1-.2515.0508,2.4072,2.4072,0,0,1-.2827.0156.7608.7608,0,0,1-.6665-.2519,1.12,1.12,0,0,1-.1758-.6543v-2.77h-.5649v-.5743h.5649Z"/><path d="M107.8315,88.6816a1.013,1.013,0,0,0,.1792.5391,1.1375,1.1375,0,0,0,.9395.34,1.4055,1.4055,0,0,0,.7-.17.5622.5622,0,0,0,.3022-.5254.448.448,0,0,0-.2417-.41,2.9078,2.9078,0,0,0-.61-.1992l-.5669-.1407a2.7861,2.7861,0,0,1-.8-.2968.8843.8843,0,0,1-.46-.7891,1.1989,1.1989,0,0,1,.4326-.9609,1.7389,1.7389,0,0,1,1.1636-.3672,1.6243,1.6243,0,0,1,1.3789.5547,1.1946,1.1946,0,0,1,.2568.7578h-.6626a.799.799,0,0,0-.1718-.4312,1.1121,1.1121,0,0,0-.8579-.2759,1.0461,1.0461,0,0,0-.6167.1519.472.472,0,0,0-.21.4009.4921.4921,0,0,0,.2754.436,1.6635,1.6635,0,0,0,.4687.1714l.4727.1133a3.6948,3.6948,0,0,1,1.0327.3554.9421.9421,0,0,1,.41.8477,1.2855,1.2855,0,0,1-.4287.9648,1.8337,1.8337,0,0,1-1.3042.4063,1.7613,1.7613,0,0,1-1.3365-.4238,1.5963,1.5963,0,0,1-.42-1.0489Z"/><path d="M243.5732,134.6558h2.2891a2.1453,2.1453,0,0,1,1.8086.84,3.132,3.132,0,0,1,.5732,1.9414,3.9205,3.9205,0,0,1-.3388,1.6524,2.0871,2.0871,0,0,1-2.0508,1.3046h-2.2813ZM245.71,139.73a2.0477,2.0477,0,0,0,.6328-.0821,1.3992,1.3992,0,0,0,.7246-.5859,2.4555,2.4555,0,0,0,.3242-.8906,3.4833,3.4833,0,0,0,.0576-.6016,2.8567,2.8567,0,0,0-.414-1.6562,1.5135,1.5135,0,0,0-1.3321-.59h-1.3457V139.73Z"/><path d="M253.3555,135.0737a2.04,2.04,0,0,1,.6591,1.3047h-.7568a1.4418,1.4418,0,0,0-1.5625-1.2031,1.6819,1.6819,0,0,0-1.3418.5962,2.7577,2.7577,0,0,0-.5107,1.8276,2.6891,2.6891,0,0,0,.4619,1.6363,1.5966,1.5966,0,0,0,1.3769.6274,1.4468,1.4468,0,0,0,1.2823-.66,2.5448,2.5448,0,0,0,.3486-.914h.7559a2.6035,2.6035,0,0,1-.6622,1.5195,2.3431,2.3431,0,0,1-1.8193.7383,2.3829,2.3829,0,0,1-1.6572-.606,3.7656,3.7656,0,0,1-.22-4.5576,2.4063,2.4063,0,0,1,1.9775-.8833A2.299,2.299,0,0,1,253.3555,135.0737Z"/><path d="M255.0518,134.6558h2.4755a1.6465,1.6465,0,0,1,1.4414.6015,1.3879,1.3879,0,0,1,.251.82,1.2948,1.2948,0,0,1-.3076.8907,1.5074,1.5074,0,0,1-.4609.3359,1.9433,1.9433,0,0,1,.6592.3789,1.3784,1.3784,0,0,1,.3857,1.0352,1.5971,1.5971,0,0,1-.3486,1.0039,1.9722,1.9722,0,0,1-1.6592.6718h-2.4365Zm2.1865,2.4257a1.7679,1.7679,0,0,0,.7715-.1367.7861.7861,0,0,0,.4336-.7734.7447.7447,0,0,0-.461-.7578,2.0863,2.0863,0,0,0-.7715-.1094h-1.3984v1.7773ZM257.5,139.73a1.196,1.196,0,0,0,1.0273-.4141,1.0345,1.0345,0,0,0,.1934-.6328.842.842,0,0,0-.5625-.8516,2.1555,2.1555,0,0,0-.791-.1211h-1.5547v2.02Z"/><path d="M242.7231,144.2559h2.563a1.7383,1.7383,0,0,1,1.2276.4316,1.5683,1.5683,0,0,1,.4668,1.2129,1.7689,1.7689,0,0,1-.416,1.17,1.5731,1.5731,0,0,1-1.2774.4981H243.499v2.4257h-.7759Zm3.0093.789a1.6635,1.6635,0,0,0-.7-.1211H243.499v1.9883h1.5332a1.4558,1.4558,0,0,0,.8418-.2226.8853.8853,0,0,0,.3233-.7852A.8636.8636,0,0,0,245.7324,145.0449Z"/><path d="M250.9072,146.228a2.1124,2.1124,0,0,1,.5537,1.5845,2.728,2.728,0,0,1-.4882,1.67,1.7559,1.7559,0,0,1-1.5137.66,1.7005,1.7005,0,0,1-1.3584-.5835,2.3194,2.3194,0,0,1-.5029-1.5669,2.5064,2.5064,0,0,1,.5293-1.6782,1.7745,1.7745,0,0,1,1.4257-.6245A1.8706,1.8706,0,0,1,250.9072,146.228Zm-.4355,2.78a2.66,2.66,0,0,0,.2568-1.1763,2.1178,2.1178,0,0,0-.1855-.9516,1.0387,1.0387,0,0,0-1.01-.5777.9952.9952,0,0,0-.9258.4917,2.304,2.304,0,0,0-.289,1.1861,2.0023,2.0023,0,0,0,.289,1.1118,1.016,1.016,0,0,0,.918.4448A.9548.9548,0,0,0,250.4717,149.0083Z"/><path d="M252.3418,145.8105h.666v.7227a1.6055,1.6055,0,0,1,.4024-.5137,1.04,1.04,0,0,1,.7363-.3027c.0137,0,.0351.0015.0664.0039s.085.0078.16.0156v.7422a.9843.9843,0,0,0-.1152-.0156c-.0351-.0025-.0732-.0039-.1152-.0039a.9991.9991,0,0,0-.8145.3418,1.1969,1.1969,0,0,0-.2851.7871v2.4062h-.7012Z"/><path d="M255.1211,144.6426h.7109v1.1679h.666v.5743h-.666v2.73a.2952.2952,0,0,0,.1475.293.6255.6255,0,0,0,.2725.043c.0341,0,.07-.001.1093-.0025s.085-.0063.1367-.0132v.5586a1.51,1.51,0,0,1-.2519.0508,2.3874,2.3874,0,0,1-.2822.0156.7623.7623,0,0,1-.667-.2519,1.12,1.12,0,0,1-.1758-.6543v-2.7695h-.5645v-.5743h.5645Z"/><path d="M257.6172,148.6816a1.0079,1.0079,0,0,0,.18.5391,1.1353,1.1353,0,0,0,.9394.34,1.4011,1.4011,0,0,0,.6992-.17.5618.5618,0,0,0,.3028-.5254.4468.4468,0,0,0-.2422-.41,2.891,2.891,0,0,0-.6094-.1992l-.5664-.1407a2.7844,2.7844,0,0,1-.8008-.2968.884.884,0,0,1-.459-.7891,1.1994,1.1994,0,0,1,.4317-.9609,1.7416,1.7416,0,0,1,1.164-.3672,1.6245,1.6245,0,0,1,1.379.5547,1.201,1.201,0,0,1,.2568.7578h-.6631a.7953.7953,0,0,0-.1719-.4312,1.11,1.11,0,0,0-.8574-.2759,1.05,1.05,0,0,0-.6172.1519.474.474,0,0,0-.209.4009.4921.4921,0,0,0,.2754.436,1.6523,1.6523,0,0,0,.4688.1714l.4726.1133a3.7113,3.7113,0,0,1,1.0332.3554.9428.9428,0,0,1,.4092.8477,1.2869,1.2869,0,0,1-.4287.9648,1.8349,1.8349,0,0,1-1.3047.4063,1.76,1.76,0,0,1-1.3359-.4238,1.59,1.59,0,0,1-.42-1.0489Z"/><path d="M93.7876,134.6558h2.2891a2.1454,2.1454,0,0,1,1.8086.84,3.132,3.132,0,0,1,.5732,1.9414,3.9205,3.9205,0,0,1-.3389,1.6524,2.0869,2.0869,0,0,1-2.0508,1.3046H93.7876Zm2.1367,5.0742a2.0468,2.0468,0,0,0,.6328-.0821,1.3969,1.3969,0,0,0,.7246-.5859,2.4463,2.4463,0,0,0,.3243-.8906,3.49,3.49,0,0,0,.0571-.6016,2.8522,2.8522,0,0,0-.4141-1.6562,1.5123,1.5123,0,0,0-1.332-.59H94.5713V139.73Z"/><path d="M103.57,135.0737a2.04,2.04,0,0,1,.6592,1.3047h-.7568a1.4411,1.4411,0,0,0-1.562-1.2031,1.6822,1.6822,0,0,0-1.3423.5962,2.7577,2.7577,0,0,0-.5108,1.8276,2.695,2.695,0,0,0,.4615,1.6363,1.599,1.599,0,0,0,1.3769.6274,1.4458,1.4458,0,0,0,1.2827-.66,2.543,2.543,0,0,0,.3487-.914h.7563a2.6039,2.6039,0,0,1-.6626,1.5195,2.3431,2.3431,0,0,1-1.8193.7383,2.3822,2.3822,0,0,1-1.6573-.606,3.7675,3.7675,0,0,1-.22-4.5576,2.4067,2.4067,0,0,1,1.9771-.8833A2.3,2.3,0,0,1,103.57,135.0737Z"/><path d="M105.2661,134.6558h2.4761a1.6451,1.6451,0,0,1,1.44.6015,1.3848,1.3848,0,0,1,.2515.82,1.2951,1.2951,0,0,1-.3081.8907,1.5024,1.5024,0,0,1-.46.3359,1.9434,1.9434,0,0,1,.6587.3789,1.3767,1.3767,0,0,1,.3862,1.0352,1.5976,1.5976,0,0,1-.3491,1.0039,1.9719,1.9719,0,0,1-1.66.6718h-2.436Zm2.1865,2.4257a1.7688,1.7688,0,0,0,.772-.1367.786.786,0,0,0,.4336-.7734.7453.7453,0,0,0-.4609-.7578,2.093,2.093,0,0,0-.7725-.1094h-1.3984v1.7773Zm.2622,2.6485a1.1969,1.1969,0,0,0,1.0274-.4141,1.0374,1.0374,0,0,0,.1929-.6328.8424.8424,0,0,0-.563-.8516,2.1518,2.1518,0,0,0-.791-.1211h-1.5547v2.02Z"/><path d="M92.9375,144.2559h2.563a1.738,1.738,0,0,1,1.2275.4316,1.5682,1.5682,0,0,1,.4673,1.2129,1.7667,1.7667,0,0,1-.417,1.17,1.5707,1.5707,0,0,1-1.2763.4981H93.7134v2.4257h-.7759Zm3.01.789a1.6675,1.6675,0,0,0-.7007-.1211H93.7134v1.9883h1.5332a1.4549,1.4549,0,0,0,.8418-.2226.8865.8865,0,0,0,.3232-.7852A.8649.8649,0,0,0,95.9473,145.0449Z"/><path d="M101.1216,146.228a2.1128,2.1128,0,0,1,.5537,1.5845,2.7337,2.7337,0,0,1-.4878,1.67,1.7577,1.7577,0,0,1-1.5137.66,1.7024,1.7024,0,0,1-1.3589-.5835,2.3176,2.3176,0,0,1-.5034-1.5669,2.5073,2.5073,0,0,1,.53-1.6782,1.7732,1.7732,0,0,1,1.4248-.6245A1.87,1.87,0,0,1,101.1216,146.228Zm-.4356,2.78a2.66,2.66,0,0,0,.2564-1.1763,2.11,2.11,0,0,0-.1851-.9516,1.0388,1.0388,0,0,0-1.01-.5777.9937.9937,0,0,0-.9253.4917,2.3041,2.3041,0,0,0-.2891,1.1861,2.0024,2.0024,0,0,0,.2891,1.1118,1.0153,1.0153,0,0,0,.9179.4448A.9548.9548,0,0,0,100.686,149.0083Z"/><path d="M102.5562,145.8105h.6665v.7227a1.5931,1.5931,0,0,1,.4018-.5137,1.04,1.04,0,0,1,.7368-.3027c.0132,0,.0352.0015.0664.0039s.0845.0078.16.0156v.7422a1.0087,1.0087,0,0,0-.1147-.0156c-.0352-.0025-.0738-.0039-.1153-.0039a1,1,0,0,0-.8149.3418,1.196,1.196,0,0,0-.2847.7871v2.4062h-.7016Z"/><path d="M105.3359,144.6426h.71v1.1679h.6665v.5743h-.6665v2.73a.2955.2955,0,0,0,.1479.293.6269.6269,0,0,0,.273.043c.0337,0,.07-.001.1094-.0025s.0844-.0063.1362-.0132v.5586a1.5367,1.5367,0,0,1-.2515.0508,2.4072,2.4072,0,0,1-.2827.0156.7608.7608,0,0,1-.6665-.2519,1.12,1.12,0,0,1-.1758-.6543v-2.7695h-.5649v-.5743h.5649Z"/><path d="M107.8315,148.6816a1.013,1.013,0,0,0,.1792.5391,1.1375,1.1375,0,0,0,.9395.34,1.4055,1.4055,0,0,0,.7-.17.5622.5622,0,0,0,.3022-.5254.448.448,0,0,0-.2417-.41,2.9078,2.9078,0,0,0-.61-.1992l-.5669-.1407a2.7861,2.7861,0,0,1-.8-.2968.8843.8843,0,0,1-.46-.7891,1.1989,1.1989,0,0,1,.4326-.9609,1.7389,1.7389,0,0,1,1.1636-.3672,1.6243,1.6243,0,0,1,1.3789.5547,1.1946,1.1946,0,0,1,.2568.7578h-.6626a.799.799,0,0,0-.1718-.4312,1.1121,1.1121,0,0,0-.8579-.2759,1.0461,1.0461,0,0,0-.6167.1519.472.472,0,0,0-.21.4009.4921.4921,0,0,0,.2754.436,1.6635,1.6635,0,0,0,.4687.1714l.4727.1133a3.6948,3.6948,0,0,1,1.0327.3554.9421.9421,0,0,1,.41.8477,1.2855,1.2855,0,0,1-.4287.9648,1.8337,1.8337,0,0,1-1.3042.4063,1.7613,1.7613,0,0,1-1.3365-.4238,1.5963,1.5963,0,0,1-.42-1.0489Z"/></g></svg>