<svg xmlns="http://www.w3.org/2000/svg" viewBox="0 0 341 135"><defs><style>.a1cd1048-e3b3-407c-b0a6-95ab86383fa6,.aa90ee00-5126-4e72-b63f-0a031d6e0413,.ba99061c-69af-4093-834c-bc6284822c87,.e85f522d-ff9c-44f9-b870-d334c7402b8b{fill:none;}.a1cd1048-e3b3-407c-b0a6-95ab86383fa6{stroke:#999;stroke-width:2px;stroke-dasharray:5;}.b7b24595-bc3c-434a-a28d-7e27e89bbcc1{fill:#fff;stroke-width:4px;}.b7b24595-bc3c-434a-a28d-7e27e89bbcc1,.e85f522d-ff9c-44f9-b870-d334c7402b8b{stroke:#fff;}.e85f522d-ff9c-44f9-b870-d334c7402b8b{stroke-width:1.5px;}.ba99061c-69af-4093-834c-bc6284822c87{stroke:#231f20;}.aa90ee00-5126-4e72-b63f-0a031d6e0413,.ba99061c-69af-4093-834c-bc6284822c87{stroke-width:0.5px;}.aa90ee00-5126-4e72-b63f-0a031d6e0413{stroke:#010101;}.bf6a4b7f-922e-461e-9a84-9ba5864da84e{fill:#010101;}.b247d3f1-4186-433c-8bd3-f74c2bb4bb16{fill:#231f20;}</style></defs><g id="a8a75399-e948-41a0-80a1-aa5efb6ae4f8" data-name="Illustration"><path class="a1cd1048-e3b3-407c-b0a6-95ab86383fa6" d="M90.1387,120.3638a8.92,8.92,0,0,1-9.02,8.8154H14.3853a8.92,8.92,0,0,1-9.0206-8.8154V24.91a8.92,8.92,0,0,1,9.0206-8.816H81.1182a8.92,8.92,0,0,1,9.02,8.816Z"/><path class="b7b24595-bc3c-434a-a28d-7e27e89bbcc1" d="M19.4521,31.1426,19.42,53.1831c0,4.1509,14.0864,7.9155,29.8106,7.9155,15.728,0,25.0952-4.12,27.1567-8.2387V30.7549"/><path class="b7b24595-bc3c-434a-a28d-7e27e89bbcc1" d="M48.0269,38.9614c15.7241,0,28.4716-3.3608,28.4716-7.5132,0-4.1469-12.7475-7.5141-28.4716-7.5141-15.7261,0-28.4737,3.3672-28.4737,7.5141C19.5532,35.6006,32.3008,38.9614,48.0269,38.9614Z"/><path class="e85f522d-ff9c-44f9-b870-d334c7402b8b" d="M19.4492,31.2861,19.42,53.3286c0,4.15,14.0864,7.9146,29.8106,7.9146,15.728,0,25.0952-4.12,27.1528-8.24V30.897"/><path class="e85f522d-ff9c-44f9-b870-d334c7402b8b" d="M48.022,39.106c15.729,0,28.4746-3.3633,28.4746-7.5157,0-4.146-12.7456-7.5122-28.4746-7.5122-15.7212,0-28.4688,3.3662-28.4688,7.5122C19.5532,35.7427,32.3008,39.106,48.022,39.106Z"/><path class="ba99061c-69af-4093-834c-bc6284822c87" d="M19.4492,31.1426,19.42,53.1831c0,4.1509,14.0864,7.9155,29.8106,7.9155,15.728,0,25.0952-4.12,27.1528-8.2387V30.7549"/><path class="ba99061c-69af-4093-834c-bc6284822c87" d="M48.022,38.9614c15.729,0,28.4746-3.3608,28.4746-7.5132,0-4.1469-12.7456-7.5141-28.4746-7.5141-15.7212,0-28.4688,3.3672-28.4688,7.5141C19.5532,35.6006,32.3008,38.9614,48.022,38.9614Z"/><path class="ba99061c-69af-4093-834c-bc6284822c87" d="M19.4492,85.81,19.42,107.85c0,4.15,14.0864,7.916,29.8106,7.916,15.728,0,25.0952-4.12,27.1528-8.2392V85.4219"/><path class="ba99061c-69af-4093-834c-bc6284822c87" d="M48.022,93.6284c15.729,0,28.4746-3.3608,28.4746-7.5132,0-4.1469-12.7456-7.5141-28.4746-7.5141-15.7212,0-28.4688,3.3672-28.4688,7.5141C19.5532,90.2676,32.3008,93.6284,48.022,93.6284Z"/><path class="a1cd1048-e3b3-407c-b0a6-95ab86383fa6" d="M213.3672,120.3638a8.92,8.92,0,0,1-9.02,8.8154H137.6138a8.92,8.92,0,0,1-9.02-8.8154V24.91a8.92,8.92,0,0,1,9.02-8.816h66.7329a8.92,8.92,0,0,1,9.02,8.816Z"/><path class="b7b24595-bc3c-434a-a28d-7e27e89bbcc1" d="M142.6807,31.1426l-.0318,22.0405c0,4.1509,14.0864,7.9155,29.81,7.9155,15.7285,0,25.0957-4.12,27.1572-8.2387V30.7549"/><path class="b7b24595-bc3c-434a-a28d-7e27e89bbcc1" d="M171.2559,38.9614c15.7236,0,28.4707-3.3608,28.4707-7.5132,0-4.1469-12.7471-7.5141-28.4707-7.5141-15.7266,0-28.4742,3.3672-28.4742,7.5141C142.7817,35.6006,155.5293,38.9614,171.2559,38.9614Z"/><path class="e85f522d-ff9c-44f9-b870-d334c7402b8b" d="M142.6777,31.2861l-.0288,22.0425c0,4.15,14.0864,7.9146,29.81,7.9146,15.7285,0,25.0957-4.12,27.1533-8.24V30.897"/><path class="e85f522d-ff9c-44f9-b870-d334c7402b8b" d="M171.25,39.106c15.73,0,28.4746-3.3633,28.4746-7.5157,0-4.146-12.7451-7.5122-28.4746-7.5122-15.7207,0-28.4683,3.3662-28.4683,7.5122C142.7817,35.7427,155.5293,39.106,171.25,39.106Z"/><path class="ba99061c-69af-4093-834c-bc6284822c87" d="M142.6777,31.1426l-.0288,22.0405c0,4.1509,14.0864,7.9155,29.81,7.9155,15.7285,0,25.0957-4.12,27.1533-8.2387V30.7549"/><path class="ba99061c-69af-4093-834c-bc6284822c87" d="M171.25,38.9614c15.73,0,28.4746-3.3608,28.4746-7.5132,0-4.1469-12.7451-7.5141-28.4746-7.5141-15.7207,0-28.4683,3.3672-28.4683,7.5141C142.7817,35.6006,155.5293,38.9614,171.25,38.9614Z"/><path class="ba99061c-69af-4093-834c-bc6284822c87" d="M142.6777,85.81l-.0288,22.04c0,4.15,14.0864,7.916,29.81,7.916,15.7285,0,25.0957-4.12,27.1533-8.2392V85.4219"/><path class="ba99061c-69af-4093-834c-bc6284822c87" d="M171.25,93.6284c15.73,0,28.4746-3.3608,28.4746-7.5132,0-4.1469-12.7451-7.5141-28.4746-7.5141-15.7207,0-28.4683,3.3672-28.4683,7.5141C142.7817,90.2676,155.5293,93.6284,171.25,93.6284Z"/><path class="a1cd1048-e3b3-407c-b0a6-95ab86383fa6" d="M336.5957,120.3638a8.92,8.92,0,0,1-9.0205,8.8154H260.8418a8.92,8.92,0,0,1-9.0195-8.8154V24.91a8.92,8.92,0,0,1,9.0195-8.816h66.7334a8.92,8.92,0,0,1,9.0205,8.816Z"/><path class="b7b24595-bc3c-434a-a28d-7e27e89bbcc1" d="M265.9092,31.1426l-.0322,22.0405c0,4.1509,14.0869,7.9155,29.81,7.9155,15.7285,0,25.0957-4.12,27.1572-8.2387V30.7549"/><path class="b7b24595-bc3c-434a-a28d-7e27e89bbcc1" d="M294.4844,38.9614c15.7236,0,28.4707-3.3608,28.4707-7.5132,0-4.1469-12.7471-7.5141-28.4707-7.5141-15.7266,0-28.4746,3.3672-28.4746,7.5141C266.01,35.6006,278.7578,38.9614,294.4844,38.9614Z"/><path class="e85f522d-ff9c-44f9-b870-d334c7402b8b" d="M265.9063,31.2861l-.0293,22.0425c0,4.15,14.0869,7.9146,29.81,7.9146,15.7285,0,25.0957-4.12,27.1533-8.24V30.897"/><path class="e85f522d-ff9c-44f9-b870-d334c7402b8b" d="M294.4785,39.106c15.73,0,28.4746-3.3633,28.4746-7.5157,0-4.146-12.7451-7.5122-28.4746-7.5122-15.7207,0-28.4687,3.3662-28.4687,7.5122C266.01,35.7427,278.7578,39.106,294.4785,39.106Z"/><path class="ba99061c-69af-4093-834c-bc6284822c87" d="M265.9063,31.1426l-.0293,22.0405c0,4.1509,14.0869,7.9155,29.81,7.9155,15.7285,0,25.0957-4.12,27.1533-8.2387V30.7549"/><path class="ba99061c-69af-4093-834c-bc6284822c87" d="M294.4785,38.9614c15.73,0,28.4746-3.3608,28.4746-7.5132,0-4.1469-12.7451-7.5141-28.4746-7.5141-15.7207,0-28.4687,3.3672-28.4687,7.5141C266.01,35.6006,278.7578,38.9614,294.4785,38.9614Z"/><path class="ba99061c-69af-4093-834c-bc6284822c87" d="M265.9063,85.81l-.0293,22.04c0,4.15,14.0869,7.916,29.81,7.916,15.7285,0,25.0957-4.12,27.1533-8.2392V85.4219"/><path class="ba99061c-69af-4093-834c-bc6284822c87" d="M294.4785,93.6284c15.73,0,28.4746-3.3608,28.4746-7.5132,0-4.1469-12.7451-7.5141-28.4746-7.5141-15.7207,0-28.4687,3.3672-28.4687,7.5141C266.01,90.2676,278.7578,93.6284,294.4785,93.6284Z"/><line class="aa90ee00-5126-4e72-b63f-0a031d6e0413" x1="135.8281" y1="45.4888" x2="78.0312" y2="45.4888"/><polygon class="bf6a4b7f-922e-461e-9a84-9ba5864da84e" points="134.855 47.855 134.855 43.123 142.701 45.753 134.855 47.855"/><line class="aa90ee00-5126-4e72-b63f-0a031d6e0413" x1="259.0781" y1="45.4888" x2="201.4727" y2="45.4888"/><polygon class="bf6a4b7f-922e-461e-9a84-9ba5864da84e" points="258.109 47.855 258.109 43.123 265.93 45.753 258.109 47.855"/></g><g id="a0100770-1ba0-4a56-b163-102bb2bbd129" data-name="Text"><path class="b247d3f1-4186-433c-8bd3-f74c2bb4bb16" d="M14.4565,8.3267a1.82,1.82,0,0,0,.25.8921,1.63,1.63,0,0,0,1.4775.6416,2.5291,2.5291,0,0,0,.8638-.1407.99.99,0,0,0,.7534-.9756.8533.8533,0,0,0-.3194-.7514A3.1609,3.1609,0,0,0,16.4683,7.61l-.8472-.1978a3.756,3.756,0,0,1-1.1748-.4263A1.3633,1.3633,0,0,1,13.85,5.7778,1.886,1.886,0,0,1,14.436,4.35a2.31,2.31,0,0,1,1.6592-.5581,2.83,2.83,0,0,1,1.6787.49,1.79,1.79,0,0,1,.6905,1.5669h-.8218a1.6594,1.6594,0,0,0-.27-.7954,1.5338,1.5338,0,0,0-1.3017-.5053,1.4652,1.4652,0,0,0-1.0664.3252,1.0375,1.0375,0,0,0-.3242.7558.743.743,0,0,0,.3833.6944,5.4976,5.4976,0,0,0,1.1367.3515l.8774.2066a2.64,2.64,0,0,1,.979.4087,1.5487,1.5487,0,0,1,.5962,1.3139,1.6517,1.6517,0,0,1-.7607,1.5337,3.3414,3.3414,0,0,1-1.7681.4614,2.6017,2.6017,0,0,1-1.8384-.6152,2.1018,2.1018,0,0,1-.6513-1.6567Z"/><path class="b247d3f1-4186-433c-8bd3-f74c2bb4bb16" d="M19.9409,4.3892h.8V5.7031h.7515v.646h-.7515V9.4209a.3325.3325,0,0,0,.167.33.71.71,0,0,0,.3076.0483q.0572,0,.1231-.0029c.0439-.002.0952-.0068.1538-.0147V10.41a1.78,1.78,0,0,1-.2832.0571,2.7089,2.7089,0,0,1-.3189.0176.86.86,0,0,1-.7514-.2832,1.2613,1.2613,0,0,1-.1978-.7364V6.3491h-.6372v-.646h.6372Z"/><path class="b247d3f1-4186-433c-8bd3-f74c2bb4bb16" d="M25.6934,6.1729a2.3743,2.3743,0,0,1,.624,1.7827,3.0706,3.0706,0,0,1-.55,1.8789,1.9845,1.9845,0,0,1-1.7061.7422A1.9206,1.9206,0,0,1,22.53,9.92a2.6026,2.6026,0,0,1-.5674-1.7632A2.8163,2.8163,0,0,1,22.56,6.27a2.0014,2.0014,0,0,1,1.6059-.7026A2.11,2.11,0,0,1,25.6934,6.1729Zm-.4913,3.1279a2.9838,2.9838,0,0,0,.2891-1.3233,2.3772,2.3772,0,0,0-.2085-1.0713,1.172,1.172,0,0,0-1.1387-.6494,1.12,1.12,0,0,0-1.0429.5533,2.5826,2.5826,0,0,0-.3257,1.3339,2.2464,2.2464,0,0,0,.3257,1.251,1.1446,1.1446,0,0,0,1.0346.5005A1.0763,1.0763,0,0,0,25.2021,9.3008Z"/><path class="b247d3f1-4186-433c-8bd3-f74c2bb4bb16" d="M27.3105,5.7031h.7515v.813a1.7952,1.7952,0,0,1,.4526-.5776,1.1738,1.1738,0,0,1,.8306-.3408c.0147,0,.04.0014.0747.0044s.0952.0087.18.0175v.835a1.1836,1.1836,0,0,0-.1294-.0176c-.04-.0029-.083-.0044-.13-.0044a1.1287,1.1287,0,0,0-.9184.3848,1.3413,1.3413,0,0,0-.3208.8852V10.41h-.7911Z"/><path class="b247d3f1-4186-433c-8bd3-f74c2bb4bb16" d="M32.8081,7.5615a.43.43,0,0,0,.3648-.2285.7.7,0,0,0,.0527-.3042.6463.6463,0,0,0-.2871-.5889,1.5357,1.5357,0,0,0-.8223-.1831,1.0415,1.0415,0,0,0-.8774.3355,1.1155,1.1155,0,0,0-.1885.5522H30.312A1.3657,1.3657,0,0,1,30.876,5.93a2.31,2.31,0,0,1,1.2578-.3413,2.5554,2.5554,0,0,1,1.3472.3164,1.074,1.074,0,0,1,.5136.9843V9.6011a.347.347,0,0,0,.05.1977.2444.2444,0,0,0,.2134.0747c.0352,0,.0747-.0024.1187-.0063s.0908-.0112.1406-.02v.5844a2.2013,2.2013,0,0,1-.2813.066,2.073,2.073,0,0,1-.2636.0131.65.65,0,0,1-.5933-.29,1.1175,1.1175,0,0,1-.1362-.4351,2.0128,2.0128,0,0,1-.6944.5494,2.1482,2.1482,0,0,1-.9975.2329,1.4822,1.4822,0,0,1-1.07-.3975,1.3158,1.3158,0,0,1-.4155-.9936,1.28,1.28,0,0,1,.4087-1.0142,1.9485,1.9485,0,0,1,1.0723-.4434ZM31.1426,9.6982a.9307.9307,0,0,0,.5932.1973,1.8082,1.8082,0,0,0,.8086-.1929,1.0866,1.0866,0,0,0,.6592-1.0488V8.0176a1.3376,1.3376,0,0,1-.3725.1543,3.0471,3.0471,0,0,1-.4478.0879l-.478.0615a1.8462,1.8462,0,0,0-.6465.18.6986.6986,0,0,0-.3667.6577A.6491.6491,0,0,0,31.1426,9.6982Z"/><path class="b247d3f1-4186-433c-8bd3-f74c2bb4bb16" d="M37.9077,5.8921a2.1761,2.1761,0,0,1,.4551.4482V5.7471h.73v4.28a3.1644,3.1644,0,0,1-.2627,1.4151,1.8856,1.8856,0,0,1-1.8525.958,2.2689,2.2689,0,0,1-1.275-.3408,1.33,1.33,0,0,1-.5781-1.0655h.8042a.8969.8969,0,0,0,.2271.4878,1.4339,1.4339,0,0,0,2.0239-.3779,3.63,3.63,0,0,0,.1528-1.3491,1.55,1.55,0,0,1-.5688.5361A2.0341,2.0341,0,0,1,35.55,9.9238a2.391,2.391,0,0,1-.5713-1.7949,2.7255,2.7255,0,0,1,.5757-1.8457,1.7774,1.7774,0,0,1,1.39-.6636A1.7048,1.7048,0,0,1,37.9077,5.8921Zm.0967.8481a1.1475,1.1475,0,0,0-.9141-.4218,1.1286,1.1286,0,0,0-1.1367.7822,3.0807,3.0807,0,0,0-.1616,1.0942,1.9471,1.9471,0,0,0,.3213,1.21,1.0345,1.0345,0,0,0,.8638.4155,1.2118,1.2118,0,0,0,1.1933-.769,2.49,2.49,0,0,0,.1924-1.0152A1.9707,1.9707,0,0,0,38.0044,6.74Z"/><path class="b247d3f1-4186-433c-8bd3-f74c2bb4bb16" d="M43.2036,5.833a1.783,1.783,0,0,1,.7119.6084,2.1127,2.1127,0,0,1,.3145.8306,5.4845,5.4845,0,0,1,.07,1.0371H40.8765a2.0314,2.0314,0,0,0,.3359,1.1523,1.1182,1.1182,0,0,0,.9722.4341,1.2488,1.2488,0,0,0,.9809-.4106,1.4,1.4,0,0,0,.2906-.5518h.7778a1.6346,1.6346,0,0,1-.2046.5776,2.0652,2.0652,0,0,1-.3872.521,1.8227,1.8227,0,0,1-.8853.4746,2.6687,2.6687,0,0,1-.6411.07,1.9657,1.9657,0,0,1-1.48-.6392,2.4984,2.4984,0,0,1-.607-1.791A2.7153,2.7153,0,0,1,40.64,6.3052a2.012,2.012,0,0,1,1.5987-.7075A2.1237,2.1237,0,0,1,43.2036,5.833Zm.2832,1.8477a2.0652,2.0652,0,0,0-.2222-.8218,1.1363,1.1363,0,0,0-1.0761-.5713,1.1905,1.1905,0,0,0-.9068.3931,1.4946,1.4946,0,0,0-.3877,1Z"/><path class="b247d3f1-4186-433c-8bd3-f74c2bb4bb16" d="M48.2725,8.9331a1.138,1.138,0,0,0,.2016.6065,1.283,1.283,0,0,0,1.0586.3823,1.5842,1.5842,0,0,0,.79-.1914.6322.6322,0,0,0,.3408-.5909.5041.5041,0,0,0-.2725-.4614,3.2808,3.2808,0,0,0-.6875-.2241l-.6386-.1582a3.14,3.14,0,0,1-.9024-.334.9957.9957,0,0,1-.5181-.8877,1.3484,1.3484,0,0,1,.4878-1.081A1.9617,1.9617,0,0,1,49.4434,5.58a1.8327,1.8327,0,0,1,1.5542.624,1.3441,1.3441,0,0,1,.29.8525H50.54a.9.9,0,0,0-.1933-.4853,1.2569,1.2569,0,0,0-.9673-.31,1.18,1.18,0,0,0-.6948.1709.53.53,0,0,0-.2364.4507.5535.5535,0,0,0,.3106.4907,1.89,1.89,0,0,0,.5283.1929l.5327.1274a4.1693,4.1693,0,0,1,1.1641.4,1.0588,1.0588,0,0,1,.4614.9536,1.4453,1.4453,0,0,1-.4829,1.0854,2.0712,2.0712,0,0,1-1.47.457,1.9912,1.9912,0,0,1-1.5064-.4765,1.7916,1.7916,0,0,1-.4736-1.18Z"/><path class="b247d3f1-4186-433c-8bd3-f74c2bb4bb16" d="M55.2441,5.7031h.875q-.1677.4527-.7431,2.0664-.4306,1.2137-.7207,1.9785a13.3607,13.3607,0,0,1-.9658,2.1958,1.1044,1.1044,0,0,1-.9659.3951,1.8906,1.8906,0,0,1-.2568-.0132,2.0168,2.0168,0,0,1-.2217-.0484v-.7207a2.7288,2.7288,0,0,0,.2984.07,1.1777,1.1777,0,0,0,.1621.0131.5687.5687,0,0,0,.3227-.0722.6758.6758,0,0,0,.1734-.1778q.0219-.0351.1577-.3593t.1972-.4829l-1.74-4.8448h.8965l1.2617,3.834Z"/><path class="b247d3f1-4186-433c-8bd3-f74c2bb4bb16" d="M57.2725,8.9331a1.138,1.138,0,0,0,.2016.6065,1.283,1.283,0,0,0,1.0586.3823,1.5842,1.5842,0,0,0,.79-.1914.6322.6322,0,0,0,.3408-.5909.5041.5041,0,0,0-.2725-.4614,3.2808,3.2808,0,0,0-.6875-.2241l-.6386-.1582a3.14,3.14,0,0,1-.9024-.334.9957.9957,0,0,1-.5181-.8877,1.3484,1.3484,0,0,1,.4878-1.081A1.9617,1.9617,0,0,1,58.4434,5.58a1.8327,1.8327,0,0,1,1.5542.624,1.3441,1.3441,0,0,1,.29.8525H59.54a.9.9,0,0,0-.1933-.4853,1.2569,1.2569,0,0,0-.9673-.31,1.18,1.18,0,0,0-.6948.1709.53.53,0,0,0-.2364.4507.5535.5535,0,0,0,.3106.4907,1.89,1.89,0,0,0,.5283.1929l.5327.1274a4.1693,4.1693,0,0,1,1.1641.4,1.0588,1.0588,0,0,1,.4614.9536,1.4453,1.4453,0,0,1-.4829,1.0854,2.0712,2.0712,0,0,1-1.47.457,1.9912,1.9912,0,0,1-1.5064-.4765,1.7916,1.7916,0,0,1-.4736-1.18Z"/><path class="b247d3f1-4186-433c-8bd3-f74c2bb4bb16" d="M61.46,4.3892h.8V5.7031h.7514v.646H62.26V9.4209a.3324.3324,0,0,0,.1669.33.7108.7108,0,0,0,.3077.0483c.038,0,.0791-.0009.123-.0029s.0952-.0068.1538-.0147V10.41a1.7775,1.7775,0,0,1-.2832.0571,2.7084,2.7084,0,0,1-.3188.0176.86.86,0,0,1-.7515-.2832,1.262,1.262,0,0,1-.1978-.7364V6.3491h-.6372v-.646H61.46Z"/><path class="b247d3f1-4186-433c-8bd3-f74c2bb4bb16" d="M66.71,5.833a1.783,1.783,0,0,1,.7119.6084,2.1126,2.1126,0,0,1,.3144.8306,5.4825,5.4825,0,0,1,.07,1.0371H64.3828a2.0321,2.0321,0,0,0,.336,1.1523,1.118,1.118,0,0,0,.9721.4341,1.2491,1.2491,0,0,0,.981-.4106,1.3984,1.3984,0,0,0,.2905-.5518H67.74a1.6406,1.6406,0,0,1-.2041.5776,2.0783,2.0783,0,0,1-.3877.521,1.8224,1.8224,0,0,1-.8852.4746,2.6692,2.6692,0,0,1-.6411.07,1.9659,1.9659,0,0,1-1.4805-.6392,2.4983,2.4983,0,0,1-.6069-1.791,2.7153,2.7153,0,0,1,.6113-1.8413,2.0117,2.0117,0,0,1,1.5986-.7075A2.1241,2.1241,0,0,1,66.71,5.833Zm.2832,1.8477a2.0685,2.0685,0,0,0-.2222-.8218,1.1372,1.1372,0,0,0-1.0767-.5713,1.19,1.19,0,0,0-.9062.3931,1.4937,1.4937,0,0,0-.3877,1Z"/><path class="b247d3f1-4186-433c-8bd3-f74c2bb4bb16" d="M68.8081,5.7031H69.59v.668a2.63,2.63,0,0,1,.51-.5054,1.5329,1.5329,0,0,1,.8877-.268,1.3969,1.3969,0,0,1,.9053.2768,1.4472,1.4472,0,0,1,.3515.4658,1.71,1.71,0,0,1,.62-.56,1.7282,1.7282,0,0,1,.8-.1826,1.308,1.308,0,0,1,1.292.6855,2.2418,2.2418,0,0,1,.1845.9932V10.41h-.8218V7.14a.7631.7631,0,0,0-.2348-.646.9328.9328,0,0,0-.5737-.1757,1.14,1.14,0,0,0-.8023.312,1.372,1.372,0,0,0-.3359,1.0415V10.41h-.8042V7.3379a1.5952,1.5952,0,0,0-.1143-.6987.6966.6966,0,0,0-.6724-.33,1.1607,1.1607,0,0,0-.8154.3471,1.7018,1.7018,0,0,0-.3667,1.2569V10.41h-.791Z"/><path class="b247d3f1-4186-433c-8bd3-f74c2bb4bb16" d="M80.3027,3.9541H81.29L83.6328,10.41h-.958L82.001,8.4761H79.4683l-.7,1.9336h-.8965Zm1.45,3.81-.9941-2.8521L79.7261,7.7642Z"/><path class="b247d3f1-4186-433c-8bd3-f74c2bb4bb16" d="M135.1226,8.3267a1.819,1.819,0,0,0,.2495.8921A1.63,1.63,0,0,0,136.85,9.86a2.5291,2.5291,0,0,0,.8638-.1407.99.99,0,0,0,.7534-.9756.8532.8532,0,0,0-.3193-.7514,3.1626,3.1626,0,0,0-1.0132-.3823l-.8472-.1978a3.756,3.756,0,0,1-1.1748-.4263,1.3633,1.3633,0,0,1-.5962-1.2085,1.8857,1.8857,0,0,1,.586-1.4282,2.31,2.31,0,0,1,1.6591-.5581,2.83,2.83,0,0,1,1.6787.49,1.79,1.79,0,0,1,.6905,1.5669h-.8218a1.66,1.66,0,0,0-.27-.7954,1.5342,1.5342,0,0,0-1.3018-.5053,1.4652,1.4652,0,0,0-1.0664.3252,1.0375,1.0375,0,0,0-.3242.7558.743.743,0,0,0,.3833.6944,5.5,5.5,0,0,0,1.1367.3515l.8774.2066a2.64,2.64,0,0,1,.979.4087,1.5487,1.5487,0,0,1,.5962,1.3139,1.6517,1.6517,0,0,1-.7607,1.5337,3.3414,3.3414,0,0,1-1.7681.4614,2.6017,2.6017,0,0,1-1.8384-.6152,2.1018,2.1018,0,0,1-.6513-1.6567Z"/><path class="b247d3f1-4186-433c-8bd3-f74c2bb4bb16" d="M140.6069,4.3892h.8V5.7031h.7515v.646h-.7515V9.4209a.3325.3325,0,0,0,.167.33.7106.7106,0,0,0,.3076.0483q.0571,0,.1231-.0029c.0439-.002.0952-.0068.1538-.0147V10.41a1.7775,1.7775,0,0,1-.2832.0571,2.7084,2.7084,0,0,1-.3188.0176.86.86,0,0,1-.7515-.2832,1.262,1.262,0,0,1-.1978-.7364V6.3491H139.97v-.646h.6372Z"/><path class="b247d3f1-4186-433c-8bd3-f74c2bb4bb16" d="M146.3594,6.1729a2.3743,2.3743,0,0,1,.624,1.7827,3.0706,3.0706,0,0,1-.55,1.8789,1.9845,1.9845,0,0,1-1.7061.7422,1.9206,1.9206,0,0,1-1.5317-.6563,2.6026,2.6026,0,0,1-.5674-1.7632,2.8163,2.8163,0,0,1,.5977-1.8877,2.0016,2.0016,0,0,1,1.6059-.7026A2.11,2.11,0,0,1,146.3594,6.1729Zm-.4912,3.1279a2.9852,2.9852,0,0,0,.289-1.3233,2.3772,2.3772,0,0,0-.2085-1.0713,1.172,1.172,0,0,0-1.1386-.6494,1.12,1.12,0,0,0-1.043.5533,2.5826,2.5826,0,0,0-.3257,1.3339,2.2464,2.2464,0,0,0,.3257,1.251,1.1446,1.1446,0,0,0,1.0347.5005A1.0764,1.0764,0,0,0,145.8682,9.3008Z"/><path class="b247d3f1-4186-433c-8bd3-f74c2bb4bb16" d="M147.9766,5.7031h.7514v.813a1.7958,1.7958,0,0,1,.4527-.5776,1.1736,1.1736,0,0,1,.8305-.3408c.0147,0,.04.0014.0747.0044s.0953.0087.18.0175v.835a1.1836,1.1836,0,0,0-.1294-.0176c-.04-.0029-.083-.0044-.13-.0044a1.1287,1.1287,0,0,0-.9184.3848,1.3413,1.3413,0,0,0-.3208.8852V10.41h-.791Z"/><path class="b247d3f1-4186-433c-8bd3-f74c2bb4bb16" d="M153.4741,7.5615a.43.43,0,0,0,.3648-.2285.7.7,0,0,0,.0527-.3042.6463.6463,0,0,0-.2871-.5889,1.5357,1.5357,0,0,0-.8223-.1831,1.0415,1.0415,0,0,0-.8774.3355,1.1155,1.1155,0,0,0-.1885.5522h-.7383a1.366,1.366,0,0,1,.564-1.2143A2.31,2.31,0,0,1,152.8,5.5889a2.5551,2.5551,0,0,1,1.3472.3164,1.0738,1.0738,0,0,1,.5136.9843V9.6011a.347.347,0,0,0,.05.1977.2444.2444,0,0,0,.2134.0747c.0352,0,.0747-.0024.1187-.0063s.0908-.0112.1406-.02v.5844a2.2013,2.2013,0,0,1-.2813.066,2.073,2.073,0,0,1-.2636.0131.6506.6506,0,0,1-.5933-.29,1.1191,1.1191,0,0,1-.1362-.4351,2.0128,2.0128,0,0,1-.6944.5494,2.1482,2.1482,0,0,1-.9975.2329,1.4819,1.4819,0,0,1-1.07-.3975,1.3155,1.3155,0,0,1-.4156-.9936,1.2808,1.2808,0,0,1,.4087-1.0142,1.9485,1.9485,0,0,1,1.0723-.4434Zm-1.6655,2.1367a.9308.9308,0,0,0,.5933.1973,1.8081,1.8081,0,0,0,.8085-.1929,1.0866,1.0866,0,0,0,.6592-1.0488V8.0176a1.3376,1.3376,0,0,1-.3725.1543,3.0471,3.0471,0,0,1-.4478.0879l-.478.0615a1.8469,1.8469,0,0,0-.6465.18.6986.6986,0,0,0-.3667.6577A.6491.6491,0,0,0,151.8086,9.6982Z"/><path class="b247d3f1-4186-433c-8bd3-f74c2bb4bb16" d="M158.5737,5.8921a2.1761,2.1761,0,0,1,.4551.4482V5.7471h.73v4.28a3.1644,3.1644,0,0,1-.2627,1.4151,1.8855,1.8855,0,0,1-1.8525.958,2.2683,2.2683,0,0,1-1.2749-.3408,1.33,1.33,0,0,1-.5782-1.0655h.8042a.8969.8969,0,0,0,.2271.4878,1.4339,1.4339,0,0,0,2.0239-.3779,3.6276,3.6276,0,0,0,.1528-1.3491,1.55,1.55,0,0,1-.5688.5361,2.0341,2.0341,0,0,1-2.2129-.3672,2.391,2.391,0,0,1-.5713-1.7949,2.7255,2.7255,0,0,1,.5757-1.8457,1.7775,1.7775,0,0,1,1.39-.6636A1.7047,1.7047,0,0,1,158.5737,5.8921Zm.0967.8481a1.1472,1.1472,0,0,0-.9141-.4218,1.1286,1.1286,0,0,0-1.1367.7822,3.0807,3.0807,0,0,0-.1616,1.0942,1.9471,1.9471,0,0,0,.3213,1.21,1.0346,1.0346,0,0,0,.8638.4155,1.2117,1.2117,0,0,0,1.1933-.769,2.49,2.49,0,0,0,.1924-1.0152A1.9707,1.9707,0,0,0,158.67,6.74Z"/><path class="b247d3f1-4186-433c-8bd3-f74c2bb4bb16" d="M163.87,5.833a1.7817,1.7817,0,0,1,.7119.6084,2.1112,2.1112,0,0,1,.3145.8306,5.4845,5.4845,0,0,1,.07,1.0371h-3.4233a2.0314,2.0314,0,0,0,.3359,1.1523,1.1182,1.1182,0,0,0,.9722.4341,1.2487,1.2487,0,0,0,.9809-.4106,1.3986,1.3986,0,0,0,.2906-.5518H164.9a1.6346,1.6346,0,0,1-.2046.5776,2.0652,2.0652,0,0,1-.3872.521,1.8228,1.8228,0,0,1-.8852.4746,2.67,2.67,0,0,1-.6412.07,1.9659,1.9659,0,0,1-1.48-.6392,2.4984,2.4984,0,0,1-.607-1.791,2.7148,2.7148,0,0,1,.6114-1.8413,2.0117,2.0117,0,0,1,1.5986-.7075A2.1237,2.1237,0,0,1,163.87,5.833Zm.2832,1.8477a2.0669,2.0669,0,0,0-.2221-.8218,1.1366,1.1366,0,0,0-1.0762-.5713,1.19,1.19,0,0,0-.9067.3931,1.4937,1.4937,0,0,0-.3877,1Z"/><path class="b247d3f1-4186-433c-8bd3-f74c2bb4bb16" d="M168.9385,8.9331a1.138,1.138,0,0,0,.2016.6065,1.2832,1.2832,0,0,0,1.0586.3823,1.5839,1.5839,0,0,0,.79-.1914.6322.6322,0,0,0,.3408-.5909.5041.5041,0,0,0-.2725-.4614,3.2808,3.2808,0,0,0-.6875-.2241l-.6386-.1582a3.1414,3.1414,0,0,1-.9024-.334.9956.9956,0,0,1-.518-.8877,1.3484,1.3484,0,0,1,.4878-1.081,1.9616,1.9616,0,0,1,1.3115-.4131,1.8327,1.8327,0,0,1,1.5542.624,1.3441,1.3441,0,0,1,.29.8525h-.747a.9.9,0,0,0-.1934-.4853,1.2568,1.2568,0,0,0-.9673-.31,1.18,1.18,0,0,0-.6948.1709.53.53,0,0,0-.2363.4507.5534.5534,0,0,0,.3105.4907,1.89,1.89,0,0,0,.5283.1929l.5327.1274a4.1693,4.1693,0,0,1,1.1641.4,1.0588,1.0588,0,0,1,.4614.9536,1.4453,1.4453,0,0,1-.4829,1.0854,2.0712,2.0712,0,0,1-1.47.457,1.991,1.991,0,0,1-1.5063-.4765,1.7912,1.7912,0,0,1-.4737-1.18Z"/><path class="b247d3f1-4186-433c-8bd3-f74c2bb4bb16" d="M175.91,5.7031h.875q-.1678.4527-.7432,2.0664-.4307,1.2137-.7207,1.9785a13.3607,13.3607,0,0,1-.9658,2.1958,1.1042,1.1042,0,0,1-.9659.3951,1.8906,1.8906,0,0,1-.2568-.0132,2.0217,2.0217,0,0,1-.2217-.0484v-.7207a2.7288,2.7288,0,0,0,.2984.07,1.1777,1.1777,0,0,0,.1621.0131.5687.5687,0,0,0,.3227-.0722.6758.6758,0,0,0,.1734-.1778q.0219-.0351.1577-.3593t.1973-.4829l-1.74-4.8448h.8965l1.2617,3.834Z"/><path class="b247d3f1-4186-433c-8bd3-f74c2bb4bb16" d="M177.9385,8.9331a1.138,1.138,0,0,0,.2016.6065,1.2832,1.2832,0,0,0,1.0586.3823,1.5839,1.5839,0,0,0,.79-.1914.6322.6322,0,0,0,.3408-.5909.5041.5041,0,0,0-.2725-.4614,3.2808,3.2808,0,0,0-.6875-.2241l-.6386-.1582a3.1414,3.1414,0,0,1-.9024-.334.9956.9956,0,0,1-.518-.8877,1.3484,1.3484,0,0,1,.4878-1.081,1.9616,1.9616,0,0,1,1.3115-.4131,1.8327,1.8327,0,0,1,1.5542.624,1.3441,1.3441,0,0,1,.29.8525h-.747a.9.9,0,0,0-.1934-.4853,1.2568,1.2568,0,0,0-.9673-.31,1.18,1.18,0,0,0-.6948.1709.53.53,0,0,0-.2363.4507.5534.5534,0,0,0,.3105.4907,1.89,1.89,0,0,0,.5283.1929l.5327.1274a4.1693,4.1693,0,0,1,1.1641.4,1.0588,1.0588,0,0,1,.4614.9536,1.4453,1.4453,0,0,1-.4829,1.0854,2.0712,2.0712,0,0,1-1.47.457,1.991,1.991,0,0,1-1.5063-.4765,1.7912,1.7912,0,0,1-.4737-1.18Z"/><path class="b247d3f1-4186-433c-8bd3-f74c2bb4bb16" d="M182.1265,4.3892h.8V5.7031h.7514v.646h-.7514V9.4209a.3323.3323,0,0,0,.167.33.71.71,0,0,0,.3076.0483q.0571,0,.123-.0029c.044-.002.0952-.0068.1538-.0147V10.41a1.7775,1.7775,0,0,1-.2832.0571,2.7084,2.7084,0,0,1-.3188.0176.86.86,0,0,1-.7515-.2832,1.262,1.262,0,0,1-.1977-.7364V6.3491h-.6372v-.646h.6372Z"/><path class="b247d3f1-4186-433c-8bd3-f74c2bb4bb16" d="M187.376,5.833a1.783,1.783,0,0,1,.7119.6084,2.1126,2.1126,0,0,1,.3144.8306,5.4825,5.4825,0,0,1,.07,1.0371h-3.4234a2.0321,2.0321,0,0,0,.336,1.1523,1.1181,1.1181,0,0,0,.9721.4341,1.2489,1.2489,0,0,0,.981-.4106,1.3984,1.3984,0,0,0,.2905-.5518h.7778a1.6406,1.6406,0,0,1-.2041.5776,2.08,2.08,0,0,1-.3876.521,1.8231,1.8231,0,0,1-.8853.4746,2.6692,2.6692,0,0,1-.6411.07,1.9661,1.9661,0,0,1-1.48-.6392,2.4983,2.4983,0,0,1-.6069-1.791,2.7153,2.7153,0,0,1,.6113-1.8413,2.0117,2.0117,0,0,1,1.5986-.7075A2.1238,2.1238,0,0,1,187.376,5.833Zm.2832,1.8477a2.0669,2.0669,0,0,0-.2222-.8218,1.1371,1.1371,0,0,0-1.0766-.5713,1.19,1.19,0,0,0-.9063.3931,1.4946,1.4946,0,0,0-.3877,1Z"/><path class="b247d3f1-4186-433c-8bd3-f74c2bb4bb16" d="M189.4741,5.7031h.7822v.668a2.63,2.63,0,0,1,.51-.5054,1.5334,1.5334,0,0,1,.8877-.268,1.3969,1.3969,0,0,1,.9053.2768,1.4472,1.4472,0,0,1,.3515.4658,1.71,1.71,0,0,1,.62-.56,1.7282,1.7282,0,0,1,.8-.1826,1.3079,1.3079,0,0,1,1.292.6855,2.2418,2.2418,0,0,1,.1845.9932V10.41h-.8217V7.14a.7631.7631,0,0,0-.2349-.646.9326.9326,0,0,0-.5737-.1757,1.14,1.14,0,0,0-.8023.312,1.372,1.372,0,0,0-.3359,1.0415V10.41h-.8042V7.3379a1.5952,1.5952,0,0,0-.1143-.6987.6965.6965,0,0,0-.6723-.33,1.161,1.161,0,0,0-.8155.3471,1.7018,1.7018,0,0,0-.3667,1.2569V10.41h-.791Z"/><path class="b247d3f1-4186-433c-8bd3-f74c2bb4bb16" d="M199.5552,3.9541h2.791a1.8552,1.8552,0,0,1,1.6235.6768,1.5549,1.5549,0,0,1,.2832.9228,1.4535,1.4535,0,0,1-.3471,1.002,1.6984,1.6984,0,0,1-.5186.3779,2.1943,2.1943,0,0,1,.7427.4263,1.5466,1.5466,0,0,1,.435,1.1645,1.7937,1.7937,0,0,1-.3935,1.1294,2.2226,2.2226,0,0,1-1.87.7559h-2.7461Zm2.4643,2.729a2.0026,2.0026,0,0,0,.8706-.1538.885.885,0,0,0,.4883-.87.8382.8382,0,0,0-.5195-.8526,2.3583,2.3583,0,0,0-.8706-.123h-1.5762V6.6831Zm.2959,2.98a1.349,1.349,0,0,0,1.1577-.4658,1.164,1.164,0,0,0,.2173-.7119.9471.9471,0,0,0-.6342-.958,2.4213,2.4213,0,0,0-.8916-.1363h-1.7525v2.272Z"/><path class="b247d3f1-4186-433c-8bd3-f74c2bb4bb16" d="M257.4561,8.3267a1.8137,1.8137,0,0,0,.25.8921,1.63,1.63,0,0,0,1.4775.6416,2.5291,2.5291,0,0,0,.8638-.1407.99.99,0,0,0,.7534-.9756.8535.8535,0,0,0-.3193-.7514,3.1626,3.1626,0,0,0-1.0132-.3823l-.8472-.1978a3.756,3.756,0,0,1-1.1748-.4263,1.3633,1.3633,0,0,1-.5962-1.2085,1.886,1.886,0,0,1,.5859-1.4282,2.31,2.31,0,0,1,1.6592-.5581,2.83,2.83,0,0,1,1.6787.49,1.79,1.79,0,0,1,.6905,1.5669h-.8218a1.66,1.66,0,0,0-.27-.7954,1.5342,1.5342,0,0,0-1.3018-.5053,1.4652,1.4652,0,0,0-1.0664.3252,1.0375,1.0375,0,0,0-.3242.7558.743.743,0,0,0,.3833.6944,5.5,5.5,0,0,0,1.1367.3515l.8769.2066a2.6387,2.6387,0,0,1,.98.4087,1.5487,1.5487,0,0,1,.5962,1.3139,1.6517,1.6517,0,0,1-.7607,1.5337,3.3414,3.3414,0,0,1-1.7681.4614,2.6017,2.6017,0,0,1-1.8384-.6152,2.1018,2.1018,0,0,1-.6513-1.6567Z"/><path class="b247d3f1-4186-433c-8bd3-f74c2bb4bb16" d="M262.94,4.3892h.8V5.7031h.7515v.646H263.74V9.4209a.3325.3325,0,0,0,.167.33.7106.7106,0,0,0,.3076.0483q.0571,0,.1231-.0029c.0439-.002.0952-.0068.1538-.0147V10.41a1.7725,1.7725,0,0,1-.2837.0571,2.694,2.694,0,0,1-.3184.0176.86.86,0,0,1-.7514-.2832,1.2613,1.2613,0,0,1-.1978-.7364V6.3491h-.6372v-.646h.6372Z"/><path class="b247d3f1-4186-433c-8bd3-f74c2bb4bb16" d="M268.6929,6.1729a2.3743,2.3743,0,0,1,.624,1.7827,3.0706,3.0706,0,0,1-.55,1.8789,1.9845,1.9845,0,0,1-1.7061.7422,1.9206,1.9206,0,0,1-1.5317-.6563,2.6026,2.6026,0,0,1-.5674-1.7632A2.8163,2.8163,0,0,1,265.56,6.27a2.0016,2.0016,0,0,1,1.6059-.7026A2.11,2.11,0,0,1,268.6929,6.1729Zm-.4912,3.1279a2.9852,2.9852,0,0,0,.289-1.3233,2.3772,2.3772,0,0,0-.2085-1.0713,1.172,1.172,0,0,0-1.1386-.6494,1.12,1.12,0,0,0-1.043.5533,2.5826,2.5826,0,0,0-.3257,1.3339,2.2464,2.2464,0,0,0,.3257,1.251,1.1443,1.1443,0,0,0,1.0342.5005A1.0767,1.0767,0,0,0,268.2017,9.3008Z"/><path class="b247d3f1-4186-433c-8bd3-f74c2bb4bb16" d="M270.31,5.7031h.7514v.813a1.7944,1.7944,0,0,1,.4527-.5776,1.1734,1.1734,0,0,1,.83-.3408c.0147,0,.04.0014.0747.0044s.0952.0087.18.0175v.835a1.16,1.16,0,0,0-.13-.0176c-.039-.0029-.0825-.0044-.1294-.0044a1.1287,1.1287,0,0,0-.9184.3848,1.3413,1.3413,0,0,0-.3208.8852V10.41h-.791Z"/><path class="b247d3f1-4186-433c-8bd3-f74c2bb4bb16" d="M275.8076,7.5615a.43.43,0,0,0,.3648-.2285.7.7,0,0,0,.0527-.3042.6463.6463,0,0,0-.2871-.5889,1.5357,1.5357,0,0,0-.8223-.1831,1.0415,1.0415,0,0,0-.8774.3355,1.1155,1.1155,0,0,0-.1885.5522h-.7383a1.366,1.366,0,0,1,.564-1.2143,2.3093,2.3093,0,0,1,1.2573-.3413,2.5558,2.5558,0,0,1,1.3477.3164,1.0738,1.0738,0,0,1,.5136.9843V9.6011a.3431.3431,0,0,0,.0508.1977.2426.2426,0,0,0,.2129.0747c.0352,0,.0747-.0024.1187-.0063s.0908-.0112.1406-.02v.5844a2.2013,2.2013,0,0,1-.2813.066,2.073,2.073,0,0,1-.2636.0131.6506.6506,0,0,1-.5933-.29,1.1191,1.1191,0,0,1-.1362-.4351,2.0128,2.0128,0,0,1-.6944.5494,2.1482,2.1482,0,0,1-.9975.2329,1.4847,1.4847,0,0,1-1.07-.3975,1.3187,1.3187,0,0,1-.4151-.9936,1.2808,1.2808,0,0,1,.4087-1.0142,1.9485,1.9485,0,0,1,1.0723-.4434Zm-1.6655,2.1367a.9308.9308,0,0,0,.5933.1973,1.8081,1.8081,0,0,0,.8085-.1929,1.0866,1.0866,0,0,0,.6592-1.0488V8.0176a1.3376,1.3376,0,0,1-.3725.1543,3.0471,3.0471,0,0,1-.4478.0879l-.478.0615a1.84,1.84,0,0,0-.646.18.6981.6981,0,0,0-.3672.6577A.6491.6491,0,0,0,274.1421,9.6982Z"/><path class="b247d3f1-4186-433c-8bd3-f74c2bb4bb16" d="M280.9072,5.8921a2.1761,2.1761,0,0,1,.4551.4482V5.7471h.7295v4.28a3.1644,3.1644,0,0,1-.2627,1.4151,1.8855,1.8855,0,0,1-1.8525.958,2.2683,2.2683,0,0,1-1.2749-.3408,1.33,1.33,0,0,1-.5782-1.0655h.8042a.8969.8969,0,0,0,.2271.4878,1.4339,1.4339,0,0,0,2.0239-.3779,3.6276,3.6276,0,0,0,.1528-1.3491,1.55,1.55,0,0,1-.5688.5361,2.0341,2.0341,0,0,1-2.2129-.3672,2.391,2.391,0,0,1-.5713-1.7949,2.7255,2.7255,0,0,1,.5757-1.8457,1.7774,1.7774,0,0,1,1.39-.6636A1.7048,1.7048,0,0,1,280.9072,5.8921Zm.0967.8481a1.1473,1.1473,0,0,0-.9141-.4218,1.1286,1.1286,0,0,0-1.1367.7822,3.0807,3.0807,0,0,0-.1616,1.0942,1.9471,1.9471,0,0,0,.3213,1.21,1.0345,1.0345,0,0,0,.8638.4155,1.2117,1.2117,0,0,0,1.1933-.769,2.49,2.49,0,0,0,.1924-1.0152A1.9707,1.9707,0,0,0,281.0039,6.74Z"/><path class="b247d3f1-4186-433c-8bd3-f74c2bb4bb16" d="M286.2031,5.833a1.7823,1.7823,0,0,1,.7119.6084,2.1112,2.1112,0,0,1,.3145.8306,5.4845,5.4845,0,0,1,.07,1.0371H283.876a2.0314,2.0314,0,0,0,.3359,1.1523,1.1182,1.1182,0,0,0,.9722.4341,1.2487,1.2487,0,0,0,.9809-.4106,1.3986,1.3986,0,0,0,.2906-.5518h.7778a1.6426,1.6426,0,0,1-.2041.5776,2.0783,2.0783,0,0,1-.3877.521,1.8227,1.8227,0,0,1-.8853.4746,2.6687,2.6687,0,0,1-.6411.07,1.9659,1.9659,0,0,1-1.48-.6392,2.4984,2.4984,0,0,1-.607-1.791,2.7148,2.7148,0,0,1,.6114-1.8413,2.0117,2.0117,0,0,1,1.5986-.7075A2.1237,2.1237,0,0,1,286.2031,5.833Zm.2832,1.8477a2.0669,2.0669,0,0,0-.2221-.8218,1.1374,1.1374,0,0,0-1.0767-.5713,1.19,1.19,0,0,0-.9063.3931,1.4941,1.4941,0,0,0-.3876,1Z"/><path class="b247d3f1-4186-433c-8bd3-f74c2bb4bb16" d="M291.272,8.9331a1.138,1.138,0,0,0,.2016.6065,1.283,1.283,0,0,0,1.0586.3823,1.5839,1.5839,0,0,0,.79-.1914.6322.6322,0,0,0,.3408-.5909.5041.5041,0,0,0-.2725-.4614,3.2777,3.2777,0,0,0-.688-.2241l-.6381-.1582a3.1414,3.1414,0,0,1-.9024-.334.9956.9956,0,0,1-.518-.8877,1.3486,1.3486,0,0,1,.4877-1.081,1.9621,1.9621,0,0,1,1.3116-.4131,1.8327,1.8327,0,0,1,1.5542.624,1.3441,1.3441,0,0,1,.29.8525h-.747a.9.9,0,0,0-.1934-.4853,1.2568,1.2568,0,0,0-.9673-.31,1.18,1.18,0,0,0-.6948.1709.53.53,0,0,0-.2363.4507.5534.5534,0,0,0,.3105.4907,1.89,1.89,0,0,0,.5283.1929l.5327.1274a4.1693,4.1693,0,0,1,1.1641.4,1.0588,1.0588,0,0,1,.4614.9536,1.4453,1.4453,0,0,1-.4829,1.0854,2.0712,2.0712,0,0,1-1.47.457,1.991,1.991,0,0,1-1.5063-.4765,1.7912,1.7912,0,0,1-.4737-1.18Z"/><path class="b247d3f1-4186-433c-8bd3-f74c2bb4bb16" d="M298.2441,5.7031h.8741q-.1671.4527-.7422,2.0664-.4314,1.2137-.7207,1.9785a13.3906,13.3906,0,0,1-.9663,2.1958,1.1042,1.1042,0,0,1-.9659.3951,1.8906,1.8906,0,0,1-.2568-.0132,2.0168,2.0168,0,0,1-.2217-.0484v-.7207a2.7288,2.7288,0,0,0,.2984.07,1.1777,1.1777,0,0,0,.1621.0131.5687.5687,0,0,0,.3227-.0722.6758.6758,0,0,0,.1734-.1778q.0219-.0351.1577-.3593t.1977-.4829l-1.74-4.8448h.8965l1.2607,3.834Z"/><path class="b247d3f1-4186-433c-8bd3-f74c2bb4bb16" d="M300.272,8.9331a1.138,1.138,0,0,0,.2016.6065,1.283,1.283,0,0,0,1.0586.3823,1.5839,1.5839,0,0,0,.79-.1914.6322.6322,0,0,0,.3408-.5909.5041.5041,0,0,0-.2725-.4614,3.2777,3.2777,0,0,0-.688-.2241l-.6381-.1582a3.1414,3.1414,0,0,1-.9024-.334.9956.9956,0,0,1-.518-.8877,1.3486,1.3486,0,0,1,.4877-1.081,1.9621,1.9621,0,0,1,1.3116-.4131,1.8327,1.8327,0,0,1,1.5542.624,1.3441,1.3441,0,0,1,.29.8525h-.747a.9.9,0,0,0-.1934-.4853,1.2568,1.2568,0,0,0-.9673-.31,1.18,1.18,0,0,0-.6948.1709.53.53,0,0,0-.2363.4507.5534.5534,0,0,0,.3105.4907,1.89,1.89,0,0,0,.5283.1929l.5327.1274a4.1693,4.1693,0,0,1,1.1641.4,1.0588,1.0588,0,0,1,.4614.9536,1.4453,1.4453,0,0,1-.4829,1.0854,2.0712,2.0712,0,0,1-1.47.457,1.991,1.991,0,0,1-1.5063-.4765,1.7912,1.7912,0,0,1-.4737-1.18Z"/><path class="b247d3f1-4186-433c-8bd3-f74c2bb4bb16" d="M304.46,4.3892h.8V5.7031h.7514v.646H305.26V9.4209a.3323.3323,0,0,0,.167.33.71.71,0,0,0,.3076.0483q.0571,0,.123-.0029c.044-.002.0952-.0068.1538-.0147V10.41a1.7725,1.7725,0,0,1-.2837.0571,2.6935,2.6935,0,0,1-.3183.0176.86.86,0,0,1-.7515-.2832,1.262,1.262,0,0,1-.1977-.7364V6.3491h-.6372v-.646h.6372Z"/><path class="b247d3f1-4186-433c-8bd3-f74c2bb4bb16" d="M309.709,5.833a1.783,1.783,0,0,1,.7119.6084,2.099,2.099,0,0,1,.3145.8306,5.4406,5.4406,0,0,1,.07,1.0371h-3.4229a2.0282,2.0282,0,0,0,.335,1.1523,1.1207,1.1207,0,0,0,.9726.4341,1.2494,1.2494,0,0,0,.9815-.4106,1.3911,1.3911,0,0,0,.29-.5518h.7783a1.6442,1.6442,0,0,1-.205.5776,2.0549,2.0549,0,0,1-.3868.521,1.83,1.83,0,0,1-.8857.4746,2.662,2.662,0,0,1-.6406.07,1.9638,1.9638,0,0,1-1.4805-.6392,2.4963,2.4963,0,0,1-.6074-1.791,2.7153,2.7153,0,0,1,.6113-1.8413,2.0124,2.0124,0,0,1,1.5986-.7075A2.1218,2.1218,0,0,1,309.709,5.833Zm.2832,1.8477a2.0525,2.0525,0,0,0-.2217-.8218,1.1369,1.1369,0,0,0-1.0762-.5713,1.1892,1.1892,0,0,0-.9062.3931,1.4893,1.4893,0,0,0-.3877,1Z"/><path class="b247d3f1-4186-433c-8bd3-f74c2bb4bb16" d="M311.8076,5.7031h.7822v.668a2.63,2.63,0,0,1,.51-.5054,1.5332,1.5332,0,0,1,.8877-.268,1.3969,1.3969,0,0,1,.9053.2768,1.4472,1.4472,0,0,1,.3515.4658,1.6382,1.6382,0,0,1,1.42-.7426,1.3064,1.3064,0,0,1,1.291.6855,2.2407,2.2407,0,0,1,.1855.9932V10.41h-.8222V7.14a.76.76,0,0,0-.2354-.646.929.929,0,0,0-.5732-.1757,1.137,1.137,0,0,0-.8018.312,1.3682,1.3682,0,0,0-.3369,1.0415V10.41h-.8037V7.3379a1.5952,1.5952,0,0,0-.1143-.6987.6968.6968,0,0,0-.6719-.33,1.16,1.16,0,0,0-.8154.3471,1.7,1.7,0,0,0-.3672,1.2569V10.41h-.791Z"/><path class="b247d3f1-4186-433c-8bd3-f74c2bb4bb16" d="M326.4766,4.4243a2.2868,2.2868,0,0,1,.7422,1.4678h-.8516a1.7822,1.7822,0,0,0-.5684-.9888,1.7757,1.7757,0,0,0-1.1933-.3647,1.8985,1.8985,0,0,0-1.5127.6709,3.0988,3.0988,0,0,0-.5752,2.0561,3.0261,3.0261,0,0,0,.5195,1.84,1.8039,1.8039,0,0,0,1.5518.706,1.63,1.63,0,0,0,1.4463-.7427,2.8432,2.8432,0,0,0,.3925-1.0283h.8535a2.9346,2.9346,0,0,1-.748,1.71,2.6415,2.6415,0,0,1-2.05.8306,2.6868,2.6868,0,0,1-1.8682-.6817,3.5764,3.5764,0,0,1-.9941-2.7837,3.5842,3.5842,0,0,1,.7461-2.3437,2.7176,2.7176,0,0,1,2.2285-.9937A2.5979,2.5979,0,0,1,326.4766,4.4243Z"/><path class="b247d3f1-4186-433c-8bd3-f74c2bb4bb16" d="M39.8906,28.9829l1.2569,3.832,1.31-3.832h.8653L41.5508,33.69H40.708l-1.7363-4.7066Z"/><path class="b247d3f1-4186-433c-8bd3-f74c2bb4bb16" d="M47.4116,29.4526a2.3746,2.3746,0,0,1,.624,1.7828,3.0706,3.0706,0,0,1-.55,1.8789,1.9843,1.9843,0,0,1-1.706.7421A1.9207,1.9207,0,0,1,44.248,33.2a2.6025,2.6025,0,0,1-.5673-1.7632,2.8168,2.8168,0,0,1,.5976-1.8877,2.0018,2.0018,0,0,1,1.606-.7026A2.11,2.11,0,0,1,47.4116,29.4526Zm-.4912,3.128a2.9838,2.9838,0,0,0,.2891-1.3233,2.3785,2.3785,0,0,0-.2085-1.0713,1.172,1.172,0,0,0-1.1387-.6494,1.12,1.12,0,0,0-1.043.5532,2.5842,2.5842,0,0,0-.3256,1.334,2.2472,2.2472,0,0,0,.3256,1.251,1.1443,1.1443,0,0,0,1.0342.5005A1.0766,1.0766,0,0,0,46.92,32.5806Z"/><path class="b247d3f1-4186-433c-8bd3-f74c2bb4bb16" d="M49.0288,27.2339h.791V33.69h-.791Z"/><path class="b247d3f1-4186-433c-8bd3-f74c2bb4bb16" d="M53.7881,29.2334V28.627a3.2134,3.2134,0,0,0,1.1953-.2793,1.3737,1.3737,0,0,0,.5054-.9248h.624V33.69H55.269V29.2334Z"/><path class="b247d3f1-4186-433c-8bd3-f74c2bb4bb16" d="M162.5566,29.9829l1.2569,3.832,1.3095-3.832h.8663l-1.772,4.7066h-.8433l-1.7353-4.7066Z"/><path class="b247d3f1-4186-433c-8bd3-f74c2bb4bb16" d="M170.0781,30.4526a2.3746,2.3746,0,0,1,.624,1.7828,3.0706,3.0706,0,0,1-.55,1.8789,1.9843,1.9843,0,0,1-1.706.7421,1.92,1.92,0,0,1-1.5317-.6562,2.6021,2.6021,0,0,1-.5674-1.7632,2.8168,2.8168,0,0,1,.5976-1.8877,2.0018,2.0018,0,0,1,1.606-.7026A2.11,2.11,0,0,1,170.0781,30.4526Zm-.4912,3.128a2.9838,2.9838,0,0,0,.2891-1.3233,2.3785,2.3785,0,0,0-.2085-1.0713,1.172,1.172,0,0,0-1.1387-.6494,1.12,1.12,0,0,0-1.043.5532,2.5842,2.5842,0,0,0-.3256,1.334,2.2472,2.2472,0,0,0,.3256,1.251,1.1447,1.1447,0,0,0,1.0347.5005A1.0763,1.0763,0,0,0,169.5869,33.5806Z"/><path class="b247d3f1-4186-433c-8bd3-f74c2bb4bb16" d="M171.6953,28.2339h.791V34.69h-.791Z"/><path class="b247d3f1-4186-433c-8bd3-f74c2bb4bb16" d="M176.4546,30.2334V29.627a3.2134,3.2134,0,0,0,1.1953-.2793,1.3737,1.3737,0,0,0,.5054-.9248h.624V34.69h-.8438V30.2334Z"/><path class="b247d3f1-4186-433c-8bd3-f74c2bb4bb16" d="M287.5566,29.9829l1.2569,3.832,1.31-3.832h.8663l-1.772,4.7066h-.8433l-1.7353-4.7066Z"/><path class="b247d3f1-4186-433c-8bd3-f74c2bb4bb16" d="M295.0781,30.4526a2.3746,2.3746,0,0,1,.624,1.7828,3.0706,3.0706,0,0,1-.55,1.8789,1.9843,1.9843,0,0,1-1.706.7421,1.92,1.92,0,0,1-1.5317-.6562,2.6021,2.6021,0,0,1-.5674-1.7632,2.8168,2.8168,0,0,1,.5976-1.8877,2.0018,2.0018,0,0,1,1.606-.7026A2.11,2.11,0,0,1,295.0781,30.4526Zm-.4912,3.128a2.9838,2.9838,0,0,0,.2891-1.3233,2.3785,2.3785,0,0,0-.2085-1.0713,1.172,1.172,0,0,0-1.1387-.6494,1.12,1.12,0,0,0-1.043.5532,2.5842,2.5842,0,0,0-.3256,1.334,2.2472,2.2472,0,0,0,.3256,1.251,1.1447,1.1447,0,0,0,1.0347.5005A1.0763,1.0763,0,0,0,294.5869,33.5806Z"/><path class="b247d3f1-4186-433c-8bd3-f74c2bb4bb16" d="M296.6953,28.2339h.791V34.69h-.791Z"/><path class="b247d3f1-4186-433c-8bd3-f74c2bb4bb16" d="M301.4546,30.2334V29.627a3.2134,3.2134,0,0,0,1.1953-.2793,1.3737,1.3737,0,0,0,.5054-.9248h.624V34.69h-.8438V30.2334Z"/><path class="b247d3f1-4186-433c-8bd3-f74c2bb4bb16" d="M98.5,48.6924h1.252l1.8564,5.457,1.8437-5.457h1.2432v6.4551h-.834V51.3369c0-.1308.002-.35.0078-.6543s.01-.6308.01-.98l-1.8437,5.4454h-.8663l-1.86-5.4454V49.9q0,.2373.0127.7226t.0127.7139v3.8106H98.5Z"/><path class="b247d3f1-4186-433c-8bd3-f74c2bb4bb16" d="M105.9131,48.6924h.8047v.8965h-.8047Zm0,1.77h.8047v4.6846h-.8047Z"/><path class="b247d3f1-4186-433c-8bd3-f74c2bb4bb16" d="M107.9336,50.44h.7519v.8135a1.7919,1.7919,0,0,1,.4532-.5781,1.1729,1.1729,0,0,1,.83-.3408c.0146,0,.039.0019.0742.0048s.0957.0088.1806.0176v.835a1.1582,1.1582,0,0,0-.13-.0176c-.0391-.0029-.0831-.0039-.129-.0039a1.1294,1.1294,0,0,0-.9189.3838,1.3438,1.3438,0,0,0-.3213.8857v2.7071h-.791Z"/><path class="b247d3f1-4186-433c-8bd3-f74c2bb4bb16" d="M110.9307,50.44h.7519v.8135a1.79,1.79,0,0,1,.4531-.5781,1.1731,1.1731,0,0,1,.83-.3408c.0147,0,.0391.0019.0742.0048s.0957.0088.1807.0176v.835a1.16,1.16,0,0,0-.13-.0176c-.039-.0029-.083-.0039-.1289-.0039a1.1292,1.1292,0,0,0-.9189.3838,1.3438,1.3438,0,0,0-.3213.8857v2.7071h-.791Z"/><path class="b247d3f1-4186-433c-8bd3-f74c2bb4bb16" d="M117.3164,50.9111a2.3735,2.3735,0,0,1,.624,1.7823,3.0728,3.0728,0,0,1-.55,1.8789,1.9825,1.9825,0,0,1-1.706.7422,1.9224,1.9224,0,0,1-1.5323-.6563,2.6042,2.6042,0,0,1-.5664-1.7627,2.8188,2.8188,0,0,1,.5977-1.8887,2.0017,2.0017,0,0,1,1.6055-.7021A2.1078,2.1078,0,0,1,117.3164,50.9111Zm-.4912,3.128a2.9935,2.9935,0,0,0,.2891-1.3243,2.3654,2.3654,0,0,0-.209-1.07,1.17,1.17,0,0,0-1.1377-.6494,1.1179,1.1179,0,0,0-1.043.5528,2.5766,2.5766,0,0,0-.3262,1.3339,2.24,2.24,0,0,0,.3262,1.251,1.1425,1.1425,0,0,0,1.0342.501A1.0761,1.0761,0,0,0,116.8252,54.0391Z"/><path class="b247d3f1-4186-433c-8bd3-f74c2bb4bb16" d="M118.9336,50.44h.7519v.8135a1.7919,1.7919,0,0,1,.4532-.5781,1.1729,1.1729,0,0,1,.83-.3408c.0146,0,.039.0019.0742.0048s.0957.0088.1806.0176v.835a1.1582,1.1582,0,0,0-.13-.0176c-.0391-.0029-.0831-.0039-.129-.0039a1.1294,1.1294,0,0,0-.9189.3838,1.3438,1.3438,0,0,0-.3213.8857v2.7071h-.791Z"/><path class="b247d3f1-4186-433c-8bd3-f74c2bb4bb16" d="M85.6084,59.4922H88.543a2.884,2.884,0,0,1,1.1953.2148,1.5288,1.5288,0,0,1,.893,1.5254,1.5876,1.5876,0,0,1-.91,1.542,1.3248,1.3248,0,0,1,.5693.4043,1.4574,1.4574,0,0,1,.2129.8135l.0308.8652a2.649,2.649,0,0,0,.0615.5488.54.54,0,0,0,.2812.3965v.1446H89.8052a.8.8,0,0,1-.07-.2149,4.1211,4.1211,0,0,1-.044-.51l-.0527-1.0772a.9117.9117,0,0,0-.457-.8486,1.859,1.859,0,0,0-.7642-.1182H86.4829v2.7686h-.8745Zm2.84,2.957a1.614,1.614,0,0,0,.9468-.2461,1.0155,1.0155,0,0,0,.3482-.8877.9586.9586,0,0,0-.4874-.94,1.5525,1.5525,0,0,0-.6962-.1318H86.4829v2.206Z"/><path class="b247d3f1-4186-433c-8bd3-f74c2bb4bb16" d="M94.8042,61.37a1.7948,1.7948,0,0,1,.7119.6084,2.1225,2.1225,0,0,1,.3145.8311,5.4845,5.4845,0,0,1,.07,1.0371H92.4771a2.0326,2.0326,0,0,0,.3359,1.1523,1.12,1.12,0,0,0,.9722.4346,1.2508,1.2508,0,0,0,.9809-.4111,1.4018,1.4018,0,0,0,.2905-.5518h.7779a1.6515,1.6515,0,0,1-.2041.5781,2.0935,2.0935,0,0,1-.3877.52,1.8227,1.8227,0,0,1-.8853.4746,2.6687,2.6687,0,0,1-.6411.07,1.963,1.963,0,0,1-1.4805-.64,2.4957,2.4957,0,0,1-.6069-1.791,2.7139,2.7139,0,0,1,.6113-1.8408,2.0123,2.0123,0,0,1,1.5987-.708A2.13,2.13,0,0,1,94.8042,61.37Zm.2832,1.8487a2.0646,2.0646,0,0,0-.2222-.8223,1.1371,1.1371,0,0,0-1.0766-.5713,1.1876,1.1876,0,0,0-.9063.3936,1.4927,1.4927,0,0,0-.3877,1Z"/><path class="b247d3f1-4186-433c-8bd3-f74c2bb4bb16" d="M96.9243,59.4922h.79v6.4551h-.79Z"/><path class="b247d3f1-4186-433c-8bd3-f74c2bb4bb16" d="M101.4248,63.0986a.4317.4317,0,0,0,.3652-.2275.719.719,0,0,0,.0518-.3047.6463.6463,0,0,0-.2871-.5889,1.5327,1.5327,0,0,0-.8223-.1826,1.0412,1.0412,0,0,0-.8769.335,1.1085,1.1085,0,0,0-.1885.5517h-.7383a1.363,1.363,0,0,1,.5645-1.2138,2.3073,2.3073,0,0,1,1.2568-.3408,2.5536,2.5536,0,0,1,1.3477.3164,1.073,1.073,0,0,1,.5136.9843v2.711a.3448.3448,0,0,0,.0508.1982c.0332.05.1045.0742.2129.0742a1.09,1.09,0,0,0,.1191-.0068c.043-.0039.09-.0107.1407-.02v.584a2.2769,2.2769,0,0,1-.2813.0664,2.08,2.08,0,0,1-.2637.0136.6522.6522,0,0,1-.5937-.29,1.1373,1.1373,0,0,1-.1367-.4356,2.0175,2.0175,0,0,1-.6934.55,2.1643,2.1643,0,0,1-.998.2325,1.4863,1.4863,0,0,1-1.07-.3975,1.319,1.319,0,0,1-.4151-.9941A1.2774,1.2774,0,0,1,99.0918,63.7a1.9386,1.9386,0,0,1,1.0723-.4434ZM99.76,65.2354a.9258.9258,0,0,0,.5927.1982,1.8036,1.8036,0,0,0,.8086-.1934,1.0869,1.0869,0,0,0,.6592-1.0488v-.6357a1.3812,1.3812,0,0,1-.373.1543,3.15,3.15,0,0,1-.4473.0879l-.4775.0615a1.8415,1.8415,0,0,0-.6465.18.6974.6974,0,0,0-.3672.6572A.6452.6452,0,0,0,99.76,65.2354Z"/><path class="b247d3f1-4186-433c-8bd3-f74c2bb4bb16" d="M104.0664,59.9268h.8V61.24h.751v.6465h-.751V64.959a.3318.3318,0,0,0,.167.3291.7118.7118,0,0,0,.3076.0478c.0381,0,.0791,0,.1231-.0019a1.5212,1.5212,0,0,0,.1533-.0156v.6289a1.7573,1.7573,0,0,1-.2832.0566,2.6891,2.6891,0,0,1-.3184.0176.86.86,0,0,1-.7519-.2832,1.2642,1.2642,0,0,1-.1973-.7363V61.8867H103.43V61.24h.6367Z"/><path class="b247d3f1-4186-433c-8bd3-f74c2bb4bb16" d="M106.4082,59.4922h.8047v.8965h-.8047Zm0,1.7705h.8047v4.6846h-.8047Z"/><path class="b247d3f1-4186-433c-8bd3-f74c2bb4bb16" d="M111.8184,61.7109a2.3735,2.3735,0,0,1,.624,1.7823,3.0728,3.0728,0,0,1-.55,1.8789,1.9827,1.9827,0,0,1-1.7061.7422,1.9223,1.9223,0,0,1-1.5322-.6563,2.6042,2.6042,0,0,1-.5664-1.7627,2.8187,2.8187,0,0,1,.5976-1.8887,2.0019,2.0019,0,0,1,1.6055-.7021A2.108,2.108,0,0,1,111.8184,61.7109Zm-.4913,3.128a2.9935,2.9935,0,0,0,.2891-1.3243,2.3644,2.3644,0,0,0-.209-1.07,1.17,1.17,0,0,0-1.1377-.6494,1.1178,1.1178,0,0,0-1.0429.5528,2.5766,2.5766,0,0,0-.3262,1.3339,2.24,2.24,0,0,0,.3262,1.251,1.1424,1.1424,0,0,0,1.0341.501A1.0758,1.0758,0,0,0,111.3271,64.8389Z"/><path class="b247d3f1-4186-433c-8bd3-f74c2bb4bb16" d="M113.4141,61.24h.7519v.668a2.1071,2.1071,0,0,1,.707-.5928,1.8853,1.8853,0,0,1,.83-.1806,1.37,1.37,0,0,1,1.3535.6992,2.4786,2.4786,0,0,1,.1934,1.0937v3.02h-.8037V62.9805a1.605,1.605,0,0,0-.1279-.6934.7713.7713,0,0,0-.7637-.4394,1.5572,1.5572,0,0,0-.4619.0566,1.1887,1.1887,0,0,0-.5713.3867,1.1555,1.1555,0,0,0-.2569.4815,3.2019,3.2019,0,0,0-.0595.71v2.4649h-.791Z"/><path class="b247d3f1-4186-433c-8bd3-f74c2bb4bb16" d="M118.8906,64.4707a1.1331,1.1331,0,0,0,.2012.6064,1.2825,1.2825,0,0,0,1.0586.3819,1.59,1.59,0,0,0,.7891-.19.6331.6331,0,0,0,.3417-.5909.5046.5046,0,0,0-.2734-.4619,3.2506,3.2506,0,0,0-.6875-.2236l-.6387-.1582a3.1458,3.1458,0,0,1-.9013-.334.9956.9956,0,0,1-.5186-.8887,1.3476,1.3476,0,0,1,.4873-1.08,1.9643,1.9643,0,0,1,1.3115-.414,1.8327,1.8327,0,0,1,1.5547.625,1.3393,1.3393,0,0,1,.2891.8516h-.7461a.8994.8994,0,0,0-.1943-.4844,1.253,1.253,0,0,0-.9668-.3106,1.1805,1.1805,0,0,0-.6953.1709.5293.5293,0,0,0-.2354.4512.5527.5527,0,0,0,.31.49,1.8627,1.8627,0,0,0,.5283.1924l.5332.1279a4.2067,4.2067,0,0,1,1.1641.3995,1.06,1.06,0,0,1,.4609.9541A1.4408,1.4408,0,0,1,121.58,65.67a2.07,2.07,0,0,1-1.4707.4571,1.9852,1.9852,0,0,1-1.5059-.4766,1.7892,1.7892,0,0,1-.4736-1.18Z"/><path class="b247d3f1-4186-433c-8bd3-f74c2bb4bb16" d="M122.92,59.47h.791v2.4082a2.2612,2.2612,0,0,1,.5059-.5009,1.7009,1.7009,0,0,1,.9531-.25,1.41,1.41,0,0,1,1.3887.7158,2.444,2.444,0,0,1,.1973,1.0849v3.02h-.8125V62.9805a1.6591,1.6591,0,0,0-.1319-.76.8423.8423,0,0,0-.8086-.3867,1.3486,1.3486,0,0,0-.8916.3379,1.6262,1.6262,0,0,0-.4,1.2793v2.4961h-.791Z"/><path class="b247d3f1-4186-433c-8bd3-f74c2bb4bb16" d="M127.9258,59.4922h.8047v.8965h-.8047Zm0,1.7705h.8047v4.6846h-.8047Z"/><path class="b247d3f1-4186-433c-8bd3-f74c2bb4bb16" d="M129.8594,61.2627h.7734v.624a1.9246,1.9246,0,0,1,.52-.4961,1.6756,1.6756,0,0,1,.9424-.2636,1.7767,1.7767,0,0,1,1.3623.6123,2.5135,2.5135,0,0,1,.56,1.7509,2.683,2.683,0,0,1-.8076,2.1973,1.8306,1.8306,0,0,1-1.1914.418,1.6311,1.6311,0,0,1-.8956-.2325,2.0586,2.0586,0,0,1-.4726-.4531v2.4043h-.791Zm2.9765,3.6894a2.2038,2.2038,0,0,0,.3682-1.3867,2.5878,2.5878,0,0,0-.1631-.9668,1.1967,1.1967,0,0,0-2.2578.044,3.2553,3.2553,0,0,0-.1631,1.1162,2.3594,2.3594,0,0,0,.1631.9267,1.2,1.2,0,0,0,2.0527.2666Z"/><path class="b247d3f1-4186-433c-8bd3-f74c2bb4bb16" d="M213.3145,53.0645a1.8117,1.8117,0,0,0,.2495.8916,1.6286,1.6286,0,0,0,1.4775.6425,2.5291,2.5291,0,0,0,.8638-.1406.99.99,0,0,0,.7534-.9766.8525.8525,0,0,0-.3193-.7509,3.1637,3.1637,0,0,0-1.0132-.3819l-.8472-.1982a3.7288,3.7288,0,0,1-1.1748-.4268,1.3613,1.3613,0,0,1-.5962-1.208,1.8884,1.8884,0,0,1,.5859-1.4287,2.3146,2.3146,0,0,1,1.6592-.5576,2.823,2.823,0,0,1,1.6787.49,1.7876,1.7876,0,0,1,.6905,1.5664h-.8218a1.6655,1.6655,0,0,0-.2695-.7959,1.5368,1.5368,0,0,0-1.3018-.5048,1.4652,1.4652,0,0,0-1.0664.3252,1.0373,1.0373,0,0,0-.3242.7558.7427.7427,0,0,0,.3833.6943,5.4914,5.4914,0,0,0,1.1367.3516l.8769.2061a2.657,2.657,0,0,1,.98.4091,1.5493,1.5493,0,0,1,.5962,1.3135,1.6516,1.6516,0,0,1-.7607,1.5342,3.3417,3.3417,0,0,1-1.7681.4619,2.6021,2.6021,0,0,1-1.8384-.6152,2.1029,2.1029,0,0,1-.6513-1.6572Z"/><path class="b247d3f1-4186-433c-8bd3-f74c2bb4bb16" d="M218.6406,50.44h.7515v.668a2.117,2.117,0,0,1,.7075-.5928,1.8872,1.8872,0,0,1,.8306-.1806,1.37,1.37,0,0,1,1.3535.6992,2.4786,2.4786,0,0,1,.1934,1.0937v3.02h-.8042V52.1807a1.6039,1.6039,0,0,0-.1275-.6934.7725.7725,0,0,0-.7646-.4394,1.5593,1.5593,0,0,0-.4615.0566,1.1885,1.1885,0,0,0-.5713.3867,1.1564,1.1564,0,0,0-.2568.4815,3.2008,3.2008,0,0,0-.06.71v2.4649h-.791Z"/><path class="b247d3f1-4186-433c-8bd3-f74c2bb4bb16" d="M226.1685,52.2988a.4308.4308,0,0,0,.3647-.2275.7021.7021,0,0,0,.0527-.3047.6463.6463,0,0,0-.2871-.5889,1.5359,1.5359,0,0,0-.8222-.1826,1.0414,1.0414,0,0,0-.8775.335,1.1134,1.1134,0,0,0-.1885.5517h-.7382a1.3647,1.3647,0,0,1,.5639-1.2138,2.31,2.31,0,0,1,1.2574-.3409,2.5554,2.5554,0,0,1,1.3476.3165,1.0739,1.0739,0,0,1,.5137.9843v2.711a.3448.3448,0,0,0,.0508.1982c.0332.05.1045.0742.2129.0742a1.0693,1.0693,0,0,0,.1186-.0068c.0439-.0039.0908-.0107.1406-.02v.5839a2.2216,2.2216,0,0,1-.2812.0665,2.06,2.06,0,0,1-.2637.0136.6526.6526,0,0,1-.5933-.29,1.1241,1.1241,0,0,1-.1362-.4356,2.0119,2.0119,0,0,1-.6943.55,2.16,2.16,0,0,1-.9976.2325,1.4866,1.4866,0,0,1-1.07-.3975,1.3189,1.3189,0,0,1-.415-.9941A1.28,1.28,0,0,1,223.835,52.9a1.9442,1.9442,0,0,1,1.0722-.4434Zm-1.6656,2.1367a.9289.9289,0,0,0,.5933.1983,1.8042,1.8042,0,0,0,.8086-.1934,1.0871,1.0871,0,0,0,.6592-1.0488v-.6357a1.3836,1.3836,0,0,1-.3726.1543,3.1677,3.1677,0,0,1-.4477.0878l-.4781.0616a1.8422,1.8422,0,0,0-.646.18.6974.6974,0,0,0-.3672.6572A.6472.6472,0,0,0,224.5029,54.4355Z"/><path class="b247d3f1-4186-433c-8bd3-f74c2bb4bb16" d="M228.5854,50.4629h.7735v.624a1.9216,1.9216,0,0,1,.52-.4961,1.6759,1.6759,0,0,1,.9429-.2637,1.7753,1.7753,0,0,1,1.3613.6124,2.5087,2.5087,0,0,1,.56,1.7509,2.6826,2.6826,0,0,1-.8072,2.1973,1.8294,1.8294,0,0,1-1.1914.418,1.63,1.63,0,0,1-.8955-.2325,2.058,2.058,0,0,1-.4721-.4531v2.4043h-.7911Zm2.9761,3.6894a2.2013,2.2013,0,0,0,.3682-1.3867,2.5778,2.5778,0,0,0-.1631-.9668,1.1967,1.1967,0,0,0-2.2578.044,3.2432,3.2432,0,0,0-.1631,1.1162,2.35,2.35,0,0,0,.1631.9267,1.2,1.2,0,0,0,2.0527.2666Z"/><path class="b247d3f1-4186-433c-8bd3-f74c2bb4bb16" d="M234.2739,48.6924l1.8545,5.4971,1.833-5.4971h.98l-2.3555,6.4551h-.9267l-2.3516-6.4551Z"/><path class="b247d3f1-4186-433c-8bd3-f74c2bb4bb16" d="M241.5186,52.2988a.4308.4308,0,0,0,.3647-.2275.7021.7021,0,0,0,.0527-.3047.6463.6463,0,0,0-.2871-.5889,1.5359,1.5359,0,0,0-.8222-.1826,1.0414,1.0414,0,0,0-.8775.335,1.1134,1.1134,0,0,0-.1885.5517h-.7382a1.3647,1.3647,0,0,1,.5639-1.2138,2.31,2.31,0,0,1,1.2574-.3409,2.5554,2.5554,0,0,1,1.3476.3165,1.0739,1.0739,0,0,1,.5137.9843v2.711a.3448.3448,0,0,0,.0508.1982c.0332.05.1045.0742.2129.0742a1.0911,1.0911,0,0,0,.1191-.0068c.043-.0039.09-.0107.1406-.02v.5839a2.2247,2.2247,0,0,1-.2817.0665,2.06,2.06,0,0,1-.2637.0136.6526.6526,0,0,1-.5933-.29,1.1241,1.1241,0,0,1-.1362-.4356,2.0119,2.0119,0,0,1-.6943.55,2.16,2.16,0,0,1-.9976.2325,1.4866,1.4866,0,0,1-1.07-.3975,1.3189,1.3189,0,0,1-.415-.9941,1.28,1.28,0,0,1,.4087-1.0137,1.9442,1.9442,0,0,1,1.0722-.4434Zm-1.6656,2.1367a.9289.9289,0,0,0,.5933.1983,1.8042,1.8042,0,0,0,.8086-.1934,1.0871,1.0871,0,0,0,.6592-1.0488v-.6357a1.3836,1.3836,0,0,1-.3726.1543,3.1677,3.1677,0,0,1-.4477.0878l-.4781.0616a1.8422,1.8422,0,0,0-.646.18.6974.6974,0,0,0-.3672.6572A.6472.6472,0,0,0,239.853,54.4355Z"/><path class="b247d3f1-4186-433c-8bd3-f74c2bb4bb16" d="M244.793,50.44v3.125a1.3474,1.3474,0,0,0,.1113.5889.7723.7723,0,0,0,.7656.4219,1.0819,1.0819,0,0,0,1.0957-.7383,3,3,0,0,0,.1582-1.085V50.44h.791v4.7071h-.746l.0078-.6944a1.588,1.588,0,0,1-.375.4522,1.63,1.63,0,0,1-1.0782.3691,1.3816,1.3816,0,0,1-1.3447-.6719,2.0272,2.0272,0,0,1-.1943-.9629V50.44Z"/><path class="b247d3f1-4186-433c-8bd3-f74c2bb4bb16" d="M249.0273,48.6924h.7911v6.4551h-.7911Z"/><path class="b247d3f1-4186-433c-8bd3-f74c2bb4bb16" d="M251.1641,49.127h.8V50.44h.7509v.6465h-.7509v3.0723a.3316.3316,0,0,0,.167.3291.7115.7115,0,0,0,.3076.0478c.0381,0,.0791,0,.123-.0019a1.5184,1.5184,0,0,0,.1533-.0156v.6289a1.7551,1.7551,0,0,1-.2832.0566,2.6874,2.6874,0,0,1-.3183.0176.86.86,0,0,1-.752-.2832,1.265,1.265,0,0,1-.1972-.7364V51.0869h-.6368V50.44h.6368Z"/><path class="b247d3f1-4186-433c-8bd3-f74c2bb4bb16" d="M208.5176,59.4922h2.9345a2.8842,2.8842,0,0,1,1.1954.2148,1.5288,1.5288,0,0,1,.893,1.5254,1.5876,1.5876,0,0,1-.91,1.542,1.3248,1.3248,0,0,1,.5693.4043,1.459,1.459,0,0,1,.2129.8135l.0307.8652a2.6406,2.6406,0,0,0,.0616.5488.54.54,0,0,0,.2812.3965v.1446h-1.0722a.8038.8038,0,0,1-.07-.2149,4.1482,4.1482,0,0,1-.0439-.51l-.0527-1.0772a.9118.9118,0,0,0-.4571-.8486,1.8585,1.8585,0,0,0-.7641-.1182h-1.9341v2.7686h-.8745Zm2.84,2.957a1.6142,1.6142,0,0,0,.9468-.2461,1.0155,1.0155,0,0,0,.3481-.8877.9587.9587,0,0,0-.4873-.94,1.5526,1.5526,0,0,0-.6963-.1318h-2.0771v2.206Z"/><path class="b247d3f1-4186-433c-8bd3-f74c2bb4bb16" d="M217.7134,61.37a1.7948,1.7948,0,0,1,.7119.6084,2.1209,2.1209,0,0,1,.3144.8311,5.4825,5.4825,0,0,1,.07,1.0371h-3.4234a2.0334,2.0334,0,0,0,.336,1.1523,1.12,1.12,0,0,0,.9721.4346,1.2509,1.2509,0,0,0,.981-.4111,1.4018,1.4018,0,0,0,.2905-.5518h.7779a1.6535,1.6535,0,0,1-.2041.5781,2.0984,2.0984,0,0,1-.3877.52,1.8227,1.8227,0,0,1-.8853.4746,2.6692,2.6692,0,0,1-.6411.07,1.963,1.963,0,0,1-1.48-.64,2.4952,2.4952,0,0,1-.6069-1.791,2.7139,2.7139,0,0,1,.6113-1.8408,2.0121,2.0121,0,0,1,1.5986-.708A2.13,2.13,0,0,1,217.7134,61.37Zm.2832,1.8487a2.0646,2.0646,0,0,0-.2222-.8223,1.1371,1.1371,0,0,0-1.0766-.5713,1.1874,1.1874,0,0,0-.9063.3936,1.4927,1.4927,0,0,0-.3877,1Z"/><path class="b247d3f1-4186-433c-8bd3-f74c2bb4bb16" d="M219.8335,59.4922h.791v6.4551h-.791Z"/><path class="b247d3f1-4186-433c-8bd3-f74c2bb4bb16" d="M224.3335,63.0986a.4308.4308,0,0,0,.3647-.2275.7019.7019,0,0,0,.0528-.3047.6463.6463,0,0,0-.2871-.5889,1.5363,1.5363,0,0,0-.8223-.1826,1.041,1.041,0,0,0-.8774.335,1.1134,1.1134,0,0,0-.1885.5517h-.7383a1.3648,1.3648,0,0,1,.564-1.2138,2.309,2.309,0,0,1,1.2573-.3408,2.5554,2.5554,0,0,1,1.3476.3164,1.0739,1.0739,0,0,1,.5137.9843v2.711a.3448.3448,0,0,0,.0508.1982c.0332.05.1045.0742.2129.0742a1.0693,1.0693,0,0,0,.1186-.0068c.044-.0039.0909-.0107.1407-.02v.584a2.2358,2.2358,0,0,1-.2813.0664,2.0577,2.0577,0,0,1-.2637.0136.6525.6525,0,0,1-.5932-.29,1.1208,1.1208,0,0,1-.1362-.4356,2.0123,2.0123,0,0,1-.6944.55,2.1593,2.1593,0,0,1-.9975.2325,1.4867,1.4867,0,0,1-1.07-.3975,1.3193,1.3193,0,0,1-.415-.9941A1.28,1.28,0,0,1,222,63.7a1.9449,1.9449,0,0,1,1.0723-.4434Zm-1.6655,2.1368a.9291.9291,0,0,0,.5932.1982,1.8036,1.8036,0,0,0,.8086-.1934,1.0869,1.0869,0,0,0,.6592-1.0488v-.6357a1.3836,1.3836,0,0,1-.3726.1543,3.18,3.18,0,0,1-.4477.0879l-.478.0615a1.8409,1.8409,0,0,0-.646.18.6974.6974,0,0,0-.3672.6572A.6475.6475,0,0,0,222.668,65.2354Z"/><path class="b247d3f1-4186-433c-8bd3-f74c2bb4bb16" d="M226.9746,59.9268h.8V61.24h.7515v.6465h-.7515V64.959a.3318.3318,0,0,0,.167.3291.7118.7118,0,0,0,.3076.0478c.0381,0,.0791,0,.1231-.0019a1.53,1.53,0,0,0,.1538-.0156v.6289a1.7744,1.7744,0,0,1-.2837.0566,2.6952,2.6952,0,0,1-.3184.0176.8573.8573,0,0,1-.7514-.2832,1.2569,1.2569,0,0,1-.1978-.7363V61.8867h-.6372V61.24h.6372Z"/><path class="b247d3f1-4186-433c-8bd3-f74c2bb4bb16" d="M229.3169,59.4922h.8042v.8965h-.8042Zm0,1.7705h.8042v4.6846h-.8042Z"/><path class="b247d3f1-4186-433c-8bd3-f74c2bb4bb16" d="M234.7266,61.7109a2.3735,2.3735,0,0,1,.624,1.7823,3.07,3.07,0,0,1-.55,1.8789,1.9833,1.9833,0,0,1-1.7061.7422,1.9206,1.9206,0,0,1-1.5317-.6563,2.6021,2.6021,0,0,1-.5674-1.7627,2.8182,2.8182,0,0,1,.5977-1.8887,2.0026,2.0026,0,0,1,1.6059-.7021A2.1088,2.1088,0,0,1,234.7266,61.7109Zm-.4912,3.128a2.988,2.988,0,0,0,.289-1.3243,2.3715,2.3715,0,0,0-.2085-1.07,1.17,1.17,0,0,0-1.1387-.6494,1.1188,1.1188,0,0,0-1.0429.5528,2.5814,2.5814,0,0,0-.3257,1.3339,2.2441,2.2441,0,0,0,.3257,1.251,1.1438,1.1438,0,0,0,1.0346.501A1.0765,1.0765,0,0,0,234.2354,64.8389Z"/><path class="b247d3f1-4186-433c-8bd3-f74c2bb4bb16" d="M236.3218,61.24h.7514v.668a2.1173,2.1173,0,0,1,.7076-.5928,1.8868,1.8868,0,0,1,.8305-.1806,1.37,1.37,0,0,1,1.3535.6992,2.4772,2.4772,0,0,1,.1934,1.0937v3.02h-.8042V62.9805a1.6055,1.6055,0,0,0-.1274-.6934.7726.7726,0,0,0-.7647-.4394,1.5581,1.5581,0,0,0-.4614.0566,1.1892,1.1892,0,0,0-.5713.3867,1.1553,1.1553,0,0,0-.2568.4815,3.1947,3.1947,0,0,0-.06.71v2.4649h-.791Z"/><path class="b247d3f1-4186-433c-8bd3-f74c2bb4bb16" d="M241.7974,64.4707a1.1373,1.1373,0,0,0,.2016.6064,1.2826,1.2826,0,0,0,1.0586.3819,1.5925,1.5925,0,0,0,.7891-.19.6331.6331,0,0,0,.3418-.5909.5047.5047,0,0,0-.2735-.4619,3.2506,3.2506,0,0,0-.6875-.2236l-.6381-.1582a3.1444,3.1444,0,0,1-.9024-.334.9961.9961,0,0,1-.5181-.8887,1.348,1.348,0,0,1,.4878-1.08,1.9625,1.9625,0,0,1,1.3116-.414,1.8325,1.8325,0,0,1,1.5542.625,1.34,1.34,0,0,1,.289.8516h-.7461a.8986.8986,0,0,0-.1943-.4844,1.253,1.253,0,0,0-.9668-.3106,1.1767,1.1767,0,0,0-.6948.1709.5293.5293,0,0,0-.2364.4512.5539.5539,0,0,0,.3106.49,1.845,1.845,0,0,0,.5283.1924l.5327.1279a4.2067,4.2067,0,0,1,1.1641.3995,1.06,1.06,0,0,1,.4609.9541,1.44,1.44,0,0,1-.4824,1.0849,2.07,2.07,0,0,1-1.47.4571,1.9874,1.9874,0,0,1-1.5064-.4766,1.7892,1.7892,0,0,1-.4736-1.18Z"/><path class="b247d3f1-4186-433c-8bd3-f74c2bb4bb16" d="M245.8271,59.47h.7911v2.4082a2.2611,2.2611,0,0,1,.5058-.5009,1.7009,1.7009,0,0,1,.9531-.25,1.41,1.41,0,0,1,1.3887.7158,2.4426,2.4426,0,0,1,.1973,1.0849v3.02h-.8125V62.9805a1.6607,1.6607,0,0,0-.1318-.76.8424.8424,0,0,0-.8086-.3867,1.3483,1.3483,0,0,0-.8916.3379,1.6258,1.6258,0,0,0-.4,1.2793v2.4961h-.7911Z"/><path class="b247d3f1-4186-433c-8bd3-f74c2bb4bb16" d="M250.832,59.4922h.8047v.8965h-.8047Zm0,1.7705h.8047v4.6846h-.8047Z"/><path class="b247d3f1-4186-433c-8bd3-f74c2bb4bb16" d="M252.7656,61.2627h.7735v.624a1.9232,1.9232,0,0,1,.52-.4961,1.6751,1.6751,0,0,1,.9424-.2636,1.777,1.777,0,0,1,1.3623.6123,2.5139,2.5139,0,0,1,.56,1.7509,2.6827,2.6827,0,0,1-.8076,2.1973,1.8306,1.8306,0,0,1-1.1914.418,1.63,1.63,0,0,1-.8955-.2325,2.0607,2.0607,0,0,1-.4727-.4531v2.4043h-.791Zm2.9766,3.6894a2.2044,2.2044,0,0,0,.3682-1.3867,2.5878,2.5878,0,0,0-.1631-.9668,1.1967,1.1967,0,0,0-2.2578.044,3.2553,3.2553,0,0,0-.1631,1.1162,2.3594,2.3594,0,0,0,.1631.9267,1.2,1.2,0,0,0,2.0527.2666Z"/></g></svg>