<?xml version="1.0" encoding="UTF-8"?><!-- Generator: Adobe Illustrator 16.0.3, SVG Export Plug-In . SVG Version: 6.00 Build 0)  --><!DOCTYPE svg PUBLIC "-//W3C//DTD SVG 1.1//EN" "http://www.w3.org/Graphics/SVG/1.1/DTD/svg11.dtd">
<svg xmlns="http://www.w3.org/2000/svg" xmlns:xlink="http://www.w3.org/1999/xlink" version="1.1" x="0px" y="0px" width="341px" height="135px" viewBox="0 0 341 135" enable-background="new 0 0 341 135" xml:space="preserve" preserveAspectRatio="xMidYMid meet" zoomAndPan="magnify" contentScriptType="application/ecmascript" contentStyleType="text/css">
<g id="Illustration">
	<path fill="none" stroke="#999999" stroke-width="2" stroke-dasharray="5" d="M90.139,120.364c0,4.868-4.039,8.815-9.021,8.815   H14.385c-4.982,0-9.021-3.947-9.021-8.815V24.91c0-4.869,4.039-8.816,9.021-8.816h66.733c4.981,0,9.021,3.947,9.021,8.816V120.364z   "/>
	<g>
		<g>
			<g>
				<g>
					<g>
						<path fill="#FFFFFF" stroke="#FFFFFF" stroke-width="4" d="M19.452,31.143L19.42,53.183c0,4.151,14.086,7.916,29.811,7.916        c15.728,0,25.095-4.12,27.157-8.239V30.755"/>
						<g>
							<path fill="#FFFFFF" stroke="#FFFFFF" stroke-width="4" d="M48.027,38.961c15.724,0,28.472-3.361,28.472-7.513         c0-4.147-12.748-7.514-28.472-7.514c-15.726,0-28.474,3.367-28.474,7.514C19.553,35.601,32.301,38.961,48.027,38.961z"/>
						</g>
					</g>
				</g>
			</g>
		</g>
		<g>
			<g>
				<g>
					<g>
						<path fill="none" stroke="#FFFFFF" stroke-width="1.5" d="M19.449,31.286L19.42,53.329c0,4.15,14.086,7.915,29.811,7.915        c15.728,0,25.095-4.12,27.153-8.24V30.897"/>
						<g>
							<path fill="none" stroke="#FFFFFF" stroke-width="1.5" d="M48.022,39.106c15.729,0,28.475-3.363,28.475-7.516         c0-4.146-12.746-7.512-28.475-7.512c-15.721,0-28.469,3.366-28.469,7.512C19.553,35.743,32.301,39.106,48.022,39.106z"/>
						</g>
					</g>
				</g>
			</g>
		</g>
		<g>
			<g>
				<g>
					<g>
						<path fill="none" stroke="#000000" stroke-width="0.5" d="M19.449,31.143L19.42,53.183c0,4.151,14.086,7.916,29.811,7.916        c15.728,0,25.095-4.12,27.153-8.239V30.755"/>
						<g>
							<path fill="none" stroke="#000000" stroke-width="0.5" d="M48.022,38.961c15.729,0,28.475-3.361,28.475-7.513         c0-4.147-12.746-7.514-28.475-7.514c-15.721,0-28.469,3.367-28.469,7.514C19.553,35.601,32.301,38.961,48.022,38.961z"/>
						</g>
					</g>
				</g>
			</g>
		</g>
		<g>
			<g>
				<g>
					<g>
						<path fill="none" stroke="#000000" stroke-width="0.5" d="M19.449,85.81L19.42,107.85c0,4.15,14.086,7.916,29.811,7.916        c15.728,0,25.095-4.12,27.153-8.239V85.422"/>
						<g>
							<path fill="none" stroke="#000000" stroke-width="0.5" d="M48.022,93.628c15.729,0,28.475-3.361,28.475-7.513         c0-4.147-12.746-7.514-28.475-7.514c-15.721,0-28.469,3.367-28.469,7.514C19.553,90.268,32.301,93.628,48.022,93.628z"/>
						</g>
					</g>
				</g>
			</g>
		</g>
	</g>
	<path fill="none" stroke="#999999" stroke-width="2" stroke-dasharray="5" d="M213.367,120.364c0,4.868-4.039,8.815-9.021,8.815   h-66.733c-4.982,0-9.021-3.947-9.021-8.815V24.91c0-4.869,4.039-8.816,9.021-8.816h66.733c4.981,0,9.021,3.947,9.021,8.816V120.364   z"/>
	<g>
		<g>
			<g>
				<g>
					<g>
						<path fill="#FFFFFF" stroke="#FFFFFF" stroke-width="4" d="M142.681,31.143l-0.032,22.041c0,4.151,14.086,7.916,29.81,7.916        c15.729,0,25.096-4.12,27.157-8.239V30.755"/>
						<g>
							<path fill="#FFFFFF" stroke="#FFFFFF" stroke-width="4" d="M171.256,38.961c15.724,0,28.471-3.361,28.471-7.513         c0-4.147-12.747-7.514-28.471-7.514c-15.727,0-28.474,3.367-28.474,7.514C142.782,35.601,155.529,38.961,171.256,38.961z"/>
						</g>
					</g>
				</g>
			</g>
		</g>
		<g>
			<g>
				<g>
					<g>
						<path fill="none" stroke="#FFFFFF" stroke-width="1.5" d="M142.678,31.286l-0.029,22.042c0,4.15,14.086,7.915,29.81,7.915        c15.729,0,25.096-4.12,27.153-8.24V30.897"/>
						<g>
							<path fill="none" stroke="#FFFFFF" stroke-width="1.5" d="M171.25,39.106c15.729,0,28.475-3.363,28.475-7.516         c0-4.146-12.745-7.512-28.475-7.512c-15.721,0-28.468,3.366-28.468,7.512C142.782,35.743,155.529,39.106,171.25,39.106z"/>
						</g>
					</g>
				</g>
			</g>
		</g>
		<g>
			<g>
				<g>
					<g>
						<path fill="none" stroke="#000000" stroke-width="0.5" d="M142.678,31.143l-0.029,22.041c0,4.151,14.086,7.916,29.81,7.916        c15.729,0,25.096-4.12,27.153-8.239V30.755"/>
						<g>
							<path fill="none" stroke="#000000" stroke-width="0.5" d="M171.25,38.961c15.729,0,28.475-3.361,28.475-7.513         c0-4.147-12.745-7.514-28.475-7.514c-15.721,0-28.468,3.367-28.468,7.514C142.782,35.601,155.529,38.961,171.25,38.961z"/>
						</g>
					</g>
				</g>
			</g>
		</g>
		<g>
			<g>
				<g>
					<g>
						<path fill="none" stroke="#000000" stroke-width="0.5" d="M142.678,85.81l-0.029,22.041c0,4.15,14.086,7.916,29.81,7.916        c15.729,0,25.096-4.12,27.153-8.239V85.422"/>
						<g>
							<path fill="none" stroke="#000000" stroke-width="0.5" d="M171.25,93.628c15.729,0,28.475-3.361,28.475-7.513         c0-4.147-12.745-7.514-28.475-7.514c-15.721,0-28.468,3.367-28.468,7.514C142.782,90.268,155.529,93.628,171.25,93.628z"/>
						</g>
					</g>
				</g>
			</g>
		</g>
	</g>
	<path fill="none" stroke="#999999" stroke-width="2" stroke-dasharray="5" d="M336.596,120.364c0,4.868-4.039,8.815-9.021,8.815   h-66.733c-4.981,0-9.02-3.947-9.02-8.815V24.91c0-4.869,4.038-8.816,9.02-8.816h66.733c4.981,0,9.021,3.947,9.021,8.816V120.364z"/>
	<g>
		<g>
			<g>
				<g>
					<g>
						<path fill="#FFFFFF" stroke="#FFFFFF" stroke-width="4" d="M265.909,31.143l-0.032,22.041c0,4.151,14.087,7.916,29.811,7.916        c15.729,0,25.096-4.12,27.157-8.239V30.755"/>
						<g>
							<path fill="#FFFFFF" stroke="#FFFFFF" stroke-width="4" d="M294.484,38.961c15.724,0,28.471-3.361,28.471-7.513         c0-4.147-12.747-7.514-28.471-7.514c-15.727,0-28.475,3.367-28.475,7.514C266.01,35.601,278.758,38.961,294.484,38.961z"/>
						</g>
					</g>
				</g>
			</g>
		</g>
		<g>
			<g>
				<g>
					<g>
						<path fill="none" stroke="#FFFFFF" stroke-width="1.5" d="M265.906,31.286l-0.029,22.042c0,4.15,14.087,7.915,29.811,7.915        c15.729,0,25.096-4.12,27.153-8.24V30.897"/>
						<g>
							<path fill="none" stroke="#FFFFFF" stroke-width="1.5" d="M294.479,39.106c15.729,0,28.475-3.363,28.475-7.516         c0-4.146-12.745-7.512-28.475-7.512c-15.721,0-28.469,3.366-28.469,7.512C266.01,35.743,278.758,39.106,294.479,39.106z"/>
						</g>
					</g>
				</g>
			</g>
		</g>
		<g>
			<g>
				<g>
					<g>
						<path fill="none" stroke="#000000" stroke-width="0.5" d="M265.906,31.143l-0.029,22.041c0,4.151,14.087,7.916,29.811,7.916        c15.729,0,25.096-4.12,27.153-8.239V30.755"/>
						<g>
							<path fill="none" stroke="#000000" stroke-width="0.5" d="M294.479,38.961c15.729,0,28.475-3.361,28.475-7.513         c0-4.147-12.745-7.514-28.475-7.514c-15.721,0-28.469,3.367-28.469,7.514C266.01,35.601,278.758,38.961,294.479,38.961z"/>
						</g>
					</g>
				</g>
			</g>
		</g>
		<g>
			<g>
				<g>
					<g>
						<path fill="none" stroke="#000000" stroke-width="0.5" d="M265.906,85.81l-0.029,22.041c0,4.15,14.087,7.916,29.811,7.916        c15.729,0,25.096-4.12,27.153-8.239V85.422"/>
						<g>
							<path fill="none" stroke="#000000" stroke-width="0.5" d="M294.479,93.628c15.729,0,28.475-3.361,28.475-7.513         c0-4.147-12.745-7.514-28.475-7.514c-15.721,0-28.469,3.367-28.469,7.514C266.01,90.268,278.758,93.628,294.479,93.628z"/>
						</g>
					</g>
				</g>
			</g>
		</g>
	</g>
	<g>
		<line fill="none" stroke="#010101" stroke-width="0.5" x1="135.828" y1="45.489" x2="78.031" y2="45.489"/>
		<polygon fill="#010101" points="134.855,47.854 134.855,43.123 142.701,45.753   "/>
	</g>
	<g>
		<line fill="none" stroke="#010101" stroke-width="0.5" x1="259.078" y1="45.489" x2="201.473" y2="45.489"/>
		<polygon fill="#010101" points="258.109,47.854 258.109,43.123 265.93,45.753   "/>
	</g>
</g>
<g id="Text">
	<text transform="matrix(1 0 0 1 13.1997 10.4097)" font-family="'Helvetica'" font-size="9">Storage system A</text>
	<text transform="matrix(1 0 0 1 133.8657 10.4097)" font-family="'Helvetica'" font-size="9">Storage system B</text>
	<text transform="matrix(1 0 0 1 256.1992 10.4097)" font-family="'Helvetica'" font-size="9">Storage system C</text>
	<text transform="matrix(1 0 0 1 38.9214 33.6895)" font-family="'Helvetica'" font-size="9">vol 1</text>
	<text transform="matrix(1 0 0 1 161.5879 34.6895)" font-family="'Helvetica'" font-size="9">vol 1</text>
	<text transform="matrix(1 0 0 1 286.5879 34.6895)" font-family="'Helvetica'" font-size="9">vol 1</text>
	<rect x="76.384" y="48.677" fill="none" width="66.398" height="29.924"/>
	<text transform="matrix(1 0 0 1 97.8379 55.1387)"><tspan x="0" y="0" font-family="'Helvetica'" font-size="9">Mirror</tspan><tspan x="-13.014" y="10.8" font-family="'Helvetica'" font-size="9">Relationship</tspan></text>
	<rect x="199.616" y="48.677" fill="none" width="65.752" height="43.335"/>
	<text transform="matrix(1 0 0 1 211.7295 55.1387)"><tspan x="0" y="0" font-family="'Helvetica'" font-size="9">SnapVault</tspan><tspan x="-3.996" y="10.8" font-family="'Helvetica'" font-size="9">Relationship</tspan></text>
</g>
</svg>