<?xml version="1.0" encoding="UTF-8"?><!-- Generator: Adobe Illustrator 12.0.0, SVG Export Plug-In . SVG Version: 6.00 Build 51448)  --><!DOCTYPE svg PUBLIC "-//W3C//DTD SVG 1.1//EN" "http://www.w3.org/Graphics/SVG/1.1/DTD/svg11.dtd">
<svg xmlns="http://www.w3.org/2000/svg" xmlns:xlink="http://www.w3.org/1999/xlink" version="1.1" width="333.231" height="132.23" viewBox="0 0 333.231 132.23" overflow="visible" enable-background="new 0 0 333.231 132.23" xml:space="preserve" preserveAspectRatio="xMidYMid meet" zoomAndPan="magnify" contentScriptType="application/ecmascript" contentStyleType="text/css">
<g id="Illustration">
	<path fill="none" stroke="#999999" stroke-width="2" stroke-dasharray="5" d="M85.774,122.415c0,4.868-4.039,8.815-9.021,8.815   H10.021c-4.982,0-9.021-3.947-9.021-8.815V26.961c0-4.869,4.039-8.816,9.021-8.816h66.733c4.981,0,9.021,3.947,9.021,8.816V122.415   z"/>
	<g>
		<g>
			<g>
				<g>
					<g>
						<path fill="#FFFFFF" stroke="#FFFFFF" stroke-width="4" d="M15.087,33.193l-0.032,22.041c0,4.151,14.086,7.916,29.811,7.916        c15.728,0,25.095-4.12,27.157-8.239V32.806"/>
						<g>
							<path fill="#FFFFFF" stroke="#FFFFFF" stroke-width="4" d="M43.662,41.012c15.724,0,28.472-3.361,28.472-7.513         c0-4.147-12.748-7.514-28.472-7.514c-15.726,0-28.474,3.367-28.474,7.514C15.188,37.651,27.936,41.012,43.662,41.012z"/>
						</g>
					</g>
				</g>
			</g>
		</g>
		<g>
			<g>
				<g>
					<g>
						<path fill="none" stroke="#FFFFFF" stroke-width="1.5" d="M15.084,33.337l-0.029,22.042c0,4.15,14.086,7.915,29.811,7.915        c15.728,0,25.095-4.12,27.153-8.24V32.948"/>
						<g>
							<path fill="none" stroke="#FFFFFF" stroke-width="1.5" d="M43.657,41.157c15.729,0,28.475-3.363,28.475-7.516         c0-4.146-12.746-7.512-28.475-7.512c-15.721,0-28.469,3.366-28.469,7.512C15.188,37.793,27.936,41.157,43.657,41.157z"/>
						</g>
					</g>
				</g>
			</g>
		</g>
		<g>
			<g>
				<g>
					<g>
						<path fill="none" stroke="#000000" stroke-width="0.5" d="M15.084,33.193l-0.029,22.041c0,4.151,14.086,7.916,29.811,7.916        c15.728,0,25.095-4.12,27.153-8.239V32.806"/>
						<g>
							<path fill="none" stroke="#000000" stroke-width="0.5" d="M43.657,41.012c15.729,0,28.475-3.361,28.475-7.513         c0-4.147-12.746-7.514-28.475-7.514c-15.721,0-28.469,3.367-28.469,7.514C15.188,37.651,27.936,41.012,43.657,41.012z"/>
						</g>
					</g>
				</g>
			</g>
		</g>
		<g>
			<g>
				<g>
					<g>
						<path fill="none" stroke="#000000" stroke-width="0.5" d="M15.084,87.86l-0.029,22.041c0,4.15,14.086,7.916,29.811,7.916        c15.728,0,25.095-4.12,27.153-8.239V87.473"/>
						<g>
							<path fill="none" stroke="#000000" stroke-width="0.5" d="M43.657,95.679c15.729,0,28.475-3.361,28.475-7.513         c0-4.147-12.746-7.514-28.475-7.514c-15.721,0-28.469,3.367-28.469,7.514C15.188,92.318,27.936,95.679,43.657,95.679z"/>
						</g>
					</g>
				</g>
			</g>
		</g>
	</g>
	<path fill="none" stroke="#999999" stroke-width="2" stroke-dasharray="5" d="M209.002,122.415c0,4.868-4.039,8.815-9.021,8.815   h-66.733c-4.982,0-9.021-3.947-9.021-8.815V26.961c0-4.869,4.039-8.816,9.021-8.816h66.733c4.981,0,9.021,3.947,9.021,8.816   V122.415z"/>
	<g>
		<g>
			<g>
				<g>
					<g>
						<path fill="#FFFFFF" stroke="#FFFFFF" stroke-width="4" d="M138.316,33.193l-0.032,22.041c0,4.151,14.086,7.916,29.81,7.916        c15.729,0,25.096-4.12,27.157-8.239V32.806"/>
						<g>
							<path fill="#FFFFFF" stroke="#FFFFFF" stroke-width="4" d="M166.891,41.012c15.724,0,28.471-3.361,28.471-7.513         c0-4.147-12.747-7.514-28.471-7.514c-15.727,0-28.474,3.367-28.474,7.514C138.417,37.651,151.165,41.012,166.891,41.012z"/>
						</g>
					</g>
				</g>
			</g>
		</g>
		<g>
			<g>
				<g>
					<g>
						<path fill="none" stroke="#FFFFFF" stroke-width="1.5" d="M138.313,33.337l-0.029,22.042c0,4.15,14.086,7.915,29.81,7.915        c15.729,0,25.096-4.12,27.153-8.24V32.948"/>
						<g>
							<path fill="none" stroke="#FFFFFF" stroke-width="1.5" d="M166.885,41.157c15.729,0,28.475-3.363,28.475-7.516         c0-4.146-12.745-7.512-28.475-7.512c-15.721,0-28.468,3.366-28.468,7.512C138.417,37.793,151.165,41.157,166.885,41.157z"/>
						</g>
					</g>
				</g>
			</g>
		</g>
		<g>
			<g>
				<g>
					<g>
						<path fill="none" stroke="#000000" stroke-width="0.5" d="M138.313,33.193l-0.029,22.041c0,4.151,14.086,7.916,29.81,7.916        c15.729,0,25.096-4.12,27.153-8.239V32.806"/>
						<g>
							<path fill="none" stroke="#000000" stroke-width="0.5" d="M166.885,41.012c15.729,0,28.475-3.361,28.475-7.513         c0-4.147-12.745-7.514-28.475-7.514c-15.721,0-28.468,3.367-28.468,7.514C138.417,37.651,151.165,41.012,166.885,41.012z"/>
						</g>
					</g>
				</g>
			</g>
		</g>
		<g>
			<g>
				<g>
					<g>
						<path fill="none" stroke="#000000" stroke-width="0.5" d="M138.313,87.86l-0.029,22.041c0,4.15,14.086,7.916,29.81,7.916        c15.729,0,25.096-4.12,27.153-8.239V87.473"/>
						<g>
							<path fill="none" stroke="#000000" stroke-width="0.5" d="M166.885,95.679c15.729,0,28.475-3.361,28.475-7.513         c0-4.147-12.745-7.514-28.475-7.514c-15.721,0-28.468,3.367-28.468,7.514C138.417,92.318,151.165,95.679,166.885,95.679z"/>
						</g>
					</g>
				</g>
			</g>
		</g>
	</g>
	<path fill="none" stroke="#999999" stroke-width="2" stroke-dasharray="5" d="M332.231,122.415c0,4.868-4.039,8.815-9.021,8.815   h-66.733c-4.981,0-9.02-3.947-9.02-8.815V26.961c0-4.869,4.038-8.816,9.02-8.816h66.733c4.981,0,9.021,3.947,9.021,8.816V122.415z"/>
	<g>
		<g>
			<g>
				<g>
					<g>
						<path fill="#FFFFFF" stroke="#FFFFFF" stroke-width="4" d="M261.544,33.193l-0.032,22.041c0,4.151,14.087,7.916,29.811,7.916        c15.729,0,25.096-4.12,27.157-8.239V32.806"/>
						<g>
							<path fill="#FFFFFF" stroke="#FFFFFF" stroke-width="4" d="M290.12,41.012c15.724,0,28.471-3.361,28.471-7.513         c0-4.147-12.747-7.514-28.471-7.514c-15.727,0-28.475,3.367-28.475,7.514C261.645,37.651,274.393,41.012,290.12,41.012z"/>
						</g>
					</g>
				</g>
			</g>
		</g>
		<g>
			<g>
				<g>
					<g>
						<path fill="none" stroke="#FFFFFF" stroke-width="1.5" d="M261.542,33.337l-0.029,22.042c0,4.15,14.087,7.915,29.811,7.915        c15.729,0,25.096-4.12,27.153-8.24V32.948"/>
						<g>
							<path fill="none" stroke="#FFFFFF" stroke-width="1.5" d="M290.114,41.157c15.729,0,28.475-3.363,28.475-7.516         c0-4.146-12.745-7.512-28.475-7.512c-15.721,0-28.469,3.366-28.469,7.512C261.645,37.793,274.393,41.157,290.114,41.157z"/>
						</g>
					</g>
				</g>
			</g>
		</g>
		<g>
			<g>
				<g>
					<g>
						<path fill="none" stroke="#000000" stroke-width="0.5" d="M261.542,33.193l-0.029,22.041c0,4.151,14.087,7.916,29.811,7.916        c15.729,0,25.096-4.12,27.153-8.239V32.806"/>
						<g>
							<path fill="none" stroke="#000000" stroke-width="0.5" d="M290.114,41.012c15.729,0,28.475-3.361,28.475-7.513         c0-4.147-12.745-7.514-28.475-7.514c-15.721,0-28.469,3.367-28.469,7.514C261.645,37.651,274.393,41.012,290.114,41.012z"/>
						</g>
					</g>
				</g>
			</g>
		</g>
		<g>
			<g>
				<g>
					<g>
						<path fill="none" stroke="#000000" stroke-width="0.5" d="M261.542,87.86l-0.029,22.041c0,4.15,14.087,7.916,29.811,7.916        c15.729,0,25.096-4.12,27.153-8.239V87.473"/>
						<g>
							<path fill="none" stroke="#000000" stroke-width="0.5" d="M290.114,95.679c15.729,0,28.475-3.361,28.475-7.513         c0-4.147-12.745-7.514-28.475-7.514c-15.721,0-28.469,3.367-28.469,7.514C261.645,92.318,274.393,95.679,290.114,95.679z"/>
						</g>
					</g>
				</g>
			</g>
		</g>
	</g>
	<g>
		<line fill="none" stroke="#010101" stroke-width="0.5" x1="131.463" y1="47.54" x2="73.667" y2="47.54"/>
		<polygon fill="#010101" points="130.491,49.905 130.491,45.173 138.336,47.804   "/>
	</g>
	<g>
		<line fill="none" stroke="#010101" stroke-width="0.5" x1="254.713" y1="47.54" x2="197.108" y2="47.54"/>
		<polygon fill="#010101" points="253.745,49.905 253.745,45.173 261.565,47.804   "/>
	</g>
</g>
<g id="Text">
	<text transform="matrix(1 0 0 1 8.835 12.4604)" font-family="'Helvetica'" font-size="9">Storage system A</text>
	<text transform="matrix(1 0 0 1 129.501 12.4604)" font-family="'Helvetica'" font-size="9">Storage system B</text>
	<text transform="matrix(1 0 0 1 251.8345 12.4604)" font-family="'Helvetica'" font-size="9">Storage system C</text>
	<text transform="matrix(1 0 0 1 34.5566 35.7402)" font-family="'Helvetica'" font-size="9">vol 1</text>
	<text transform="matrix(1 0 0 1 157.2231 36.7402)" font-family="'Helvetica'" font-size="9">vol 1</text>
	<text transform="matrix(1 0 0 1 282.2231 36.7402)" font-family="'Helvetica'" font-size="9">vol 1</text>
	<rect x="92.669" y="50.728" fill="none" width="28" height="10.666"/>
	<text transform="matrix(1 0 0 1 92.6694 57.1895)" font-family="'Helvetica'" font-size="9">Mirror</text>
	<rect x="214.669" y="50.728" fill="none" width="28" height="10.666"/>
	<text transform="matrix(1 0 0 1 214.6694 57.1895)" font-family="'Helvetica'" font-size="9">Mirror</text>
</g>
</svg>