<?xml version="1.0" encoding="UTF-8"?><!-- Generator: Adobe Illustrator 12.0.0, SVG Export Plug-In . SVG Version: 6.00 Build 51448)  --><!DOCTYPE svg PUBLIC "-//W3C//DTD SVG 1.1//EN" "http://www.w3.org/Graphics/SVG/1.1/DTD/svg11.dtd">
<svg xmlns="http://www.w3.org/2000/svg" xmlns:xlink="http://www.w3.org/1999/xlink" version="1.1" width="323.667" height="268" viewBox="0 0 323.667 268" overflow="visible" enable-background="new 0 0 323.667 268" xml:space="preserve" preserveAspectRatio="xMidYMid meet" zoomAndPan="magnify" contentScriptType="application/ecmascript" contentStyleType="text/css">
<g id="Illustration">
	<path fill="none" stroke="#999999" stroke-width="2" stroke-dasharray="5" d="M85.774,190.185c0,4.868-4.039,8.815-9.021,8.815   H10.021C5.039,199,1,195.053,1,190.185V94.731c0-4.869,4.039-8.816,9.021-8.816h66.733c4.981,0,9.021,3.947,9.021,8.816V190.185z"/>
	<g>
		<g>
			<g>
				<g>
					<g>
						<path fill="#FFFFFF" stroke="#FFFFFF" stroke-width="4" d="M15.087,100.964l-0.032,22.041c0,4.151,14.086,7.916,29.811,7.916        c15.728,0,25.095-4.12,27.157-8.239v-22.105"/>
						<g>
							<path fill="#FFFFFF" stroke="#FFFFFF" stroke-width="4" d="M43.662,108.783c15.724,0,28.472-3.361,28.472-7.513         c0-4.147-12.748-7.514-28.472-7.514c-15.726,0-28.474,3.367-28.474,7.514C15.188,105.422,27.936,108.783,43.662,108.783z"/>
						</g>
					</g>
				</g>
			</g>
		</g>
		<g>
			<g>
				<g>
					<g>
						<path fill="none" stroke="#FFFFFF" stroke-width="1.5" d="M15.084,101.107l-0.029,22.042c0,4.15,14.086,7.915,29.811,7.915        c15.728,0,25.095-4.12,27.153-8.24v-22.106"/>
						<g>
							<path fill="none" stroke="#FFFFFF" stroke-width="1.5" d="M43.657,108.927c15.729,0,28.475-3.363,28.475-7.516         c0-4.146-12.746-7.512-28.475-7.512c-15.721,0-28.469,3.366-28.469,7.512C15.188,105.564,27.936,108.927,43.657,108.927z"/>
						</g>
					</g>
				</g>
			</g>
		</g>
		<g>
			<g>
				<g>
					<g>
						<path fill="none" stroke="#000000" stroke-width="0.5" d="M15.084,100.964l-0.029,22.041c0,4.151,14.086,7.916,29.811,7.916        c15.728,0,25.095-4.12,27.153-8.239v-22.105"/>
						<g>
							<path fill="none" stroke="#000000" stroke-width="0.5" d="M43.657,108.783c15.729,0,28.475-3.361,28.475-7.513         c0-4.147-12.746-7.514-28.475-7.514c-15.721,0-28.469,3.367-28.469,7.514C15.188,105.422,27.936,108.783,43.657,108.783z"/>
						</g>
					</g>
				</g>
			</g>
		</g>
		<g>
			<g>
				<g>
					<g>
						<path fill="none" stroke="#000000" stroke-width="0.5" d="M15.084,155.63l-0.029,22.041c0,4.15,14.086,7.916,29.811,7.916        c15.728,0,25.095-4.12,27.153-8.239v-22.104"/>
						<g>
							<path fill="none" stroke="#000000" stroke-width="0.5" d="M43.657,163.45c15.729,0,28.475-3.36,28.475-7.513         c0-4.147-12.746-7.515-28.475-7.515c-15.721,0-28.469,3.367-28.469,7.515C15.188,160.089,27.936,163.45,43.657,163.45z"/>
						</g>
					</g>
				</g>
			</g>
		</g>
	</g>
	<path fill="none" stroke="#999999" stroke-width="2" stroke-dasharray="5" d="M229.002,120.185c0,4.868-4.039,8.815-9.021,8.815   h-66.733c-4.981,0-9.02-3.947-9.02-8.815V24.731c0-4.869,4.038-8.816,9.02-8.816h66.733c4.981,0,9.021,3.947,9.021,8.816V120.185z"/>
	<g>
		<g>
			<g>
				<g>
					<g>
						<path fill="#FFFFFF" stroke="#FFFFFF" stroke-width="4" d="M158.316,30.964l-0.032,22.041c0,4.151,14.087,7.916,29.811,7.916        c15.729,0,25.096-4.12,27.157-8.239V30.576"/>
						<g>
							<path fill="#FFFFFF" stroke="#FFFFFF" stroke-width="4" d="M186.891,38.783c15.724,0,28.471-3.361,28.471-7.513         c0-4.147-12.747-7.514-28.471-7.514c-15.727,0-28.475,3.367-28.475,7.514C158.417,35.422,171.165,38.783,186.891,38.783z"/>
						</g>
					</g>
				</g>
			</g>
		</g>
		<g>
			<g>
				<g>
					<g>
						<path fill="none" stroke="#FFFFFF" stroke-width="1.5" d="M158.313,31.107l-0.029,22.042c0,4.15,14.087,7.915,29.811,7.915        c15.729,0,25.096-4.12,27.153-8.24V30.718"/>
						<g>
							<path fill="none" stroke="#FFFFFF" stroke-width="1.5" d="M186.885,38.927c15.729,0,28.475-3.363,28.475-7.516         c0-4.146-12.745-7.512-28.475-7.512c-15.721,0-28.469,3.366-28.469,7.512C158.417,35.564,171.165,38.927,186.885,38.927z"/>
						</g>
					</g>
				</g>
			</g>
		</g>
		<g>
			<g>
				<g>
					<g>
						<path fill="none" stroke="#000000" stroke-width="0.5" d="M158.313,30.964l-0.029,22.041c0,4.151,14.087,7.916,29.811,7.916        c15.729,0,25.096-4.12,27.153-8.239V30.576"/>
						<g>
							<path fill="none" stroke="#000000" stroke-width="0.5" d="M186.885,38.783c15.729,0,28.475-3.361,28.475-7.513         c0-4.147-12.745-7.514-28.475-7.514c-15.721,0-28.469,3.367-28.469,7.514C158.417,35.422,171.165,38.783,186.885,38.783z"/>
						</g>
					</g>
				</g>
			</g>
		</g>
		<g>
			<g>
				<g>
					<g>
						<path fill="none" stroke="#000000" stroke-width="0.5" d="M158.313,85.631l-0.029,22.041c0,4.15,14.087,7.916,29.811,7.916        c15.729,0,25.096-4.12,27.153-8.239V85.243"/>
						<g>
							<path fill="none" stroke="#000000" stroke-width="0.5" d="M186.885,93.45c15.729,0,28.475-3.361,28.475-7.513         c0-4.147-12.745-7.514-28.475-7.514c-15.721,0-28.469,3.367-28.469,7.514C158.417,90.089,171.165,93.45,186.885,93.45z"/>
						</g>
					</g>
				</g>
			</g>
		</g>
	</g>
	<line fill="none" stroke="#010101" stroke-width="0.5" x1="151.167" y1="46.083" x2="72.195" y2="111.383"/>
	<polygon fill="#010101" points="151.386,49.161 148.434,45.463 156.207,42.626  "/>
	<path fill="none" stroke="#999999" stroke-width="2" stroke-dasharray="5" d="M229.002,258.185c0,4.867-4.039,8.814-9.021,8.814   h-66.733c-4.981,0-9.02-3.947-9.02-8.814v-95.454c0-4.868,4.038-8.815,9.02-8.815h66.733c4.981,0,9.021,3.947,9.021,8.815V258.185z   "/>
	<g>
		<g>
			<g>
				<g>
					<g>
						<path fill="#FFFFFF" stroke="#FFFFFF" stroke-width="4" d="M158.316,168.963l-0.032,22.04c0,4.151,14.087,7.916,29.811,7.916        c15.729,0,25.096-4.119,27.157-8.238v-22.105"/>
						<g>
							<path fill="#FFFFFF" stroke="#FFFFFF" stroke-width="4" d="M186.891,176.783c15.724,0,28.471-3.361,28.471-7.514         c0-4.146-12.747-7.514-28.471-7.514c-15.727,0-28.475,3.367-28.475,7.514C158.417,173.421,171.165,176.783,186.891,176.783z"/>
						</g>
					</g>
				</g>
			</g>
		</g>
		<g>
			<g>
				<g>
					<g>
						<path fill="none" stroke="#FFFFFF" stroke-width="1.5" d="M158.313,169.107l-0.029,22.043c0,4.149,14.087,7.914,29.811,7.914        c15.729,0,25.096-4.119,27.153-8.24v-22.105"/>
						<g>
							<path fill="none" stroke="#FFFFFF" stroke-width="1.5" d="M186.885,176.927c15.729,0,28.475-3.363,28.475-7.516         c0-4.146-12.745-7.513-28.475-7.513c-15.721,0-28.469,3.366-28.469,7.513C158.417,173.564,171.165,176.927,186.885,176.927z"/>
						</g>
					</g>
				</g>
			</g>
		</g>
		<g>
			<g>
				<g>
					<g>
						<path fill="none" stroke="#000000" stroke-width="0.5" d="M158.313,168.963l-0.029,22.04c0,4.151,14.087,7.916,29.811,7.916        c15.729,0,25.096-4.119,27.153-8.238v-22.105"/>
						<g>
							<path fill="none" stroke="#000000" stroke-width="0.5" d="M186.885,176.783c15.729,0,28.475-3.361,28.475-7.514         c0-4.146-12.745-7.514-28.475-7.514c-15.721,0-28.469,3.367-28.469,7.514C158.417,173.421,171.165,176.783,186.885,176.783z"/>
						</g>
					</g>
				</g>
			</g>
		</g>
		<g>
			<g>
				<g>
					<g>
						<path fill="none" stroke="#000000" stroke-width="0.5" d="M158.313,223.63l-0.029,22.041c0,4.15,14.087,7.916,29.811,7.916        c15.729,0,25.096-4.121,27.153-8.24v-22.104"/>
						<g>
							<path fill="none" stroke="#000000" stroke-width="0.5" d="M186.885,231.449c15.729,0,28.475-3.36,28.475-7.513         c0-4.147-12.745-7.515-28.475-7.515c-15.721,0-28.469,3.367-28.469,7.515C158.417,228.088,171.165,231.449,186.885,231.449z"/>
						</g>
					</g>
				</g>
			</g>
		</g>
	</g>
	<polygon fill="#010101" points="149.417,176.179 152.595,172.671 156.642,179.889  "/>
	<line fill="none" stroke="#010101" stroke-width="0.5" x1="72.167" y1="113.083" x2="153.167" y2="176.833"/>
</g>
<g id="Text">
	<text transform="matrix(1 0 0 1 8.835 78.231)" font-family="'Helvetica'" font-size="9">Storage system A</text>
	<text transform="matrix(1 0 0 1 151.5005 7.731)" font-family="'Helvetica'" font-size="9">Storage system B</text>
	<text transform="matrix(1 0 0 1 148.8345 147.231)" font-family="'Helvetica'" font-size="9">Storage system C</text>
	<text transform="matrix(1 0 0 1 36.0566 104.0107)" font-family="'Helvetica'" font-size="9">vol 1</text>
	<text transform="matrix(1 0 0 1 178.2231 34.0107)" font-family="'Helvetica'" font-size="9">vol 1</text>
	<text transform="matrix(1 0 0 1 179.2231 171.5112)" font-family="'Helvetica'" font-size="9">vol 1</text>
	
		<rect x="95.226" y="59.5" transform="matrix(0.7499 -0.6616 0.6616 0.7499 -15.4497 90.1376)" fill="#FFFFFF" width="32.5" height="12"/>
	
		<rect x="101.166" y="61" transform="matrix(0.7499 -0.6616 0.6616 0.7499 -15.078 92.787)" fill="none" width="28" height="10.666"/>
	<text transform="matrix(0.7498 -0.6616 0.6616 0.7498 105.3545 76.4429)" font-family="'Helvetica'" font-size="9">Mirror</text>
	
		<rect x="94.984" y="147.702" transform="matrix(0.7748 0.6322 -0.6322 0.7748 122.2216 -35.7088)" fill="#FFFFFF" width="32.5" height="12"/>
	
		<rect x="99.51" y="153.232" transform="matrix(0.7748 0.6322 -0.6322 0.7748 125.8056 -36.0532)" fill="none" width="28" height="10.667"/>
	<text transform="matrix(0.7748 0.6322 -0.6322 0.7748 101.9502 150.5259)" font-family="'Helvetica'" font-size="9">Mirror</text>
</g>
</svg>