<?xml version="1.0" encoding="UTF-8"?><!-- Generator: Adobe Illustrator 16.0.3, SVG Export Plug-In . SVG Version: 6.00 Build 0)  --><!DOCTYPE svg PUBLIC "-//W3C//DTD SVG 1.1//EN" "http://www.w3.org/Graphics/SVG/1.1/DTD/svg11.dtd">
<svg xmlns="http://www.w3.org/2000/svg" xmlns:xlink="http://www.w3.org/1999/xlink" version="1.1" x="0px" y="0px" width="235.5px" height="273px" viewBox="0 0 235.5 273" enable-background="new 0 0 235.5 273" xml:space="preserve" preserveAspectRatio="xMidYMid meet" zoomAndPan="magnify" contentScriptType="application/ecmascript" contentStyleType="text/css">
<g id="Illustration">
	<path fill="none" stroke="#999999" stroke-width="2" stroke-dasharray="5" d="M88.653,193.131c0,4.868-4.039,8.815-9.021,8.815   H12.899c-4.982,0-9.021-3.947-9.021-8.815V97.677c0-4.869,4.039-8.816,9.021-8.816h66.733c4.981,0,9.021,3.947,9.021,8.816V193.131   z"/>
	<g>
		<g>
			<g>
				<g>
					<g>
						<path fill="#FFFFFF" stroke="#FFFFFF" stroke-width="4" d="M17.966,103.91l-0.032,22.041c0,4.151,14.086,7.916,29.811,7.916        c15.728,0,25.095-4.12,27.157-8.239v-22.105"/>
						<g>
							<path fill="#FFFFFF" stroke="#FFFFFF" stroke-width="4" d="M46.541,111.729c15.724,0,28.472-3.361,28.472-7.513         c0-4.147-12.748-7.514-28.472-7.514c-15.726,0-28.474,3.367-28.474,7.514C18.067,108.368,30.815,111.729,46.541,111.729z"/>
						</g>
					</g>
				</g>
			</g>
		</g>
		<g>
			<g>
				<g>
					<g>
						<path fill="none" stroke="#FFFFFF" stroke-width="1.5" d="M17.963,104.053l-0.029,22.042c0,4.15,14.086,7.915,29.811,7.915        c15.728,0,25.095-4.12,27.153-8.24v-22.106"/>
						<g>
							<path fill="none" stroke="#FFFFFF" stroke-width="1.5" d="M46.536,111.873c15.729,0,28.475-3.363,28.475-7.516         c0-4.146-12.746-7.512-28.475-7.512c-15.721,0-28.469,3.366-28.469,7.512C18.067,108.51,30.815,111.873,46.536,111.873z"/>
						</g>
					</g>
				</g>
			</g>
		</g>
		<g>
			<g>
				<g>
					<g>
						<path fill="none" stroke="#000000" stroke-width="0.5" d="M17.963,103.91l-0.029,22.041c0,4.151,14.086,7.916,29.811,7.916        c15.728,0,25.095-4.12,27.153-8.239v-22.105"/>
						<g>
							<path fill="none" stroke="#000000" stroke-width="0.5" d="M46.536,111.729c15.729,0,28.475-3.361,28.475-7.513         c0-4.147-12.746-7.514-28.475-7.514c-15.721,0-28.469,3.367-28.469,7.514C18.067,108.368,30.815,111.729,46.536,111.729z"/>
						</g>
					</g>
				</g>
			</g>
		</g>
		<g>
			<g>
				<g>
					<g>
						<path fill="none" stroke="#000000" stroke-width="0.5" d="M17.963,158.576l-0.029,22.041c0,4.15,14.086,7.916,29.811,7.916        c15.728,0,25.095-4.12,27.153-8.239v-22.104"/>
						<g>
							<path fill="none" stroke="#000000" stroke-width="0.5" d="M46.536,166.396c15.729,0,28.475-3.36,28.475-7.513         c0-4.147-12.746-7.515-28.475-7.515c-15.721,0-28.469,3.367-28.469,7.515C18.067,163.035,30.815,166.396,46.536,166.396z"/>
						</g>
					</g>
				</g>
			</g>
		</g>
	</g>
	<path fill="none" stroke="#999999" stroke-width="2" stroke-dasharray="5" d="M231.881,123.131c0,4.868-4.039,8.815-9.021,8.815   h-66.733c-4.981,0-9.02-3.947-9.02-8.815V27.677c0-4.869,4.038-8.816,9.02-8.816h66.733c4.981,0,9.021,3.947,9.021,8.816V123.131z"/>
	<g>
		<g>
			<g>
				<g>
					<g>
						<path fill="#FFFFFF" stroke="#FFFFFF" stroke-width="4" d="M161.195,33.91l-0.032,22.041c0,4.151,14.087,7.916,29.811,7.916        c15.729,0,25.096-4.12,27.157-8.239V33.522"/>
						<g>
							<path fill="#FFFFFF" stroke="#FFFFFF" stroke-width="4" d="M189.77,41.729c15.724,0,28.471-3.361,28.471-7.513         c0-4.147-12.747-7.514-28.471-7.514c-15.727,0-28.475,3.367-28.475,7.514C161.295,38.368,174.043,41.729,189.77,41.729z"/>
						</g>
					</g>
				</g>
			</g>
		</g>
		<g>
			<g>
				<g>
					<g>
						<path fill="none" stroke="#FFFFFF" stroke-width="1.5" d="M161.192,34.053l-0.029,22.042c0,4.15,14.087,7.915,29.811,7.915        c15.729,0,25.096-4.12,27.153-8.24V33.664"/>
						<g>
							<path fill="none" stroke="#FFFFFF" stroke-width="1.5" d="M189.764,41.873c15.729,0,28.475-3.363,28.475-7.516         c0-4.146-12.745-7.512-28.475-7.512c-15.721,0-28.469,3.366-28.469,7.512C161.295,38.51,174.043,41.873,189.764,41.873z"/>
						</g>
					</g>
				</g>
			</g>
		</g>
		<g>
			<g>
				<g>
					<g>
						<path fill="none" stroke="#000000" stroke-width="0.5" d="M161.192,33.91l-0.029,22.041c0,4.151,14.087,7.916,29.811,7.916        c15.729,0,25.096-4.12,27.153-8.239V33.522"/>
						<g>
							<path fill="none" stroke="#000000" stroke-width="0.5" d="M189.764,41.729c15.729,0,28.475-3.361,28.475-7.513         c0-4.147-12.745-7.514-28.475-7.514c-15.721,0-28.469,3.367-28.469,7.514C161.295,38.368,174.043,41.729,189.764,41.729z"/>
						</g>
					</g>
				</g>
			</g>
		</g>
		<g>
			<g>
				<g>
					<g>
						<path fill="none" stroke="#000000" stroke-width="0.5" d="M161.192,88.577l-0.029,22.041c0,4.15,14.087,7.916,29.811,7.916        c15.729,0,25.096-4.12,27.153-8.239V88.189"/>
						<g>
							<path fill="none" stroke="#000000" stroke-width="0.5" d="M189.764,96.396c15.729,0,28.475-3.361,28.475-7.513         c0-4.147-12.745-7.514-28.475-7.514c-15.721,0-28.469,3.367-28.469,7.514C161.295,93.035,174.043,96.396,189.764,96.396z"/>
						</g>
					</g>
				</g>
			</g>
		</g>
	</g>
	<line fill="none" stroke="#010101" stroke-width="0.5" x1="154.045" y1="49.029" x2="75.074" y2="114.329"/>
	<polygon fill="#010101" points="154.265,52.107 151.313,48.409 159.085,45.572  "/>
	<path fill="none" stroke="#999999" stroke-width="2" stroke-dasharray="5" d="M231.881,261.131c0,4.867-4.039,8.814-9.021,8.814   h-66.733c-4.981,0-9.02-3.947-9.02-8.814v-95.454c0-4.868,4.038-8.815,9.02-8.815h66.733c4.981,0,9.021,3.947,9.021,8.815V261.131z   "/>
	<g>
		<g>
			<g>
				<g>
					<g>
						<path fill="#FFFFFF" stroke="#FFFFFF" stroke-width="4" d="M161.195,171.909l-0.032,22.04c0,4.151,14.087,7.916,29.811,7.916        c15.729,0,25.096-4.119,27.157-8.238v-22.105"/>
						<g>
							<path fill="#FFFFFF" stroke="#FFFFFF" stroke-width="4" d="M189.77,179.729c15.724,0,28.471-3.361,28.471-7.514         c0-4.146-12.747-7.514-28.471-7.514c-15.727,0-28.475,3.367-28.475,7.514C161.295,176.367,174.043,179.729,189.77,179.729z"/>
						</g>
					</g>
				</g>
			</g>
		</g>
		<g>
			<g>
				<g>
					<g>
						<path fill="none" stroke="#FFFFFF" stroke-width="1.5" d="M161.192,172.053l-0.029,22.043c0,4.149,14.087,7.914,29.811,7.914        c15.729,0,25.096-4.119,27.153-8.24v-22.105"/>
						<g>
							<path fill="none" stroke="#FFFFFF" stroke-width="1.5" d="M189.764,179.873c15.729,0,28.475-3.363,28.475-7.516         c0-4.146-12.745-7.513-28.475-7.513c-15.721,0-28.469,3.366-28.469,7.513C161.295,176.51,174.043,179.873,189.764,179.873z"/>
						</g>
					</g>
				</g>
			</g>
		</g>
		<g>
			<g>
				<g>
					<g>
						<path fill="none" stroke="#000000" stroke-width="0.5" d="M161.192,171.909l-0.029,22.04c0,4.151,14.087,7.916,29.811,7.916        c15.729,0,25.096-4.119,27.153-8.238v-22.105"/>
						<g>
							<path fill="none" stroke="#000000" stroke-width="0.5" d="M189.764,179.729c15.729,0,28.475-3.361,28.475-7.514         c0-4.146-12.745-7.514-28.475-7.514c-15.721,0-28.469,3.367-28.469,7.514C161.295,176.367,174.043,179.729,189.764,179.729z"/>
						</g>
					</g>
				</g>
			</g>
		</g>
		<g>
			<g>
				<g>
					<g>
						<path fill="none" stroke="#000000" stroke-width="0.5" d="M161.192,226.576l-0.029,22.041c0,4.15,14.087,7.916,29.811,7.916        c15.729,0,25.096-4.121,27.153-8.24v-22.104"/>
						<g>
							<path fill="none" stroke="#000000" stroke-width="0.5" d="M189.764,234.395c15.729,0,28.475-3.36,28.475-7.513         c0-4.147-12.745-7.515-28.475-7.515c-15.721,0-28.469,3.367-28.469,7.515C161.295,231.034,174.043,234.395,189.764,234.395z"/>
						</g>
					</g>
				</g>
			</g>
		</g>
	</g>
	<polygon fill="#010101" points="152.296,179.125 155.474,175.617 159.521,182.835  "/>
	<line fill="none" stroke="#010101" stroke-width="0.5" x1="75.045" y1="116.029" x2="156.045" y2="179.779"/>
</g>
<g id="Text">
	<text transform="matrix(1 0 0 1 11.7139 81.1768)" font-family="'Helvetica'" font-size="9">Storage system A</text>
	<text transform="matrix(1 0 0 1 154.3794 10.6768)" font-family="'Helvetica'" font-size="9">Storage system B</text>
	<text transform="matrix(1 0 0 1 151.7134 150.1768)" font-family="'Helvetica'" font-size="9">Storage system C</text>
	<text transform="matrix(1 0 0 1 38.9355 106.9565)" font-family="'Helvetica'" font-size="9">vol 1</text>
	<text transform="matrix(1 0 0 1 181.1021 36.9565)" font-family="'Helvetica'" font-size="9">vol 1</text>
	<text transform="matrix(1 0 0 1 182.1021 174.457)" font-family="'Helvetica'" font-size="9">vol 1</text>
	
		<rect x="98.105" y="62.446" transform="matrix(0.7499 -0.6616 0.6616 0.7499 -16.6785 92.7791)" fill="#FFFFFF" width="32.5" height="12"/>
	
		<rect x="80.732" y="45.712" transform="matrix(0.7725 -0.635 0.635 0.7725 -12.6856 85.8044)" fill="none" width="65.374" height="29.793"/>
	<text transform="matrix(0.7499 -0.6616 0.6616 0.7499 105.4702 69.2627)"><tspan x="0" y="0" font-family="'Helvetica'" font-size="9">Mirror</tspan><tspan x="-13.392" y="10.8" font-family="'Helvetica'" font-size="9">Relationship</tspan></text>
	
		<rect x="94.959" y="155.118" transform="matrix(0.7748 0.6322 -0.6322 0.7748 132.7944 -36.0547)" fill="#FFFFFF" width="44.093" height="26.505"/>
	
		<rect x="71.716" y="156.614" transform="matrix(0.7748 0.6322 -0.6322 0.7748 133.201 -33.7882)" fill="none" width="84.626" height="26.929"/>
	<text transform="matrix(0.7748 0.6322 -0.6322 0.7748 102.3691 151.5264)"><tspan x="0" y="0" font-family="'Helvetica'" font-size="9">SnapVault</tspan><tspan x="-3.996" y="10.8" font-family="'Helvetica'" font-size="9">Relationship</tspan></text>
</g>
</svg>