<svg xmlns="http://www.w3.org/2000/svg" viewBox="0 0 328.1456 68.9697"><defs><style>.ab429239-5a27-46a2-8131-5cf428605c30{fill:#fff;}.ab429239-5a27-46a2-8131-5cf428605c30,.f1656976-5728-48d1-bbb1-882f59f184d0,.fe05cb62-fea0-469d-ad6c-85630bb312a6{stroke:#231f20;}.ab429239-5a27-46a2-8131-5cf428605c30,.b29f9459-78b1-41fe-8580-ecb9fef70f96,.f1656976-5728-48d1-bbb1-882f59f184d0,.fe05cb62-fea0-469d-ad6c-85630bb312a6{stroke-linecap:round;stroke-linejoin:round;stroke-width:0.5px;}.b29f9459-78b1-41fe-8580-ecb9fef70f96,.fe05cb62-fea0-469d-ad6c-85630bb312a6{fill:none;}.b29f9459-78b1-41fe-8580-ecb9fef70f96{stroke:#000;}.f142669b-51d2-4fb4-88a4-be0323c22b3a{fill:#231f20;}</style></defs><g id="f6cfec3b-4d1e-4ceb-b59a-c1a5a9306c88" data-name="outline"><line class="ab429239-5a27-46a2-8131-5cf428605c30" x1="5.2017" y1="25.6367" x2="323.1123" y2="25.6367"/><polygon class="f1656976-5728-48d1-bbb1-882f59f184d0" points="322.702 25.503 322.702 22.533 325.3 24.018 327.896 25.503 325.3 26.989 322.702 28.474 322.702 25.503"/><polygon class="f1656976-5728-48d1-bbb1-882f59f184d0" points="5.443 25.502 5.443 28.472 2.846 26.987 0.25 25.502 2.846 24.016 5.443 22.531 5.443 25.502"/><path class="ab429239-5a27-46a2-8131-5cf428605c30" d="M46.1563,25.5532a3.5833,3.5833,0,1,1-3.5835-3.583A3.583,3.583,0,0,1,46.1563,25.5532Z"/><path class="ab429239-5a27-46a2-8131-5cf428605c30" d="M106.8228,25.8867a3.5833,3.5833,0,1,1-3.5835-3.583A3.583,3.583,0,0,1,106.8228,25.8867Z"/><path class="ab429239-5a27-46a2-8131-5cf428605c30" d="M225.1563,25.8867a3.5835,3.5835,0,1,1-3.583-3.583A3.5832,3.5832,0,0,1,225.1563,25.8867Z"/><path class="ab429239-5a27-46a2-8131-5cf428605c30" d="M288.49,25.8867a3.5835,3.5835,0,1,1-3.583-3.583A3.5832,3.5832,0,0,1,288.49,25.8867Z"/><rect class="fe05cb62-fea0-469d-ad6c-85630bb312a6" x="27.1558" y="4.4702" width="30.3335" height="17"/><rect class="fe05cb62-fea0-469d-ad6c-85630bb312a6" x="88.1558" y="4.4702" width="30.3335" height="17"/><rect class="fe05cb62-fea0-469d-ad6c-85630bb312a6" x="206.1553" y="4.8037" width="30.334" height="17"/><rect class="fe05cb62-fea0-469d-ad6c-85630bb312a6" x="269.8213" y="4.8037" width="30.334" height="17"/><path class="b29f9459-78b1-41fe-8580-ecb9fef70f96" d="M46.1143,28.4048A1.73,1.73,0,0,0,48.06,30.35H70.4307s2.31.4863,2.31,2.3105"/><path class="b29f9459-78b1-41fe-8580-ecb9fef70f96" d="M99.4815,28.4048A1.73,1.73,0,0,1,97.5362,30.35H75.1651s-2.31.4863-2.31,2.3105"/><path class="b29f9459-78b1-41fe-8580-ecb9fef70f96" d="M226.3643,28.4048a1.7357,1.7357,0,0,0,1.9639,1.9453h22.58s2.3321.4863,2.3321,2.3105"/><path class="b29f9459-78b1-41fe-8580-ecb9fef70f96" d="M280.2315,28.4048a1.7357,1.7357,0,0,1-1.9639,1.9453h-22.58s-2.332.4863-2.332,2.3105"/><path class="b29f9459-78b1-41fe-8580-ecb9fef70f96" d="M107.4981,28.8877s-.501,1.79,4.0083,1.79h46.1s4.7617.4473,4.7617,2.125"/><path class="b29f9459-78b1-41fe-8580-ecb9fef70f96" d="M217.4727,28.8877s.502,1.79-4.0088,1.79h-46.1s-4.7617.4473-4.7617,2.125"/><path class="b29f9459-78b1-41fe-8580-ecb9fef70f96" d="M6.3614,28.9819A1.0573,1.0573,0,0,0,7.55,30.1709H21.2256s1.4121.2978,1.4121,1.4126"/><path class="b29f9459-78b1-41fe-8580-ecb9fef70f96" d="M38.9844,28.9819a1.0574,1.0574,0,0,1-1.1885,1.189H24.12s-1.4121.2978-1.4121,1.4126"/><path class="b29f9459-78b1-41fe-8580-ecb9fef70f96" d="M288.8614,28.9819a1.057,1.057,0,0,0,1.1884,1.189h13.6758s1.4121.2978,1.4121,1.4126"/><path class="b29f9459-78b1-41fe-8580-ecb9fef70f96" d="M321.4844,28.9819a1.057,1.057,0,0,1-1.1885,1.189H306.62s-1.4121.2978-1.4121,1.4126"/></g><g id="f0d17764-6be0-4187-b3fc-59b6d5e21a74" data-name="text"><path class="f142669b-51d2-4fb4-88a4-be0323c22b3a" d="M33.5079,9.9863h.8745v5.6866h3.2387v.769H33.5079Z"/><path class="f142669b-51d2-4fb4-88a4-be0323c22b3a" d="M43.0791,10.4565a2.292,2.292,0,0,1,.7427,1.4678h-.8525a1.6234,1.6234,0,0,0-1.7608-1.3535,1.8967,1.8967,0,0,0-1.5127.6709,3.0968,3.0968,0,0,0-.5761,2.0562,3.0259,3.0259,0,0,0,.52,1.84,1.8048,1.8048,0,0,0,1.5522.706,1.63,1.63,0,0,0,1.4458-.7426,2.8517,2.8517,0,0,0,.3931-1.0284h.8525a2.9277,2.9277,0,0,1-.747,1.71,2.6436,2.6436,0,0,1-2.05.8306,2.6859,2.6859,0,0,1-1.8682-.6817,3.5764,3.5764,0,0,1-.9946-2.7837,3.5849,3.5849,0,0,1,.7471-2.3437,2.7153,2.7153,0,0,1,2.228-.9937A2.5961,2.5961,0,0,1,43.0791,10.4565Z"/><path class="f142669b-51d2-4fb4-88a4-be0323c22b3a" d="M45.1182,9.9863h2.9346a2.8818,2.8818,0,0,1,1.1953.2154,1.5282,1.5282,0,0,1,.8931,1.5249,1.589,1.589,0,0,1-.91,1.5424,1.3248,1.3248,0,0,1,.5693.4043,1.4555,1.4555,0,0,1,.2129.813l.0308.8658a2.6657,2.6657,0,0,0,.0615.5493.54.54,0,0,0,.2813.3955v.145H49.315a.8073.8073,0,0,1-.07-.2153,4.1213,4.1213,0,0,1-.044-.51L49.148,14.64a.91.91,0,0,0-.457-.8481,1.84,1.84,0,0,0-.7642-.1187H45.9927v2.7686h-.8745Zm2.84,2.9575a1.6147,1.6147,0,0,0,.9468-.246,1.0155,1.0155,0,0,0,.3482-.8877.9588.9588,0,0,0-.4873-.9405,1.5532,1.5532,0,0,0-.6963-.1318H45.9927v2.206Z"/><path class="f142669b-51d2-4fb4-88a4-be0323c22b3a" d="M94.1749,9.9863h.8745v5.6866h3.2387v.769H94.1749Z"/><path class="f142669b-51d2-4fb4-88a4-be0323c22b3a" d="M99.18,9.9863h1.03l3.2192,5.2158V9.9863h.835v6.4556h-.9824l-3.2671-5.2095v5.21H99.18Z"/><path class="f142669b-51d2-4fb4-88a4-be0323c22b3a" d="M110.2457,10.4565a2.2918,2.2918,0,0,1,.7426,1.4678h-.8525a1.6234,1.6234,0,0,0-1.7608-1.3535,1.8964,1.8964,0,0,0-1.5126.6709,3.0962,3.0962,0,0,0-.5762,2.0562,3.0259,3.0259,0,0,0,.52,1.84,1.8048,1.8048,0,0,0,1.5522.706,1.63,1.63,0,0,0,1.4458-.7426,2.8517,2.8517,0,0,0,.3931-1.0284h.8526a2.9284,2.9284,0,0,1-.7471,1.71,2.6435,2.6435,0,0,1-2.05.8306,2.6859,2.6859,0,0,1-1.8682-.6817,3.5764,3.5764,0,0,1-.9946-2.7837,3.5849,3.5849,0,0,1,.7471-2.3437,2.7153,2.7153,0,0,1,2.228-.9937A2.5963,2.5963,0,0,1,110.2457,10.4565Z"/><path class="f142669b-51d2-4fb4-88a4-be0323c22b3a" d="M213.4532,9.9863v3.99a2.336,2.336,0,0,0,.2656,1.1689,1.4,1.4,0,0,0,1.3291.7031,1.5637,1.5637,0,0,0,1.5234-.76,2.4054,2.4054,0,0,0,.2168-1.1118v-3.99h.8838v3.6255a4.193,4.193,0,0,1-.3213,1.8325,2.7105,2.7105,0,0,1-4.459,0,4.1783,4.1783,0,0,1-.3222-1.8325V9.9863Z"/><path class="f142669b-51d2-4fb4-88a4-be0323c22b3a" d="M219.0079,9.9863h1.03l3.2188,5.2158V9.9863h.8359v6.4556H223.11l-3.2676-5.2095v5.21h-.8349Z"/><path class="f142669b-51d2-4fb4-88a4-be0323c22b3a" d="M230.0733,10.4565a2.2917,2.2917,0,0,1,.7422,1.4678h-.8516a1.6251,1.6251,0,0,0-1.7617-1.3535,1.894,1.894,0,0,0-1.5117.6709,3.0935,3.0935,0,0,0-.5762,2.0562,3.0264,3.0264,0,0,0,.52,1.84,1.8058,1.8058,0,0,0,1.5528.706,1.6288,1.6288,0,0,0,1.4453-.7426,2.8445,2.8445,0,0,0,.3926-1.0284h.8535a2.9288,2.9288,0,0,1-.7481,1.71,2.64,2.64,0,0,1-2.05.8306,2.6866,2.6866,0,0,1-1.8681-.6817,3.5763,3.5763,0,0,1-.9942-2.7837,3.5849,3.5849,0,0,1,.7461-2.3437,2.7165,2.7165,0,0,1,2.2285-.9937A2.5947,2.5947,0,0,1,230.0733,10.4565Z"/><path class="f142669b-51d2-4fb4-88a4-be0323c22b3a" d="M276.7862,9.9863v3.99a2.3265,2.3265,0,0,0,.2656,1.1689,1.4006,1.4006,0,0,0,1.3291.7031,1.5637,1.5637,0,0,0,1.5234-.76,2.3917,2.3917,0,0,0,.2178-1.1118v-3.99h.8828v3.6255a4.1783,4.1783,0,0,1-.3222,1.8325,2.71,2.71,0,0,1-4.458,0,4.193,4.193,0,0,1-.3213-1.8325V9.9863Z"/><path class="f142669b-51d2-4fb4-88a4-be0323c22b3a" d="M286.9073,10.4565a2.2917,2.2917,0,0,1,.7422,1.4678h-.8526a1.6234,1.6234,0,0,0-1.7607-1.3535,1.896,1.896,0,0,0-1.5127.6709,3.099,3.099,0,0,0-.5762,2.0562,3.02,3.02,0,0,0,.5205,1.84,1.8027,1.8027,0,0,0,1.5518.706,1.6316,1.6316,0,0,0,1.4463-.7426,2.8445,2.8445,0,0,0,.3925-1.0284h.8526a2.9278,2.9278,0,0,1-.7471,1.71,2.6437,2.6437,0,0,1-2.0508.8306,2.6845,2.6845,0,0,1-1.8672-.6817,3.5734,3.5734,0,0,1-.9951-2.7837,3.5854,3.5854,0,0,1,.7471-2.3437,2.7164,2.7164,0,0,1,2.2285-.9937A2.5979,2.5979,0,0,1,286.9073,10.4565Z"/><path class="f142669b-51d2-4fb4-88a4-be0323c22b3a" d="M288.9463,9.9863H291.88a2.8782,2.8782,0,0,1,1.1953.2154,1.5278,1.5278,0,0,1,.8936,1.5249,1.5876,1.5876,0,0,1-.9092,1.5424,1.3155,1.3155,0,0,1,.5684.4043,1.4489,1.4489,0,0,1,.2129.813l.0312.8658a2.6657,2.6657,0,0,0,.0615.5493.54.54,0,0,0,.2813.3955v.145h-1.0723a.8073.8073,0,0,1-.07-.2153,4.1277,4.1277,0,0,1-.0439-.51l-.0528-1.0767a.9079.9079,0,0,0-.457-.8481,1.8394,1.8394,0,0,0-.7637-.1187H289.82v2.7686h-.8741Zm2.84,2.9575a1.6174,1.6174,0,0,0,.9472-.246,1.0167,1.0167,0,0,0,.3477-.8877.9579.9579,0,0,0-.4873-.9405,1.5515,1.5515,0,0,0-.6963-.1318H289.82v2.206Z"/><path class="f142669b-51d2-4fb4-88a4-be0323c22b3a" d="M5.2676,37.3169h.7852v5.7383H5.2676Z"/><path class="f142669b-51d2-4fb4-88a4-be0323c22b3a" d="M7.2207,38.8716h.6954v.5937a2.3436,2.3436,0,0,1,.4531-.4492,1.3637,1.3637,0,0,1,.789-.2383,1.2419,1.2419,0,0,1,.8047.2461,1.2854,1.2854,0,0,1,.3125.4141,1.5187,1.5187,0,0,1,.5508-.4981,1.5384,1.5384,0,0,1,.711-.1621,1.1626,1.1626,0,0,1,1.1484.6094,1.9921,1.9921,0,0,1,.1641.8828v2.7852h-.7305V40.1489a.6768.6768,0,0,0-.209-.5742.8276.8276,0,0,0-.51-.1562,1.0116,1.0116,0,0,0-.7129.2773,1.2186,1.2186,0,0,0-.2988.9258v2.4336H9.6739v-2.73a1.4168,1.4168,0,0,0-.1016-.6211.62.62,0,0,0-.5976-.293,1.032,1.032,0,0,0-.7247.3086,1.5134,1.5134,0,0,0-.3261,1.1172v2.2188H7.2207Z"/><path class="f142669b-51d2-4fb4-88a4-be0323c22b3a" d="M13.8848,38.8716H14.58v.5937a2.3464,2.3464,0,0,1,.4531-.4492,1.3642,1.3642,0,0,1,.7891-.2383,1.2419,1.2419,0,0,1,.8047.2461,1.2882,1.2882,0,0,1,.3125.4141A1.5171,1.5171,0,0,1,17.49,38.94a1.5377,1.5377,0,0,1,.7109-.1621,1.1628,1.1628,0,0,1,1.1485.6094,1.9937,1.9937,0,0,1,.164.8828v2.7852h-.73V40.1489a.6771.6771,0,0,0-.2089-.5742.8276.8276,0,0,0-.51-.1562,1.0112,1.0112,0,0,0-.7129.2773,1.2186,1.2186,0,0,0-.2988.9258v2.4336h-.7149v-2.73a1.4186,1.4186,0,0,0-.1015-.6211.62.62,0,0,0-.5977-.293,1.032,1.032,0,0,0-.7246.3086,1.513,1.513,0,0,0-.3262,1.1172v2.2188h-.7031Z"/><path class="f142669b-51d2-4fb4-88a4-be0323c22b3a" d="M23.1329,38.9868a1.5864,1.5864,0,0,1,.6328.541,1.8817,1.8817,0,0,1,.28.7383,4.8558,4.8558,0,0,1,.062.9219h-3.043a1.8066,1.8066,0,0,0,.2983,1.0244.9949.9949,0,0,0,.8643.3857,1.1106,1.1106,0,0,0,.8721-.3647,1.25,1.25,0,0,0,.2583-.4907h.6914a1.4485,1.4485,0,0,1-.1817.5136,1.8463,1.8463,0,0,1-.3442.4629,1.6183,1.6183,0,0,1-.7871.4219,2.3814,2.3814,0,0,1-.57.0625,1.746,1.746,0,0,1-1.316-.5683,2.22,2.22,0,0,1-.54-1.5918,2.4147,2.4147,0,0,1,.5434-1.6368,1.7879,1.7879,0,0,1,1.4209-.6289A1.89,1.89,0,0,1,23.1329,38.9868Zm.2519,1.6426a1.8278,1.8278,0,0,0-.1977-.73,1.01,1.01,0,0,0-.9566-.5078,1.0563,1.0563,0,0,0-.8056.35,1.3261,1.3261,0,0,0-.3448.8887Z"/><path class="f142669b-51d2-4fb4-88a4-be0323c22b3a" d="M27.2964,39.0005a1.8849,1.8849,0,0,1,.4243.41V37.2974h.6758v5.7578h-.6328v-.5821a1.5193,1.5193,0,0,1-.58.5586,1.65,1.65,0,0,1-.7666.1719,1.55,1.55,0,0,1-1.206-.5879,2.3044,2.3044,0,0,1-.51-1.5644,2.7077,2.7077,0,0,1,.4649-1.584,1.52,1.52,0,0,1,1.3291-.67A1.4785,1.4785,0,0,1,27.2964,39.0005Zm-1.5693,3.1367a.9921.9921,0,0,0,.91.4531.9563.9563,0,0,0,.7983-.42,1.9908,1.9908,0,0,0,.313-1.2051,1.786,1.786,0,0,0-.3228-1.1738,1.0034,1.0034,0,0,0-.7963-.3809,1.05,1.05,0,0,0-.8575.4063,1.87,1.87,0,0,0-.3281,1.1953A2.0838,2.0838,0,0,0,25.7271,42.1372Z"/><path class="f142669b-51d2-4fb4-88a4-be0323c22b3a" d="M29.4473,37.3169h.7149v.7969h-.7149Zm0,1.5742h.7149v4.1641h-.7149Z"/><path class="f142669b-51d2-4fb4-88a4-be0323c22b3a" d="M33.4668,40.5234a.3823.3823,0,0,0,.3243-.2026.6261.6261,0,0,0,.0468-.271.5745.5745,0,0,0-.2553-.5234,1.3654,1.3654,0,0,0-.731-.1626.9266.9266,0,0,0-.78.2983.9883.9883,0,0,0-.1675.4907h-.6562a1.2129,1.2129,0,0,1,.5015-1.0791,2.05,2.05,0,0,1,1.1176-.3037,2.2725,2.2725,0,0,1,1.1978.2813.9545.9545,0,0,1,.4565.875v2.41a.3081.3081,0,0,0,.045.1758.2161.2161,0,0,0,.1894.0664c.0313,0,.0664-.0019.1055-.0058s.08-.01.125-.0176v.52a1.9561,1.9561,0,0,1-.25.0586,1.8278,1.8278,0,0,1-.2344.0117.5781.5781,0,0,1-.5273-.2578.9919.9919,0,0,1-.1211-.3867,1.7862,1.7862,0,0,1-.6172.4883,1.9071,1.9071,0,0,1-.8867.207,1.32,1.32,0,0,1-.9512-.353,1.172,1.172,0,0,1-.3692-.8838,1.1367,1.1367,0,0,1,.3633-.9009,1.7325,1.7325,0,0,1,.9531-.3945Zm-1.48,1.8995a.8277.8277,0,0,0,.5273.1752,1.608,1.608,0,0,0,.7188-.1713.9659.9659,0,0,0,.5859-.9322v-.5654a1.19,1.19,0,0,1-.3315.1367,2.788,2.788,0,0,1-.3975.0786l-.4248.0542a1.6487,1.6487,0,0,0-.5747.16.6216.6216,0,0,0-.3262.5845A.5777.5777,0,0,0,31.9864,42.4229Z"/><path class="f142669b-51d2-4fb4-88a4-be0323c22b3a" d="M35.8145,37.7036h.7109v1.168h.668v.5742h-.668v2.73a.2948.2948,0,0,0,.1485.2929.629.629,0,0,0,.2734.043c.0337,0,.07-.001.1094-.0024s.0845-.0064.1367-.0132v.5586a1.5541,1.5541,0,0,1-.2519.0508,2.4473,2.4473,0,0,1-.2833.0156.7631.7631,0,0,1-.6679-.252,1.12,1.12,0,0,1-.1758-.6543v-2.77h-.5664v-.5742h.5664Z"/><path class="f142669b-51d2-4fb4-88a4-be0323c22b3a" d="M40.4805,38.9868a1.5857,1.5857,0,0,1,.6328.541,1.88,1.88,0,0,1,.28.7383,4.8558,4.8558,0,0,1,.062.9219H38.4122a1.8066,1.8066,0,0,0,.2983,1.0244.9946.9946,0,0,0,.8643.3857,1.1105,1.1105,0,0,0,.872-.3647,1.249,1.249,0,0,0,.2583-.4907h.6914a1.4481,1.4481,0,0,1-.1816.5136,1.8488,1.8488,0,0,1-.3442.4629,1.6191,1.6191,0,0,1-.7872.4219,2.3808,2.3808,0,0,1-.57.0625,1.7458,1.7458,0,0,1-1.3159-.5683,2.22,2.22,0,0,1-.54-1.5918,2.4148,2.4148,0,0,1,.5435-1.6368,1.7876,1.7876,0,0,1,1.4209-.6289A1.89,1.89,0,0,1,40.4805,38.9868Zm.252,1.6426a1.8294,1.8294,0,0,0-.1978-.73,1.01,1.01,0,0,0-.9565-.5078,1.0567,1.0567,0,0,0-.8057.35,1.326,1.326,0,0,0-.3447.8887Z"/><path class="f142669b-51d2-4fb4-88a4-be0323c22b3a" d="M10.5684,50.1235a.3822.3822,0,0,0,.3242-.2026.6245.6245,0,0,0,.0469-.271.5746.5746,0,0,0-.2554-.5234,1.365,1.365,0,0,0-.7309-.1626.9266.9266,0,0,0-.78.2983.9873.9873,0,0,0-.1675.4907H8.35a1.2126,1.2126,0,0,1,.5014-1.0791A2.0507,2.0507,0,0,1,9.9688,48.37a2.2721,2.2721,0,0,1,1.1977.2813.9546.9546,0,0,1,.4566.875v2.41a.3081.3081,0,0,0,.0449.1758.2164.2164,0,0,0,.19.0664c.0312,0,.0664-.0019.1054-.0058s.0806-.01.125-.0176v.52a1.9483,1.9483,0,0,1-.25.0586,1.8249,1.8249,0,0,1-.2343.0117.5783.5783,0,0,1-.5274-.2578.9953.9953,0,0,1-.1211-.3867,1.7843,1.7843,0,0,1-.6172.4883,1.9065,1.9065,0,0,1-.8867.207,1.32,1.32,0,0,1-.9512-.353,1.1723,1.1723,0,0,1-.3691-.8838,1.1367,1.1367,0,0,1,.3633-.9009,1.7321,1.7321,0,0,1,.9531-.3945ZM9.0879,52.0229a.8283.8283,0,0,0,.5274.1753,1.6076,1.6076,0,0,0,.7187-.1713.9658.9658,0,0,0,.586-.9322v-.5654a1.1907,1.1907,0,0,1-.3316.1367,2.7867,2.7867,0,0,1-.3974.0786l-.4248.0542a1.6487,1.6487,0,0,0-.5747.16.6216.6216,0,0,0-.3262.5845A.5776.5776,0,0,0,9.0879,52.0229Z"/><path class="f142669b-51d2-4fb4-88a4-be0323c22b3a" d="M12.9161,47.3037h.7109v1.168h.668v.5742h-.668v2.73a.2948.2948,0,0,0,.1484.2929.6292.6292,0,0,0,.2735.043c.0337,0,.07-.001.1093-.0024s.0845-.0064.1368-.0132v.5586a1.5553,1.5553,0,0,1-.252.0508,2.4443,2.4443,0,0,1-.2832.0156.7633.7633,0,0,1-.668-.252,1.12,1.12,0,0,1-.1757-.6543V49.0459H12.35v-.5742h.5664Z"/><path class="f142669b-51d2-4fb4-88a4-be0323c22b3a" d="M15.1387,47.3037h.711v1.168h.6679v.5742H15.85v2.73a.2948.2948,0,0,0,.1484.2929.629.629,0,0,0,.2734.043c.0337,0,.07-.001.1094-.0024s.0845-.0064.1367-.0132v.5586a1.5519,1.5519,0,0,1-.2519.0508,2.4456,2.4456,0,0,1-.2832.0156.7632.7632,0,0,1-.668-.252,1.12,1.12,0,0,1-.1758-.6543V49.0459h-.5664v-.5742h.5664Z"/><path class="f142669b-51d2-4fb4-88a4-be0323c22b3a" d="M19.8047,48.5869a1.5857,1.5857,0,0,1,.6328.541,1.8787,1.8787,0,0,1,.28.7383,4.8558,4.8558,0,0,1,.062.9219H17.7364a1.8066,1.8066,0,0,0,.2983,1.0244.9946.9946,0,0,0,.8643.3857,1.1105,1.1105,0,0,0,.872-.3647,1.2477,1.2477,0,0,0,.2583-.4907h.6914a1.4481,1.4481,0,0,1-.1816.5136,1.8488,1.8488,0,0,1-.3442.4629,1.6187,1.6187,0,0,1-.7871.4219,2.3817,2.3817,0,0,1-.57.0625,1.7459,1.7459,0,0,1-1.3159-.5683,2.22,2.22,0,0,1-.5395-1.5918,2.4147,2.4147,0,0,1,.5434-1.6368,1.7877,1.7877,0,0,1,1.4209-.6289A1.89,1.89,0,0,1,19.8047,48.5869Zm.252,1.6426a1.8277,1.8277,0,0,0-.1978-.73,1.01,1.01,0,0,0-.9565-.5078,1.0567,1.0567,0,0,0-.8057.35,1.326,1.326,0,0,0-.3447.8887Z"/><path class="f142669b-51d2-4fb4-88a4-be0323c22b3a" d="M21.67,48.4717h.6679v.5937a1.8784,1.8784,0,0,1,.6289-.5273,1.6744,1.6744,0,0,1,.7383-.16,1.2174,1.2174,0,0,1,1.2031.6211,2.2026,2.2026,0,0,1,.1719.9727v2.6836h-.7148V50.0186a1.4244,1.4244,0,0,0-.1133-.6172.687.687,0,0,0-.68-.3907,1.39,1.39,0,0,0-.41.0508,1.0557,1.0557,0,0,0-.5079.3438,1.0382,1.0382,0,0,0-.2285.4277,2.8822,2.8822,0,0,0-.0527.6309v2.1914H21.67Z"/><path class="f142669b-51d2-4fb4-88a4-be0323c22b3a" d="M26.26,47.3037h.7109v1.168h.668v.5742h-.668v2.73a.2948.2948,0,0,0,.1485.2929.629.629,0,0,0,.2734.043c.0337,0,.07-.001.1094-.0024s.0845-.0064.1367-.0132v.5586a1.5519,1.5519,0,0,1-.2519.0508,2.4456,2.4456,0,0,1-.2832.0156.7632.7632,0,0,1-.668-.252,1.12,1.12,0,0,1-.1758-.6543V49.0459h-.5664v-.5742H26.26Z"/><path class="f142669b-51d2-4fb4-88a4-be0323c22b3a" d="M28.3418,46.917h.7149v.7969h-.7149Zm0,1.5742h.7149v4.1641h-.7149Z"/><path class="f142669b-51d2-4fb4-88a4-be0323c22b3a" d="M33.15,48.8892a2.1106,2.1106,0,0,1,.5547,1.5844,2.7312,2.7312,0,0,1-.4887,1.67,1.7628,1.7628,0,0,1-1.5166.66,1.7058,1.7058,0,0,1-1.3614-.5835,2.3125,2.3125,0,0,1-.5044-1.5669,2.505,2.505,0,0,1,.5313-1.6782,1.7785,1.7785,0,0,1,1.4277-.6245A1.875,1.875,0,0,1,33.15,48.8892Zm-.4365,2.78a2.6524,2.6524,0,0,0,.2568-1.1762,2.1112,2.1112,0,0,0-.1855-.9517,1.04,1.04,0,0,0-1.0117-.5776.9964.9964,0,0,0-.9273.4917,2.3,2.3,0,0,0-.29,1.186,1.9991,1.9991,0,0,0,.29,1.1118,1.0176,1.0176,0,0,0,.9195.4448A.9571.9571,0,0,0,32.7139,51.6694Z"/><path class="f142669b-51d2-4fb4-88a4-be0323c22b3a" d="M34.5684,48.4717h.668v.5937a1.8765,1.8765,0,0,1,.6289-.5273,1.6744,1.6744,0,0,1,.7383-.16,1.2176,1.2176,0,0,1,1.2031.6211,2.204,2.204,0,0,1,.1719.9727v2.6836h-.7149V50.0186a1.4244,1.4244,0,0,0-.1133-.6172.6869.6869,0,0,0-.68-.3907,1.39,1.39,0,0,0-.41.0508,1.0554,1.0554,0,0,0-.5078.3438,1.0358,1.0358,0,0,0-.2285.4277,2.8749,2.8749,0,0,0-.0528.6309v2.1914h-.7031Z"/><path class="f142669b-51d2-4fb4-88a4-be0323c22b3a" d="M9.0157,58.0718h.6679v.7226a1.597,1.597,0,0,1,.4024-.5136,1.0433,1.0433,0,0,1,.7383-.3028c.0131,0,.0351.0015.0664.0039s.0844.0078.16.0157V58.74a1.0241,1.0241,0,0,0-.1152-.0156c-.0352-.0024-.0737-.0039-.1152-.0039a1.0029,1.0029,0,0,0-.8164.3418,1.1938,1.1938,0,0,0-.2852.7871v2.4063H9.0157Z"/><path class="f142669b-51d2-4fb4-88a4-be0323c22b3a" d="M14.2442,58.187a1.5864,1.5864,0,0,1,.6328.541,1.8817,1.8817,0,0,1,.28.7383,4.8558,4.8558,0,0,1,.062.9219h-3.043a1.8058,1.8058,0,0,0,.2984,1.0244.9946.9946,0,0,0,.8642.3857,1.1106,1.1106,0,0,0,.8721-.3647,1.249,1.249,0,0,0,.2583-.4907H15.16a1.45,1.45,0,0,1-.1816.5136,1.849,1.849,0,0,1-.3443.4629,1.6183,1.6183,0,0,1-.7871.4219,2.3814,2.3814,0,0,1-.57.0625,1.7454,1.7454,0,0,1-1.3159-.5684,2.2192,2.2192,0,0,1-.54-1.5917,2.4148,2.4148,0,0,1,.5435-1.6368,1.7876,1.7876,0,0,1,1.4209-.6289A1.89,1.89,0,0,1,14.2442,58.187Zm.2519,1.6426a1.8273,1.8273,0,0,0-.1977-.73,1.01,1.01,0,0,0-.9566-.5078,1.0565,1.0565,0,0,0-.8056.35,1.3255,1.3255,0,0,0-.3447.8887Z"/><path class="f142669b-51d2-4fb4-88a4-be0323c22b3a" d="M18.4693,58.24a1.557,1.557,0,0,1,.3745.4141v-.582h.6641v5.8515h-.7032V61.7749a1.2622,1.2622,0,0,1-.4858.4473,1.6252,1.6252,0,0,1-.7744.166,1.6513,1.6513,0,0,1-1.1939-.5235,2.1622,2.1622,0,0,1-.5263-1.5937,2.6334,2.6334,0,0,1,.4936-1.6484,1.5371,1.5371,0,0,1,1.2774-.6446A1.4333,1.4333,0,0,1,18.4693,58.24ZM16.711,61.13a.9657.9657,0,0,0,.9629.6523,1.0072,1.0072,0,0,0,1.01-.6875,2.6228,2.6228,0,0,0,.1524-.9687,2.1615,2.1615,0,0,0-.1675-.9063,1.0141,1.0141,0,0,0-1.0024-.6211.9814.9814,0,0,0-.7818.3965,1.9069,1.9069,0,0,0-.3257,1.2246A2.3823,2.3823,0,0,0,16.711,61.13Z"/><path class="f142669b-51d2-4fb4-88a4-be0323c22b3a" d="M21.2618,58.0718v2.7773a1.1989,1.1989,0,0,0,.0991.5235.6862.6862,0,0,0,.6806.375.9631.9631,0,0,0,.9742-.6563,2.6712,2.6712,0,0,0,.1406-.9648V58.0718h.7031v4.1836h-.664l.0078-.6172a1.4135,1.4135,0,0,1-.3335.4023,1.45,1.45,0,0,1-.9585.3282,1.23,1.23,0,0,1-1.1958-.5977,1.81,1.81,0,0,1-.1724-.8555V58.0718Z"/><path class="f142669b-51d2-4fb4-88a4-be0323c22b3a" d="M25.0079,56.5171h.7148v.7969h-.7148Zm0,1.5742h.7148v4.1641h-.7148Z"/><path class="f142669b-51d2-4fb4-88a4-be0323c22b3a" d="M26.8047,58.0718h.668v.7226a1.5978,1.5978,0,0,1,.4023-.5136,1.0433,1.0433,0,0,1,.7383-.3028c.0132,0,.0352.0015.0664.0039s.0845.0078.16.0157V58.74a1.0241,1.0241,0,0,0-.1152-.0156c-.0352-.0024-.0738-.0039-.1153-.0039a1.003,1.003,0,0,0-.8164.3418,1.1943,1.1943,0,0,0-.2851.7871v2.4063h-.7032Z"/><path class="f142669b-51d2-4fb4-88a4-be0323c22b3a" d="M32.0332,58.187a1.5867,1.5867,0,0,1,.6329.541,1.88,1.88,0,0,1,.28.7383,4.8453,4.8453,0,0,1,.0621.9219h-3.043a1.8066,1.8066,0,0,0,.2983,1.0244.9949.9949,0,0,0,.8643.3857A1.1107,1.1107,0,0,0,32,61.4336a1.25,1.25,0,0,0,.2583-.4907h.6914a1.4485,1.4485,0,0,1-.1817.5136,1.8463,1.8463,0,0,1-.3442.4629,1.6183,1.6183,0,0,1-.7871.4219,2.3814,2.3814,0,0,1-.57.0625,1.7457,1.7457,0,0,1-1.316-.5684,2.22,2.22,0,0,1-.54-1.5917,2.4147,2.4147,0,0,1,.5434-1.6368,1.7877,1.7877,0,0,1,1.4209-.6289A1.89,1.89,0,0,1,32.0332,58.187Zm.252,1.6426a1.8256,1.8256,0,0,0-.1978-.73,1.01,1.01,0,0,0-.9565-.5078,1.0567,1.0567,0,0,0-.8057.35,1.326,1.326,0,0,0-.3447.8887Z"/><path class="f142669b-51d2-4fb4-88a4-be0323c22b3a" d="M36.1968,58.2007a1.8849,1.8849,0,0,1,.4243.41V56.4976h.6758v5.7578h-.6328v-.5821a1.5193,1.5193,0,0,1-.58.5586,1.65,1.65,0,0,1-.7666.1719,1.55,1.55,0,0,1-1.206-.5879,2.3044,2.3044,0,0,1-.51-1.5644,2.7077,2.7077,0,0,1,.4649-1.584,1.52,1.52,0,0,1,1.3291-.67A1.4785,1.4785,0,0,1,36.1968,58.2007Zm-1.5693,3.1367a.9923.9923,0,0,0,.91.4531.9563.9563,0,0,0,.7983-.42,1.9908,1.9908,0,0,0,.313-1.2051,1.786,1.786,0,0,0-.3228-1.1738,1.0035,1.0035,0,0,0-.7964-.3809,1.05,1.05,0,0,0-.8574.4063,1.87,1.87,0,0,0-.3281,1.1953A2.0838,2.0838,0,0,0,34.6275,61.3374Z"/><path class="f142669b-51d2-4fb4-88a4-be0323c22b3a" d="M287.9346,37.3169h.7852v5.7383h-.7852Z"/><path class="f142669b-51d2-4fb4-88a4-be0323c22b3a" d="M289.8877,38.8716h.6954v.5937a2.3436,2.3436,0,0,1,.4531-.4492,1.3637,1.3637,0,0,1,.789-.2383,1.2409,1.2409,0,0,1,.8047.2461,1.2783,1.2783,0,0,1,.3125.4141,1.5187,1.5187,0,0,1,.5508-.4981,1.5365,1.5365,0,0,1,.7109-.1621,1.1628,1.1628,0,0,1,1.1485.6094,1.9923,1.9923,0,0,1,.164.8828v2.7852h-.73V40.1489a.6782.6782,0,0,0-.209-.5742.8256.8256,0,0,0-.51-.1562,1.0122,1.0122,0,0,0-.7129.2773,1.2186,1.2186,0,0,0-.2988.9258v2.4336h-.7148v-2.73a1.41,1.41,0,0,0-.1016-.6211.6206.6206,0,0,0-.5977-.293,1.0311,1.0311,0,0,0-.7246.3086,1.5152,1.5152,0,0,0-.3261,1.1172v2.2188h-.7032Z"/><path class="f142669b-51d2-4fb4-88a4-be0323c22b3a" d="M296.5518,38.8716h.6953v.5937a2.3464,2.3464,0,0,1,.4531-.4492,1.3642,1.3642,0,0,1,.7891-.2383,1.2409,1.2409,0,0,1,.8047.2461,1.2812,1.2812,0,0,1,.3125.4141,1.5171,1.5171,0,0,1,.5508-.4981,1.5362,1.5362,0,0,1,.7109-.1621,1.1626,1.1626,0,0,1,1.1484.6094,1.9921,1.9921,0,0,1,.1641.8828v2.7852H301.45V40.1489a.6785.6785,0,0,0-.2089-.5742.8256.8256,0,0,0-.51-.1562,1.0121,1.0121,0,0,0-.7129.2773,1.2186,1.2186,0,0,0-.2988.9258v2.4336h-.7149v-2.73a1.4112,1.4112,0,0,0-.1015-.6211.6208.6208,0,0,0-.5977-.293,1.0311,1.0311,0,0,0-.7246.3086,1.5152,1.5152,0,0,0-.3262,1.1172v2.2188h-.7031Z"/><path class="f142669b-51d2-4fb4-88a4-be0323c22b3a" d="M305.8,38.9868a1.58,1.58,0,0,1,.6328.541,1.8812,1.8812,0,0,1,.2793.7383,4.804,4.804,0,0,1,.0625.9219h-3.043a1.8028,1.8028,0,0,0,.2988,1.0244.993.993,0,0,0,.8633.3857,1.1111,1.1111,0,0,0,.873-.3647,1.2547,1.2547,0,0,0,.2579-.4907h.6914a1.431,1.431,0,0,1-.1817.5136,1.87,1.87,0,0,1-.3437.4629,1.625,1.625,0,0,1-.7871.4219,2.3857,2.3857,0,0,1-.57.0625,1.7478,1.7478,0,0,1-1.3165-.5683,2.2221,2.2221,0,0,1-.539-1.5918,2.419,2.419,0,0,1,.543-1.6368,1.7894,1.7894,0,0,1,1.4218-.6289A1.89,1.89,0,0,1,305.8,38.9868Zm.2519,1.6426a1.8265,1.8265,0,0,0-.1973-.73,1.0108,1.0108,0,0,0-.957-.5078,1.0567,1.0567,0,0,0-.8057.35,1.326,1.326,0,0,0-.3447.8887Z"/><path class="f142669b-51d2-4fb4-88a4-be0323c22b3a" d="M309.9639,39.0005a1.8949,1.8949,0,0,1,.4238.41V37.2974h.6758v5.7578h-.6328v-.5821a1.5262,1.5262,0,0,1-.58.5586,1.65,1.65,0,0,1-.7666.1719,1.55,1.55,0,0,1-1.206-.5879,2.3044,2.3044,0,0,1-.51-1.5644,2.7041,2.7041,0,0,1,.4649-1.584,1.5208,1.5208,0,0,1,1.3291-.67A1.48,1.48,0,0,1,309.9639,39.0005Zm-1.57,3.1367a.9929.9929,0,0,0,.91.4531.9571.9571,0,0,0,.7988-.42,1.9944,1.9944,0,0,0,.3125-1.2051,1.789,1.789,0,0,0-.3223-1.1738,1.0038,1.0038,0,0,0-.7969-.3809,1.05,1.05,0,0,0-.8574.4063,1.87,1.87,0,0,0-.3281,1.1953A2.0881,2.0881,0,0,0,308.3936,42.1372Z"/><path class="f142669b-51d2-4fb4-88a4-be0323c22b3a" d="M312.1143,37.3169h.7148v.7969h-.7148Zm0,1.5742h.7148v4.1641h-.7148Z"/><path class="f142669b-51d2-4fb4-88a4-be0323c22b3a" d="M316.1338,40.5234a.3817.3817,0,0,0,.3243-.2026.6261.6261,0,0,0,.0468-.271.5738.5738,0,0,0-.2558-.5234,1.3637,1.3637,0,0,0-.7305-.1626.9243.9243,0,0,0-.7793.2983.9784.9784,0,0,0-.168.4907h-.6562a1.2122,1.2122,0,0,1,.5019-1.0791,2.0469,2.0469,0,0,1,1.1172-.3037,2.2681,2.2681,0,0,1,1.1973.2813.9539.9539,0,0,1,.457.875v2.41a.3121.3121,0,0,0,.0449.1758.2164.2164,0,0,0,.19.0664q.0468,0,.1055-.0058c.039-.004.08-.01.125-.0176v.52a1.9757,1.9757,0,0,1-.25.0586,1.817,1.817,0,0,1-.2344.0117.5783.5783,0,0,1-.5274-.2578,1.0021,1.0021,0,0,1-.121-.3867,1.7862,1.7862,0,0,1-.6172.4883,1.9072,1.9072,0,0,1-.8868.207,1.3187,1.3187,0,0,1-.9511-.353,1.172,1.172,0,0,1-.3692-.8838,1.1367,1.1367,0,0,1,.3633-.9009,1.734,1.734,0,0,1,.9531-.3945Zm-1.48,1.8995a.8277.8277,0,0,0,.5273.1752,1.608,1.608,0,0,0,.7188-.1713.9659.9659,0,0,0,.5859-.9322v-.5654a1.1873,1.1873,0,0,1-.332.1367,2.8026,2.8026,0,0,1-.3965.0786l-.4258.0542a1.6555,1.6555,0,0,0-.5742.16.6224.6224,0,0,0-.3262.5845A.5777.5777,0,0,0,314.6534,42.4229Z"/><path class="f142669b-51d2-4fb4-88a4-be0323c22b3a" d="M318.4815,37.7036h.7109v1.168h.668v.5742h-.668v2.73a.294.294,0,0,0,.1485.2929.63.63,0,0,0,.2734.043c.0332,0,.07-.001.1094-.0024s.084-.0064.1367-.0132v.5586a1.5339,1.5339,0,0,1-.252.0508,2.4494,2.4494,0,0,1-.2832.0156.7631.7631,0,0,1-.6679-.252,1.12,1.12,0,0,1-.1758-.6543v-2.77h-.5664v-.5742h.5664Z"/><path class="f142669b-51d2-4fb4-88a4-be0323c22b3a" d="M323.1475,38.9868a1.579,1.579,0,0,1,.6328.541,1.88,1.88,0,0,1,.2793.7383,4.804,4.804,0,0,1,.0625.9219h-3.043a1.8028,1.8028,0,0,0,.2989,1.0244.9927.9927,0,0,0,.8633.3857,1.1112,1.1112,0,0,0,.873-.3647,1.2545,1.2545,0,0,0,.2578-.4907h.6914a1.4306,1.4306,0,0,1-.1816.5136,1.87,1.87,0,0,1-.3438.4629,1.625,1.625,0,0,1-.7871.4219,2.3851,2.3851,0,0,1-.57.0625,1.7476,1.7476,0,0,1-1.3164-.5683,2.2216,2.2216,0,0,1-.5391-1.5918,2.42,2.42,0,0,1,.543-1.6368,1.79,1.79,0,0,1,1.4219-.6289A1.8893,1.8893,0,0,1,323.1475,38.9868Zm.252,1.6426a1.83,1.83,0,0,0-.1973-.73,1.0109,1.0109,0,0,0-.957-.5078,1.0567,1.0567,0,0,0-.8057.35,1.326,1.326,0,0,0-.3447.8887Z"/><path class="f142669b-51d2-4fb4-88a4-be0323c22b3a" d="M293.2354,50.1235a.3816.3816,0,0,0,.3242-.2026.6245.6245,0,0,0,.0469-.271.5739.5739,0,0,0-.2559-.5234,1.3631,1.3631,0,0,0-.73-.1626.9243.9243,0,0,0-.7793.2983.9775.9775,0,0,0-.168.4907h-.6563a1.2121,1.2121,0,0,1,.502-1.0791,2.0466,2.0466,0,0,1,1.1172-.3037,2.2684,2.2684,0,0,1,1.1973.2813.9541.9541,0,0,1,.457.875v2.41a.3121.3121,0,0,0,.0449.1758.2164.2164,0,0,0,.19.0664c.0312,0,.0664-.0019.1054-.0058s.08-.01.125-.0176v.52a1.9678,1.9678,0,0,1-.25.0586,1.8142,1.8142,0,0,1-.2343.0117.5783.5783,0,0,1-.5274-.2578,1.0037,1.0037,0,0,1-.1211-.3867,1.7853,1.7853,0,0,1-.6172.4883,1.9065,1.9065,0,0,1-.8867.207,1.3188,1.3188,0,0,1-.9512-.353,1.1719,1.1719,0,0,1-.3691-.8838,1.1367,1.1367,0,0,1,.3633-.9009,1.7337,1.7337,0,0,1,.9531-.3945Zm-1.4805,1.8994a.8281.8281,0,0,0,.5274.1753,1.6076,1.6076,0,0,0,.7187-.1713.966.966,0,0,0,.586-.9322v-.5654a1.1881,1.1881,0,0,1-.3321.1367,2.7971,2.7971,0,0,1-.3965.0786l-.4257.0542a1.6568,1.6568,0,0,0-.5743.16.6224.6224,0,0,0-.3261.5845A.5776.5776,0,0,0,291.7549,52.0229Z"/><path class="f142669b-51d2-4fb4-88a4-be0323c22b3a" d="M295.5831,47.3037h.7109v1.168h.668v.5742h-.668v2.73a.294.294,0,0,0,.1484.2929.6307.6307,0,0,0,.2735.043c.0332,0,.07-.001.1093-.0024s.084-.0064.1368-.0132v.5586a1.5339,1.5339,0,0,1-.252.0508,2.4507,2.4507,0,0,1-.2832.0156.7633.7633,0,0,1-.668-.252,1.12,1.12,0,0,1-.1757-.6543V49.0459h-.5665v-.5742h.5665Z"/><path class="f142669b-51d2-4fb4-88a4-be0323c22b3a" d="M297.8057,47.3037h.7109v1.168h.668v.5742h-.668v2.73a.294.294,0,0,0,.1485.2929.63.63,0,0,0,.2734.043c.0332,0,.07-.001.1094-.0024s.084-.0064.1367-.0132v.5586a1.5327,1.5327,0,0,1-.2519.0508,2.4519,2.4519,0,0,1-.2832.0156.7632.7632,0,0,1-.668-.252,1.12,1.12,0,0,1-.1758-.6543V49.0459h-.5664v-.5742h.5664Z"/><path class="f142669b-51d2-4fb4-88a4-be0323c22b3a" d="M302.4717,48.5869a1.579,1.579,0,0,1,.6328.541,1.8781,1.8781,0,0,1,.2793.7383,4.804,4.804,0,0,1,.0625.9219h-3.0429a1.8028,1.8028,0,0,0,.2988,1.0244.9927.9927,0,0,0,.8633.3857,1.1112,1.1112,0,0,0,.873-.3647,1.2532,1.2532,0,0,0,.2578-.4907h.6914a1.4287,1.4287,0,0,1-.1816.5136,1.8723,1.8723,0,0,1-.3437.4629,1.6253,1.6253,0,0,1-.7872.4219,2.3851,2.3851,0,0,1-.57.0625,1.7478,1.7478,0,0,1-1.3164-.5683,2.2216,2.2216,0,0,1-.539-1.5918,2.42,2.42,0,0,1,.5429-1.6368,1.79,1.79,0,0,1,1.4219-.6289A1.8893,1.8893,0,0,1,302.4717,48.5869Zm.252,1.6426a1.8282,1.8282,0,0,0-.1973-.73,1.0109,1.0109,0,0,0-.957-.5078,1.0567,1.0567,0,0,0-.8057.35,1.326,1.326,0,0,0-.3447.8887Z"/><path class="f142669b-51d2-4fb4-88a4-be0323c22b3a" d="M304.337,48.4717h.6679v.5937a1.8775,1.8775,0,0,1,.6289-.5273,1.6713,1.6713,0,0,1,.7383-.16,1.2178,1.2178,0,0,1,1.2031.6211,2.1954,2.1954,0,0,1,.1719.9727v2.6836h-.7148V50.0186a1.4171,1.4171,0,0,0-.1133-.6172.687.687,0,0,0-.68-.3907,1.3958,1.3958,0,0,0-.41.0508,1.0559,1.0559,0,0,0-.5078.3438,1.037,1.037,0,0,0-.2285.4277,2.8822,2.8822,0,0,0-.0527.6309v2.1914h-.7031Z"/><path class="f142669b-51d2-4fb4-88a4-be0323c22b3a" d="M308.9268,47.3037h.7109v1.168h.668v.5742h-.668v2.73a.294.294,0,0,0,.1485.2929.63.63,0,0,0,.2734.043c.0332,0,.07-.001.1094-.0024s.084-.0064.1367-.0132v.5586a1.5348,1.5348,0,0,1-.2519.0508,2.4519,2.4519,0,0,1-.2832.0156.7632.7632,0,0,1-.668-.252,1.12,1.12,0,0,1-.1758-.6543V49.0459H308.36v-.5742h.5664Z"/><path class="f142669b-51d2-4fb4-88a4-be0323c22b3a" d="M311.0088,46.917h.7149v.7969h-.7149Zm0,1.5742h.7149v4.1641h-.7149Z"/><path class="f142669b-51d2-4fb4-88a4-be0323c22b3a" d="M315.8174,48.8892a2.1125,2.1125,0,0,1,.5547,1.5844,2.7337,2.7337,0,0,1-.4883,1.67,1.7644,1.7644,0,0,1-1.5175.66,1.7065,1.7065,0,0,1-1.3614-.5835,2.3149,2.3149,0,0,1-.5039-1.5669,2.5076,2.5076,0,0,1,.5313-1.6782,1.7785,1.7785,0,0,1,1.4277-.6245A1.8742,1.8742,0,0,1,315.8174,48.8892Zm-.4365,2.78a2.6593,2.6593,0,0,0,.2568-1.1762,2.118,2.118,0,0,0-.1855-.9517,1.04,1.04,0,0,0-1.0117-.5776.9972.9972,0,0,0-.9278.4917,2.3044,2.3044,0,0,0-.289,1.186,2.0032,2.0032,0,0,0,.289,1.1118,1.0184,1.0184,0,0,0,.92.4448A.9566.9566,0,0,0,315.3809,51.6694Z"/><path class="f142669b-51d2-4fb4-88a4-be0323c22b3a" d="M317.2354,48.4717h.668v.5937a1.8765,1.8765,0,0,1,.6289-.5273,1.6713,1.6713,0,0,1,.7383-.16,1.218,1.218,0,0,1,1.2031.6211,2.1969,2.1969,0,0,1,.1719.9727v2.6836h-.7149V50.0186a1.4171,1.4171,0,0,0-.1133-.6172.6869.6869,0,0,0-.68-.3907,1.3946,1.3946,0,0,0-.41.0508,1.0554,1.0554,0,0,0-.5078.3438,1.0358,1.0358,0,0,0-.2285.4277,2.8749,2.8749,0,0,0-.0528.6309v2.1914h-.7031Z"/><path class="f142669b-51d2-4fb4-88a4-be0323c22b3a" d="M291.6827,58.0718h.6679v.7226a1.6043,1.6043,0,0,1,.4024-.5136,1.0416,1.0416,0,0,1,.7383-.3028c.0136,0,.0351.0015.0664.0039s.0839.0078.16.0157V58.74a1.009,1.009,0,0,0-.1152-.0156c-.0352-.0024-.0742-.0039-.1152-.0039a1.0031,1.0031,0,0,0-.8165.3418,1.1969,1.1969,0,0,0-.2851.7871v2.4063h-.7031Z"/><path class="f142669b-51d2-4fb4-88a4-be0323c22b3a" d="M296.9112,58.187a1.58,1.58,0,0,1,.6328.541,1.8812,1.8812,0,0,1,.2793.7383,4.804,4.804,0,0,1,.0625.9219h-3.043a1.8028,1.8028,0,0,0,.2988,1.0244.993.993,0,0,0,.8633.3857,1.1113,1.1113,0,0,0,.8731-.3647,1.2545,1.2545,0,0,0,.2578-.4907h.6914a1.4306,1.4306,0,0,1-.1816.5136,1.8725,1.8725,0,0,1-.3438.4629,1.625,1.625,0,0,1-.7871.4219,2.3857,2.3857,0,0,1-.57.0625,1.7472,1.7472,0,0,1-1.3164-.5684,2.2212,2.2212,0,0,1-.5391-1.5917,2.42,2.42,0,0,1,.543-1.6368,1.79,1.79,0,0,1,1.4219-.6289A1.89,1.89,0,0,1,296.9112,58.187Zm.2519,1.6426a1.8278,1.8278,0,0,0-.1972-.73,1.011,1.011,0,0,0-.9571-.5078,1.0565,1.0565,0,0,0-.8056.35,1.3261,1.3261,0,0,0-.3448.8887Z"/><path class="f142669b-51d2-4fb4-88a4-be0323c22b3a" d="M301.1358,58.24a1.5366,1.5366,0,0,1,.375.4141v-.582h.6641v5.8515h-.7032V61.7749a1.2636,1.2636,0,0,1-.4863.4473,1.6224,1.6224,0,0,1-.7734.166,1.6514,1.6514,0,0,1-1.1944-.5235,2.1622,2.1622,0,0,1-.5263-1.5937,2.6274,2.6274,0,0,1,.4941-1.6484,1.5351,1.5351,0,0,1,1.2773-.6446A1.4305,1.4305,0,0,1,301.1358,58.24ZM299.378,61.13a.9661.9661,0,0,0,.9629.6523,1.0076,1.0076,0,0,0,1.01-.6875,2.6228,2.6228,0,0,0,.1524-.9687,2.1533,2.1533,0,0,0-.168-.9063,1.013,1.013,0,0,0-1.0019-.6211.98.98,0,0,0-.7813.3965,1.9038,1.9038,0,0,0-.3262,1.2246A2.3823,2.3823,0,0,0,299.378,61.13Z"/><path class="f142669b-51d2-4fb4-88a4-be0323c22b3a" d="M303.9288,58.0718v2.7773a1.1913,1.1913,0,0,0,.1.5235.6843.6843,0,0,0,.68.375.9633.9633,0,0,0,.9746-.6563,2.6712,2.6712,0,0,0,.1406-.9648V58.0718h.7031v4.1836h-.664l.0078-.6172a1.4233,1.4233,0,0,1-.334.4023,1.4475,1.4475,0,0,1-.958.3282,1.2313,1.2313,0,0,1-1.1963-.5977,1.8166,1.8166,0,0,1-.1719-.8555V58.0718Z"/><path class="f142669b-51d2-4fb4-88a4-be0323c22b3a" d="M307.6749,56.5171h.7148v.7969h-.7148Zm0,1.5742h.7148v4.1641h-.7148Z"/><path class="f142669b-51d2-4fb4-88a4-be0323c22b3a" d="M309.4717,58.0718h.668v.7226a1.6037,1.6037,0,0,1,.4023-.5136,1.0416,1.0416,0,0,1,.7383-.3028c.0137,0,.0352.0015.0664.0039s.084.0078.16.0157V58.74a1.0076,1.0076,0,0,0-.1153-.0156c-.0351-.0024-.0742-.0039-.1152-.0039a1.003,1.003,0,0,0-.8164.3418,1.1969,1.1969,0,0,0-.2851.7871v2.4063h-.7032Z"/><path class="f142669b-51d2-4fb4-88a4-be0323c22b3a" d="M314.7,58.187a1.58,1.58,0,0,1,.6329.541,1.8812,1.8812,0,0,1,.2793.7383,4.8123,4.8123,0,0,1,.0625.9219h-3.043a1.8028,1.8028,0,0,0,.2988,1.0244.9929.9929,0,0,0,.8633.3857,1.1112,1.1112,0,0,0,.873-.3647,1.2547,1.2547,0,0,0,.2579-.4907h.6914a1.431,1.431,0,0,1-.1817.5136,1.8723,1.8723,0,0,1-.3437.4629,1.625,1.625,0,0,1-.7871.4219,2.386,2.386,0,0,1-.57.0625,1.7475,1.7475,0,0,1-1.3164-.5684,2.2216,2.2216,0,0,1-.539-1.5917,2.42,2.42,0,0,1,.5429-1.6368,1.79,1.79,0,0,1,1.4219-.6289A1.8893,1.8893,0,0,1,314.7,58.187Zm.252,1.6426a1.8277,1.8277,0,0,0-.1973-.73,1.0108,1.0108,0,0,0-.957-.5078,1.0567,1.0567,0,0,0-.8057.35,1.326,1.326,0,0,0-.3447.8887Z"/><path class="f142669b-51d2-4fb4-88a4-be0323c22b3a" d="M318.8643,58.2007a1.8949,1.8949,0,0,1,.4238.41V56.4976h.6758v5.7578h-.6328v-.5821a1.5262,1.5262,0,0,1-.58.5586,1.65,1.65,0,0,1-.7666.1719,1.55,1.55,0,0,1-1.206-.5879,2.3044,2.3044,0,0,1-.51-1.5644,2.7047,2.7047,0,0,1,.4648-1.584,1.521,1.521,0,0,1,1.3291-.67A1.48,1.48,0,0,1,318.8643,58.2007Zm-1.57,3.1367a.9929.9929,0,0,0,.91.4531.9572.9572,0,0,0,.7989-.42,1.9944,1.9944,0,0,0,.3125-1.2051,1.789,1.789,0,0,0-.3223-1.1738,1.0039,1.0039,0,0,0-.7969-.3809,1.05,1.05,0,0,0-.8574.4063,1.87,1.87,0,0,0-.3281,1.1953A2.0881,2.0881,0,0,0,317.294,61.3374Z"/><path class="f142669b-51d2-4fb4-88a4-be0323c22b3a" d="M57.4781,37.7349a2.0364,2.0364,0,0,1,.66,1.3047H57.38a1.4432,1.4432,0,0,0-1.5654-1.2032,1.6867,1.6867,0,0,0-1.3443.5962,2.7552,2.7552,0,0,0-.5122,1.8277,2.6925,2.6925,0,0,0,.4624,1.6362,1.6031,1.6031,0,0,0,1.3794.6274,1.4506,1.4506,0,0,0,1.2857-.66,2.5461,2.5461,0,0,0,.3491-.9141h.7578a2.6028,2.6028,0,0,1-.664,1.52,2.35,2.35,0,0,1-1.8228.7383,2.3886,2.3886,0,0,1-1.66-.6059,3.7613,3.7613,0,0,1-.22-4.5577,2.4125,2.4125,0,0,1,1.98-.8833A2.3081,2.3081,0,0,1,57.4781,37.7349Z"/><path class="f142669b-51d2-4fb4-88a4-be0323c22b3a" d="M62.1343,39.2891a2.1106,2.1106,0,0,1,.5547,1.5844,2.7306,2.7306,0,0,1-.4888,1.67,1.7625,1.7625,0,0,1-1.5166.66,1.7056,1.7056,0,0,1-1.3613-.5835,2.3125,2.3125,0,0,1-.5044-1.5669,2.505,2.505,0,0,1,.5313-1.6782,1.7784,1.7784,0,0,1,1.4277-.6245A1.875,1.875,0,0,1,62.1343,39.2891Zm-.4365,2.78a2.6524,2.6524,0,0,0,.2568-1.1762,2.1112,2.1112,0,0,0-.1855-.9517,1.04,1.04,0,0,0-1.0117-.5776.9964.9964,0,0,0-.9273.4917,2.3,2.3,0,0,0-.29,1.186,1.9991,1.9991,0,0,0,.29,1.1118,1.0176,1.0176,0,0,0,.9195.4448A.9571.9571,0,0,0,61.6978,42.0693Z"/><path class="f142669b-51d2-4fb4-88a4-be0323c22b3a" d="M63.5523,38.8716h.6953v.5937a2.3464,2.3464,0,0,1,.4531-.4492,1.3642,1.3642,0,0,1,.7891-.2383,1.2419,1.2419,0,0,1,.8047.2461,1.2882,1.2882,0,0,1,.3125.4141,1.5171,1.5171,0,0,1,.5508-.4981,1.5377,1.5377,0,0,1,.7109-.1621,1.1626,1.1626,0,0,1,1.1484.6094,1.9921,1.9921,0,0,1,.1641.8828v2.7852h-.7305V40.1489a.6768.6768,0,0,0-.209-.5742.8271.8271,0,0,0-.51-.1562,1.0112,1.0112,0,0,0-.7129.2773,1.2186,1.2186,0,0,0-.2988.9258v2.4336h-.7149v-2.73a1.4186,1.4186,0,0,0-.1015-.6211.62.62,0,0,0-.5977-.293,1.032,1.032,0,0,0-.7246.3086,1.513,1.513,0,0,0-.3262,1.1172v2.2188h-.7031Z"/><path class="f142669b-51d2-4fb4-88a4-be0323c22b3a" d="M70.1578,38.8911h.6875v.5547a1.712,1.712,0,0,1,.4619-.4414,1.4911,1.4911,0,0,1,.8384-.2344,1.5774,1.5774,0,0,1,1.21.5449,2.2294,2.2294,0,0,1,.4976,1.5567,2.3848,2.3848,0,0,1-.7178,1.9531,1.6241,1.6241,0,0,1-1.0586.3711,1.4411,1.4411,0,0,1-.7964-.207,1.8361,1.8361,0,0,1-.4194-.4024v2.1367h-.7031ZM72.8033,42.17A1.96,1.96,0,0,0,73.13,40.938a2.2934,2.2934,0,0,0-.145-.8594,1.0638,1.0638,0,0,0-2.0068.0391,2.8852,2.8852,0,0,0-.1451.9922,2.0973,2.0973,0,0,0,.1451.8242,1.0675,1.0675,0,0,0,1.8247.2363Z"/><path class="f142669b-51d2-4fb4-88a4-be0323c22b3a" d="M77.6968,39.2891a2.1106,2.1106,0,0,1,.5547,1.5844,2.7306,2.7306,0,0,1-.4888,1.67,1.7625,1.7625,0,0,1-1.5166.66,1.7056,1.7056,0,0,1-1.3613-.5835,2.3125,2.3125,0,0,1-.5044-1.5669,2.505,2.505,0,0,1,.5313-1.6782,1.7784,1.7784,0,0,1,1.4277-.6245A1.875,1.875,0,0,1,77.6968,39.2891Zm-.4365,2.78a2.6524,2.6524,0,0,0,.2568-1.1762,2.1112,2.1112,0,0,0-.1855-.9517,1.04,1.04,0,0,0-1.0117-.5776.9964.9964,0,0,0-.9273.4917,2.3,2.3,0,0,0-.29,1.186,1.9991,1.9991,0,0,0,.29,1.1118,1.0176,1.0176,0,0,0,.9195.4448A.9571.9571,0,0,0,77.26,42.0693Z"/><path class="f142669b-51d2-4fb4-88a4-be0323c22b3a" d="M79.1148,38.8716h.668v.5937a1.8765,1.8765,0,0,1,.6289-.5273,1.6743,1.6743,0,0,1,.7382-.16,1.2176,1.2176,0,0,1,1.2032.6211,2.2042,2.2042,0,0,1,.1718.9727v2.6836H81.81V40.4185a1.4244,1.4244,0,0,0-.1133-.6172.6869.6869,0,0,0-.68-.3907,1.39,1.39,0,0,0-.41.0508,1.0554,1.0554,0,0,0-.5078.3438,1.0358,1.0358,0,0,0-.2285.4277,2.8749,2.8749,0,0,0-.0528.6309v2.1914h-.7031Z"/><path class="f142669b-51d2-4fb4-88a4-be0323c22b3a" d="M86.148,38.9868a1.5857,1.5857,0,0,1,.6328.541,1.88,1.88,0,0,1,.28.7383,4.8558,4.8558,0,0,1,.062.9219H84.08a1.8058,1.8058,0,0,0,.2984,1.0244.9946.9946,0,0,0,.8642.3857,1.1106,1.1106,0,0,0,.8721-.3647,1.249,1.249,0,0,0,.2583-.4907h.6914a1.45,1.45,0,0,1-.1816.5136,1.849,1.849,0,0,1-.3443.4629,1.6183,1.6183,0,0,1-.7871.4219,2.3808,2.3808,0,0,1-.57.0625,1.7456,1.7456,0,0,1-1.3159-.5683,2.22,2.22,0,0,1-.54-1.5918,2.4148,2.4148,0,0,1,.5435-1.6368,1.7876,1.7876,0,0,1,1.4209-.6289A1.89,1.89,0,0,1,86.148,38.9868ZM86.4,40.6294a1.8278,1.8278,0,0,0-.1977-.73,1.01,1.01,0,0,0-.9565-.5078,1.0565,1.0565,0,0,0-.8057.35,1.326,1.326,0,0,0-.3447.8887Z"/><path class="f142669b-51d2-4fb4-88a4-be0323c22b3a" d="M88.0132,38.8716h.668v.5937a1.8775,1.8775,0,0,1,.6289-.5273,1.6744,1.6744,0,0,1,.7383-.16,1.2176,1.2176,0,0,1,1.2031.6211,2.2026,2.2026,0,0,1,.1719.9727v2.6836h-.7149V40.4185a1.426,1.426,0,0,0-.1132-.6172.687.687,0,0,0-.68-.3907,1.3912,1.3912,0,0,0-.41.0508,1.0554,1.0554,0,0,0-.5078.3438,1.0358,1.0358,0,0,0-.2285.4277,2.876,2.876,0,0,0-.0527.6309v2.1914h-.7032Z"/><path class="f142669b-51d2-4fb4-88a4-be0323c22b3a" d="M92.6031,37.7036h.7109v1.168h.668v.5742h-.668v2.73a.2948.2948,0,0,0,.1484.2929.6292.6292,0,0,0,.2735.043c.0337,0,.07-.001.1094-.0024s.0844-.0064.1367-.0132v.5586a1.5553,1.5553,0,0,1-.252.0508,2.4443,2.4443,0,0,1-.2832.0156.763.763,0,0,1-.6679-.252,1.12,1.12,0,0,1-.1758-.6543v-2.77h-.5664v-.5742h.5664Z"/><path class="f142669b-51d2-4fb4-88a4-be0323c22b3a" d="M61.7535,51.3428a1.0112,1.0112,0,0,0,.1792.539,1.1405,1.1405,0,0,0,.9409.34,1.409,1.409,0,0,0,.7016-.17.5623.5623,0,0,0,.3033-.5254.448.448,0,0,0-.2422-.41,2.9445,2.9445,0,0,0-.6114-.1992l-.5678-.1406a2.7925,2.7925,0,0,1-.8018-.2969.8841.8841,0,0,1-.46-.7891,1.198,1.198,0,0,1,.4336-.9609,1.7445,1.7445,0,0,1,1.1655-.3672,1.63,1.63,0,0,1,1.3818.5547,1.1931,1.1931,0,0,1,.2574.7578h-.6641a.7947.7947,0,0,0-.1719-.4311,1.116,1.116,0,0,0-.86-.2759,1.0493,1.0493,0,0,0-.6177.1518.4713.4713,0,0,0-.21.4009.4916.4916,0,0,0,.2759.436,1.6658,1.6658,0,0,0,.47.1714l.4737.1133a3.7081,3.7081,0,0,1,1.0346.3555.9413.9413,0,0,1,.41.8476,1.2846,1.2846,0,0,1-.4292.9649,1.8409,1.8409,0,0,1-1.3072.4062,1.7659,1.7659,0,0,1-1.3383-.4238,1.5914,1.5914,0,0,1-.4214-1.0488Z"/><path class="f142669b-51d2-4fb4-88a4-be0323c22b3a" d="M67.92,48.5869a1.5864,1.5864,0,0,1,.6328.541,1.8817,1.8817,0,0,1,.28.7383,4.8558,4.8558,0,0,1,.062.9219h-3.043a1.8058,1.8058,0,0,0,.2984,1.0244.9946.9946,0,0,0,.8642.3857,1.1106,1.1106,0,0,0,.8721-.3647,1.249,1.249,0,0,0,.2583-.4907h.6914a1.45,1.45,0,0,1-.1816.5136,1.849,1.849,0,0,1-.3443.4629,1.6183,1.6183,0,0,1-.7871.4219,2.3814,2.3814,0,0,1-.57.0625,1.7456,1.7456,0,0,1-1.3159-.5683,2.22,2.22,0,0,1-.54-1.5918,2.4148,2.4148,0,0,1,.5435-1.6368,1.7876,1.7876,0,0,1,1.4209-.6289A1.89,1.89,0,0,1,67.92,48.5869Zm.2519,1.6426a1.8278,1.8278,0,0,0-.1977-.73,1.01,1.01,0,0,0-.9566-.5078,1.0565,1.0565,0,0,0-.8056.35,1.3261,1.3261,0,0,0-.3448.8887Z"/><path class="f142669b-51d2-4fb4-88a4-be0323c22b3a" d="M69.8042,48.4717h.668v.7226a1.597,1.597,0,0,1,.4024-.5136,1.0429,1.0429,0,0,1,.7382-.3028c.0132,0,.0352.0015.0664.0039s.0845.0078.16.0157V49.14a1.0241,1.0241,0,0,0-.1152-.0156c-.0352-.0024-.0738-.0039-.1153-.0039a1.003,1.003,0,0,0-.8164.3418,1.1943,1.1943,0,0,0-.2851.7871v2.4063h-.7032Z"/><path class="f142669b-51d2-4fb4-88a4-be0323c22b3a" d="M72.7945,48.4717l1.1172,3.4062,1.164-3.4062h.77L74.27,52.6553H73.521l-1.5429-4.1836Z"/><path class="f142669b-51d2-4fb4-88a4-be0323c22b3a" d="M76.4488,46.917h.7148v.7969h-.7148Zm0,1.5742h.7148v4.1641h-.7148Z"/><path class="f142669b-51d2-4fb4-88a4-be0323c22b3a" d="M80.99,48.6943a1.6477,1.6477,0,0,1,.5332,1.1836h-.6836a1.2593,1.2593,0,0,0-.2852-.6425.9009.9009,0,0,0-.7148-.2559.9882.9882,0,0,0-.9609.6553,2.6036,2.6036,0,0,0-.1875,1.05,1.9712,1.9712,0,0,0,.2656,1.0571,1.0313,1.0313,0,0,0,1.5293.1626,1.4633,1.4633,0,0,0,.3535-.73h.6836a1.6532,1.6532,0,0,1-1.7852,1.6016,1.6007,1.6007,0,0,1-1.3086-.6,2.2947,2.2947,0,0,1-.4882-1.4981,2.5227,2.5227,0,0,1,.5351-1.7148,1.73,1.73,0,0,1,1.3633-.6133A1.825,1.825,0,0,1,80.99,48.6943Z"/><path class="f142669b-51d2-4fb4-88a4-be0323c22b3a" d="M84.81,48.5869a1.5857,1.5857,0,0,1,.6328.541,1.88,1.88,0,0,1,.28.7383,4.8558,4.8558,0,0,1,.062.9219h-3.043a1.8058,1.8058,0,0,0,.2984,1.0244.9946.9946,0,0,0,.8642.3857,1.1106,1.1106,0,0,0,.8721-.3647,1.249,1.249,0,0,0,.2583-.4907h.6914a1.4481,1.4481,0,0,1-.1816.5136,1.8465,1.8465,0,0,1-.3443.4629,1.6183,1.6183,0,0,1-.7871.4219,2.3808,2.3808,0,0,1-.57.0625,1.7458,1.7458,0,0,1-1.3159-.5683,2.22,2.22,0,0,1-.54-1.5918,2.4148,2.4148,0,0,1,.5435-1.6368,1.7876,1.7876,0,0,1,1.4209-.6289A1.89,1.89,0,0,1,84.81,48.5869Zm.252,1.6426a1.8294,1.8294,0,0,0-.1978-.73,1.01,1.01,0,0,0-.9565-.5078,1.0565,1.0565,0,0,0-.8057.35,1.326,1.326,0,0,0-.3447.8887Z"/><path class="f142669b-51d2-4fb4-88a4-be0323c22b3a" d="M48.4566,58.0718h.668v.7226a1.595,1.595,0,0,1,.4023-.5136,1.0433,1.0433,0,0,1,.7383-.3028c.0132,0,.0351.0015.0664.0039s.0845.0078.16.0157V58.74a1.021,1.021,0,0,0-.1152-.0156c-.0351-.0024-.0737-.0039-.1152-.0039a1.0029,1.0029,0,0,0-.8164.3418,1.1938,1.1938,0,0,0-.2852.7871v2.4063h-.7031Z"/><path class="f142669b-51d2-4fb4-88a4-be0323c22b3a" d="M53.6851,58.187a1.5857,1.5857,0,0,1,.6328.541,1.88,1.88,0,0,1,.28.7383,4.8558,4.8558,0,0,1,.062.9219h-3.043a1.8058,1.8058,0,0,0,.2984,1.0244.9946.9946,0,0,0,.8642.3857,1.1106,1.1106,0,0,0,.8721-.3647,1.249,1.249,0,0,0,.2583-.4907h.6914a1.4481,1.4481,0,0,1-.1816.5136,1.8465,1.8465,0,0,1-.3443.4629,1.6183,1.6183,0,0,1-.7871.4219,2.3808,2.3808,0,0,1-.57.0625,1.7455,1.7455,0,0,1-1.3159-.5684,2.2192,2.2192,0,0,1-.54-1.5917,2.4148,2.4148,0,0,1,.5435-1.6368,1.7876,1.7876,0,0,1,1.4209-.6289A1.89,1.89,0,0,1,53.6851,58.187Zm.252,1.6426a1.8289,1.8289,0,0,0-.1978-.73,1.01,1.01,0,0,0-.9565-.5078,1.0565,1.0565,0,0,0-.8057.35,1.326,1.326,0,0,0-.3447.8887Z"/><path class="f142669b-51d2-4fb4-88a4-be0323c22b3a" d="M58.314,58.2944a1.6473,1.6473,0,0,1,.5332,1.1836h-.6836a1.2607,1.2607,0,0,0-.2851-.6426.9016.9016,0,0,0-.7149-.2558.9884.9884,0,0,0-.9609.6553,2.6036,2.6036,0,0,0-.1875,1.05,1.9721,1.9721,0,0,0,.2656,1.0571,1.0313,1.0313,0,0,0,1.5293.1626,1.4633,1.4633,0,0,0,.3535-.7295h.6836a1.6532,1.6532,0,0,1-1.7851,1.6016,1.6,1.6,0,0,1-1.3086-.6,2.2942,2.2942,0,0,1-.4883-1.4981A2.5227,2.5227,0,0,1,55.8,58.564a1.73,1.73,0,0,1,1.3633-.6133A1.825,1.825,0,0,1,58.314,58.2944Z"/><path class="f142669b-51d2-4fb4-88a4-be0323c22b3a" d="M62.5816,58.4893a2.111,2.111,0,0,1,.5547,1.5844,2.7306,2.7306,0,0,1-.4888,1.67,1.7627,1.7627,0,0,1-1.5166.66A1.7055,1.7055,0,0,1,59.77,61.82a2.3125,2.3125,0,0,1-.5044-1.5669,2.505,2.505,0,0,1,.5312-1.6782,1.7786,1.7786,0,0,1,1.4278-.6245A1.8751,1.8751,0,0,1,62.5816,58.4893Zm-.4365,2.78a2.6524,2.6524,0,0,0,.2568-1.1762,2.1112,2.1112,0,0,0-.1855-.9517,1.04,1.04,0,0,0-1.0118-.5776.9962.9962,0,0,0-.9272.4917,2.2986,2.2986,0,0,0-.29,1.186,1.9983,1.9983,0,0,0,.29,1.1118,1.0174,1.0174,0,0,0,.9194.4448A.9571.9571,0,0,0,62.1451,61.27Z"/><path class="f142669b-51d2-4fb4-88a4-be0323c22b3a" d="M64,58.0718h.6953v.5937a2.3436,2.3436,0,0,1,.4531-.4492,1.3638,1.3638,0,0,1,.7891-.2383,1.2416,1.2416,0,0,1,.8046.2461,1.2854,1.2854,0,0,1,.3125.4141,1.5178,1.5178,0,0,1,.5508-.4981,1.5384,1.5384,0,0,1,.711-.1621,1.1626,1.1626,0,0,1,1.1484.6094,1.9921,1.9921,0,0,1,.1641.8828v2.7852H68.898V59.3491a.6768.6768,0,0,0-.209-.5742.8274.8274,0,0,0-.51-.1562,1.0111,1.0111,0,0,0-.7128.2773,1.2181,1.2181,0,0,0-.2989.9258v2.4336h-.7148v-2.73a1.4168,1.4168,0,0,0-.1016-.6211.62.62,0,0,0-.5976-.293,1.0316,1.0316,0,0,0-.7246.3086,1.513,1.513,0,0,0-.3262,1.1172v2.2188H64Z"/><path class="f142669b-51d2-4fb4-88a4-be0323c22b3a" d="M70.6636,58.0718h.6953v.5937a2.3436,2.3436,0,0,1,.4532-.4492,1.3637,1.3637,0,0,1,.789-.2383,1.2419,1.2419,0,0,1,.8047.2461,1.2854,1.2854,0,0,1,.3125.4141,1.5178,1.5178,0,0,1,.5508-.4981,1.5377,1.5377,0,0,1,.7109-.1621,1.1628,1.1628,0,0,1,1.1485.6094,1.9937,1.9937,0,0,1,.164.8828v2.7852h-.73V59.3491a.6771.6771,0,0,0-.209-.5742.8276.8276,0,0,0-.51-.1562,1.0112,1.0112,0,0,0-.7129.2773,1.2185,1.2185,0,0,0-.2988.9258v2.4336h-.7149v-2.73a1.4171,1.4171,0,0,0-.1015-.6211.62.62,0,0,0-.5977-.293,1.032,1.032,0,0,0-.7246.3086,1.513,1.513,0,0,0-.3262,1.1172v2.2188h-.7031Z"/><path class="f142669b-51d2-4fb4-88a4-be0323c22b3a" d="M79.9117,58.187a1.5864,1.5864,0,0,1,.6328.541,1.8817,1.8817,0,0,1,.28.7383,4.8558,4.8558,0,0,1,.062.9219h-3.043a1.8066,1.8066,0,0,0,.2983,1.0244.9949.9949,0,0,0,.8643.3857,1.1106,1.1106,0,0,0,.8721-.3647,1.249,1.249,0,0,0,.2583-.4907h.6914a1.4485,1.4485,0,0,1-.1817.5136,1.8463,1.8463,0,0,1-.3442.4629,1.6183,1.6183,0,0,1-.7871.4219,2.3814,2.3814,0,0,1-.57.0625,1.7454,1.7454,0,0,1-1.3159-.5684,2.2192,2.2192,0,0,1-.54-1.5917,2.4148,2.4148,0,0,1,.5435-1.6368,1.7876,1.7876,0,0,1,1.4209-.6289A1.89,1.89,0,0,1,79.9117,58.187Zm.2519,1.6426a1.8273,1.8273,0,0,0-.1977-.73,1.01,1.01,0,0,0-.9566-.5078,1.0565,1.0565,0,0,0-.8056.35,1.3261,1.3261,0,0,0-.3448.8887Z"/><path class="f142669b-51d2-4fb4-88a4-be0323c22b3a" d="M81.7769,58.0718h.668v.5937a1.8765,1.8765,0,0,1,.6289-.5273,1.673,1.673,0,0,1,.7383-.16,1.2176,1.2176,0,0,1,1.2031.6211,2.204,2.204,0,0,1,.1719.9727v2.6836h-.7149V59.6187a1.4244,1.4244,0,0,0-.1133-.6172.6869.6869,0,0,0-.68-.3907,1.39,1.39,0,0,0-.41.0508,1.0554,1.0554,0,0,0-.5078.3438,1.0358,1.0358,0,0,0-.2285.4277,2.8749,2.8749,0,0,0-.0528.6309v2.1914h-.7031Z"/><path class="f142669b-51d2-4fb4-88a4-be0323c22b3a" d="M88.5245,58.2007a1.8849,1.8849,0,0,1,.4243.41V56.4976h.6758v5.7578h-.6329v-.5821a1.5191,1.5191,0,0,1-.58.5586,1.65,1.65,0,0,1-.7666.1719,1.55,1.55,0,0,1-1.2061-.5879,2.305,2.305,0,0,1-.51-1.5644,2.7077,2.7077,0,0,1,.4649-1.584,1.52,1.52,0,0,1,1.3291-.67A1.4791,1.4791,0,0,1,88.5245,58.2007Zm-1.5694,3.1367a.9923.9923,0,0,0,.91.4531.9563.9563,0,0,0,.7983-.42,1.9908,1.9908,0,0,0,.313-1.2051,1.7866,1.7866,0,0,0-.3227-1.1738,1.0038,1.0038,0,0,0-.7964-.3809A1.05,1.05,0,0,0,87,59.0171a1.8689,1.8689,0,0,0-.3282,1.1953A2.0846,2.0846,0,0,0,86.9551,61.3374Z"/><path class="f142669b-51d2-4fb4-88a4-be0323c22b3a" d="M93.2593,58.187a1.5857,1.5857,0,0,1,.6328.541,1.88,1.88,0,0,1,.28.7383,4.8558,4.8558,0,0,1,.062.9219H91.191a1.8066,1.8066,0,0,0,.2983,1.0244.9946.9946,0,0,0,.8643.3857,1.1105,1.1105,0,0,0,.872-.3647,1.2477,1.2477,0,0,0,.2583-.4907h.6914a1.4481,1.4481,0,0,1-.1816.5136,1.8488,1.8488,0,0,1-.3442.4629,1.6192,1.6192,0,0,1-.7871.4219,2.3823,2.3823,0,0,1-.57.0625,1.7455,1.7455,0,0,1-1.3159-.5684,2.2192,2.2192,0,0,1-.54-1.5917,2.4147,2.4147,0,0,1,.5434-1.6368,1.7877,1.7877,0,0,1,1.4209-.6289A1.89,1.89,0,0,1,93.2593,58.187Zm.252,1.6426a1.8273,1.8273,0,0,0-.1978-.73,1.01,1.01,0,0,0-.9565-.5078,1.0567,1.0567,0,0,0-.8057.35,1.326,1.326,0,0,0-.3447.8887Z"/><path class="f142669b-51d2-4fb4-88a4-be0323c22b3a" d="M97.4229,58.2007a1.8849,1.8849,0,0,1,.4243.41V56.4976h.6758v5.7578H97.89v-.5821a1.52,1.52,0,0,1-.58.5586,1.65,1.65,0,0,1-.7666.1719,1.55,1.55,0,0,1-1.2061-.5879,2.3049,2.3049,0,0,1-.51-1.5644,2.7083,2.7083,0,0,1,.4648-1.584,1.52,1.52,0,0,1,1.3291-.67A1.4786,1.4786,0,0,1,97.4229,58.2007Zm-1.5693,3.1367a.992.992,0,0,0,.91.4531.9563.9563,0,0,0,.7984-.42,1.9908,1.9908,0,0,0,.313-1.2051,1.7866,1.7866,0,0,0-.3228-1.1738,1.0036,1.0036,0,0,0-.7964-.3809,1.05,1.05,0,0,0-.8574.4063,1.8689,1.8689,0,0,0-.3281,1.1953A2.0838,2.0838,0,0,0,95.8536,61.3374Z"/><path class="f142669b-51d2-4fb4-88a4-be0323c22b3a" d="M237.4776,37.7349a2.0317,2.0317,0,0,1,.66,1.3047H237.38a1.4421,1.4421,0,0,0-1.5644-1.2032,1.687,1.687,0,0,0-1.3448.5962,2.7579,2.7579,0,0,0-.5126,1.8277,2.69,2.69,0,0,0,.4628,1.6362,1.6028,1.6028,0,0,0,1.379.6274,1.45,1.45,0,0,0,1.2861-.66,2.5443,2.5443,0,0,0,.3486-.9141h.7578a2.5935,2.5935,0,0,1-.664,1.52,2.3484,2.3484,0,0,1-1.8223.7383,2.3886,2.3886,0,0,1-1.66-.6059,3.76,3.76,0,0,1-.2207-4.5577,2.4126,2.4126,0,0,1,1.9805-.8833A2.3073,2.3073,0,0,1,237.4776,37.7349Z"/><path class="f142669b-51d2-4fb4-88a4-be0323c22b3a" d="M242.1338,39.2891a2.1086,2.1086,0,0,1,.5547,1.5844,2.7272,2.7272,0,0,1-.4883,1.67,1.7638,1.7638,0,0,1-1.5166.66,1.7063,1.7063,0,0,1-1.3613-.5835,2.31,2.31,0,0,1-.5049-1.5669,2.5076,2.5076,0,0,1,.5313-1.6782,1.78,1.78,0,0,1,1.4277-.6245A1.8742,1.8742,0,0,1,242.1338,39.2891Zm-.4355,2.78a2.6588,2.6588,0,0,0,.2558-1.1762,2.1045,2.1045,0,0,0-.1855-.9517,1.04,1.04,0,0,0-1.0117-.5776.9967.9967,0,0,0-.9268.4917,2.3036,2.3036,0,0,0-.29,1.186,2.0025,2.0025,0,0,0,.29,1.1118,1.0167,1.0167,0,0,0,.919.4448A.959.959,0,0,0,241.6983,42.0693Z"/><path class="f142669b-51d2-4fb4-88a4-be0323c22b3a" d="M243.5518,38.8716h.6953v.5937a2.3748,2.3748,0,0,1,.4531-.4492,1.3665,1.3665,0,0,1,.7891-.2383,1.2409,1.2409,0,0,1,.8047.2461,1.2812,1.2812,0,0,1,.3125.4141,1.5171,1.5171,0,0,1,.5508-.4981,1.5392,1.5392,0,0,1,.7109-.1621,1.1626,1.1626,0,0,1,1.1484.6094,1.9921,1.9921,0,0,1,.1641.8828v2.7852H248.45V40.1489a.6756.6756,0,0,0-.2089-.5742.8256.8256,0,0,0-.51-.1562,1.0121,1.0121,0,0,0-.7129.2773,1.2186,1.2186,0,0,0-.2988.9258v2.4336h-.7149v-2.73a1.4112,1.4112,0,0,0-.1015-.6211.6189.6189,0,0,0-.5977-.293,1.0329,1.0329,0,0,0-.7246.3086,1.5152,1.5152,0,0,0-.3262,1.1172v2.2188h-.7031Z"/><path class="f142669b-51d2-4fb4-88a4-be0323c22b3a" d="M250.1573,38.8911h.6875v.5547a1.7078,1.7078,0,0,1,.4629-.4414,1.4882,1.4882,0,0,1,.8379-.2344,1.5774,1.5774,0,0,1,1.21.5449,2.2316,2.2316,0,0,1,.4971,1.5567,2.3845,2.3845,0,0,1-.7168,1.9531,1.6251,1.6251,0,0,1-1.0586.3711,1.444,1.444,0,0,1-.7969-.207,1.8469,1.8469,0,0,1-.42-.4024v2.1367h-.7031Zm2.6465,3.2793a1.9655,1.9655,0,0,0,.3261-1.2324,2.2938,2.2938,0,0,0-.1445-.8594,1.0638,1.0638,0,0,0-2.0068.0391,2.8843,2.8843,0,0,0-.1455.9922,2.097,2.097,0,0,0,.1455.8242,1.068,1.068,0,0,0,1.8252.2363Z"/><path class="f142669b-51d2-4fb4-88a4-be0323c22b3a" d="M257.6963,39.2891a2.1086,2.1086,0,0,1,.5547,1.5844,2.7272,2.7272,0,0,1-.4883,1.67,1.7638,1.7638,0,0,1-1.5166.66,1.7063,1.7063,0,0,1-1.3613-.5835,2.31,2.31,0,0,1-.5049-1.5669,2.5076,2.5076,0,0,1,.5313-1.6782,1.78,1.78,0,0,1,1.4277-.6245A1.8742,1.8742,0,0,1,257.6963,39.2891Zm-.4355,2.78a2.6588,2.6588,0,0,0,.2558-1.1762,2.1045,2.1045,0,0,0-.1855-.9517,1.04,1.04,0,0,0-1.0117-.5776.9967.9967,0,0,0-.9268.4917,2.3036,2.3036,0,0,0-.29,1.186,2.0025,2.0025,0,0,0,.29,1.1118,1.0167,1.0167,0,0,0,.919.4448A.959.959,0,0,0,257.2608,42.0693Z"/><path class="f142669b-51d2-4fb4-88a4-be0323c22b3a" d="M259.1143,38.8716h.668v.5937a1.8862,1.8862,0,0,1,.6289-.5273,1.6775,1.6775,0,0,1,.7383-.16,1.2171,1.2171,0,0,1,1.2031.6211,2.1969,2.1969,0,0,1,.1719.9727v2.6836H261.81V40.4185a1.4171,1.4171,0,0,0-.1133-.6172.6869.6869,0,0,0-.68-.3907,1.3946,1.3946,0,0,0-.41.0508,1.06,1.06,0,0,0-.5078.3438,1.0358,1.0358,0,0,0-.2285.4277,2.8749,2.8749,0,0,0-.0528.6309v2.1914h-.7031Z"/><path class="f142669b-51d2-4fb4-88a4-be0323c22b3a" d="M266.1475,38.9868a1.579,1.579,0,0,1,.6328.541,1.867,1.867,0,0,1,.28.7383,4.8236,4.8236,0,0,1,.0615.9219h-3.043a1.8175,1.8175,0,0,0,.2989,1.0244.9946.9946,0,0,0,.8642.3857,1.1106,1.1106,0,0,0,.8721-.3647,1.2545,1.2545,0,0,0,.2578-.4907h.6914a1.4306,1.4306,0,0,1-.1816.5136,1.824,1.824,0,0,1-.3438.4629,1.6205,1.6205,0,0,1-.7871.4219,2.3792,2.3792,0,0,1-.57.0625,1.7453,1.7453,0,0,1-1.3154-.5683,2.2177,2.2177,0,0,1-.54-1.5918,2.415,2.415,0,0,1,.544-1.6368,1.7876,1.7876,0,0,1,1.4209-.6289A1.8865,1.8865,0,0,1,266.1475,38.9868Zm.252,1.6426a1.8135,1.8135,0,0,0-.1973-.73,1.0109,1.0109,0,0,0-.957-.5078,1.0546,1.0546,0,0,0-.8047.35,1.3311,1.3311,0,0,0-.3457.8887Z"/><path class="f142669b-51d2-4fb4-88a4-be0323c22b3a" d="M268.0127,38.8716h.668v.5937a1.8871,1.8871,0,0,1,.6289-.5273,1.6775,1.6775,0,0,1,.7383-.16,1.2171,1.2171,0,0,1,1.2031.6211,2.1954,2.1954,0,0,1,.1719.9727v2.6836h-.7148V40.4185a1.4186,1.4186,0,0,0-.1133-.6172.687.687,0,0,0-.68-.3907,1.3958,1.3958,0,0,0-.41.0508,1.06,1.06,0,0,0-.5078.3438,1.037,1.037,0,0,0-.2285.4277,2.876,2.876,0,0,0-.0527.6309v2.1914h-.7032Z"/><path class="f142669b-51d2-4fb4-88a4-be0323c22b3a" d="M272.6026,37.7036h.7109v1.168h.668v.5742h-.668v2.73a.2955.2955,0,0,0,.1485.2929.63.63,0,0,0,.2734.043c.0342,0,.07-.001.1094-.0024s.0849-.0064.1367-.0132v.5586a1.5339,1.5339,0,0,1-.252.0508,2.4379,2.4379,0,0,1-.2832.0156.7631.7631,0,0,1-.6679-.252,1.12,1.12,0,0,1-.1758-.6543v-2.77h-.5664v-.5742h.5664Z"/><path class="f142669b-51d2-4fb4-88a4-be0323c22b3a" d="M241.753,51.3428a1.0163,1.0163,0,0,0,.18.539,1.141,1.141,0,0,0,.9414.34,1.4071,1.4071,0,0,0,.7011-.17.5619.5619,0,0,0,.3028-.5254.4471.4471,0,0,0-.2422-.41,2.9342,2.9342,0,0,0-.6113-.1992l-.5674-.1406a2.7925,2.7925,0,0,1-.8018-.2969.8856.8856,0,0,1-.4609-.7891,1.198,1.198,0,0,1,.4336-.9609,1.7459,1.7459,0,0,1,1.166-.3672,1.6293,1.6293,0,0,1,1.3818.5547,1.19,1.19,0,0,1,.2569.7578h-.6641a.7871.7871,0,0,0-.1719-.4311,1.1133,1.1133,0,0,0-.8593-.2759,1.0465,1.0465,0,0,0-.6172.1518.4711.4711,0,0,0-.211.4009.4912.4912,0,0,0,.2764.436,1.6719,1.6719,0,0,0,.47.1714l.4737.1133a3.6968,3.6968,0,0,1,1.0341.3555.9413.9413,0,0,1,.41.8476,1.2841,1.2841,0,0,1-.4287.9649,1.8413,1.8413,0,0,1-1.3076.4062,1.7655,1.7655,0,0,1-1.3379-.4238,1.5969,1.5969,0,0,1-.4219-1.0488Z"/><path class="f142669b-51d2-4fb4-88a4-be0323c22b3a" d="M247.919,48.5869a1.58,1.58,0,0,1,.6328.541,1.867,1.867,0,0,1,.28.7383,4.8236,4.8236,0,0,1,.0615.9219h-3.043a1.8175,1.8175,0,0,0,.2989,1.0244.9946.9946,0,0,0,.8642.3857,1.1106,1.1106,0,0,0,.8721-.3647,1.2545,1.2545,0,0,0,.2578-.4907h.6914a1.4306,1.4306,0,0,1-.1816.5136,1.824,1.824,0,0,1-.3438.4629,1.6205,1.6205,0,0,1-.7871.4219,2.38,2.38,0,0,1-.57.0625,1.7453,1.7453,0,0,1-1.3154-.5683,2.2177,2.2177,0,0,1-.54-1.5918,2.415,2.415,0,0,1,.544-1.6368,1.7876,1.7876,0,0,1,1.4209-.6289A1.8865,1.8865,0,0,1,247.919,48.5869Zm.2519,1.6426a1.812,1.812,0,0,0-.1972-.73,1.011,1.011,0,0,0-.9571-.5078,1.0544,1.0544,0,0,0-.8046.35,1.3311,1.3311,0,0,0-.3457.8887Z"/><path class="f142669b-51d2-4fb4-88a4-be0323c22b3a" d="M249.8038,48.4717h.6679v.7226a1.6043,1.6043,0,0,1,.4024-.5136,1.0447,1.0447,0,0,1,.7383-.3028c.0136,0,.0351.0015.0664.0039s.0849.0078.16.0157V49.14a1.009,1.009,0,0,0-.1152-.0156c-.0352-.0024-.0733-.0039-.1153-.0039a1.0044,1.0044,0,0,0-.8164.3418,1.1969,1.1969,0,0,0-.2851.7871v2.4063h-.7031Z"/><path class="f142669b-51d2-4fb4-88a4-be0323c22b3a" d="M252.794,48.4717l1.1172,3.4062,1.164-3.4062h.77l-1.5742,4.1836h-.75l-1.543-4.1836Z"/><path class="f142669b-51d2-4fb4-88a4-be0323c22b3a" d="M256.4483,46.917h.7148v.7969h-.7148Zm0,1.5742h.7148v4.1641h-.7148Z"/><path class="f142669b-51d2-4fb4-88a4-be0323c22b3a" d="M260.9893,48.6943a1.6439,1.6439,0,0,1,.5332,1.1836h-.6836a1.2559,1.2559,0,0,0-.2851-.6425.9013.9013,0,0,0-.7149-.2559.9891.9891,0,0,0-.9609.6553,2.6036,2.6036,0,0,0-.1875,1.05,1.9757,1.9757,0,0,0,.2656,1.0571,1.0313,1.0313,0,0,0,1.5293.1626,1.4551,1.4551,0,0,0,.3535-.73h.6836a1.6532,1.6532,0,0,1-1.7851,1.6016,1.6011,1.6011,0,0,1-1.3086-.6,2.297,2.297,0,0,1-.4883-1.4981,2.5252,2.5252,0,0,1,.5351-1.7148,1.7314,1.7314,0,0,1,1.3633-.6133A1.8231,1.8231,0,0,1,260.9893,48.6943Z"/><path class="f142669b-51d2-4fb4-88a4-be0323c22b3a" d="M264.81,48.5869a1.579,1.579,0,0,1,.6328.541,1.8655,1.8655,0,0,1,.28.7383,4.8236,4.8236,0,0,1,.0615.9219h-3.0429a1.8167,1.8167,0,0,0,.2988,1.0244.9946.9946,0,0,0,.8642.3857,1.1106,1.1106,0,0,0,.8721-.3647,1.2545,1.2545,0,0,0,.2578-.4907h.6914a1.4287,1.4287,0,0,1-.1816.5136,1.8217,1.8217,0,0,1-.3438.4629,1.6205,1.6205,0,0,1-.7871.4219,2.3792,2.3792,0,0,1-.57.0625,1.7453,1.7453,0,0,1-1.3154-.5683,2.2176,2.2176,0,0,1-.54-1.5918,2.415,2.415,0,0,1,.5439-1.6368,1.7876,1.7876,0,0,1,1.4209-.6289A1.8865,1.8865,0,0,1,264.81,48.5869Zm.252,1.6426a1.8135,1.8135,0,0,0-.1973-.73,1.0109,1.0109,0,0,0-.957-.5078,1.0546,1.0546,0,0,0-.8047.35,1.3316,1.3316,0,0,0-.3457.8887Z"/><path class="f142669b-51d2-4fb4-88a4-be0323c22b3a" d="M228.4561,58.0718h.668v.7226a1.6037,1.6037,0,0,1,.4023-.5136,1.0451,1.0451,0,0,1,.7383-.3028c.0137,0,.0352.0015.0664.0039s.085.0078.16.0157V58.74a1.0106,1.0106,0,0,0-.1153-.0156c-.0351-.0024-.0732-.0039-.1152-.0039a1.0043,1.0043,0,0,0-.8164.3418,1.1964,1.1964,0,0,0-.2852.7871v2.4063h-.7031Z"/><path class="f142669b-51d2-4fb4-88a4-be0323c22b3a" d="M233.6846,58.187a1.579,1.579,0,0,1,.6328.541,1.8655,1.8655,0,0,1,.28.7383,4.8236,4.8236,0,0,1,.0615.9219h-3.0429a1.8167,1.8167,0,0,0,.2988,1.0244.9946.9946,0,0,0,.8642.3857,1.1106,1.1106,0,0,0,.8721-.3647,1.2545,1.2545,0,0,0,.2578-.4907h.6914a1.4287,1.4287,0,0,1-.1816.5136,1.8217,1.8217,0,0,1-.3438.4629,1.6205,1.6205,0,0,1-.7871.4219,2.3792,2.3792,0,0,1-.57.0625,1.7451,1.7451,0,0,1-1.3154-.5684,2.2172,2.2172,0,0,1-.54-1.5917,2.415,2.415,0,0,1,.5439-1.6368,1.7876,1.7876,0,0,1,1.4209-.6289A1.8865,1.8865,0,0,1,233.6846,58.187Zm.252,1.6426a1.813,1.813,0,0,0-.1973-.73,1.0109,1.0109,0,0,0-.957-.5078,1.0546,1.0546,0,0,0-.8047.35,1.3316,1.3316,0,0,0-.3457.8887Z"/><path class="f142669b-51d2-4fb4-88a4-be0323c22b3a" d="M238.3135,58.2944a1.6435,1.6435,0,0,1,.5332,1.1836h-.6836a1.2566,1.2566,0,0,0-.2851-.6426.9014.9014,0,0,0-.7149-.2558.9893.9893,0,0,0-.9609.6553,2.6036,2.6036,0,0,0-.1875,1.05,1.9766,1.9766,0,0,0,.2656,1.0571,1.0313,1.0313,0,0,0,1.5293.1626,1.4551,1.4551,0,0,0,.3535-.7295h.6836a1.6532,1.6532,0,0,1-1.7851,1.6016,1.6011,1.6011,0,0,1-1.3086-.6,2.297,2.297,0,0,1-.4883-1.4981A2.5247,2.5247,0,0,1,235.8,58.564a1.731,1.731,0,0,1,1.3632-.6133A1.8231,1.8231,0,0,1,238.3135,58.2944Z"/><path class="f142669b-51d2-4fb4-88a4-be0323c22b3a" d="M242.5811,58.4893a2.109,2.109,0,0,1,.5547,1.5844,2.7272,2.7272,0,0,1-.4883,1.67,1.7639,1.7639,0,0,1-1.5166.66A1.7062,1.7062,0,0,1,239.77,61.82a2.31,2.31,0,0,1-.5049-1.5669,2.5076,2.5076,0,0,1,.5312-1.6782,1.78,1.78,0,0,1,1.4278-.6245A1.8743,1.8743,0,0,1,242.5811,58.4893Zm-.4355,2.78a2.6588,2.6588,0,0,0,.2558-1.1762,2.1045,2.1045,0,0,0-.1855-.9517,1.04,1.04,0,0,0-1.0118-.5776.9964.9964,0,0,0-.9267.4917,2.3036,2.3036,0,0,0-.29,1.186,2.0025,2.0025,0,0,0,.29,1.1118,1.0165,1.0165,0,0,0,.9189.4448A.959.959,0,0,0,242.1456,61.27Z"/><path class="f142669b-51d2-4fb4-88a4-be0323c22b3a" d="M243.9991,58.0718h.6953v.5937a2.3719,2.3719,0,0,1,.4531-.4492,1.366,1.366,0,0,1,.7891-.2383,1.2411,1.2411,0,0,1,.8047.2461,1.2812,1.2812,0,0,1,.3125.4141,1.5168,1.5168,0,0,1,.5507-.4981,1.54,1.54,0,0,1,.711-.1621,1.1626,1.1626,0,0,1,1.1484.6094,1.9921,1.9921,0,0,1,.1641.8828v2.7852h-.73V59.3491a.6753.6753,0,0,0-.209-.5742.8253.8253,0,0,0-.51-.1562,1.0121,1.0121,0,0,0-.7129.2773,1.2181,1.2181,0,0,0-.2989.9258v2.4336h-.7148v-2.73a1.41,1.41,0,0,0-.1016-.6211.6186.6186,0,0,0-.5976-.293,1.0327,1.0327,0,0,0-.7246.3086,1.5152,1.5152,0,0,0-.3262,1.1172v2.2188h-.7031Z"/><path class="f142669b-51d2-4fb4-88a4-be0323c22b3a" d="M250.6631,58.0718h.6953v.5937a2.372,2.372,0,0,1,.4532-.4492,1.3659,1.3659,0,0,1,.789-.2383,1.2409,1.2409,0,0,1,.8047.2461,1.2783,1.2783,0,0,1,.3125.4141,1.5178,1.5178,0,0,1,.5508-.4981,1.5392,1.5392,0,0,1,.7109-.1621,1.1628,1.1628,0,0,1,1.1485.6094,1.9923,1.9923,0,0,1,.164.8828v2.7852h-.73V59.3491a.6756.6756,0,0,0-.209-.5742.8256.8256,0,0,0-.51-.1562,1.0121,1.0121,0,0,0-.7129.2773,1.2185,1.2185,0,0,0-.2988.9258v2.4336h-.7148v-2.73a1.41,1.41,0,0,0-.1016-.6211.6189.6189,0,0,0-.5977-.293,1.0329,1.0329,0,0,0-.7246.3086,1.5152,1.5152,0,0,0-.3261,1.1172v2.2188h-.7032Z"/><path class="f142669b-51d2-4fb4-88a4-be0323c22b3a" d="M259.9112,58.187a1.58,1.58,0,0,1,.6328.541,1.867,1.867,0,0,1,.28.7383,4.8236,4.8236,0,0,1,.0615.9219h-3.043a1.8183,1.8183,0,0,0,.2988,1.0244.9949.9949,0,0,0,.8643.3857,1.1106,1.1106,0,0,0,.8721-.3647,1.2545,1.2545,0,0,0,.2578-.4907h.6914a1.4306,1.4306,0,0,1-.1816.5136,1.824,1.824,0,0,1-.3438.4629,1.6205,1.6205,0,0,1-.7871.4219,2.38,2.38,0,0,1-.57.0625,1.7451,1.7451,0,0,1-1.3154-.5684,2.2172,2.2172,0,0,1-.54-1.5917,2.415,2.415,0,0,1,.544-1.6368,1.7876,1.7876,0,0,1,1.4209-.6289A1.8865,1.8865,0,0,1,259.9112,58.187Zm.2519,1.6426a1.8115,1.8115,0,0,0-.1972-.73,1.011,1.011,0,0,0-.9571-.5078,1.0546,1.0546,0,0,0-.8047.35,1.3321,1.3321,0,0,0-.3457.8887Z"/><path class="f142669b-51d2-4fb4-88a4-be0323c22b3a" d="M261.7764,58.0718h.668v.5937a1.8862,1.8862,0,0,1,.6289-.5273,1.6761,1.6761,0,0,1,.7383-.16,1.2171,1.2171,0,0,1,1.2031.6211,2.1969,2.1969,0,0,1,.1719.9727v2.6836h-.7149V59.6187a1.4171,1.4171,0,0,0-.1133-.6172.6869.6869,0,0,0-.68-.3907,1.3949,1.3949,0,0,0-.41.0508,1.06,1.06,0,0,0-.5078.3438,1.0358,1.0358,0,0,0-.2285.4277,2.8749,2.8749,0,0,0-.0528.6309v2.1914h-.7031Z"/><path class="f142669b-51d2-4fb4-88a4-be0323c22b3a" d="M268.5245,58.2007a1.8741,1.8741,0,0,1,.4238.41V56.4976h.6758v5.7578h-.6328v-.5821a1.5131,1.5131,0,0,1-.58.5586,1.6489,1.6489,0,0,1-.7656.1719,1.55,1.55,0,0,1-1.2071-.5879,2.3049,2.3049,0,0,1-.51-1.5644,2.7112,2.7112,0,0,1,.4648-1.584,1.5225,1.5225,0,0,1,1.33-.67A1.4773,1.4773,0,0,1,268.5245,58.2007Zm-1.5694,3.1367a.9914.9914,0,0,0,.9092.4531.9571.9571,0,0,0,.7988-.42,1.9875,1.9875,0,0,0,.3125-1.2051,1.79,1.79,0,0,0-.3222-1.1738,1.004,1.004,0,0,0-.7969-.3809,1.0522,1.0522,0,0,0-.8574.4063,1.8689,1.8689,0,0,0-.3282,1.1953A2.0883,2.0883,0,0,0,266.9551,61.3374Z"/><path class="f142669b-51d2-4fb4-88a4-be0323c22b3a" d="M273.2588,58.187a1.579,1.579,0,0,1,.6328.541,1.8655,1.8655,0,0,1,.28.7383,4.8236,4.8236,0,0,1,.0615.9219h-3.0429a1.8175,1.8175,0,0,0,.2988,1.0244.9948.9948,0,0,0,.8643.3857,1.1105,1.1105,0,0,0,.872-.3647,1.2532,1.2532,0,0,0,.2578-.4907h.6915a1.431,1.431,0,0,1-.1817.5136,1.8238,1.8238,0,0,1-.3437.4629,1.621,1.621,0,0,1-.7871.4219,2.3807,2.3807,0,0,1-.57.0625,1.7454,1.7454,0,0,1-1.3154-.5684,2.2176,2.2176,0,0,1-.54-1.5917,2.415,2.415,0,0,1,.5439-1.6368,1.7877,1.7877,0,0,1,1.4209-.6289A1.8862,1.8862,0,0,1,273.2588,58.187Zm.252,1.6426a1.813,1.813,0,0,0-.1973-.73,1.0108,1.0108,0,0,0-.957-.5078,1.0546,1.0546,0,0,0-.8047.35,1.3316,1.3316,0,0,0-.3457.8887Z"/><path class="f142669b-51d2-4fb4-88a4-be0323c22b3a" d="M277.4229,58.2007a1.8741,1.8741,0,0,1,.4238.41V56.4976h.6758v5.7578H277.89v-.5821a1.5131,1.5131,0,0,1-.58.5586,1.6486,1.6486,0,0,1-.7656.1719,1.55,1.55,0,0,1-1.207-.5879,2.3044,2.3044,0,0,1-.51-1.5644,2.7119,2.7119,0,0,1,.4648-1.584,1.5226,1.5226,0,0,1,1.33-.67A1.4768,1.4768,0,0,1,277.4229,58.2007Zm-1.5693,3.1367a.9912.9912,0,0,0,.9091.4531.9572.9572,0,0,0,.7989-.42,1.9875,1.9875,0,0,0,.3125-1.2051,1.79,1.79,0,0,0-.3223-1.1738,1.0039,1.0039,0,0,0-.7969-.3809,1.0523,1.0523,0,0,0-.8574.4063,1.87,1.87,0,0,0-.3281,1.1953A2.0883,2.0883,0,0,0,275.8536,61.3374Z"/><path class="f142669b-51d2-4fb4-88a4-be0323c22b3a" d="M150.8746,37.3169h.9155l2.8613,4.6362V37.3169h.7422v5.7383h-.873l-2.9039-4.6309v4.6309h-.7421Z"/><path class="f142669b-51d2-4fb4-88a4-be0323c22b3a" d="M159.5889,39.2891a2.109,2.109,0,0,1,.5547,1.5844,2.7272,2.7272,0,0,1-.4883,1.67,1.7639,1.7639,0,0,1-1.5166.66,1.7062,1.7062,0,0,1-1.3613-.5835,2.31,2.31,0,0,1-.5049-1.5669,2.5071,2.5071,0,0,1,.5313-1.6782,1.78,1.78,0,0,1,1.4277-.6245A1.8743,1.8743,0,0,1,159.5889,39.2891Zm-.4355,2.78a2.6588,2.6588,0,0,0,.2558-1.1762,2.1045,2.1045,0,0,0-.1855-.9517,1.04,1.04,0,0,0-1.0117-.5776.9965.9965,0,0,0-.9268.4917,2.3036,2.3036,0,0,0-.29,1.186,2.0025,2.0025,0,0,0,.29,1.1118,1.0166,1.0166,0,0,0,.9189.4448A.959.959,0,0,0,159.1534,42.0693Z"/><path class="f142669b-51d2-4fb4-88a4-be0323c22b3a" d="M161.0264,38.8716h.668v.7226a1.6037,1.6037,0,0,1,.4023-.5136,1.0451,1.0451,0,0,1,.7383-.3028c.0137,0,.0352.0015.0664.0039s.085.0079.16.0157V39.54a.9872.9872,0,0,0-.1153-.0157c-.0351-.0024-.0732-.0039-.1152-.0039a1.0043,1.0043,0,0,0-.8164.3418,1.1966,1.1966,0,0,0-.2852.7871v2.4063h-.7031Z"/><path class="f142669b-51d2-4fb4-88a4-be0323c22b3a" d="M163.6709,38.8716h.6954v.5937a2.3691,2.3691,0,0,1,.4531-.4492,1.3659,1.3659,0,0,1,.789-.2383,1.2409,1.2409,0,0,1,.8047.2461,1.2783,1.2783,0,0,1,.3125.4141,1.5187,1.5187,0,0,1,.5508-.4981,1.54,1.54,0,0,1,.711-.1621,1.1626,1.1626,0,0,1,1.1484.6094,1.9921,1.9921,0,0,1,.1641.8828v2.7852h-.7305V40.1489a.6756.6756,0,0,0-.209-.5742.8256.8256,0,0,0-.51-.1562,1.0122,1.0122,0,0,0-.7129.2773,1.2186,1.2186,0,0,0-.2988.9258v2.4336h-.7148v-2.73a1.41,1.41,0,0,0-.1016-.6211.6187.6187,0,0,0-.5976-.293,1.0329,1.0329,0,0,0-.7247.3086,1.5152,1.5152,0,0,0-.3261,1.1172v2.2188h-.7032Z"/><path class="f142669b-51d2-4fb4-88a4-be0323c22b3a" d="M172.5772,40.5234a.3816.3816,0,0,0,.3242-.2026.6245.6245,0,0,0,.0469-.271.5732.5732,0,0,0-.2549-.5234,1.3672,1.3672,0,0,0-.7314-.1626.9267.9267,0,0,0-.7793.2983.9871.9871,0,0,0-.168.4907h-.6563a1.2143,1.2143,0,0,1,.502-1.0791,2.049,2.049,0,0,1,1.1172-.3037,2.274,2.274,0,0,1,1.1982.2813.9552.9552,0,0,1,.4561.875v2.41a.3121.3121,0,0,0,.0449.1758.2177.2177,0,0,0,.19.0664c.0312,0,.0664-.0019.1054-.0058s.0811-.01.125-.0176v.52a1.9331,1.9331,0,0,1-.25.0586,1.8142,1.8142,0,0,1-.2343.0117.5783.5783,0,0,1-.5274-.2578,1.0037,1.0037,0,0,1-.1211-.3867,1.7759,1.7759,0,0,1-.6172.4883,1.9042,1.9042,0,0,1-.8867.207,1.32,1.32,0,0,1-.9512-.353,1.1719,1.1719,0,0,1-.3691-.8838,1.1367,1.1367,0,0,1,.3633-.9009,1.7337,1.7337,0,0,1,.9531-.3945Zm-1.4805,1.8995a.828.828,0,0,0,.5274.1752,1.6045,1.6045,0,0,0,.7187-.1713.966.966,0,0,0,.586-.9322v-.5654a1.1819,1.1819,0,0,1-.3311.1367,2.788,2.788,0,0,1-.3975.0786l-.4248.0542a1.656,1.656,0,0,0-.5752.16.6224.6224,0,0,0-.3261.5845A.5779.5779,0,0,0,171.0967,42.4229Z"/><path class="f142669b-51d2-4fb4-88a4-be0323c22b3a" d="M174.8038,37.3169h.7031v5.7383h-.7031Z"/><path class="f142669b-51d2-4fb4-88a4-be0323c22b3a" d="M150.023,48.8892a2.111,2.111,0,0,1,.5547,1.5844,2.7306,2.7306,0,0,1-.4888,1.67,1.7627,1.7627,0,0,1-1.5166.66,1.7055,1.7055,0,0,1-1.3613-.5835,2.3125,2.3125,0,0,1-.5044-1.5669,2.505,2.505,0,0,1,.5312-1.6782,1.7786,1.7786,0,0,1,1.4278-.6245A1.8751,1.8751,0,0,1,150.023,48.8892Zm-.4365,2.78a2.6524,2.6524,0,0,0,.2568-1.1762,2.1112,2.1112,0,0,0-.1855-.9517,1.04,1.04,0,0,0-1.0118-.5776.9963.9963,0,0,0-.9272.4917,2.2986,2.2986,0,0,0-.29,1.186,1.9983,1.9983,0,0,0,.29,1.1118,1.0175,1.0175,0,0,0,.9194.4448A.9571.9571,0,0,0,149.5865,51.6694Z"/><path class="f142669b-51d2-4fb4-88a4-be0323c22b3a" d="M151.3824,48.4912h.6875v.5547a1.712,1.712,0,0,1,.4619-.4414,1.4911,1.4911,0,0,1,.8384-.2344,1.5774,1.5774,0,0,1,1.21.5449,2.2316,2.2316,0,0,1,.4971,1.5567,2.3831,2.3831,0,0,1-.7173,1.9531,1.6239,1.6239,0,0,1-1.0586.3711,1.4411,1.4411,0,0,1-.7964-.207,1.8361,1.8361,0,0,1-.4194-.4024v2.1367h-.7031Zm2.6455,3.2793a1.9589,1.9589,0,0,0,.3271-1.2324,2.2934,2.2934,0,0,0-.145-.8594,1.0638,1.0638,0,0,0-2.0068.0391,2.8854,2.8854,0,0,0-.145.9922,2.0974,2.0974,0,0,0,.145.8242,1.0675,1.0675,0,0,0,1.8247.2363Z"/><path class="f142669b-51d2-4fb4-88a4-be0323c22b3a" d="M158.4737,48.5869a1.58,1.58,0,0,1,.6328.541,1.867,1.867,0,0,1,.28.7383,4.8236,4.8236,0,0,1,.0615.9219h-3.043a1.8183,1.8183,0,0,0,.2988,1.0244.9949.9949,0,0,0,.8643.3857,1.1106,1.1106,0,0,0,.8721-.3647,1.2545,1.2545,0,0,0,.2578-.4907h.6914a1.4306,1.4306,0,0,1-.1816.5136,1.824,1.824,0,0,1-.3438.4629,1.6205,1.6205,0,0,1-.7871.4219,2.38,2.38,0,0,1-.57.0625,1.7453,1.7453,0,0,1-1.3154-.5683,2.2177,2.2177,0,0,1-.54-1.5918,2.415,2.415,0,0,1,.544-1.6368,1.7876,1.7876,0,0,1,1.4209-.6289A1.8865,1.8865,0,0,1,158.4737,48.5869Zm.2519,1.6426a1.812,1.812,0,0,0-.1972-.73,1.011,1.011,0,0,0-.9571-.5078,1.0546,1.0546,0,0,0-.8047.35,1.3321,1.3321,0,0,0-.3457.8887Z"/><path class="f142669b-51d2-4fb4-88a4-be0323c22b3a" d="M160.3584,48.4717h.668v.7226a1.6043,1.6043,0,0,1,.4024-.5136,1.0447,1.0447,0,0,1,.7382-.3028c.0137,0,.0352.0015.0664.0039s.085.0078.16.0157V49.14a1.009,1.009,0,0,0-.1152-.0156c-.0352-.0024-.0733-.0039-.1153-.0039a1.0044,1.0044,0,0,0-.8164.3418,1.1969,1.1969,0,0,0-.2851.7871v2.4063h-.7032Z"/><path class="f142669b-51d2-4fb4-88a4-be0323c22b3a" d="M165.2452,50.1235a.3816.3816,0,0,0,.3242-.2026.626.626,0,0,0,.0469-.271.5732.5732,0,0,0-.2549-.5234,1.3673,1.3673,0,0,0-.7315-.1626.927.927,0,0,0-.7793.2983.9872.9872,0,0,0-.1679.4907h-.6563a1.2143,1.2143,0,0,1,.502-1.0791,2.0488,2.0488,0,0,1,1.1172-.3037,2.2742,2.2742,0,0,1,1.1982.2813.9552.9552,0,0,1,.4561.875v2.41a.3121.3121,0,0,0,.0449.1758.2173.2173,0,0,0,.1894.0664c.0313,0,.0664-.0019.1055-.0058s.081-.01.125-.0176v.52a1.9369,1.9369,0,0,1-.25.0586,1.816,1.816,0,0,1-.2344.0117.5782.5782,0,0,1-.5273-.2578,1,1,0,0,1-.1211-.3867,1.7768,1.7768,0,0,1-.6172.4883,1.9042,1.9042,0,0,1-.8867.207,1.32,1.32,0,0,1-.9512-.353,1.1719,1.1719,0,0,1-.3691-.8838,1.137,1.137,0,0,1,.3632-.9009,1.734,1.734,0,0,1,.9532-.3945Zm-1.4805,1.8994a.8278.8278,0,0,0,.5273.1753,1.6049,1.6049,0,0,0,.7188-.1713.9659.9659,0,0,0,.5859-.9322v-.5654a1.18,1.18,0,0,1-.331.1367,2.788,2.788,0,0,1-.3975.0786l-.4248.0542a1.6553,1.6553,0,0,0-.5752.16.6224.6224,0,0,0-.3262.5845A.5777.5777,0,0,0,163.7647,52.0229Z"/><path class="f142669b-51d2-4fb4-88a4-be0323c22b3a" d="M167.5928,47.3037h.711v1.168h.6679v.5742h-.6679v2.73a.2956.2956,0,0,0,.1484.2929.63.63,0,0,0,.2734.043c.0342,0,.07-.001.1094-.0024s.085-.0064.1367-.0132v.5586a1.5327,1.5327,0,0,1-.2519.0508,2.4392,2.4392,0,0,1-.2832.0156.7632.7632,0,0,1-.668-.252,1.12,1.12,0,0,1-.1758-.6543V49.0459h-.5664v-.5742h.5664Z"/><path class="f142669b-51d2-4fb4-88a4-be0323c22b3a" d="M169.6749,46.917h.7148v.7969h-.7148Zm0,1.5742h.7148v4.1641h-.7148Z"/><path class="f142669b-51d2-4fb4-88a4-be0323c22b3a" d="M171.4522,48.4717h.668v.5937a1.8862,1.8862,0,0,1,.6289-.5273,1.6769,1.6769,0,0,1,.7383-.16,1.2171,1.2171,0,0,1,1.2031.6211,2.1969,2.1969,0,0,1,.1719.9727v2.6836h-.7149V50.0186a1.4171,1.4171,0,0,0-.1133-.6172.6869.6869,0,0,0-.68-.3907,1.3946,1.3946,0,0,0-.41.0508,1.06,1.06,0,0,0-.5078.3438,1.0358,1.0358,0,0,0-.2285.4277,2.8749,2.8749,0,0,0-.0528.6309v2.1914h-.7031Z"/><path class="f142669b-51d2-4fb4-88a4-be0323c22b3a" d="M178.2276,48.64a1.9062,1.9062,0,0,1,.4043.3985v-.5274h.6484v3.8047a2.8344,2.8344,0,0,1-.2324,1.2578,1.6765,1.6765,0,0,1-1.6475.8516,2.0146,2.0146,0,0,1-1.1328-.3027,1.1858,1.1858,0,0,1-.5146-.9473h.7148a.7985.7985,0,0,0,.2031.4336,1.2745,1.2745,0,0,0,1.7989-.3359,3.251,3.251,0,0,0,.1347-1.1993,1.3722,1.3722,0,0,1-.5058.4766,1.808,1.808,0,0,1-1.9668-.3262,2.13,2.13,0,0,1-.5078-1.5957,2.4239,2.4239,0,0,1,.5117-1.6406,1.583,1.583,0,0,1,1.2363-.59A1.5139,1.5139,0,0,1,178.2276,48.64Zm.0859.754a1.0185,1.0185,0,0,0-.8125-.375,1.0027,1.0027,0,0,0-1.01.6953,2.7416,2.7416,0,0,0-.1446.9726,1.733,1.733,0,0,0,.2862,1.0762.92.92,0,0,0,.7675.3691,1.0784,1.0784,0,0,0,1.0616-.6836,2.2282,2.2282,0,0,0,.17-.9023A1.7481,1.7481,0,0,0,178.3135,49.3936Z"/><path class="f142669b-51d2-4fb4-88a4-be0323c22b3a" d="M153.4605,58.0718h.668v.7226a1.6006,1.6006,0,0,1,.4018-.5136,1.0451,1.0451,0,0,1,.7383-.3028c.0137,0,.0352.0015.0664.0039s.085.0078.16.0157V58.74a1.0106,1.0106,0,0,0-.1153-.0156c-.0351-.0024-.0732-.0039-.1152-.0039a1.0025,1.0025,0,0,0-.8159.3418,1.1938,1.1938,0,0,0-.2852.7871v2.4063h-.7031Z"/><path class="f142669b-51d2-4fb4-88a4-be0323c22b3a" d="M158.3467,59.7236a.3814.3814,0,0,0,.3242-.2026.6245.6245,0,0,0,.0469-.271.5731.5731,0,0,0-.2549-.5234,1.3669,1.3669,0,0,0-.7314-.1626.9268.9268,0,0,0-.7793.2983.9881.9881,0,0,0-.168.4907h-.6562a1.2141,1.2141,0,0,1,.5019-1.0791,2.049,2.049,0,0,1,1.1172-.3037,2.2746,2.2746,0,0,1,1.1983.2813.9551.9551,0,0,1,.456.875v2.41a.3121.3121,0,0,0,.0449.1758.2177.2177,0,0,0,.1895.0664,1.0448,1.0448,0,0,0,.1055-.0059c.039-.0039.081-.01.125-.0175v.52a1.9369,1.9369,0,0,1-.25.0586,1.817,1.817,0,0,1-.2344.0117.5783.5783,0,0,1-.5274-.2578,1.0037,1.0037,0,0,1-.1211-.3867,1.7755,1.7755,0,0,1-.6171.4883,1.9055,1.9055,0,0,1-.8868.207,1.32,1.32,0,0,1-.9511-.353,1.172,1.172,0,0,1-.3692-.8838,1.1367,1.1367,0,0,1,.3633-.9009,1.734,1.734,0,0,1,.9531-.3945Zm-1.48,1.8994a.8278.8278,0,0,0,.5273.1753,1.6052,1.6052,0,0,0,.7188-.1713.9659.9659,0,0,0,.5859-.9322v-.5654a1.1794,1.1794,0,0,1-.3311.1367,2.784,2.784,0,0,1-.3974.0786l-.4248.0542a1.6553,1.6553,0,0,0-.5752.16.6224.6224,0,0,0-.3262.5845A.5774.5774,0,0,0,156.8663,61.623Z"/><path class="f142669b-51d2-4fb4-88a4-be0323c22b3a" d="M160.5538,58.0718h.6679v.5937a1.8871,1.8871,0,0,1,.6289-.5273,1.6761,1.6761,0,0,1,.7383-.16,1.217,1.217,0,0,1,1.2031.6211,2.1954,2.1954,0,0,1,.1719.9727v2.6836h-.7148V59.6187a1.4171,1.4171,0,0,0-.1133-.6172.687.687,0,0,0-.68-.3907,1.3958,1.3958,0,0,0-.41.0508,1.0605,1.0605,0,0,0-.5078.3438,1.037,1.037,0,0,0-.2285.4277,2.8822,2.8822,0,0,0-.0527.6309v2.1914h-.7031Z"/><path class="f142669b-51d2-4fb4-88a4-be0323c22b3a" d="M167.3291,58.24a1.9039,1.9039,0,0,1,.4043.3985v-.5274h.6485v3.8047a2.8344,2.8344,0,0,1-.2324,1.2578,1.6766,1.6766,0,0,1-1.6475.8516,2.0146,2.0146,0,0,1-1.1328-.3027,1.1856,1.1856,0,0,1-.5147-.9473h.7149a.7978.7978,0,0,0,.2031.4336,1.2744,1.2744,0,0,0,1.7988-.3359,3.25,3.25,0,0,0,.1348-1.1993,1.3717,1.3717,0,0,1-.5059.4766,1.808,1.808,0,0,1-1.9668-.3262,2.13,2.13,0,0,1-.5078-1.5957,2.4234,2.4234,0,0,1,.5118-1.6406,1.5829,1.5829,0,0,1,1.2363-.59A1.5134,1.5134,0,0,1,167.3291,58.24Zm.086.754a1.0185,1.0185,0,0,0-.8125-.375,1.0029,1.0029,0,0,0-1.01.6953,2.7418,2.7418,0,0,0-.1445.9726,1.7336,1.7336,0,0,0,.2861,1.0762.92.92,0,0,0,.7676.3691,1.0783,1.0783,0,0,0,1.0615-.6836,2.2265,2.2265,0,0,0,.17-.9023A1.7482,1.7482,0,0,0,167.4151,58.9937Z"/><path class="f142669b-51d2-4fb4-88a4-be0323c22b3a" d="M172.0362,58.187a1.58,1.58,0,0,1,.6328.541,1.867,1.867,0,0,1,.28.7383,4.8236,4.8236,0,0,1,.0615.9219h-3.043a1.8183,1.8183,0,0,0,.2988,1.0244.9949.9949,0,0,0,.8643.3857,1.1106,1.1106,0,0,0,.8721-.3647,1.2545,1.2545,0,0,0,.2578-.4907h.6914a1.4306,1.4306,0,0,1-.1816.5136,1.824,1.824,0,0,1-.3438.4629,1.6205,1.6205,0,0,1-.7871.4219,2.38,2.38,0,0,1-.57.0625,1.7451,1.7451,0,0,1-1.3154-.5684,2.2172,2.2172,0,0,1-.54-1.5917,2.415,2.415,0,0,1,.544-1.6368,1.7876,1.7876,0,0,1,1.4209-.6289A1.8865,1.8865,0,0,1,172.0362,58.187Zm.2519,1.6426a1.8115,1.8115,0,0,0-.1972-.73,1.011,1.011,0,0,0-.9571-.5078,1.0546,1.0546,0,0,0-.8047.35,1.3321,1.3321,0,0,0-.3457.8887Z"/></g></svg>