<?xml version="1.0" encoding="UTF-8"?>
<!DOCTYPE svg PUBLIC "-//W3C//DTD SVG 1.1//EN" "http://www.w3.org/Graphics/SVG/1.1/DTD/svg11.dtd">
<svg width="4.694444444444445in" height="1.0833333333333333in" viewBox="-5px 719px 338px 78px">
<title>generated by pstoedit version:3.45 from c:/image_conversion/images/SP_sensor_thresholds.eps</title>
<g xml:space="preserve">
<clipPath id="clippath1"> 	<path d="  M 0 723.289   L 0 792   L 328.145 792   L 328.145 723.289   Z   " style="clip-rule:nonzero"/>
</clipPath>
<g style="clip-path:url(#clippath1)"> 
<g fill="#ffffff" fill-rule="nonzero" stroke-width="0" stroke-linejoin="miter" stroke-linecap="butt" stroke-miterlimit="10">
	<path d="  M 5.20313 748.668   L 323.113 748.668   "/>
</g>
<g stroke="#000000" fill="none" stroke-width="0.5" stroke-linejoin="round" stroke-linecap="round" stroke-miterlimit="4">
	<path d="  M 5.20313 748.668   L 323.113 748.668   "/>
</g>
<g fill="#060808" fill-rule="nonzero" stroke-width="0" stroke-linejoin="round" stroke-linecap="round" stroke-miterlimit="4">
	<path d="  M 322.703 748.531   L 322.703 745.563   L 325.301 747.047   L 327.895 748.531   L 325.301 750.02   L 322.703 751.504   Z   "/>
</g>
<g stroke="#000000" fill="none" stroke-width="0.5" stroke-linejoin="round" stroke-linecap="round" stroke-miterlimit="4">
	<path d="  M 322.703 748.531   L 322.703 745.563   L 325.301 747.047   L 327.895 748.531   L 325.301 750.02   L 322.703 751.504   Z   "/>
</g>
<g fill="#060808" fill-rule="nonzero" stroke-width="0" stroke-linejoin="round" stroke-linecap="round" stroke-miterlimit="4">
	<path d="  M 5.44141 748.531   L 5.44141 751.504   L 2.84766 750.016   L 0.25 748.531   L 2.84766 747.047   L 5.44141 745.563   Z   "/>
</g>
<g stroke="#000000" fill="none" stroke-width="0.5" stroke-linejoin="round" stroke-linecap="round" stroke-miterlimit="4">
	<path d="  M 5.44141 748.531   L 5.44141 751.504   L 2.84766 750.016   L 0.25 748.531   L 2.84766 747.047   L 5.44141 745.563   Z   "/>
</g>
<g fill="#ffffff" fill-rule="nonzero" stroke-width="0" stroke-linejoin="round" stroke-linecap="round" stroke-miterlimit="4">
	<path d="  M 46.1563 748.582   C 46.1563 750.563 44.5508 752.168 42.5742 752.168   C 40.5938 752.168 38.9883 750.563 38.9883 748.582   C 38.9883 746.605 40.5938 745 42.5742 745   C 44.5508 745 46.1563 746.605 46.1563 748.582   Z   "/>
</g>
<g stroke="#000000" fill="none" stroke-width="0.5" stroke-linejoin="round" stroke-linecap="round" stroke-miterlimit="4">
	<path d="  M 46.1563 748.582   C 46.1563 750.563 44.5508 752.168 42.5742 752.168   C 40.5938 752.168 38.9883 750.563 38.9883 748.582   C 38.9883 746.605 40.5938 745 42.5742 745   C 44.5508 745 46.1563 746.605 46.1563 748.582   Z   "/>
</g>
<g fill="#ffffff" fill-rule="nonzero" stroke-width="0" stroke-linejoin="round" stroke-linecap="round" stroke-miterlimit="4">
	<path d="  M 106.824 748.918   C 106.824 750.895 105.219 752.5 103.238 752.5   C 101.262 752.5 99.6563 750.895 99.6563 748.918   C 99.6563 746.938 101.262 745.332 103.238 745.332   C 105.219 745.332 106.824 746.938 106.824 748.918   Z   "/>
</g>
<g stroke="#000000" fill="none" stroke-width="0.5" stroke-linejoin="round" stroke-linecap="round" stroke-miterlimit="4">
	<path d="  M 106.824 748.918   C 106.824 750.895 105.219 752.5 103.238 752.5   C 101.262 752.5 99.6563 750.895 99.6563 748.918   C 99.6563 746.938 101.262 745.332 103.238 745.332   C 105.219 745.332 106.824 746.938 106.824 748.918   Z   "/>
</g>
<g fill="#ffffff" fill-rule="nonzero" stroke-width="0" stroke-linejoin="round" stroke-linecap="round" stroke-miterlimit="4">
	<path d="  M 225.156 748.918   C 225.156 750.895 223.551 752.5 221.574 752.5   C 219.594 752.5 217.988 750.895 217.988 748.918   C 217.988 746.938 219.594 745.332 221.574 745.332   C 223.551 745.332 225.156 746.938 225.156 748.918   Z   "/>
</g>
<g stroke="#000000" fill="none" stroke-width="0.5" stroke-linejoin="round" stroke-linecap="round" stroke-miterlimit="4">
	<path d="  M 225.156 748.918   C 225.156 750.895 223.551 752.5 221.574 752.5   C 219.594 752.5 217.988 750.895 217.988 748.918   C 217.988 746.938 219.594 745.332 221.574 745.332   C 223.551 745.332 225.156 746.938 225.156 748.918   Z   "/>
</g>
<g fill="#ffffff" fill-rule="nonzero" stroke-width="0" stroke-linejoin="round" stroke-linecap="round" stroke-miterlimit="4">
	<path d="  M 288.488 748.918   C 288.488 750.895 286.887 752.5 284.906 752.5   C 282.93 752.5 281.324 750.895 281.324 748.918   C 281.324 746.938 282.93 745.332 284.906 745.332   C 286.887 745.332 288.488 746.938 288.488 748.918   Z   "/>
</g>
<g stroke="#000000" fill="none" stroke-width="0.5" stroke-linejoin="round" stroke-linecap="round" stroke-miterlimit="4">
	<path d="  M 288.488 748.918   C 288.488 750.895 286.887 752.5 284.906 752.5   C 282.93 752.5 281.324 750.895 281.324 748.918   C 281.324 746.938 282.93 745.332 284.906 745.332   C 286.887 745.332 288.488 746.938 288.488 748.918   Z   "/>
</g>
<g stroke="#000000" fill="none" stroke-width="0.5" stroke-linejoin="round" stroke-linecap="round" stroke-miterlimit="4">
	<path d="  M 57.4883 744.5   L 27.1563 744.5   L 27.1563 727.5   L 57.4883 727.5   Z   "/>
</g>
<g stroke="#000000" fill="none" stroke-width="0.5" stroke-linejoin="round" stroke-linecap="round" stroke-miterlimit="4">
	<path d="  M 118.488 744.5   L 88.1563 744.5   L 88.1563 727.5   L 118.488 727.5   Z   "/>
</g>
<g stroke="#000000" fill="none" stroke-width="0.5" stroke-linejoin="round" stroke-linecap="round" stroke-miterlimit="4">
	<path d="  M 236.488 744.832   L 206.156 744.832   L 206.156 727.832   L 236.488 727.832   Z   "/>
</g>
<g stroke="#000000" fill="none" stroke-width="0.5" stroke-linejoin="round" stroke-linecap="round" stroke-miterlimit="4">
	<path d="  M 300.156 744.832   L 269.82 744.832   L 269.82 727.832   L 300.156 727.832   Z   "/>
</g>
<g stroke="#060808" fill="none" stroke-width="0.5" stroke-linejoin="round" stroke-linecap="round" stroke-miterlimit="4">
	<path d="  M 46.1133 751.434   C 46.1133 751.434 45.8711 753.379 48.0586 753.379   C 50.2461 753.379 70.4297 753.379 70.4297 753.379   C 70.4297 753.379 72.7422 753.867 72.7422 755.691   "/>
</g>
<g stroke="#060808" fill="none" stroke-width="0.5" stroke-linejoin="round" stroke-linecap="round" stroke-miterlimit="4">
	<path d="  M 99.4805 751.434   C 99.4805 751.434 99.7227 753.379 97.5352 753.379   C 95.3477 753.379 75.1641 753.379 75.1641 753.379   C 75.1641 753.379 72.8555 753.867 72.8555 755.691   "/>
</g>
<g stroke="#060808" fill="none" stroke-width="0.5" stroke-linejoin="round" stroke-linecap="round" stroke-miterlimit="4">
	<path d="  M 226.363 751.434   C 226.363 751.434 226.117 753.379 228.328 753.379   C 230.535 753.379 250.906 753.379 250.906 753.379   C 250.906 753.379 253.238 753.867 253.238 755.691   "/>
</g>
<g stroke="#060808" fill="none" stroke-width="0.5" stroke-linejoin="round" stroke-linecap="round" stroke-miterlimit="4">
	<path d="  M 280.23 751.434   C 280.23 751.434 280.477 753.379 278.27 753.379   C 276.059 753.379 255.688 753.379 255.688 753.379   C 255.688 753.379 253.355 753.867 253.355 755.691   "/>
</g>
<g stroke="#060808" fill="none" stroke-width="0.5" stroke-linejoin="round" stroke-linecap="round" stroke-miterlimit="4">
	<path d="  M 107.496 751.918   C 107.496 751.918 106.996 753.707 111.508 753.707   C 116.016 753.707 157.605 753.707 157.605 753.707   C 157.605 753.707 162.367 754.156 162.367 755.832   "/>
</g>
<g stroke="#060808" fill="none" stroke-width="0.5" stroke-linejoin="round" stroke-linecap="round" stroke-miterlimit="4">
	<path d="  M 217.473 751.918   C 217.473 751.918 217.977 753.707 213.465 753.707   C 208.953 753.707 167.363 753.707 167.363 753.707   C 167.363 753.707 162.602 754.156 162.602 755.832   "/>
</g>
<g stroke="#060808" fill="none" stroke-width="0.5" stroke-linejoin="round" stroke-linecap="round" stroke-miterlimit="4">
	<path d="  M 6.36328 752.012   C 6.36328 752.012 6.21094 753.199 7.55078 753.199   C 8.88672 753.199 21.2266 753.199 21.2266 753.199   C 21.2266 753.199 22.6367 753.5 22.6367 754.613   "/>
</g>
<g stroke="#060808" fill="none" stroke-width="0.5" stroke-linejoin="round" stroke-linecap="round" stroke-miterlimit="4">
	<path d="  M 38.9844 752.012   C 38.9844 752.012 39.1328 753.199 37.7969 753.199   C 36.457 753.199 24.1211 753.199 24.1211 753.199   C 24.1211 753.199 22.707 753.5 22.707 754.613   "/>
</g>
<g stroke="#060808" fill="none" stroke-width="0.5" stroke-linejoin="round" stroke-linecap="round" stroke-miterlimit="4">
	<path d="  M 288.859 752.012   C 288.859 752.012 288.711 753.199 290.051 753.199   C 291.387 753.199 303.727 753.199 303.727 753.199   C 303.727 753.199 305.137 753.5 305.137 754.613   "/>
</g>
<g stroke="#060808" fill="none" stroke-width="0.5" stroke-linejoin="round" stroke-linecap="round" stroke-miterlimit="4">
	<path d="  M 321.484 752.012   C 321.484 752.012 321.633 753.199 320.297 753.199   C 318.957 753.199 306.621 753.199 306.621 753.199   C 306.621 753.199 305.207 753.5 305.207 754.613   "/>
</g>
<g style="stroke:none;fill:#000000;text-rendering:optimizeGeometricPrecision;font-size:9;font-family:Helvetica,Arial;">
	<text transform="matrix(1 0 0 1 32.8223 739.463)">LCR</text>
</g>
<g style="stroke:none;fill:#000000;text-rendering:optimizeGeometricPrecision;font-size:9;font-family:Helvetica,Arial;">
	<text transform="matrix(1 0 0 1 93.4893 739.463)">LNC</text>
</g>
<g style="stroke:none;fill:#000000;text-rendering:optimizeGeometricPrecision;font-size:9;font-family:Helvetica,Arial;">
	<text transform="matrix(1 0 0 1 211.823 739.463)">UNC</text>
</g>
<g style="stroke:none;fill:#000000;text-rendering:optimizeGeometricPrecision;font-size:9;font-family:Helvetica,Arial;">
	<text transform="matrix(1 0 0 1 275.156 739.463)">UCR</text>
</g>
<g style="stroke:none;fill:#000000;text-rendering:optimizeGeometricPrecision;font-size:8;font-family:Helvetica,Arial;">
	<text transform="matrix(1 0 0 1 4.48438 766.078)">Immed</text>
</g>
<g style="stroke:none;fill:#000000;text-rendering:optimizeGeometricPrecision;font-size:8;font-family:Helvetica,Arial;">
	<text transform="matrix(1 0 0 1 28.9331 766.078)">iate </text>
</g>
<g style="stroke:none;fill:#000000;text-rendering:optimizeGeometricPrecision;font-size:8;font-family:Helvetica,Arial;">
	<text transform="matrix(1 0 0 1 7.8125 775.677)">atte</text>
</g>
<g style="stroke:none;fill:#000000;text-rendering:optimizeGeometricPrecision;font-size:8;font-family:Helvetica,Arial;">
	<text transform="matrix(1 0 0 1 21.1567 775.677)">ntion </text>
</g>
<g style="stroke:none;fill:#000000;text-rendering:optimizeGeometricPrecision;font-size:8;font-family:Helvetica,Arial;">
	<text transform="matrix(1 0 0 1 8.48438 785.277)">required</text>
</g>
<g style="stroke:none;fill:#000000;text-rendering:optimizeGeometricPrecision;font-size:8;font-family:Helvetica,Arial;">
	<text transform="matrix(1 0 0 1 287.151 766.078)">Immed</text>
</g>
<g style="stroke:none;fill:#000000;text-rendering:optimizeGeometricPrecision;font-size:8;font-family:Helvetica,Arial;">
	<text transform="matrix(1 0 0 1 311.6 766.078)">iate </text>
</g>
<g style="stroke:none;fill:#000000;text-rendering:optimizeGeometricPrecision;font-size:8;font-family:Helvetica,Arial;">
	<text transform="matrix(1 0 0 1 290.479 775.677)">atte</text>
</g>
<g style="stroke:none;fill:#000000;text-rendering:optimizeGeometricPrecision;font-size:8;font-family:Helvetica,Arial;">
	<text transform="matrix(1 0 0 1 303.824 775.677)">ntion </text>
</g>
<g style="stroke:none;fill:#000000;text-rendering:optimizeGeometricPrecision;font-size:8;font-family:Helvetica,Arial;">
	<text transform="matrix(1 0 0 1 291.151 785.277)">required</text>
</g>
<g style="stroke:none;fill:#000000;text-rendering:optimizeGeometricPrecision;font-size:8;font-family:Helvetica,Arial;">
	<text transform="matrix(1 0 0 1 52.8135 766.078)">Comp</text>
</g>
<g style="stroke:none;fill:#000000;text-rendering:optimizeGeometricPrecision;font-size:8;font-family:Helvetica,Arial;">
	<text transform="matrix(1 0 0 1 74.1499 766.078)">onent </text>
</g>
<g style="stroke:none;fill:#000000;text-rendering:optimizeGeometricPrecision;font-size:8;font-family:Helvetica,Arial;">
	<text transform="matrix(1 0 0 1 60.7017 775.677)">ser</text>
</g>
<g style="stroke:none;fill:#000000;text-rendering:optimizeGeometricPrecision;font-size:8;font-family:Helvetica,Arial;">
	<text transform="matrix(1 0 0 1 72.0542 775.677)">vice</text>
</g>
<g style="stroke:none;fill:#000000;text-rendering:optimizeGeometricPrecision;font-size:8;font-family:Helvetica,Arial;">
	<text transform="matrix(1 0 0 1 47.9258 785.277)">recommen</text>
</g>
<g style="stroke:none;fill:#000000;text-rendering:optimizeGeometricPrecision;font-size:8;font-family:Helvetica,Arial;">
	<text transform="matrix(1 0 0 1 85.7104 785.277)">ded</text>
</g>
<g style="stroke:none;fill:#000000;text-rendering:optimizeGeometricPrecision;font-size:8;font-family:Helvetica,Arial;">
	<text transform="matrix(1 0 0 1 232.813 766.078)">Comp</text>
</g>
<g style="stroke:none;fill:#000000;text-rendering:optimizeGeometricPrecision;font-size:8;font-family:Helvetica,Arial;">
	<text transform="matrix(1 0 0 1 254.15 766.078)">onent </text>
</g>
<g style="stroke:none;fill:#000000;text-rendering:optimizeGeometricPrecision;font-size:8;font-family:Helvetica,Arial;">
	<text transform="matrix(1 0 0 1 240.702 775.677)">ser</text>
</g>
<g style="stroke:none;fill:#000000;text-rendering:optimizeGeometricPrecision;font-size:8;font-family:Helvetica,Arial;">
	<text transform="matrix(1 0 0 1 252.054 775.677)">vice</text>
</g>
<g style="stroke:none;fill:#000000;text-rendering:optimizeGeometricPrecision;font-size:8;font-family:Helvetica,Arial;">
	<text transform="matrix(1 0 0 1 227.926 785.277)">recommen</text>
</g>
<g style="stroke:none;fill:#000000;text-rendering:optimizeGeometricPrecision;font-size:8;font-family:Helvetica,Arial;">
	<text transform="matrix(1 0 0 1 265.71 785.277)">ded</text>
</g>
<g style="stroke:none;fill:#000000;text-rendering:optimizeGeometricPrecision;font-size:8;font-family:Helvetica,Arial;">
	<text transform="matrix(1 0 0 1 150.168 766.078)">Nor</text>
</g>
<g style="stroke:none;fill:#000000;text-rendering:optimizeGeometricPrecision;font-size:8;font-family:Helvetica,Arial;">
	<text transform="matrix(1 0 0 1 163.256 766.078)">mal</text>
</g>
<g style="stroke:none;fill:#000000;text-rendering:optimizeGeometricPrecision;font-size:8;font-family:Helvetica,Arial;">
	<text transform="matrix(1 0 0 1 146.52 775.677)">ope</text>
</g>
<g style="stroke:none;fill:#000000;text-rendering:optimizeGeometricPrecision;font-size:8;font-family:Helvetica,Arial;">
	<text transform="matrix(1 0 0 1 159.864 775.677)">rat</text>
</g>
<g style="stroke:none;fill:#000000;text-rendering:optimizeGeometricPrecision;font-size:8;font-family:Helvetica,Arial;">
	<text transform="matrix(1 0 0 1 169.121 775.677)">ing</text>
</g>
<g style="stroke:none;fill:#000000;text-rendering:optimizeGeometricPrecision;font-size:8;font-family:Helvetica,Arial;">
	<text transform="matrix(1 0 0 1 152.968 785.277)">ran</text>
</g>
<g style="stroke:none;fill:#000000;text-rendering:optimizeGeometricPrecision;font-size:8;font-family:Helvetica,Arial;">
	<text transform="matrix(1 0 0 1 164.448 785.277)">ge</text>
</g>
</g>
</g>
</svg>