<?xml version="1.0" encoding="UTF-8"?><!-- Generator: Adobe Illustrator 16.0.3, SVG Export Plug-In . SVG Version: 6.00 Build 0)  --><!DOCTYPE svg PUBLIC "-//W3C//DTD SVG 1.1//EN" "http://www.w3.org/Graphics/SVG/1.1/DTD/svg11.dtd">
<svg xmlns="http://www.w3.org/2000/svg" xmlns:xlink="http://www.w3.org/1999/xlink" version="1.1" id="Layer_1" x="0px" y="0px" width="360.33px" height="188.427px" viewBox="0 0 360.33 188.427" enable-background="new 0 0 360.33 188.427" xml:space="preserve" preserveAspectRatio="xMidYMid meet" zoomAndPan="magnify" contentScriptType="application/ecmascript" contentStyleType="text/css">
<g id="Layer_2">
	<g>
		
			<rect x="12.999" y="63.255" fill="none" stroke="#29AAE1" stroke-width="2" stroke-miterlimit="10" width="61.109" height="61.107"/>
		<line fill="none" stroke="#F26724" stroke-width="2" stroke-miterlimit="10" x1="14.076" y1="72.017" x2="73.049" y2="72.017"/>
		<line fill="none" stroke="#FBB041" stroke-width="2" stroke-miterlimit="10" x1="14.076" y1="77.63" x2="73.049" y2="77.63"/>
	</g>
	<g>
		
			<rect x="127.165" y="24.068" fill="none" stroke="#29AAE1" stroke-width="2" stroke-miterlimit="10" width="61.108" height="61.108"/>
		<line fill="none" stroke="#F26724" stroke-width="2" stroke-miterlimit="10" x1="128.241" y1="32.829" x2="187.213" y2="32.829"/>
		<line fill="none" stroke="#FBB041" stroke-width="2" stroke-miterlimit="10" x1="128.241" y1="38.442" x2="187.213" y2="38.442"/>
	</g>
	<g>
		
			<rect x="292.539" y="24.068" fill="none" stroke="#2E3192" stroke-width="2" stroke-miterlimit="10" width="61.107" height="61.108"/>
		<line fill="none" stroke="#F26724" stroke-width="2" stroke-miterlimit="10" x1="293.615" y1="32.829" x2="352.588" y2="32.829"/>
		<line fill="none" stroke="#FBB041" stroke-width="2" stroke-miterlimit="10" x1="293.615" y1="38.442" x2="352.588" y2="38.442"/>
	</g>
	<g>
		
			<rect x="127.165" y="109.99" fill="none" stroke="#29AAE1" stroke-width="2" stroke-miterlimit="10" width="61.108" height="61.108"/>
		
			<line fill="none" stroke="#F26724" stroke-width="2" stroke-miterlimit="10" x1="128.241" y1="118.751" x2="187.213" y2="118.751"/>
		
			<line fill="none" stroke="#FBB041" stroke-width="2" stroke-miterlimit="10" x1="128.241" y1="124.363" x2="187.213" y2="124.363"/>
	</g>
</g>
<g id="Layer_3">
	<rect x="210.119" y="4.08" fill="none" width="60.879" height="17.614"/>
	<text transform="matrix(1 0 0 1 167.1201 9.584)" fill="#010101" font-family="'Helvetica'" font-size="7.6664">SnapMirror</text>
	<text transform="matrix(1 0 0 1 167.1201 18.7842)" fill="#010101" font-family="'Helvetica'" font-size="7.6664">source volume</text>
	<rect x="126.122" y="4.08" fill="none" width="64.163" height="17.614"/>
	<text transform="matrix(1 0 0 1 112.7412 9.584)" fill="#010101" font-family="'Helvetica'" font-size="7.6664">SnapMirror</text>
	<text transform="matrix(1 0 0 1 86.7368 18.7842)" fill="#010101" font-family="'Helvetica'" font-size="7.6664">destination volume</text>
	<rect x="11.48" y="44.329" fill="none" width="64.164" height="17.614"/>
	<text transform="matrix(1 0 0 1 11.4795 49.833)" fill="#010101" font-family="'Helvetica'" font-size="7.6664">SnapMirror</text>
	<text transform="matrix(1 0 0 1 11.4795 59.0332)" fill="#010101" font-family="'Helvetica'" font-size="7.6664">source volume</text>
	<rect x="128.135" y="57.745" fill="none" width="60.137" height="14.648"/>
	<text transform="matrix(1 0 0 1 141.7983 63.249)" fill="#010101" font-family="'Helvetica'" font-size="7.6664">16.27 MB</text>
	<rect x="13.484" y="98.898" fill="none" width="60.138" height="14.648"/>
	<text transform="matrix(1 0 0 1 27.1475 104.4033)" fill="#010101" font-family="'Helvetica'" font-size="7.6664">69.42 MB</text>
	<rect x="293.031" y="57.745" fill="none" width="60.139" height="14.648"/>
	<text transform="matrix(1 0 0 1 306.6963 63.249)" fill="#010101" font-family="'Helvetica'" font-size="7.6664">42.00 MB</text>
	<rect x="127.651" y="144.675" fill="none" width="60.138" height="14.648"/>
	<text transform="matrix(1 0 0 1 141.3135 150.1797)" fill="#010101" font-family="'Helvetica'" font-size="7.6664">24.22 MB</text>
	<rect x="291.021" y="4.08" fill="none" width="64.162" height="17.614"/>
	<text transform="matrix(1 0 0 1 291.0215 9.584)" fill="#010101" font-family="'Helvetica'" font-size="7.6664">SnapMirror</text>
	<text transform="matrix(1 0 0 1 291.0215 18.7842)" fill="#010101" font-family="'Helvetica'" font-size="7.6664">destination volume</text>
	<rect x="125.646" y="178.217" fill="none" width="67.45" height="17.613"/>
	<text transform="matrix(1 0 0 1 125.6455 183.7207)" fill="#010101" font-family="'Helvetica'" font-size="7.6664">cluster2_vol1</text>
	<rect x="125.646" y="90.092" fill="none" width="67.45" height="17.614"/>
	<text transform="matrix(1 0 0 1 125.6455 95.5977)" fill="#010101" font-family="'Helvetica'" font-size="7.6664">cluster2_vol3</text>
	<rect x="291.021" y="90.092" fill="none" width="67.449" height="17.614"/>
	<text transform="matrix(1 0 0 1 291.0215 95.5977)" fill="#010101" font-family="'Helvetica'" font-size="7.6664">cluster2_vol4</text>
	<rect x="13.114" y="131.671" fill="none" width="60.878" height="26.01"/>
	<text transform="matrix(1 0 0 1 13.1133 137.1758)" fill="#010101" font-family="'Helvetica'" font-size="7.6664">cluster1_src_vol1</text>
	<line fill="none" stroke="#939598" stroke-width="2" stroke-miterlimit="10" x1="76.082" y1="82.305" x2="125.182" y2="53.767"/>
	<line fill="none" stroke="#939598" stroke-width="2" stroke-miterlimit="10" x1="76.151" y1="86.662" x2="125.251" y2="58.124"/>
	<line fill="none" stroke="#939598" stroke-width="2" stroke-miterlimit="10" x1="76.289" y1="109.316" x2="125.113" y2="144.675"/>
	<line fill="none" stroke="#939598" stroke-width="2" stroke-miterlimit="10" x1="76.289" y1="104.403" x2="125.113" y2="139.763"/>
	<line fill="none" stroke="#F26522" stroke-width="2" stroke-miterlimit="10" x1="193.096" y1="53.767" x2="288.023" y2="53.767"/>
	<line fill="none" stroke="#F26522" stroke-width="2" stroke-miterlimit="10" x1="193.096" y1="49.833" x2="288.023" y2="49.833"/>
</g>
<rect x="205.816" y="59.228" fill="none" width="69.485" height="39.338"/>
<text transform="matrix(1 0 0 1 205.8164 64.6733)"><tspan x="0" y="0" fill="#ED1C24" font-family="'MyriadPro-Regular'" font-size="7.67">An error is indicated </tspan><tspan x="0" y="9.204" fill="#ED1C24" font-family="'MyriadPro-Regular'" font-size="7.67">for the relationship </tspan><tspan x="0" y="18.408" fill="#ED1C24" font-family="'MyriadPro-Regular'" font-size="7.67">between these two </tspan><tspan x="0" y="27.612" fill="#ED1C24" font-family="'MyriadPro-Regular'" font-size="7.67">volumes</tspan></text>
</svg>