<?xml version="1.0" encoding="UTF-8"?><!-- Generator: Adobe Illustrator 16.0.3, SVG Export Plug-In . SVG Version: 6.00 Build 0)  --><!DOCTYPE svg PUBLIC "-//W3C//DTD SVG 1.1//EN" "http://www.w3.org/Graphics/SVG/1.1/DTD/svg11.dtd">
<svg xmlns="http://www.w3.org/2000/svg" xmlns:xlink="http://www.w3.org/1999/xlink" version="1.1" id="Layer_1" x="0px" y="0px" width="359.833px" height="158.333px" viewBox="0 0 359.833 158.333" enable-background="new 0 0 359.833 158.333" xml:space="preserve" preserveAspectRatio="xMidYMid meet" zoomAndPan="magnify" contentScriptType="application/ecmascript" contentStyleType="text/css">
<line fill="none" stroke="#F26724" stroke-width="2" stroke-miterlimit="10" x1="144.548" y1="36.556" x2="203.522" y2="36.556"/>
<line fill="none" stroke="#FBB041" stroke-width="2" stroke-miterlimit="10" x1="144.548" y1="42.169" x2="203.522" y2="42.169"/>
<rect x="144.442" y="61.472" fill="none" width="60.138" height="14.646"/>
<path fill="none" stroke="#29AAE1" stroke-width="2" stroke-miterlimit="10" d="M5.16,68.599"/>
<line fill="none" stroke="#29AAE1" stroke-width="2" stroke-miterlimit="10" x1="5.16" y1="89.443" x2="5.16" y2="79.943"/>
<line fill="none" stroke="#F26724" stroke-width="2" stroke-miterlimit="10" x1="6.237" y1="36.556" x2="65.21" y2="36.556"/>
<line fill="none" stroke="#FBB041" stroke-width="2" stroke-miterlimit="10" x1="6.237" y1="42.169" x2="65.21" y2="42.169"/>
<line fill="none" stroke="#F26724" stroke-width="2" stroke-miterlimit="10" x1="280.171" y1="36.556" x2="339.144" y2="36.556"/>
<line fill="none" stroke="#FBB041" stroke-width="2" stroke-miterlimit="10" x1="280.171" y1="42.169" x2="339.144" y2="42.169"/>
<rect x="279.587" y="61.472" fill="none" width="60.139" height="14.646"/>
<line fill="none" stroke="#939598" stroke-width="3" stroke-miterlimit="10" x1="214.85" y1="54.765" x2="272.665" y2="54.765"/>
<line fill="none" stroke="#939598" stroke-width="3" stroke-miterlimit="10" x1="214.85" y1="61.933" x2="272.665" y2="61.933"/>
<line fill="none" stroke="#A7A9AC" stroke-width="2" stroke-miterlimit="10" x1="72.258" y1="54.765" x2="135.665" y2="54.765"/>
<line fill="none" stroke="#A7A9AC" stroke-width="2" stroke-miterlimit="10" x1="72.258" y1="61.933" x2="135.665" y2="61.933"/>
<rect x="5.16" y="7.795" fill="none" width="75.5" height="20"/>
<text transform="matrix(1 0 0 1 5.1602 13.5391)"><tspan x="0" y="0" fill="#010101" font-family="'Helvetica'" font-size="8">Destination</tspan><tspan x="0" y="9.6" fill="#010101" font-family="'Helvetica'" font-size="8">is now source</tspan></text>
<rect x="52.378" y="143.795" fill="none" width="103.167" height="20"/>
<text transform="matrix(1 0 0 1 52.3784 149.5391)" fill="#010101" font-family="'Helvetica'" font-size="8">New, reversed relationship</text>
<rect x="211.433" y="143.795" fill="none" width="103.167" height="20"/>
<text transform="matrix(1 0 0 1 211.4326 149.5391)" fill="#010101" font-family="'Helvetica'" font-size="8">Broken relationship</text>
<rect x="143.473" y="7.795" fill="none" width="75.5" height="20"/>
<text transform="matrix(1 0 0 1 143.4727 13.5391)"><tspan x="0" y="0" fill="#010101" font-family="'Helvetica'" font-size="8">Original</tspan><tspan x="0" y="9.6" fill="#010101" font-family="'Helvetica'" font-size="8">Source</tspan></text>
<rect x="279.095" y="7.795" fill="none" width="75.5" height="20"/>
<text transform="matrix(1 0 0 1 279.0942 13.5391)"><tspan x="0" y="0" fill="#010101" font-family="'Helvetica'" font-size="8">Former</tspan><tspan x="0" y="9.6" fill="#010101" font-family="'Helvetica'" font-size="8">Destination</tspan></text>
<rect x="5.16" y="102.128" fill="none" width="75.5" height="20"/>
<text transform="matrix(1 0 0 1 5.1602 107.8726)" fill="#010101" font-family="'Helvetica'" font-size="8">Demo13V4</text>
<rect x="143.473" y="102.128" fill="none" width="75.5" height="20"/>
<text transform="matrix(1 0 0 1 143.4727 107.8726)" fill="#010101" font-family="'Helvetica'" font-size="8">DR_Demo13V4_001</text>
<rect x="279.095" y="102.128" fill="none" width="75.5" height="20"/>
<text transform="matrix(1 0 0 1 279.0942 107.8726)" fill="#010101" font-family="'Helvetica'" font-size="8">Demo13V4</text>
<rect x="5.16" y="58.796" fill="none" width="60.938" height="8.99"/>
<text transform="matrix(1 0 0 1 16.9492 64.5396)" fill="#010101" font-family="'Helvetica'" font-size="8">132.00 KB</text>
<rect x="143.473" y="58.796" fill="none" width="61.165" height="20"/>
<text transform="matrix(1 0 0 1 155.375 64.5396)" fill="#010101" font-family="'Helvetica'" font-size="8">132.00 KB</text>
<rect x="279.095" y="58.662" fill="none" width="61.168" height="20"/>
<text transform="matrix(1 0 0 1 290.9985 64.4053)" fill="#010101" font-family="'Helvetica'" font-size="8">132.00 KB</text>
<g>
	<polyline fill="none" stroke="#939598" stroke-width="2" stroke-miterlimit="10" points="66.269,88.246 66.269,89.902 5.16,89.902    5.16,89.443  "/>
	<path fill="none" stroke="#939598" stroke-width="2" stroke-miterlimit="10" d="M66.269,88.246"/>
	<polyline fill="none" stroke="#939598" stroke-width="2" stroke-miterlimit="10" points="5.16,30.996 5.16,28.794 66.269,28.794    66.269,31.224  "/>
	<g>
		<polyline fill="none" stroke="#939598" stroke-width="2" stroke-miterlimit="10" points="5.16,68.599 5.16,53.871 7.145,53.058     7.134,49.365 5.16,48.642 5.16,30.996   "/>
		<polyline fill="none" stroke="#939598" stroke-width="2" stroke-miterlimit="10" points="5.16,89.902 5.16,74.63 7.145,73.818     7.134,70.125 5.16,69.401 5.16,62.662   "/>
	</g>
	<g>
		<polyline fill="none" stroke="#939598" stroke-width="2" stroke-miterlimit="10" points="66.269,68.14 66.269,53.412     64.285,52.599 64.295,48.906 66.269,48.183 66.269,30.537   "/>
		<polyline fill="none" stroke="#939598" stroke-width="2" stroke-miterlimit="10" points="66.269,89.443 66.269,74.171     64.285,73.359 64.295,69.666 66.269,68.942 66.269,62.203   "/>
	</g>
</g>
<g>
	<polyline fill="none" stroke="#A7A9AC" stroke-miterlimit="10" points="204.583,87.247 204.583,88.903 143.473,88.903    143.473,88.444  "/>
	<path fill="none" stroke="#A7A9AC" stroke-miterlimit="10" d="M204.583,87.247"/>
	<polyline fill="none" stroke="#A7A9AC" stroke-miterlimit="10" points="143.473,29.997 143.473,27.795 204.583,27.795    204.583,30.225  "/>
	<g>
		<polyline fill="none" stroke="#A7A9AC" stroke-miterlimit="10" points="143.473,67.6 143.473,52.871 145.458,52.058     145.447,48.366 143.473,47.642 143.473,29.997   "/>
		<polyline fill="none" stroke="#A7A9AC" stroke-miterlimit="10" points="143.473,88.903 143.473,73.63 145.458,72.818     145.447,69.125 143.473,68.402 143.473,61.663   "/>
	</g>
	<g>
		<polyline fill="none" stroke="#A7A9AC" stroke-miterlimit="10" points="204.583,67.141 204.583,52.412 202.598,51.599     202.608,47.907 204.583,47.183 204.583,29.538   "/>
		<polyline fill="none" stroke="#A7A9AC" stroke-miterlimit="10" points="204.583,88.444 204.583,73.171 202.598,72.359     202.608,68.666 204.583,67.943 204.583,61.204   "/>
	</g>
</g>
<g>
	<polyline fill="none" stroke="#939598" stroke-width="2" stroke-miterlimit="10" points="340.202,87.246 340.202,88.902    279.093,88.902 279.093,88.443  "/>
	<path fill="none" stroke="#939598" stroke-width="2" stroke-miterlimit="10" d="M340.202,87.246"/>
	<polyline fill="none" stroke="#939598" stroke-width="2" stroke-miterlimit="10" points="279.093,29.996 279.093,27.794    340.202,27.794 340.202,30.224  "/>
	<g>
		<polyline fill="none" stroke="#939598" stroke-width="2" stroke-miterlimit="10" points="279.093,67.599 279.093,52.871     281.077,52.058 281.067,48.365 279.093,47.642 279.093,29.996   "/>
		<polyline fill="none" stroke="#939598" stroke-width="2" stroke-miterlimit="10" points="279.093,88.902 279.093,73.63     281.077,72.818 281.067,69.125 279.093,68.401 279.093,61.662   "/>
	</g>
	<g>
		<polyline fill="none" stroke="#939598" stroke-width="2" stroke-miterlimit="10" points="340.202,67.14 340.202,52.412     338.218,51.599 338.229,47.906 340.202,47.183 340.202,29.537   "/>
		<polyline fill="none" stroke="#939598" stroke-width="2" stroke-miterlimit="10" points="340.202,88.443 340.202,73.171     338.218,72.359 338.229,68.666 340.202,67.942 340.202,61.203   "/>
	</g>
</g>
<g>
	<path fill="#FFFFFF" stroke="#29AAE1" stroke-miterlimit="10" d="M82.729,96.076c0,0.729-0.59,1.318-1.317,1.318H50.784   c-0.728,0-1.317-0.59-1.317-1.318V83.727c0-0.728,0.59-1.317,1.317-1.317h30.627c0.728,0,1.317,0.59,1.317,1.317V96.076z"/>
	
		<rect x="56.294" y="85.117" fill="#1C75BC" stroke="#939598" stroke-width="0.5" stroke-miterlimit="10" width="7.095" height="7.995"/>
	
		<rect x="54.387" y="86.692" fill="#27AAE1" stroke="#939598" stroke-width="0.5" stroke-miterlimit="10" width="7.095" height="7.995"/>
	<rect x="65.277" y="86.692" fill="none" width="15.348" height="8.99"/>
	<text transform="matrix(1 0 0 1 68.5024 92.4365)" fill="#010101" font-family="'Helvetica'" font-size="8">16</text>
</g>
<g>
	<path fill="#FFFFFF" stroke="#29AAE1" stroke-miterlimit="10" d="M221.211,94.618c0,0.729-0.59,1.318-1.317,1.318h-30.627   c-0.728,0-1.317-0.59-1.317-1.318V82.269c0-0.728,0.59-1.317,1.317-1.317h30.627c0.728,0,1.317,0.59,1.317,1.317V94.618z"/>
	
		<rect x="194.776" y="83.659" fill="#1C75BC" stroke="#939598" stroke-width="0.5" stroke-miterlimit="10" width="7.095" height="7.995"/>
	
		<rect x="192.869" y="85.234" fill="#27AAE1" stroke="#939598" stroke-width="0.5" stroke-miterlimit="10" width="7.095" height="7.995"/>
	<rect x="203.759" y="85.234" fill="none" width="15.348" height="8.99"/>
	<text transform="matrix(1 0 0 1 206.9844 90.9785)" fill="#010101" font-family="'Helvetica'" font-size="8">16</text>
</g>
<g>
	<path fill="#FFFFFF" stroke="#29AAE1" stroke-miterlimit="10" d="M356.833,95.406c0,0.729-0.59,1.318-1.317,1.318h-30.627   c-0.728,0-1.317-0.59-1.317-1.318V83.057c0-0.728,0.59-1.317,1.317-1.317h30.627c0.728,0,1.317,0.59,1.317,1.317V95.406z"/>
	
		<rect x="330.399" y="84.447" fill="#1C75BC" stroke="#939598" stroke-width="0.5" stroke-miterlimit="10" width="7.095" height="7.995"/>
	
		<rect x="328.491" y="86.022" fill="#27AAE1" stroke="#939598" stroke-width="0.5" stroke-miterlimit="10" width="7.095" height="7.995"/>
	<rect x="339.381" y="86.022" fill="none" width="15.348" height="8.99"/>
	<text transform="matrix(1 0 0 1 342.6069 91.7666)" fill="#010101" font-family="'Helvetica'" font-size="8">16</text>
</g>
<g>
	<polygon fill="#6D6E71" points="99.661,85.585 102.532,78.796 105.404,85.585 103.281,85.628 103.288,136.146 101.761,136.146    101.761,85.587  "/>
</g>
<g>
	<polygon fill="#6D6E71" points="240.886,86.731 243.757,79.943 246.629,86.731 244.506,86.775 244.513,137.292 242.986,137.292    242.986,86.733  "/>
</g>
</svg>