<?xml version="1.0" encoding="UTF-8" standalone="no"?>
<!-- Generator: Adobe Illustrator 16.0.3, SVG Export Plug-In . SVG Version: 6.00 Build 0)  -->

<svg
   version="1.1"
   id="Layer_1"
   x="0px"
   y="0px"
   width="299.334px"
   height="205px"
   viewBox="0 0 299.334 205"
   enable-background="new 0 0 299.334 205"
   xml:space="preserve"
   preserveAspectRatio="xMidYMid meet"
   zoomAndPan="magnify"
   contentScriptType="application/ecmascript"
   contentStyleType="text/css"
   sodipodi:docname="unmirrored-aggregate-with-array-luns.svg"
   inkscape:version="1.1.2 (b8e25be833, 2022-02-05)"
   inkscape:export-filename="C:\Users\thom\git_workspace\ontap-internal\media\unmirrored-aggregate-with-array-luns.png"
   inkscape:export-xdpi="96"
   inkscape:export-ydpi="96"
   xmlns:inkscape="http://www.inkscape.org/namespaces/inkscape"
   xmlns:sodipodi="http://sodipodi.sourceforge.net/DTD/sodipodi-0.dtd"
   xmlns="http://www.w3.org/2000/svg"
   xmlns:svg="http://www.w3.org/2000/svg"><defs
   id="defs84" /><sodipodi:namedview
   id="namedview82"
   pagecolor="#ffffff"
   bordercolor="#666666"
   borderopacity="1.0"
   inkscape:pageshadow="2"
   inkscape:pageopacity="0.0"
   inkscape:pagecheckerboard="0"
   showgrid="false"
   inkscape:zoom="6.2829268"
   inkscape:cx="149.69138"
   inkscape:cy="89.767081"
   inkscape:window-width="2880"
   inkscape:window-height="1526"
   inkscape:window-x="2869"
   inkscape:window-y="-11"
   inkscape:window-maximized="1"
   inkscape:current-layer="Layer_1" />
<rect
   x="6.235"
   y="5.965"
   fill="#BCBEC0"
   stroke="#000000"
   stroke-width="0.55"
   width="288.889"
   height="125.641"
   id="rect9" />
<text
   font-family="Helvetica"
   font-size="9px"
   id="text11"
   x="110.759"
   y="22.364185">Local tier (aggregate)</text>
<path
   fill="#FFFFFF"
   stroke="#000000"
   stroke-width="0.55"
   d="M270.826,110.104c0,5.965-4.836,10.801-10.8,10.801H41.264  c-5.964,0-10.799-4.836-10.799-10.801V42.799C30.465,36.835,35.3,32,41.264,32h218.763c5.964,0,10.8,4.835,10.8,10.799V110.104z"
   id="path13" />
<path
   fill="none"
   stroke="#A7A9AC"
   stroke-width="2"
   stroke-dasharray="6"
   d="M208.446,87.792c0,4.07-4.834,7.37-10.799,7.37  h-71.491c-5.964,0-10.8-3.3-10.8-7.37V65.294c0-4.069,4.836-7.369,10.8-7.369h71.491c5.965,0,10.799,3.299,10.799,7.369V87.792z"
   id="path15" />
<text
   transform="matrix(1 0 0 1 136.7065 52.2954)"
   font-family="'Helvetica'"
   font-size="9"
   id="text17">Plex0 (pool0)</text>
<g
   id="g35">
	<circle
   fill="#999999"
   stroke="#000000"
   stroke-width="0.5"
   cx="148.119"
   cy="70.137"
   r="3.775"
   id="circle19" />
	<circle
   fill="#999999"
   stroke="#000000"
   stroke-width="0.5"
   cx="156.929"
   cy="70.137"
   r="3.775"
   id="circle21" />
	<circle
   fill="#999999"
   stroke="#000000"
   stroke-width="0.5"
   cx="165.738"
   cy="70.137"
   r="3.774"
   id="circle23" />
	<circle
   fill="#999999"
   stroke="#000000"
   stroke-width="0.5"
   cx="174.548"
   cy="70.137"
   r="3.775"
   id="circle25" />
	<circle
   fill="#999999"
   stroke="#000000"
   stroke-width="0.5"
   cx="148.119"
   cy="80.625"
   r="3.775"
   id="circle27" />
	<circle
   fill="#999999"
   stroke="#000000"
   stroke-width="0.5"
   cx="156.929"
   cy="80.625"
   r="3.775"
   id="circle29" />
	<circle
   fill="#999999"
   stroke="#000000"
   stroke-width="0.5"
   cx="165.738"
   cy="80.625"
   r="3.774"
   id="circle31" />
	<circle
   fill="#999999"
   stroke="#000000"
   stroke-width="0.5"
   cx="174.548"
   cy="80.625"
   r="3.775"
   id="circle33" />
</g>
<g
   id="g41">
	
		<line
   fill="none"
   stroke="#FFFFFF"
   stroke-width="3"
   stroke-linecap="round"
   stroke-linejoin="round"
   x1="99.075"
   y1="70.064"
   x2="134.921"
   y2="70.064"
   id="line37" />
	
		<line
   fill="none"
   stroke="#000000"
   stroke-width="0.5"
   stroke-linecap="round"
   stroke-linejoin="round"
   x1="99.075"
   y1="70.064"
   x2="134.921"
   y2="70.064"
   id="line39" />
</g>
<g
   id="g47">
	
		<line
   fill="none"
   stroke="#FFFFFF"
   stroke-width="3"
   stroke-linecap="round"
   stroke-linejoin="round"
   x1="99.075"
   y1="81.064"
   x2="134.921"
   y2="81.064"
   id="line43" />
	
		<line
   fill="none"
   stroke="#000000"
   stroke-width="0.5"
   stroke-linecap="round"
   stroke-linejoin="round"
   x1="99.075"
   y1="81.064"
   x2="134.921"
   y2="81.064"
   id="line45" />
</g>
<rect
   x="77.646"
   y="66.452"
   fill="none"
   width="16.667"
   height="10.666"
   id="rect49" />
<text
   transform="matrix(1 0 0 1 77.646 72.9141)"
   font-family="'Helvetica'"
   font-size="9"
   id="text51">rg0</text>
<rect
   x="77.646"
   y="78.119"
   fill="none"
   width="17.667"
   height="11"
   id="rect53" />
<text
   transform="matrix(1 0 0 1 77.6455 84.5811)"
   font-family="'Helvetica'"
   font-size="9"
   id="text55">rg1</text>
<circle
   fill="#999999"
   stroke="#000000"
   stroke-width="0.5"
   cx="53.652"
   cy="165.962"
   r="3.774"
   id="circle57" />
<circle
   fill="#999999"
   stroke="#000000"
   stroke-width="0.5"
   cx="53.663"
   cy="179.226"
   r="3.774"
   id="circle59" />
<circle
   fill="#999999"
   stroke="#000000"
   stroke-width="0.5"
   cx="44.163"
   cy="179.226"
   r="3.774"
   id="circle61" />
<circle
   fill="#999999"
   stroke="#000000"
   stroke-width="0.5"
   cx="34.512"
   cy="179.226"
   r="3.774"
   id="circle63" />
<circle
   fill="#999999"
   stroke="#000000"
   stroke-width="0.5"
   cx="25.012"
   cy="179.226"
   r="3.774"
   id="circle65" />
<rect
   x="6.207"
   y="141.962"
   fill="none"
   stroke="#000000"
   stroke-width="0.5499"
   width="172.439"
   height="57.157"
   id="rect67" />
<text
   transform="matrix(1 0 0 1 9.5078 152.4902)"
   font-family="'Helvetica'"
   font-size="9"
   id="text69">Legend</text>
<polyline
   fill="none"
   stroke="#000000"
   stroke-width="0.5499"
   points="5.812,159.226 44.812,159.226 44.812,142.226 "
   id="polyline71" />
<rect
   x="63.979"
   y="162.785"
   fill="none"
   width="110"
   height="8"
   id="rect73" />
<text
   transform="translate(63.979,169.2471)"
   font-family="Helvetica"
   font-size="9px"
   id="text75">Array LUN in the local tier </text>
<rect
   x="63.979"
   y="177.452"
   fill="none"
   width="107.667"
   height="10.667"
   id="rect77" />
<text
   transform="translate(63.979,183.9141)"
   font-family="Helvetica"
   font-size="9px"
   id="text79">ONTAP RAID group</text>
</svg>
