<?xml version="1.0" encoding="UTF-8"?><!-- Generator: Adobe Illustrator 16.0.3, SVG Export Plug-In . SVG Version: 6.00 Build 0)  --><!DOCTYPE svg PUBLIC "-//W3C//DTD SVG 1.1//EN" "http://www.w3.org/Graphics/SVG/1.1/DTD/svg11.dtd">
<svg xmlns="http://www.w3.org/2000/svg" xmlns:xlink="http://www.w3.org/1999/xlink" version="1.1" id="Layer_1" x="0px" y="0px" width="299.334px" height="205px" viewBox="0 0 299.334 205" enable-background="new 0 0 299.334 205" xml:space="preserve" preserveAspectRatio="xMidYMid meet" zoomAndPan="magnify" contentScriptType="application/ecmascript" contentStyleType="text/css">
<rect x="6.235" y="5.965" fill="#BCBEC0" stroke="#000000" stroke-width="0.55" width="288.889" height="125.641"/>
<text transform="matrix(1 0 0 1 129.3809 21.8867)" font-family="'Helvetica'" font-size="9">Aggregate</text>
<path fill="#FFFFFF" stroke="#000000" stroke-width="0.55" d="M270.826,110.104c0,5.965-4.836,10.801-10.8,10.801H41.264  c-5.964,0-10.799-4.836-10.799-10.801V42.799C30.465,36.835,35.3,32,41.264,32h218.763c5.964,0,10.8,4.835,10.8,10.799V110.104z"/>
<path fill="none" stroke="#A7A9AC" stroke-width="2" stroke-dasharray="6" d="M208.446,87.792c0,4.07-4.834,7.37-10.799,7.37  h-71.491c-5.964,0-10.8-3.3-10.8-7.37V65.294c0-4.069,4.836-7.369,10.8-7.369h71.491c5.965,0,10.799,3.299,10.799,7.369V87.792z"/>
<text transform="matrix(1 0 0 1 136.7065 52.2954)" font-family="'Helvetica'" font-size="9">Plex0 (pool0)</text>
<g>
	<circle fill="#999999" stroke="#000000" stroke-width="0.5" cx="148.119" cy="70.137" r="3.775"/>
	<circle fill="#999999" stroke="#000000" stroke-width="0.5" cx="156.929" cy="70.137" r="3.775"/>
	<circle fill="#999999" stroke="#000000" stroke-width="0.5" cx="165.738" cy="70.137" r="3.774"/>
	<circle fill="#999999" stroke="#000000" stroke-width="0.5" cx="174.548" cy="70.137" r="3.775"/>
	<circle fill="#999999" stroke="#000000" stroke-width="0.5" cx="148.119" cy="80.625" r="3.775"/>
	<circle fill="#999999" stroke="#000000" stroke-width="0.5" cx="156.929" cy="80.625" r="3.775"/>
	<circle fill="#999999" stroke="#000000" stroke-width="0.5" cx="165.738" cy="80.625" r="3.774"/>
	<circle fill="#999999" stroke="#000000" stroke-width="0.5" cx="174.548" cy="80.625" r="3.775"/>
</g>
<g>
	
		<line fill="none" stroke="#FFFFFF" stroke-width="3" stroke-linecap="round" stroke-linejoin="round" x1="99.075" y1="70.064" x2="134.921" y2="70.064"/>
	
		<line fill="none" stroke="#000000" stroke-width="0.5" stroke-linecap="round" stroke-linejoin="round" x1="99.075" y1="70.064" x2="134.921" y2="70.064"/>
</g>
<g>
	
		<line fill="none" stroke="#FFFFFF" stroke-width="3" stroke-linecap="round" stroke-linejoin="round" x1="99.075" y1="81.064" x2="134.921" y2="81.064"/>
	
		<line fill="none" stroke="#000000" stroke-width="0.5" stroke-linecap="round" stroke-linejoin="round" x1="99.075" y1="81.064" x2="134.921" y2="81.064"/>
</g>
<rect x="77.646" y="66.452" fill="none" width="16.667" height="10.666"/>
<text transform="matrix(1 0 0 1 77.646 72.9141)" font-family="'Helvetica'" font-size="9">rg0</text>
<rect x="77.646" y="78.119" fill="none" width="17.667" height="11"/>
<text transform="matrix(1 0 0 1 77.6455 84.5811)" font-family="'Helvetica'" font-size="9">rg1</text>
<circle fill="#999999" stroke="#000000" stroke-width="0.5" cx="53.652" cy="165.962" r="3.774"/>
<circle fill="#999999" stroke="#000000" stroke-width="0.5" cx="53.663" cy="179.226" r="3.774"/>
<circle fill="#999999" stroke="#000000" stroke-width="0.5" cx="44.163" cy="179.226" r="3.774"/>
<circle fill="#999999" stroke="#000000" stroke-width="0.5" cx="34.512" cy="179.226" r="3.774"/>
<circle fill="#999999" stroke="#000000" stroke-width="0.5" cx="25.012" cy="179.226" r="3.774"/>
<rect x="6.207" y="141.962" fill="none" stroke="#000000" stroke-width="0.5499" width="172.439" height="57.157"/>
<text transform="matrix(1 0 0 1 9.5078 152.4902)" font-family="'Helvetica'" font-size="9">Legend</text>
<polyline fill="none" stroke="#000000" stroke-width="0.5499" points="5.812,159.226 44.812,159.226 44.812,142.226 "/>
<rect x="63.979" y="162.785" fill="none" width="110" height="8"/>
<text transform="matrix(1 0 0 1 63.979 169.2471)" font-family="'Helvetica'" font-size="9">array LUN in the aggregate </text>
<rect x="63.979" y="177.452" fill="none" width="107.667" height="10.667"/>
<text transform="matrix(1 0 0 1 63.979 183.9141)" font-family="'Helvetica'" font-size="9">Data ONTAP RAID group</text>
</svg>