<?xml version="1.0" encoding="UTF-8"?><!-- Generator: Adobe Illustrator 16.0.3, SVG Export Plug-In . SVG Version: 6.00 Build 0)  --><!DOCTYPE svg PUBLIC "-//W3C//DTD SVG 1.1//EN" "http://www.w3.org/Graphics/SVG/1.1/DTD/svg11.dtd">
<svg xmlns="http://www.w3.org/2000/svg" xmlns:xlink="http://www.w3.org/1999/xlink" version="1.1" baseProfile="basic" x="0px" y="0px" width="358px" height="236px" viewBox="0 0 358 236" xml:space="preserve" preserveAspectRatio="xMidYMid meet" zoomAndPan="magnify" contentScriptType="application/ecmascript" contentStyleType="text/css">
<g id="Layer_1">
	<g>
		<polyline fill="#8C8C8C" points="247.508,34.49 211.493,34.49 211.493,24.787 247.508,24.787 247.508,34.49   "/>
		<path fill="#FFFFFF" d="M219.947,25.644c-5.713,0.268-5.713,0.396-5.713,0.78v6.428c0,0.383,0,0.513,5.713,0.781    c3.332,0.156,6.99,0.252,9.552,0.252c2.563,0,6.223-0.096,9.555-0.252c5.714-0.268,5.714-0.397,5.714-0.781v-6.428    c0-0.383,0-0.512-5.714-0.78c-3.332-0.157-6.992-0.252-9.555-0.252C226.937,25.392,223.277,25.487,219.947,25.644"/>
		<path fill="#231F20" d="M216.375,32.494c0,0.227-0.143,0.411-0.321,0.411h-0.451c-0.373,0-0.642-1.637-0.642-3.278    c0-1.643,0.269-3.28,0.642-3.28h0.451c0.179,0,0.321,0.185,0.321,0.411V32.494"/>
		<path fill="#231F20" d="M217.651,29.628c0-1.688,0.272-3.378,0.652-3.378h0.458c0.18,0,0.326,0.191,0.326,0.424v5.907    c0,0.233-0.146,0.424-0.326,0.424h-0.458C217.923,33.005,217.651,31.318,217.651,29.628"/>
		<path fill="#231F20" d="M220.34,29.631c0-1.738,0.278-3.476,0.662-3.476h0.466c0.184,0,0.332,0.196,0.332,0.436v6.077    c0,0.242-0.148,0.437-0.332,0.437h-0.466C220.619,33.105,220.34,31.37,220.34,29.631"/>
		<path fill="#231F20" d="M242.626,32.494c0,0.227,0.144,0.411,0.32,0.411h0.452c0.372,0,0.642-1.637,0.642-3.278    c0-1.643-0.27-3.28-0.642-3.28h-0.452c-0.177,0-0.32,0.185-0.32,0.411V32.494"/>
		<path fill="#231F20" d="M241.351,29.628c0-1.688-0.273-3.378-0.651-3.378h-0.46c-0.181,0-0.326,0.191-0.326,0.424v5.907    c0,0.233,0.146,0.424,0.326,0.424h0.46C241.078,33.005,241.351,31.318,241.351,29.628"/>
		<path fill="#231F20" d="M238.661,29.631c0-1.738-0.277-3.476-0.66-3.476h-0.468c-0.182,0-0.33,0.196-0.33,0.436v6.077    c0,0.242,0.148,0.437,0.33,0.437H238C238.383,33.105,238.661,31.37,238.661,29.631"/>
		<path fill="#231F20" d="M223.03,29.633c0-1.787,0.282-3.572,0.673-3.572h0.473c0.187,0,0.337,0.201,0.337,0.449v6.249    c0,0.247-0.15,0.448-0.337,0.448h-0.473C223.312,33.206,223.03,31.422,223.03,29.633"/>
		<path fill="#231F20" d="M227.225,32.846c0,0.254-0.153,0.46-0.343,0.46h-0.48c-0.396,0-0.682-1.833-0.682-3.67    s0.286-3.669,0.682-3.669h0.48c0.189,0,0.343,0.207,0.343,0.46V32.846"/>
		<path fill="#231F20" d="M236.196,32.58c0,0.402-0.256,0.727-0.571,0.727h-6.882c-0.316,0-0.571-0.325-0.571-0.727v-3.211    c0-0.401,0.255-0.727,0.571-0.727h6.882c0.315,0,0.571,0.326,0.571,0.727V32.58"/>
		<path fill="#A6A8AB" d="M235.392,32.726c0,0.321-0.204,0.581-0.457,0.581h-5.505c-0.253,0-0.457-0.259-0.457-0.581v-2.568    c0-0.321,0.204-0.583,0.457-0.583h5.505c0.253,0,0.457,0.262,0.457,0.583V32.726"/>
		<path fill="#231F20" d="M234.75,32.505c0,0.205-0.163,0.372-0.366,0.372h-4.403c-0.202,0-0.366-0.167-0.366-0.372v-1.644    c0-0.207,0.164-0.373,0.366-0.373h4.403c0.203,0,0.366,0.167,0.366,0.373V32.505"/>
		<path fill="#231F20" d="M231.412,33.306c0,0.101-0.072,0.184-0.16,0.184h-0.51c-0.09,0-0.161-0.083-0.161-0.184    s0.071-0.184,0.161-0.184h0.51C231.339,33.122,231.412,33.205,231.412,33.306"/>
		<path fill="#231F20" d="M232.598,33.306c0,0.101-0.072,0.184-0.16,0.184h-0.51c-0.089,0-0.159-0.083-0.159-0.184    s0.07-0.184,0.159-0.184h0.51C232.526,33.122,232.598,33.205,232.598,33.306"/>
		<path fill="#231F20" d="M233.786,33.306c0,0.101-0.072,0.184-0.161,0.184h-0.511c-0.088,0-0.159-0.083-0.159-0.184    s0.071-0.184,0.159-0.184h0.511C233.713,33.122,233.786,33.205,233.786,33.306"/>
		<polygon fill="#666666" stroke="#000000" stroke-width="0.5" stroke-linecap="round" stroke-linejoin="round" points="    211.493,24.787 211.493,34.49 209.561,33.438 209.561,25.961   "/>
		<path fill="#666666" stroke="#000000" stroke-width="0.5" stroke-linecap="round" stroke-linejoin="round" d="M211.493,24.787"/>
		<path fill="none" stroke="#000000" stroke-width="0.5" stroke-linecap="round" stroke-linejoin="round" d="M211.493,24.787"/>
		<path fill="none" stroke="#000000" stroke-width="0.5" stroke-linecap="round" stroke-linejoin="round" d="M211.493,24.787"/>
		
			<rect x="211.593" y="24.641" fill="none" stroke="#000000" stroke-width="0.5" stroke-linecap="round" stroke-linejoin="round" width="35.94" height="9.969"/>
	</g>
	<g>
		<polyline fill="#8C8C8C" points="203.008,34.49 166.993,34.49 166.993,24.787 203.008,24.787 203.008,34.49   "/>
		<path fill="#FFFFFF" d="M175.447,25.644c-5.713,0.268-5.713,0.396-5.713,0.78v6.428c0,0.383,0,0.513,5.713,0.781    c3.332,0.156,6.99,0.252,9.552,0.252c2.563,0,6.223-0.096,9.555-0.252c5.714-0.268,5.714-0.397,5.714-0.781v-6.428    c0-0.383,0-0.512-5.714-0.78c-3.332-0.157-6.992-0.252-9.555-0.252C182.437,25.392,178.777,25.487,175.447,25.644"/>
		<path fill="#231F20" d="M171.875,32.494c0,0.227-0.143,0.411-0.321,0.411h-0.451c-0.373,0-0.642-1.637-0.642-3.278    c0-1.643,0.269-3.28,0.642-3.28h0.451c0.179,0,0.321,0.185,0.321,0.411V32.494"/>
		<path fill="#231F20" d="M173.151,29.628c0-1.688,0.272-3.378,0.652-3.378h0.458c0.18,0,0.326,0.191,0.326,0.424v5.907    c0,0.233-0.146,0.424-0.326,0.424h-0.458C173.423,33.005,173.151,31.318,173.151,29.628"/>
		<path fill="#231F20" d="M175.84,29.631c0-1.738,0.278-3.476,0.662-3.476h0.466c0.184,0,0.332,0.196,0.332,0.436v6.077    c0,0.242-0.148,0.437-0.332,0.437h-0.466C176.119,33.105,175.84,31.37,175.84,29.631"/>
		<path fill="#231F20" d="M198.126,32.494c0,0.227,0.144,0.411,0.32,0.411h0.452c0.372,0,0.642-1.637,0.642-3.278    c0-1.643-0.27-3.28-0.642-3.28h-0.452c-0.177,0-0.32,0.185-0.32,0.411V32.494"/>
		<path fill="#231F20" d="M196.851,29.628c0-1.688-0.273-3.378-0.651-3.378h-0.46c-0.181,0-0.326,0.191-0.326,0.424v5.907    c0,0.233,0.146,0.424,0.326,0.424h0.46C196.578,33.005,196.851,31.318,196.851,29.628"/>
		<path fill="#231F20" d="M194.161,29.631c0-1.738-0.277-3.476-0.66-3.476h-0.468c-0.182,0-0.33,0.196-0.33,0.436v6.077    c0,0.242,0.148,0.437,0.33,0.437h0.468C193.883,33.105,194.161,31.37,194.161,29.631"/>
		<path fill="#231F20" d="M178.53,29.633c0-1.787,0.282-3.572,0.673-3.572h0.473c0.187,0,0.337,0.201,0.337,0.449v6.249    c0,0.247-0.15,0.448-0.337,0.448h-0.473C178.812,33.206,178.53,31.422,178.53,29.633"/>
		<path fill="#231F20" d="M182.725,32.846c0,0.254-0.153,0.46-0.343,0.46h-0.48c-0.396,0-0.682-1.833-0.682-3.67    s0.286-3.669,0.682-3.669h0.48c0.189,0,0.343,0.207,0.343,0.46V32.846"/>
		<path fill="#231F20" d="M191.696,32.58c0,0.402-0.256,0.727-0.571,0.727h-6.882c-0.316,0-0.571-0.325-0.571-0.727v-3.211    c0-0.401,0.255-0.727,0.571-0.727h6.882c0.315,0,0.571,0.326,0.571,0.727V32.58"/>
		<path fill="#A6A8AB" d="M190.892,32.726c0,0.321-0.204,0.581-0.457,0.581h-5.505c-0.253,0-0.457-0.259-0.457-0.581v-2.568    c0-0.321,0.204-0.583,0.457-0.583h5.505c0.253,0,0.457,0.262,0.457,0.583V32.726"/>
		<path fill="#231F20" d="M190.25,32.505c0,0.205-0.163,0.372-0.366,0.372h-4.403c-0.202,0-0.366-0.167-0.366-0.372v-1.644    c0-0.207,0.164-0.373,0.366-0.373h4.403c0.203,0,0.366,0.167,0.366,0.373V32.505"/>
		<path fill="#231F20" d="M186.912,33.306c0,0.101-0.072,0.184-0.16,0.184h-0.51c-0.09,0-0.161-0.083-0.161-0.184    s0.071-0.184,0.161-0.184h0.51C186.839,33.122,186.912,33.205,186.912,33.306"/>
		<path fill="#231F20" d="M188.098,33.306c0,0.101-0.072,0.184-0.16,0.184h-0.51c-0.089,0-0.159-0.083-0.159-0.184    s0.07-0.184,0.159-0.184h0.51C188.026,33.122,188.098,33.205,188.098,33.306"/>
		<path fill="#231F20" d="M189.286,33.306c0,0.101-0.072,0.184-0.161,0.184h-0.511c-0.088,0-0.159-0.083-0.159-0.184    s0.071-0.184,0.159-0.184h0.511C189.213,33.122,189.286,33.205,189.286,33.306"/>
		<polygon fill="#666666" stroke="#000000" stroke-width="0.5" stroke-linecap="round" stroke-linejoin="round" points="    166.993,24.787 166.993,34.49 165.061,33.438 165.061,25.961   "/>
		<path fill="#666666" stroke="#000000" stroke-width="0.5" stroke-linecap="round" stroke-linejoin="round" d="M166.993,24.787"/>
		<path fill="none" stroke="#000000" stroke-width="0.5" stroke-linecap="round" stroke-linejoin="round" d="M166.993,24.787"/>
		<path fill="none" stroke="#000000" stroke-width="0.5" stroke-linecap="round" stroke-linejoin="round" d="M166.993,24.787"/>
		
			<rect x="167.093" y="24.641" fill="none" stroke="#000000" stroke-width="0.5" stroke-linecap="round" stroke-linejoin="round" width="35.94" height="9.969"/>
	</g>
	<g>
		<polyline fill="#8C8C8C" points="158.508,34.49 122.493,34.49 122.493,24.787 158.508,24.787 158.508,34.49   "/>
		<path fill="#FFFFFF" d="M130.947,25.644c-5.713,0.268-5.713,0.396-5.713,0.78v6.428c0,0.383,0,0.513,5.713,0.781    c3.332,0.156,6.99,0.252,9.552,0.252c2.563,0,6.223-0.096,9.555-0.252c5.714-0.268,5.714-0.397,5.714-0.781v-6.428    c0-0.383,0-0.512-5.714-0.78c-3.332-0.157-6.992-0.252-9.555-0.252C137.937,25.392,134.277,25.487,130.947,25.644"/>
		<path fill="#231F20" d="M127.375,32.494c0,0.227-0.143,0.411-0.321,0.411h-0.451c-0.373,0-0.642-1.637-0.642-3.278    c0-1.643,0.269-3.28,0.642-3.28h0.451c0.179,0,0.321,0.185,0.321,0.411V32.494"/>
		<path fill="#231F20" d="M128.651,29.628c0-1.688,0.272-3.378,0.652-3.378h0.458c0.18,0,0.326,0.191,0.326,0.424v5.907    c0,0.233-0.146,0.424-0.326,0.424h-0.458C128.923,33.005,128.651,31.318,128.651,29.628"/>
		<path fill="#231F20" d="M131.34,29.631c0-1.738,0.278-3.476,0.662-3.476h0.466c0.184,0,0.332,0.196,0.332,0.436v6.077    c0,0.242-0.148,0.437-0.332,0.437h-0.466C131.619,33.105,131.34,31.37,131.34,29.631"/>
		<path fill="#231F20" d="M153.626,32.494c0,0.227,0.144,0.411,0.32,0.411h0.452c0.372,0,0.642-1.637,0.642-3.278    c0-1.643-0.27-3.28-0.642-3.28h-0.452c-0.177,0-0.32,0.185-0.32,0.411V32.494"/>
		<path fill="#231F20" d="M152.351,29.628c0-1.688-0.273-3.378-0.651-3.378h-0.46c-0.181,0-0.326,0.191-0.326,0.424v5.907    c0,0.233,0.146,0.424,0.326,0.424h0.46C152.078,33.005,152.351,31.318,152.351,29.628"/>
		<path fill="#231F20" d="M149.661,29.631c0-1.738-0.277-3.476-0.66-3.476h-0.468c-0.182,0-0.33,0.196-0.33,0.436v6.077    c0,0.242,0.148,0.437,0.33,0.437H149C149.383,33.105,149.661,31.37,149.661,29.631"/>
		<path fill="#231F20" d="M134.03,29.633c0-1.787,0.282-3.572,0.673-3.572h0.473c0.187,0,0.337,0.201,0.337,0.449v6.249    c0,0.247-0.15,0.448-0.337,0.448h-0.473C134.312,33.206,134.03,31.422,134.03,29.633"/>
		<path fill="#231F20" d="M138.225,32.846c0,0.254-0.153,0.46-0.343,0.46h-0.48c-0.396,0-0.682-1.833-0.682-3.67    s0.286-3.669,0.682-3.669h0.48c0.189,0,0.343,0.207,0.343,0.46V32.846"/>
		<path fill="#231F20" d="M147.196,32.58c0,0.402-0.256,0.727-0.571,0.727h-6.882c-0.316,0-0.571-0.325-0.571-0.727v-3.211    c0-0.401,0.255-0.727,0.571-0.727h6.882c0.315,0,0.571,0.326,0.571,0.727V32.58"/>
		<path fill="#A6A8AB" d="M146.392,32.726c0,0.321-0.204,0.581-0.457,0.581h-5.505c-0.253,0-0.457-0.259-0.457-0.581v-2.568    c0-0.321,0.204-0.583,0.457-0.583h5.505c0.253,0,0.457,0.262,0.457,0.583V32.726"/>
		<path fill="#231F20" d="M145.75,32.505c0,0.205-0.163,0.372-0.366,0.372h-4.403c-0.202,0-0.366-0.167-0.366-0.372v-1.644    c0-0.207,0.164-0.373,0.366-0.373h4.403c0.203,0,0.366,0.167,0.366,0.373V32.505"/>
		<path fill="#231F20" d="M142.412,33.306c0,0.101-0.072,0.184-0.16,0.184h-0.51c-0.09,0-0.161-0.083-0.161-0.184    s0.071-0.184,0.161-0.184h0.51C142.339,33.122,142.412,33.205,142.412,33.306"/>
		<path fill="#231F20" d="M143.598,33.306c0,0.101-0.072,0.184-0.16,0.184h-0.51c-0.089,0-0.159-0.083-0.159-0.184    s0.07-0.184,0.159-0.184h0.51C143.526,33.122,143.598,33.205,143.598,33.306"/>
		<path fill="#231F20" d="M144.786,33.306c0,0.101-0.072,0.184-0.161,0.184h-0.511c-0.088,0-0.159-0.083-0.159-0.184    s0.071-0.184,0.159-0.184h0.511C144.713,33.122,144.786,33.205,144.786,33.306"/>
		<polygon fill="#666666" stroke="#000000" stroke-width="0.5" stroke-linecap="round" stroke-linejoin="round" points="    122.493,24.787 122.493,34.49 120.561,33.438 120.561,25.961   "/>
		<path fill="#666666" stroke="#000000" stroke-width="0.5" stroke-linecap="round" stroke-linejoin="round" d="M122.493,24.787"/>
		<path fill="none" stroke="#000000" stroke-width="0.5" stroke-linecap="round" stroke-linejoin="round" d="M122.493,24.787"/>
		<path fill="none" stroke="#000000" stroke-width="0.5" stroke-linecap="round" stroke-linejoin="round" d="M122.493,24.787"/>
		
			<rect x="122.593" y="24.641" fill="none" stroke="#000000" stroke-width="0.5" stroke-linecap="round" stroke-linejoin="round" width="35.94" height="9.969"/>
	</g>
	<g>
		<polyline fill="#8C8C8C" points="158.508,44.74 122.493,44.74 122.493,35.037 158.508,35.037 158.508,44.74   "/>
		<path fill="#FFFFFF" d="M130.947,35.894c-5.713,0.268-5.713,0.396-5.713,0.78v6.428c0,0.383,0,0.513,5.713,0.781    c3.332,0.156,6.99,0.252,9.552,0.252c2.563,0,6.223-0.096,9.555-0.252c5.714-0.268,5.714-0.397,5.714-0.781v-6.428    c0-0.383,0-0.512-5.714-0.78c-3.332-0.157-6.992-0.252-9.555-0.252C137.937,35.642,134.277,35.737,130.947,35.894"/>
		<path fill="#231F20" d="M127.375,42.744c0,0.227-0.143,0.411-0.321,0.411h-0.451c-0.373,0-0.642-1.637-0.642-3.278    c0-1.643,0.269-3.28,0.642-3.28h0.451c0.179,0,0.321,0.185,0.321,0.411V42.744"/>
		<path fill="#231F20" d="M128.651,39.878c0-1.688,0.272-3.378,0.652-3.378h0.458c0.18,0,0.326,0.191,0.326,0.424v5.907    c0,0.233-0.146,0.424-0.326,0.424h-0.458C128.923,43.255,128.651,41.568,128.651,39.878"/>
		<path fill="#231F20" d="M131.34,39.881c0-1.738,0.278-3.476,0.662-3.476h0.466c0.184,0,0.332,0.196,0.332,0.436v6.077    c0,0.242-0.148,0.437-0.332,0.437h-0.466C131.619,43.355,131.34,41.62,131.34,39.881"/>
		<path fill="#231F20" d="M153.626,42.744c0,0.227,0.144,0.411,0.32,0.411h0.452c0.372,0,0.642-1.637,0.642-3.278    c0-1.643-0.27-3.28-0.642-3.28h-0.452c-0.177,0-0.32,0.185-0.32,0.411V42.744"/>
		<path fill="#231F20" d="M152.351,39.878c0-1.688-0.273-3.378-0.651-3.378h-0.46c-0.181,0-0.326,0.191-0.326,0.424v5.907    c0,0.233,0.146,0.424,0.326,0.424h0.46C152.078,43.255,152.351,41.568,152.351,39.878"/>
		<path fill="#231F20" d="M149.661,39.881c0-1.738-0.277-3.476-0.66-3.476h-0.468c-0.182,0-0.33,0.196-0.33,0.436v6.077    c0,0.242,0.148,0.437,0.33,0.437H149C149.383,43.355,149.661,41.62,149.661,39.881"/>
		<path fill="#231F20" d="M134.03,39.883c0-1.787,0.282-3.572,0.673-3.572h0.473c0.187,0,0.337,0.201,0.337,0.449v6.249    c0,0.247-0.15,0.448-0.337,0.448h-0.473C134.312,43.456,134.03,41.672,134.03,39.883"/>
		<path fill="#231F20" d="M138.225,43.096c0,0.254-0.153,0.46-0.343,0.46h-0.48c-0.396,0-0.682-1.833-0.682-3.67    s0.286-3.669,0.682-3.669h0.48c0.189,0,0.343,0.207,0.343,0.46V43.096"/>
		<path fill="#231F20" d="M147.196,42.83c0,0.402-0.256,0.727-0.571,0.727h-6.882c-0.316,0-0.571-0.325-0.571-0.727v-3.211    c0-0.401,0.255-0.727,0.571-0.727h6.882c0.315,0,0.571,0.326,0.571,0.727V42.83"/>
		<path fill="#A6A8AB" d="M146.392,42.976c0,0.321-0.204,0.581-0.457,0.581h-5.505c-0.253,0-0.457-0.259-0.457-0.581v-2.568    c0-0.321,0.204-0.583,0.457-0.583h5.505c0.253,0,0.457,0.262,0.457,0.583V42.976"/>
		<path fill="#231F20" d="M145.75,42.755c0,0.205-0.163,0.372-0.366,0.372h-4.403c-0.202,0-0.366-0.167-0.366-0.372v-1.644    c0-0.207,0.164-0.373,0.366-0.373h4.403c0.203,0,0.366,0.167,0.366,0.373V42.755"/>
		<path fill="#231F20" d="M142.412,43.556c0,0.101-0.072,0.184-0.16,0.184h-0.51c-0.09,0-0.161-0.083-0.161-0.184    s0.071-0.184,0.161-0.184h0.51C142.339,43.372,142.412,43.455,142.412,43.556"/>
		<path fill="#231F20" d="M143.598,43.556c0,0.101-0.072,0.184-0.16,0.184h-0.51c-0.089,0-0.159-0.083-0.159-0.184    s0.07-0.184,0.159-0.184h0.51C143.526,43.372,143.598,43.455,143.598,43.556"/>
		<path fill="#231F20" d="M144.786,43.556c0,0.101-0.072,0.184-0.161,0.184h-0.511c-0.088,0-0.159-0.083-0.159-0.184    s0.071-0.184,0.159-0.184h0.511C144.713,43.372,144.786,43.455,144.786,43.556"/>
		<polygon fill="#666666" stroke="#000000" stroke-width="0.5" stroke-linecap="round" stroke-linejoin="round" points="    122.493,35.037 122.493,44.74 120.561,43.688 120.561,36.211   "/>
		<path fill="#666666" stroke="#000000" stroke-width="0.5" stroke-linecap="round" stroke-linejoin="round" d="M122.493,35.037"/>
		<path fill="none" stroke="#000000" stroke-width="0.5" stroke-linecap="round" stroke-linejoin="round" d="M122.493,35.037"/>
		<path fill="none" stroke="#000000" stroke-width="0.5" stroke-linecap="round" stroke-linejoin="round" d="M122.493,35.037"/>
		
			<rect x="122.593" y="34.891" fill="none" stroke="#000000" stroke-width="0.5" stroke-linecap="round" stroke-linejoin="round" width="35.94" height="9.969"/>
	</g>
	<line fill="#8C8C8C" x1="211.061" y1="19.208" x2="213.144" y2="19.208"/>
	<g>
		<path fill="#8C8C8C" stroke="#000000" stroke-width="0.5" stroke-linecap="round" stroke-linejoin="round" d="M37.895,36.47    v-6.842l0.842-0.948c0,0,0.526-2.526,1.474-2.736s14.842,0.947,14.842,0.947v10.842L40.21,38.154L37.895,36.47z"/>
		
			<line fill="#B2B2B2" stroke="#000000" stroke-width="0.5" stroke-linecap="round" stroke-linejoin="round" x1="40.21" y1="25.944" x2="40.21" y2="37.838"/>
		<polygon fill="#B2B2B2" stroke="#000000" stroke-width="0.5" stroke-linecap="round" stroke-linejoin="round" points="    41.579,27.944 53.474,28.68 53.579,36.154 41.474,36.154   "/>
		<polygon fill="#B2B2B2" stroke="#000000" stroke-width="0.5" stroke-linecap="round" stroke-linejoin="round" points="    40.631,39.943 40.631,38.996 55.052,38.47 57.895,39.943 42.842,41.733   "/>
		<polyline fill="none" stroke="#000000" stroke-width="0.5" stroke-linecap="round" stroke-linejoin="round" points="    40.631,38.996 43.052,40.996 57.895,39.943   "/>
	</g>
	<g>
		<path fill="#8C8C8C" stroke="#000000" stroke-width="0.5" stroke-linecap="round" stroke-linejoin="round" d="M76.395,36.47    v-6.842l0.842-0.948c0,0,0.526-2.526,1.474-2.736s14.842,0.947,14.842,0.947v10.842L78.71,38.154L76.395,36.47z"/>
		
			<line fill="#B2B2B2" stroke="#000000" stroke-width="0.5" stroke-linecap="round" stroke-linejoin="round" x1="78.71" y1="25.944" x2="78.71" y2="37.838"/>
		<polygon fill="#B2B2B2" stroke="#000000" stroke-width="0.5" stroke-linecap="round" stroke-linejoin="round" points="    80.079,27.944 91.974,28.68 92.079,36.154 79.974,36.154   "/>
		<polygon fill="#B2B2B2" stroke="#000000" stroke-width="0.5" stroke-linecap="round" stroke-linejoin="round" points="    79.131,39.943 79.131,38.996 93.552,38.47 96.395,39.943 81.342,41.733   "/>
		<polyline fill="none" stroke="#000000" stroke-width="0.5" stroke-linecap="round" stroke-linejoin="round" points="    79.131,38.996 81.552,40.996 96.395,39.943   "/>
	</g>
	<g>
		<polygon fill="#8C8C8C" stroke="#000000" stroke-width="0.5" stroke-linecap="round" stroke-linejoin="round" points="    315.896,41.828 315.896,21.212 317.613,19.495 333.469,19.495 333.469,44.577 317.613,44.577   "/>
		
			<line fill="none" stroke="#000000" stroke-width="0.5" stroke-linecap="round" stroke-linejoin="round" x1="317.844" y1="19.609" x2="317.844" y2="44.348"/>
		<rect x="319.904" y="35.644" fill="#B2B2B2" width="12.025" height="7.559"/>
		<rect x="319.904" y="32.666" fill="#3F3F3F" width="5.84" height="1.145"/>
		
			<rect x="319.904" y="21.328" fill="#3F3F3F" stroke="#666666" stroke-width="0.5" stroke-linecap="round" stroke-linejoin="round" width="11.797" height="2.405"/>
		
			<rect x="319.904" y="25.451" fill="#3F3F3F" stroke="#666666" stroke-width="0.5" stroke-linecap="round" stroke-linejoin="round" width="11.797" height="2.405"/>
		
			<rect x="319.904" y="29.574" fill="#3F3F3F" stroke="#666666" stroke-width="0.5" stroke-linecap="round" stroke-linejoin="round" width="11.797" height="2.405"/>
	</g>
	<path fill="#B2B2B2" stroke="#8C8C8C" stroke-width="0.5" stroke-linecap="round" stroke-linejoin="round" d="M145.644,20.833"/>
	<path fill="#B2B2B2" stroke="#8C8C8C" stroke-width="0.5" stroke-linecap="round" stroke-linejoin="round" d="M188.81,20.833"/>
	<g>
		<g>
			<path fill="#B2B2B2" stroke="#8C8C8C" stroke-width="0.5" stroke-linecap="round" stroke-linejoin="round" d="M138.061,20.042     h13.25c0.713,0,1.292-0.728,1.292-1.625s-0.578-1.625-1.292-1.625h-13.25"/>
			
				<ellipse fill="#B2B2B2" stroke="#8C8C8C" stroke-width="0.5" stroke-linecap="round" stroke-linejoin="round" cx="138.061" cy="18.417" rx="1.292" ry="1.625"/>
		</g>
		<g>
			<path fill="#B2B2B2" stroke="#8C8C8C" stroke-width="0.5" stroke-linecap="round" stroke-linejoin="round" d="M216.894,20.042     h13.25c0.714,0,1.292-0.728,1.292-1.625s-0.578-1.625-1.292-1.625h-13.25"/>
			
				<ellipse fill="#B2B2B2" stroke="#8C8C8C" stroke-width="0.5" stroke-linecap="round" stroke-linejoin="round" cx="216.895" cy="18.417" rx="1.292" ry="1.625"/>
		</g>
		<g>
			
				<ellipse fill="#B2B2B2" stroke="#8C8C8C" stroke-width="0.5" stroke-linecap="round" stroke-linejoin="round" cx="194.478" cy="18.417" rx="1.292" ry="1.625"/>
			<polyline fill="#B2B2B2" stroke="#8C8C8C" stroke-width="0.5" stroke-linecap="round" stroke-linejoin="round" points="     194.478,20.042 171.728,20.042 171.728,16.792 194.478,16.792    "/>
			
				<ellipse fill="#B2B2B2" stroke="#8C8C8C" stroke-width="0.5" stroke-linecap="round" stroke-linejoin="round" cx="171.728" cy="18.417" rx="1.292" ry="1.625"/>
		</g>
		<path fill="#FFFFFF" stroke="#000000" stroke-width="0.5" stroke-linejoin="round" d="M152.853,17.875h18.167    c0,0,1.25,0.666,0.333,1.208l-18.542,0.125"/>
		<path fill="#FFFFFF" stroke="#000000" stroke-width="0.5" stroke-linejoin="round" d="M196.061,18l19.75-0.125    c0,0,1.251,0.666,0.333,1.208l-20.125,0.083"/>
		<polyline fill="#B2B2B2" stroke="#8C8C8C" stroke-width="0.5" stroke-linejoin="round" points="139.186,20.292 139.186,24.459     141.603,24.459 141.707,20.292   "/>
		<polyline fill="#B2B2B2" stroke="#8C8C8C" stroke-width="0.5" stroke-linejoin="round" points="182.27,20.292 182.27,24.459     184.686,24.459 184.644,20.167   "/>
		<polyline fill="#B2B2B2" stroke="#8C8C8C" stroke-width="0.5" stroke-linejoin="round" points="227.603,20.292 227.603,24.459     230.019,24.459 229.957,20.292   "/>
	</g>
	<rect x="35.728" y="48.125" fill="none" width="27.667" height="9.333"/>
	<text transform="matrix(1 0 0 1 35.7275 53.1514)" font-family="'Helvetica'" font-size="7">Client N</text>
	<rect x="70.061" y="48.458" fill="none" width="27.667" height="9.333"/>
	<text transform="matrix(1 0 0 1 70.061 53.4854)" font-family="'Helvetica'" font-size="7">Client M</text>
	<rect x="127.394" y="4.792" fill="none" width="27.667" height="9.333"/>
	<text transform="matrix(1 0 0 1 127.394 9.8174)" font-family="'Helvetica'" font-size="7">Node1</text>
	<rect x="173.395" y="4.792" fill="none" width="27.667" height="9.333"/>
	<text transform="matrix(1 0 0 1 173.3945 9.8174)" font-family="'Helvetica'" font-size="7">Node2</text>
	<rect x="215.394" y="4.792" fill="none" width="27.667" height="9.333"/>
	<text transform="matrix(1 0 0 1 215.3945 9.8174)" font-family="'Helvetica'" font-size="7">Node3</text>
	<rect x="302.894" y="48.292" fill="none" width="47.333" height="9"/>
	<text transform="matrix(1 0 0 1 302.894 53.3184)" font-family="'Helvetica'" font-size="7">FPolicy server</text>
	<rect x="106.061" y="98.459" fill="none" width="67.667" height="10"/>
	<text transform="matrix(1 0 0 1 106.0605 103.4854)" font-family="'Helvetica'" font-size="7">Client File request</text>
	<rect x="106.394" y="159.792" fill="none" width="67.667" height="10"/>
	<text transform="matrix(1 0 0 1 106.394 164.8193)" font-family="'Helvetica'" font-size="7">Client File request</text>
	<rect x="106.394" y="134.792" fill="none" width="67.667" height="10"/>
	<text transform="matrix(1 0 0 1 106.394 139.8193)" font-family="'Helvetica'" font-size="7">Client File response</text>
	<rect x="106.394" y="196.458" fill="none" width="67.667" height="10"/>
	<text transform="matrix(1 0 0 1 106.394 201.4854)" font-family="'Helvetica'" font-size="7">Client File response</text>
	<rect x="107.061" y="209.125" fill="none" width="59" height="16.667"/>
	<text transform="matrix(1 0 0 1 116.1353 214.1523)"><tspan x="0" y="0" font-family="'Helvetica'" font-size="7">Node without </tspan><tspan x="-0.973" y="8.399" font-family="'Helvetica'" font-size="7">SVM data LIF</tspan></text>
	<rect x="167.727" y="224.125" fill="none" width="101" height="8.001"/>
	<text transform="matrix(1 0 0 1 167.7271 229.1514)" font-family="'Helvetica'" font-size="7">Nodes with SVM data LIFs</text>
	<rect x="239.395" y="78.125" fill="none" width="73" height="8"/>
	<text transform="matrix(1 0 0 1 241.8511 83.1514)" font-family="'Helvetica'" font-size="7">Control channel setup</text>
	<rect x="242.061" y="100.125" fill="none" width="67.333" height="8.667"/>
	<text transform="matrix(1 0 0 1 245.9712 105.1519)" font-family="'Helvetica'" font-size="7">FPolicy Notification</text>
	<rect x="241.728" y="163.459" fill="none" width="67.333" height="8.666"/>
	<text transform="matrix(1 0 0 1 245.6382 168.4858)" font-family="'Helvetica'" font-size="7">FPolicy Notification</text>
	<rect x="241.728" y="130.125" fill="none" width="67.333" height="8.667"/>
	<text transform="matrix(1 0 0 1 247.1919 135.1519)" font-family="'Helvetica'" font-size="7">FPolicy Response</text>
	<rect x="241.728" y="191.125" fill="none" width="67.333" height="8.667"/>
	<text transform="matrix(1 0 0 1 247.1919 196.1499)" font-family="'Helvetica'" font-size="7">FPolicy Response</text>
	<rect x="219.061" y="114.458" fill="none" width="114" height="10"/>
	<text transform="matrix(1 0 0 1 232.2095 118.7666)" font-family="'Helvetica'" font-size="6">Privileged data access - Optional</text>
	<rect x="219.061" y="178.125" fill="none" width="114" height="10"/>
	<text transform="matrix(1 0 0 1 232.2095 182.4326)" font-family="'Helvetica'" font-size="6">Privileged data access - Optional</text>
	<rect x="16.561" y="112.291" fill="none" width="8.333" height="38.001"/>
	<text transform="matrix(0 -1 1 0 21.5869 150.293)" font-family="'Helvetica'" font-size="7">Time lines</text>
	<rect x="3.894" y="108.625" fill="none" width="12.333" height="47.333"/>
	<g>
		
			<line fill="none" stroke="#000000" stroke-linecap="round" stroke-linejoin="round" x1="47.394" y1="62.792" x2="47.394" y2="200.792"/>
		
			<line fill="none" stroke="#000000" stroke-linecap="round" stroke-linejoin="round" x1="30.727" y1="62.792" x2="30.727" y2="200.792"/>
		
			<line fill="none" stroke="#000000" stroke-width="0.5" stroke-linecap="round" stroke-linejoin="round" x1="81.394" y1="61.792" x2="81.394" y2="199.792"/>
		
			<line fill="none" stroke="#000000" stroke-width="0.5" stroke-linecap="round" stroke-linejoin="round" x1="183.394" y1="61.792" x2="183.394" y2="199.792"/>
		
			<line fill="none" stroke="#000000" stroke-width="0.5" stroke-linecap="round" stroke-linejoin="round" x1="226.727" y1="61.792" x2="226.727" y2="199.792"/>
		
			<line fill="none" stroke="#000000" stroke-width="0.5" stroke-linecap="round" stroke-linejoin="round" x1="327.395" y1="61.792" x2="327.395" y2="199.792"/>
		
			<line fill="none" stroke="#000000" stroke-width="0.75" stroke-linecap="round" stroke-linejoin="round" stroke-dasharray="2,2" x1="136.728" y1="61.792" x2="136.728" y2="199.792"/>
	</g>
	
		<line fill="none" stroke="#8C8C8C" stroke-linecap="round" stroke-linejoin="round" x1="82.061" y1="105.458" x2="177.728" y2="105.458"/>
	
		<line fill="none" stroke="#000000" stroke-linecap="round" stroke-linejoin="round" x1="83.061" y1="142.125" x2="178.728" y2="142.125"/>
	
		<line fill="none" stroke="#8C8C8C" stroke-linecap="round" stroke-linejoin="round" x1="47.728" y1="167.458" x2="221.728" y2="167.458"/>
	
		<line fill="none" stroke="#000000" stroke-linecap="round" stroke-linejoin="round" x1="49.728" y1="203.792" x2="226.728" y2="203.792"/>
	
		<line fill="none" stroke="#000000" stroke-linecap="round" stroke-linejoin="round" x1="226.394" y1="75.125" x2="321.395" y2="75.125"/>
	
		<line fill="none" stroke="#8C8C8C" stroke-linecap="round" stroke-linejoin="round" x1="229.394" y1="197.458" x2="324.395" y2="197.458"/>
	
		<line fill="none" stroke="#8C8C8C" stroke-linecap="round" stroke-linejoin="round" stroke-dasharray="2,2" x1="229.394" y1="184.958" x2="324.395" y2="184.958"/>
	
		<line fill="none" stroke="#8C8C8C" stroke-linecap="round" stroke-linejoin="round" stroke-dasharray="2,2" x1="229.394" y1="121.958" x2="324.395" y2="121.958"/>
	
		<line fill="none" stroke="#000000" stroke-linecap="round" stroke-linejoin="round" x1="229.394" y1="169.792" x2="324.395" y2="169.792"/>
	
		<line fill="none" stroke="#8C8C8C" stroke-linecap="round" stroke-linejoin="round" x1="187.394" y1="137.125" x2="324.395" y2="137.125"/>
	
		<line fill="none" stroke="#000000" stroke-linecap="round" stroke-linejoin="round" x1="183.727" y1="107.458" x2="320.727" y2="107.458"/>
	
		<line fill="none" stroke="#000000" stroke-linecap="round" stroke-linejoin="round" x1="183.727" y1="85.125" x2="320.727" y2="85.125"/>
	<polyline fill="none" stroke="#000000" stroke-linecap="round" stroke-linejoin="round" points="183.394,205.958 183.394,213.458    227.394,213.458 227.394,206.458  "/>
	
		<line fill="none" stroke="#000000" stroke-linecap="round" stroke-linejoin="round" x1="205.394" y1="213.458" x2="205.394" y2="218.958"/>
	<rect x="169.727" y="51.292" fill="none" width="17" height="7.833"/>
	<text transform="matrix(1 0 0 1 169.7271 56.3188)" font-family="'Helvetica'" font-size="7">LIF1</text>
	<rect x="189.394" y="51.292" fill="none" width="17" height="7.833"/>
	<text transform="matrix(1 0 0 1 189.394 56.3188)" font-family="'Helvetica'" font-size="7">LIF2</text>
	<rect x="225.394" y="51.292" fill="none" width="17" height="7.833"/>
	<text transform="matrix(1 0 0 1 225.394 56.3188)" font-family="'Helvetica'" font-size="7">LIF3</text>
	<g>
		<polygon fill="#FFFFFF" stroke="#000000" stroke-width="0.5" stroke-linecap="round" stroke-linejoin="round" points="    198.027,47.708 192.428,47.708 190.732,42.958 199.894,42.958   "/>
		<polygon fill="#B2B2B2" points="197.32,47.018 193.107,47.018 192.405,43.563 198.255,43.563   "/>
	</g>
	<g>
		<polygon fill="#FFFFFF" stroke="#000000" stroke-width="0.5" stroke-linecap="round" stroke-linejoin="round" points="    234.658,47.833 229.822,47.833 228.357,44.208 236.269,44.208   "/>
		<polygon fill="#B2B2B2" points="234.046,47.306 230.408,47.306 229.802,44.67 234.854,44.67   "/>
	</g>
	<g>
		<polygon fill="#FFFFFF" stroke="#000000" stroke-width="0.5" stroke-linecap="round" stroke-linejoin="round" points="    179.408,47.833 174.572,47.833 173.107,44.208 181.019,44.208   "/>
		<polygon fill="#B2B2B2" points="178.796,47.306 175.158,47.306 174.552,44.67 179.604,44.67   "/>
	</g>
	<polygon fill="#000100" stroke="#000100" points="30.784,205.332 29.839,202.162 28.894,198.99 30.784,198.99 32.676,198.99    31.73,202.162  "/>
	<polygon fill="#000100" stroke="#000100" points="48.946,203.493 52.116,202.547 55.288,201.602 55.288,203.493 55.288,205.384    52.116,204.439  "/>
	<polygon fill="#000100" stroke="#000100" points="82.28,142.159 85.45,141.213 88.622,140.268 88.622,142.159 88.622,144.05    85.45,143.105  "/>
	<polygon fill="#000100" stroke="#000100" points="325.953,74.826 322.783,75.771 319.611,76.717 319.611,74.826 319.611,72.935    322.783,73.88  "/>
	<polygon fill="#000100" stroke="#000100" points="325.953,85.16 322.783,86.105 319.611,87.05 319.611,85.16 319.611,83.268    322.783,84.213  "/>
	<polygon fill="#000100" stroke="#000100" points="325.621,107.493 322.451,108.438 319.279,109.383 319.279,107.493    319.279,105.601 322.451,106.546  "/>
	<polygon fill="#000100" stroke="#000100" points="325.621,169.494 322.451,170.439 319.279,171.384 319.279,169.494    319.279,167.601 322.451,168.546  "/>
	<polygon fill="#B2B2B2" stroke="#B2B2B2" points="228.613,121.826 231.783,120.88 234.955,119.935 234.955,121.826    234.955,123.717 231.783,122.772  "/>
	<polygon fill="#B2B2B2" stroke="#B2B2B2" points="184.947,137.159 188.117,136.213 191.289,135.268 191.289,137.159    191.289,139.05 188.117,138.105  "/>
	<polygon fill="#B2B2B2" stroke="#B2B2B2" points="224.955,167.492 221.785,168.437 218.613,169.382 218.613,167.492 218.613,165.6    221.785,166.545  "/>
	<polygon fill="#B2B2B2" stroke="#B2B2B2" points="181.954,105.158 178.784,106.104 175.612,107.049 175.612,105.158    175.612,103.267 178.784,104.212  "/>
	<polygon fill="#B2B2B2" stroke="#B2B2B2" points="228.613,184.826 231.783,183.88 234.955,182.935 234.955,184.826    234.955,186.717 231.783,185.772  "/>
	<polygon fill="#B2B2B2" stroke="#B2B2B2" points="228.613,197.492 231.783,196.546 234.955,195.601 234.955,197.492    234.955,199.383 231.783,198.438  "/>
	<g>
		<polyline fill="#8C8C8C" points="247.508,44.74 211.493,44.74 211.493,35.037 247.508,35.037 247.508,44.74   "/>
		<path fill="#FFFFFF" d="M219.947,35.894c-5.713,0.268-5.713,0.396-5.713,0.78v6.428c0,0.383,0,0.513,5.713,0.781    c3.332,0.156,6.99,0.252,9.552,0.252c2.563,0,6.223-0.096,9.555-0.252c5.714-0.268,5.714-0.397,5.714-0.781v-6.428    c0-0.383,0-0.512-5.714-0.78c-3.332-0.157-6.992-0.252-9.555-0.252C226.937,35.642,223.277,35.737,219.947,35.894"/>
		<path fill="#231F20" d="M216.375,42.744c0,0.227-0.143,0.411-0.321,0.411h-0.451c-0.373,0-0.642-1.637-0.642-3.278    c0-1.643,0.269-3.28,0.642-3.28h0.451c0.179,0,0.321,0.185,0.321,0.411V42.744"/>
		<path fill="#231F20" d="M217.651,39.878c0-1.688,0.272-3.378,0.652-3.378h0.458c0.18,0,0.326,0.191,0.326,0.424v5.907    c0,0.233-0.146,0.424-0.326,0.424h-0.458C217.923,43.255,217.651,41.568,217.651,39.878"/>
		<path fill="#231F20" d="M220.34,39.881c0-1.738,0.278-3.476,0.662-3.476h0.466c0.184,0,0.332,0.196,0.332,0.436v6.077    c0,0.242-0.148,0.437-0.332,0.437h-0.466C220.619,43.355,220.34,41.62,220.34,39.881"/>
		<path fill="#231F20" d="M242.626,42.744c0,0.227,0.144,0.411,0.32,0.411h0.452c0.372,0,0.642-1.637,0.642-3.278    c0-1.643-0.27-3.28-0.642-3.28h-0.452c-0.177,0-0.32,0.185-0.32,0.411V42.744"/>
		<path fill="#231F20" d="M241.351,39.878c0-1.688-0.273-3.378-0.651-3.378h-0.46c-0.181,0-0.326,0.191-0.326,0.424v5.907    c0,0.233,0.146,0.424,0.326,0.424h0.46C241.078,43.255,241.351,41.568,241.351,39.878"/>
		<path fill="#231F20" d="M238.661,39.881c0-1.738-0.277-3.476-0.66-3.476h-0.468c-0.182,0-0.33,0.196-0.33,0.436v6.077    c0,0.242,0.148,0.437,0.33,0.437H238C238.383,43.355,238.661,41.62,238.661,39.881"/>
		<path fill="#231F20" d="M223.03,39.883c0-1.787,0.282-3.572,0.673-3.572h0.473c0.187,0,0.337,0.201,0.337,0.449v6.249    c0,0.247-0.15,0.448-0.337,0.448h-0.473C223.312,43.456,223.03,41.672,223.03,39.883"/>
		<path fill="#231F20" d="M227.225,43.096c0,0.254-0.153,0.46-0.343,0.46h-0.48c-0.396,0-0.682-1.833-0.682-3.67    s0.286-3.669,0.682-3.669h0.48c0.189,0,0.343,0.207,0.343,0.46V43.096"/>
		<path fill="#231F20" d="M236.196,42.83c0,0.402-0.256,0.727-0.571,0.727h-6.882c-0.316,0-0.571-0.325-0.571-0.727v-3.211    c0-0.401,0.255-0.727,0.571-0.727h6.882c0.315,0,0.571,0.326,0.571,0.727V42.83"/>
		<path fill="#A6A8AB" d="M235.392,42.976c0,0.321-0.204,0.581-0.457,0.581h-5.505c-0.253,0-0.457-0.259-0.457-0.581v-2.568    c0-0.321,0.204-0.583,0.457-0.583h5.505c0.253,0,0.457,0.262,0.457,0.583V42.976"/>
		<path fill="#231F20" d="M234.75,42.755c0,0.205-0.163,0.372-0.366,0.372h-4.403c-0.202,0-0.366-0.167-0.366-0.372v-1.644    c0-0.207,0.164-0.373,0.366-0.373h4.403c0.203,0,0.366,0.167,0.366,0.373V42.755"/>
		<path fill="#231F20" d="M231.412,43.556c0,0.101-0.072,0.184-0.16,0.184h-0.51c-0.09,0-0.161-0.083-0.161-0.184    s0.071-0.184,0.161-0.184h0.51C231.339,43.372,231.412,43.455,231.412,43.556"/>
		<path fill="#231F20" d="M232.598,43.556c0,0.101-0.072,0.184-0.16,0.184h-0.51c-0.089,0-0.159-0.083-0.159-0.184    s0.07-0.184,0.159-0.184h0.51C232.526,43.372,232.598,43.455,232.598,43.556"/>
		<path fill="#231F20" d="M233.786,43.556c0,0.101-0.072,0.184-0.161,0.184h-0.511c-0.088,0-0.159-0.083-0.159-0.184    s0.071-0.184,0.159-0.184h0.511C233.713,43.372,233.786,43.455,233.786,43.556"/>
		<polygon fill="#666666" stroke="#000000" stroke-width="0.5" stroke-linecap="round" stroke-linejoin="round" points="    211.493,35.037 211.493,44.74 209.561,43.688 209.561,36.211   "/>
		<path fill="#666666" stroke="#000000" stroke-width="0.5" stroke-linecap="round" stroke-linejoin="round" d="M211.493,35.037"/>
		<path fill="none" stroke="#000000" stroke-width="0.5" stroke-linecap="round" stroke-linejoin="round" d="M211.493,35.037"/>
		<path fill="none" stroke="#000000" stroke-width="0.5" stroke-linecap="round" stroke-linejoin="round" d="M211.493,35.037"/>
		
			<rect x="211.593" y="34.891" fill="none" stroke="#000000" stroke-width="0.5" stroke-linecap="round" stroke-linejoin="round" width="35.94" height="9.969"/>
	</g>
	<g>
		<polyline fill="#8C8C8C" points="203.008,44.74 166.993,44.74 166.993,35.037 203.008,35.037 203.008,44.74   "/>
		<path fill="#FFFFFF" d="M175.447,35.894c-5.713,0.268-5.713,0.396-5.713,0.78v6.428c0,0.383,0,0.513,5.713,0.781    c3.332,0.156,6.99,0.252,9.552,0.252c2.563,0,6.223-0.096,9.555-0.252c5.714-0.268,5.714-0.397,5.714-0.781v-6.428    c0-0.383,0-0.512-5.714-0.78c-3.332-0.157-6.992-0.252-9.555-0.252C182.437,35.642,178.777,35.737,175.447,35.894"/>
		<path fill="#231F20" d="M171.875,42.744c0,0.227-0.143,0.411-0.321,0.411h-0.451c-0.373,0-0.642-1.637-0.642-3.278    c0-1.643,0.269-3.28,0.642-3.28h0.451c0.179,0,0.321,0.185,0.321,0.411V42.744"/>
		<path fill="#231F20" d="M173.151,39.878c0-1.688,0.272-3.378,0.652-3.378h0.458c0.18,0,0.326,0.191,0.326,0.424v5.907    c0,0.233-0.146,0.424-0.326,0.424h-0.458C173.423,43.255,173.151,41.568,173.151,39.878"/>
		<path fill="#231F20" d="M175.84,39.881c0-1.738,0.278-3.476,0.662-3.476h0.466c0.184,0,0.332,0.196,0.332,0.436v6.077    c0,0.242-0.148,0.437-0.332,0.437h-0.466C176.119,43.355,175.84,41.62,175.84,39.881"/>
		<path fill="#231F20" d="M198.126,42.744c0,0.227,0.144,0.411,0.32,0.411h0.452c0.372,0,0.642-1.637,0.642-3.278    c0-1.643-0.27-3.28-0.642-3.28h-0.452c-0.177,0-0.32,0.185-0.32,0.411V42.744"/>
		<path fill="#231F20" d="M196.851,39.878c0-1.688-0.273-3.378-0.651-3.378h-0.46c-0.181,0-0.326,0.191-0.326,0.424v5.907    c0,0.233,0.146,0.424,0.326,0.424h0.46C196.578,43.255,196.851,41.568,196.851,39.878"/>
		<path fill="#231F20" d="M194.161,39.881c0-1.738-0.277-3.476-0.66-3.476h-0.468c-0.182,0-0.33,0.196-0.33,0.436v6.077    c0,0.242,0.148,0.437,0.33,0.437h0.468C193.883,43.355,194.161,41.62,194.161,39.881"/>
		<path fill="#231F20" d="M178.53,39.883c0-1.787,0.282-3.572,0.673-3.572h0.473c0.187,0,0.337,0.201,0.337,0.449v6.249    c0,0.247-0.15,0.448-0.337,0.448h-0.473C178.812,43.456,178.53,41.672,178.53,39.883"/>
		<path fill="#231F20" d="M182.725,43.096c0,0.254-0.153,0.46-0.343,0.46h-0.48c-0.396,0-0.682-1.833-0.682-3.67    s0.286-3.669,0.682-3.669h0.48c0.189,0,0.343,0.207,0.343,0.46V43.096"/>
		<path fill="#231F20" d="M191.696,42.83c0,0.402-0.256,0.727-0.571,0.727h-6.882c-0.316,0-0.571-0.325-0.571-0.727v-3.211    c0-0.401,0.255-0.727,0.571-0.727h6.882c0.315,0,0.571,0.326,0.571,0.727V42.83"/>
		<path fill="#A6A8AB" d="M190.892,42.976c0,0.321-0.204,0.581-0.457,0.581h-5.505c-0.253,0-0.457-0.259-0.457-0.581v-2.568    c0-0.321,0.204-0.583,0.457-0.583h5.505c0.253,0,0.457,0.262,0.457,0.583V42.976"/>
		<path fill="#231F20" d="M190.25,42.755c0,0.205-0.163,0.372-0.366,0.372h-4.403c-0.202,0-0.366-0.167-0.366-0.372v-1.644    c0-0.207,0.164-0.373,0.366-0.373h4.403c0.203,0,0.366,0.167,0.366,0.373V42.755"/>
		<path fill="#231F20" d="M186.912,43.556c0,0.101-0.072,0.184-0.16,0.184h-0.51c-0.09,0-0.161-0.083-0.161-0.184    s0.071-0.184,0.161-0.184h0.51C186.839,43.372,186.912,43.455,186.912,43.556"/>
		<path fill="#231F20" d="M188.098,43.556c0,0.101-0.072,0.184-0.16,0.184h-0.51c-0.089,0-0.159-0.083-0.159-0.184    s0.07-0.184,0.159-0.184h0.51C188.026,43.372,188.098,43.455,188.098,43.556"/>
		<path fill="#231F20" d="M189.286,43.556c0,0.101-0.072,0.184-0.161,0.184h-0.511c-0.088,0-0.159-0.083-0.159-0.184    s0.071-0.184,0.159-0.184h0.511C189.213,43.372,189.286,43.455,189.286,43.556"/>
		<polygon fill="#666666" stroke="#000000" stroke-width="0.5" stroke-linecap="round" stroke-linejoin="round" points="    166.993,35.037 166.993,44.74 165.061,43.688 165.061,36.211   "/>
		<path fill="#666666" stroke="#000000" stroke-width="0.5" stroke-linecap="round" stroke-linejoin="round" d="M166.993,35.037"/>
		<path fill="none" stroke="#000000" stroke-width="0.5" stroke-linecap="round" stroke-linejoin="round" d="M166.993,35.037"/>
		<path fill="none" stroke="#000000" stroke-width="0.5" stroke-linecap="round" stroke-linejoin="round" d="M166.993,35.037"/>
		
			<rect x="167.093" y="34.891" fill="none" stroke="#000000" stroke-width="0.5" stroke-linecap="round" stroke-linejoin="round" width="35.94" height="9.969"/>
	</g>
</g>
<g id="boxes">
</g>
</svg>