<?xml version="1.0" encoding="UTF-8"?><!-- Generator: Adobe Illustrator 16.0.3, SVG Export Plug-In . SVG Version: 6.00 Build 0)  --><!DOCTYPE svg PUBLIC "-//W3C//DTD SVG 1.1//EN" "http://www.w3.org/Graphics/SVG/1.1/DTD/svg11.dtd">
<svg xmlns="http://www.w3.org/2000/svg" xmlns:xlink="http://www.w3.org/1999/xlink" version="1.1" x="0px" y="0px" width="340.531px" height="171.334px" viewBox="0 0 340.531 171.334" enable-background="new 0 0 340.531 171.334" xml:space="preserve" preserveAspectRatio="xMidYMid meet" zoomAndPan="magnify" contentScriptType="application/ecmascript" contentStyleType="text/css">
<g id="outline">
	<polyline fill="none" stroke="#000000" stroke-width="0.5" stroke-linecap="round" stroke-linejoin="round" points="40.356,30.704    40.356,2 305.78,2 305.78,38.584  "/>
	<path fill="none" stroke="#000000" stroke-width="0.5" stroke-linecap="round" stroke-linejoin="round" d="M300.842,65.756"/>
	<path fill="none" stroke="#000000" stroke-width="0.5" stroke-linecap="round" stroke-linejoin="round" d="M90.925,46.678   c0,0.41-0.217,0.742-0.484,0.742h-9.454c-0.268,0-0.484-0.332-0.484-0.742v-4.963c0-0.41,0.216-0.743,0.484-0.743h9.454   c0.268,0,0.484,0.333,0.484,0.743V46.678z"/>
	<path fill="none" stroke="#000000" stroke-width="0.5" stroke-linecap="round" stroke-linejoin="round" d="M103.807,46.678   c0,0.41-0.217,0.742-0.484,0.742h-9.455c-0.268,0-0.484-0.332-0.484-0.742v-4.963c0-0.41,0.216-0.743,0.484-0.743h9.455   c0.267,0,0.484,0.333,0.484,0.743V46.678z"/>
	<path fill="none" stroke="#000000" stroke-width="0.5" stroke-linecap="round" stroke-linejoin="round" d="M116.688,46.678   c0,0.41-0.217,0.742-0.484,0.742h-9.454c-0.268,0-0.484-0.332-0.484-0.742v-4.963c0-0.41,0.216-0.743,0.484-0.743h9.454   c0.268,0,0.484,0.333,0.484,0.743V46.678z"/>
	<path fill="none" stroke="#000000" stroke-width="0.5" stroke-linecap="round" stroke-linejoin="round" d="M293.699,17.426   c0,0.332-0.442,0.6-0.989,0.6h-19.311c-0.547,0-0.988-0.269-0.988-0.6v-4.015c0-0.332,0.441-0.6,0.988-0.6h19.311   c0.547,0,0.989,0.269,0.989,0.6V17.426z"/>
	<path fill="none" stroke="#000000" stroke-width="0.5" stroke-linecap="round" stroke-linejoin="round" d="M268.211,17.426   c0,0.332-0.442,0.6-0.989,0.6H247.91c-0.546,0-0.988-0.269-0.988-0.6v-4.015c0-0.332,0.442-0.6,0.988-0.6h19.312   c0.547,0,0.989,0.269,0.989,0.6V17.426z"/>
	
		<line fill="none" stroke="#000000" stroke-width="0.5" stroke-linecap="round" stroke-linejoin="round" x1="40.102" y1="11.521" x2="305.575" y2="11.521"/>
	
		<line fill="none" stroke="#000000" stroke-width="0.5" stroke-linecap="round" stroke-linejoin="round" x1="40.65" y1="18.921" x2="305.575" y2="18.921"/>
	
		<line fill="none" stroke="#000000" stroke-width="0.5" stroke-linecap="round" stroke-linejoin="round" x1="40.65" y1="26.595" x2="305.575" y2="26.595"/>
	
		<line fill="none" stroke="#000000" stroke-width="0.5" stroke-linecap="round" stroke-linejoin="round" x1="77.29" y1="48.974" x2="305.695" y2="48.974"/>
	<polygon stroke="#000000" stroke-width="0.5" stroke-linecap="round" stroke-linejoin="round" points="118.183,16.554    117.686,15.693 117.188,14.832 118.183,14.832 119.178,14.832 118.68,15.693  "/>
	<polygon stroke="#000000" stroke-width="0.5" stroke-linecap="round" stroke-linejoin="round" points="219.314,8.058    218.817,7.197 218.32,6.335 219.314,6.335 220.31,6.335 219.812,7.197  "/>
	<polygon stroke="#000000" stroke-width="0.5" stroke-linecap="round" stroke-linejoin="round" points="251.655,8.058    251.158,7.197 250.661,6.335 251.655,6.335 252.65,6.335 252.152,7.197  "/>
	<g>
		<polygon fill="#8C8C8C" stroke="#000000" stroke-width="0.5" stroke-linecap="round" stroke-linejoin="round" points="    43.35,25.246 41.771,23.667 41.771,21.433 43.35,19.854 45.584,19.854 47.164,21.433 47.164,23.667 45.584,25.246   "/>
		<rect x="42.717" y="20.632" fill="none" width="3.668" height="4.085"/>
		<text transform="matrix(1 0 0 1 42.7163 24.4033)" fill="#FFFFFF" font-family="'Helvetica'" font-size="5.2527">X</text>
	</g>
	
		<line fill="none" stroke="#000000" stroke-width="0.5" stroke-linecap="round" stroke-linejoin="round" x1="263.038" y1="12.821" x2="263.038" y2="17.754"/>
	<polyline fill="none" stroke="#000000" stroke-width="0.5" stroke-linecap="round" stroke-linejoin="round" points="   266.422,14.763 265.925,15.624 265.428,16.485 264.931,15.624 264.433,14.763  "/>
	<g>
		<path fill="none" stroke="#000000" stroke-width="0.5" stroke-linecap="round" stroke-linejoin="round" d="M303.018,16.47    c0,0.709-0.574,1.285-1.284,1.285h-2.569c-0.71,0-1.285-0.575-1.285-1.285V13.9c0-0.709,0.575-1.285,1.285-1.285h2.569    c0.71,0,1.284,0.575,1.284,1.285V16.47z"/>
		<g>
			
				<circle fill="none" stroke="#000000" stroke-width="0.5" stroke-linecap="round" stroke-linejoin="round" cx="300.038" cy="14.671" r="1.13"/>
			
				<line fill="none" stroke="#000000" stroke-width="0.5" stroke-linecap="round" stroke-linejoin="round" x1="300.728" y1="15.586" x2="301.813" y2="16.839"/>
		</g>
	</g>
	
		<rect x="40.425" y="30.704" fill="none" stroke="#000000" stroke-width="0.5" stroke-linecap="round" stroke-linejoin="round" width="35.355" height="138.543"/>
</g>
<g id="lines">
	
		<line fill="none" stroke="#FFFFFF" stroke-width="3" stroke-linecap="round" stroke-linejoin="round" x1="44.33" y1="16.179" x2="36.313" y2="16.179"/>
	
		<line fill="none" stroke="#000000" stroke-width="0.5" stroke-linecap="round" stroke-linejoin="round" x1="44.33" y1="16.179" x2="36.313" y2="16.179"/>
	
		<line fill="none" stroke="#FFFFFF" stroke-width="3" stroke-linecap="round" stroke-linejoin="round" x1="44.33" y1="7.134" x2="36.313" y2="7.134"/>
	
		<line fill="none" stroke="#000000" stroke-width="0.5" stroke-linecap="round" stroke-linejoin="round" x1="44.33" y1="7.134" x2="36.313" y2="7.134"/>
	
		<line fill="none" stroke="#000000" stroke-width="0.5" stroke-linecap="round" stroke-linejoin="round" x1="309.356" y1="15.356" x2="306.273" y2="15.356"/>
	
		<line fill="none" stroke="#FFFFFF" stroke-width="3" stroke-linecap="round" stroke-linejoin="round" x1="50.497" y1="99.77" x2="36.246" y2="99.77"/>
	
		<line fill="none" stroke="#000000" stroke-width="0.5" stroke-linecap="round" stroke-linejoin="round" x1="50.497" y1="99.77" x2="36.246" y2="99.77"/>
	
		<line fill="none" stroke="#FFFFFF" stroke-width="3" stroke-linecap="round" stroke-linejoin="round" x1="310.041" y1="99.496" x2="295.79" y2="99.496"/>
	
		<line fill="none" stroke="#000000" stroke-width="0.5" stroke-linecap="round" stroke-linejoin="round" x1="310.041" y1="99.496" x2="295.79" y2="99.496"/>
	
		<line fill="none" stroke="#FFFFFF" stroke-width="3" stroke-linecap="round" stroke-linejoin="round" x1="81.741" y1="44.682" x2="36.246" y2="44.682"/>
	
		<line fill="none" stroke="#000000" stroke-width="0.5" stroke-linecap="round" stroke-linejoin="round" x1="81.741" y1="44.682" x2="36.246" y2="44.682"/>
	<g>
		<polyline fill="none" stroke="#FFFFFF" stroke-width="3" stroke-linecap="round" stroke-linejoin="round" points="300.723,22.962     318.537,22.962 318.537,25.977   "/>
	</g>
	<g>
		<polyline fill="none" stroke="#000000" stroke-width="0.5" stroke-linecap="round" stroke-linejoin="round" points="    300.723,22.962 318.537,22.962 318.537,25.977   "/>
	</g>
</g>
<g id="text">
	<rect x="45.811" y="13.726" fill="none" width="26.146" height="5.756"/>
	<text transform="matrix(1 0 0 1 45.8105 17.2671)" font-family="'Helvetica'" font-size="4.9333">Dashboard</text>
	<rect x="77.712" y="13.726" fill="none" width="15.293" height="5.756"/>
	<text transform="matrix(1 0 0 1 77.7114 17.2671)" font-family="'Helvetica'" font-size="4.9333">Events</text>
	<rect x="284.088" y="5.504" fill="none" width="21.596" height="5.755"/>
	<text transform="matrix(1 0 0 1 284.0869 8.4551)" font-family="'Helvetica'" font-size="4.111">Sign Out</text>
	<rect x="276.277" y="13.52" fill="none" width="15.224" height="4.317"/>
	<text transform="matrix(1 0 0 1 276.2764 16.4712)" font-family="'Helvetica'" font-size="4.111">Search</text>
	<rect x="258.052" y="5.504" fill="none" width="21.321" height="5.755"/>
	<text transform="matrix(1 0 0 1 258.0508 8.4551)" font-family="'Helvetica'" font-size="4.111">username</text>
	<rect x="224.066" y="5.504" fill="none" width="27.899" height="5.755"/>
	<text transform="matrix(1 0 0 1 224.0654 8.4551)" font-family="'Helvetica'" font-size="4.111">Administration</text>
	<rect x="209.268" y="5.504" fill="none" width="14.743" height="5.755"/>
	<text transform="matrix(1 0 0 1 209.2656 8.4551)" font-family="'Helvetica'" font-size="4.111">Help</text>
	<rect x="124.085" y="13.726" fill="none" width="13.32" height="5.756"/>
	<text transform="matrix(1 0 0 1 124.0845 17.2671)" font-family="'Helvetica'" font-size="4.9333">Jobs</text>
	<rect x="99.09" y="13.726" fill="none" width="18.253" height="5.756"/>
	<text transform="matrix(1 0 0 1 99.0889 17.2671)" font-family="'Helvetica'" font-size="4.9333">Storage</text>
	<rect x="46.468" y="5.174" fill="none" width="160.66" height="5.756"/>
	<text transform="matrix(1 0 0 1 46.4673 8.7158)" font-family="'Helvetica'" font-size="4.9333">IBM N series OnCommand Unified Manager</text>
	<rect x="8.77" y="3.982" fill="none" width="26.311" height="5.55"/>
	<text transform="matrix(1 0 0 1 12.5059 7.8193)" font-family="'Helvetica'" font-size="5.3444">Menu bar</text>
	<rect y="13.575" fill="none" width="35.081" height="5.55"/>
	<text transform="matrix(1 0 0 1 0.6255 17.4116)" font-family="'Helvetica'" font-size="5.3444">Navigation bar</text>
	<rect x="3.563" y="97.167" fill="none" width="30.695" height="7.605"/>
	<text transform="matrix(1 0 0 1 6.3394 101.0034)" font-family="'Helvetica'" font-size="5.3444">Filters pane</text>
	<rect x="1.371" y="42.079" fill="none" width="32.888" height="12.265"/>
	<text transform="matrix(1 0 0 1 9.6099 45.9146)"><tspan x="0" y="0" font-family="'Helvetica'" font-size="5.3444">Command </tspan><tspan x="7.119" y="6.413" font-family="'Helvetica'" font-size="5.3444">buttons </tspan></text>
	<rect x="311.275" y="12.984" fill="none" width="27.406" height="6.938"/>
	<text transform="matrix(1 0 0 1 311.2744 16.8208)" font-family="'Helvetica'" font-size="5.3444">Search bar</text>
	<rect x="311.275" y="94.109" fill="none" width="19.596" height="12.692"/>
	<text transform="matrix(1 0 0 1 311.2744 97.9463)"><tspan x="0" y="0" font-family="'Helvetica'" font-size="5.3444">List of </tspan><tspan x="0" y="6.413" font-family="'Helvetica'" font-size="5.3444">objects</tspan></text>
	<line stroke="#000000" stroke-width="0.5" x1="73.519" y1="11.793" x2="73.519" y2="18.782"/>
	<line stroke="#000000" stroke-width="0.5" x1="95.718" y1="11.793" x2="95.718" y2="18.782"/>
	<line stroke="#000000" stroke-width="0.5" x1="122.851" y1="11.793" x2="122.851" y2="18.782"/>
	<line stroke="#000000" stroke-width="0.5" x1="136.829" y1="11.793" x2="136.829" y2="18.782"/>
	
		<line fill="none" stroke="#000000" stroke-width="0.5" stroke-linecap="round" stroke-linejoin="round" x1="222.133" y1="4.599" x2="222.133" y2="9.943"/>
	
		<line fill="none" stroke="#000000" stroke-width="0.5" stroke-linecap="round" stroke-linejoin="round" x1="255.021" y1="4.599" x2="255.021" y2="9.943"/>
	
		<line fill="none" stroke="#000000" stroke-width="0.5" stroke-linecap="round" stroke-linejoin="round" x1="279.482" y1="4.599" x2="279.482" y2="9.943"/>
	
		<rect x="77.356" y="38.31" fill="none" stroke="#000000" stroke-width="0.5" stroke-linecap="round" stroke-linejoin="round" width="228.369" height="130.732"/>
	<rect x="311.205" y="27.279" fill="none" width="29.326" height="23.913"/>
	<text transform="matrix(1 0 0 1 311.2051 31.1152)"><tspan x="0" y="0" font-family="'Helvetica'" font-size="5.3444">Cluster </tspan><tspan x="0" y="6.413" font-family="'Helvetica'" font-size="5.3444">availability </tspan><tspan x="0" y="12.826" font-family="'Helvetica'" font-size="5.3444">details pane</tspan></text>
</g>
</svg>