<?xml version="1.0" encoding="UTF-8"?><!-- Generator: Adobe Illustrator 16.0.3, SVG Export Plug-In . SVG Version: 6.00 Build 0)  --><!DOCTYPE svg PUBLIC "-//W3C//DTD SVG 1.1//EN" "http://www.w3.org/Graphics/SVG/1.1/DTD/svg11.dtd">
<svg xmlns="http://www.w3.org/2000/svg" xmlns:xlink="http://www.w3.org/1999/xlink" version="1.1" x="0px" y="0px" width="417.667px" height="209px" viewBox="0 0 417.667 209" enable-background="new 0 0 417.667 209" xml:space="preserve" preserveAspectRatio="xMidYMid meet" zoomAndPan="magnify" contentScriptType="application/ecmascript" contentStyleType="text/css">
<g id="outline">
	<polyline fill="none" stroke="#000000" stroke-width="0.5" stroke-linecap="round" stroke-linejoin="round" points="50.532,47.278    50.532,2.919 373.35,2.919 373.35,59.456  "/>
	<path fill="none" stroke="#000000" stroke-width="0.5" stroke-linecap="round" stroke-linejoin="round" d="M367.344,80.461"/>
	<path fill="none" stroke="#000000" stroke-width="0.5" stroke-linecap="round" stroke-linejoin="round" d="M64.929,49.587   c0,0.539-0.264,0.975-0.589,0.975H52.842c-0.326,0-0.589-0.436-0.589-0.975v-6.52c0-0.538,0.263-0.975,0.589-0.975H64.34   c0.325,0,0.589,0.437,0.589,0.975V49.587z"/>
	<path fill="none" stroke="#000000" stroke-width="0.5" stroke-linecap="round" stroke-linejoin="round" d="M80.596,49.587   c0,0.539-0.264,0.975-0.589,0.975H68.509c-0.326,0-0.589-0.436-0.589-0.975v-6.52c0-0.538,0.263-0.975,0.589-0.975h11.499   c0.325,0,0.589,0.437,0.589,0.975V49.587z"/>
	<path fill="none" stroke="#000000" stroke-width="0.5" stroke-linecap="round" stroke-linejoin="round" d="M96.263,49.587   c0,0.539-0.264,0.975-0.589,0.975H84.176c-0.326,0-0.589-0.436-0.589-0.975v-6.52c0-0.538,0.263-0.975,0.589-0.975h11.499   c0.325,0,0.589,0.437,0.589,0.975V49.587z"/>
	<path fill="none" stroke="#000000" stroke-width="0.5" stroke-linecap="round" stroke-linejoin="round" d="M111.93,49.587   c0,0.539-0.264,0.975-0.589,0.975H99.843c-0.326,0-0.589-0.436-0.589-0.975v-6.52c0-0.538,0.263-0.975,0.589-0.975h11.499   c0.325,0,0.589,0.437,0.589,0.975V49.587z"/>
	<path fill="none" stroke="#000000" stroke-width="0.5" stroke-linecap="round" stroke-linejoin="round" d="M358.656,21.68   c0,0.403-0.538,0.73-1.203,0.73h-23.486c-0.665,0-1.202-0.327-1.202-0.73v-4.882c0-0.403,0.537-0.73,1.202-0.73h23.486   c0.665,0,1.203,0.327,1.203,0.73V21.68z"/>
	<path fill="none" stroke="#000000" stroke-width="0.5" stroke-linecap="round" stroke-linejoin="round" d="M327.656,21.68   c0,0.403-0.538,0.73-1.203,0.73h-23.486c-0.665,0-1.202-0.327-1.202-0.73v-4.882c0-0.403,0.537-0.73,1.202-0.73h23.486   c0.665,0,1.203,0.327,1.203,0.73V21.68z"/>
	<path fill="none" stroke="#000000" stroke-width="0.5" stroke-linecap="round" stroke-linejoin="round" d="M316.642,43.379   c0,0.436-0.538,0.789-1.203,0.789h-23.486c-0.665,0-1.202-0.353-1.202-0.789v-5.272c0-0.436,0.537-0.789,1.202-0.789h23.486   c0.665,0,1.203,0.353,1.203,0.789V43.379z"/>
	<path fill="none" stroke="#000000" stroke-width="0.5" stroke-linecap="round" stroke-linejoin="round" d="M285.642,43.379   c0,0.436-0.538,0.789-1.203,0.789h-23.486c-0.665,0-1.202-0.353-1.202-0.789v-5.272c0-0.436,0.537-0.789,1.202-0.789h23.486   c0.665,0,1.203,0.353,1.203,0.789V43.379z"/>
	
		<line fill="none" stroke="#000000" stroke-width="0.5" stroke-linecap="round" stroke-linejoin="round" x1="50.223" y1="14.499" x2="373.101" y2="14.499"/>
	
		<line fill="none" stroke="#000000" stroke-width="0.5" stroke-linecap="round" stroke-linejoin="round" x1="50.889" y1="23.499" x2="373.101" y2="23.499"/>
	
		<line fill="none" stroke="#000000" stroke-width="0.5" stroke-linecap="round" stroke-linejoin="round" x1="50.89" y1="32.833" x2="373.101" y2="32.833"/>
	<polygon stroke="#000000" stroke-width="0.5" stroke-linecap="round" stroke-linejoin="round" points="145.187,20.62    144.583,19.573 143.978,18.525 145.187,18.525 146.397,18.525 145.792,19.573  "/>
	<polygon stroke="#000000" stroke-width="0.5" stroke-linecap="round" stroke-linejoin="round" points="268.188,10.287    267.583,9.239 266.978,8.192 268.188,8.192 269.397,8.192 268.792,9.239  "/>
	<polygon stroke="#000000" stroke-width="0.5" stroke-linecap="round" stroke-linejoin="round" points="307.521,10.287    306.917,9.239 306.312,8.192 307.521,8.192 308.731,8.192 308.126,9.239  "/>
	<g>
		<polygon fill="#8C8C8C" stroke="#000000" stroke-width="0.5" stroke-linecap="round" stroke-linejoin="round" points="    54.173,31.192 52.253,29.271 52.253,26.554 54.173,24.634 56.891,24.634 58.811,26.554 58.811,29.271 56.891,31.192   "/>
		<rect x="53.403" y="25.58" fill="none" width="4.461" height="4.969"/>
		<text transform="matrix(1 0 0 1 53.4033 30.1675)" fill="#FFFFFF" font-family="'Helvetica'" font-size="6.3885">X</text>
	</g>
	
		<line fill="none" stroke="#000000" stroke-width="0.5" stroke-linecap="round" stroke-linejoin="round" x1="321.365" y1="16.08" x2="321.365" y2="22.08"/>
	<polyline fill="none" stroke="#000000" stroke-width="0.5" stroke-linecap="round" stroke-linejoin="round" points="   325.481,18.442 324.876,19.489 324.271,20.537 323.667,19.489 323.062,18.442  "/>
	<g>
		<path fill="none" stroke="#000000" stroke-width="0.5" stroke-linecap="round" stroke-linejoin="round" d="M369.99,20.518    c0,0.863-0.699,1.563-1.563,1.563h-3.125c-0.863,0-1.563-0.7-1.563-1.563v-3.125c0-0.863,0.699-1.563,1.563-1.563h3.125    c0.863,0,1.563,0.7,1.563,1.563V20.518z"/>
		<g>
			
				<circle fill="none" stroke="#000000" stroke-width="0.5" stroke-linecap="round" stroke-linejoin="round" cx="366.365" cy="18.33" r="1.375"/>
			
				<line fill="none" stroke="#000000" stroke-width="0.5" stroke-linecap="round" stroke-linejoin="round" x1="367.205" y1="19.443" x2="368.525" y2="20.967"/>
		</g>
	</g>
	
		<rect x="50.449" y="47.727" fill="#FFFFFF" stroke="#000000" stroke-width="0.5" stroke-linecap="round" stroke-linejoin="round" width="269.801" height="158.354"/>
	
		<rect x="322" y="35.768" fill="#FFFFFF" stroke="#000000" stroke-width="0.5" stroke-linecap="round" stroke-linejoin="round" width="51.35" height="102.566"/>
	
		<rect x="322" y="140.709" fill="#FFFFFF" stroke="#000000" stroke-width="0.5" stroke-linecap="round" stroke-linejoin="round" width="51.35" height="31.541"/>
	
		<rect x="322" y="174.54" fill="#FFFFFF" stroke="#000000" stroke-width="0.5" stroke-linecap="round" stroke-linejoin="round" width="51.35" height="31.541"/>
	<polygon points="281.938,42.319 281.027,40.743 280.117,39.166 281.938,39.166 283.758,39.166 282.848,40.743  "/>
</g>
<g id="lines">
	
		<line fill="none" stroke="#FFFFFF" stroke-width="3" stroke-linecap="round" stroke-linejoin="round" x1="55.365" y1="20.164" x2="45.615" y2="20.164"/>
	
		<line fill="none" stroke="#000000" stroke-width="0.5" stroke-linecap="round" stroke-linejoin="round" x1="55.365" y1="20.164" x2="45.615" y2="20.164"/>
	
		<line fill="none" stroke="#FFFFFF" stroke-width="3" stroke-linecap="round" stroke-linejoin="round" x1="55.365" y1="9.164" x2="45.615" y2="9.164"/>
	
		<line fill="none" stroke="#000000" stroke-width="0.5" stroke-linecap="round" stroke-linejoin="round" x1="55.365" y1="9.164" x2="45.615" y2="9.164"/>
	
		<line fill="none" stroke="#000000" stroke-width="0.5" stroke-linecap="round" stroke-linejoin="round" x1="377.699" y1="19.164" x2="373.949" y2="19.164"/>
	
		<line fill="none" stroke="#FFFFFF" stroke-width="3" stroke-linecap="round" stroke-linejoin="round" x1="378.532" y1="121.497" x2="361.199" y2="121.497"/>
	
		<line fill="none" stroke="#000000" stroke-width="0.5" stroke-linecap="round" stroke-linejoin="round" x1="378.532" y1="121.497" x2="361.199" y2="121.497"/>
	
		<line fill="none" stroke="#FFFFFF" stroke-width="3" stroke-linecap="round" stroke-linejoin="round" x1="378.532" y1="156.83" x2="361.199" y2="156.83"/>
	
		<line fill="none" stroke="#000000" stroke-width="0.5" stroke-linecap="round" stroke-linejoin="round" x1="378.532" y1="156.83" x2="361.199" y2="156.83"/>
	
		<line fill="none" stroke="#FFFFFF" stroke-width="3" stroke-linecap="round" stroke-linejoin="round" x1="378.532" y1="189.144" x2="361.199" y2="189.144"/>
	
		<line fill="none" stroke="#000000" stroke-width="0.5" stroke-linecap="round" stroke-linejoin="round" x1="378.532" y1="189.144" x2="361.199" y2="189.144"/>
	
		<line fill="none" stroke="#FFFFFF" stroke-width="3" stroke-linecap="round" stroke-linejoin="round" x1="380.867" y1="72.078" x2="309.347" y2="40.743"/>
	
		<line fill="none" stroke="#000000" stroke-width="0.5" stroke-linecap="round" stroke-linejoin="round" x1="377.699" y1="70.689" x2="309.347" y2="40.743"/>
	
		<line fill="none" stroke="#FFFFFF" stroke-width="2" stroke-linecap="round" stroke-linejoin="round" x1="55.365" y1="45.333" x2="45.532" y2="45.333"/>
	
		<line fill="none" stroke="#000000" stroke-width="0.5" stroke-linecap="round" stroke-linejoin="round" x1="55.365" y1="45.333" x2="45.532" y2="45.333"/>
	<g>
		<polyline fill="none" stroke="#FFFFFF" stroke-width="3" stroke-linecap="round" stroke-linejoin="round" points="367.199,28.414     388.865,28.414 388.865,32.08   "/>
	</g>
	<g>
		<polyline fill="none" stroke="#000000" stroke-width="0.5" stroke-linecap="round" stroke-linejoin="round" points="    367.199,28.414 388.865,28.414 388.865,32.08   "/>
	</g>
</g>
<g id="text">
	<rect x="57.166" y="17.18" fill="none" width="31.8" height="7"/>
	<text transform="matrix(1 0 0 1 57.166 21.4888)" font-family="'Helvetica'" font-size="6">Dashboard</text>
	<rect x="95.965" y="17.18" fill="none" width="18.601" height="7"/>
	<text transform="matrix(1 0 0 1 95.9648 21.4888)" font-family="'Helvetica'" font-size="6">Events</text>
	<rect x="346.967" y="7.18" fill="none" width="26.266" height="7"/>
	<text transform="matrix(1 0 0 1 346.9668 10.7695)" font-family="'Helvetica'" font-size="5">Sign Out</text>
	<rect x="337.467" y="16.93" fill="none" width="18.516" height="5.25"/>
	<text transform="matrix(1 0 0 1 337.4668 20.5205)" font-family="'Helvetica'" font-size="5">Search</text>
	<rect x="315.301" y="7.18" fill="none" width="25.932" height="7"/>
	<text transform="matrix(1 0 0 1 315.3008 10.7695)" font-family="'Helvetica'" font-size="5">username</text>
	<rect x="273.967" y="7.18" fill="none" width="33.932" height="7"/>
	<text transform="matrix(1 0 0 1 273.9668 10.7695)" font-family="'Helvetica'" font-size="5">Administration</text>
	<rect x="255.967" y="7.18" fill="none" width="17.932" height="7"/>
	<text transform="matrix(1 0 0 1 255.9668 10.7695)" font-family="'Helvetica'" font-size="5">Help</text>
	<rect x="152.365" y="17.18" fill="none" width="16.2" height="7"/>
	<text transform="matrix(1 0 0 1 152.3652 21.4888)" font-family="'Helvetica'" font-size="6">Jobs</text>
	<rect x="121.965" y="17.18" fill="none" width="22.2" height="7"/>
	<text transform="matrix(1 0 0 1 121.9648 21.4888)" font-family="'Helvetica'" font-size="6">Storage</text>
	<rect x="57.965" y="6.78" fill="none" width="195.4" height="7"/>
	<text transform="matrix(1 0 0 1 57.9648 11.0874)" font-family="'Helvetica'" font-size="6">IBM N Series OnCommand Unified Manager</text>
	<rect x="12.115" y="5.33" fill="none" width="32" height="6.75"/>
	<text transform="matrix(1 0 0 1 16.6592 9.9971)" font-family="'Helvetica'" font-size="6.5">Menu bar</text>
	<rect x="1.449" y="16.997" fill="none" width="42.667" height="6.75"/>
	<text transform="matrix(1 0 0 1 2.21 21.6631)" font-family="'Helvetica'" font-size="6.5">Navigation bar</text>
	<rect x="14.333" y="106.664" fill="none" width="28.782" height="37.669"/>
	<text transform="matrix(1 0 0 1 23.2515 111.3311)"><tspan x="0" y="0" font-family="'Helvetica'" font-size="6.5">Details</tspan><tspan x="1.437" y="7.8" font-family="'Helvetica'" font-size="6.5">for the</tspan><tspan x="-4.342" y="15.601" font-family="'Helvetica'" font-size="6.5">selected</tspan><tspan x="2.522" y="23.399" font-family="'Helvetica'" font-size="6.5">object</tspan></text>
	<rect x="3.116" y="42.507" fill="none" width="40" height="16.11"/>
	<text transform="matrix(0.9259 0 0 1 28.666 47.5474)" font-family="'Helvetica'" font-size="7.02">Tabs</text>
	<rect x="380.032" y="16.278" fill="none" width="33.334" height="8.438"/>
	<text transform="matrix(1 0 0 1 380.0322 20.9448)" font-family="'Helvetica'" font-size="6.5">Search bar</text>
	<rect x="380.032" y="110.945" fill="none" width="30.7" height="23.389"/>
	<text transform="matrix(1 0 0 1 380.0322 115.6123)"><tspan x="0" y="0" font-family="'Helvetica'" font-size="6.5">List of </tspan><tspan x="0" y="7.8" font-family="'Helvetica'" font-size="6.5">related</tspan><tspan x="0" y="15.601" font-family="'Helvetica'" font-size="6.5">devices</tspan></text>
	<rect x="380.032" y="146.278" fill="none" width="30.899" height="25.722"/>
	<text transform="matrix(1 0 0 1 380.0322 150.9453)"><tspan x="0" y="0" font-family="'Helvetica'" font-size="6.5">List of </tspan><tspan x="0" y="7.8" font-family="'Helvetica'" font-size="6.5">related</tspan><tspan x="0" y="15.6" font-family="'Helvetica'" font-size="6.5">alerts</tspan></text>
	<rect x="380.032" y="182.592" fill="none" width="33.866" height="15.438"/>
	<text transform="matrix(1 0 0 1 380.0322 187.2588)"><tspan x="0" y="0" font-family="'Helvetica'" font-size="6.5">List of </tspan><tspan x="0" y="7.8" font-family="'Helvetica'" font-size="6.5">annotations</tspan></text>
	<rect x="380.032" y="68.613" fill="none" width="30.834" height="15.438"/>
	<text transform="matrix(1 0 0 1 380.0322 73.2803)"><tspan x="0" y="0" font-family="'Helvetica'" font-size="6.5">Command</tspan><tspan x="0" y="7.8" font-family="'Helvetica'" font-size="6.5">buttons</tspan></text>
	<line stroke="#000000" stroke-width="0.5" x1="90.865" y1="14.83" x2="90.865" y2="23.33"/>
	<line stroke="#000000" stroke-width="0.5" x1="117.865" y1="14.83" x2="117.865" y2="23.33"/>
	<line fill="none" x1="150.865" y1="14.83" x2="150.865" y2="23.33"/>
	<line stroke="#000000" stroke-width="0.5" x1="167.865" y1="14.83" x2="167.865" y2="23.33"/>
	
		<line fill="none" stroke="#000000" stroke-width="0.5" stroke-linecap="round" stroke-linejoin="round" x1="271.615" y1="6.08" x2="271.615" y2="12.58"/>
	
		<line fill="none" stroke="#000000" stroke-width="0.5" stroke-linecap="round" stroke-linejoin="round" x1="311.615" y1="6.08" x2="311.615" y2="12.58"/>
	
		<line fill="none" stroke="#000000" stroke-width="0.5" stroke-linecap="round" stroke-linejoin="round" x1="341.365" y1="6.08" x2="341.365" y2="12.58"/>
	<rect x="379.948" y="33.664" fill="none" width="35.667" height="29.083"/>
	<text transform="matrix(1 0 0 1 379.9482 38.3311)"><tspan x="0" y="0" font-family="'Helvetica'" font-size="6.5">Cluster </tspan><tspan x="0" y="7.8" font-family="'Helvetica'" font-size="6.5">availability </tspan><tspan x="0" y="15.6" font-family="'Helvetica'" font-size="6.5">details pane</tspan></text>
	
		<line fill="none" stroke="#FFFFFF" stroke-width="3" stroke-linecap="round" stroke-linejoin="round" x1="62.865" y1="121.833" x2="45.532" y2="121.833"/>
	
		<line fill="none" stroke="#000000" stroke-width="0.5" stroke-linecap="round" stroke-linejoin="round" x1="62.199" y1="121.833" x2="44.866" y2="121.833"/>
</g>
</svg>