<svg width="24" height="24" viewBox="0 0 24 24" fill="none" xmlns="http://www.w3.org/2000/svg">
<g id="Icons/Cloud Provider Logos/Full Color/AWS">
<g id="Icons / Miscellaneous / AWS">
<g id="aws">
<path id="Shape3" fill-rule="evenodd" clip-rule="evenodd" d="M18.5265 13.1789C18.9153 13.2723 19.3198 13.3189 19.7242 13.3189C20.1209 13.3189 20.4865 13.2645 20.8365 13.1556C21.1709 13.0545 21.4587 12.9145 21.6998 12.72C21.9409 12.5334 22.1276 12.3 22.2676 12.0356C22.3998 11.7711 22.4698 11.4678 22.4698 11.1334C22.4698 10.7289 22.3531 10.3634 22.112 10.0445C21.8709 9.72559 21.4665 9.4767 20.9065 9.29781L19.802 8.94781C19.3898 8.81559 19.102 8.66781 18.9465 8.52003C18.7909 8.37226 18.7131 8.18559 18.7131 7.96781C18.7131 7.64892 18.8376 7.42337 19.0787 7.27559C19.3198 7.12781 19.6698 7.05781 20.1131 7.05781C20.6653 7.05781 21.1631 7.15892 21.6065 7.36115C21.7387 7.42337 21.8398 7.45448 21.902 7.45448C22.0187 7.45448 22.0809 7.36892 22.0809 7.20559V6.84003C22.0809 6.73115 22.0576 6.64559 22.0109 6.58337C21.9642 6.51337 21.8865 6.45115 21.7776 6.38892C21.6998 6.34226 21.5909 6.29559 21.4509 6.24892C21.3109 6.20226 21.1631 6.16337 21.0076 6.12448C20.8442 6.09337 20.6809 6.06226 20.502 6.03892C20.3309 6.01559 20.152 6.00781 19.9809 6.00781C19.6387 6.00781 19.312 6.0467 19.0009 6.14003C18.6898 6.23337 18.4253 6.36559 18.192 6.54448C17.9587 6.71559 17.772 6.93337 17.632 7.18226C17.492 7.43115 17.422 7.71892 17.422 8.04559C17.422 8.45003 17.5542 8.83115 17.8109 9.17337C18.0676 9.52337 18.4876 9.78781 19.0553 9.9667L20.1831 10.3167C20.5642 10.4411 20.8287 10.5734 20.9687 10.7211C21.1087 10.8689 21.1787 11.0478 21.1787 11.2656C21.1787 11.5845 21.0387 11.8334 20.7742 12.0045C20.5098 12.1756 20.1287 12.2611 19.6387 12.2611C19.3276 12.2611 19.0242 12.23 18.7131 12.1678C18.4098 12.1056 18.122 12.0123 17.8576 11.8956C17.83 11.8846 17.8034 11.8735 17.7785 11.8632C17.7331 11.8444 17.6933 11.8279 17.6631 11.8178C17.6165 11.8023 17.5698 11.7945 17.5231 11.7945C17.4065 11.7945 17.3442 11.8723 17.3442 12.0356V12.4323C17.3442 12.5023 17.3598 12.58 17.3909 12.65C17.422 12.72 17.5076 12.7978 17.632 12.8678C17.8342 12.9845 18.1376 13.0856 18.5265 13.1789ZM6.72757 11.7789C6.67312 11.6078 6.64201 11.3745 6.64201 11.0867H6.62645V8.5667C6.62645 7.71115 6.40868 7.07337 5.9809 6.65337C5.54534 6.23337 4.86868 6.02337 3.94312 6.02337C3.51534 6.02337 3.1109 6.07003 2.72979 6.17115C2.34868 6.26448 2.02201 6.38115 1.74979 6.52115C1.6409 6.57559 1.5709 6.63003 1.53201 6.68448C1.49312 6.73892 1.47757 6.83226 1.47757 6.9567V7.33781C1.47757 7.50115 1.53201 7.57892 1.6409 7.57892C1.67201 7.57892 1.7109 7.57115 1.76534 7.55559C1.81979 7.54003 1.91312 7.50892 2.03757 7.45448C2.30979 7.34559 2.58979 7.26003 2.87757 7.19003C3.16534 7.12003 3.44534 7.08892 3.71757 7.08892C4.31645 7.08892 4.73645 7.20559 4.98534 7.4467C5.22645 7.68781 5.3509 8.10003 5.3509 8.69115V9.25892C5.03979 9.18892 4.74423 9.1267 4.45645 9.08781C4.16868 9.04892 3.89645 9.02559 3.63201 9.02559C2.8309 9.02559 2.2009 9.22781 1.72645 9.63226C1.25201 10.0367 1.01868 10.5734 1.01868 11.2345C1.01868 11.8567 1.21312 12.3545 1.59423 12.7278C1.97534 13.1011 2.49645 13.2878 3.14979 13.2878C4.06757 13.2878 4.82979 12.93 5.43645 12.2145C5.52201 12.3934 5.59979 12.5411 5.67757 12.6734C5.75534 12.7978 5.84868 12.9223 5.95757 13.0389C6.03534 13.1089 6.11312 13.1478 6.1909 13.1478C6.25312 13.1478 6.32312 13.1245 6.39312 13.0778L6.88312 12.7511C6.98423 12.6734 7.0309 12.5956 7.0309 12.5178C7.0309 12.4634 7.01534 12.4011 6.97645 12.3389C6.86757 12.1367 6.78979 11.95 6.72757 11.7789ZM4.28534 12.1289C4.00534 12.2223 3.7409 12.2689 3.48423 12.2689C3.12645 12.2689 2.85423 12.1756 2.66757 11.9811C2.47312 11.7945 2.37979 11.5223 2.37979 11.1567C2.37979 10.7678 2.50423 10.4723 2.7609 10.2623C3.01757 10.0523 3.39868 9.95115 3.91979 9.95115C4.1609 9.95115 4.40201 9.9667 4.6509 9.99781C4.89979 10.0289 5.1409 10.0756 5.36645 10.13V10.4567C5.36645 10.7211 5.33534 10.9467 5.28868 11.1334C5.24201 11.32 5.14868 11.4834 5.02423 11.6311C4.81423 11.8645 4.56534 12.0356 4.28534 12.1289ZM9.72979 13.1089C9.58979 13.1089 9.49645 13.0856 9.43423 13.0311C9.37201 12.9845 9.31757 12.8756 9.2709 12.7278L7.44312 6.71559C7.39645 6.56003 7.37312 6.45892 7.37312 6.40448C7.37312 6.28003 7.43534 6.21003 7.55979 6.21003H8.32201C8.46979 6.21003 8.5709 6.23337 8.62534 6.28781C8.68757 6.33448 8.73423 6.44337 8.7809 6.59115L10.0876 11.74L11.3009 6.59115C11.3398 6.43559 11.3865 6.33448 11.4487 6.28781C11.5109 6.24115 11.6198 6.21003 11.7598 6.21003H12.382C12.5298 6.21003 12.6309 6.23337 12.6931 6.28781C12.7553 6.33448 12.8098 6.44337 12.8409 6.59115L14.0698 11.8023L15.4153 6.59115C15.462 6.43559 15.5165 6.33448 15.5709 6.28781C15.6331 6.24115 15.7342 6.21003 15.8742 6.21003H16.5976C16.722 6.21003 16.792 6.27226 16.792 6.40448C16.792 6.4377 16.7863 6.47092 16.7798 6.50898L16.7765 6.52892C16.7687 6.57559 16.7531 6.63781 16.722 6.72337L14.8476 12.7356C14.8009 12.8911 14.7465 12.9923 14.6842 13.0389C14.622 13.0856 14.5209 13.1167 14.3887 13.1167H13.7198C13.572 13.1167 13.4709 13.0934 13.4087 13.0389C13.3465 12.9845 13.292 12.8834 13.2609 12.7278L12.0553 7.71115L10.8576 12.72C10.8187 12.8756 10.772 12.9767 10.7098 13.0311C10.6476 13.0856 10.5387 13.1089 10.3987 13.1089H9.72979Z" fill="#424956"/>
<path id="Shape2" d="M21.1942 17.099C18.6354 18.989 14.9176 19.9923 11.7209 19.9923C7.24091 19.9923 3.20425 18.3356 0.155359 15.5823C-0.085752 15.3645 0.132026 15.069 0.419804 15.2401C3.71758 17.1534 7.78536 18.3123 11.9931 18.3123C14.832 18.3123 17.9509 17.7212 20.8209 16.5078C21.2487 16.3134 21.6142 16.7878 21.1942 17.099Z" fill="#F8981D"/>
<path id="Shape1" d="M22.2598 15.8856C21.9331 15.4656 20.0976 15.6833 19.2654 15.7845C19.0165 15.8156 18.9776 15.5978 19.2031 15.4345C20.6654 14.4078 23.0687 14.7033 23.3487 15.0456C23.6287 15.3956 23.2709 17.7989 21.902 18.95C21.692 19.1289 21.4898 19.0356 21.5831 18.8022C21.8943 18.0322 22.5865 16.2978 22.2598 15.8856Z" fill="#F8981D"/>
</g>
</g>
</g>
</svg>
