<svg width="4" height="8" viewBox="0 0 4 8" fill="none" xmlns="http://www.w3.org/2000/svg">
<path d="M3.9905 3.94286C3.97913 3.85511 3.94155 3.77284 3.8827 3.70686L0.702717 0.151861C0.669638 0.107715 0.627357 0.0713147 0.578814 0.0452018C0.530271 0.0190888 0.476636 0.00388969 0.421633 0.000653719C0.366631 -0.00258225 0.311585 0.00622273 0.260325 0.026464C0.209066 0.0467052 0.162825 0.0778927 0.124817 0.117856C0.0447306 0.201311 0 0.312587 0 0.428358C0 0.544128 0.0447306 0.655405 0.124817 0.738859L3.04428 4.00086L0.12781 7.26286C0.0480178 7.34627 0.00347243 7.45733 0.00347243 7.57286C0.00347243 7.68839 0.0480178 7.79945 0.12781 7.88286C0.16625 7.92297 0.212949 7.95421 0.264658 7.97442C0.316367 7.99462 0.37185 8.00331 0.427245 7.99986C0.482179 7.99618 0.535693 7.98081 0.584228 7.95477C0.632764 7.92873 0.675203 7.89263 0.70871 7.84886L3.88868 4.29386C3.93049 4.24637 3.96173 4.19051 3.98031 4.12999C3.9989 4.06947 4.00441 4.00568 3.99648 3.94286H3.9905Z" fill="#404040"/>
</svg>
