<svg width="20" height="20" viewBox="0 0 20 20" fill="none" xmlns="http://www.w3.org/2000/svg">
<path d="M5.68166 13.2636C5.29096 13.654 4.65752 13.654 4.26683 13.2636L4.2074 13.2042C3.81671 12.8139 3.81671 12.181 4.2074 11.7906L9.29566 6.7068C9.68636 6.31645 10.3198 6.31645 10.7105 6.7068L10.7699 6.76618C11.1606 7.15653 11.1606 7.78942 10.7699 8.17978L5.68166 13.2636Z" fill="#999999"/>
<path d="M9.25917 8.20942C8.86848 7.81907 8.86848 7.18618 9.25917 6.79583L9.28947 6.76555C9.68017 6.3752 10.3136 6.3752 10.7043 6.76555L15.7926 11.8494C16.1833 12.2397 16.1833 12.8726 15.7926 13.263L15.7623 13.2932C15.3716 13.6836 14.7381 13.6836 14.3474 13.2932L9.25917 8.20942Z" fill="#999999"/>
</svg>
