<svg width="21" height="19" viewBox="0 0 21 19" fill="none" xmlns="http://www.w3.org/2000/svg">
<path d="M14.8183 6.2364C15.209 5.84605 15.8424 5.84605 16.2331 6.2364L16.2926 6.29578C16.6833 6.68613 16.6833 7.31902 16.2926 7.70937L11.2043 12.7932C10.8136 13.1835 10.1802 13.1835 9.78947 12.7932L9.73005 12.7338C9.33935 12.3435 9.33935 11.7106 9.73005 11.3202L14.8183 6.2364Z" fill="#999999"/>
<path d="M11.2408 11.2906C11.6315 11.681 11.6315 12.3139 11.2408 12.7042L11.2105 12.7345C10.8198 13.1249 10.1864 13.1249 9.79566 12.7345L4.7074 7.65068C4.31671 7.26033 4.31671 6.62744 4.7074 6.23709L4.7377 6.20681C5.1284 5.81646 5.76184 5.81646 6.15253 6.20681L11.2408 11.2906Z" fill="#999999"/>
</svg>
