<svg width="20" height="20" viewBox="0 0 20 20" fill="none" xmlns="http://www.w3.org/2000/svg">
<path fill-rule="evenodd" clip-rule="evenodd" d="M14.2094 14.2094C14.5969 13.8219 14.5969 13.1937 14.2094 12.8063L11.4032 10L14.2094 7.19378C14.5969 6.80632 14.5969 6.17811 14.2094 5.79065C13.8219 5.40319 13.1937 5.40319 12.8063 5.79065L10 8.59689L7.19374 5.7906C6.80627 5.40313 6.17807 5.40313 5.7906 5.7906C5.40314 6.17806 5.40314 6.80627 5.7906 7.19373L8.59689 10L5.7906 12.8063C5.40313 13.1938 5.40313 13.822 5.7906 14.2095C6.17806 14.5969 6.80627 14.5969 7.19373 14.2095L10 11.4032L12.8063 14.2094C13.1937 14.5969 13.8219 14.5969 14.2094 14.2094Z" fill="#999999"/>
</svg>
