<svg id="Layer_1" data-name="Layer 1" xmlns="http://www.w3.org/2000/svg" viewBox="0 0 15 15"><defs><style>.cls-1{fill:none;}</style></defs><rect class="cls-1" x="-0.09" width="15" height="15"/><path d="M7.26,5.47,8.54,6.76,3.63,11.67H2.34V10.39L7.26,5.47m0-1.06L1.59,10.08v2.34H3.94L9.6,6.76,7.26,4.41Z"/><path d="M8.29,3.9,9.17,3A.25.25,0,0,1,9.35,3,.21.21,0,0,1,9.52,3L11,4.49a.28.28,0,0,1,.07.17.29.29,0,0,1-.07.18l-.88.88Z"/><path d="M9.35,3.38l1.28,1.28-.52.53L8.83,3.9l.52-.52m0-.8a.62.62,0,0,0-.44.18L7.76,3.9l2.35,2.35L11.25,5.1a.61.61,0,0,0,0-.88L9.79,2.76a.64.64,0,0,0-.44-.18Z"/><polygon points="7.25 11.42 6.17 12.42 13.22 12.42 13.22 11.42 7.25 11.42"/></svg>