<svg width="20" height="20" viewBox="0 0 20 20" fill="none" xmlns="http://www.w3.org/2000/svg">
<g id="Icons/Miscellaneous/Outlined/Filter">
<g id="Icons / Miscellaneous / Filter">
<path id="Icons / Miscellaneous / Filter_2" fill-rule="evenodd" clip-rule="evenodd" d="M10.5 16C11.0523 16 11.5 15.5523 11.5 15C11.5 14.4477 11.0523 14 10.5 14H9.5C8.94772 14 8.5 14.4477 8.5 15C8.5 15.5523 8.94772 16 9.5 16H10.5ZM1.5 4.28571C1.5 5.23249 2.26751 6 3.21429 6H17.5C18.0523 6 18.5 5.55228 18.5 5C18.5 4.44772 18.0523 4 17.5 4H1.78572C1.62792 4 1.5 4.12792 1.5 4.28571ZM13.5 11C14.0523 11 14.5 10.5523 14.5 10C14.5 9.44772 14.0523 9 13.5 9H6.5C5.94772 9 5.5 9.44772 5.5 10C5.5 10.5523 5.94772 11 6.5 11H13.5Z" fill="#999999"/>
</g>
</g>
</svg>
