<svg width="24" height="24" viewBox="0 0 24 24" fill="none" xmlns="http://www.w3.org/2000/svg">
<path d="M14.7878 8.84221H15.3063L16.7841 7.36443L16.8567 6.73702C15.1356 5.21791 12.7521 4.6952 10.5532 5.35465C8.35434 6.0141 6.65185 7.76222 6.05078 9.97776C6.21541 9.91029 6.39778 9.89934 6.5693 9.94665L9.52486 9.45925C9.52486 9.45925 9.67523 9.21036 9.753 9.22591C11.0677 7.78203 13.2802 7.61376 14.7982 8.84221H14.7878Z" fill="#EA4335"/>
<path d="M18.889 9.97774C18.5493 8.72689 17.8519 7.60238 16.8823 6.74219L14.8082 8.81626C15.684 9.53188 16.1829 10.6099 16.1616 11.7407V12.1089C17.181 12.1089 18.0075 12.9353 18.0075 13.9548C18.0075 14.9743 17.181 15.8007 16.1616 15.8007H12.4697L12.1016 16.174V18.3881L12.4697 18.7563H16.1616C18.2783 18.7727 20.1561 17.401 20.7842 15.3795C21.4123 13.358 20.6424 11.1637 18.889 9.97774Z" fill="#4285F4"/>
<path d="M8.77254 18.7355H12.4644V15.7799H8.77254C8.50951 15.7799 8.24957 15.7233 8.01032 15.614L7.4918 15.7748L6.00365 17.2525L5.87402 17.7711C6.70854 18.4012 7.72683 18.74 8.77254 18.7355Z" fill="#34A853"/>
<path d="M8.77309 9.1481C6.72239 9.16035 4.90584 10.4737 4.25137 12.4172C3.5969 14.3607 4.24901 16.5053 5.87457 17.7555L8.01606 15.614C7.26785 15.276 6.83283 14.4844 6.94858 13.6716C7.06433 12.8588 7.70301 12.2201 8.51584 12.1043C9.32866 11.9886 10.1202 12.4236 10.4583 13.1718L12.5998 11.0303C11.6886 9.83917 10.2728 9.14276 8.77309 9.1481Z" fill="#FBBC05"/>
</svg>
