<svg width="10" height="6" viewBox="0 0 10 6" fill="none" xmlns="http://www.w3.org/2000/svg">
<path d="M8.9607 0.00292969C8.80725 0.00292969 8.66187 0.0659643 8.55588 0.175272L4.76922 4.10073L0.965802 0.165514L0.955032 0.156611C0.845761 0.0662871 0.706646 0.0197561 0.56427 0.0279955C0.42194 0.0362322 0.289223 0.0984397 0.190921 0.200222C0.0928315 0.301784 0.0356456 0.435645 0.0280825 0.575752C0.0205207 0.715836 0.0629361 0.854973 0.149009 0.966604L0.157486 0.977598L4.35499 5.3257C4.40665 5.38088 4.46893 5.42532 4.53844 5.45595C4.60887 5.48697 4.68498 5.50305 4.7621 5.50293L4.76589 5.50289C4.91845 5.50035 5.0625 5.43592 5.16743 5.32676L9.35576 0.990143C9.40881 0.93783 9.45095 0.875676 9.48017 0.807452C9.51 0.73783 9.52589 0.663034 9.52714 0.587433C9.52839 0.511839 9.51497 0.436565 9.48749 0.366002C9.46001 0.295432 9.41825 0.23006 9.36552 0.175271C9.25953 0.0659654 9.11415 0.00292969 8.9607 0.00292969Z" fill="#404040"/>
</svg>
