<svg width="10" height="6" viewBox="0 0 10 6" fill="none" xmlns="http://www.w3.org/2000/svg">
<path d="M0.59374 5.50293C0.747192 5.50293 0.892573 5.4399 0.998562 5.33059L4.78522 1.40513L8.58864 5.34035L8.59941 5.34925C8.70868 5.43957 8.8478 5.4861 8.99017 5.47786C9.1325 5.46963 9.26522 5.40742 9.36352 5.30564C9.46161 5.20408 9.5188 5.07021 9.52636 4.93011C9.53392 4.79002 9.49151 4.65089 9.40543 4.53926L9.39696 4.52826L5.19945 0.180161C5.14779 0.124982 5.08551 0.0805397 5.016 0.0499144C4.94558 0.0188851 4.86946 0.00281191 4.79234 0.00293016L4.78855 0.0029645C4.636 0.0055089 4.49194 0.0699415 4.38701 0.179102L0.19868 4.51572C0.145635 4.56803 0.103496 4.63018 0.0742693 4.69841C0.0444441 4.76803 0.0285501 4.84283 0.0273027 4.91843C0.0260544 4.99402 0.0394688 5.06929 0.0669508 5.13986C0.0944347 5.21043 0.13619 5.2758 0.188922 5.33059C0.294909 5.43989 0.440289 5.50293 0.59374 5.50293Z" fill="#404040"/>
</svg>
