<svg width="20" height="20" viewBox="0 0 20 20" fill="currentColor" xmlns="http://www.w3.org/2000/svg">
<path fill-rule="evenodd" clip-rule="evenodd" d="M13.3837 15.0962C11.9937 16.0933 10.284 16.6813 8.43539 16.6813C3.77665 16.6813 0 12.9471 0 8.34065C0 3.73424 3.77665 0 8.43539 0C13.0941 0 16.8708 3.73424 16.8708 8.34065C16.8708 10.2836 16.1988 12.0715 15.0722 13.4893L19.6569 18.0224C20.1144 18.4748 20.1144 19.2083 19.6569 19.6607C19.1993 20.1131 18.4575 20.1131 18 19.6607L13.3837 15.0962ZM14.9962 8.34065C14.9962 11.9234 12.0588 14.8278 8.43539 14.8278C4.81193 14.8278 1.87453 11.9234 1.87453 8.34065C1.87453 4.75788 4.81193 1.85348 8.43539 1.85348C12.0588 1.85348 14.9962 4.75788 14.9962 8.34065Z" fill="currentColor"/>
</svg>
