<svg xmlns="http://www.w3.org/2000/svg" xmlns:xlink="http://www.w3.org/1999/xlink" version="1.1" id="Layer_1" x="0px" y="0px" style="enable-background:new 0 0 792 612;" xml:space="preserve" viewBox="216 274.4 345.1 63.2">
<style type="text/css">
	.st0{fill:#FFFFFF;}
</style>
<g>
	<g>
		<g>
			<path class="st0" d="M520,286.8h11.1v5.6c2.7-3.6,6.4-6.3,12.2-6.3c9.1,0,17.8,7.1,17.8,20.2v0.1c0,13.1-8.5,20.2-17.8,20.2     c-5.9,0-9.6-2.7-12.2-5.8v16.8H520V286.8z M550,306.4v-0.1c0-6.5-4.4-10.8-9.6-10.8c-5.2,0-9.5,4.3-9.5,10.8v0.1     c0,6.5,4.3,10.8,9.5,10.8C545.6,317.2,550,313,550,306.4z"/>
			<g>
				<g>
					<g>
						<g>
							<g>
								<path class="st0" d="M299.9,274.5h10.4l23.9,31.8v-31.8h11.1v51.4h-9.6L311,293.4v32.5h-11.1V274.5z"/>
								<path class="st0" d="M350.7,306.6v-0.1c0-11.2,8-20.3,19.3-20.3c13.1,0,19,10.1,19,21.2c0,0.9-0.1,1.9-0.1,2.9h-27.2          c1.1,5,4.6,7.7,9.6,7.7c3.7,0,6.4-1.2,9.5-4l6.3,5.6c-3.6,4.5-8.9,7.3-16,7.3C359.3,326.8,350.7,318.5,350.7,306.6z           M378.2,303.3c-0.7-5-3.6-8.3-8.2-8.3c-4.6,0-7.6,3.3-8.5,8.3H378.2z"/>
								<path class="st0" d="M396,314.8v-18.5h-4.7v-9.5h4.7v-10H407v10h9.2v9.5H407V313c0,2.6,1.1,3.8,3.6,3.8c2,0,3.9-0.5,5.5-1.4          v8.9c-2.3,1.4-5,2.3-8.8,2.3C400.6,326.5,396,323.8,396,314.8z"/>
								<path class="st0" d="M474.5,286.8h11.1v5.6c2.7-3.6,6.4-6.3,12.2-6.3c9.1,0,17.8,7.1,17.8,20.2v0.1          c0,13.1-8.5,20.2-17.8,20.2c-5.9,0-9.6-2.7-12.2-5.8v16.8h-11.1V286.8z M504.4,306.4v-0.1c0-6.5-4.4-10.8-9.6-10.8          c-5.2,0-9.5,4.3-9.5,10.8v0.1c0,6.5,4.3,10.8,9.5,10.8C500.1,317.2,504.4,313,504.4,306.4z"/>
								<path class="st0" d="M440.3,274.4h10.1l21.3,51.4H460l-4.7-11.5H435l-4.7,11.5h-11.4L440.3,274.4z M452,304.5l-6.8-16.6          l-6.8,16.6H452z"/>
							</g>
						</g>
					</g>
				</g>
			</g>
		</g>
		<polygon class="st0" points="216,274.5 216,325.9 240,325.9 240,295 253.7,295 253.7,325.9 277.7,325.9 277.7,274.5   "/>
	</g>
</g>
</svg>