<?xml version="1.0" encoding="utf-8"?><!DOCTYPE svg PUBLIC "-//W3C//DTD SVG 1.1//EN" "http://www.w3.org/Graphics/SVG/1.1/DTD/svg11.dtd"><svg xmlns="http://www.w3.org/2000/svg" xmlns:xlink="http://www.w3.org/1999/xlink"><symbol viewBox="0 0 684.9 628" id="analytical-brain"><title>analytical-brain</title><g data-name="Layer 1"><path d="M411.1 54.1a27.14 27.14 0 0 0 25.2-17.2h91.1l120.7 85.8v59.4a27 27 0 1 0 17.6-.7v-67.8L532.9 19.2h-96.1a27 27 0 0 0-52.9 7.8 27.27 27.27 0 0 0 27.2 27.1z"/><path d="M314.4 55.7a26.34 26.34 0 0 0 15.9-5.2l109.5 74.9a27.63 27.63 0 0 0-.9 7.1 27.16 27.16 0 0 0 17.7 25.4v93.9l45.8 35a25.05 25.05 0 0 0-.6 5.5 26.87 26.87 0 1 0 9.7-20.8l-37.3-28.4v-85a27 27 0 1 0-24.5-47.4L340.2 35.9a28.44 28.44 0 0 0 1-7.2 27 27 0 1 0-54 0 27.32 27.32 0 0 0 27.2 27z"/><path d="M655.9 265.4a26.87 26.87 0 0 0-17.5 6.4l-58.7-34.6v-68.1a27 27 0 1 0-17.6-.7v78.9l67.4 39.9a30.72 30.72 0 0 0-.5 5.3 27 27 0 0 0 19.4 25.9l.2 16.3-153.5 59.2V439a27 27 0 0 0 0 51v36.5a27.05 27.05 0 1 0 17.7 0v-36.4a27 27 0 0 0 0-51v-32.9l153.6-59.3-.3-29.3a27.1 27.1 0 0 0-10.2-52.2zM466.5 386.1a27 27 0 0 0-53.8-3.3H275.8a27 27 0 0 0-53.6 0h-53.5l-73-48.8a25.89 25.89 0 0 0 .7-6.3 27 27 0 1 0-10.3 21.2l77.3 51.5h62.8a27.11 27.11 0 0 0 45.8 0h144.7a26.83 26.83 0 0 0 13.9 11.1v164a27.05 27.05 0 1 0 17.7 0V411.7a27.2 27.2 0 0 0 18.2-25.6zM303.8 256.8a27 27 0 1 0 35.4-25.7v-49.9l-62.5-43.7a27.39 27.39 0 0 0 1.2-8.1 27 27 0 1 0-11.8 22.3l55.4 38.8v41a27 27 0 0 0-17.7 25.3zM82.7 224.6a27 27 0 0 0 52.6 8.5h59.3a26.94 26.94 0 1 0 .2-17.7h-59.7a27 27 0 0 0-52.4 9.2z"/><path d="M158.8 184a27 27 0 0 0 27-27 26.26 26.26 0 0 0-.5-4.9l.4.4 20-18V73.6a27.1 27.1 0 0 0 13.5-10l26.2-.8 135.9 98.4v27.2a27 27 0 1 0 17.7-.3v-36L251 44.9l-26.9.8a27 27 0 1 0-36 27.7v53.2l-11.3 10.2a27 27 0 0 0-44.9 20.2 26.87 26.87 0 0 0 26.9 27z"/><path d="M158.1 328.3h237.6a27.09 27.09 0 1 0-4.1-17.7H163.3L41.4 233.5v-95.2a27.16 27.16 0 0 0 10.2-33.8l29-30.3A27.32 27.32 0 0 0 94.5 78a27 27 0 1 0-27-27 27.55 27.55 0 0 0 1.7 9.5L39.5 91.6A26.3 26.3 0 0 0 27 88.5a27 27 0 0 0-3.2 53.8v100.9z"/></g></symbol><symbol viewBox="0 0 1792 1792" id="arrow-circle-o-right"><path d="M1280 896q0 14-9 23l-320 320q-9 9-23 9-13 0-22.5-9.5T896 1216v-192H544q-13 0-22.5-9.5T512 992V800q0-13 9.5-22.5T544 768h352V576q0-14 9-23t23-9q12 0 24 10l319 319q9 9 9 23zm160 0q0-148-73-273t-198-198-273-73-273 73-198 198-73 273 73 273 198 198 273 73 273-73 198-198 73-273zm224 0q0 209-103 385.5T1281.5 1561 896 1664t-385.5-103T231 1281.5 128 896t103-385.5T510.5 231 896 128t385.5 103T1561 510.5 1664 896z"/></symbol><symbol viewBox="0 0 1792 1792" id="arrow-down"><path d="M1675 832q0 53-37 90l-651 652q-39 37-91 37-53 0-90-37L155 922q-38-36-38-90 0-53 38-91l74-75q39-37 91-37 53 0 90 37l294 294V256q0-52 38-90t90-38h128q52 0 90 38t38 90v704l294-294q37-37 90-37 52 0 91 37l75 75q37 39 37 91z"/></symbol><symbol viewBox="0 0 1792 1792" id="arrow-left"><path d="M491.538 430.615c23.922 0 47.844 8.945 66.11 26.477 18.257 17.625 27.39 40.812 27.39 63.914 0 23.016-9.133 46.203-27.39 63.734L327.912 806.717h1362.875c51.633 0 93.406 40.445 93.406 90.305 0 49.852-41.773 90.21-93.406 90.21H327.733l229.914 222.063c36.523 35.29 36.523 92.406 0 127.648-36.344 35.242-95.695 35.242-132.03 0L36.64 961.256a89.197 89.197 0 0 1-18.992-25.977v-.095l-.188-.094c-1.094-2.14-1.82-4.382-2.734-6.757 0 0-.188 0-.188-.086v-.094-.18c-5.29-14.11-6.938-28.898-4.93-43.28v-.19-.18c.188-.18.188-.18.188-.272v-.273c.36-2.742 1.094-5.39 1.64-8.125 0-.188 0 0 .18-.367 3.837-15.344 11.876-29.398 23.563-41.18l.18-.18.187-.094c0-.093 0-.272.36-.272v-.188l.187-.18 389.523-376.102c18.257-17.527 42.18-26.473 65.92-26.473z"/></symbol><symbol viewBox="0 0 1792 1792" id="arrow-right"><path d="M1301.438 1363.375c-23.922 0-47.844-8.945-66.11-26.477-18.257-17.625-27.39-40.812-27.39-63.914 0-23.016 9.133-46.203 27.39-63.734l229.735-221.977H102.188c-51.633 0-93.406-40.445-93.406-90.305 0-49.852 41.773-90.21 93.406-90.21h1363.055L1235.33 584.694c-36.524-35.29-36.524-92.406 0-127.648 36.343-35.242 95.694-35.242 132.03 0l388.977 375.688a89.197 89.197 0 0 1 18.992 25.977v.094l.187.094c1.094 2.14 1.82 4.383 2.734 6.758 0 0 .19 0 .19.086v.274c5.288 14.11 6.937 28.898 4.93 43.28v.37c-.19.18-.19.18-.19.272v.274c-.358 2.742-1.093 5.39-1.64 8.125 0 .187 0 0-.18.366-3.836 15.344-11.875 29.398-23.562 41.18l-.18.18-.188.094c0 .094 0 .273-.36.273v.188l-.187.18-389.523 376.103c-18.258 17.527-42.18 26.472-65.922 26.472z"/></symbol><symbol viewBox="0 0 1792 1792" id="arrow-up"><path d="M1675 971q0 51-37 90l-75 75q-38 38-91 38-54 0-90-38l-294-293v704q0 52-37.5 84.5T960 1664H832q-53 0-90.5-32.5T704 1547V843l-294 293q-36 38-90 38t-90-38l-75-75q-38-38-38-90 0-53 38-91l651-651q35-37 90-37 54 0 91 37l651 651q37 39 37 91z"/></symbol><symbol viewBox="0 0 192.27 192.76" id="arrows-reduce"><title>Arrows-Reduce_RGB</title><path d="M29.83 58.43a6.12 6.12 0 0 1 0 8.65L17.39 79.53c-2.45 2.45-.18 7.1 3.47 7.34L82.1 87a3.77 3.77 0 0 0 2.64-1.05 3.71 3.71 0 0 0 1.09-2.59l-.08-61.61c-.24-3.65-4.83-5.73-7.29-3.28l-10 10a8 8 0 0 1-11.31 0L30.94 2.34a8 8 0 0 0-11.31 0L2.34 19.62a8 8 0 0 0 0 11.31zM170.49 85.74c3.65-.24 5.73-4.83 3.28-7.29l-10-10a8 8 0 0 1 0-11.31L189.93 31a8 8 0 0 0 0-11.31L172.61 2.34a8 8 0 0 0-11.31 0l-27.5 27.49a6.12 6.12 0 0 1-8.65 0L112.7 17.39c-2.45-2.45-7.1-.18-7.34 3.47l-.13 61.24a3.77 3.77 0 0 0 1.05 2.64 3.71 3.71 0 0 0 2.59 1.09zM162.4 134.3a6.12 6.12 0 0 1 0-8.65l12.44-12.44c2.45-2.45.18-7.1-3.47-7.34l-61.24-.13a3.77 3.77 0 0 0-2.64 1.05 3.71 3.71 0 0 0-1.09 2.59l.08 61.61c.24 3.65 4.83 5.73 7.29 3.28l10-10a8 8 0 0 1 11.31 0l26.16 26.16a8 8 0 0 0 11.31 0l17.28-17.28a8 8 0 0 0 0-11.31zM83.35 106.9l-61.61.1c-3.65.24-5.73 4.83-3.28 7.29l10 10a8 8 0 0 1 0 11.31L2.34 161.79a8 8 0 0 0 0 11.31l17.28 17.28a8 8 0 0 0 11.31 0l27.49-27.49a6.12 6.12 0 0 1 8.65 0l12.44 12.44c2.45 2.45 7.1.18 7.34-3.47l.15-61.23a3.77 3.77 0 0 0-1.05-2.63 3.71 3.71 0 0 0-2.6-1.1z"/></symbol><symbol viewBox="0 0 192 193.1" id="autosupport"><defs><style>.ahcls-1{fill:#454545}</style></defs><title>autosupport</title><g id="ahLayer_2" data-name="Layer 2"><path class="ahcls-1" d="M185.6 76.1h-12a3.42 3.42 0 0 1-3.3-2.4 74.2 74.2 0 0 0-5.4-13 3.5 3.5 0 0 1 .6-4.1l8.5-8.5a6.82 6.82 0 0 0 0-9.7l-19.5-19.5a6.82 6.82 0 0 0-9.7 0l-8.5 8.5a3.48 3.48 0 0 1-4.1.6 70.19 70.19 0 0 0-12.9-5.4 3.46 3.46 0 0 1-2.3-3.3v-12a7.53 7.53 0 0 0-7.2-7.3H82.3A7.79 7.79 0 0 0 75 7.4v12a3.33 3.33 0 0 1-2.3 3.3 73.22 73.22 0 0 0-12.9 5.4 3.35 3.35 0 0 1-4-.6L47.4 19a6.82 6.82 0 0 0-9.7 0L18.1 38.5a6.82 6.82 0 0 0 0 9.7l8.5 8.5a3.48 3.48 0 0 1 .6 4.1 71.15 71.15 0 0 0-5.4 13 3.46 3.46 0 0 1-3.3 2.3h-12c-3.8 0-6.5 3.2-6.5 7v27.6a6.17 6.17 0 0 0 6.5 6.4h12a3.71 3.71 0 0 1 3.3 2.7 76.18 76.18 0 0 0 5.4 13.2 3.48 3.48 0 0 1-.6 4.1l-8.5 8.5a6.94 6.94 0 0 0 0 9.8l19.5 19.5a6.82 6.82 0 0 0 9.7 0l8.5-8.5a3.35 3.35 0 0 1 4-.6 73.22 73.22 0 0 0 12.9 5.4 3.33 3.33 0 0 1 2.3 3.3v12c0 3.8 3.5 6.6 7.3 6.6h27.5c3.8 0 7.2-2.8 7.2-6.6v-12a3.46 3.46 0 0 1 2.3-3.3 77.52 77.52 0 0 0 13-5.4 3.35 3.35 0 0 1 4 .6l8.5 8.5a6.82 6.82 0 0 0 9.7 0l19.5-19.5a6.82 6.82 0 0 0 0-9.7l-8.5-8.5a3.48 3.48 0 0 1-.6-4.1 74.08 74.08 0 0 0 5.4-13.3 3.85 3.85 0 0 1 3.3-2.7h12a6.09 6.09 0 0 0 6.4-6.4V83.1c0-3.8-2.6-7-6.4-7zm-89.5 62.1a41.3 41.3 0 1 1 41.3-41.3 41.31 41.31 0 0 1-41.3 41.3z" id="ahArtwork"/></g></symbol><symbol id="autosupport-on-demand" viewBox="0 0 224 177"><defs><style>.aicls-1{fill:#231f20}</style></defs><title>autosupport-on-demand</title><path class="aicls-1" d="M151.87 63.37h-5.34a1.5 1.5 0 0 1-1.46-1.06 34.08 34.08 0 0 0-2.41-5.79 1.52 1.52 0 0 1 .25-1.81l3.78-3.77a3.07 3.07 0 0 0 0-4.33L138 37.94a3.06 3.06 0 0 0-4.33 0l-3.78 3.78a1.53 1.53 0 0 1-1.81.26 33.88 33.88 0 0 0-5.73-2.4 1.48 1.48 0 0 1-1-1.46v-5.33a3.33 3.33 0 0 0-3.19-3.24H105.9a3.38 3.38 0 0 0-3.24 3.24v5.32a1.46 1.46 0 0 1-1 1.46A33.59 33.59 0 0 0 95.89 42a1.5 1.5 0 0 1-1.79-.26L90.35 38A3.07 3.07 0 0 0 86 38l-8.66 8.67a3.07 3.07 0 0 0 0 4.33l3.76 3.76a1.53 1.53 0 0 1 .26 1.81A34.08 34.08 0 0 0 79 62.3a1.5 1.5 0 0 1-1.46 1.06h-5.35a3 3 0 0 0-2.91 3.12v12.27a2.77 2.77 0 0 0 2.91 2.86h5.32A1.63 1.63 0 0 1 79 82.8a34.53 34.53 0 0 0 2.4 5.86 1.56 1.56 0 0 1-.26 1.83l-3.77 3.78a3.08 3.08 0 0 0 0 4.34l8.63 8.67a3.06 3.06 0 0 0 4.33 0l3.76-3.76a1.53 1.53 0 0 1 1.8-.26 33.71 33.71 0 0 0 5.73 2.41 1.46 1.46 0 0 1 1 1.46v5.34a3.13 3.13 0 0 0 3.24 3h12.26a3.08 3.08 0 0 0 3.19-3v-5.34a1.48 1.48 0 0 1 1-1.46 34.14 34.14 0 0 0 5.77-2.41 1.51 1.51 0 0 1 1.79.26l3.76 3.77a3.06 3.06 0 0 0 4.33 0l8.67-8.67a3.07 3.07 0 0 0 0-4.34l-3.78-3.77a1.53 1.53 0 0 1-.26-1.81 34.88 34.88 0 0 0 2.4-5.91 1.64 1.64 0 0 1 1.46-1.2h5.33a2.72 2.72 0 0 0 2.85-2.86V66.49a2.94 2.94 0 0 0-2.76-3.12zM112 88a15.33 15.33 0 1 1 15.33-15.33A15.33 15.33 0 0 1 112 88z"/><path class="aicls-1" d="M216 0H8a8 8 0 0 0-8 8v128a8 8 0 0 0 8 8h75.5a5.5 5.5 0 0 1 0 11H66a8 8 0 0 0-8 8v6a8 8 0 0 0 8 8h92a8 8 0 0 0 8-8v-6a8 8 0 0 0-8-8h-17.5a5.5 5.5 0 0 1 0-11H216a8 8 0 0 0 8-8V8a8 8 0 0 0-8-8zm-14 118a4 4 0 0 1-4 4H26a4 4 0 0 1-4-4V26a4 4 0 0 1 4-4h172a4 4 0 0 1 4 4z"/></symbol><symbol viewBox="0 0 546.46 500" id="autosupport-slash"><defs><style>.ajcls-1{fill:#454545}</style></defs><title>autosupport-slash</title><g id="ajLayer_2" data-name="Layer 2"><g id="ajLayer_1-2" data-name="Layer 1"><path class="ajcls-1" d="M517.71 198.18h-30.85a8.79 8.79 0 0 1-8.48-6.17 190.78 190.78 0 0 0-13.88-33.42A9 9 0 0 1 466 148l21.85-21.85a17.54 17.54 0 0 0 .14-24.8l-.14-.14-7.24-7.21-103.15 101.07a106.2 106.2 0 0 1-148.24 145.29l-103 100.91 10.93 10.93a17.54 17.54 0 0 0 24.8.14l.14-.14L184 430.35a8.61 8.61 0 0 1 10.28-1.54 188.26 188.26 0 0 0 33.17 13.88 8.56 8.56 0 0 1 5.91 8.48V482c0 9.77 9 17 18.77 17h70.71c9.77 0 18.51-7.2 18.51-17v-30.82a8.9 8.9 0 0 1 5.91-8.48 199.32 199.32 0 0 0 33.42-13.88 8.61 8.61 0 0 1 10.32 1.53l21.85 21.85a17.54 17.54 0 0 0 24.8.14l.14-.14 50.14-50.14a17.54 17.54 0 0 0 .14-24.8l-.14-.14L466 355.27a9 9 0 0 1-1.54-10.54 190.48 190.48 0 0 0 13.88-34.2 9.9 9.9 0 0 1 8.48-6.94h30.85a15.66 15.66 0 0 0 16.46-16.46v-71c.04-9.73-6.65-17.95-16.42-17.95zM510.43 0L448.1 61.45l-10.35-10.34A17.54 17.54 0 0 0 413 51l-.14.14L391 73a9 9 0 0 1-10.54 1.54 180.47 180.47 0 0 0-33.17-13.88 8.9 8.9 0 0 1-5.91-8.48v-30.9a19.36 19.36 0 0 0-18.56-18.77h-70.71a20 20 0 0 0-18.77 19v30.88a8.56 8.56 0 0 1-5.91 8.48 188.25 188.25 0 0 0-33.17 13.88A8.61 8.61 0 0 1 184 73.22l-21.6-21.85a17.54 17.54 0 0 0-24.8-.14l-.14.14L87 101.5a17.54 17.54 0 0 0-.14 24.8l.14.14 21.85 21.85a9 9 0 0 1 1.54 10.54 182.93 182.93 0 0 0-13.88 33.42 8.9 8.9 0 0 1-8.51 5.91H57.22c-9.77 0-16.71 8.23-16.71 18v71a15.86 15.86 0 0 0 15.23 16.44h32.33a9.54 9.54 0 0 1 8.48 6.94 195.87 195.87 0 0 0 13.88 33.94A9 9 0 0 1 108.9 355L87 376.87a17.84 17.84 0 0 0 0 25.2l6.7 6.7L0 500h37L546.46 0zM197.2 307.36a106.17 106.17 0 0 1 147.9-145z"/></g></g></symbol><symbol viewBox="0 0 1792 1792" id="bars"><path d="M1664 1344v128q0 26-19 45t-45 19H192q-26 0-45-19t-19-45v-128q0-26 19-45t45-19h1408q26 0 45 19t19 45zm0-512v128q0 26-19 45t-45 19H192q-26 0-45-19t-19-45V832q0-26 19-45t45-19h1408q26 0 45 19t19 45zm0-512v128q0 26-19 45t-45 19H192q-26 0-45-19t-19-45V320q0-26 19-45t45-19h1408q26 0 45 19t19 45z"/></symbol><symbol viewBox="0 0 1792 1792" id="binoculars"><path d="M704 320v768q0 26-19 45t-45 19v576q0 26-19 45t-45 19H64q-26 0-45-19t-19-45v-512l249-873q7-23 31-23h424zm320 0v704H768V320h256zm768 896v512q0 26-19 45t-45 19h-512q-26 0-45-19t-19-45v-576q-26 0-45-19t-19-45V320h424q24 0 31 23zM736 32v224H384V32q0-14 9-23t23-9h288q14 0 23 9t9 23zm672 0v224h-352V32q0-14 9-23t23-9h288q14 0 23 9t9 23z"/></symbol><symbol viewBox="0 0 NaN NaN" id="blog"><path d="M11.4 4.6zM15.8 8.3C15.4 4 12 .6 7.7.2c-.4 0-.7.3-.7.7v.3c0 .3.3.6.6.6 3.5.3 6.4 3.1 6.6 6.6 0 .3.3.6.6.6h.3c.4 0 .7-.3.7-.7z"/><path d="M7 4.1v.4c0 .3.2.6.5.6 1.7.2 3.1 1.6 3.3 3.3 0 .3.3.5.6.5h.4c.4 0 .7-.3.6-.7-.3-2.5-2.3-4.5-4.8-4.8-.3 0-.6.3-.6.7zM8.7 11.5c.1-.2.2-.5.3-.7.3-.5 1-2-.4-3.4S5.7 6.7 5.1 7l-.6.3c-.5.1-1 .1-1.3.1-.2 0-.3.2-.3.4-.2 3.4-1.9 5.4-2.5 6-.1.1-.1.3 0 .4l.1.1c.1.1.3.1.4 0l3.8-3.8c.1-.1.1-.2.1-.2-.1-.3 0-.6.2-.9.5-.4 1.2-.4 1.6 0 .4.4.4 1.1 0 1.6-.3.3-.6.4-.9.3-.1 0-.2 0-.2.1l-3.8 3.8c-.1.1-.1.3 0 .4l.1.1c.1.1.3.1.4 0 .6-.6 2.6-2.4 6-2.5.2 0 .4-.2.4-.4 0-.3 0-.8.1-1.3z"/></symbol><symbol viewBox="0 0 1792 1792" id="book"><path d="M1703 478q40 57 18 129l-275 906q-19 64-76.5 107.5T1247 1664H324q-77 0-148.5-53.5T76 1479q-24-67-2-127 0-4 3-27t4-37q1-8-3-21.5t-3-19.5q2-11 8-21t16.5-23.5T116 1179q23-38 45-91.5t30-91.5q3-10 .5-30t-.5-28q3-11 17-28t17-23q21-36 42-92t25-90q1-9-2.5-32t.5-28q4-13 22-30.5t22-22.5q19-26 42.5-84.5T404 411q1-8-3-25.5t-2-26.5q2-8 9-18t18-23 17-21q8-12 16.5-30.5t15-35 16-36 19.5-32 26.5-23.5 36-11.5T620 134l-1 3q38-9 51-9h761q74 0 114 56t18 130l-274 906q-36 119-71.5 153.5T1089 1408H220q-27 0-38 15-11 16-1 43 24 70 144 70h923q29 0 56-15.5t35-41.5l300-987q7-22 5-57 38 15 59 43zm-1064 2q-4 13 2 22.5t20 9.5h608q13 0 25.5-9.5T1311 480l21-64q4-13-2-22.5t-20-9.5H702q-13 0-25.5 9.5T660 416zm-83 256q-4 13 2 22.5t20 9.5h608q13 0 25.5-9.5T1228 736l21-64q4-13-2-22.5t-20-9.5H619q-13 0-25.5 9.5T577 672z"/></symbol><symbol viewBox="0 0 218.63 190.52" id="branch-office"><title>branch-office</title><path d="M218.63 165.19V25.3a8 8 0 0 0-5.21-7.5L166.61.78a13 13 0 0 0-5.74-.72L9 15.29c-5 .5-9 4.59-9 9.15v142.47c0 4.56 4 8.63 9 9.1l55.56 5.28a6.42 6.42 0 0 0 7.17-6.5v-40.64a3.44 3.44 0 0 1 3.59-3.46l22.73.84a3.82 3.82 0 0 1 3.59 3.84v42a8.2 8.2 0 0 0 7.17 8.1l52.36 5a12 12 0 0 0 5.24-.67l47.05-17.11a8 8 0 0 0 5.17-7.5zm-167.56-9.66a3.26 3.26 0 0 1-3.59 3.25l-22.73-1.61a3.81 3.81 0 0 1-3.59-3.64v-21.45a3.34 3.34 0 0 1 3.59-3.25l22.73.84a3.71 3.71 0 0 1 3.59 3.64zm0-48.44a3.48 3.48 0 0 1-3.59 3.45l-22.73-.34a3.55 3.55 0 0 1-3.59-3.44V85.31a3.57 3.57 0 0 1 3.59-3.45l22.73-.43a3.47 3.47 0 0 1 3.59 3.44zm0-48.44a3.73 3.73 0 0 1-3.59 3.65l-22.73.94A3.32 3.32 0 0 1 21.17 60V38.55a3.83 3.83 0 0 1 3.59-3.65l22.73-1.7a3.25 3.25 0 0 1 3.59 3.24zm50.52 49a3.59 3.59 0 0 1-3.59 3.64L75.28 111a3.64 3.64 0 0 1-3.59-3.64v-22.8a3.68 3.68 0 0 1 3.59-3.66L98 80.47a3.57 3.57 0 0 1 3.59 3.64zm0-51.27A3.84 3.84 0 0 1 98 60.23l-22.73.94a3.43 3.43 0 0 1-3.59-3.44V35a3.94 3.94 0 0 1 3.58-3.86L98 29.4a3.34 3.34 0 0 1 3.59 3.44zm50.52 105.9a3.46 3.46 0 0 1-3.59 3.66l-22.73-1.61a4 4 0 0 1-3.59-4v-24.11a3.53 3.53 0 0 1 3.59-3.66l22.73.84a3.93 3.93 0 0 1 3.59 4zm0-54.09a3.7 3.7 0 0 1-3.59 3.86l-22.73-.34a3.76 3.76 0 0 1-3.59-3.85V83.8a3.78 3.78 0 0 1 3.59-3.86l22.73-.43a3.68 3.68 0 0 1 3.59 3.85zm0-54.09a4 4 0 0 1-3.59 4.06l-22.73.94a3.52 3.52 0 0 1-3.59-3.65V31.39a4 4 0 0 1 3.59-4.06l22.73-1.7a3.44 3.44 0 0 1 3.59 3.65z"/></symbol><symbol viewBox="0 0 1792 1792" id="calendar"><path d="M192 1664h288v-288H192v288zm352 0h320v-288H544v288zm-352-352h288V992H192v320zm352 0h320V992H544v320zM192 928h288V640H192v288zm736 736h320v-288H928v288zM544 928h320V640H544v288zm768 736h288v-288h-288v288zm-384-352h320V992H928v320zM576 448V160q0-13-9.5-22.5T544 128h-64q-13 0-22.5 9.5T448 160v288q0 13 9.5 22.5T480 480h64q13 0 22.5-9.5T576 448zm736 864h288V992h-288v320zM928 928h320V640H928v288zm384 0h288V640h-288v288zm32-480V160q0-13-9.5-22.5T1312 128h-64q-13 0-22.5 9.5T1216 160v288q0 13 9.5 22.5t22.5 9.5h64q13 0 22.5-9.5t9.5-22.5zm384-64v1280q0 52-38 90t-90 38H192q-52 0-90-38t-38-90V384q0-52 38-90t90-38h128v-96q0-66 47-113T480 0h64q66 0 113 47t47 113v96h384v-96q0-66 47-113t113-47h64q66 0 113 47t47 113v96h128q52 0 90 38t38 90z"/></symbol><symbol viewBox="0 0 1792 1792" id="camera"><path d="M22.447 458.724h1166.07v874.553H22.447zM1188.518 750.24h583.035v291.52h-583.035z"/><path d="M1480.035 604.482h291.518v583.035h-291.518z"/><path d="M1625.794 458.724h145.76v874.553h-145.76z"/></symbol><symbol viewBox="0 0 199.79 188.09" id="cdot-cluster"><title>cdot-cluster</title><path d="M23.94 34L5.42 28.4a4.2 4.2 0 0 0-5.42 4v123.27a4.2 4.2 0 0 0 5.42 4l18.53-5.6a4.2 4.2 0 0 0 3-4V38a4.2 4.2 0 0 0-3.01-4zM195.53 26.66L108.24.26A6 6 0 0 0 100.5 6v176.09a6 6 0 0 0 7.74 5.74l87.29-26.4a6 6 0 0 0 4.26-5.74V32.4a6 6 0 0 0-4.26-5.74zM76.65 21.13l-22.5-6.8a5.1 5.1 0 0 0-6.58 4.88v149.67a5.1 5.1 0 0 0 6.58 4.88l22.5-6.8a5.1 5.1 0 0 0 3.62-4.88V26a5.1 5.1 0 0 0-3.62-4.87z"/></symbol><symbol viewBox="0 0 1792 1792" id="check"><path d="M.163 796.224c206 41.95 483.433 104.1 684.055 231.82 235.485-308.795 646.098-603.74 1106.48-841.02-437.25 421.61-806.89 905.94-1052.313 1386.928C540.613 1299.206 332.415 1062.255.163 796.224z"/></symbol><symbol viewBox="0 0 1792 1792" id="chevron-down"><path d="M1683 808l-742 741q-19 19-45 19t-45-19L109 808q-19-19-19-45.5t19-45.5l166-165q19-19 45-19t45 19l531 531 531-531q19-19 45-19t45 19l166 165q19 19 19 45.5t-19 45.5z"/></symbol><symbol viewBox="12.789 12.02 2.419 3.959" id="chevron-left"><path d="M12.92 13.692a.425.425 0 0 1 .616 0l1.54 1.54a.424.424 0 0 1 0 .615.424.424 0 0 1-.616 0l-1.54-1.54a.426.426 0 0 1 0-.615z"/><path d="M12.92 14.307c.177.176.44.176.616 0l1.54-1.54a.424.424 0 0 0 0-.615.425.425 0 0 0-.616 0l-1.54 1.54a.426.426 0 0 0 0 .615z"/></symbol><symbol viewBox="12.789 12.02 2.419 3.959" id="chevron-right"><path d="M15.076 14.308a.425.425 0 0 1-.616 0l-1.54-1.54a.424.424 0 0 1 0-.615.424.424 0 0 1 .615 0l1.54 1.54a.423.423 0 0 1 0 .615z"/><path d="M15.076 13.692a.425.425 0 0 0-.616 0l-1.54 1.54a.424.424 0 0 0 0 .615c.176.176.44.176.615 0l1.54-1.54a.423.423 0 0 0 0-.615z"/></symbol><symbol viewBox="12.021 12.791 3.96 2.419" id="chevron-up"><path d="M14.308 12.922a.425.425 0 0 1 0 .616l-1.54 1.54a.424.424 0 0 1-.615 0 .424.424 0 0 1 0-.616l1.54-1.54a.426.426 0 0 1 .615 0z"/><path d="M13.693 12.922a.425.425 0 0 0 0 .616l1.54 1.54c.177.176.44.176.616 0a.425.425 0 0 0 0-.616l-1.542-1.54a.426.426 0 0 0-.615 0z"/></symbol><symbol viewBox="0 0 1792 1792" id="circle"><path d="M897.005 5.12c492.07 0 890.872 398.8 890.872 890.885 0 492.07-398.802 890.872-890.872 890.872-491.997 0-890.886-398.802-890.886-890.872C6.12 403.92 405.007 5.12 897.004 5.12z"/></symbol><symbol viewBox="0 0 1792 1792" id="circle-check"><path d="M1602.837 379.763c-353.59 365.762-652.098 772.407-858.325 1176.58-188.008-261.18-385.926-486.433-701.775-739.33 195.83 39.878 459.565 98.96 650.282 220.375 193.032-253.125 509.855-496.46 874.054-703.3-160.996-192.315-402.845-314.63-673.27-314.63-484.718 0-877.66 392.94-877.66 877.66s392.942 877.66 877.66 877.66 877.66-392.943 877.66-877.66c0-193.453-62.594-372.285-168.627-517.355z"/></symbol><symbol viewBox="0 0 1792 1792" id="circle-check-alt"><path d="M490.653 775.49l254.52 254.466 565.615-565.402 144.664 144.62L736.15 1328.42 336.96 929.23l153.693-153.74zM896.206 27C416 27 26.72 416.283 26.72 896.487c0 480.205 389.28 869.487 869.486 869.487s869.487-389.282 869.487-869.487C1765.693 416.283 1376.41 27 896.206 27z"/></symbol><symbol viewBox="0 0 1792 1792" id="circle-exclamation"><path d="M895.5 15.564c-485.976 0-879.936 393.96-879.936 879.936 0 485.975 393.96 879.936 879.936 879.936 485.975 0 879.936-393.96 879.936-879.936 0-485.976-393.96-879.936-879.936-879.936zm109.992 1429.896H785.508v-329.976h219.984v329.976zm0-439.968H785.508V345.54h219.984v659.952z"/></symbol><symbol viewBox="0 0 1792 1792" id="circle-info"><path fill="#0A0B09" d="M895.5 1775.436c485.975 0 879.936-393.96 879.936-879.936 0-485.975-393.96-879.936-879.936-879.936-485.975 0-879.936 393.96-879.936 879.936 0 485.975 393.96 879.936 879.936 879.936zM785.507 435.54h219.985v239.976H785.506V435.54zm0 349.967h219.984v609.952H785.508V785.506z"/></symbol><symbol viewBox="0 0 1792 1792" id="circle-minus"><path d="M1775.88 896c0 485.945-393.935 879.88-879.88 879.88-485.944 0-879.88-393.935-879.88-879.88C16.12 410.056 410.056 16.12 896 16.12c485.945 0 879.88 393.936 879.88 879.88zm-377.09-125.697H393.21v251.395h1005.58V770.303z"/></symbol><symbol viewBox="0 0 896 1024" id="clipboard"><path d="M128 768h256v64H128v-64zm320-384H128v64h320v-64zm128 192V448L384 640l192 192V704h320V576H576zm-288-64H128v64h160v-64zM128 704h160v-64H128v64zm576 64h64v128c-1 18-7 33-19 45s-27 18-45 19H64c-35 0-64-29-64-64V192c0-35 29-64 64-64h192C256 57 313 0 384 0s128 57 128 128h192c35 0 64 29 64 64v320h-64V320H64v576h640V768zM128 256h512c0-35-29-64-64-64h-64c-35 0-64-29-64-64s-29-64-64-64-64 29-64 64-29 64-64 64h-64c-35 0-64 29-64 64z"/></symbol><symbol viewBox="0 0 1792 1792" id="close"><path d="M1786.27 1598.96l-187.667 187.464-701.462-701.47-701.057 701.47L8.423 1598.96l701.46-701.67L8.424 195.93 196.082 8.265 897.14 709.628 1598.604 8.264 1786.27 195.93 1084.8 897.29l701.47 701.67z"/></symbol><symbol viewBox="0 0 1792 1792" id="cogs"><path d="M832 896q0-106-75-181t-181-75-181 75-75 181 75 181 181 75 181-75 75-181zm768 512q0-52-38-90t-90-38-90 38-38 90q0 53 37.5 90.5t90.5 37.5 90.5-37.5 37.5-90.5zm0-1024q0-52-38-90t-90-38-90 38-38 90q0 53 37.5 90.5T1472 512t90.5-37.5T1600 384zm-384 421v185q0 10-7 19.5t-16 10.5l-155 24q-11 35-32 76 34 48 90 115 7 10 7 20 0 12-7 19-23 30-82.5 89.5T935 1423q-11 0-21-7l-115-90q-37 19-77 31-11 108-23 155-7 24-30 24H483q-11 0-20-7.5t-10-17.5l-23-153q-34-10-75-31l-118 89q-7 7-20 7-11 0-21-8-144-133-144-160 0-9 7-19 10-14 41-53t47-61q-23-44-35-82l-152-24q-10-1-17-9.5t-7-19.5V802q0-10 7-19.5t16-10.5l155-24q11-35 32-76-34-48-90-115-7-11-7-20 0-12 7-20 22-30 82-89t79-59q11 0 21 7l115 90q34-18 77-32 11-108 23-154 7-24 30-24h186q11 0 20 7.5t10 17.5l23 153q34 10 75 31l118-89q8-7 20-7 11 0 21 8 144 133 144 160 0 9-7 19-12 16-42 54t-45 60q23 48 34 82l152 23q10 2 17 10.5t7 19.5zm640 533v140q0 16-149 31-12 27-30 52 51 113 51 138 0 4-4 7-122 71-124 71-8 0-46-47t-52-68q-20 2-30 2t-30-2q-14 21-52 68t-46 47q-2 0-124-71-4-3-4-7 0-25 51-138-18-25-30-52-149-15-149-31v-140q0-16 149-31 13-29 30-52-51-113-51-138 0-4 4-7 4-2 35-20t59-34 30-16q8 0 46 46.5t52 67.5q20-2 30-2t30 2q51-71 92-112l6-2q4 0 124 70 4 3 4 7 0 25-51 138 17 23 30 52 149 15 149 31zm0-1024v140q0 16-149 31-12 27-30 52 51 113 51 138 0 4-4 7-122 71-124 71-8 0-46-47t-52-68q-20 2-30 2t-30-2q-14 21-52 68t-46 47q-2 0-124-71-4-3-4-7 0-25 51-138-18-25-30-52-149-15-149-31V314q0-16 149-31 13-29 30-52-51-113-51-138 0-4 4-7 4-2 35-20t59-34 30-16q8 0 46 46.5t52 67.5q20-2 30-2t30 2q51-71 92-112l6-2q4 0 124 70 4 3 4 7 0 25-51 138 17 23 30 52 149 15 149 31z"/></symbol><symbol viewBox="0 0 1792 1792" id="columns"><path d="M224 1536h608V384H192v1120q0 13 9.5 22.5t22.5 9.5zm1376-32V384H960v1152h608q13 0 22.5-9.5t9.5-22.5zm128-1216v1216q0 66-47 113t-113 47H224q-66 0-113-47t-47-113V288q0-66 47-113t113-47h1344q66 0 113 47t47 113z"/></symbol><symbol viewBox="0 0 1792 1792" id="comment"><path d="M1792 896q0 174-120 321.5t-326 233-450 85.5q-70 0-145-8-198 175-460 242-49 14-114 22-17 2-30.5-9t-17.5-29v-1q-3-4-.5-12t2-10 4.5-9.5l6-9 7-8.5 8-9q7-8 31-34.5t34.5-38 31-39.5 32.5-51 27-59 26-76q-157-89-247.5-220T0 896q0-130 71-248.5T262 443t286-136.5T896 256q244 0 450 85.5t326 233T1792 896z"/></symbol><symbol viewBox="0 0 1792 1792" id="comments"><path d="M1408 768q0 139-94 257t-256.5 186.5T704 1280q-86 0-176-16-124 88-278 128-36 9-86 16h-3q-11 0-20.5-8t-11.5-21q-1-3-1-6.5t.5-6.5 2-6l2.5-5 3.5-5.5 4-5 4.5-5 4-4.5q5-6 23-25t26-29.5 22.5-29 25-38.5 20.5-44q-124-72-195-177T0 768q0-139 94-257t256.5-186.5T704 256t353.5 68.5T1314 511t94 257zm384 256q0 120-71 224.5T1526 1425q10 24 20.5 44t25 38.5 22.5 29 26 29.5 23 25q1 1 4 4.5t4.5 5 4 5 3.5 5.5l2.5 5 2 6 .5 6.5-1 6.5q-3 14-13 22t-22 7q-50-7-86-16-154-40-278-128-90 16-176 16-271 0-472-132 58 4 88 4 161 0 309-45t264-129q125-92 192-212t67-254q0-77-23-152 129 71 204 178t75 230z"/></symbol><symbol viewBox="0 0 167 173.97" id="comparison"><title>comparison</title><path d="M8 60.64h104a8 8 0 0 1 8 8v13.45c0 3.15 4.21 4.68 6.71 2.49L166 45.3a3.36 3.36 0 0 0 1-2.37 3.41 3.41 0 0 0-1-2.37L126.57 1c-2.5-2.18-6.57-.57-6.57 2.59v12.18a8 8 0 0 1-8 8H8a8 8 0 0 0-8 8v20.87a8 8 0 0 0 8 8zM159 113.32H55a8 8 0 0 1-8-8V91.88c0-3.15-4.21-4.68-6.71-2.49L1 128.67A3.36 3.36 0 0 0 0 131a3.41 3.41 0 0 0 1 2.37L40.43 173c2.5 2.19 6.57.58 6.57-2.58V158.2a8 8 0 0 1 8-8h104a8 8 0 0 0 8-8v-20.88a8 8 0 0 0-8-8z"/></symbol><symbol viewBox="0 0 25 32" id="data-management"><path d="M10.66 21.17a.448.448 0 0 0-.763.33v2.148a.564.564 0 0 1-.795.52c-3.143-1.37-5.345-4.49-5.345-8.116a8.84 8.84 0 0 1 3.676-7.18.574.574 0 0 0 .158-.77L6.206 5.884a.57.57 0 0 0-.808-.168C2.133 8 0 11.78 0 16.053c0 5.863 3.997 10.8 9.484 12.21a.56.56 0 0 1 .414.55v2.73c0 .402.467.61.76.33l4.595-5.036a.457.457 0 0 0-.004-.606l-4.59-5.058zM15.743 3.84a.582.582 0 0 1-.44-.55V.553c0-.403-.458-.61-.75-.33L9.964 5.26a.457.457 0 0 0 .007.606l4.58 5.06c.29.28.752.073.752-.33V8.45c0-.414.443-.686.822-.52 3.142 1.37 5.348 4.493 5.348 8.12a8.84 8.84 0 0 1-3.742 7.228.573.573 0 0 0-.158.773l1.394 2.218a.57.57 0 0 0 .805.17c3.307-2.278 5.47-6.084 5.47-10.388 0-5.865-4.01-10.807-9.498-12.213z"/><path d="M7.62 16.164c0 1.615.992 3.037 2.766 3.037s2.782-1.438 2.782-3.053v-.017c0-1.615-.99-3.037-2.765-3.037s-2.782 1.44-2.782 3.054v.017zm1.85-.033c0-.802.39-1.338.916-1.338s.933.552.933 1.355v.017c0 .803-.39 1.34-.917 1.34s-.933-.553-.933-1.357v-.017zM16.566 13.102h-.917c-.04 0-.082.038-.12.05l-1.266.364a.46.46 0 0 0-.317.552l.152.607c.058.235.286.383.522.332.28-.06.537.156.537.442v3.224c0 .248.213.402.462.402h.944c.248 0 .442-.154.442-.402v-5.056c0-.248-.194-.515-.442-.515z"/></symbol><symbol viewBox="0 0 128.7 110.77" id="discussions-o"><defs><style>.blcls-1{fill:#bcbec0}</style></defs><title>discussions-o</title><g id="blLayer_2" data-name="Layer 2"><path class="blcls-1" d="M128.67 34.52a51.4 51.4 0 0 0-.16-6.89 4.79 4.79 0 0 0-5-3.49H84.45V4.6A4.27 4.27 0 0 0 79.88 0C55.76 0 31.64.07 7.5 0 5.43.06 2.92-.33 1.36 1.39-.37 2.92.07 5.41 0 7.47Q.07 31 0 54.59c.06 2.06-.39 4.56 1.34 6.1 2.09 2.22 5.43.83 8 1.79A4.57 4.57 0 0 1 12 66.63c.26 5.18-.06 10.37.11 15.56-.06 2.41 2.28 4.23 4.55 4.3A5.88 5.88 0 0 0 20.62 85c7.85-6.1 15.76-12.12 23.63-18.19v13.66c0 1.56-.1 3.4 1.19 4.55 1 1.17 2.63 1.19 4 1.21h25.85a7 7 0 0 1 4.9 1.37l25.24 19.55a38.67 38.67 0 0 0 4.3 3.17c2.6 1.47 6.56-.24 6.8-3.34.23-5.21-.1-10.43.11-15.64a5.3 5.3 0 0 1 1.64-4c2.57-2.22 6.64.07 9.06-2.43a4.59 4.59 0 0 0 1.35-3.91c-.05-15.48-.01-31-.02-46.48zM48.8 24.14a4.15 4.15 0 0 0-4.51 4c-.16 7.51.14 15-.11 22.52.06 1.37-1.19 2.15-2.11 2.92-4.8 3.6-9.49 7.35-14.27 11-1.33 1.35-4 .6-4.09-1.36-.39-4 .13-8-.19-12a1.88 1.88 0 0 0-1.17-1.58c-2.71-.5-5.54.28-8.2-.49-1.63-.75-1.41-2.78-1.49-4.27.05-9.57 0-19.15 0-28.72.09-1.11 0-2.76 1.31-3.17a12.09 12.09 0 0 1 2.73-.27h46.52a64.41 64.41 0 0 1 6.86.11 1.92 1.92 0 0 1 1.68 2.13 38.82 38.82 0 0 1-.13 7.41c-.19 1.53-1.92 1.83-3.18 1.82-6.55.01-13.11-.08-19.65-.05zm22.89 23a2.51 2.51 0 0 1-2.69 2.2c-3.08.13-6.18.12-9.27 0-1.13 0-2.49-.49-2.66-1.77a45.36 45.36 0 0 1-.14-8c0-1.13.52-2.46 1.78-2.62 3-.4 6-.12 9.08-.2 1.42 0 3.61 0 3.84 1.89a40.88 40.88 0 0 1 .05 8.49zm44.18 24.65a1.8 1.8 0 0 1-1.57 1.58c-2.49.41-5 0-7.52.23a1.63 1.63 0 0 0-1.6 1.6c-.29 4 .18 8.07-.16 12.1a2.37 2.37 0 0 1-2.73 2.27 13.7 13.7 0 0 1-2.76-1.82c-5-4-10.11-7.9-15.11-11.91-1.35-1-2.69-2.48-4.55-2.3H60.93c-1.3-.09-3.2.08-3.76-1.45a27.8 27.8 0 0 1-.29-6.66c.09-1 .07-2.32 1.08-2.93a7 7 0 0 1 2.93-.5h19a4.16 4.16 0 0 0 4.55-4c.13-6 0-12 0-18 0-1.28.32-3 1.87-3.2 6.62-.42 13.28 0 19.92-.17 2.77.09 5.59-.31 8.31.27 1.54.53 1.42 2.42 1.49 3.74v24.68a45.82 45.82 0 0 1-.16 6.46z" id="blLayer_1-2" data-name="Layer 1"/></g></symbol><symbol viewBox="0 0 1792 1792" id="doc-pdf"><path d="M184.69 1771.932V20.064h995.384l428.238 428.448v1323.42H184.692zm454.713-842.675c0-85.604-60.418-145.048-160.503-145.048H307.66v419.95h92.28v-126.067h69.98c94.04 0 169.482-50.36 169.482-147.61v-1.226zm454.052 63.62c0-118.104-90.992-208.668-222.668-208.668h-163.6v419.95h163.6c131.676 0 222.668-91.955 222.668-210.217v-1.066zm400.76-208.668h-319.174v419.95h92.28v-162.638h199.95v-83.94h-199.95v-89.276h226.896V784.21zm-623.428 336.544H799.52v-253.2h71.267c75.434 0 126.33 52.077 126.33 126.39v1.393c0 74.31-50.896 125.417-126.33 125.417zm-397.82-124.78H399.94v-128.42h71.32c45.98 0 74.732 22.192 74.732 63.618v1.183c0 35.92-26.943 63.62-73.025 63.62z"/></symbol><symbol viewBox="0 0 1792 1792" id="doc-tar"><path d="M1179.637 21.75H186.034v1748.526h1420.932V449.132L1179.636 21.75zm300.002 1185.872h-98.296l-88.153-129.56h-72.78v129.56h-83.57V809.378h180.898c50.376 0 89.76 14.302 116.01 40.507 21.88 21.878 33.407 53.037 33.407 89.647v1.168c0 64.572-35.645 105.02-86.98 123.06l99.464 143.862zm-97.225-262.54v-1.07c0-38.367-27.532-58.587-71.72-58.587h-90.287v118.138h91.99c43.653 0 70.017-23.477 70.017-58.48zM944.145 1116.8H771.79l-37.14 90.822h-85.81l171.718-400.86h77.698l171.137 400.86h-88.05l-37.197-90.823zM858.24 907.303l-56.303 135.107h112.166L858.24 907.305zm-318.58 300.318h-84.15V887.076H332.993v-77.698H661.65v77.698H539.66v320.546z"/></symbol><symbol viewBox="0 0 1792 1792" id="doc-zip"><path d="M1582.89 52.384H949.398V474.61H843.815V52.385h-633.8v1689.204h1372.978V465.378l-.102-412.994zM1271.508 1069.33h-73.824v128.677h-88.676V775.78h171.162c100.32 0 161.15 59.135 161.15 144.972v1.236c0 97.338-75.988 147.34-169.813 147.34zm80.014-146.72c0-42.995-30.726-66.143-78.98-66.143h-74.856v133.367h76.612c48.145 0 77.226-28.458 77.226-66.09v-1.134zM864.03 775.78h89.29v422.227h-89.29V775.78zm-492.445 355.002L607.03 854.15H379.166v-78.37H721.89v67.286L486.443 1119.75H721.89v78.257H371.584v-67.225z"/></symbol><symbol viewBox="0 0 24 32" id="document"><path d="M23.532 11.033L13.05.448a1.227 1.227 0 0 0-.87-.363H1.225C.55.085 0 .632 0 1.307V30.78C0 31.453.55 32 1.227 32H22.66c.677 0 1.226-.546 1.226-1.22V11.89c0-.32-.127-.63-.353-.858zm-9.905-3.997c0-.272.33-.408.522-.217l2.54 2.516a.305.305 0 0 1-.217.522h-2.54a.306.306 0 0 1-.306-.305V7.036zm6.584 20.688c0 .337-.273.61-.61.61H4.287a.61.61 0 0 1-.612-.61V4.36c0-.337.274-.61.612-.61h5.206a.61.61 0 0 1 .612.61v8.4c0 .336.274.61.612.61h8.88a.61.61 0 0 1 .612.61v13.744z"/><path d="M16.383 17.08h-8.88c-.93 0-1.684.757-1.684 1.684s.753 1.684 1.683 1.684h8.88c.93 0 1.684-.756 1.684-1.684s-.754-1.684-1.684-1.684zM16.383 22.745h-8.88c-.93 0-1.684.757-1.684 1.684s.753 1.683 1.683 1.683h8.88c.93 0 1.684-.756 1.684-1.684s-.754-1.685-1.684-1.685z"/></symbol><symbol viewBox="0 0 1792 1792" id="envelope"><path d="M1236.47 911.917l537.857-580.407v1168.816l-537.856-588.41zM95.12 215.04h1585.25L881.2 1077.176 95.12 215.04zM19.673 1449.585V351.882l505.25 552.52-505.25 545.184zm860.955-153.834l254.744-274.93 508.343 556.14H103.497l521.624-562.8 255.508 281.59z"/></symbol><symbol viewBox="0 0 1792 1792" id="envelope-o"><path d="M1664 1504V736q-32 36-69 66-268 206-426 338-51 43-83 67t-86.5 48.5T897 1280h-2q-48 0-102.5-24.5T706 1207t-83-67q-158-132-426-338-37-30-69-66v768q0 13 9.5 22.5t22.5 9.5h1472q13 0 22.5-9.5t9.5-22.5zm0-1051v-24.5l-.5-13-3-12.5-5.5-9-9-7.5-14-2.5H160q-13 0-22.5 9.5T128 416q0 168 147 284 193 152 401 317 6 5 35 29.5t46 37.5 44.5 31.5T852 1143t43 9h2q20 0 43-9t50.5-27.5 44.5-31.5 46-37.5 35-29.5q208-165 401-317 54-43 100.5-115.5T1664 453zm128-37v1088q0 66-47 113t-113 47H160q-66 0-113-47T0 1504V416q0-66 47-113t113-47h1472q66 0 113 47t47 113z"/></symbol><symbol viewBox="0 0 28 28" id="eye"><path d="M26 15q-2.375-3.687-5.953-5.516Q21 11.11 21 13q0 2.89-2.055 4.945T14 20t-4.945-2.055T7 13q0-1.89.953-3.516Q4.375 11.312 2 15q2.078 3.203 5.21 5.102T14 22t6.79-1.898T26 15zM14.75 9q0-.313-.22-.53T14 8.25q-1.953 0-3.352 1.398T9.25 13q0 .313.22.53t.53.22.53-.22.22-.53q0-1.344.953-2.297T14 9.75q.313 0 .53-.22t.22-.53zM28 15q0 .53-.313 1.078-2.188 3.594-5.883 5.758T14 24t-7.806-2.172-5.883-5.75Q0 15.53 0 15t.313-1.078q2.19-3.578 5.884-5.75T14 6t7.804 2.172 5.883 5.75Q28 14.47 28 15z"/></symbol><symbol viewBox="0 0 28 28" id="eye-slash"><path d="M8.672 20.86l1.22-2.204q-1.36-.984-2.126-2.484T7 13q0-1.89.953-3.516Q4.375 11.312 2 15q2.61 4.03 6.672 5.86zM14.75 9q0-.313-.22-.53T14 8.25q-1.953 0-3.352 1.398T9.25 13q0 .313.22.53t.53.22.53-.22.22-.53q0-1.344.953-2.297T14 9.75q.313 0 .53-.22t.22-.53zm5.672-2.984q0 .11-.016.14-1.64 2.94-4.922 8.845t-4.937 8.86l-.766 1.39q-.155.25-.437.25-.187 0-2.094-1.093Q7 24.25 7 23.97q0-.188.687-1.36-2.234-1.016-4.117-2.703T.312 16.08Q0 15.594 0 15t.312-1.077q2.39-3.672 5.938-5.797T14 6q1.39 0 2.812.267l.844-1.516q.156-.25.438-.25.078 0 .28.095t.485.242.515.29.492.288.305.18q.25.156.25.422zM21 13q0 2.172-1.234 3.96T16.5 19.53l4.375-7.843Q21 12.39 21 13zm7 2q0 .547-.313 1.078-.61 1-1.703 2.266-2.344 2.688-5.43 4.172T14 24l1.155-2.063q3.313-.28 6.133-2.14t4.71-4.798q-1.796-2.798-4.405-4.595l.984-1.75q1.484 1 2.852 2.39t2.257 2.876Q28 14.453 28 15z"/></symbol><symbol viewBox="0 0 1792 1792" id="facebook"><path d="M1343 12v264h-157q-86 0-116 36t-30 108v189h293l-39 296h-254v759H734V905H479V609h255V391q0-186 104-288.5T1115 0q147 0 228 12z"/></symbol><symbol viewBox="0 0 1792 1792" id="file-excel-o"><path d="M1596 380q28 28 48 76t20 88v1152q0 40-28 68t-68 28H224q-40 0-68-28t-28-68V96q0-40 28-68t68-28h896q40 0 88 20t76 48zm-444-244v376h376q-10-29-22-41l-313-313q-12-12-41-22zm384 1528V640h-416q-40 0-68-28t-28-68V128H256v1536h1280zm-979-234v106h281v-106h-75l103-161q5-7 10-16.5t7.5-13.5 3.5-4h2q1 4 5 10 2 4 4.5 7.5t6 8 6.5 8.5l107 161h-76v106h291v-106h-68l-192-273 195-282h67V768H956v107h74l-103 159q-4 7-10 16.5t-9 13.5l-2 3h-2q-1-4-5-10-6-11-17-23L776 875h76V768H562v107h68l189 272-194 283h-68z"/></symbol><symbol viewBox="0 0 218.3 218.3" id="file-html"><title>file-html</title><path d="M210.3 0H8a8 8 0 0 0-8 8v202.3a8 8 0 0 0 8 8h202.3a8 8 0 0 0 8-8V8a8 8 0 0 0-8-8zm-155 130.6a2 2 0 0 1-2 2h-9a2 2 0 0 1-2-2v-13.82a2 2 0 0 0-2-2H27.6a2 2 0 0 0-2 2v13.82a2 2 0 0 1-2 2h-9a2 2 0 0 1-2-2V87.7a2 2 0 0 1 2-2h9a2 2 0 0 1 2 2v13.55a2 2 0 0 0 2 2h12.68a2 2 0 0 0 2-2V87.7a2 2 0 0 1 2-2h9a2 2 0 0 1 2 2zm48.17-35.51a2 2 0 0 1-2 2H91.39a2 2 0 0 0-2 2v31.51a2 2 0 0 1-2 2h-9a2 2 0 0 1-2-2V99.09a2 2 0 0 0-2-2h-10a2 2 0 0 1-2-2V87.7a2 2 0 0 1 2-2h37.07a2 2 0 0 1 2 2zm56.88 35.51a2 2 0 0 1-2 2h-8.93a2 2 0 0 1-2-2v-18.21a2 2 0 0 0-3.67-1.09l-8.34 12.7h-.27l-8.25-12.65a2 2 0 0 0-3.68 1.09v18.16a2 2 0 0 1-2 2h-8.73a2 2 0 0 1-2-2V87.7a2 2 0 0 1 2-2h10.62a2 2 0 0 1 1.7 1l8.9 14.44a2 2 0 0 0 3.41 0L146 86.65a2 2 0 0 1 1.7-1h10.62a2 2 0 0 1 2 2zm45.36 0a2 2 0 0 1-2 2H172a2 2 0 0 1-2-2V87.7a2 2 0 0 1 2-2h9a2 2 0 0 1 2 2v31.51a2 2 0 0 0 2 2h18.7a2 2 0 0 1 2 2z" data-name="Layer 1"/></symbol><symbol viewBox="0 0 1792 1792" id="file-text-o"><path d="M1596 380q28 28 48 76t20 88v1152q0 40-28 68t-68 28H224q-40 0-68-28t-28-68V96q0-40 28-68t68-28h896q40 0 88 20t76 48zm-444-244v376h376q-10-29-22-41l-313-313q-12-12-41-22zm384 1528V640h-416q-40 0-68-28t-28-68V128H256v1536h1280zM512 800q0-14 9-23t23-9h704q14 0 23 9t9 23v64q0 14-9 23t-23 9H544q-14 0-23-9t-9-23v-64zm736 224q14 0 23 9t9 23v64q0 14-9 23t-23 9H544q-14 0-23-9t-9-23v-64q0-14 9-23t23-9h704zm0 256q14 0 23 9t9 23v64q0 14-9 23t-23 9H544q-14 0-23-9t-9-23v-64q0-14 9-23t23-9h704z"/></symbol><symbol viewBox="0 0 1792 1792" id="file-video-o"><path d="M1596 380q28 28 48 76t20 88v1152q0 40-28 68t-68 28H224q-40 0-68-28t-28-68V96q0-40 28-68t68-28h896q40 0 88 20t76 48zm-444-244v376h376q-10-29-22-41l-313-313q-12-12-41-22zm384 1528V640h-416q-40 0-68-28t-28-68V128H256v1536h1280zM896 768q52 0 90 38t38 90v384q0 52-38 90t-90 38H512q-52 0-90-38t-38-90V896q0-52 38-90t90-38h384zm492 2q20 8 20 30v576q0 22-20 30-8 2-12 2-14 0-23-9l-265-266v-90l265-266q9-9 23-9 4 0 12 2z"/></symbol><symbol viewBox="0 0 22.033 22" id="filter"><path class="bzst0" d="M21.938.61c.178.426.104.79-.22 1.093l-7.702 7.703V21c0 .438-.203.744-.61.922a1.067 1.067 0 0 1-.39.078.93.93 0 0 1-.703-.297l-4-4A.96.96 0 0 1 8.016 17V9.406L.313 1.703C-.01 1.4-.083 1.036.093.61.272.202.58 0 1.017 0h20c.438 0 .744.203.922.61z"/></symbol><symbol viewBox="0 0 1792 1792" id="folder"><path d="M1782.108 653.134v764.8c0 66.727-23.432 123.867-70.3 171.66-46.758 47.91-102.744 71.805-168.085 71.805H249.328c-65.22 0-121.385-23.895-168.083-71.806-46.922-47.793-70.36-104.934-70.36-171.66V374.92c0-66.726 23.438-123.873 70.36-171.547 46.698-47.91 102.862-71.804 168.083-71.804h340.554c65.4 0 121.445 23.894 168.262 71.805 46.81 47.675 70.19 104.822 70.19 171.548v34.864h715.39c65.34 0 121.327 23.78 168.084 71.686 46.87 47.793 70.3 104.94 70.3 171.666z"/></symbol><symbol viewBox="0 0 24 24" id="fullscreen"><path d="M6.453 20.047l4.164-4.164-2.5-2.5-4.164 4.164-2.25-2.25c-.312-.323-.672-.396-1.078-.22C.208 15.256 0 15.563 0 16v7c0 .27.1.505.297.703A.964.964 0 0 0 1 24h7c.438 0 .745-.21.922-.625.177-.406.104-.766-.22-1.078l-2.25-2.25zM.625 8.922a.97.97 0 0 0 1.078-.22l2.25-2.25 4.165 4.166 2.5-2.5-4.165-4.165 2.25-2.25c.323-.312.396-.672.22-1.078C8.744.208 8.437 0 8 0H1C.73 0 .495.1.297.297S0 .73 0 1v7c0 .438.208.745.625.922zM23.703.297A.96.96 0 0 0 23 0h-7c-.438 0-.745.208-.922.625-.178.406-.104.766.22 1.078l2.25 2.25-4.165 4.164 2.5 2.5 4.164-4.164 2.25 2.25A.96.96 0 0 0 23 9c.125 0 .255-.026.39-.078.407-.177.61-.484.61-.922V1c0-.27-.1-.505-.297-.703zM23.39 15.078c-.427-.178-.79-.104-1.093.22l-2.25 2.25-4.164-4.165-2.5 2.5 4.164 4.164-2.25 2.25c-.323.312-.396.672-.22 1.078.178.416.485.625.923.625h7c.27 0 .505-.1.703-.297A.964.964 0 0 0 24 23v-7c0-.438-.203-.745-.61-.922z"/></symbol><symbol viewBox="0 0 43.3 43.3" id="globe"><path d="M21.7 0C9.7 0 0 9.7 0 21.7s9.7 21.7 21.7 21.7 21.7-9.7 21.7-21.7C43.3 9.7 33.6 0 21.7 0zm7.9 6.6c2.6 1.4 4.9 3.4 6.5 6 .3.5 0 1.2-.7 1.2h-3.8c-.3 0-.6-.2-.7-.5-.6-1.9-1.3-3.8-2.3-5.5-.4-.8.3-1.6 1-1.2zm-12.4 6.1c.9-2.4 2.2-4.7 3.9-6.7.3-.4.9-.4 1.2 0 1.7 2.1 3 4.3 3.9 6.7.2.5-.2 1.1-.7 1.1H18c-.6-.1-1-.6-.8-1.1zm-9.9-.2c1.6-2.5 3.9-4.6 6.5-6 .7-.4 1.4.4 1 1.1-1 1.8-1.7 3.6-2.3 5.5-.1.3-.4.5-.7.5H8c-.6.1-1-.5-.7-1.1zM5.7 25.4c-.4 0-.7-.3-.8-.6-.2-1-.3-2-.3-3.1 0-1 .1-2.1.3-3.1.1-.3.4-.6.8-.6h5c.5 0 .8.4.8.9-.1.9-.1 1.7-.1 2.6 0 1 .1 2 .2 3 .1.5-.3.9-.8.9H5.7zM14.2 37c-2.8-1.4-5.2-3.5-6.9-6.2-.3-.5 0-1.2.7-1.2h4c.3 0 .6.2.7.5.6 2 1.5 3.9 2.5 5.7.4.7-.3 1.5-1 1.2zM26 30.7c-1 2.2-2.2 4.3-3.7 6.3-.3.4-.9.4-1.2 0-1.5-2-2.8-4.1-3.7-6.3-.2-.5.2-1.1.7-1.1h7.1c.6 0 1 .6.8 1.1zm.7-4.8h-3.9v-5h-2.2v5h-3.9v-8.4h10.1v8.4zm9.3 4.9c-1.7 2.6-4.1 4.8-6.9 6.2-.7.3-1.4-.4-1-1.1 1-1.8 1.9-3.7 2.5-5.7.1-.3.4-.5.7-.5h4c.7-.1 1.1.6.7 1.1zm1.6-5.4h-5c-.5 0-.8-.4-.8-.9.1-1 .2-2 .2-3 0-.9 0-1.8-.1-2.6 0-.5.3-.9.8-.9h4.9c.4 0 .7.3.8.6.2 1 .3 2 .3 3.1 0 1-.1 2.1-.3 3.1-.1.3-.4.6-.8.6z"/></symbol><symbol viewBox="0 0 1792 1792" id="google-plus"><path d="M1780.993 395.366h-234.485v238.48h-117.295v-238.48h-234.167v-119.24h234.167V37.59h117.295v238.537h234.485v119.24zm-662.67 986.292c0 178.695-160.462 396.455-563.986 396.455-295.243 0-541.33-129.71-541.33-347.254 0-168.338 104.672-386.533 593.504-386.533-72.514-60.264-90.268-144.542-46.08-235.67-286.17 0-432.82-171.308-432.82-388.743 0-212.635 155.55-406.01 472.696-406.01h507.982l-113.41 121.127H861.39c94.21 54.932 144.172 167.746 144.172 292.383 0 114.277-61.837 206.86-150.103 276.137-156.58 123.24-116.6 192.08 47.58 313.803 161.868 123.446 215.283 218.41 215.283 364.305zm-316.93-946.474c-23.52-182.91-140.764-333.17-277.653-337.272-136.934-4.208-228.763 135.802-205.08 318.816C342.294 599.8 472.484 727.403 609.477 731.714c136.94 4.214 215.607-113.568 191.917-296.53zm141.252 964.812c0-150.42-135.048-293.942-361.223-293.942-204.11-2.16-376.927 131.218-376.927 285.742 0 157.984 147.293 289.417 351.3 289.417 260.763 0 386.85-123.447 386.85-281.217z"/></symbol><symbol viewBox="0 0 224.21 224.13" id="gps"><defs><style>.cecls-1{fill:#1e4a93}</style></defs><title>gps</title><g id="ceLayer_2" data-name="Layer 2"><g id="ceLayer_1-2" data-name="Layer 1"><path class="cecls-1" d="M212.34 61.8a112.44 112.44 0 0 0-65.48-56.34A113.51 113.51 0 0 0 97.57.88a111.29 111.29 0 0 0-37.74 12 112.11 112.11 0 0 0-16.37 187.88c19.16 14.87 43.29 23.47 67.54 23.34 27.38.65 54.7-9.75 75.16-27.87A112.14 112.14 0 0 0 212.34 61.8zm-14.41 83A92.52 92.52 0 0 1 162 189.12a91.83 91.83 0 0 1-109-6.84A91.56 91.56 0 0 1 31.72 67.71C46.32 40.92 75 22.46 105.43 20.45a91.88 91.88 0 0 1 92.5 124.32z"/><path class="cecls-1" d="M162.53 55.62q-34.35 14.61-68.75 29.13c-2.83 1.25-6.48 2.1-7.5 5.45-10.41 24.65-20.94 49.25-31.28 73.94a3.8 3.8 0 0 0 5 5c24.7-10.32 49.33-20.86 74-31.27a6.43 6.43 0 0 0 3.88-3.93c10.41-24.7 21-49.34 31.3-74.08 1.66-4.2-3.52-6.48-6.65-4.24zm-53.19 69.24c-7.71-1.45-12.57-10.61-9.3-17.79a13.34 13.34 0 0 1 8.43-7.53c7.92-2.61 16.92 4.14 16.67 12.45.36 8.01-7.99 14.84-15.8 12.87z"/></g></g></symbol><symbol viewBox="0 0 1792 1792" id="key"><path d="M1573.305 216.223c-263.962-263.19-692.172-263.19-957.87 0-214.185 213.82-253.052 537.316-121.545 790.37l-205.77 205.593L22.422 1477.87l43.067 254.976 255.546 43.258 47.282-47.472 249.23-248.853 179.17-179.17c253.242 123.66 566.22 82.314 778.307-129.77 263.583-260.913 263.583-688.825-1.72-954.617zm-414.24 413.56c-82.3-82.11-82.3-215.81 0-298.315 82.315-82.313 216.315-82.313 298.818 0 82.3 82.503 82.3 216.206 0 298.316-82.502 82.787-216.502 82.787-298.817 0z"/></symbol><symbol viewBox="9.598 10.307 8.809 7.391" id="legend-downloadable"><path d="M18 12.372a.44.44 0 0 0-.44.44v4.003h-7.083V12.81a.44.44 0 0 0-.44-.438.44.44 0 0 0-.438.44v4.442a.4.4 0 0 0 .132.31.402.402 0 0 0 .31.134h7.917a.4.4 0 0 0 .31-.134.406.406 0 0 0 .133-.31V12.81c.035-.262-.137-.438-.403-.438z"/><path d="M13.775 15.143c.043.043.086.043.133.086h.043c.044 0 .087.042.177.042.043 0 .133 0 .176-.043h.043a.092.092 0 0 0 .086-.087l1.626-1.626c.176-.176.176-.44 0-.615s-.44-.176-.615 0l-.88.88v-3.036a.44.44 0 0 0-.44-.44c-.264 0-.44.177-.44.44v3.037l-.88-.88c-.177-.177-.44-.177-.616 0s-.176.438 0 .614l1.588 1.626z"/></symbol><symbol viewBox="0 0 1792 1792" id="legend-external-site"><path d="M1137.457 253.448V92.808H1780.012v642.555h-160.64V414.086h-160.64V253.448h-321.275zm160.64 321.276V414.086h160.637v160.638h-160.638zm-160.64 160.638V574.724h160.64v160.638h-160.64zm-481.914 955.36l-321.277-419.015v427.484H12.99V735.36h321.275v8.624l321.277 418.7V735.36h321.276v963.83H655.543v-8.47z"/></symbol><symbol viewBox="0 0 1792 1792" id="legend-support"><path d="M1780.01 574.724v160.638h-642.554V92.81h160.64v321.275h160.64v160.64h321.275zm-160.638-321.277v160.638h-160.638V253.447h160.638zm160.64-160.638v160.637h-160.64V92.81h160.64zM655.54 1690.72l-321.276-419.013v427.484H12.99V735.36h321.276v8.624l321.277 418.7V735.362H976.82v963.83H655.542v-8.47z"/></symbol><symbol viewBox="0 0 1792 1792" id="legend-vpn"><path d="M27.286 1764.714V605.762h193.16V219.445h193.158V26.285h965.793v193.16h193.158v386.317h193.16v1158.952H27.284zm1158.952-1545.27H606.762v386.318h579.476V219.445zm15.274 582.403L892.45 1322.19 596.1 801.846l-167.785 95.535 382.266 671.534 81.87-46.592 85.354 46.592 398.953-671.534-175.245-95.535z"/></symbol><symbol viewBox="0 0 1792 1792" id="legend-webapp"><path d="M23.596 1769.404V22.596h1746.81v1746.81H23.595zM1552.053 459.298H241.947v1091.755h1310.106V459.298z"/></symbol><symbol viewBox="0 0 1792 1792" id="linkedin"><path d="M477 625v991H147V625h330zm21-306q1 73-50.5 122T312 490h-2q-82 0-132-49t-50-122q0-74 51.5-122.5T314 148t133 48.5T498 319zm1166 729v568h-329v-530q0-105-40.5-164.5T1168 862q-63 0-105.5 34.5T999 982q-11 30-11 81v553H659q2-399 2-647t-1-296l-1-48h329v144h-2q20-32 41-56t56.5-52 87-43.5T1285 602q171 0 275 113.5t104 332.5z"/></symbol><symbol viewBox="0 0 1792 1792" id="mobile-phone"><path d="M976 1408q0-33-23.5-56.5T896 1328t-56.5 23.5T816 1408t23.5 56.5T896 1488t56.5-23.5T976 1408zm208-160V544q0-13-9.5-22.5T1152 512H640q-13 0-22.5 9.5T608 544v704q0 13 9.5 22.5t22.5 9.5h512q13 0 22.5-9.5t9.5-22.5zM992 400q0-16-16-16H816q-16 0-16 16t16 16h160q16 0 16-16zm288-16v1024q0 52-38 90t-90 38H640q-52 0-90-38t-38-90V384q0-52 38-90t90-38h512q52 0 90 38t38 90z"/></symbol><symbol id="mynewsdesk" viewBox="0 0 15 15"><style>.cnst0{fill:#848484}</style><path class="cnst0" d="M2.9 2.4h2.3c.1 0 .3.2.3.3.1.2 0 .4 0 .7.7-.7 1.5-1.1 2.4-1.3 2.3-.4 4.1.9 4.2 3.2.1 2.5 0 5 0 7.5 0 0 0 .1-.1.1H9.5v-.6-5.2-.6c-.1-1-.6-1.7-1.4-1.8-1-.1-2 .4-2.3 1.3-.2.4-.3 1-.3 1.5v4.9c0 .4-.1.6-.6.6H2.8c.1-3.6.1-7.1.1-10.6z"/></symbol><symbol viewBox="0 0 1008 181.536" id="netapp-logo"><path fill="#0A0B09" d="M0 0v147.978h69.062v-88.79h39.462v88.79h69.048V0z"/><path fill="#0A0B09" d="M256.498.02h29.832l68.817 91.482V.022h31.898v147.936h-27.477l-71.16-93.403v93.41h-31.912L256.498.022zM402.564 92.35c0 34.43 24.973 58.14 58.786 58.14 20.335 0 35.446-7.98 45.908-21.005l-18.23-16.16c-8.81 8.2-16.57 11.562-27.265 11.562-14.3 0-24.342-7.56-27.497-22.037h78.266c.244-2.926.43-5.898.43-8.377 0-31.91-17.207-61.077-54.743-61.077-32.75 0-55.642 26.438-55.642 58.516v.438m31.247-9.455c2.507-14.453 11.12-23.932 24.38-23.932 13.4 0 21.81 9.64 23.69 23.933h-48.07zm99.045 33.15c0 26.026 13.216 33.792 32.694 33.792 10.707 0 18.512-2.518 25.225-6.51v-25.62c-4.633 2.558-9.87 4.04-15.767 4.04-7.106 0-10.268-3.596-10.268-10.943v-48.06h26.456v-27.27h-26.455V6.727h-31.888v28.748H519.44v27.27h13.427l.003 53.298m225.878 65.494h31.866v-48.26c7.558 9.008 18.054 16.783 35.046 16.783 26.678 0 51.23-20.565 51.23-58.155v-.4c0-37.566-24.963-58.117-51.23-58.117-16.562 0-27.27 7.738-35.046 18.235V35.477h-31.866v146.06zm86.194-89.63c0 18.89-12.576 31.087-27.47 31.087-14.895 0-27.27-12.402-27.27-31.086v-.402c0-18.68 12.388-31.05 27.27-31.05 14.894 0 27.47 12.37 27.47 31.05v.402m44.912 89.63h31.895v-48.26c7.542 9.007 18.044 16.782 35.065 16.782 26.627 0 51.186-20.565 51.186-58.155v-.4c0-37.566-24.96-58.117-51.185-58.117-16.584 0-27.297 7.738-35.066 18.235V35.477h-31.896v146.06zm86.265-89.63c0 18.89-12.62 31.086-27.52 31.086-14.856 0-27.272-12.402-27.272-31.086v-.402c0-18.68 12.412-31.05 27.27-31.05 14.9 0 27.52 12.37 27.52 31.05v.402m-377.164 56.056h32.938l13.438-32.975h58.24l13.523 32.975h33.666L689.375.006h-29.05l-61.372 147.957zm55.965-61.46l19.533-47.7 19.513 47.7H654.92z"/></symbol><symbol viewBox="0 0 1792 1792" id="netapp-mark"><path d="M1100.155 1642.238v-814.62H692.85v814.62H13.99V148.758h1765.024v1493.48h-678.86z"/></symbol><symbol viewBox="0 0 601.14 732.78" id="niq-ai"><title>niq-ai</title><path d="M562.5 334.12c-18.58-35.78 7.94-57.09 9.62-75.67C580.46 173.16 551.6 121 512.5 79.7 459.17 23.32 393.42 4.7 341.44 0a9.59 9.59 0 0 0-10 6.62l-14.52 45.25a12.69 12.69 0 0 0 2.92 12.66l89.1 93.08a61.55 61.55 0 1 1-39.72 38L257.48 78.9a12.69 12.69 0 0 1-2.92-12.66l19-59.3a4.94 4.94 0 0 0-5.09-6.43c-87.62 7-136.61 33.86-172.24 66.1a9.26 9.26 0 0 0-.64 13.08l.08.09 87.67 94.48a61.42 61.42 0 0 1 14.66-1.83h.18a61.48 61.48 0 0 1 58.47 80.79l135 145.56a9.71 9.71 0 0 1 .67 12.4l-66.67 89.6A61.6 61.6 0 1 1 281.48 468l39.45-53a9.71 9.71 0 0 0-.67-12.4L217.81 292.24a61.24 61.24 0 0 1-19.41 3.22h-.18A61.5 61.5 0 0 1 141.55 210L61.3 123.56a10.21 10.21 0 0 0-15.9 1.18C-13.11 209.32 1.61 277.68 1.73 277.68 3.8 329.35 75 423.21 75 423.21c43.08 61.89 139 224.13 191.75 298.85a25.27 25.27 0 0 0 43.63-4.06c17.56-38.62 61.2-86.5 61.2-86.5 23.08-29 61.68-18.84 82.56-16.28 59.91 7.45 74.78-10.24 74.78-10.24 12.93-8 39.89-166.83 39.89-166.83 33-.79 32.3-22.06 32.3-22.06 1.28-11.72-38.61-81.97-38.61-81.97z" data-name="Layer 1"/></symbol><symbol viewBox="0 0 224 146.44" id="object-storage"><title>Object Storage</title><path d="M136.46 72.36a2 2 0 0 0-3.33 1.5v3.22a4 4 0 0 1-4 4H94.87a4 4 0 0 1-4-4v-3.22a2 2 0 0 0-3.33-1.5L70.83 87.17a2 2 0 0 0 1.33 3.5h2.47a4 4 0 0 1 4 4v6.13a4 4 0 0 0 4 4h58.74a4 4 0 0 0 4-4v-6.13a4 4 0 0 1 4-4h2.47a2 2 0 0 0 1.33-3.5z"/><path d="M188.63 59.37c2.66-27.86-16.8-53.66-44.1-58.5a54 54 0 0 0-60.41 34.6 27.53 27.53 0 0 0-24.95-8.89 28.23 28.23 0 0 0-22.48 20.59 27.06 27.06 0 0 0-.45 12.56A43.52 43.52 0 0 0 0 104.63c1 23.64 21.29 41.81 44.72 41.81h136A43.49 43.49 0 0 0 224 102.72c0-42.51-35.39-43.21-35.37-43.35zm-1 69.57a4 4 0 0 1-4 4h-34.26a4 4 0 0 1-4-4v-6.14a4 4 0 0 0-4-4H82.63a4 4 0 0 0-4 4v6.13a4 4 0 0 1-4 4H40.37a4 4 0 0 1-4-4V94.67a4 4 0 0 1 4-4h3.9a4 4 0 0 0 2.65-1l42.6-37.77a4 4 0 0 0 1.35-3v-6.08a4 4 0 0 1 4-4h34.26a4 4 0 0 1 4 4v6.08a4 4 0 0 0 1.35 3l42.6 37.77a4 4 0 0 0 2.65 1h3.9a4 4 0 0 1 4 4z"/></symbol><symbol viewBox="0 0 1792 1792" id="paint-brush"><path d="M1615 0q70 0 122.5 46.5T1790 163q0 63-45 151-332 629-465 752-97 91-218 91-126 0-216.5-92.5T755 845q0-128 92-212l638-579q59-54 130-54zM706 1034q39 76 106.5 130t150.5 76l1 71q4 213-129.5 347T486 1792q-123 0-218-46.5T115.5 1618 29 1435 0 1215q7 5 41 30t62 44.5 59 36.5 46 17q41 0 55-37 25-66 57.5-112.5t69.5-76 88-47.5 103-25.5 125-10.5z"/></symbol><symbol viewBox="0 0 1792 1792" id="paperclip"><path d="M1714.432 779.782l-90.935 90.934-545.742-545.685-754.247 754.19 390.5 390.5 481.307-481.433-117.56-117.57L804.94 1143.53l-90.934-90.935 64.31-64.31-64.31-64.31 363.75-363.747 272.802 272.814h.137l90.935 90.934-64.31 64.31 64.31 64.31-636.69 636.676-90.934 90.945-90.934-90.945-454.82-454.808-90.933-90.935 64.308-64.31-64.31-64.31L1077.756 14.544l636.677 636.62-64.31 64.31 64.31 64.308z"/></symbol><symbol viewBox="0 0 1792 1792" id="pencil-square-o"><path d="M888 1184l116-116-152-152-116 116v56h96v96h56zm440-720q-16-16-33 1L945 815q-17 17-1 33t33-1l350-350q17-17 1-33zm80 594v190q0 119-84.5 203.5T1120 1536H288q-119 0-203.5-84.5T0 1248V416q0-119 84.5-203.5T288 128h832q63 0 117 25 15 7 18 23 3 17-9 29l-49 49q-14 14-32 8-23-6-45-6H288q-66 0-113 47t-47 113v832q0 66 47 113t113 47h832q66 0 113-47t47-113v-126q0-13 9-22l64-64q15-15 35-7t20 29zm-96-738l288 288-672 672H640V992zm444 132l-92 92-288-288 92-92q28-28 68-28t68 28l152 152q28 28 28 68t-28 68z"/></symbol><symbol viewBox="0 0 224.1 187.93" id="performance"><defs><style>.cvcls-1{fill:#454545}</style></defs><title>performance</title><g id="cvLayer_2" data-name="Layer 2"><g id="cvArtwork"><path class="cvcls-1" d="M110.5 0C49.9.91.5 50.51 0 111.21a111.56 111.56 0 0 0 27.1 74 8.07 8.07 0 0 0 11.7.4l9.7-9.7-.1-.1 13.6-13.7a6.1 6.1 0 0 0 .3-8.5 6 6 0 0 0-8.6-.1l-6.4 6.4a8 8 0 0 1-12.5-1.5 90.24 90.24 0 0 1-11.6-31.6 8 8 0 0 1 7.9-9.4h9.4a6 6 0 1 0 .2-12h-9.4A8 8 0 0 1 23.4 96a89.62 89.62 0 0 1 15.2-36 7.94 7.94 0 0 1 12.1-.9l6.8 6.8a5.92 5.92 0 0 0 4.2 1.8 5.74 5.74 0 0 0 4.1-1.6 6.19 6.19 0 0 0 0-8.8l-6.6-6.6a7.87 7.87 0 0 1 1-12.1 89.18 89.18 0 0 1 36.7-15.3 8 8 0 0 1 9.3 7.9v10.5a6 6 0 1 0 12 .2V31.21a8 8 0 0 1 9.3-7.9 89 89 0 0 1 36.5 15.2 7.94 7.94 0 0 1 1 12.1l-6.6 6.6a6.28 6.28 0 0 0-.1 8.8 5.91 5.91 0 0 0 4.1 1.6 5.76 5.76 0 0 0 4.2-1.8l6.8-6.8a8 8 0 0 1 12.2 1.1 89.63 89.63 0 0 1 16.5 52 88.73 88.73 0 0 1-12.7 46 8.06 8.06 0 0 1-12.6 1.6l-6.3-6.3a6 6 0 1 0-8.3 8.6l13.6 13.6-.1.1 9.7 9.7a8 8 0 0 0 11.8-.5A111.66 111.66 0 0 0 224.1 112C224.3 49.71 173.2-.89 110.5 0z"/><path class="cvcls-1" d="M185.5 105.51l-39.5-5.6a8.17 8.17 0 0 1-5.9-4.1 32.31 32.31 0 1 0 .1 30.8 8 8 0 0 1 5.9-4.2l39.4-6c6.2-1 6.2-10 0-10.9z"/></g></g></symbol><symbol viewBox="-227.196 -227.194 2249.223 2249.219" id="plus"><path d="M2022.026 764.896l-.143 265.258-992.022-.004.292 991.735-265.254.14-.147-992.165-991.943.074-.004-265.397 991.662.217.07-991.948h265.4l-.078 991.948 992.17.142z"/></symbol><symbol viewBox="0 0 1792 1792" id="print"><path d="M448 1536h896v-256H448v256zm0-640h896V512h-160q-40 0-68-28t-28-68V256H448v640zm1152 64q0-26-19-45t-45-19-45 19-19 45 19 45 45 19 45-19 19-45zm128 0v416q0 13-9.5 22.5t-22.5 9.5h-224v160q0 40-28 68t-68 28H416q-40 0-68-28t-28-68v-160H96q-13 0-22.5-9.5T64 1376V960q0-79 56.5-135.5T256 768h64V224q0-40 28-68t68-28h672q40 0 88 20t76 48l152 152q28 28 48 76t20 88v256h64q79 0 135.5 56.5T1728 960z"/></symbol><symbol viewBox="0 0 223.52 190.25" id="risks"><title>risks</title><path d="M207.14 16.49a55.69 55.69 0 0 0-61-12.19A56.46 56.46 0 0 0 128 16.66l-10.1 9.25a9.29 9.29 0 0 1-12.66-.09l-9.68-9.15A56.49 56.49 0 0 0 77.37 4.29 56 56 0 0 0 0 56.3c0 7.64 1.55 18.75 4.29 25.47A64.82 64.82 0 0 0 10 92.59h47.52a4 4 0 0 0 3.66-2.39l15-34a4 4 0 0 1 7.16-.2l23.89 44.71a4 4 0 0 0 7.18-.24l28-62.12a4 4 0 0 1 7.39.22L169.35 90a4 4 0 0 0 3.74 2.58h40.41a65 65 0 0 0 5.74-10.82c2.78-6.72 4.29-17.83 4.29-25.47a56.31 56.31 0 0 0-16.39-39.8z"/><path d="M156.94 108l-8.58-22.54a4 4 0 0 0-7.39-.22l-25.18 56a4 4 0 0 1-7.18.24L84.9 97.06a4 4 0 0 0-7.19.27l-4.79 10.87a4 4 0 0 1-3.66 2.39H26.48c26.15 26 65.09 63.59 79.44 77.42a8.08 8.08 0 0 0 11.15 0c14.44-13.81 53.71-51.45 80-77.44h-36.39a4 4 0 0 1-3.74-2.57z"/></symbol><symbol viewBox="0 0 1792 1792" id="save"><path d="M512 1536h768v-384H512v384zm896 0h128V640q0-14-10-38.5t-20-34.5l-281-281q-10-10-34-20t-39-10v416q0 40-28 68t-68 28H480q-40 0-68-28t-28-68V256H256v1280h128v-416q0-40 28-68t68-28h832q40 0 68 28t28 68v416zm-384-928V288q0-13-9.5-22.5T992 256H800q-13 0-22.5 9.5T768 288v320q0 13 9.5 22.5T800 640h192q13 0 22.5-9.5t9.5-22.5zm640 32v928q0 40-28 68t-68 28H224q-40 0-68-28t-28-68V224q0-40 28-68t68-28h928q40 0 88 20t76 48l280 280q28 28 48 76t20 88z"/></symbol><symbol viewBox="0 0 224 177" id="screen-bar-graph"><title>screen-bar-graph</title><g data-name="Layer 2"><path d="M216 0H8a8 8 0 0 0-8 8v128a8 8 0 0 0 8 8h75.5a5.5 5.5 0 0 1 0 11H66a8 8 0 0 0-8 8v6a8 8 0 0 0 8 8h92a8 8 0 0 0 8-8v-6a8 8 0 0 0-8-8h-17.5a5.5 5.5 0 0 1 0-11H216a8 8 0 0 0 8-8V8a8 8 0 0 0-8-8zm-14 118a4 4 0 0 1-4 4H26a4 4 0 0 1-4-4V26a4 4 0 0 1 4-4h172a4 4 0 0 1 4 4z"/><path d="M64.8 85h-15a4 4 0 0 0-4 4v15a4 4 0 0 0 4 4h15a4 4 0 0 0 4-4V89a4 4 0 0 0-4-4zM101.3 72h-15a4 4 0 0 0-4 4v28a4 4 0 0 0 4 4h15a4 4 0 0 0 4-4V76a4 4 0 0 0-4-4zM137.8 56h-15a4 4 0 0 0-4 4v44a4 4 0 0 0 4 4h15a4 4 0 0 0 4-4V60a4 4 0 0 0-4-4zM174.3 37h-15a4 4 0 0 0-4 4v63a4 4 0 0 0 4 4h15a4 4 0 0 0 4-4V41a4 4 0 0 0-4-4z"/></g></symbol><symbol viewBox="0 0 1792 1792" id="search"><path d="M1216 832q0-185-131.5-316.5T768 384 451.5 515.5 320 832t131.5 316.5T768 1280t316.5-131.5T1216 832zm512 832q0 52-38 90t-90 38q-54 0-90-38l-343-342q-179 124-399 124-143 0-273.5-55.5t-225-150-150-225T64 832t55.5-273.5 150-225 225-150T768 128t273.5 55.5 225 150 150 225T1472 832q0 220-124 399l343 343q37 37 37 90z"/></symbol><symbol viewBox="0 0 1792 1792" id="slideshare"><path d="M873 740q0 83-63.5 142.5T657 942t-152.5-59.5T441 740q0-84 63.5-143T657 538t152.5 59T873 740zm502 0q0 83-63 142.5T1159 942q-89 0-152.5-59.5T943 740q0-84 63.5-143t152.5-59q90 0 153 59t63 143zm225 180V253q0-87-32-123.5T1457 93H345q-83 0-112.5 34T203 253v673q43 23 88.5 40t81 28 81 18.5 71 11 70 4 58.5.5 56.5-2 44.5-2q68-1 95 27 6 6 10 9 26 25 61 51 7-91 118-87 5 0 36.5 1.5t43 2 45.5 1 53-1 54.5-4.5 61-8.5 62-13.5 67-19.5 67.5-27 72-34.5zm163-5q-121 149-372 252 84 285-23 465-66 113-183 148-104 32-182-15-86-51-82-164l-1-326v-1q-8-2-24.5-6t-23.5-5l-1 338q4 114-83 164-79 47-183 15-117-36-182-150-105-180-22-463-251-103-372-252-25-37-4-63t60 1q4 2 11.5 7t10.5 8V174q0-72 47-123T268 0h1257q67 0 114 51t47 123v694l21-15q39-27 60-1t-4 63z"/></symbol><symbol viewBox="0 0 1792 1792" id="star"><path d="M897.133 13.944l209.8 673.736h679.33l-549.465 416.587 210.052 673.8-549.717-416.398-549.475 416.397 209.81-673.8L7.878 687.68H687.27L897.134 13.945z"/></symbol><symbol viewBox="0 0 210.23 200.02" id="storage-efficiency"><title>storage-efficiency</title><circle cx="169.08" cy="17.98" r="17.98"/><circle cx="105.1" cy="17.98" r="17.98"/><circle cx="41.15" cy="17.98" r="17.98"/><circle cx="74.32" cy="60.86" r="17.98"/><circle cx="135.91" cy="60.86" r="17.98"/><path d="M201.23 94.87H9a9 9 0 0 0 0 18h192.23a9 9 0 0 0 0-18z"/><circle cx="105.11" cy="162.4" r="37.63"/></symbol><symbol viewBox="0 0 1792 1792" id="subscribe"><path d="M1478.548 1787.853c0-812.474-660.807-1473.46-1473.27-1473.46V4.147c983.427 0 1783.575 800.158 1783.575 1783.705h-310.305zM237.818 1322.52c128.53 0 232.73 104.14 232.73 232.662 0 128.41-104.2 232.67-232.73 232.67-128.47 0-232.67-104.26-232.67-232.67 0-128.522 104.2-232.66 232.67-232.66zM5.278 624.518c641.26 0 1163.215 521.815 1163.215 1163.336H858.248c0-470.316-382.724-853.16-852.97-853.16V624.516z"/></symbol><symbol viewBox="0 0 192.7 224" id="systems"><title>systems</title><g data-name="Layer 2"><path d="M184.7 161H8a8 8 0 0 0-8 8v47a8 8 0 0 0 8 8h176.7a8 8 0 0 0 8-8v-47a8 8 0 0 0-8-8zm-13.3 51.5a10 10 0 1 1 10-10 10 10 0 0 1-10 10zM184.7 80.5H8a8 8 0 0 0-8 8v47a8 8 0 0 0 8 8h176.7a8 8 0 0 0 8-8v-47a8 8 0 0 0-8-8zM171.4 132a10 10 0 1 1 10-10 10 10 0 0 1-10 10zM184.7 0H8a8 8 0 0 0-8 8v47a8 8 0 0 0 8 8h176.7a8 8 0 0 0 8-8V8a8 8 0 0 0-8-8zm-13.3 51.5a10 10 0 1 1 10-10 10 10 0 0 1-10 10z"/></g></symbol><symbol viewBox="0 0 28 28" id="th"><path d="M8 19.5v3q0 .625-.438 1.062T6.5 24h-5q-.625 0-1.062-.438T0 22.5v-3q0-.625.438-1.062T1.5 18h5q.625 0 1.062.438T8 19.5zm0-8v3q0 .625-.438 1.062T6.5 16h-5q-.625 0-1.062-.438T0 14.5v-3q0-.625.438-1.062T1.5 10h5q.625 0 1.062.438T8 11.5zm10 8v3q0 .625-.438 1.062T16.5 24h-5q-.625 0-1.062-.438T10 22.5v-3q0-.625.438-1.062T11.5 18h5q.625 0 1.062.438T18 19.5zM8 3.5v3q0 .625-.438 1.062T6.5 8h-5Q.875 8 .438 7.562T0 6.5v-3q0-.625.438-1.062T1.5 2h5q.625 0 1.062.438T8 3.5zm10 8v3q0 .625-.438 1.062T16.5 16h-5q-.625 0-1.062-.438T10 14.5v-3q0-.625.438-1.062T11.5 10h5q.625 0 1.062.438T18 11.5zm10 8v3q0 .625-.438 1.062T26.5 24h-5q-.625 0-1.062-.438T20 22.5v-3q0-.625.438-1.062T21.5 18h5q.625 0 1.062.438T28 19.5zm-10-16v3q0 .625-.438 1.062T16.5 8h-5q-.625 0-1.062-.438T10 6.5v-3q0-.625.438-1.062T11.5 2h5q.625 0 1.062.438T18 3.5zm10 8v3q0 .625-.438 1.062T26.5 16h-5q-.625 0-1.062-.438T20 14.5v-3q0-.625.438-1.062T21.5 10h5q.625 0 1.062.438T28 11.5zm0-8v3q0 .625-.438 1.062T26.5 8h-5q-.625 0-1.062-.438T20 6.5v-3q0-.625.438-1.062T21.5 2h5q.625 0 1.062.438T28 3.5z"/></symbol><symbol viewBox="0 0 28 28" id="th-list"><path d="M8 19.5v3q0 .625-.438 1.062T6.5 24h-5q-.625 0-1.062-.438T0 22.5v-3q0-.625.438-1.062T1.5 18h5q.625 0 1.062.438T8 19.5zm0-8v3q0 .625-.438 1.062T6.5 16h-5q-.625 0-1.062-.438T0 14.5v-3q0-.625.438-1.062T1.5 10h5q.625 0 1.062.438T8 11.5zm20 8v3q0 .625-.438 1.062T26.5 24h-15q-.625 0-1.062-.438T10 22.5v-3q0-.625.438-1.062T11.5 18h15q.625 0 1.062.438T28 19.5zM8 3.5v3q0 .625-.438 1.062T6.5 8h-5Q.875 8 .438 7.562T0 6.5v-3q0-.625.438-1.062T1.5 2h5q.625 0 1.062.438T8 3.5zm20 8v3q0 .625-.438 1.062T26.5 16h-15q-.625 0-1.062-.438T10 14.5v-3q0-.625.438-1.062T11.5 10h15q.625 0 1.062.438T28 11.5zm0-8v3q0 .625-.438 1.062T26.5 8h-15q-.625 0-1.062-.438T10 6.5v-3q0-.625.438-1.062T11.5 2h15q.625 0 1.062.438T28 3.5z"/></symbol><symbol viewBox="0 0 1792 1792" id="times-circle"><path d="M1277 1122q0-26-19-45l-181-181 181-181q19-19 19-45 0-27-19-46l-90-90q-19-19-46-19-26 0-45 19L896 715 715 534q-19-19-45-19-27 0-46 19l-90 90q-19 19-19 46 0 26 19 45l181 181-181 181q-19 19-19 45 0 27 19 46l90 90q19 19 46 19 26 0 45-19l181-181 181 181q19 19 45 19 27 0 46-19l90-90q19-19 19-46zm387-226q0 209-103 385.5T1281.5 1561 896 1664t-385.5-103T231 1281.5 128 896t103-385.5T510.5 231 896 128t385.5 103T1561 510.5 1664 896z"/></symbol><symbol viewBox="0 0 1792 1792" id="translate"><path d="M1687.254 1448.1h-465.187c-40.696 0-93.02 51.593-93.02 92.93v186.038c0 26.522-39.514 9.082-58.317-9.27L774.454 1385.33c-9.944-11.626-10.125-28.524-.362-39.88l296.82-331.11c18.983-18.255 58.136-37.24 58.136 61.593v92.93c0 41.51 52.323 93.2 93.02 93.2h279.058c40.515 0 93.02-51.69 93.02-93.2V610.745c0-41.148-52.505-92.93-93.02-92.93h-93.02c-40.695 0-93.11-51.73-93.11-93.02 0-41.237 52.415-92.928 93.11-92.928h279.148c40.424 0 92.93 51.69 92.93 92.93v930.19c0 41.42-52.506 93.112-92.93 93.112zM721.818 764.85c-18.895 18.492-57.866 21.31-57.866-60.995v-93.11c0-41.147-52.372-92.928-93.02-92.928H291.875c-40.557 0-93.02 51.78-93.02 92.93v558.114c0 41.33 52.463 93.2 93.02 93.2h93.02c40.557 0 93.02 51.504 93.02 92.93 0 41.238-52.463 93.11-93.02 93.11H105.837c-40.654 0-93.02-51.872-93.02-93.11V424.798c0-41.238 52.365-92.93 93.02-92.93h465.096c40.647 0 93.02-51.82 93.02-93.108v-92.93c0-106.642 39.242-102.51 58.046-84.207l296.227 332.563c9.985 11.447 10.354 28.43.542 39.695L721.817 764.85z"/></symbol><symbol viewBox="0 0 1792 1792" id="trash-o"><path d="M704 736v576q0 14-9 23t-23 9h-64q-14 0-23-9t-9-23V736q0-14 9-23t23-9h64q14 0 23 9t9 23zm256 0v576q0 14-9 23t-23 9h-64q-14 0-23-9t-9-23V736q0-14 9-23t23-9h64q14 0 23 9t9 23zm256 0v576q0 14-9 23t-23 9h-64q-14 0-23-9t-9-23V736q0-14 9-23t23-9h64q14 0 23 9t9 23zm128 724V512H448v948q0 22 7 40.5t14.5 27 10.5 8.5h832q3 0 10.5-8.5t14.5-27 7-40.5zM672 384h448l-48-117q-7-9-17-11H738q-10 2-17 11zm928 32v64q0 14-9 23t-23 9h-96v948q0 83-47 143.5t-113 60.5H480q-66 0-113-58.5T320 1464V512h-96q-14 0-23-9t-9-23v-64q0-14 9-23t23-9h309l70-167q15-37 54-63t79-26h320q40 0 79 26t54 63l70 167h309q14 0 23 9t9 23z"/></symbol><symbol viewBox="0 0 1792 1792" id="triangle-info"><path d="M1007.64 232.17c0-61.072-49.567-110.638-110.64-110.638S786.362 171.098 786.362 232.17L11.894 1559.83c0 61.072 49.565 110.64 110.638 110.64H1671.47c61.07 0 110.637-49.567 110.637-110.64L1007.64 232.17zm-41.616 1179.954h-143.05v-429.15h143.05v429.15zm0-500.675h-143.05V696.874h143.05V911.45z"/></symbol><symbol viewBox="0 0 1792 1792" id="twitter"><path d="M1684 408q-67 98-162 167 1 14 1 42 0 130-38 259.5T1369.5 1125 1185 1335.5t-258 146-323 54.5q-271 0-496-145 35 4 78 4 225 0 401-138-105-2-188-64.5T285 1033q33 5 61 5 43 0 85-11-112-23-185.5-111.5T172 710v-4q68 38 146 41-66-44-105-115t-39-154q0-88 44-163 121 149 294.5 238.5T884 653q-8-38-8-74 0-134 94.5-228.5T1199 256q140 0 236 102 109-21 205-78-37 115-142 178 93-10 186-50z"/></symbol><symbol viewBox="0 0 207.67 149.87" id="upgrade"><defs><style>.docls-1{fill:#454545}</style></defs><title>upgrade</title><g id="doLayer_2" data-name="Layer 2"><path class="docls-1" d="M206.67 1.1a3.63 3.63 0 0 0-2.6-1.1h-61.5c-3.7.2-5.6 4.7-3.2 7.2l13.1 13.1a3.74 3.74 0 0 1 0 5.2l-38.3 38.3a3.74 3.74 0 0 1-5.2 0L88.28 43.3a7.42 7.42 0 0 0-10.5 0l-75.6 75.6a7.42 7.42 0 0 0 0 10.5l18.3 18.3a7.42 7.42 0 0 0 10.5 0l49.5-49.5a3.74 3.74 0 0 1 5.2 0l20.6 20.6a7.42 7.42 0 0 0 10.5 0l64.5-64.5a3.74 3.74 0 0 1 5.2 0l1.5 1.5 12.4 12.4c2.5 2.5 7 .3 7.2-3.4l.1-61.2a3.74 3.74 0 0 0-1.01-2.5z" id="doArtwork"/></g></symbol><symbol viewBox="0 0 1792 1792" id="usd"><path d="M1362 1185q0 153-99.5 263.5T1004 1585v175q0 14-9 23t-23 9H837q-13 0-22.5-9.5T805 1760v-175q-66-9-127.5-31T576 1509.5t-74-48-46.5-37.5-17.5-18q-17-21-2-41l103-135q7-10 23-12 15-2 24 9l2 2q113 99 243 125 37 8 74 8 81 0 142.5-43t61.5-122q0-28-15-53t-33.5-42-58.5-37.5-66-32-80-32.5q-39-16-61.5-25T733 948.5t-62.5-31T614 882t-53.5-42.5-43.5-49-35.5-58-21-66.5-8.5-78q0-138 98-242t255-134V32q0-13 9.5-22.5T837 0h135q14 0 23 9t9 23v176q57 6 110.5 23t87 33.5T1265 302t39 29 15 14q17 18 5 38l-81 146q-8 15-23 16-14 3-27-7-3-3-14.5-12t-39-26.5-58.5-32-74.5-26T921 430q-95 0-155 43t-60 111q0 26 8.5 48t29.5 41.5 39.5 33 56 31 60.5 27 70 27.5q53 20 81 31.5t76 35 75.5 42.5 62 50 53 63.5 31.5 76.5 13 94z"/></symbol><symbol viewBox="0 0 1792 1792" id="user"><path d="M272.218 1783.975c0-441.718 91.588-711.18 622.282-711.18 524.882 0 622.282 269.462 622.282 711.18H272.218zM894.5 895c-245.51 0-444.487-198.98-444.487-444.31 0-245.686 198.98-444.664 444.487-444.664s444.487 198.98 444.487 444.663C1338.987 696.02 1140.01 895 894.5 895z"/></symbol><symbol viewBox="0 0 28 28" id="user-circle-o"><path d="M14 0c7.734 0 14 6.266 14 14 0 7.688-6.234 14-14 14-7.75 0-14-6.297-14-14C0 6.266 6.266 0 14 0zm9.672 21.11C25.125 19.11 26 16.655 26 14c0-6.61-5.39-12-12-12S2 7.39 2 14c0 2.656.875 5.11 2.328 7.11C4.89 18.31 6.25 16 9.108 16a6.98 6.98 0 0 0 9.783 0c2.86 0 4.22 2.312 4.782 5.11zM20 11c0-3.313-2.688-6-6-6s-6 2.688-6 6 2.688 6 6 6 6-2.688 6-6z"/></symbol><symbol viewBox="0 0 224.63 224.31" id="visualization"><defs><style>.dscls-1{fill:#454545}</style></defs><title>Asset 1</title><g id="dsLayer_2" data-name="Layer 2"><g id="dsArtwork"><path class="dscls-1" d="M113.53 0a112.3 112.3 0 0 0-49.7 213.6 8 8 0 0 0 11.4-7.2v-9.2a4 4 0 0 0-2.3-3.6 90.76 90.76 0 0 1-51-79.9c-.8-49.7 39.3-91 89-91.7a90.29 90.29 0 0 1 39.6 172.1 4.18 4.18 0 0 0-2.4 3.6v9.2a8 8 0 0 0 11.3 7.3A112.28 112.28 0 0 0 113.53 0z"/><path class="dscls-1" d="M97.43 97.81a21.37 21.37 0 0 1 29.9-.2l.1.1.1.1s27.4 27.6 38 38.5a4 4 0 0 0 6.6-1.4 63.94 63.94 0 1 0-119.6.3 4 4 0 0 0 6.6 1.3c10.7-10.9 38.3-38.6 38.3-38.7z"/><path class="dscls-1" d="M154.13 149.91l-39.3-39.3a3.25 3.25 0 0 0-2.4-1 3.41 3.41 0 0 0-2.4 1L70.43 150c-2.2 2.5-.6 6.6 2.6 6.6h12.2a8 8 0 0 1 8 8v54.6a4.08 4.08 0 0 0 3.5 4 113.11 113.11 0 0 0 15.5 1.1 116.39 116.39 0 0 0 14.5-.9 4.08 4.08 0 0 0 3.5-4v-54.7a8 8 0 0 1 8-8h13.4c3.1.01 4.7-4.19 2.5-6.79z"/></g></g></symbol><symbol viewBox="0 0 15 15" id="weibo"><path class="dtst0" d="M6.2 12.8c-2.5.2-4.6-.9-4.7-2.5C1.3 8.7 3.2 7.2 5.7 7c2.5-.2 4.6.9 4.7 2.5.2 1.6-1.7 3.1-4.2 3.3m5-5.3c-.2-.1-.4-.1-.2-.4.2-.6.3-1.1 0-1.5-.5-.7-1.8-.7-3.3 0 0 0-.5.2-.4-.2.2-.7.2-1.4-.2-1.7-.8-.8-3 0-4.9 1.9C.8 7 0 8.5 0 9.8c0 2.5 3.1 3.9 6.2 3.9 4 0 6.7-2.3 6.7-4.2.1-1.1-.9-1.8-1.7-2M13.8 3c-1-1.1-2.4-1.5-3.7-1.2-.3 0-.5.3-.4.6 0 .4.3.6.6.5.9-.2 2 .1 2.7.9.7.8.9 1.8.6 2.7-.1.3.1.6.4.7.3.1.6-.1.7-.4.4-1.3.1-2.7-.9-3.8"/><path class="dtst0" d="M12.3 4.3c-.5-.5-1.2-.7-1.8-.6-.3.1-.4.3-.4.6.1.3.3.4.6.4.3-.1.7 0 .9.3.2.3.3.6.2.9-.1.3.1.5.3.6.3.1.5-.1.6-.3.2-.6.1-1.3-.4-1.9M6.4 9.9c-.1.1-.3.2-.4.2-.2-.1-.2-.3-.2-.4.1-.1.3-.2.4-.2.2.1.3.3.2.4m-.8 1c-.2.4-.7.5-1.1.4-.4-.2-.5-.6-.3-1s.7-.5 1.1-.4c.4.2.5.6.3 1m.9-2.7c-1.2-.3-2.5.3-3 1.3-.5 1.1 0 2.2 1.2 2.6 1.2.4 2.7-.2 3.2-1.3.4-1.1-.2-2.3-1.4-2.6"/></symbol><symbol viewBox="0 0 15 15" id="xing"><path class="dust0" d="M13.8.2c.2.2.2.3.1.6-.6 1.1-1.3 2.2-1.9 3.3-.4.8-.9 1.6-1.3 2.4-.5.8-.9 1.5-1.3 2.3V9c.4.8.9 1.6 1.3 2.4.4.7.8 1.5 1.2 2.2l.3.6c.1.2.1.4-.1.5H9.8c-.3-.1-.4-.3-.6-.5-.5-.9-1-1.9-1.5-2.8-.4-.7-.7-1.3-1.1-2 0-.1-.1-.2-.2-.4-.1-.1-.1-.2 0-.2.3-.5.5-1 .8-1.4.5-.8.9-1.6 1.4-2.5.4-.8.9-1.6 1.3-2.4.3-.6.7-1.2 1-1.8.1-.2.3-.4.5-.5h2.4zM3 10.4H2c-.4 0-.5-.2-.3-.5.4-.8.9-1.6 1.3-2.4.3-.5.6-.9.8-1.4v-.2L2.6 3.8c0-.1-.1-.2-.1-.3-.1-.2 0-.4.2-.4h2.1c.3 0 .6.1.7.4.4.7.8 1.3 1.1 2 .1.2.2.3.3.5v.2c-.4.4-.6.9-.9 1.4-.5.8-.9 1.6-1.4 2.4-.2.3-.4.5-.8.5-.2-.1-.5-.1-.8-.1z"/></symbol><symbol viewBox="0 0 1792 1792" id="youtube"><path d="M1099 1244v211q0 67-39 67-23 0-45-22v-301q22-22 45-22 39 0 39 67zm338 1v46h-90v-46q0-68 45-68t45 68zm-966-218h107v-94H266v94h105v569h100v-569zm288 569h89v-494h-89v378q-30 42-57 42-18 0-21-21-1-3-1-35v-364h-89v391q0 49 8 73 12 37 58 37 48 0 102-61v54zm429-148v-197q0-73-9-99-17-56-71-56-50 0-93 54V933h-89v663h89v-48q45 55 93 55 54 0 71-55 9-27 9-100zm338-10v-13h-91q0 51-2 61-7 36-40 36-46 0-46-69v-87h179v-103q0-79-27-116-39-51-106-51-68 0-107 51-28 37-28 116v173q0 79 29 116 39 51 108 51 72 0 108-53 18-27 21-54 2-9 2-58zM918 525V315q0-69-43-69t-43 69v210q0 70 43 70t43-70zm719 751q0 234-26 350-14 59-58 99t-102 46q-184 21-555 21t-555-21q-58-6-102.5-46t-57.5-99q-26-112-26-350 0-234 26-350 14-59 58-99t103-47q183-20 554-20t555 20q58 7 102.5 47t57.5 99q26 112 26 350zM639 0h102L620 399v271H520V399q-14-74-61-212Q422 84 394 0h106l71 263zm370 333v175q0 81-28 118-38 51-106 51-67 0-105-51-28-38-28-118V333q0-80 28-117 38-51 105-51 68 0 106 51 28 37 28 117zm335-162v499h-91v-55q-53 62-103 62-46 0-59-37-8-24-8-75V171h91v367q0 33 1 35 3 22 21 22 27 0 57-43V171h91z"/></symbol></svg>
