<svg xmlns="http://www.w3.org/2000/svg" viewBox="0 0 45 45"><defs><style>.cls-1{fill:#fff;stroke:#101820;stroke-miterlimit:10;stroke-width:3px;}.cls-2{fill:#753bbd;}</style></defs><g id="Layer_4" data-name="Layer 4"><circle class="cls-1" cx="22.5" cy="22.5" r="20.25"/><path class="cls-2" d="M22.5,10.31a8.43,8.43,0,0,0-1.79.18A9,9,0,0,0,16.52,26a2.51,2.51,0,0,1,.85,1.89v3a2.58,2.58,0,0,0,2.57,2.57h.35a2.55,2.55,0,0,0,4.42,0h.36a2.58,2.58,0,0,0,2.57-2.57v-3A2.5,2.5,0,0,1,28.46,26a9,9,0,0,0-6-15.69Zm2.57,20.53H19.94V29.56h5.13Zm0-2.57H19.94V27h5.13Zm.54-3.77H19.36a6.08,6.08,0,1,1,6.25,0Z"/></g></svg>
