<svg viewBox="0 0 96 96" xmlns="http://www.w3.org/2000/svg" xmlns:xlink="http://www.w3.org/1999/xlink" id="Icons_Playbook" overflow="hidden"><path d="M76 76 26 76 26 20 76 20 76 76ZM20 14 20 20 18.7 20C17.1 20.1 16 21.4 16 23 15.9 24.6 17.1 25.9 18.7 26L20 26 20 30 18.7 30C17 30 15.7 31.3 15.7 33 15.7 34.7 17 36 18.7 36L20 36 20 40 18.7 40C17 40 15.7 41.3 15.7 43 15.7 44.7 17 46 18.7 46L20 46 20 50 18.7 50C17 50 15.7 51.3 15.7 53 15.7 54.7 17 56 18.7 56L20 56 20 60 18.7 60C17 60 15.7 61.3 15.7 63 15.7 64.7 17 66 18.7 66L20 66 20 70 18.7 70C17 70 15.7 71.3 15.7 73 15.7 74.7 17 76 18.7 76L20 76 20 82 82 82 82 14 20 14Z"/><path d="M40 58C42.2 58 44 59.8 44 62 44 64.2 42.2 66 40 66 37.8 66 36 64.2 36 62 36 59.8 37.8 58 40 58ZM40 70C44 70 47.4 67 47.9 63 48.4 59 45.9 55.3 42 54.3L42 52C42 50.9 42.9 50 44 50L58 50C61.3 50 64 47.3 64 44L64 32.8 66.6 35.4C67.4 36.2 68.6 36.2 69.4 35.4 70.2 34.6 70.2 33.4 69.4 32.6L63.4 26.6C63 26.2 62.5 26 62 26 61.5 26 61 26.2 60.6 26.6L54.6 32.6C53.8 33.4 53.8 34.6 54.6 35.4 55.4 36.2 56.6 36.2 57.4 35.4L60 32.8 60 44C60 45.1 59.1 46 58 46L44 46C40.7 46 38 48.7 38 52L38 54.3C34.1 55.3 31.6 59.1 32.1 63 32.6 67 36 70 40 70Z"/><path d="M69.4 54.6C69 54.2 68.5 54 68 54 67.5 54 67 54.2 66.6 54.6L62 59.2 57.4 54.6C56.6 53.8 55.4 53.8 54.6 54.6 53.8 55.4 53.8 56.6 54.6 57.4L59.2 62 54.6 66.6C53.8 67.4 53.8 68.6 54.6 69.4 55.4 70.2 56.6 70.2 57.4 69.4L62 64.8 66.6 69.4C67.4 70.2 68.6 70.2 69.4 69.4 70.2 68.6 70.2 67.4 69.4 66.6L64.8 62 69.4 57.4C70.2 56.6 70.2 55.4 69.4 54.6Z"/><path d="M32.6 41.4C33 41.8 33.5 42 34 42 34.5 42 35 41.8 35.4 41.4L40 36.8 44.6 41.4C45.4 42.2 46.6 42.2 47.4 41.4 48.2 40.6 48.2 39.4 47.4 38.6L42.8 34 47.4 29.4C48.2 28.6 48.2 27.4 47.4 26.6 46.6 25.8 45.4 25.8 44.6 26.6L40 31.2 35.4 26.6C34.6 25.8 33.4 25.8 32.6 26.6 31.8 27.4 31.8 28.6 32.6 29.4L37.2 34 32.6 38.6C31.8 39.4 31.8 40.6 32.6 41.4Z"/></svg>