<svg viewBox="0 0 96 96" xmlns="http://www.w3.org/2000/svg" xmlns:xlink="http://www.w3.org/1999/xlink" id="Icons_RouteTwoPinsWithAPath" overflow="hidden"><path d="M74.8 21.8C72.4 21.8 70.4 19.8 70.4 17.4 70.4 15 72.4 13 74.8 13 77.2 13 79.2 15 79.2 17.4L79.2 17.4C79.2 19.8 77.2 21.8 74.8 21.8 74.8 21.8 74.8 21.8 74.8 21.8ZM74.8 7C71.4 7 68.2 8.7 66.3 11.5 64.4 14.3 64 17.9 65.2 21.1L69.9 31.4 73.9 39.9C74.2 40.4 74.8 40.6 75.2 40.3 75.4 40.2 75.5 40.1 75.6 39.9L79.6 31.4 84.3 21.1C85.5 17.9 85.1 14.3 83.2 11.5 81.4 8.7 78.2 7 74.8 7Z"/><path d="M23.8 61.8C20.8 61.8 18.3 59.3 18.3 56.3 18.3 53.3 20.8 50.8 23.8 50.8 26.8 50.8 29.3 53.3 29.3 56.3 29.3 56.3 29.3 56.3 29.3 56.3 29.3 59.3 26.8 61.8 23.8 61.8 23.8 61.8 23.8 61.8 23.8 61.8L23.8 61.8ZM23.8 43.5C19.6 43.5 15.6 45.6 13.2 49.1 10.8 52.6 10.3 57.1 11.9 61L17.7 73.8 22.7 84.3C23 84.9 23.8 85.1 24.4 84.8 24.6 84.7 24.8 84.5 24.9 84.3L29.9 73.8 35.7 61C37.2 57.1 36.7 52.6 34.4 49.1 32 45.6 28 43.5 23.8 43.5L23.8 43.5Z"/><path d="M37.8 85 35.2 85C34 85 32.9 85 31.8 85L31.8 79C32.8 79 34 79 35.2 79L37.8 79 37.8 85Z"/><path d="M41.9 85 41.9 79C44.1 79 46 79 47.8 78.9L48 84.9C46.1 85 44.1 85 41.9 85Z"/><path d="M52 84.7 51.7 78.7C53.8 78.6 55.8 78.5 57.5 78.3L58.1 84.3C56.3 84.5 54.2 84.6 52 84.7L52 84.7Z"/><path d="M62.3 83.8 61.4 77.9C63.3 77.6 65.1 77.3 66.9 76.8L68.5 82.6C66.4 83.1 64.4 83.5 62.3 83.8Z"/><path d="M72.7 81.1 70.3 75.6C71.6 75.2 72.7 74.3 73.5 73.2L78.8 76.1C77.3 78.4 75.2 80.1 72.7 81.1L72.7 81.1Z"/><path d="M73.6 71.2C73.4 69.9 72.8 68.6 71.9 67.7L76.1 63.5C78 65.4 79.2 67.8 79.5 70.5L73.6 71.2Z"/><path d="M69.4 65.9C67.8 65.1 66.1 64.4 64.4 63.9L66.1 58.2C68.2 58.8 70.3 59.6 72.2 60.6L69.4 65.9Z"/><path d="M60.6 62.9 59 62.5C57.6 62.1 56.1 61.8 54.7 61.4L56.3 55.6C57.6 56 59 56.3 60.4 56.7L62 57.1 60.6 62.9Z"/><path d="M50.6 60C48.2 59.1 46 57.6 44.4 55.6L49.3 52.2C50.2 53.3 51.5 54.1 52.8 54.5L50.6 60Z"/><path d="M48.9 50.2 42.9 49.8C43.1 46.9 44.7 44.3 47 42.6L50.7 47.3C48.9 48.8 48.9 49.9 48.9 50.2L48.9 50.2Z"/><path d="M53.5 45.8 51.1 40.3C53.1 39.4 55.2 38.7 57.3 38.2L58.7 44C56.9 44.5 55.2 45.1 53.5 45.8L53.5 45.8Z"/><path d="M62.4 43.3 61.4 37.4C64 37 66.2 36.7 67.6 36.6L68.1 42.6C67.1 42.7 64.9 42.9 62.4 43.3L62.4 43.3Z"/></svg>