<svg viewBox="0 0 96 96" xmlns="http://www.w3.org/2000/svg" xmlns:xlink="http://www.w3.org/1999/xlink" id="Icons_List_LTR_M" overflow="hidden"><g id="Icons"><rect x="45" y="25" width="23" height="2"/><rect x="45" y="40" width="23" height="2"/><rect x="45" y="55" width="23" height="2"/><rect x="45" y="70" width="23" height="2"/><path d="M18 88 78 88 78 8 18 8ZM20 10 76 10 76 86 20 86Z"/><path d="M28 30.5 37 30.5 37 21.5 28 21.5ZM30 23.5 35 23.5 35 28.5 30 28.5Z"/><path d="M28 45.5 37 45.5 37 36.5 28 36.5ZM30 38.5 35 38.5 35 43.5 30 43.5Z"/><path d="M28 60.5 37 60.5 37 51.5 28 51.5ZM30 53.5 35 53.5 35 58.5 30 58.5Z"/><path d="M28 75.5 37 75.5 37 66.5 28 66.5ZM30 68.5 35 68.5 35 73.5 30 73.5Z"/></g></svg>