<svg viewBox="0 0 96 96" xmlns="http://www.w3.org/2000/svg" xmlns:xlink="http://www.w3.org/1999/xlink" id="Icons_ShieldCross" overflow="hidden"><path d="M78.547 22.843C67.9405 21.9968 58.0505 17.1565 50.875 9.3 49.5224 7.73234 47.1551 7.55798 45.5874 8.91057 45.4482 9.03065 45.3181 9.16082 45.198 9.3 38.0225 17.1565 28.1325 21.9968 17.526 22.843 15.5553 23.0272 14.0532 24.6887 14.068 26.668L14.068 36.321C14.068 57.307 27.415 76.504 45.947 88.383 47.2199 89.201 48.8531 89.201 50.126 88.383 68.658 76.5 82.005 57.307 82.005 36.321L82.005 26.668C82.0198 24.6887 80.5177 23.0272 78.547 22.843ZM75.505 36.321C75.505 53.021 65.556 69.869 48.89 81.398L48.036 81.989 47.183 81.398C30.517 69.868 20.567 53.017 20.567 36.321L20.567 29.07 21.831 28.87C31.2479 27.3801 40.0127 23.135 47.02 16.67L48.036 15.733 49.053 16.67C56.0598 23.1351 64.8243 27.3803 74.241 28.87L75.505 29.07Z"/><path d="M48.036 19.789C41.0928 25.8611 32.639 29.9462 23.567 31.613L23.567 36.321C23.567 51.748 32.694 67.385 48.036 78.332 63.378 67.386 72.505 51.749 72.505 36.321L72.505 31.613C63.433 29.9462 54.9792 25.8611 48.036 19.789ZM59.007 56.1 55.571 59.536 47.971 51.936 40.371 59.536 36.941 56.1 44.541 48.5 36.941 40.9 40.377 37.464 47.977 45.064 55.577 37.464 59.007 40.9 51.407 48.5Z"/></svg>