<svg viewBox="0 0 96 96" xmlns="http://www.w3.org/2000/svg" xmlns:xlink="http://www.w3.org/1999/xlink" id="Icons_Planet" overflow="hidden"><path d="M91.9 30C91.4 28.8 89 28.6 86 28.6 81.5 28.6 74.5 29.9 66.1 32.4 61.7 27.2 55.2 24 47.9 24 34.6 24 23.9 34.7 23.9 48 23.9 48.6 23.9 49.1 24 49.6 10.9 56.6 2.8 63.2 4.1 66.4 4.6 67.6 6.5 68.2 9.5 68.2 17.6 68.2 33.6 63.9 51.2 56.7 75.3 46.8 93.8 34.6 91.9 30ZM25.2 55.8C25.6 56.9 26 58 26.6 59 22.4 60.2 18.8 61 15.8 61.6 18.2 59.9 21.4 57.9 25.2 55.8ZM70.8 40.7C70.5 39.6 70.1 38.6 69.6 37.6 73.5 36.5 78.1 35.5 81 35 78.6 36.6 74.4 38.7 70.8 40.7Z"/><path d="M33.7 67.3C37.7 70.2 42.6 72 47.9 72 59.9 72 69.9 63.2 71.6 51.6 65.9 54.6 59.5 57.6 52.7 60.4 46.1 63.1 39.7 65.5 33.7 67.3Z"/></svg>