<svg viewBox="0 0 96 96" xmlns="http://www.w3.org/2000/svg" xmlns:xlink="http://www.w3.org/1999/xlink" id="Icons_Marketing_M" overflow="hidden"><path d="M26.991 37.991C33.6151 37.9927 38.9863 32.6241 38.988 26 38.9897 19.3759 33.6211 14.0047 26.997 14.003 20.3729 14.0013 15.0017 19.3699 15 25.994 15 25.996 15 25.998 15 26 15.0006 32.6222 20.3688 37.9904 26.991 37.991ZM26.991 16.004C32.5105 16.0023 36.9863 20.4755 36.988 25.995 36.9897 31.5145 32.5165 35.9903 26.997 35.992 21.4775 35.9937 17.0017 31.5205 17 26.001 17 26.0007 17 26.0003 17 26 17 20.4807 21.4717 16.005 26.991 16Z"/><path d="M81.049 15.528C80.5659 15.1702 79.9467 15.0503 79.365 15.202L47.6 23.088 47.6 23.088 42.5 24.337 42.493 33.181 47.609 34.336 53.7 35.878 54.148 37.956C53.5207 38.221 52.95 38.6039 52.467 39.084L42.238 49.319 38.138 49.319C37.0653 46.0557 34.6167 43.4262 31.438 42.124 25.2679 39.7048 18.3049 42.7456 15.8857 48.9157 15.373 50.2233 15.0939 51.6108 15.061 53.015L15.061 82.023 39 82.023 39 60.2 44.532 60.2C45.9738 60.2036 47.3572 59.6312 48.375 58.61L60.175 46.79C61.1847 45.7879 61.7503 44.4226 61.745 43 61.7456 42.6502 61.7121 42.3013 61.645 41.958L64.229 42.631 67.151 39.279 79.339 42.363 79.455 42.385C79.5482 42.397 79.642 42.403 79.736 42.403 80.282 42.4025 80.8079 42.1973 81.21 41.828 81.6457 41.4377 81.8896 40.8768 81.878 40.292L81.891 17.108C81.8658 16.4805 81.5558 15.8988 81.049 15.528ZM44.5 25.907 46.844 25.334 46.838 32.112 44.495 31.583ZM59.75 43.007C59.7536 43.8964 59.401 44.7502 58.771 45.378L46.964 57.2C46.3191 57.8442 45.4436 58.2042 44.532 58.2L32.553 58.2 32.553 60.2 37 60.2 37 80.023 17.061 80.023 17.061 53.062C17.1928 47.6321 21.6295 43.2975 27.061 43.292 31.7872 43.2648 35.839 46.6616 36.637 51.32L43.069 51.32 53.879 40.5C54.0884 40.2961 54.3238 40.1205 54.579 39.978L54.612 40.133 59.286 41.35C59.5819 41.8521 59.7402 42.4232 59.745 43.006ZM63.537 40.386 60.481 39.591C60.381 39.466 60.288 39.332 60.172 39.216L60.027 39.073C58.9871 38.0422 57.5685 37.4852 56.105 37.533L55.866 36.427 64.979 38.727ZM79.881 40.33C79.8501 40.3741 79.8008 40.4017 79.747 40.405L48.837 32.585 48.844 24.844 79.894 17.154Z"/></svg>