<svg viewBox="0 0 96 96" xmlns="http://www.w3.org/2000/svg" xmlns:xlink="http://www.w3.org/1999/xlink" id="Icons_RouteTwoPinsWithAPath_M" overflow="hidden"><g id="Icons"><path d="M83.29 11.4364C80.1172 6.73121 73.7308 5.48899 69.0256 8.66181 67.9311 9.39986 66.9891 10.3419 66.251 11.4364 64.3338 14.2648 63.9288 17.8547 65.1676 21.0391L69.8459 31.3807 73.8841 39.8507C74.135 40.3402 74.7352 40.5337 75.2247 40.2829 75.4105 40.1877 75.5617 40.0365 75.6569 39.8507L79.695 31.3807 84.3733 21.0391C85.6122 17.8547 85.2072 14.2648 83.29 11.4364ZM82.526 20.27 77.89 30.52 74.78 37.0438C74.775 37.0538 74.7669 37.0538 74.7619 37.0438L71.668 30.5565 67.0147 20.27C66.0336 17.7057 66.3681 14.8236 67.9106 12.5522 70.4672 8.76364 75.611 7.76495 79.3995 10.3215 80.2837 10.9182 81.0442 11.6802 81.6392 12.5656 83.1752 14.8348 83.5063 17.7111 82.526 20.27Z"/><path d="M13.2156 49.0057C10.8403 52.5098 10.3386 56.9574 11.8734 60.9027L17.6693 73.7147 22.6722 84.2083C22.9829 84.8148 23.7265 85.0545 24.333 84.7438 24.5632 84.6258 24.7505 84.4385 24.8685 84.2083L29.8714 73.7147 35.6674 60.9027C37.2021 56.9574 36.7003 52.5098 34.3251 49.0057 30.3945 43.1765 22.4827 41.6373 16.6535 45.5678 15.2973 46.4823 14.13 47.6495 13.2156 49.0057ZM32.6745 50.1351C34.6685 53.0798 35.0964 56.8136 33.8203 60.1331L28.066 72.8541 23.7794 81.8454C23.7744 81.8554 23.7663 81.8554 23.7613 81.8454L19.4913 72.8902 13.72 60.1331C12.4431 56.8081 12.8745 53.0686 14.875 50.1217 18.1892 45.2091 24.8583 43.9133 29.7709 47.2275 30.917 48.0006 31.9028 48.9879 32.6742 50.1351Z"/><path d="M43.8628 82.8883C44.8528 82.8768 45.8604 82.8597 46.8779 82.8355L46.83 80.836C45.8212 80.8602 44.8217 80.8768 43.8393 80.8883Z"/><path d="M51.8208 44.3126 50.9243 42.525C49.9675 42.9959 49.0585 43.5583 48.21 44.2044L49.4356 45.785C50.1815 45.2187 50.9803 44.7256 51.8208 44.3126Z"/><path d="M47.625 47.7012 45.9365 46.63C45.3028 47.6115 44.9319 48.7394 44.8594 49.9054L46.8555 50.0254C46.9058 49.197 47.171 48.396 47.625 47.7012Z"/><path d="M40.846 80.909 39.832 80.91 37.851 80.906 37.843 82.906 39.832 82.91 40.85 82.909 40.846 80.909Z"/><path d="M59.65 58.409C58.67 58.1629 57.7 57.9178 56.7569 57.6624L56.2345 59.5931C57.1896 59.8514 58.171 60.0999 59.1627 60.349Z"/><path d="M31.8467 80.88 31.8467 82.88C32.7632 82.88 33.7667 82.8851 34.8408 82.8912L34.8525 80.8912C33.7739 80.8846 32.7671 80.88 31.8467 80.88Z"/><path d="M47.6279 55.9259 48.8809 54.3673C48.2094 53.8542 47.6657 53.1926 47.2925 52.4344L45.4825 53.286C45.9869 54.3181 46.7208 55.2211 47.6279 55.9259Z"/><path d="M59.7251 39.6741 60.1323 41.6322C61.064 41.4386 62.0435 41.2606 63.043 41.1029L62.7314 39.1273C61.7 39.29 60.6885 39.474 59.7251 39.6741Z"/><path d="M65.7568 38.7174 65.9824 40.7047C67.7148 40.5076 68.8524 40.4447 68.8999 40.4425L68.792 38.4454C68.6665 38.4522 67.5171 38.5172 65.7568 38.7174Z"/><path d="M77.6938 72.0916C77.6977 71.2183 77.6013 70.3475 77.4063 69.4962L75.459 69.9522C75.6187 70.6532 75.6975 71.3702 75.6938 72.0892 75.6938 72.2508 75.685 72.4122 75.6675 72.5728L77.6548 72.794C77.6806 72.5608 77.6936 72.3263 77.6938 72.0916Z"/><path d="M67.4443 78.5877 67.9668 80.5184C68.9682 80.2513 69.9547 79.9316 70.9224 79.5606L70.1978 77.6964C69.2963 78.0418 68.3772 78.3393 67.4443 78.5877Z"/><path d="M72.731 76.4688 73.78 78.1719C74.7396 77.6028 75.5934 76.8717 76.3034 76.0111L74.738 74.7664C74.1719 75.4451 73.493 76.021 72.731 76.4688Z"/><path d="M68.417 60.9622 67.6992 62.8289C68.5966 63.1682 69.4719 63.5633 70.32 64.0118L71.2644 62.2486C70.3429 61.761 69.392 61.3314 68.417 60.9622Z"/><path d="M73.9263 64.0142 72.6463 65.5509C73.3399 66.1191 73.9438 66.7888 74.4373 67.5374L76.1173 66.452C75.5142 65.5335 74.7755 64.7116 73.9263 64.0142Z"/><path d="M61.6763 79.7447 61.9663 81.7237C63.0186 81.5694 64.0308 81.3968 64.9746 81.2108L64.5879 79.2484C63.6758 79.4283 62.6963 79.5953 61.6763 79.7447Z"/><path d="M50.3936 57.5948C51.3396 58.0279 52.3102 58.4052 53.3003 58.7248L53.9272 56.8259C53.011 56.5305 52.1129 56.182 51.2372 55.7822Z"/><path d="M52.9136 82.597 52.7983 80.6C51.8062 80.6571 50.8105 80.704 49.8174 80.7426L49.8955 82.7411C50.9 82.7025 51.9087 82.6551 52.9136 82.597Z"/><path d="M53.7979 41.3052 54.4756 43.1871C55.3356 42.8771 56.2749 42.5833 57.2671 42.314L56.7427 40.384C55.6992 40.6673 54.7085 40.9774 53.7979 41.3052Z"/><path d="M55.9326 82.3909C56.9512 82.3092 57.9595 82.2149 58.9507 82.1068L58.7339 80.1185C57.7612 80.2247 56.7715 80.317 55.7725 80.3973Z"/><path d="M62.5728 59.1522 62.0659 61.0867C63.0293 61.3392 63.9868 61.6024 64.9238 61.8867L65.5038 59.9726C64.5435 59.681 63.5605 59.411 62.5728 59.1522Z"/><path d="M74.77 12.8153C72.3223 12.8154 70.338 14.7997 70.3381 17.2474 70.3382 19.6951 72.3225 21.6794 74.7702 21.6793 77.2178 21.6792 79.202 19.695 79.2021 17.2474 79.2123 14.8099 77.2446 12.8255 74.8071 12.8153 74.7947 12.8152 74.7824 12.8152 74.77 12.8153ZM74.77 19.6793C73.4268 19.6792 72.338 18.5904 72.3381 17.2472 72.3382 15.904 73.427 14.8152 74.7702 14.8153 76.1133 14.8154 77.2021 15.9042 77.2021 17.2474 77.2164 18.5762 76.1508 19.665 74.8221 19.6793 74.8047 19.6795 74.7874 19.6795 74.77 19.6793Z"/><path d="M18.2794 56.2047C18.2793 59.2373 20.7376 61.6958 23.7702 61.6959 26.8028 61.696 29.2613 59.2377 29.2614 56.2051 29.2615 53.1725 26.8032 50.714 23.7706 50.7139 23.7704 50.7139 23.7702 50.7139 23.77 50.7139 20.7501 50.7015 18.2919 53.1395 18.2794 56.1594 18.2793 56.1745 18.2793 56.1896 18.2794 56.2047ZM27.2613 56.2047C27.2614 58.1327 25.6985 59.6958 23.7705 59.6959 21.8425 59.696 20.2794 58.1331 20.2793 56.2051 20.2792 54.2771 21.8421 52.714 23.7701 52.7139 23.7702 52.7139 23.7702 52.7139 23.7703 52.7139 25.6777 52.6933 27.2407 54.2229 27.2613 56.1303 27.2616 56.1551 27.2616 56.1799 27.2613 56.2047Z"/></g></svg>