<svg viewBox="0 0 96 96" xmlns="http://www.w3.org/2000/svg" xmlns:xlink="http://www.w3.org/1999/xlink" id="Icons_InternetOfThings" overflow="hidden"><path d="M15 27.95C16.9857 27.9474 18.7817 26.7699 19.576 24.95L24 24.95C25.1046 24.95 26 25.8454 26 26.95L26 40.086C27.0201 39.7102 28.084 39.4665 29.166 39.361 29.3604 38.4697 29.6396 37.5991 30 36.761L30 26.95C29.9961 23.6379 27.3121 20.9539 24 20.95L19.576 20.95C18.4714 18.4191 15.5243 17.2629 12.9934 18.3674 10.4625 19.472 9.30628 22.4191 10.4109 24.95 11.2071 26.7743 13.0095 27.9526 15 27.95Z"/><path d="M18.89 57.229C18.845 57.136 18.809 57.042 18.767 56.95L11 56.95C9.89543 56.95 9 56.0546 9 54.95L9 49.526C11.5309 48.4214 12.6871 45.4743 11.5826 42.9434 10.478 40.4125 7.53089 39.2563 5 40.3608 2.46911 41.4654 1.31285 44.4125 2.41742 46.9434 2.92182 48.0991 3.84428 49.0216 5 49.526L5 54.95C5.00386 58.2621 7.68789 60.9461 11 60.95L21.626 60.95C20.4905 59.8906 19.5627 58.6287 18.89 57.229Z"/><path d="M44 15.526 44 27.982C45.3595 28.0316 46.7056 28.2692 48 28.688L48 15.526C50.5309 14.4214 51.6871 11.4743 50.5826 8.94342 49.478 6.41254 46.5309 5.25628 44 6.36085 41.4691 7.46542 40.3129 10.4125 41.4174 12.9434 41.9218 14.0991 42.8443 15.0216 44 15.526Z"/><path d="M64.26 35.9C64.516 36.08 64.76 36.274 65 36.47L65 32.95C65 31.8454 65.8954 30.95 67 30.95L73 30.95C76.3121 30.9461 78.9961 28.2621 79 24.95L79 23.526C81.5309 22.4214 82.6871 19.4743 81.5826 16.9434 80.478 14.4125 77.5309 13.2563 75 14.3608 72.4691 15.4654 71.3129 18.4125 72.4174 20.9434 72.9218 22.0991 73.8443 23.0216 75 23.526L75 24.95C75 26.0546 74.1046 26.95 73 26.95L67 26.95C63.6877 26.9533 61.0033 29.6377 61 32.95L61 34.266C62.1597 34.6508 63.2577 35.2012 64.26 35.9Z"/><path d="M34 64.408 34 66.95C34 68.0546 33.1046 68.95 32 68.95L26 68.95C22.6877 68.9533 20.0033 71.6377 20 74.95L20 76.374C17.4691 77.4786 16.3129 80.4257 17.4174 82.9566 18.522 85.4875 21.4691 86.6437 24 85.5391 26.5309 84.4346 27.6871 81.4875 26.5826 78.9566 26.0782 77.8008 25.1557 76.8784 24 76.374L24 74.95C24 73.8454 24.8954 72.95 26 72.95L32 72.95C35.3121 72.9461 37.9961 70.2621 38 66.95L38 64.408Z"/><path d="M89 42.95C87.0143 42.9526 85.2183 44.1301 84.424 45.95L74.511 45.95C75.7283 47.0527 76.6746 48.4216 77.276 49.95L84.424 49.95C85.5286 52.4809 88.4757 53.6371 91.0066 52.5326 93.5375 51.428 94.6937 48.4809 93.5892 45.95 92.793 44.1257 90.9905 42.9474 89 42.95Z"/><path d="M80 69.95C78.0143 69.9526 76.2183 71.1301 75.424 72.95L71 72.95C69.8954 72.95 69 72.0546 69 70.95L69 64.257C68.4287 64.354 67.8505 64.4045 67.271 64.408L65 64.408 65 70.95C65.0039 74.2621 67.6879 76.9461 71 76.95L75.424 76.95C76.5286 79.4809 79.4757 80.6371 82.0066 79.5326 84.5375 78.428 85.6937 75.4809 84.5892 72.95 83.793 71.1257 81.9905 69.9474 80 69.95Z"/><path d="M53 79.374 53 64.408 49 64.408 49 79.374C46.4691 80.4786 45.3129 83.4257 46.4174 85.9566 47.522 88.4875 50.4691 89.6437 53 88.5391 55.5309 87.4346 56.6871 84.4875 55.5826 81.9566 55.0782 80.8008 54.1557 79.8784 53 79.374Z"/><path d="M67.271 46.146C67.0558 46.1405 66.8406 46.1512 66.627 46.178L66.627 46.146C66.6215 43.0383 65.0962 40.1297 62.543 38.358 59.9716 36.5706 56.6991 36.1244 53.743 37.158 51.2606 32.4559 45.9084 30.0325 40.737 31.269 35.5752 32.4618 31.9004 37.0325 31.844 42.33L31.844 42.43C28.315 41.8698 24.7631 43.2905 22.594 46.13 20.4473 48.9499 20.0611 52.7346 21.594 55.93 23.1489 59.1412 26.346 61.2351 29.911 61.377L33 61.409 67.271 61.409C71.4858 61.4572 74.9416 58.0796 74.9899 53.8649 75.0381 49.6501 71.6605 46.1942 67.4457 46.146 67.3875 46.1453 67.3292 46.1453 67.271 46.146Z"/></svg>