<svg viewBox="0 0 96 96" xmlns="http://www.w3.org/2000/svg" xmlns:xlink="http://www.w3.org/1999/xlink" id="Icons_SelfieStick" overflow="hidden"><path d="M63 33.176C62.9834 32.1731 62.5262 31.2283 61.75 30.593 59.9494 29.1653 57.8755 28.1215 55.656 27.526 53.988 26.9981 52.2496 26.726 50.5 26.719 48.7525 26.7505 47.0176 27.022 45.344 27.526 43.1509 28.1891 41.0892 29.2268 39.25 30.593 38.4738 31.2283 38.0166 32.1731 38 33.176L38 37 63 37Z"/><path d="M50.447 25.3C54.0595 25.3 56.988 22.3715 56.988 18.759 56.988 15.1465 54.0595 12.218 50.447 12.218 46.8345 12.218 43.906 15.1465 43.906 18.759 43.906 18.7593 43.906 18.7597 43.906 18.76 43.9066 22.3721 46.8349 25.3 50.447 25.3ZM50.447 21.17 54.32 21.17C53.2668 23.309 50.6791 24.1892 48.5401 23.1361 47.6858 22.7155 46.9946 22.0242 46.574 21.17Z"/><path d="M81.822 6.96 65 6.96 65 5C65 3.89543 64.1046 3 63 3L38 3C36.8954 3 36 3.89543 36 5L36 6.96 21.027 6.96C19.2739 6.96494 17.8539 8.38489 17.849 10.138L17.849 38.822C17.8539 40.5751 19.2739 41.9951 21.027 42L36 42 36 44C36 45.1046 36.8954 46 38 46L48 46 48 50 47 50C45.8954 50 45 50.8954 45 52L45 53C45.0015 53.47 45.1703 53.9241 45.476 54.281L25.732 74.026C24.7677 74.083 23.8573 74.4902 23.172 75.171L11.172 87.171C9.60959 88.7329 9.60914 91.2656 11.171 92.828 12.7329 94.3904 15.2656 94.3909 16.828 92.829L28.828 80.829C29.5094 80.1435 29.9169 79.2328 29.974 78.268L52.121 56.121C52.4356 55.8047 52.6749 55.4215 52.821 55L55 55 55 57 57 57C57.5523 57 58 56.5523 58 56L58 49C58 48.4477 57.5523 48 57 48L55 48 55 50 53 50 53 46 63 46C64.1046 46 65 45.1046 65 44L65 42 81.822 42C83.5751 41.9951 84.9951 40.5751 85 38.822L85 10.138C84.9951 8.38489 83.5751 6.96494 81.822 6.96ZM76 39 25 39 25 10 76 10ZM81.822 28.81C81.822 29.4683 81.2883 30.002 80.63 30.002 79.9717 30.002 79.438 29.4683 79.438 28.81L79.438 23.248C79.438 22.5897 79.9717 22.056 80.63 22.056 81.2883 22.056 81.822 22.5897 81.822 23.248ZM80.63 20.467C79.9717 20.467 79.438 19.9333 79.438 19.275 79.438 18.6167 79.9717 18.083 80.63 18.083 81.2883 18.083 81.822 18.6167 81.822 19.275 81.822 19.9333 81.2883 20.467 80.63 20.467Z"/></svg>