<svg viewBox="0 0 96 96" xmlns="http://www.w3.org/2000/svg" xmlns:xlink="http://www.w3.org/1999/xlink" id="Icons_AddressBook_LTR_M" overflow="hidden"><g id="Icons"><path d="M73.981 10 17 10 17 85.961 73.981 85.961C76.7467 85.9638 78.9923 83.7266 79 80.961L79 15C78.9923 12.2344 76.7467 9.99723 73.981 10ZM19 12 26.261 12 26.261 83.961 19 83.961ZM77 80.963C76.9934 82.6245 75.6425 83.9669 73.981 83.963L28.261 83.963 28.261 12 73.981 12C75.6425 11.9961 76.9934 13.3385 77 15Z"/><path d="M51.63 46.781C55.8527 46.76 59.2589 43.3198 59.2379 39.0971 59.2169 34.8744 55.7767 31.4682 51.554 31.4892 47.3462 31.5101 43.9461 34.9271 43.946 39.135 43.9565 43.3682 47.3967 46.7915 51.63 46.781ZM51.63 33.489C54.7481 33.51 57.2589 36.0547 57.2379 39.1729 57.2169 42.291 54.6721 44.8017 51.554 44.7807 48.4508 44.7599 45.9461 42.2383 45.946 39.135 45.9603 36.0079 48.5029 33.4823 51.63 33.489Z"/><path d="M65.463 53.268C63.2328 51.5696 60.6845 50.3359 57.969 49.64 55.9148 49.0096 53.7787 48.6861 51.63 48.68 46.6626 48.7785 41.8413 50.3779 37.8 53.268 36.8524 54.0031 36.2875 55.1269 36.263 56.326L36.263 63.972 67 63.972 67 56.326C66.9774 55.1265 66.4121 54.0019 65.463 53.268ZM65 61.972 38.261 61.972 38.261 56.326C38.2877 55.7502 38.5623 55.2141 39.014 54.856 41.0808 53.3878 43.3794 52.2771 45.814 51.57 47.7048 51.0161 49.6611 50.7168 51.631 50.68 53.5973 50.6882 55.5516 50.986 57.431 51.564 59.8952 52.1862 62.2082 53.3002 64.231 54.839 64.6959 55.1955 64.9778 55.7406 65 56.326Z"/></g></svg>