<svg viewBox="0 0 96 96" xmlns="http://www.w3.org/2000/svg" xmlns:xlink="http://www.w3.org/1999/xlink" id="Icons_AddressBook_LTR" overflow="hidden"><rect x="17" y="11" width="6" height="74"/><path d="M74 11 27 11 27 85 74 85C76.2 85 78 83.2 78 81L78 15C78 12.8 76.2 11 74 11ZM44.1 39.1C44.1 34.9 47.5 31.5 51.7 31.5 55.9 31.5 59.3 34.9 59.3 39.1 59.3 43.3 55.9 46.7 51.7 46.7 47.5 46.7 44.1 43.4 44.1 39.1ZM67 64 36.4 64 36.4 56.4C36.4 55.2 37 54.1 37.9 53.3 40.2 51.7 42.7 50.4 45.4 49.7 47.5 49.1 49.6 48.8 51.7 48.7 53.8 48.7 56 49 58 49.7 60.7 50.4 63.2 51.6 65.5 53.3 66.4 54 67 55.2 67 56.4L67 64Z"/></svg>