<svg viewBox="0 0 96 96" xmlns="http://www.w3.org/2000/svg" xmlns:xlink="http://www.w3.org/1999/xlink" id="Icons_Stream" overflow="hidden"><path d="M78.1 42 63 42 63 48 78 48 78 72.79 41 72.79 41 60 35 60 35 72.89C35.0055 76.1462 37.6438 78.7845 40.9 78.79L78.1 78.79C81.3562 78.7845 83.9945 76.1462 84 72.89L84 47.69C83.9793 44.5255 81.3972 41.9769 78.2327 41.9976 78.1884 41.9979 78.1442 41.9987 78.1 42Z"/><path d="M49 55.79 46 55.79C46.0055 48.6723 51.7624 42.8975 58.88 42.87L58.88 45.87C53.4193 45.8975 49.0054 50.3292 49 55.79Z"/><path d="M42.73 55.79 39.73 55.79C39.741 45.2183 48.3083 36.651 58.88 36.64L58.88 39.64C49.9652 39.651 42.741 46.8752 42.73 55.79Z"/><path d="M36.5 55.79 33.5 55.79C33.5165 41.7782 44.8682 30.422 58.88 30.4L58.88 33.4C46.5228 33.4165 36.511 43.4328 36.5 55.79Z"/><circle cx="55.77" cy="52.67" r="3.12"/><path d="M17 25.79 73 25.79 73 37.79 79 37.79 79 19.79 11 19.79 11 68 31 68 31 62 17 62 17 25.79Z"/></svg>