<svg viewBox="0 0 96 96" xmlns="http://www.w3.org/2000/svg" xmlns:xlink="http://www.w3.org/1999/xlink" id="Icons_Atom" overflow="hidden"><circle cx="47.7" cy="48" r="6"/><path d="M82.9 28C81.2 25.1 77.4 23.7 72.2 23.7 68.9 23.7 65.1 24.3 60.9 25.4 58 14.9 53.2 8 47.7 8 42.3 8 37.4 14.8 34.6 25.2 30.6 24.2 27 23.6 23.8 23.6 18.6 23.6 14.8 25 13.1 27.9 10.3 32.7 14 40.4 21.7 48.2 14.3 55.8 10.9 63.2 13.6 67.9 15.3 70.8 19.1 72.2 24.3 72.2 27.3 72.2 30.8 71.7 34.6 70.8 37.5 81.2 42.3 88 47.7 88 53.1 88 58 81.2 60.8 70.8 64.8 71.8 68.4 72.4 71.6 72.4 76.8 72.4 80.6 71 82.3 68.1 85 63.4 81.6 56 74.2 48.4 82.1 40.5 85.7 32.8 82.9 28ZM72.2 27.7C75.9 27.7 78.6 28.6 79.4 30 80.9 32.6 78.2 38.7 71.4 45.5 69 43.3 66.3 41.1 63.3 39 63 35.6 62.5 32.3 61.8 29.2 65.6 28.2 69.2 27.7 72.2 27.7ZM54.3 58.4C52.2 59.6 50.1 60.7 48 61.7 45.9 60.7 43.8 59.6 41.7 58.4 39.7 57.2 37.7 56 35.9 54.8 35.7 52.6 35.7 50.4 35.7 48 35.7 45.8 35.8 43.7 35.9 41.6 37.9 40.2 40 38.9 42.3 37.6 44.2 36.5 46.1 35.5 48 34.6 49.9 35.5 51.8 36.5 53.7 37.6 55.7 38.8 57.7 40 59.5 41.2 59.7 43.4 59.7 45.6 59.7 48 59.7 50.5 59.6 52.9 59.4 55.2 57.8 56.3 56.1 57.3 54.3 58.4ZM58.9 60.3C58.6 62.2 58.3 64.1 58 65.8 56.3 65.2 54.5 64.6 52.7 63.8 53.9 63.2 55.1 62.5 56.3 61.8 57.2 61.3 58.1 60.8 58.9 60.3ZM43.3 63.8C41.3 64.6 39.4 65.3 37.5 65.9 37.1 64 36.8 62 36.5 59.9 37.6 60.6 38.6 61.2 39.8 61.9 40.9 62.5 42.1 63.2 43.3 63.8ZM31.8 51.8C30.2 50.6 28.8 49.4 27.5 48.2 28.8 47 30.3 45.8 31.8 44.6 31.8 45.7 31.7 46.8 31.7 48 31.7 49.3 31.7 50.6 31.8 51.8ZM36.4 36.5C36.7 34.3 37 32.2 37.4 30.2 39.3 30.8 41.3 31.6 43.3 32.4 42.3 32.9 41.2 33.5 40.2 34.1 39 34.9 37.7 35.7 36.4 36.5ZM52.6 32.4C54.4 31.6 56.2 31 58 30.4 58.4 32.2 58.7 34.1 59 36.1 57.9 35.4 56.9 34.8 55.7 34.1 54.7 33.6 53.7 33 52.6 32.4ZM63.6 44.2C65.4 45.6 67 46.9 68.5 48.3 67 49.6 65.4 51 63.6 52.3 63.7 50.9 63.7 49.5 63.7 48.1 63.7 46.7 63.7 45.4 63.6 44.2ZM47.7 12C50.7 12 54.6 17.3 57.1 26.5 54.2 27.5 51.1 28.7 48 30.1 44.7 28.6 41.5 27.3 38.4 26.3 40.9 17.2 44.7 12 47.7 12ZM16.5 30C17.4 28.5 20 27.7 23.7 27.7 26.6 27.7 29.9 28.2 33.5 29.1 32.8 32.3 32.3 35.8 32 39.4 29.2 41.4 26.7 43.4 24.5 45.5 17.8 38.7 15 32.6 16.5 30ZM24.3 68.3C20.6 68.3 17.9 67.4 17.1 66 15.6 63.4 18.2 57.6 24.6 51 26.9 53 29.4 55 32.1 57 32.4 60.5 32.9 63.9 33.6 67 30.3 67.9 27.1 68.3 24.3 68.3ZM47.7 84C44.7 84 40.9 78.8 38.4 69.8 41.5 68.8 44.7 67.6 48 66.1 51.1 67.5 54.1 68.7 57 69.6 54.5 78.8 50.7 84 47.7 84ZM78.9 66C78 67.5 75.4 68.3 71.7 68.3 68.8 68.3 65.4 67.8 61.9 66.9 62.5 63.9 63 60.8 63.3 57.4 66.3 55.3 69 53.2 71.4 51 77.8 57.6 80.4 63.4 78.9 66Z"/></svg>