<svg viewBox="0 0 96 96" xmlns="http://www.w3.org/2000/svg" xmlns:xlink="http://www.w3.org/1999/xlink" id="Icons_Marketing" overflow="hidden"><circle cx="26.99" cy="25.99" r="11.99"/><path d="M80.65 15.87 47 24.27 47 33.89 53.65 35.56 54.34 38.51C53.6838 38.7538 53.0896 39.1397 52.6 39.64L42.89 49.34 38.39 49.34C36.2118 43.0808 29.3719 39.7724 23.1127 41.9506 18.3875 43.5949 15.1784 47.9983 15.06 53L15.06 82 39 82 39 59.34 45 59.34C46.327 59.3424 47.6005 58.8171 48.54 57.88L59.71 46.71C60.9296 45.471 61.4181 43.6875 61 42L64 42.74 64.41 42.74C64.8695 42.7365 65.3044 42.5318 65.6 42.18L68.25 39.08 80.64 42.18C81.2838 42.2811 81.8877 41.8412 81.9888 41.1974 81.9939 41.1651 81.9976 41.1326 82 41.1L82 16.89C81.9858 16.2937 81.491 15.8218 80.8947 15.8359 80.8121 15.8379 80.73 15.8493 80.65 15.87ZM64.23 40.53 59.34 39.34C58.5455 38.6772 57.5622 38.2818 56.53 38.21L56.06 36.1 65.94 38.52Z"/><path d="M43.54 33.21C44.3463 33.21 45 32.5563 45 31.75L45 25.75C45 24.9437 44.3463 24.29 43.54 24.29 42.7337 24.29 42.08 24.9437 42.08 25.75L42.08 31.75C42.08 32.5563 42.7337 33.21 43.54 33.21Z"/></svg>